<svg id="Layer_1" data-name="Layer 1" xmlns="http://www.w3.org/2000/svg" viewBox="0 0 432 432"><defs><style>.cls-1{fill:#fff;}.cls-2{fill:red;}</style></defs><title>Artboard 1</title><rect class="cls-1" x="86.39" y="183.68" width="102.92" height="72"/><path d="M170.27,233.07l.47.14c1,.31,2.08.65,3.14.93a.92.92,0,0,0,.67-.15c.08-.05,0-.38,0-.54-1.63-3.71-3.28-7.4-4.89-11.11-.52-1.22-.64-1.22-1.61-.48l0,0c-3.39,2.15-6.78,4.29-10.17,6.45-.16.1-.36.35-.33.47s.27.35.45.49a1.34,1.34,0,0,0,.4.13l3.2,1a11.91,11.91,0,0,1-4.64,9.34c-3,2.37-6.51,2.85-10.31,2.36a18.67,18.67,0,0,0,5.91,2.32A14.77,14.77,0,0,0,169,236.34C169.53,235.31,169.85,234.19,170.27,233.07Z"/><path d="M88.62,187v65.35H154v-5.8H94.39V192.84h53.87v46.09H154V187Z"/><path d="M112,206.58h-4.77v8.81h-3.35v-8.81H99.12v-2.67H112Z"/><path d="M127.15,203.91v11.48h-3.34V211h-6.89v4.44h-3.35V203.91h3.35v4.28h6.89v-4.28Z"/><path d="M142.1,212.83v2.56H129.84V203.91h12.08v2.56h-8.78v1.88h7.24v2.45h-7.24v2Z"/><path d="M113.07,231.93c0,2-1.79,3.14-4.61,3.14H99.59V223.59h8.22c2.82,0,4.61,1.14,4.61,3a2.53,2.53,0,0,1-2.63,2.53C111.6,229.2,113.07,230.15,113.07,231.93Zm-10.17-3.76h4.35c1.11,0,1.85-.25,1.85-1.13s-.74-1.12-1.85-1.12H102.9Zm6.74,3.36c0-.93-.7-1.2-1.88-1.2H102.9v2.42h4.86C108.94,232.75,109.64,232.47,109.64,231.53Z"/><path d="M114.38,229.33c0-3.88,2.94-6.11,7.48-6.11s7.5,2.23,7.5,6.11-3,6.12-7.5,6.12S114.38,233.22,114.38,229.33Zm11.57,0c0-2.16-1.56-3.39-4.09-3.39s-4.08,1.23-4.08,3.39,1.56,3.4,4.08,3.4S126,231.5,126,229.33Z"/><path d="M138.25,229.2l5.22,5.87h-4l-3.23-3.65L133,235.07h-3.81l5.2-5.82-5.08-5.66h4l3.12,3.51,3.1-3.51h3.82Z"/><circle class="cls-2" cx="171.9" cy="203.99" r="15.17"/><path class="cls-1" d="M173.64,203.44v4h-1.9v-3.86a1.49,1.49,0,0,0-1.65-1.68,2.37,2.37,0,0,0-2.17,1.43v4.11H166v-3.86a1.49,1.49,0,0,0-1.65-1.68,2.34,2.34,0,0,0-2.16,1.4v4.14h-1.92v-6.81h1.92v1.21a3.09,3.09,0,0,1,2.79-1.46,2.62,2.62,0,0,1,2.72,1.82,3.15,3.15,0,0,1,3-1.82C172.73,200.34,173.64,201.69,173.64,203.44Z"/><path class="cls-1" d="M179.61,206.21a3.78,3.78,0,0,0,2.62-.88l1,1.13a5.39,5.39,0,0,1-3.75,1.21c-2.8,0-4.42-1.41-4.42-3.67s1.61-3.69,4.29-3.69c2.47,0,4.13,1.26,4.13,3.67a1.54,1.54,0,0,1,0,.45h-6.53C177.1,205.65,178,206.21,179.61,206.21Zm-2.59-3,4.66,0a2.08,2.08,0,0,0-2.29-1.41C178.14,201.77,177.29,202.24,177,203.21Z"/></svg>