<svg id="Layer_1" data-name="Layer 1" xmlns="http://www.w3.org/2000/svg" viewBox="0 0 32.55814 35"><defs><style>.cls-1{fill:#fff;}.cls-2{fill:#565656;}.cls-3{fill:none;}</style></defs><rect class="cls-1" width="32.55814" height="35"/><path class="cls-2" d="M21.47122,25.10557l1.1078,9.78886H20.59926l-.104-1.75946h-.69295l-.11648,1.75946H17.68309l.98817-9.78886ZM20.44453,31.3997q-.1471-1.66311-.29507-4.11144-.296,2.81163-.37178,4.11144Z" transform="translate(-13.72093 -12.5)"/><path class="cls-2" d="M22.908,25.10557h1.93261a3.9426,3.9426,0,0,1,1.38733.18735,1.48726,1.48726,0,0,1,.76154.75823,4.31253,4.31253,0,0,1,.28989,1.83983,2.48571,2.48571,0,0,1-.20476,1.1964,1.34929,1.34929,0,0,1-.80755.51959,1.4071,1.4071,0,0,1,.91108.66247,3.21911,3.21911,0,0,1,.23927,1.41866v.90741a4.63573,4.63573,0,0,1-.17255,1.47012,1.0783,1.0783,0,0,1-.54987.65337,4.35214,4.35214,0,0,1-1.54608.17543H22.908Zm1.93721,1.67481V28.957q.12424-.006.19326-.006.28526,0,.36351-.18443a3.91992,3.91992,0,0,0,.07823-1.055,2.20531,2.20531,0,0,0-.06442-.644.37639.37639,0,0,0-.168-.23275A1.15741,1.15741,0,0,0,24.84523,26.78038Zm0,3.7003v2.73894a.68769.68769,0,0,0,.52226-.16929,1.49467,1.49467,0,0,0,.11274-.74369v-.913a1.63613,1.63613,0,0,0-.10123-.76183Q25.27774,30.4989,24.84523,30.48068Z" transform="translate(-13.72093 -12.5)"/><path class="cls-2" d="M32.53885,30.8374q0,1.47533-.0529,2.089a2.80916,2.80916,0,0,1-.3313,1.12159,1.96709,1.96709,0,0,1-.75235.78A2.17934,2.17934,0,0,1,30.29794,35.1a2.22645,2.22645,0,0,1-1.07446-.257,1.92272,1.92272,0,0,1-.76612-.77087,2.76059,2.76059,0,0,1-.34511-1.11855Q28.057,32.349,28.057,30.8374V29.1626q0-1.4752.05292-2.089a2.8063,2.8063,0,0,1,.33129-1.12155,1.966,1.966,0,0,1,.75235-.78A2.179,2.179,0,0,1,30.29794,24.9a2.22671,2.22671,0,0,1,1.07446.25694,1.9242,1.9242,0,0,1,.76613.77092,2.76143,2.76143,0,0,1,.3451,1.11855q.05523.60466.05522,2.11619Zm-1.9372-3.21659a3.95541,3.95541,0,0,0-.05751-.87371.23345.23345,0,0,0-.237-.19043.252.252,0,0,0-.23236.15416,2.82143,2.82143,0,0,0-.08054.91v4.571a5.86875,5.86875,0,0,0,.05293,1.05205.23655.23655,0,0,0,.24616.19952q.19782,0,.2531-.22976a6.33,6.33,0,0,0,.05522-1.09436Z" transform="translate(-13.72093 -12.5)"/><path class="cls-2" d="M37.66485,25.10557v6.542a14.88487,14.88487,0,0,1-.05521,1.56293,2.47584,2.47584,0,0,1-.32671.92507,1.845,1.845,0,0,1-.7155.71951A2.13449,2.13449,0,0,1,35.52058,35.1a2.34261,2.34261,0,0,1-1.178-.29022,1.92357,1.92357,0,0,1-.76384-.75578,2.501,2.501,0,0,1-.2991-.98253q-.046-.517-.046-2.1736v-5.7923h1.9372V32.4457a3.76856,3.76856,0,0,0,.05294.81925.21334.21334,0,0,0,.21395.17838.23087.23087,0,0,0,.237-.19652,4.78278,4.78278,0,0,0,.0529-.92808V25.10557Z" transform="translate(-13.72093 -12.5)"/><path class="cls-2" d="M42.31691,25.10557v1.959H41.16655v7.82988H39.22934V27.06455H38.08359v-1.959Z" transform="translate(-13.72093 -12.5)"/><path class="cls-3" d="M17.68309,23.5428h1.832l.10655-1.34547h.63387l.0951,1.34547h1.811l-1.01337-7.4856H18.587Zm2.25609-5.81648q.13531,1.87236.26988,3.144h-.61Q19.66833,19.87642,19.93918,17.72632Z" transform="translate(-13.72093 -12.5)"/><path class="cls-3" d="M22.36992,20.86111v.4901a4.21744,4.21744,0,0,0,.15574,1.29923,1.40345,1.40345,0,0,0,.65871.75365A2.35513,2.35513,0,0,0,24.39872,23.7a2.409,2.409,0,0,0,1.13646-.25659,1.388,1.388,0,0,0,.65874-.63576,3.04638,3.04638,0,0,0,.17045-1.179,3.13868,3.13868,0,0,0-.30726-1.59514,5.1671,5.1671,0,0,0-1.4905-1.26615,1.38254,1.38254,0,0,1-.50074-.45764,1.33849,1.33849,0,0,1-.09227-.56447.90013.90013,0,0,1,.08209-.4349.26291.26291,0,0,1,.242-.14347.22528.22528,0,0,1,.21045.10635,1.18522,1.18522,0,0,1,.06314.49472v.55483h1.64576v-.29591a3.5649,3.5649,0,0,0-.15783-1.26457,1.27955,1.27955,0,0,0-.644-.61723A2.59029,2.59029,0,0,0,24.23877,15.9a2.37816,2.37816,0,0,0-1.07753.22423,1.39553,1.39553,0,0,0-.64609.62189,2.95381,2.95381,0,0,0-.19994,1.25761,2.87984,2.87984,0,0,0,.141.98021,1.65411,1.65411,0,0,0,.35565.60106,8.23378,8.23378,0,0,0,.8755.69816,5.32022,5.32022,0,0,1,.82919.67967,1.51559,1.51559,0,0,1,.16416.86462.9428.9428,0,0,1-.08628.45311.28292.28292,0,0,1-.26308.15258.26008.26008,0,0,1-.24625-.12022,1.3063,1.3063,0,0,1-.06943-.541v-.91085Z" transform="translate(-13.72093 -12.5)"/><path class="cls-3" d="M19.997,39.67522a3.6761,3.6761,0,0,0,.12179-1.17439,4.10236,4.10236,0,0,0-.17231-1.394.87954.87954,0,0,0-.44567-.54326,3.368,3.368,0,0,0-1.04552-.10634h-.77216v7.4856H18.774V40.56757q.22542,0,.27854.14334a2.96934,2.96934,0,0,1,.05312.74439v2.4875h1.01313V41.96852q0-.90615-.02721-1.10736a1.56471,1.56471,0,0,0-.13862-.44154.81136.81136,0,0,0-.43531-.38376A.57987.57987,0,0,0,19.997,39.67522Zm-.89134-.94784a1.26636,1.26636,0,0,1-.07385.58491.31728.31728,0,0,1-.25781.09014V37.73794a.28563.28563,0,0,1,.2604.111.99183.99183,0,0,1,.07126.467Z" transform="translate(-13.72093 -12.5)"/><polygon class="cls-3" points="8.639 25.455 8.639 23.957 6.82 23.957 6.82 31.443 8.712 31.443 8.712 29.945 7.911 29.945 7.911 28.299 8.592 28.299 8.592 26.875 7.911 26.875 7.911 25.455 8.639 25.455"/><path class="cls-3" d="M24.08228,42.59733l.05855,1.34547h1.11483l-.62383-7.4856H23.05514l-.55643,7.4856h1.12777l.06559-1.34547Zm-.19473-4.471q.08329,1.87236.16614,3.144h-.3755Q23.72081,40.27642,23.88755,38.12632Z" transform="translate(-13.72093 -12.5)"/><path class="cls-3" d="M35.56852,17.64859q-.10834-.91635-.21033-1.59139H33.06528v7.4856h1.54895l.00212-4.938.65029,4.938h1.09858l.61665-5.05359L36.984,23.5428h1.549V16.0572H36.22738l-.40722,3.49544Z" transform="translate(-13.72093 -12.5)"/><polygon class="cls-3" points="28.478 5.055 28.478 3.557 25.523 3.557 25.523 11.043 28.596 11.043 28.596 9.545 27.295 9.545 27.295 7.899 28.402 7.899 28.402 6.475 27.295 6.475 27.295 5.055 28.478 5.055"/><polygon class="cls-3" points="11.72 23.957 11.72 31.443 13.474 31.443 13.474 29.945 12.811 29.945 12.811 23.957 11.72 23.957"/><polygon class="cls-3" points="13.199 3.557 13.199 11.043 14.971 11.043 14.971 7.834 15.689 11.043 17.52 11.043 16.406 6.937 17.423 3.557 15.76 3.557 14.971 6.465 14.971 3.557 13.199 3.557"/><path class="cls-3" d="M32.91113,38.72276v-.29591a5.66372,5.66372,0,0,0-.09716-1.26457,1.15731,1.15731,0,0,0-.39646-.61723A1.10635,1.10635,0,0,0,31.6933,36.3a1.01543,1.01543,0,0,0-.66333.22423,1.25766,1.25766,0,0,0-.39773.62189,4.6371,4.6371,0,0,0-.12308,1.25761,4.56235,4.56235,0,0,0,.08681.98021,2.04106,2.04106,0,0,0,.21894.60106,6.58464,6.58464,0,0,0,.53895.69816,4.35777,4.35777,0,0,1,.51045.67967,2.33045,2.33045,0,0,1,.10106.86462,1.462,1.462,0,0,1-.05311.45311q-.05316.15258-.162.15258a.15487.15487,0,0,1-.15158-.12022,2.0653,2.0653,0,0,1-.04275-.541v-.91085H30.54284v.4901a6.72456,6.72456,0,0,0,.09587,1.29923,1.41431,1.41431,0,0,0,.4055.75365,1.08733,1.08733,0,0,0,1.44716.03932,1.261,1.261,0,0,0,.40552-.63576,6.75858,6.75858,0,0,0-.08423-2.77416,4.36153,4.36153,0,0,0-.91754-1.26615,1.23133,1.23133,0,0,1-.30826-.45764,2.09982,2.09982,0,0,1-.0568-.56447,1.39621,1.39621,0,0,1,.05053-.4349q.05051-.14347.149-.14347a.13584.13584,0,0,1,.12955.10635,1.87406,1.87406,0,0,1,.03887.49472v.55483Z" transform="translate(-13.72093 -12.5)"/><polygon class="cls-3" points="28.523 25.455 28.523 23.957 26.704 23.957 26.704 31.443 28.596 31.443 28.596 29.945 27.795 29.945 27.795 28.299 28.477 28.299 28.477 26.875 27.795 26.875 27.795 25.455 28.523 25.455"/><polygon class="cls-3" points="19.436 25.455 20.082 25.455 20.082 31.443 21.172 31.443 21.172 25.455 21.82 25.455 21.82 23.957 19.436 23.957 19.436 25.455"/><polygon class="cls-3" points="16.493 25.455 16.493 23.957 14.674 23.957 14.674 31.443 16.565 31.443 16.565 29.945 15.765 29.945 15.765 28.299 16.446 28.299 16.446 26.875 15.765 26.875 15.765 25.455 16.493 25.455"/><path class="cls-3" d="M35.88639,36.4572l-.55644,7.4856h1.12778l.06559-1.34547h.39021l.05854,1.34547h1.11484l-.62383-7.4856Zm.623,4.81316q.04261-.99394.20935-3.144.08331,1.87236.16614,3.144Z" transform="translate(-13.72093 -12.5)"/><rect class="cls-3" x="3.41192" y="12.1" width="25.7343" height="10.8"/><polygon class="cls-3" points="25.808 31.443 25.808 25.455 26.456 25.455 26.456 23.957 24.072 23.957 24.072 25.455 24.717 25.455 24.717 31.443 25.808 31.443"/><path class="cls-2" d="M19.93918,17.72632q-.27083,2.15007-.34009,3.144h.61Q20.07453,19.59857,19.93918,17.72632Z" transform="translate(-13.72093 -12.5)"/><path class="cls-2" d="M23.88755,38.12632q-.16673,2.15007-.20936,3.144h.3755Q23.97088,39.99857,23.88755,38.12632Z" transform="translate(-13.72093 -12.5)"/><path class="cls-2" d="M18.774,37.73794v1.66449a.31728.31728,0,0,0,.25781-.09014,1.26636,1.26636,0,0,0,.07385-.58491v-.41149a.99183.99183,0,0,0-.07126-.467A.28563.28563,0,0,0,18.774,37.73794Z" transform="translate(-13.72093 -12.5)"/><path class="cls-2" d="M36.50944,41.27036h.37549q-.08281-1.27179-.16614-3.144Q36.55208,40.27639,36.50944,41.27036Z" transform="translate(-13.72093 -12.5)"/><path class="cls-2" d="M16.862,15V45H43.138V15Zm25.26133,3.97469v1.42406h-1.107v1.646h1.30062v1.498H39.24426V16.0572h2.95479v1.498H41.01629v1.41945ZM38.53292,16.0572v7.4856H36.984l-.00209-5.05359-.61665,5.05359H35.26664l-.65029-4.938-.00212,4.938H33.06528V16.0572h2.29291q.102.67512.21033,1.59139l.25164,1.90405.40722-3.49544Zm-9.05169,0H31.1438l-1.01648,3.37985,1.11332,4.10575h-1.831L28.692,20.334V23.5428H26.92V16.0572h1.772v2.90824Zm-5.39611,6.25572a.26008.26008,0,0,0,.24625.12022.28292.28292,0,0,0,.26308-.15258.9428.9428,0,0,0,.08628-.45311,1.51559,1.51559,0,0,0-.16416-.86462,5.32022,5.32022,0,0,0-.82919-.67967,8.23378,8.23378,0,0,1-.8755-.69816,1.65411,1.65411,0,0,1-.35565-.60106,2.87984,2.87984,0,0,1-.141-.98021,2.95381,2.95381,0,0,1,.19994-1.25761,1.39553,1.39553,0,0,1,.64609-.62189A2.37816,2.37816,0,0,1,24.23877,15.9a2.59029,2.59029,0,0,1,1.17643.24505,1.27955,1.27955,0,0,1,.644.61723,3.5649,3.5649,0,0,1,.15783,1.26457v.29591H24.57129v-.55483a1.18522,1.18522,0,0,0-.06314-.49472.22528.22528,0,0,0-.21045-.10635.26291.26291,0,0,0-.242.14347.90013.90013,0,0,0-.08209.4349,1.33849,1.33849,0,0,0,.09227.56447,1.38254,1.38254,0,0,0,.50074.45764,5.1671,5.1671,0,0,1,1.4905,1.26615,3.13868,3.13868,0,0,1,.30726,1.59514,3.04638,3.04638,0,0,1-.17045,1.179,1.388,1.388,0,0,1-.65874.63576A2.409,2.409,0,0,1,24.39872,23.7a2.35513,2.35513,0,0,1-1.21435-.29591,1.40345,1.40345,0,0,1-.65871-.75365,4.21744,4.21744,0,0,1-.15574-1.29923v-.4901h1.64577V21.772A1.3063,1.3063,0,0,0,24.08512,22.31292ZM22.16159,23.5428h-1.811l-.0951-1.34547h-.63387l-.10655,1.34547h-1.832l.9039-7.4856h2.56123ZM19.95292,40.41962a1.56471,1.56471,0,0,1,.13862.44154q.02721.20117.02721,1.10736V43.9428H19.10562V41.4553a2.96934,2.96934,0,0,0-.05312-.74439q-.05313-.14326-.27854-.14334V43.9428H17.68309V36.4572h.77216a3.368,3.368,0,0,1,1.04552.10634.87954.87954,0,0,1,.44567.54326,4.10236,4.10236,0,0,1,.17231,1.394,3.6761,3.6761,0,0,1-.12179,1.17439.57987.57987,0,0,1-.47935.36064A.81136.81136,0,0,1,19.95292,40.41962Zm2.36051-1.04493v1.42406H21.632v1.646h.80065v1.498H20.5411V36.4572h1.819v1.498H21.632v1.41945Zm.18528,4.56811.55643-7.4856h1.57669l.62383,7.4856H24.14083l-.05855-1.34547h-.39021l-.06559,1.34547Zm4.6964-1.498v1.498H25.44092V36.4572h1.09086v5.98755Zm2.972-3.07006v1.42406h-.68147v1.646h.80066v1.498H28.3948V36.4572h1.819v1.498h-.72811v1.41945Zm1.692-1.70148a.13584.13584,0,0,0-.12955-.10635q-.0985,0-.149.14347a1.39621,1.39621,0,0,0-.05053.4349,2.09982,2.09982,0,0,0,.0568.56447,1.23133,1.23133,0,0,0,.30826.45764,4.36153,4.36153,0,0,1,.91754,1.26615,6.75858,6.75858,0,0,1,.08423,2.77416,1.261,1.261,0,0,1-.40552.63576,1.08733,1.08733,0,0,1-1.44716-.03932,1.41431,1.41431,0,0,1-.4055-.75365,6.72456,6.72456,0,0,1-.09587-1.29923v-.4901H31.556V42.172a2.0653,2.0653,0,0,0,.04275.541.15487.15487,0,0,0,.15158.12022q.10884,0,.162-.15258a1.462,1.462,0,0,0,.05311-.45311,2.33045,2.33045,0,0,0-.10106-.86462,4.35777,4.35777,0,0,0-.51045-.67967,6.58464,6.58464,0,0,1-.53895-.69816,2.04106,2.04106,0,0,1-.21894-.60106,4.56235,4.56235,0,0,1-.08681-.98021,4.6371,4.6371,0,0,1,.12308-1.25761,1.25766,1.25766,0,0,1,.39773-.62189A1.01543,1.01543,0,0,1,31.6933,36.3a1.10635,1.10635,0,0,1,.72421.24505,1.15731,1.15731,0,0,1,.39646.61723,5.66372,5.66372,0,0,1,.09716,1.26457v.29591H31.898v-.55483A1.87406,1.87406,0,0,0,31.85913,37.67321Zm5.93367.282v-1.498h2.38384v1.498h-.64778V43.9428H38.438V37.95524Zm.29411,5.98756H36.97207l-.05854-1.34547h-.39021l-.06559,1.34547H35.32995l.55644-7.4856h1.57669Zm-2.54579-5.98756h-.64778V43.9428H33.80247V37.95524h-.64519v-1.498h2.38384Zm6.6566,1.41945v1.42406h-.68147v1.646h.80066v1.498H40.42539V36.4572h1.819v1.498h-.72811v1.41945ZM42.86715,35.4H17.13285V24.6h25.7343Z" transform="translate(-13.72093 -12.5)"/></svg>