<svg id="Layer_1" data-name="Layer 1" xmlns="http://www.w3.org/2000/svg" viewBox="0 0 27 30"><defs><style>.cls-1{fill:#fff;}.cls-2{fill:#565656;}.cls-3{fill:none;}</style></defs><rect class="cls-1" width="27" height="30"/><path class="cls-2" d="M21.47122,25.10557l1.1078,9.78886H20.59926l-.104-1.75946h-.69295l-.11648,1.75946H17.68309l.98817-9.78886ZM20.44453,31.3997q-.1471-1.66311-.29507-4.11144-.296,2.81163-.37178,4.11144Z" transform="translate(-16.5 -15)"/><path class="cls-2" d="M22.908,25.10557h1.93261a3.9426,3.9426,0,0,1,1.38733.18735,1.48726,1.48726,0,0,1,.76154.75823,4.31253,4.31253,0,0,1,.28989,1.83983,2.48571,2.48571,0,0,1-.20476,1.1964,1.34929,1.34929,0,0,1-.80755.51959,1.4071,1.4071,0,0,1,.91108.66247,3.21911,3.21911,0,0,1,.23927,1.41866v.90741a4.63573,4.63573,0,0,1-.17255,1.47012,1.0783,1.0783,0,0,1-.54987.65337,4.35214,4.35214,0,0,1-1.54608.17543H22.908Zm1.93721,1.67481V28.957q.12424-.006.19326-.006.28526,0,.36351-.18443a3.91992,3.91992,0,0,0,.07823-1.055,2.20531,2.20531,0,0,0-.06442-.644.37639.37639,0,0,0-.168-.23275A1.15741,1.15741,0,0,0,24.84523,26.78038Zm0,3.7003v2.73894a.68769.68769,0,0,0,.52226-.16929,1.49467,1.49467,0,0,0,.11274-.74369v-.913a1.63613,1.63613,0,0,0-.10123-.76183Q25.27774,30.4989,24.84523,30.48068Z" transform="translate(-16.5 -15)"/><path class="cls-2" d="M32.53885,30.8374q0,1.47533-.0529,2.089a2.80916,2.80916,0,0,1-.3313,1.12159,1.96709,1.96709,0,0,1-.75235.78A2.17934,2.17934,0,0,1,30.29794,35.1a2.22645,2.22645,0,0,1-1.07446-.257,1.92272,1.92272,0,0,1-.76612-.77087,2.76059,2.76059,0,0,1-.34511-1.11855Q28.057,32.349,28.057,30.8374V29.1626q0-1.4752.05292-2.089a2.8063,2.8063,0,0,1,.33129-1.12155,1.966,1.966,0,0,1,.75235-.78A2.179,2.179,0,0,1,30.29794,24.9a2.22671,2.22671,0,0,1,1.07446.25694,1.9242,1.9242,0,0,1,.76613.77092,2.76143,2.76143,0,0,1,.3451,1.11855q.05523.60466.05522,2.11619Zm-1.9372-3.21659a3.95541,3.95541,0,0,0-.05751-.87371.23345.23345,0,0,0-.237-.19043.252.252,0,0,0-.23236.15416,2.82143,2.82143,0,0,0-.08054.91v4.571a5.86875,5.86875,0,0,0,.05293,1.05205.23655.23655,0,0,0,.24616.19952q.19782,0,.2531-.22976a6.33,6.33,0,0,0,.05522-1.09436Z" transform="translate(-16.5 -15)"/><path class="cls-2" d="M37.66485,25.10557v6.542a14.88487,14.88487,0,0,1-.05521,1.56293,2.47584,2.47584,0,0,1-.32671.92507,1.845,1.845,0,0,1-.7155.71951A2.13449,2.13449,0,0,1,35.52058,35.1a2.34261,2.34261,0,0,1-1.178-.29022,1.92357,1.92357,0,0,1-.76384-.75578,2.501,2.501,0,0,1-.2991-.98253q-.046-.517-.046-2.1736v-5.7923h1.9372V32.4457a3.76856,3.76856,0,0,0,.05294.81925.21334.21334,0,0,0,.21395.17838.23087.23087,0,0,0,.237-.19652,4.78278,4.78278,0,0,0,.0529-.92808V25.10557Z" transform="translate(-16.5 -15)"/><path class="cls-2" d="M42.31691,25.10557v1.959H41.16655v7.82988H39.22934V27.06455H38.08359v-1.959Z" transform="translate(-16.5 -15)"/><path class="cls-3" d="M18.28125,23.85639h1.743l.10137-1.28013h.60309l.09048,1.28013h1.723l-.96415-7.12207H19.14125Zm2.14652-5.534q.12876,1.78143.25678,2.99135H20.1042Q20.17007,20.36805,20.42777,18.32238Z" transform="translate(-16.5 -15)"/><path class="cls-3" d="M22.74047,21.30494v.46629a4.01262,4.01262,0,0,0,.14817,1.23614,1.33527,1.33527,0,0,0,.62673.717,2.24063,2.24063,0,0,0,1.15537.28154,2.292,2.292,0,0,0,1.08127-.24413,1.32054,1.32054,0,0,0,.62675-.60488,2.89846,2.89846,0,0,0,.16217-1.12176,2.98623,2.98623,0,0,0-.29234-1.51768,4.91617,4.91617,0,0,0-1.41811-1.20466,1.31531,1.31531,0,0,1-.47642-.43541,1.27334,1.27334,0,0,1-.0878-.53706.85642.85642,0,0,1,.07811-.41378.25013.25013,0,0,1,.23025-.1365.21436.21436,0,0,1,.20024.10118,1.12764,1.12764,0,0,1,.06007.4707v.52789h1.56584v-.28154a3.39177,3.39177,0,0,0-.15017-1.20316,1.21741,1.21741,0,0,0-.61274-.58726,2.46462,2.46462,0,0,0-1.1193-.23315,2.2629,2.2629,0,0,0-1.02521.21334,1.32784,1.32784,0,0,0-.6147.59169,2.81026,2.81026,0,0,0-.19024,1.19654,2.74019,2.74019,0,0,0,.13417.9326,1.57394,1.57394,0,0,0,.33838.57188,7.83684,7.83684,0,0,0,.833.66425,5.0623,5.0623,0,0,1,.78893.64666,1.442,1.442,0,0,1,.15618.82263.897.897,0,0,1-.08208.4311.2692.2692,0,0,1-.25031.14517.24745.24745,0,0,1-.23429-.11437,1.24294,1.24294,0,0,1-.06606-.51469v-.86661Z" transform="translate(-16.5 -15)"/><path class="cls-3" d="M20.48275,39.20535a3.49748,3.49748,0,0,0,.11587-1.11735,3.9033,3.9033,0,0,0-.16394-1.32634.83681.83681,0,0,0-.424-.51687,3.20429,3.20429,0,0,0-.99474-.10118h-.73466v7.12207h1.03789V40.05437q.21447,0,.265.13637a2.82534,2.82534,0,0,1,.05054.70825v2.36669h.96393v-1.8784q0-.86215-.02588-1.05358a1.48849,1.48849,0,0,0-.1319-.4201.77188.77188,0,0,0-.41417-.36512A.55171.55171,0,0,0,20.48275,39.20535Zm-.84806-.9018a1.20476,1.20476,0,0,1-.07026.55649.30184.30184,0,0,1-.24529.08577V37.36215a.27176.27176,0,0,1,.24776.10558.94371.94371,0,0,1,.06779.4443Z" transform="translate(-16.5 -15)"/><polygon class="cls-3" points="6.231 22.569 6.231 21.144 4.5 21.144 4.5 28.266 6.3 28.266 6.3 26.84 5.538 26.84 5.538 25.274 6.187 25.274 6.187 23.919 5.538 23.919 5.538 22.569 6.231 22.569"/><path class="cls-3" d="M24.36967,41.98556l.0557,1.28012h1.0607l-.59354-7.12207H23.39241L22.863,43.26568h1.073l.06241-1.28012Zm-.18528-4.25389q.07926,1.78143.15807,2.99136H23.9852Q24.02576,39.77736,24.18439,37.73167Z" transform="translate(-16.5 -15)"/><path class="cls-3" d="M35.29809,18.24842q-.10308-.87184-.20012-1.5141H32.91642v7.12207h1.47373l.002-4.69819.61872,4.69819H36.0561l.5867-4.80817.002,4.80817h1.47373V16.73432H35.925L35.53751,20.06Z" transform="translate(-16.5 -15)"/><polygon class="cls-3" points="25.107 3.16 25.107 1.734 22.295 1.734 22.295 8.856 25.219 8.856 25.219 7.431 23.981 7.431 23.981 5.865 25.035 5.865 25.035 4.51 23.981 4.51 23.981 3.16 25.107 3.16"/><polygon class="cls-3" points="9.162 21.144 9.162 28.266 10.831 28.266 10.831 26.84 10.2 26.84 10.2 21.144 9.162 21.144"/><polygon class="cls-3" points="10.57 1.734 10.57 8.856 12.256 8.856 12.256 5.803 12.938 8.856 14.68 8.856 13.621 4.95 14.588 1.734 13.006 1.734 12.256 4.501 12.256 1.734 10.57 1.734"/><path class="cls-3" d="M32.76975,38.29915v-.28154a5.38844,5.38844,0,0,0-.09244-1.20316,1.101,1.101,0,0,0-.3772-.58725,1.05261,1.05261,0,0,0-.689-.23315.96618.96618,0,0,0-.63112.21333,1.1967,1.1967,0,0,0-.37841.59169,4.41164,4.41164,0,0,0-.11711,1.19654,4.34119,4.34119,0,0,0,.08259.9326,1.94229,1.94229,0,0,0,.20831.57188,6.2655,6.2655,0,0,0,.51278.66426,4.14659,4.14659,0,0,1,.48567.64666,2.21752,2.21752,0,0,1,.09614.82262,1.391,1.391,0,0,1-.05053.43111q-.05058.14517-.15409.14517a.14734.14734,0,0,1-.14422-.11438,1.9649,1.9649,0,0,1-.04067-.51469v-.86661h-.96393v.4663a6.39775,6.39775,0,0,0,.09121,1.23613,1.34561,1.34561,0,0,0,.38581.71705,1.03451,1.03451,0,0,0,1.37688.0374,1.19963,1.19963,0,0,0,.38582-.60488,6.43025,6.43025,0,0,0-.08013-2.63943,4.14972,4.14972,0,0,0-.873-1.20466,1.17151,1.17151,0,0,1-.29328-.43542,1.99732,1.99732,0,0,1-.05405-.53705,1.3286,1.3286,0,0,1,.04808-.41379q.04806-.1365.14175-.13649a.12925.12925,0,0,1,.12327.10117,1.78349,1.78349,0,0,1,.037.4707v.52789Z" transform="translate(-16.5 -15)"/><polygon class="cls-3" points="25.15 22.569 25.15 21.144 23.419 21.144 23.419 28.266 25.219 28.266 25.219 26.84 24.457 26.84 24.457 25.274 25.105 25.274 25.105 23.919 24.457 23.919 24.457 22.569 25.15 22.569"/><polygon class="cls-3" points="16.504 22.569 17.118 22.569 17.118 28.266 18.156 28.266 18.156 22.569 18.772 22.569 18.772 21.144 16.504 21.144 16.504 22.569"/><polygon class="cls-3" points="13.703 22.569 13.703 21.144 11.973 21.144 11.973 28.266 13.772 28.266 13.772 26.84 13.011 26.84 13.011 25.274 13.659 25.274 13.659 23.919 13.011 23.919 13.011 22.569 13.703 22.569"/><path class="cls-3" d="M35.60052,36.14361l-.52941,7.12207h1.073l.06241-1.28012h.37126l.0557,1.28012h1.0607l-.59354-7.12207Zm.59279,4.57942q.04056-.94568.19919-2.99136.07926,1.78143.15807,2.99136Z" transform="translate(-16.5 -15)"/><rect class="cls-3" x="1.25773" y="9.86225" width="24.48454" height="10.27551"/><polygon class="cls-3" points="22.566 28.266 22.566 22.569 23.182 22.569 23.182 21.144 20.914 21.144 20.914 22.569 21.528 22.569 21.528 28.266 22.566 28.266"/><path class="cls-2" d="M20.42777,18.32238q-.25767,2.04566-.32357,2.99135h.58035Q20.55655,20.10371,20.42777,18.32238Z" transform="translate(-16.5 -15)"/><path class="cls-2" d="M24.18439,37.73167q-.15863,2.04566-.19919,2.99136h.35726Q24.26368,39.513,24.18439,37.73167Z" transform="translate(-16.5 -15)"/><path class="cls-2" d="M19.31914,37.36215v1.58366a.30184.30184,0,0,0,.24529-.08577,1.20476,1.20476,0,0,0,.07026-.55649V37.912a.94371.94371,0,0,0-.06779-.4443A.27176.27176,0,0,0,19.31914,37.36215Z" transform="translate(-16.5 -15)"/><path class="cls-2" d="M36.19331,40.723h.35726q-.07879-1.21-.15807-2.99136Q36.23387,39.77733,36.19331,40.723Z" transform="translate(-16.5 -15)"/><path class="cls-2" d="M17.5,15.72846V44.27154h25V15.72846Zm24.03453,3.78166V20.865H40.4813v1.56606h1.23745v1.4253H38.79532V16.73432h2.8113v1.42529H40.4813v1.35051Zm-3.416-2.7758v7.12207H36.64479l-.002-4.80817-.5867,4.80817H35.01088l-.61872-4.69819-.002,4.69819H32.91642V16.73432H35.098q.09708.64233.20012,1.5141L35.53751,20.06l.38745-3.32568Zm-8.61209,0h1.58183L30.12114,19.95l1.05925,3.90636H29.43832l-.68279-3.053v3.053h-1.686V16.73432h1.686v2.767Zm-5.13406,5.95192a.24745.24745,0,0,0,.23429.11437.2692.2692,0,0,0,.25031-.14517.897.897,0,0,0,.08208-.4311,1.442,1.442,0,0,0-.15618-.82263,5.0623,5.0623,0,0,0-.78893-.64666,7.83684,7.83684,0,0,1-.833-.66425,1.57394,1.57394,0,0,1-.33838-.57188,2.74019,2.74019,0,0,1-.13417-.9326,2.81026,2.81026,0,0,1,.19024-1.19654,1.32784,1.32784,0,0,1,.6147-.59169,2.2629,2.2629,0,0,1,1.02521-.21334,2.46462,2.46462,0,0,1,1.1193.23315,1.21741,1.21741,0,0,1,.61274.58726,3.39177,3.39177,0,0,1,.15017,1.20316v.28154H24.83493V18.362a1.12764,1.12764,0,0,0-.06007-.4707.21436.21436,0,0,0-.20024-.10118.25013.25013,0,0,0-.23025.1365.85642.85642,0,0,0-.07811.41378,1.27334,1.27334,0,0,0,.0878.53706,1.31531,1.31531,0,0,0,.47642.43541,4.91617,4.91617,0,0,1,1.41811,1.20466,2.98623,2.98623,0,0,1,.29234,1.51768,2.89846,2.89846,0,0,1-.16217,1.12176,1.32054,1.32054,0,0,1-.62675.60488,2.292,2.292,0,0,1-1.08127.24413,2.24063,2.24063,0,0,1-1.15537-.28154,1.33527,1.33527,0,0,1-.62673-.717,4.01262,4.01262,0,0,1-.14817-1.23614v-.46629h1.56584v.86661A1.24294,1.24294,0,0,0,24.37237,22.68624Zm-1.83012,1.17015h-1.723l-.09048-1.28013h-.60309l-.10137,1.28013h-1.743l.86-7.12207H21.5781ZM20.44084,39.9136a1.48849,1.48849,0,0,1,.1319.4201q.02588.1914.02588,1.05358v1.8784h-.96393V40.899a2.82534,2.82534,0,0,0-.05054-.70825q-.05055-.1363-.265-.13637v3.21131H18.28125V36.14361h.73466a3.20429,3.20429,0,0,1,.99474.10118.83681.83681,0,0,1,.424.51687,3.9033,3.9033,0,0,1,.16394,1.32634,3.49748,3.49748,0,0,1-.11587,1.11735.55171.55171,0,0,1-.45608.34313A.77188.77188,0,0,1,20.44084,39.9136Zm2.24588-.99418v1.3549h-.64837v1.56607h.76177v1.42529H21.00046V36.14361H22.7311v1.4253h-.69275v1.35051Zm.17628,4.34626.52941-7.12207h1.50012l.59354,7.12207h-1.0607l-.0557-1.28012h-.37126L23.936,43.26568Zm4.46832-1.42529v1.42529h-1.669V36.14361h1.03789v5.69678Zm2.82769-2.921v1.3549h-.64837v1.56607h.76177v1.42529H28.47275V36.14361h1.73064v1.4253h-.69275v1.35051Zm1.60984-1.61886a.12925.12925,0,0,0-.12327-.10117q-.09372,0-.14175.13649a1.3286,1.3286,0,0,0-.04808.41379,1.99732,1.99732,0,0,0,.05405.53705,1.17151,1.17151,0,0,0,.29328.43542,4.14972,4.14972,0,0,1,.873,1.20466,6.43025,6.43025,0,0,1,.08013,2.63943,1.19963,1.19963,0,0,1-.38582.60488,1.03451,1.03451,0,0,1-1.37688-.0374,1.34561,1.34561,0,0,1-.38581-.71705,6.39775,6.39775,0,0,1-.09121-1.23613v-.4663h.96393v.86661a1.9649,1.9649,0,0,0,.04067.51469.14734.14734,0,0,0,.14422.11438q.10355,0,.15409-.14517a1.391,1.391,0,0,0,.05053-.43111,2.21752,2.21752,0,0,0-.09614-.82262,4.14659,4.14659,0,0,0-.48567-.64666,6.2655,6.2655,0,0,1-.51278-.66426,1.94229,1.94229,0,0,1-.20831-.57188,4.34119,4.34119,0,0,1-.08259-.9326,4.41164,4.41164,0,0,1,.11711-1.19654,1.1967,1.1967,0,0,1,.37841-.59169.96618.96618,0,0,1,.63112-.21333,1.05261,1.05261,0,0,1,.689.23315,1.101,1.101,0,0,1,.3772.58725,5.38844,5.38844,0,0,1,.09244,1.20316v.28154h-.96393v-.52789A1.78349,1.78349,0,0,0,31.76885,37.30056Zm5.64551.26835v-1.4253h2.26806v1.4253H39.0661v5.69677H38.02821V37.56891Zm.27982,5.69677h-1.0607l-.0557-1.28012h-.37126l-.06241,1.28012h-1.073l.52941-7.12207h1.50012ZM35.272,37.56891H34.6557v5.69677H33.61781V37.56891H33.004v-1.4253H35.272Zm6.33333,1.35051v1.3549H40.957v1.56607h.76177v1.42529H39.91909V36.14361h1.73063v1.4253H40.957v1.35051Zm.63692-3.78167H17.75773V24.86225H42.24227Z" transform="translate(-16.5 -15)"/></svg>