<svg id="Layer_1" data-name="Layer 1" xmlns="http://www.w3.org/2000/svg" viewBox="0 0 32.55814 35"><defs><style>.cls-1{fill:#fff;}.cls-2{fill:#565656;}.cls-3{fill:none;}</style></defs><rect class="cls-1" width="32.55814" height="35"/><path class="cls-2" d="M20.26249,24.41192,21.5273,35.58808H19.267l-.1187-2.00881H18.3571l-.133,2.00881H15.9375l1.12821-11.17616ZM19.0903,31.59807q-.168-1.89882-.33689-4.69412-.338,3.21009-.42447,4.69412Z" transform="translate(-13.72093 -12.5)"/><path class="cls-2" d="M21.90293,24.41192h2.2065a4.50145,4.50145,0,0,1,1.584.2139,1.698,1.698,0,0,1,.86946.86569,4.92371,4.92371,0,0,1,.331,2.10058A2.83783,2.83783,0,0,1,26.66,28.958a1.54043,1.54043,0,0,1-.922.59323,1.6065,1.6065,0,0,1,1.04021.75635,3.6754,3.6754,0,0,1,.27319,1.61973v1.036a5.29276,5.29276,0,0,1-.197,1.67847,1.23109,1.23109,0,0,1-.62781.746,4.96871,4.96871,0,0,1-1.76519.20029H21.90293Zm2.21175,1.91216v2.48513q.14184-.00681.22065-.0069.32568,0,.415-.21057a4.47541,4.47541,0,0,0,.08931-1.20457,2.51755,2.51755,0,0,0-.07355-.73521.42976.42976,0,0,0-.19175-.26575A1.32168,1.32168,0,0,0,24.11468,26.32408Zm0,4.22472v3.12712a.78517.78517,0,0,0,.59628-.19329,1.70663,1.70663,0,0,0,.12871-.84909V31.59117a1.86776,1.86776,0,0,0-.11558-.86979Q24.60849,30.56961,24.11468,30.5488Z" transform="translate(-13.72093 -12.5)"/><path class="cls-2" d="M32.89867,30.95608q0,1.68441-.0604,2.385A3.20746,3.20746,0,0,1,32.46,34.62164a2.24581,2.24581,0,0,1-.859.89051,2.48823,2.48823,0,0,1-1.26087.31064,2.54209,2.54209,0,0,1-1.22673-.29341,2.19519,2.19519,0,0,1-.8747-.88012,3.15194,3.15194,0,0,1-.394-1.27708q-.063-.69022-.063-2.4161V29.04392q0-1.68427.06042-2.38506a3.204,3.204,0,0,1,.37824-1.2805,2.24458,2.24458,0,0,1,.859-.89051,2.48785,2.48785,0,0,1,1.26086-.31064,2.54222,2.54222,0,0,1,1.22674.29336,2.19685,2.19685,0,0,1,.87471.88017,3.15284,3.15284,0,0,1,.394,1.27708q.063.69036.06305,2.4161Zm-2.21176-3.67246a4.51679,4.51679,0,0,0-.06565-.99753.26654.26654,0,0,0-.27059-.21742.28777.28777,0,0,0-.26529.176,3.22153,3.22153,0,0,0-.092,1.03895v5.21876a6.69981,6.69981,0,0,0,.06044,1.20115.27007.27007,0,0,0,.28105.2278q.22585,0,.289-.26232a7.227,7.227,0,0,0,.063-1.24946Z" transform="translate(-13.72093 -12.5)"/><path class="cls-2" d="M38.75114,24.41192V31.8811a16.99316,16.99316,0,0,1-.063,1.78444,2.827,2.827,0,0,1-.373,1.05618,2.1065,2.1065,0,0,1-.81692.82147,2.437,2.437,0,0,1-1.1952.2796,2.67469,2.67469,0,0,1-1.34492-.33135,2.19628,2.19628,0,0,1-.87209-.86289,2.85546,2.85546,0,0,1-.34148-1.12179q-.05257-.5902-.05254-2.48165V24.41192h2.21176v8.3804a4.30253,4.30253,0,0,0,.06043.93534.24357.24357,0,0,0,.24427.20367A.26359.26359,0,0,0,36.479,33.707a5.46046,5.46046,0,0,0,.0604-1.05961V24.41192Z" transform="translate(-13.72093 -12.5)"/><path class="cls-2" d="M44.0625,24.41192v2.23661H42.74911v8.93955H40.53736V26.64853H39.22922V24.41192Z" transform="translate(-13.72093 -12.5)"/><path class="cls-3" d="M15.9375,22.62766h2.09163l.12165-1.53615h.72371l.10858,1.53615H21.0507l-1.157-8.54648H16.9695Zm2.57582-6.64081q.15452,2.13772.30814,3.58963H18.125Q18.20409,18.44167,18.51332,15.98685Z" transform="translate(-13.72093 -12.5)"/><path class="cls-3" d="M21.28856,19.56592v.55956a4.81507,4.81507,0,0,0,.17781,1.48336,1.60237,1.60237,0,0,0,.75207.86046,2.68889,2.68889,0,0,0,1.38644.33784,2.75032,2.75032,0,0,0,1.29753-.293,1.58453,1.58453,0,0,0,.7521-.72586,3.47786,3.47786,0,0,0,.19461-1.34611,3.58347,3.58347,0,0,0-.35081-1.82121,5.89921,5.89921,0,0,0-1.70174-1.44559,1.57829,1.57829,0,0,1-.5717-.5225,1.52809,1.52809,0,0,1-.10535-.64446,1.02779,1.02779,0,0,1,.09372-.49655.30018.30018,0,0,1,.27631-.16379.25723.25723,0,0,1,.24028.12141,1.35321,1.35321,0,0,1,.07209.56484v.63347h1.879V16.33a4.07037,4.07037,0,0,0-.18019-1.44379,1.46094,1.46094,0,0,0-.7353-.70471,2.95757,2.95757,0,0,0-1.34316-.27978,2.71542,2.71542,0,0,0-1.23025.256,1.59334,1.59334,0,0,0-.73764.71,3.37221,3.37221,0,0,0-.22829,1.43585,3.288,3.288,0,0,0,.161,1.11912,1.88855,1.88855,0,0,0,.40606.68625,9.40116,9.40116,0,0,0,.99957.79711,6.07373,6.07373,0,0,1,.94671.776,1.73035,1.73035,0,0,1,.18742.98714,1.07645,1.07645,0,0,1-.0985.51733.323.323,0,0,1-.30037.17421.29693.29693,0,0,1-.28114-.13726,1.4913,1.4913,0,0,1-.07928-.61762V19.56592Z" transform="translate(-13.72093 -12.5)"/><path class="cls-3" d="M18.5793,41.04643a4.197,4.197,0,0,0,.13905-1.34084,4.68394,4.68394,0,0,0-.19673-1.59159,1.00411,1.00411,0,0,0-.50884-.62025,3.84506,3.84506,0,0,0-1.19369-.12141H15.9375v8.54648H17.183V42.06524q.25738,0,.318.16365a3.39073,3.39073,0,0,1,.06064.8499v2.84h1.15672V43.66474q0-1.03458-.03107-1.2643a1.78623,1.78623,0,0,0-.15827-.50412.9263.9263,0,0,0-.497-.43814A.66208.66208,0,0,0,18.5793,41.04643Zm-1.01767-1.08217a1.44573,1.44573,0,0,1-.08431.66779.36224.36224,0,0,1-.29436.10292V38.83458a.32612.32612,0,0,1,.29732.1267,1.13237,1.13237,0,0,1,.08135.53316Z" transform="translate(-13.72093 -12.5)"/><polygon class="cls-3" points="7.556 26.583 7.556 24.872 5.48 24.872 5.48 33.419 7.639 33.419 7.639 31.708 6.725 31.708 6.725 29.829 7.503 29.829 7.503 28.203 6.725 28.203 6.725 26.583 7.556 26.583"/><path class="cls-3" d="M23.2436,44.38267l.06685,1.53615h1.27283L23.871,37.37234H22.0709l-.6353,8.54648h1.2876l.07489-1.53615ZM23.02127,39.278q.09511,2.13771.18969,3.58962h-.42871Q22.8309,41.73282,23.02127,39.278Z" transform="translate(-13.72093 -12.5)"/><path class="cls-3" d="M36.35771,15.89811q-.12371-1.04622-.24015-1.81693H33.4997v8.54648h1.76848l.00242-5.63782.74245,5.63782h1.25427l.70405-5.76979.00238,5.76979h1.76848V14.08118H37.11L36.645,18.072Z" transform="translate(-13.72093 -12.5)"/><polygon class="cls-3" points="30.207 3.292 30.207 1.581 26.833 1.581 26.833 10.128 30.342 10.128 30.342 8.417 28.857 8.417 28.857 6.538 30.121 6.538 30.121 4.912 28.857 4.912 28.857 3.292 30.207 3.292"/><polygon class="cls-3" points="11.074 24.872 11.074 33.419 13.077 33.419 13.077 31.708 12.319 31.708 12.319 24.872 11.074 24.872"/><polygon class="cls-3" points="12.763 1.581 12.763 10.128 14.786 10.128 14.786 6.464 15.605 10.128 17.696 10.128 16.424 5.44 17.585 1.581 15.687 1.581 14.786 4.902 14.786 1.581 12.763 1.581"/><path class="cls-3" d="M33.3237,39.959v-.33785a6.4663,6.4663,0,0,0-.11093-1.44379,1.32121,1.32121,0,0,0-.45264-.7047,1.26317,1.26317,0,0,0-.82685-.27978,1.15939,1.15939,0,0,0-.75734.256,1.43594,1.43594,0,0,0-.45409.71,5.29393,5.29393,0,0,0-.14053,1.43585,5.20868,5.20868,0,0,0,.09911,1.11912,2.33067,2.33067,0,0,0,.25.68625,7.51765,7.51765,0,0,0,.61534.79711,4.97467,4.97467,0,0,1,.58279.776,2.66065,2.66065,0,0,1,.11538.98715,1.66922,1.66922,0,0,1-.06064.51733q-.0607.17419-.18491.1742a.17682.17682,0,0,1-.17307-.13725,2.35854,2.35854,0,0,1-.0488-.61763V42.85708H30.61977v.55955A7.67741,7.67741,0,0,0,30.72923,44.9a1.61475,1.61475,0,0,0,.463.86046,1.24141,1.24141,0,0,0,1.65225.04489,1.43949,1.43949,0,0,0,.463-.72586,5.49231,5.49231,0,0,0,.1198-1.34611,5.53939,5.53939,0,0,0-.216-1.82121,4.97948,4.97948,0,0,0-1.04758-1.4456,1.40567,1.40567,0,0,1-.35194-.5225,2.39694,2.39694,0,0,1-.06486-.64446,1.594,1.594,0,0,1,.0577-.49654q.05766-.1638.1701-.1638a.15509.15509,0,0,1,.14791.12142,2.13935,2.13935,0,0,1,.04438.56484V39.959Z" transform="translate(-13.72093 -12.5)"/><polygon class="cls-3" points="30.259 26.583 30.259 24.872 28.182 24.872 28.182 33.419 30.342 33.419 30.342 31.708 29.427 31.708 29.427 29.829 30.205 29.829 30.205 28.203 29.427 28.203 29.427 26.583 30.259 26.583"/><polygon class="cls-3" points="19.884 26.583 20.62 26.583 20.62 33.419 21.866 33.419 21.866 26.583 22.605 26.583 22.605 24.872 19.884 24.872 19.884 26.583"/><polygon class="cls-3" points="16.523 26.583 16.523 24.872 14.446 24.872 14.446 33.419 16.606 33.419 16.606 31.708 15.692 31.708 15.692 29.829 16.47 29.829 16.47 28.203 15.692 28.203 15.692 26.583 16.523 26.583"/><path class="cls-3" d="M36.72063,37.37234l-.6353,8.54648h1.2876l.07489-1.53615h.44551l.06685,1.53615H39.233l-.71224-8.54648Zm.71135,5.49529q.04866-1.13481.239-3.58962.09511,2.13771.18969,3.58962Z" transform="translate(-13.72093 -12.5)"/><rect class="cls-3" x="1.58835" y="11.33469" width="29.38144" height="12.33061"/><polygon class="cls-3" points="27.158 33.419 27.158 26.583 27.898 26.583 27.898 24.872 25.176 24.872 25.176 26.583 25.913 26.583 25.913 33.419 27.158 33.419"/><path class="cls-2" d="M18.51332,15.98685q-.3092,2.45478-.38828,3.58963h.69642Q18.66786,18.12444,18.51332,15.98685Z" transform="translate(-13.72093 -12.5)"/><path class="cls-2" d="M23.02127,39.278q-.19035,2.45478-.239,3.58962H23.211Q23.1164,41.4156,23.02127,39.278Z" transform="translate(-13.72093 -12.5)"/><path class="cls-2" d="M17.183,38.83458V40.735a.36224.36224,0,0,0,.29436-.10292,1.44573,1.44573,0,0,0,.08431-.66779v-.46982a1.13237,1.13237,0,0,0-.08135-.53316A.32612.32612,0,0,0,17.183,38.83458Z" transform="translate(-13.72093 -12.5)"/><path class="cls-2" d="M37.432,42.86763h.42871q-.09456-1.452-.18969-3.58962Q37.48065,41.73279,37.432,42.86763Z" transform="translate(-13.72093 -12.5)"/><path class="cls-2" d="M15,12.87415v34.2517H45V12.87415Zm28.84144,4.538V19.038H42.57756v1.87927H44.0625v1.71035H40.55438V14.08118h3.37356v1.71035H42.57756v1.62062Zm-4.09921-3.331v8.54648H37.97375l-.00238-5.76979-.70405,5.76979H36.01305l-.74245-5.63782-.00242,5.63782H33.4997V14.08118h2.61786q.11651.77079.24015,1.81693L36.645,18.072,37.11,14.08118Zm-10.33452,0h1.8982L30.14536,17.94l1.27111,4.68763H29.326l-.81934-3.66353v3.66353H26.48346V14.08118h2.02318v3.32041Zm-6.16086,7.1423a.29693.29693,0,0,0,.28114.13726.323.323,0,0,0,.30037-.17421,1.07645,1.07645,0,0,0,.0985-.51733,1.73035,1.73035,0,0,0-.18742-.98714,6.07373,6.07373,0,0,0-.94671-.776,9.40116,9.40116,0,0,1-.99957-.79711,1.88855,1.88855,0,0,1-.40606-.68625,3.288,3.288,0,0,1-.161-1.11912,3.37221,3.37221,0,0,1,.22829-1.43585,1.59334,1.59334,0,0,1,.73764-.71,2.71542,2.71542,0,0,1,1.23025-.256,2.95757,2.95757,0,0,1,1.34316.27978,1.46094,1.46094,0,0,1,.7353.70471A4.07037,4.07037,0,0,1,25.68092,16.33v.33785h-1.879v-.63347a1.35321,1.35321,0,0,0-.07209-.56484.25723.25723,0,0,0-.24028-.12141.30018.30018,0,0,0-.27631.16379,1.02779,1.02779,0,0,0-.09372.49655,1.52809,1.52809,0,0,0,.10535.64446,1.57829,1.57829,0,0,0,.5717.5225A5.89921,5.89921,0,0,1,25.49831,18.621a3.58347,3.58347,0,0,1,.35081,1.82121,3.47786,3.47786,0,0,1-.19461,1.34611,1.58453,1.58453,0,0,1-.7521.72586,2.75032,2.75032,0,0,1-1.29753.293,2.68889,2.68889,0,0,1-1.38644-.33784,1.60237,1.60237,0,0,1-.75207-.86046,4.81507,4.81507,0,0,1-.17781-1.48336v-.55956h1.879v1.03994A1.4913,1.4913,0,0,0,23.24685,21.22348ZM21.0507,22.62766H18.98307l-.10858-1.53615h-.72371l-.12165,1.53615H15.9375l1.032-8.54648h2.92422ZM18.529,41.89632a1.78623,1.78623,0,0,1,.15827.50412q.03106.22968.03107,1.2643v2.25408H17.56163v-2.84a3.39073,3.39073,0,0,0-.06064-.8499q-.06067-.16357-.318-.16365v3.85358H15.9375V37.37234h.88159a3.84506,3.84506,0,0,1,1.19369.12141,1.00411,1.00411,0,0,1,.50884.62025,4.68394,4.68394,0,0,1,.19673,1.59159,4.197,4.197,0,0,1-.13905,1.34084.66208.66208,0,0,1-.54729.41175A.9263.9263,0,0,1,18.529,41.89632Zm2.69505-1.193v1.62589h-.778v1.87927h.91413v1.71036H19.20056V37.37234h2.07676v1.71035H20.446V40.7033Zm.21154,5.21552.6353-8.54648H23.871l.71224,8.54648H23.31045l-.06685-1.53615h-.44551l-.07489,1.53615Zm5.362-1.71036v1.71036h-2.0028V37.37234h1.24546v6.83612Zm3.39322-3.50516v1.62589h-.778v1.87927h.91413v1.71036H28.1673V37.37234h2.07676v1.71035h-.83129V40.7033Zm1.9318-1.94262a.15509.15509,0,0,0-.14791-.12142q-.11247,0-.1701.1638a1.594,1.594,0,0,0-.0577.49654,2.39694,2.39694,0,0,0,.06486.64446,1.40567,1.40567,0,0,0,.35194.5225,4.97948,4.97948,0,0,1,1.04758,1.4456,5.53939,5.53939,0,0,1,.216,1.82121,5.49231,5.49231,0,0,1-.1198,1.34611,1.43949,1.43949,0,0,1-.463.72586,1.24141,1.24141,0,0,1-1.65225-.04489,1.61475,1.61475,0,0,1-.463-.86046,7.67741,7.67741,0,0,1-.10946-1.48336v-.55955h1.15672V43.897a2.35854,2.35854,0,0,0,.0488.61763.17682.17682,0,0,0,.17307.13725q.12426,0,.18491-.1742a1.66922,1.66922,0,0,0,.06064-.51733,2.66065,2.66065,0,0,0-.11538-.98715,4.97467,4.97467,0,0,0-.58279-.776,7.51765,7.51765,0,0,1-.61534-.79711,2.33067,2.33067,0,0,1-.25-.68625,5.20868,5.20868,0,0,1-.09911-1.11912,5.29393,5.29393,0,0,1,.14053-1.43585,1.43594,1.43594,0,0,1,.45409-.71,1.15939,1.15939,0,0,1,.75734-.256,1.26317,1.26317,0,0,1,.82685.27978,1.32121,1.32121,0,0,1,.45264.7047,6.4663,6.4663,0,0,1,.11093,1.44379V39.959H32.167v-.63346A2.13935,2.13935,0,0,0,32.12261,38.76068Zm6.77462.322V37.37234h2.72168v1.71035h-.73959v6.83613H39.63385V39.08269Zm.33578,6.83613H37.96018l-.06685-1.53615h-.44551l-.07489,1.53615h-1.2876l.6353-8.54648h1.80014Zm-2.90659-6.83613h-.73958v6.83613H34.34137V39.08269h-.73663V37.37234h2.72168Zm7.6,1.62061v1.62589h-.77805v1.87927h.91413v1.71036H41.90291V37.37234h2.07676v1.71035h-.8313V40.7033Zm.7643-4.538H15.30928V23.83469H44.69072Z" transform="translate(-13.72093 -12.5)"/></svg>