<svg id="Layer_1" data-name="Layer 1" xmlns="http://www.w3.org/2000/svg" viewBox="0 0 35 30"><defs><style>.cls-1{fill:#fff;}.cls-2{fill:red;}.cls-3{fill:none;}</style></defs><rect class="cls-1" width="35" height="30"/><path class="cls-2" d="M-41.19,6l1.11,9.79h-2l-.1-1.76h-.7L-43,15.76h-2L-44,6Zm-1,6.29c-.09-1.11-.19-2.48-.29-4.11-.2,1.88-.32,3.25-.37,4.11Z" transform="translate(54.16 4.14)"/><path class="cls-2" d="M-39.75,6h1.93a3.86,3.86,0,0,1,1.39.19,1.46,1.46,0,0,1,.76.75,4.41,4.41,0,0,1,.29,1.84,2.56,2.56,0,0,1-.2,1.2,1.35,1.35,0,0,1-.81.52,1.38,1.38,0,0,1,.91.66,3.21,3.21,0,0,1,.24,1.42v.91a4.82,4.82,0,0,1-.17,1.47,1.07,1.07,0,0,1-.55.65,4.3,4.3,0,0,1-1.55.18h-2.24Zm1.94,1.67V9.82h.19q.28,0,.36-.18a3.92,3.92,0,0,0,.08-1.05,2.38,2.38,0,0,0-.06-.65.4.4,0,0,0-.17-.23A1.33,1.33,0,0,0-37.81,7.64Zm0,3.7v2.74a.69.69,0,0,0,.52-.17,1.54,1.54,0,0,0,.11-.74v-.91a1.57,1.57,0,0,0-.1-.76C-37.35,11.41-37.53,11.36-37.81,11.34Z" transform="translate(54.16 4.14)"/><path class="cls-2" d="M-30.12,11.7c0,1,0,1.68-.05,2.09a3,3,0,0,1-.33,1.12,2,2,0,0,1-.76.78,2.16,2.16,0,0,1-1.1.27,2.26,2.26,0,0,1-1.08-.25,1.94,1.94,0,0,1-.76-.77,2.77,2.77,0,0,1-.35-1.12c0-.41-.05-1.11-.05-2.12V10c0-1,0-1.68.05-2.09a2.92,2.92,0,0,1,.33-1.12A2,2,0,0,1-33.47,6a2.13,2.13,0,0,1,1.11-.28A2.2,2.2,0,0,1-31.29,6a1.9,1.9,0,0,1,.77.77,2.71,2.71,0,0,1,.34,1.12c0,.4.06,1.11.06,2.12Zm-1.94-3.22a3.8,3.8,0,0,0-.06-.87.22.22,0,0,0-.23-.19.25.25,0,0,0-.23.15,2.58,2.58,0,0,0-.09.91v4.58a5.27,5.27,0,0,0,.06,1,.23.23,0,0,0,.24.2c.14,0,.22-.08.26-.23a7.58,7.58,0,0,0,0-1.1Z" transform="translate(54.16 4.14)"/><path class="cls-2" d="M-25,6v6.54A13.66,13.66,0,0,1-25,14.07a2.61,2.61,0,0,1-.33.93,1.82,1.82,0,0,1-.71.72,2.2,2.2,0,0,1-1.05.24,2.3,2.3,0,0,1-1.18-.29,1.89,1.89,0,0,1-.76-.75,2.48,2.48,0,0,1-.3-1c0-.35-.05-1.07-.05-2.18V6h1.94v7.34a4.26,4.26,0,0,0,0,.82.22.22,0,0,0,.22.18.24.24,0,0,0,.24-.2,5.39,5.39,0,0,0,.05-.93V6Z" transform="translate(54.16 4.14)"/><path class="cls-2" d="M-20.34,6v2h-1.15v7.83h-1.94V7.93h-1.15V6Z" transform="translate(54.16 4.14)"/><path class="cls-3" d="M-44.38,4.72h1.74l.11-1.28h.6l.09,1.28h1.72l-1-7.12h-2.44Zm2.15-5.53c.08,1.18.17,2.18.25,3h-.58C-42.51,1.55-42.4.55-42.23-.81Z" transform="translate(54.16 4.14)"/><path class="cls-3" d="M-39.92,2.17v.46a4,4,0,0,0,.15,1.24,1.36,1.36,0,0,0,.63.72A2.18,2.18,0,0,0-38,4.87a2.32,2.32,0,0,0,1.08-.24A1.38,1.38,0,0,0-36.28,4a2.85,2.85,0,0,0,.16-1.12,3.06,3.06,0,0,0-.29-1.52A5.09,5.09,0,0,0-37.83.18a1.4,1.4,0,0,1-.48-.44,1.46,1.46,0,0,1-.08-.54.89.89,0,0,1,.07-.41.27.27,0,0,1,.24-.14.23.23,0,0,1,.2.1,1.18,1.18,0,0,1,.06.48v.52h1.56V-.53a3.37,3.37,0,0,0-.15-1.2A1.21,1.21,0,0,0-37-2.32a2.54,2.54,0,0,0-1.12-.23,2.34,2.34,0,0,0-1,.21,1.34,1.34,0,0,0-.61.59A2.79,2.79,0,0,0-40-.55a2.7,2.7,0,0,0,.13.93A1.54,1.54,0,0,0-39.5,1a9.67,9.67,0,0,0,.83.67,4.53,4.53,0,0,1,.79.65,1.36,1.36,0,0,1,.16.82,1,1,0,0,1-.08.43.27.27,0,0,1-.25.14.25.25,0,0,1-.24-.11A1.37,1.37,0,0,1-38.35,3V2.17Z" transform="translate(54.16 4.14)"/><path class="cls-3" d="M-42.18,20.07A3.38,3.38,0,0,0-42.06,19a4.09,4.09,0,0,0-.16-1.32.86.86,0,0,0-.43-.52,3.08,3.08,0,0,0-1-.1h-.74v7.12h1V20.92c.14,0,.23,0,.26.13a2.46,2.46,0,0,1,.06.71v2.37h1V22.25a10.05,10.05,0,0,0,0-1.05,1.26,1.26,0,0,0-.13-.42.75.75,0,0,0-.41-.37A.54.54,0,0,0-42.18,20.07Zm-.84-.9a1.07,1.07,0,0,1-.08.55.27.27,0,0,1-.24.09V18.23a.28.28,0,0,1,.25.1,1,1,0,0,1,.07.45Z" transform="translate(54.16 4.14)"/><polygon class="cls-3" points="14.23 22.57 14.23 21.14 12.5 21.14 12.5 28.27 14.3 28.27 14.3 26.84 13.54 26.84 13.54 25.27 14.19 25.27 14.19 23.92 13.54 23.92 13.54 22.57 14.23 22.57"/><path class="cls-3" d="M-38.29,22.85l.06,1.28h1.06l-.6-7.12h-1.5l-.53,7.12h1.08l.06-1.28Zm-.19-4.25c.06,1.18.11,2.18.16,3h-.35C-38.65,21-38.58,20-38.48,18.6Z" transform="translate(54.16 4.14)"/><path class="cls-3" d="M-27.36-.89c-.07-.58-.14-1.08-.2-1.51h-2.18V4.72h1.47V0l.62,4.7h1L-26-.09V4.72h1.47V-2.4h-2.19L-27.12.92Z" transform="translate(54.16 4.14)"/><polygon class="cls-3" points="33.11 3.16 33.11 1.73 30.3 1.73 30.3 8.86 33.22 8.86 33.22 7.43 31.98 7.43 31.98 5.87 33.04 5.87 33.04 4.51 31.98 4.51 31.98 3.16 33.11 3.16"/><polygon class="cls-3" points="17.17 21.14 17.17 28.27 18.84 28.27 18.84 26.84 18.2 26.84 18.2 21.14 17.17 21.14"/><polygon class="cls-3" points="18.57 1.73 18.57 8.86 20.26 8.86 20.26 5.8 20.94 8.86 22.68 8.86 21.62 4.95 22.59 1.73 21.01 1.73 20.26 4.5 20.26 1.73 18.57 1.73"/><path class="cls-3" d="M-29.89,19.16v-.28a5.5,5.5,0,0,0-.09-1.2,1.1,1.1,0,0,0-.38-.59,1.08,1.08,0,0,0-.69-.23,1,1,0,0,0-.63.21,1.24,1.24,0,0,0-.38.59,4.36,4.36,0,0,0-.12,1.2,3.94,3.94,0,0,0,.09.93,1.55,1.55,0,0,0,.21.57,5.6,5.6,0,0,0,.51.67,3.86,3.86,0,0,1,.48.64,2.12,2.12,0,0,1,.1.83,1.53,1.53,0,0,1-.05.43c0,.1-.09.14-.15.14a.15.15,0,0,1-.15-.11,1.9,1.9,0,0,1,0-.52v-.86h-1V22A6.48,6.48,0,0,0-32,23.28a1.4,1.4,0,0,0,.38.72,1,1,0,0,0,.72.28,1,1,0,0,0,.66-.25,1.21,1.21,0,0,0,.39-.6,4.89,4.89,0,0,0,.1-1.12A4.61,4.61,0,0,0-30,20.79a4.1,4.1,0,0,0-.88-1.2,1.13,1.13,0,0,1-.29-.44,1.89,1.89,0,0,1-.05-.54,1.44,1.44,0,0,1,0-.41c0-.09.08-.14.15-.14s.09,0,.12.1a2,2,0,0,1,0,.47v.53Z" transform="translate(54.16 4.14)"/><polygon class="cls-3" points="33.15 22.57 33.15 21.14 31.42 21.14 31.42 28.27 33.22 28.27 33.22 26.84 32.46 26.84 32.46 25.27 33.11 25.27 33.11 23.92 32.46 23.92 32.46 22.57 33.15 22.57"/><polygon class="cls-3" points="24.51 22.57 25.12 22.57 25.12 28.27 26.16 28.27 26.16 22.57 26.77 22.57 26.77 21.14 24.51 21.14 24.51 22.57"/><polygon class="cls-3" points="21.71 22.57 21.71 21.14 19.98 21.14 19.98 28.27 21.78 28.27 21.78 26.84 21.01 26.84 21.01 25.27 21.66 25.27 21.66 23.92 21.01 23.92 21.01 22.57 21.71 22.57"/><path class="cls-3" d="M-27.06,17l-.53,7.12h1.07l.07-1.28h.37l0,1.28H-25L-25.56,17Zm.59,4.58c0-.63.1-1.63.2-3,.06,1.18.11,2.18.16,3Z" transform="translate(54.16 4.14)"/><rect class="cls-3" x="9.26" y="9.86" width="24.48" height="10.28"/><polygon class="cls-3" points="30.57 28.27 30.57 22.57 31.19 22.57 31.19 21.14 28.92 21.14 28.92 22.57 29.53 22.57 29.53 28.27 30.57 28.27"/><path class="cls-2" d="M-42.23-.81c-.17,1.36-.28,2.36-.33,3H-42C-42.06,1.37-42.15.37-42.23-.81Z" transform="translate(54.16 4.14)"/><path class="cls-2" d="M-38.48,18.6c-.1,1.36-.17,2.36-.19,3h.35C-38.37,20.78-38.42,19.78-38.48,18.6Z" transform="translate(54.16 4.14)"/><path class="cls-2" d="M-43.34,18.23v1.58a.27.27,0,0,0,.24-.09,1.07,1.07,0,0,0,.08-.55v-.39a1,1,0,0,0-.07-.45A.28.28,0,0,0-43.34,18.23Z" transform="translate(54.16 4.14)"/><path class="cls-2" d="M-26.47,21.59h.36c-.05-.81-.1-1.81-.16-3C-26.37,20-26.44,21-26.47,21.59Z" transform="translate(54.16 4.14)"/><path class="cls-2" d="M-45.16-3.41V25.14h25V-3.41Zm24,3.78V1.73h-1.05V3.29h1.24V4.72h-2.92V-2.4H-21V-1h-1.13V.37ZM-24.54-2.4V4.72H-26V-.09l-.58,4.81h-1L-28.27,0v4.7h-1.47V-2.4h2.18c.06.43.13.93.2,1.51l.24,1.81.39-3.32Zm-8.61,0h1.58l-1,3.21,1.06,3.91h-1.74l-.68-3V4.72h-1.69V-2.4h1.69V.37Zm-5.14,5.95a.25.25,0,0,0,.24.11.27.27,0,0,0,.25-.14,1,1,0,0,0,.08-.43,1.36,1.36,0,0,0-.16-.82,4.53,4.53,0,0,0-.79-.65A9.67,9.67,0,0,1-39.5,1a1.54,1.54,0,0,1-.34-.57A2.7,2.7,0,0,1-40-.55a2.79,2.79,0,0,1,.19-1.2,1.34,1.34,0,0,1,.61-.59,2.34,2.34,0,0,1,1-.21A2.54,2.54,0,0,1-37-2.32a1.21,1.21,0,0,1,.61.59,3.37,3.37,0,0,1,.15,1.2v.28h-1.56V-.77a1.18,1.18,0,0,0-.06-.48.23.23,0,0,0-.2-.1.27.27,0,0,0-.24.14.89.89,0,0,0-.07.41,1.46,1.46,0,0,0,.08.54,1.4,1.4,0,0,0,.48.44,5.09,5.09,0,0,1,1.42,1.2,3.06,3.06,0,0,1,.29,1.52A2.85,2.85,0,0,1-36.28,4a1.38,1.38,0,0,1-.63.61A2.32,2.32,0,0,1-38,4.87a2.18,2.18,0,0,1-1.15-.28,1.36,1.36,0,0,1-.63-.72,4,4,0,0,1-.15-1.24V2.17h1.57V3A1.37,1.37,0,0,0-38.29,3.55Zm-1.83,1.17h-1.72l-.09-1.28h-.6l-.11,1.28h-1.74l.86-7.12h2.44Zm-2.1,16.06a1.26,1.26,0,0,1,.13.42,10.05,10.05,0,0,1,0,1.05v1.88h-1V21.76a2.46,2.46,0,0,0-.06-.71c0-.09-.12-.13-.26-.13v3.21h-1V17h.74a3.08,3.08,0,0,1,1,.1.86.86,0,0,1,.43.52A4.09,4.09,0,0,1-42.06,19a3.38,3.38,0,0,1-.12,1.12.54.54,0,0,1-.45.34A.75.75,0,0,1-42.22,20.78Zm2.25-1v1.36h-.65V22.7h.76v1.43h-1.8V17h1.73v1.42h-.69v1.35Zm.17,4.35.53-7.12h1.5l.6,7.12h-1.06l-.06-1.28h-.37l-.06,1.28Zm4.47-1.43v1.43H-37V17h1V22.7Zm2.83-2.92v1.36h-.65V22.7h.76v1.43h-1.8V17h1.73v1.42h-.69v1.35Zm1.61-1.62c0-.06-.07-.1-.12-.1s-.11.05-.15.14a1.44,1.44,0,0,0,0,.41,1.89,1.89,0,0,0,.05.54,1.13,1.13,0,0,0,.29.44,4.1,4.1,0,0,1,.88,1.2,4.61,4.61,0,0,1,.18,1.52,4.89,4.89,0,0,1-.1,1.12,1.21,1.21,0,0,1-.39.6,1,1,0,0,1-.66.25,1,1,0,0,1-.72-.28,1.4,1.4,0,0,1-.38-.72A6.48,6.48,0,0,1-32.14,22v-.46h1v.86a1.9,1.9,0,0,0,0,.52.15.15,0,0,0,.15.11c.06,0,.12,0,.15-.14a1.53,1.53,0,0,0,.05-.43,2.12,2.12,0,0,0-.1-.83,3.86,3.86,0,0,0-.48-.64,5.6,5.6,0,0,1-.51-.67,1.55,1.55,0,0,1-.21-.57,3.94,3.94,0,0,1-.09-.93,4.36,4.36,0,0,1,.12-1.2,1.24,1.24,0,0,1,.38-.59,1,1,0,0,1,.63-.21,1.08,1.08,0,0,1,.69.23,1.1,1.1,0,0,1,.38.59,5.5,5.5,0,0,1,.09,1.2v.28h-1v-.53A2,2,0,0,0-30.89,18.16Zm5.64.27V17H-23v1.42h-.61v5.7h-1v-5.7Zm.28,5.7H-26l0-1.28h-.37l-.07,1.28h-1.07l.53-7.12h1.5Zm-2.42-5.7H-28v5.7h-1v-5.7h-.62V17h2.27ZM-21,19.78v1.36h-.65V22.7h.76v1.43h-1.8V17H-21v1.42h-.69v1.35Zm.63-3.78H-44.9V5.73h24.48Z" transform="translate(54.16 4.14)"/></svg>