<?xml version="1.0" encoding="utf-8"?>
<!-- Generator: Adobe Illustrator 24.2.0, SVG Export Plug-In . SVG Version: 6.00 Build 0)  -->
<svg version="1.1" id="Layer_1" xmlns="http://www.w3.org/2000/svg" xmlns:xlink="http://www.w3.org/1999/xlink" x="0px" y="0px"
	 viewBox="0 0 35 30" style="enable-background:new 0 0 35 30;" xml:space="preserve">
<style type="text/css">
	.st0{fill:#FFFFFF;}
	.st1{fill:#6D6E71;}
	.st2{fill:none;}
	.st3{fill:#565656;}
</style>
<rect class="st0" width="35" height="30"/>
<g>
	<path class="st1" d="M13,10.1l1.1,9.8h-2L12,18.1h-0.7l-0.1,1.8h-2l1-9.8L13,10.1z M11.9,16.4c-0.1-1.1-0.2-2.5-0.3-4.1
		c-0.2,1.9-0.3,3.2-0.4,4.1H11.9z"/>
	<path class="st1" d="M14.4,10.1h1.9c0.5,0,0.9,0,1.4,0.2c0.3,0.1,0.6,0.4,0.8,0.8c0.2,0.6,0.3,1.2,0.3,1.8c0,0.4,0,0.8-0.2,1.2
		c-0.2,0.3-0.5,0.5-0.8,0.5c0.4,0.1,0.7,0.3,0.9,0.7c0.2,0.4,0.3,0.9,0.2,1.4v0.9c0,0.5,0,1-0.2,1.5c-0.1,0.3-0.3,0.5-0.5,0.7
		c-0.5,0.2-1,0.2-1.5,0.2h-2.2L14.4,10.1z M16.3,11.8V14c0.1,0,0.1,0,0.2,0c0.2,0,0.3-0.1,0.4-0.2c0.1-0.3,0.1-0.7,0.1-1.1
		c0-0.2,0-0.4-0.1-0.6c0-0.1-0.1-0.2-0.2-0.2C16.6,11.8,16.5,11.8,16.3,11.8z M16.3,15.5v2.7c0.2,0,0.4,0,0.5-0.2
		c0.1-0.2,0.1-0.5,0.1-0.7v-0.9c0-0.3,0-0.5-0.1-0.8C16.8,15.5,16.6,15.5,16.3,15.5z"/>
	<path class="st1" d="M24,15.8c0,1,0,1.7-0.1,2.1c0,0.4-0.1,0.8-0.3,1.1c-0.2,0.3-0.4,0.6-0.8,0.8c-0.3,0.2-0.7,0.3-1.1,0.3
		c-0.4,0-0.7-0.1-1.1-0.3c-0.3-0.2-0.6-0.4-0.8-0.8c-0.2-0.3-0.3-0.7-0.3-1.1c0-0.4-0.1-1.1-0.1-2.1v-1.7c0-1,0-1.7,0.1-2.1
		c0-0.4,0.1-0.8,0.3-1.1c0.2-0.3,0.4-0.6,0.8-0.8c0.3-0.2,0.7-0.3,1.1-0.3c0.4,0,0.7,0.1,1.1,0.3c0.3,0.2,0.6,0.4,0.8,0.8
		c0.2,0.3,0.3,0.7,0.3,1.1c0,0.4,0.1,1.1,0.1,2.1V15.8z M22.1,12.6c0-0.3,0-0.6-0.1-0.9c0-0.1-0.1-0.2-0.2-0.2
		c-0.1,0-0.2,0.1-0.2,0.2c-0.1,0.3-0.1,0.6-0.1,0.9v4.6c0,0.4,0,0.7,0.1,1.1c0,0.1,0.1,0.2,0.2,0.2c0.1,0,0.2-0.1,0.3-0.2
		c0.1-0.4,0.1-0.7,0.1-1.1V12.6z"/>
	<path class="st1" d="M29.2,10.1v6.5c0,0.5,0,1-0.1,1.6c0,0.3-0.2,0.6-0.3,0.9c-0.2,0.3-0.4,0.6-0.7,0.7c-0.3,0.2-0.7,0.3-1,0.2
		c-0.4,0-0.8-0.1-1.2-0.3c-0.3-0.2-0.6-0.4-0.8-0.8c-0.2-0.3-0.3-0.6-0.3-1c0-0.3,0-1.1,0-2.2v-5.8h1.9v7.3c0,0.3,0,0.5,0.1,0.8
		c0,0.1,0.1,0.2,0.2,0.2c0.1,0,0.2-0.1,0.2-0.2c0-0.3,0.1-0.6,0.1-0.9v-7.2H29.2z"/>
	<path class="st1" d="M33.8,10.1v2h-1.2v7.8h-1.9v-7.8h-1.1v-2L33.8,10.1z"/>
</g>
<path class="st2" d="M9.8,8.9h1.7l0.1-1.3h0.6l0.1,1.3H14l-1-7.1h-2.4L9.8,8.9z M11.9,3.3c0.1,1.2,0.2,2.2,0.3,3h-0.6
	C11.7,5.7,11.8,4.7,11.9,3.3L11.9,3.3z"/>
<path class="st2" d="M14.2,6.3v0.5c0,0.4,0,0.8,0.1,1.2c0.1,0.3,0.3,0.6,0.6,0.7C15.4,8.9,15.8,9,16.2,9c0.4,0,0.7-0.1,1.1-0.2
	c0.3-0.1,0.5-0.3,0.6-0.6C18,7.8,18.1,7.4,18,7c0-0.5-0.1-1-0.3-1.5c-0.4-0.5-0.9-0.9-1.4-1.2c-0.2-0.1-0.4-0.3-0.5-0.4
	c-0.1-0.2-0.1-0.4-0.1-0.5c0-0.1,0-0.3,0.1-0.4c0-0.1,0.1-0.1,0.2-0.1c0.1,0,0.2,0,0.2,0.1c0.1,0.2,0.1,0.3,0.1,0.5v0.5h1.6V3.6
	c0-0.4,0-0.8-0.2-1.2c-0.1-0.3-0.3-0.5-0.6-0.6c-0.3-0.2-0.7-0.2-1.1-0.2c-0.4,0-0.7,0.1-1,0.2c-0.3,0.1-0.5,0.3-0.6,0.6
	c-0.1,0.4-0.2,0.8-0.2,1.2c0,0.3,0,0.6,0.1,0.9c0.1,0.2,0.2,0.4,0.3,0.6c0.3,0.2,0.5,0.5,0.8,0.7c0.3,0.2,0.5,0.4,0.8,0.6
	c0.1,0.3,0.2,0.5,0.2,0.8c0,0.1,0,0.3-0.1,0.4c0,0.1-0.1,0.1-0.3,0.1c-0.1,0-0.2,0-0.2-0.1c-0.1-0.2-0.1-0.3-0.1-0.5V6.3H14.2z"/>
<path class="st2" d="M12,24.2c0.1-0.4,0.1-0.7,0.1-1.1c0-0.4,0-0.9-0.2-1.3c-0.1-0.2-0.2-0.4-0.4-0.5c-0.3-0.1-0.7-0.1-1-0.1H9.8
	v7.1h1v-3.2c0.1,0,0.2,0,0.3,0.1c0,0.2,0.1,0.5,0.1,0.7v2.4h1v-1.9c0-0.6,0-0.9,0-1.1c0-0.1-0.1-0.3-0.1-0.4
	c-0.1-0.2-0.2-0.3-0.4-0.4C11.7,24.5,11.9,24.4,12,24.2z M11.1,23.3c0,0.2,0,0.4-0.1,0.6c-0.1,0.1-0.2,0.1-0.2,0.1v-1.6
	c0.1,0,0.2,0,0.2,0.1c0.1,0.1,0.1,0.3,0.1,0.4L11.1,23.3z"/>
<polygon class="st2" points="14.2,22.6 14.2,21.1 12.5,21.1 12.5,28.3 14.3,28.3 14.3,26.8 13.5,26.8 13.5,25.3 14.2,25.3 
	14.2,23.9 13.5,23.9 13.5,22.6 "/>
<path class="st2" d="M15.9,27l0.1,1.3H17l-0.6-7.1h-1.5l-0.5,7.1h1.1l0.1-1.3H15.9z M15.7,22.7c0.1,1.2,0.1,2.2,0.2,3h-0.4
	C15.5,25.1,15.6,24.1,15.7,22.7z"/>
<path class="st2" d="M26.8,3.2c-0.1-0.6-0.1-1.1-0.2-1.5h-2.2v7.1h1.5l0-4.7l0.6,4.7h1L28.1,4l0,4.8h1.5V1.7h-2.2L27,5.1L26.8,3.2z"
	/>
<polygon class="st2" points="33.1,3.2 33.1,1.7 30.3,1.7 30.3,8.9 33.2,8.9 33.2,7.4 32,7.4 32,5.9 33,5.9 33,4.5 32,4.5 32,3.2 "/>
<polygon class="st2" points="17.2,21.1 17.2,28.3 18.8,28.3 18.8,26.8 18.2,26.8 18.2,21.1 "/>
<polygon class="st2" points="18.6,1.7 18.6,8.9 20.3,8.9 20.3,5.8 20.9,8.9 22.7,8.9 21.6,4.9 22.6,1.7 21,1.7 20.3,4.5 20.3,1.7 
	"/>
<path class="st2" d="M24.3,23.3V23c0-0.4,0-0.8-0.1-1.2c-0.1-0.2-0.2-0.4-0.4-0.6c-0.2-0.2-0.4-0.2-0.7-0.2c-0.2,0-0.5,0.1-0.6,0.2
	c-0.2,0.2-0.3,0.4-0.4,0.6C22,22.2,22,22.6,22,23c0,0.3,0,0.6,0.1,0.9c0,0.2,0.1,0.4,0.2,0.6c0.2,0.2,0.3,0.5,0.5,0.7
	c0.2,0.2,0.3,0.4,0.5,0.6c0.1,0.3,0.1,0.5,0.1,0.8c0,0.1,0,0.3-0.1,0.4c0,0.1-0.1,0.1-0.2,0.1c-0.1,0-0.1,0-0.1-0.1
	c0-0.2,0-0.3,0-0.5v-0.9h-1v0.5c0,0.4,0,0.8,0.1,1.2c0.1,0.3,0.2,0.5,0.4,0.7c0.2,0.2,0.4,0.3,0.7,0.3c0.2,0,0.5-0.1,0.7-0.2
	c0.2-0.2,0.3-0.4,0.4-0.6c0.1-0.4,0.1-0.7,0.1-1.1c0-0.5,0-1-0.2-1.5c-0.2-0.5-0.5-0.9-0.9-1.2c-0.1-0.1-0.2-0.3-0.3-0.4
	c0-0.2-0.1-0.4-0.1-0.5c0-0.1,0-0.3,0-0.4c0-0.1,0.1-0.1,0.1-0.1c0.1,0,0.1,0,0.1,0.1c0,0.2,0,0.3,0,0.5v0.5L24.3,23.3z"/>
<polygon class="st2" points="33.2,22.6 33.2,21.1 31.4,21.1 31.4,28.3 33.2,28.3 33.2,26.8 32.5,26.8 32.5,25.3 33.1,25.3 
	33.1,23.9 32.5,23.9 32.5,22.6 "/>
<polygon class="st2" points="24.5,22.6 25.1,22.6 25.1,28.3 26.2,28.3 26.2,22.6 26.8,22.6 26.8,21.1 24.5,21.1 "/>
<polygon class="st2" points="21.7,22.6 21.7,21.1 20,21.1 20,28.3 21.8,28.3 21.8,26.8 21,26.8 21,25.3 21.7,25.3 21.7,23.9 
	21,23.9 21,22.6 "/>
<path class="st2" d="M27.1,21.1l-0.5,7.1h1.1l0.1-1.3h0.4l0.1,1.3h1.1l-0.6-7.1H27.1z M27.7,25.7c0-0.6,0.1-1.6,0.2-3
	c0.1,1.2,0.1,2.2,0.2,3H27.7z"/>
<rect x="9.3" y="9.9" class="st2" width="24.5" height="10.3"/>
<polygon class="st2" points="30.6,28.3 30.6,22.6 31.2,22.6 31.2,21.1 28.9,21.1 28.9,22.6 29.5,22.6 29.5,28.3 "/>
<path class="st1" d="M11.9,3.3c-0.2,1.4-0.3,2.4-0.3,3h0.6C12.1,5.5,12,4.5,11.9,3.3z"/>
<path class="st3" d="M15.7,22.7c-0.1,1.4-0.2,2.4-0.2,3h0.4C15.8,24.9,15.7,23.9,15.7,22.7z"/>
<path class="st1" d="M10.8,22.4v1.6c0.1,0,0.2,0,0.2-0.1c0.1-0.2,0.1-0.4,0.1-0.6v-0.4c0-0.2,0-0.3-0.1-0.4
	C11,22.4,10.9,22.4,10.8,22.4z"/>
<path class="st1" d="M27.7,25.7h0.4c-0.1-0.8-0.1-1.8-0.2-3C27.8,24.1,27.7,25.1,27.7,25.7z"/>
<path class="st1" d="M9,0.7v28.5h25V0.7H9z M33,4.5v1.4H32v1.6h1.2v1.4h-2.9V1.7h2.8v1.4H32v1.4H33z M29.6,1.7v7.1h-1.5l0-4.8
	l-0.6,4.8h-1l-0.6-4.7l0,4.7h-1.5V1.7h2.2c0.1,0.4,0.1,0.9,0.2,1.5L27,5.1l0.4-3.3H29.6z M21,1.7h1.6l-1,3.2l1.1,3.9h-1.7l-0.7-3.1
	v3.1h-1.7V1.7h1.7v2.8L21,1.7z M15.9,7.7c0.1,0.1,0.1,0.1,0.2,0.1c0.1,0,0.2-0.1,0.3-0.1c0.1-0.1,0.1-0.3,0.1-0.4
	c0-0.3,0-0.6-0.2-0.8c-0.2-0.2-0.5-0.5-0.8-0.6c-0.3-0.2-0.6-0.4-0.8-0.7c-0.2-0.2-0.3-0.4-0.3-0.6c-0.1-0.3-0.1-0.6-0.1-0.9
	c0-0.4,0-0.8,0.2-1.2c0.1-0.3,0.4-0.5,0.6-0.6c0.3-0.2,0.7-0.2,1-0.2c0.4,0,0.8,0.1,1.1,0.2c0.3,0.1,0.5,0.3,0.6,0.6
	c0.1,0.4,0.2,0.8,0.2,1.2v0.3h-1.6V3.4c0-0.2,0-0.3-0.1-0.5c0-0.1-0.1-0.1-0.2-0.1c-0.1,0-0.2,0.1-0.2,0.1c-0.1,0.1-0.1,0.3-0.1,0.4
	c0,0.2,0,0.4,0.1,0.5c0.1,0.2,0.3,0.3,0.5,0.4c0.5,0.3,1,0.7,1.4,1.2C18,6,18.1,6.5,18,7c0,0.4,0,0.8-0.2,1.1
	c-0.1,0.3-0.4,0.5-0.6,0.6C16.9,8.9,16.5,9,16.2,9c-0.4,0-0.8-0.1-1.2-0.3c-0.3-0.2-0.5-0.4-0.6-0.7c-0.1-0.4-0.2-0.8-0.1-1.2V6.3
	h1.6v0.9C15.8,7.3,15.8,7.5,15.9,7.7L15.9,7.7z M14,8.9h-1.7l-0.1-1.3h-0.6l-0.1,1.3H9.8l0.9-7.1h2.4L14,8.9z M11.9,24.9
	c0.1,0.1,0.1,0.3,0.1,0.4c0,0.1,0,0.5,0,1.1v1.9h-1v-2.4c0-0.2,0-0.5-0.1-0.7c0-0.1-0.1-0.1-0.3-0.1v3.2h-1v-7.1h0.7
	c0.3,0,0.7,0,1,0.1c0.2,0.1,0.4,0.3,0.4,0.5c0.1,0.4,0.2,0.9,0.2,1.3c0,0.4,0,0.8-0.1,1.1c-0.1,0.2-0.3,0.3-0.5,0.3
	C11.7,24.6,11.9,24.7,11.9,24.9z M14.2,23.9v1.4h-0.6v1.6h0.8v1.4h-1.8v-7.1h1.7v1.4h-0.7v1.4L14.2,23.9z M14.4,28.3l0.5-7.1h1.5
	l0.6,7.1h-1.1L15.9,27h-0.4l-0.1,1.3H14.4z M18.8,26.8v1.4h-1.7v-7.1h1v5.7H18.8z M21.7,23.9v1.4H21v1.6h0.8v1.4H20v-7.1h1.7v1.4H21
	v1.4L21.7,23.9z M23.3,22.3c0-0.1-0.1-0.1-0.1-0.1c-0.1,0-0.1,0-0.1,0.1c0,0.1-0.1,0.3,0,0.4c0,0.2,0,0.4,0.1,0.5
	c0.1,0.2,0.2,0.3,0.3,0.4c0.4,0.3,0.7,0.8,0.9,1.2c0.1,0.5,0.2,1,0.2,1.5c0,0.4,0,0.8-0.1,1.1c-0.1,0.2-0.2,0.4-0.4,0.6
	c-0.2,0.2-0.4,0.2-0.7,0.2c-0.3,0-0.5-0.1-0.7-0.3c-0.2-0.2-0.3-0.4-0.4-0.7C22,27,22,26.6,22,26.2v-0.5h1v0.9c0,0.2,0,0.3,0,0.5
	c0,0.1,0.1,0.1,0.1,0.1c0.1,0,0.1,0,0.2-0.1c0-0.1,0.1-0.3,0.1-0.4c0-0.3,0-0.6-0.1-0.8c-0.1-0.2-0.3-0.4-0.5-0.6
	c-0.2-0.2-0.4-0.4-0.5-0.7c-0.1-0.2-0.2-0.4-0.2-0.6C22,23.6,22,23.3,22,23c0-0.4,0-0.8,0.1-1.2c0.1-0.2,0.2-0.4,0.4-0.6
	c0.2-0.1,0.4-0.2,0.6-0.2c0.3,0,0.5,0.1,0.7,0.2c0.2,0.1,0.3,0.4,0.4,0.6c0.1,0.4,0.1,0.8,0.1,1.2v0.3h-1v-0.5
	C23.3,22.6,23.3,22.5,23.3,22.3L23.3,22.3z M28.9,22.6v-1.4h2.3v1.4h-0.6v5.7h-1v-5.7L28.9,22.6z M29.2,28.3h-1.1L28.1,27h-0.4
	l-0.1,1.3h-1.1l0.5-7.1h1.5L29.2,28.3z M26.8,22.6h-0.6v5.7h-1v-5.7h-0.6v-1.4h2.3L26.8,22.6z M33.1,23.9v1.4h-0.6v1.6h0.8v1.4h-1.8
	v-7.1h1.7v1.4h-0.7v1.4L33.1,23.9z M33.7,20.1H9.3V9.9h24.5V20.1z"/>
</svg>
