<svg id="Layer_1" data-name="Layer 1" xmlns="http://www.w3.org/2000/svg" viewBox="0 0 40 43"><defs><style>.cls-1{fill:#fff;}.cls-2{fill:#565656;}.cls-3{fill:none;}</style></defs><rect class="cls-1" width="40" height="43"/><path class="cls-2" d="M18.63957,23.48057l1.47561,13.03886H17.47812l-.13849-2.34361h-.923l-.15516,2.34361H13.59375L14.91,23.48057ZM17.272,31.86442q-.196-2.21529-.393-5.47648-.39433,3.74511-.49522,5.47648Z" transform="translate(-10 -8.5)"/><path class="cls-2" d="M20.55342,23.48057h2.57424a5.25164,5.25164,0,0,1,1.848.24955,1.981,1.981,0,0,1,1.01437,1.01,5.74427,5.74427,0,0,1,.38614,2.45068,3.31081,3.31081,0,0,1-.27275,1.59361,1.7972,1.7972,0,0,1-1.07566.6921,1.87429,1.87429,0,0,1,1.21357.88241A4.28788,4.28788,0,0,1,26.56,32.24857v1.20867a6.17493,6.17493,0,0,1-.22985,1.95822,1.43631,1.43631,0,0,1-.73243.8703,5.7971,5.7971,0,0,1-2.0594.23367h-2.9849Zm2.58037,2.23086v2.89932q.16549-.00795.25743-.00806.38,0,.4842-.24566a5.22131,5.22131,0,0,0,.1042-1.40534,2.93707,2.93707,0,0,0-.08581-.85774.50141.50141,0,0,0-.22371-.31A1.54192,1.54192,0,0,0,23.13379,25.71143Zm0,4.92884v3.6483a.916.916,0,0,0,.69566-.2255,1.991,1.991,0,0,0,.15017-.9906v-1.2161a2.17929,2.17929,0,0,0-.13484-1.01476Q23.70989,30.66454,23.13379,30.64027Z" transform="translate(-10 -8.5)"/><path class="cls-2" d="M33.38178,31.11543q0,1.96515-.07047,2.78251a3.742,3.742,0,0,1-.4413,1.494,2.62008,2.62008,0,0,1-1.00214,1.03892,2.90288,2.90288,0,0,1-1.471.36241,2.96578,2.96578,0,0,1-1.43118-.34231,2.561,2.561,0,0,1-1.02048-1.02681,3.677,3.677,0,0,1-.45969-1.48992Q27.412,33.129,27.412,31.11543V28.88457q0-1.965.07049-2.78256a3.73821,3.73821,0,0,1,.44127-1.49393,2.61874,2.61874,0,0,1,1.00214-1.03892,2.90246,2.90246,0,0,1,1.471-.36241,2.966,2.966,0,0,1,1.43121.34225,2.563,2.563,0,0,1,1.02048,1.02687,3.67844,3.67844,0,0,1,.45969,1.48992q.07354.80542.07355,2.81878ZM30.8014,26.83089a5.27,5.27,0,0,0-.07659-1.16378.311.311,0,0,0-.3157-.25366.33571.33571,0,0,0-.3095.20534,3.75828,3.75828,0,0,0-.10728,1.2121v6.08856a7.81724,7.81724,0,0,0,.0705,1.40133.31509.31509,0,0,0,.32789.26577q.2635,0,.33713-.306a8.432,8.432,0,0,0,.07355-1.45771Z" transform="translate(-10 -8.5)"/><path class="cls-2" d="M40.20967,23.48057v8.71405a19.82642,19.82642,0,0,1-.07355,2.08184,3.298,3.298,0,0,1-.43518,1.23221,2.45743,2.45743,0,0,1-.95306.95838,2.84305,2.84305,0,0,1-1.3944.3262,3.1205,3.1205,0,0,1-1.56907-.38657A2.56228,2.56228,0,0,1,34.767,35.4a3.33115,3.33115,0,0,1-.3984-1.30874q-.06133-.68859-.06129-2.89526v-7.7154h2.58038V33.2577a5.0191,5.0191,0,0,0,.07051,1.09124.28417.28417,0,0,0,.285.23761.30752.30752,0,0,0,.31567-.26177,6.37015,6.37015,0,0,0,.07047-1.23621v-9.608Z" transform="translate(-10 -8.5)"/><path class="cls-2" d="M46.40625,23.48057V26.09H44.874V36.51943H42.29358V26.09H40.76742V23.48057Z" transform="translate(-10 -8.5)"/><path class="cls-3" d="M13.59375,21.39894H16.034l.14192-1.79217h.84432l.12668,1.79217h2.41224l-1.34981-9.97089H14.79775Zm3.00513-7.74761q.18025,2.494.35948,4.1879h-.81248Q16.2381,16.51529,16.59888,13.65133Z" transform="translate(-10 -8.5)"/><path class="cls-3" d="M19.83666,17.82691v.65282a5.61756,5.61756,0,0,0,.20744,1.73058,1.86938,1.86938,0,0,0,.87741,1.00387,3.13707,3.13707,0,0,0,1.61752.39415,3.2088,3.2088,0,0,0,1.51378-.34178,1.8487,1.8487,0,0,0,.87745-.84684,4.05753,4.05753,0,0,0,.227-1.57046,4.18068,4.18068,0,0,0-.40928-2.12474A6.88259,6.88259,0,0,0,22.76267,15.038a1.84157,1.84157,0,0,1-.667-.60958,1.78276,1.78276,0,0,1-.12291-.75188,1.19915,1.19915,0,0,1,.10934-.5793.3502.3502,0,0,1,.32236-.19109.30009.30009,0,0,1,.28033.14165,1.5787,1.5787,0,0,1,.0841.659v.739h2.19217v-.39416a4.74871,4.74871,0,0,0-.21022-1.68442,1.70445,1.70445,0,0,0-.85785-.82216,3.45038,3.45038,0,0,0-1.567-.32641,3.16784,3.16784,0,0,0-1.43528.29868,1.85888,1.85888,0,0,0-.86059.82836,3.93429,3.93429,0,0,0-.26634,1.67516,3.83626,3.83626,0,0,0,.18784,1.30564,2.2035,2.2035,0,0,0,.47374.80062,10.96911,10.96911,0,0,0,1.16617.93,7.08658,7.08658,0,0,1,1.1045.90533,2.01881,2.01881,0,0,1,.21865,1.15167,1.25589,1.25589,0,0,1-.11491.60355.37688.37688,0,0,1-.35043.20324.34642.34642,0,0,1-.328-.16013,1.74,1.74,0,0,1-.09249-.72056V17.82691Z" transform="translate(-10 -8.5)"/><path class="cls-3" d="M16.67585,42.8875a4.8968,4.8968,0,0,0,.16222-1.56431,5.46428,5.46428,0,0,0-.22952-1.85686,1.17146,1.17146,0,0,0-.59364-.72362,4.48607,4.48607,0,0,0-1.39264-.14165H13.59375V48.572h1.453V44.07612q.30027,0,.371.19092a3.95589,3.95589,0,0,1,.07075.99154V48.572h1.3495V45.9422q0-1.207-.03624-1.475a2.08387,2.08387,0,0,0-.18465-.58813,1.08069,1.08069,0,0,0-.57984-.51117A.7724.7724,0,0,0,16.67585,42.8875ZM15.48857,41.625a1.68684,1.68684,0,0,1-.09836.77909.42263.42263,0,0,1-.34342.12007V40.307a.38048.38048,0,0,1,.34687.14781,1.3211,1.3211,0,0,1,.09491.622Z" transform="translate(-10 -8.5)"/><polygon class="cls-3" points="9.824 32.096 9.824 30.101 7.401 30.101 7.401 40.072 9.92 40.072 9.92 38.077 8.854 38.077 8.854 35.884 9.761 35.884 9.761 33.987 8.854 33.987 8.854 32.096 9.824 32.096"/><path class="cls-3" d="M22.11753,46.77978l.078,1.79217h1.485l-.83094-9.97089H20.74938L20.0082,48.572h1.5022l.08737-1.79217Zm-.25938-5.95544q.111,2.494.2213,4.1879h-.50016Q21.636,43.6883,21.85815,40.82434Z" transform="translate(-10 -8.5)"/><path class="cls-3" d="M37.41733,13.54779q-.14431-1.22058-.28017-2.11974H34.083v9.97089H36.1462l.00283-6.57746.8662,6.57746h1.46331l.82139-6.73143.00278,6.73143h2.06322V11.42805h-3.071L37.75251,16.084Z" transform="translate(-10 -8.5)"/><polygon class="cls-3" points="36.249 4.923 36.249 2.928 32.313 2.928 32.313 12.899 36.406 12.899 36.406 10.904 34.674 10.904 34.674 8.711 36.148 8.711 36.148 6.814 34.674 6.814 34.674 4.923 36.249 4.923"/><polygon class="cls-3" points="13.927 30.101 13.927 40.072 16.264 40.072 16.264 38.077 15.38 38.077 15.38 30.101 13.927 30.101"/><polygon class="cls-3" points="15.897 2.928 15.897 12.899 18.258 12.899 18.258 8.625 19.214 12.899 21.653 12.899 20.17 7.43 21.524 2.928 19.309 2.928 18.258 6.802 18.258 2.928 15.897 2.928"/><path class="cls-3" d="M33.87765,41.61881v-.39416a7.54437,7.54437,0,0,0-.12941-1.68442,1.54151,1.54151,0,0,0-.52809-.82216,1.47375,1.47375,0,0,0-.96466-.3264,1.35261,1.35261,0,0,0-.88356.29867,1.6753,1.6753,0,0,0-.52978.82836,6.17672,6.17672,0,0,0-.16395,1.67516,6.07739,6.07739,0,0,0,.11563,1.30564,2.719,2.719,0,0,0,.29164.80063,8.77105,8.77105,0,0,0,.71789.93,5.80513,5.80513,0,0,1,.67993.90532,3.10441,3.10441,0,0,1,.1346,1.15167,1.94739,1.94739,0,0,1-.07074.60355q-.07081.20323-.21573.20324a.20629.20629,0,0,1-.20191-.16013,2.751,2.751,0,0,1-.05694-.72056V44.99992h-1.3495v.65282a8.95669,8.95669,0,0,0,.1277,1.73059,1.88382,1.88382,0,0,0,.54013,1.00386,1.44831,1.44831,0,0,0,1.92763.05237,1.67941,1.67941,0,0,0,.54015-.84684,6.40754,6.40754,0,0,0,.13977-1.57046,6.46288,6.46288,0,0,0-.252-2.12474A5.80969,5.80969,0,0,0,32.52431,42.211a1.64007,1.64007,0,0,1-.41059-.60958,2.79668,2.79668,0,0,1-.07566-.75187,1.85985,1.85985,0,0,1,.06731-.57931q.06726-.19109.19844-.19109a.18094.18094,0,0,1,.17257.14165,2.49611,2.49611,0,0,1,.05177.659v.739Z" transform="translate(-10 -8.5)"/><polygon class="cls-3" points="36.31 32.096 36.31 30.101 33.887 30.101 33.887 40.072 36.406 40.072 36.406 38.077 35.34 38.077 35.34 35.884 36.247 35.884 36.247 33.987 35.34 33.987 35.34 32.096 36.31 32.096"/><polygon class="cls-3" points="24.206 32.096 25.065 32.096 25.065 40.072 26.518 40.072 26.518 32.096 27.381 32.096 27.381 30.101 24.206 30.101 24.206 32.096"/><polygon class="cls-3" points="20.285 32.096 20.285 30.101 17.862 30.101 17.862 40.072 20.381 40.072 20.381 38.077 19.315 38.077 19.315 35.884 20.223 35.884 20.223 33.987 19.315 33.987 19.315 32.096 20.285 32.096"/><path class="cls-3" d="M37.84073,38.60106,37.09955,48.572h1.50221l.08737-1.79217h.51976l.078,1.79217h1.485l-.831-9.97089Zm.82991,6.41118q.05676-1.32395.27886-4.1879.111,2.494.2213,4.1879Z" transform="translate(-10 -8.5)"/><rect class="cls-3" x="2.86083" y="14.30714" width="34.27835" height="14.38571"/><polygon class="cls-3" points="32.693 40.072 32.693 32.096 33.555 32.096 33.555 30.101 30.38 30.101 30.38 32.096 31.239 32.096 31.239 40.072 32.693 40.072"/><path class="cls-2" d="M16.59888,13.65133q-.36075,2.86391-.453,4.1879h.81248Q16.77917,16.14517,16.59888,13.65133Z" transform="translate(-10 -8.5)"/><path class="cls-2" d="M21.85815,40.82434q-.22207,2.86392-.27886,4.1879h.50016Q21.96914,43.3182,21.85815,40.82434Z" transform="translate(-10 -8.5)"/><path class="cls-2" d="M15.04679,40.307v2.21712a.42263.42263,0,0,0,.34342-.12007,1.68684,1.68684,0,0,0,.09836-.77909v-.54812a1.3211,1.3211,0,0,0-.09491-.622A.38048.38048,0,0,0,15.04679,40.307Z" transform="translate(-10 -8.5)"/><path class="cls-2" d="M38.67064,45.01224h.50016q-.11031-1.694-.2213-4.1879Q38.72743,43.68826,38.67064,45.01224Z" transform="translate(-10 -8.5)"/><path class="cls-2" d="M12.5,10.01984V49.98016h35V10.01984Zm33.64835,5.29433V17.211H44.67382v2.19249h1.73243v1.99541h-4.0928V11.42805h3.93582v1.99541H44.67382v1.89071Zm-4.78242-3.88612v9.97089H39.30271l-.00278-6.73143-.82139,6.73143H37.01523l-.8662-6.57746-.00283,6.57746H34.083V11.42805h3.05418q.13591.89925.28017,2.11974l.33518,2.53621.54243-4.65595Zm-12.05693,0h2.21456l-1.354,4.502,1.483,5.4689h-2.4389l-.9559-4.27412v4.27412H25.89737V11.42805h2.36038v3.8738Zm-7.18768,8.33268a.34642.34642,0,0,0,.328.16013.37688.37688,0,0,0,.35043-.20324,1.25589,1.25589,0,0,0,.11491-.60355A2.01881,2.01881,0,0,0,22.696,17.9624a7.08658,7.08658,0,0,0-1.1045-.90533,10.96911,10.96911,0,0,1-1.16617-.93,2.2035,2.2035,0,0,1-.47374-.80062,3.83626,3.83626,0,0,1-.18784-1.30564,3.93429,3.93429,0,0,1,.26634-1.67516,1.85888,1.85888,0,0,1,.86059-.82836,3.16784,3.16784,0,0,1,1.43528-.29868,3.45038,3.45038,0,0,1,1.567.32641,1.70445,1.70445,0,0,1,.85785.82216,4.74871,4.74871,0,0,1,.21022,1.68442v.39416H22.7689v-.739a1.5787,1.5787,0,0,0-.0841-.659.30009.30009,0,0,0-.28033-.14165.3502.3502,0,0,0-.32236.19109,1.19915,1.19915,0,0,0-.10934.5793,1.78276,1.78276,0,0,0,.12291.75188,1.84157,1.84157,0,0,0,.667.60958A6.88259,6.88259,0,0,1,24.748,16.72451a4.18068,4.18068,0,0,1,.40928,2.12474,4.05753,4.05753,0,0,1-.227,1.57046,1.8487,1.8487,0,0,1-.87745.84684,3.2088,3.2088,0,0,1-1.51378.34178,3.13707,3.13707,0,0,1-1.61752-.39415,1.86938,1.86938,0,0,1-.87741-1.00387,5.61756,5.61756,0,0,1-.20744-1.73058v-.65282h2.19217v1.21326A1.74,1.74,0,0,0,22.12132,19.76073Zm-2.56217,1.63821H17.14691l-.12668-1.79217h-.84432L16.034,21.39894H13.59375l1.204-9.97089h3.41159Zm-2.942,22.4801a2.08387,2.08387,0,0,1,.18465.58813q.03624.268.03624,1.475V48.572h-1.3495V45.25858a3.95589,3.95589,0,0,0-.07075-.99154q-.07079-.19083-.371-.19092V48.572h-1.453V38.60106h1.02852a4.48607,4.48607,0,0,1,1.39264.14165,1.17146,1.17146,0,0,1,.59364.72362,5.46428,5.46428,0,0,1,.22952,1.85686,4.8968,4.8968,0,0,1-.16222,1.56431.7724.7724,0,0,1-.63851.48037A1.08069,1.08069,0,0,1,16.61718,43.879Zm3.14423-1.39186v1.89687h-.90772v2.19249h1.06648V48.572H17.40065V38.60106h2.42288v1.99541h-.96984v1.89071ZM20.0082,48.572l.74118-9.97089h2.10017l.83094,9.97089h-1.485l-.078-1.79217h-.51976L21.5104,48.572Zm6.25565-1.99541V48.572h-2.3366V38.60106h1.453v7.97548Zm3.95877-4.08936v1.89687H29.3149v2.19249h1.06648V48.572H27.86186V38.60106h2.42288v1.99541H29.3149v1.89071Zm2.25376-2.26639a.18094.18094,0,0,0-.17257-.14165q-.1312,0-.19844.19109a1.85985,1.85985,0,0,0-.06731.57931,2.79668,2.79668,0,0,0,.07566.75187,1.64007,1.64007,0,0,0,.41059.60958,5.80969,5.80969,0,0,1,1.22219,1.68653,6.46288,6.46288,0,0,1,.252,2.12474,6.40754,6.40754,0,0,1-.13977,1.57046,1.67941,1.67941,0,0,1-.54015.84684,1.44831,1.44831,0,0,1-1.92763-.05237,1.88382,1.88382,0,0,1-.54013-1.00386,8.95669,8.95669,0,0,1-.1277-1.73059v-.65282h1.3495v1.21326a2.751,2.751,0,0,0,.05694.72056.20629.20629,0,0,0,.20191.16013q.145,0,.21573-.20324a1.94739,1.94739,0,0,0,.07074-.60355,3.10441,3.10441,0,0,0-.1346-1.15167,5.80513,5.80513,0,0,0-.67993-.90532,8.77105,8.77105,0,0,1-.71789-.93,2.719,2.719,0,0,1-.29164-.80063,6.07739,6.07739,0,0,1-.11563-1.30564,6.17672,6.17672,0,0,1,.16395-1.67516,1.6753,1.6753,0,0,1,.52978-.82836,1.35261,1.35261,0,0,1,.88356-.29867,1.47375,1.47375,0,0,1,.96466.3264,1.54151,1.54151,0,0,1,.52809.82216,7.54437,7.54437,0,0,1,.12941,1.68442v.39416h-1.3495v-.739A2.49611,2.49611,0,0,0,32.47638,40.22079Zm7.90372.37568V38.60106h3.17529v1.99541h-.86285V48.572h-1.453V40.59647Zm.39175,7.97548h-1.485l-.078-1.79217h-.51976L38.60176,48.572H37.09955l.74118-9.97089H39.9409Zm-3.391-7.97548H36.518V48.572h-1.453V40.59647h-.8594V38.60106h3.17529Zm8.86666,1.89071v1.89687h-.90772v2.19249h1.06648V48.572H43.88672V38.60106h2.42289v1.99541h-.96984v1.89071Zm.89168-5.29432H12.86083V22.80714H47.13917Z" transform="translate(-10 -8.5)"/></svg>