<svg id="Layer_1" data-name="Layer 1" xmlns="http://www.w3.org/2000/svg" viewBox="0 0 35 30"><defs><style>.cls-1{fill:#fff;}.cls-2{fill:#565656;}.cls-3{fill:none;}</style></defs><rect class="cls-1" width="35" height="30"/><path class="cls-2" d="M-41.18838,5.96927l1.1078,9.78886h-1.97976l-.104-1.75946h-.69295l-.11648,1.75946h-2.00277l.98817-9.78886Zm-1.02669,6.29413q-.1471-1.66311-.29507-4.11144-.296,2.81163-.37178,4.11144Z" transform="translate(54.1628 4.1363)"/><path class="cls-2" d="M-39.75158,5.96927H-37.819a3.9426,3.9426,0,0,1,1.38733.18735,1.48726,1.48726,0,0,1,.76154.75823,4.31253,4.31253,0,0,1,.28989,1.83983,2.48571,2.48571,0,0,1-.20476,1.1964,1.34929,1.34929,0,0,1-.80755.51959,1.4071,1.4071,0,0,1,.91108.66247,3.21911,3.21911,0,0,1,.23927,1.41866v.90741a4.63573,4.63573,0,0,1-.17255,1.47012,1.0783,1.0783,0,0,1-.54987.65337,4.35214,4.35214,0,0,1-1.54608.17543h-2.24091Zm1.93721,1.67481V9.82072q.12424-.006.19326-.006.28526,0,.36351-.18443a3.91992,3.91992,0,0,0,.07823-1.055,2.20531,2.20531,0,0,0-.06442-.644.37639.37639,0,0,0-.168-.23275A1.15741,1.15741,0,0,0-37.81437,7.64408Zm0,3.7003v2.73894a.68769.68769,0,0,0,.52226-.16929,1.49467,1.49467,0,0,0,.11274-.74369v-.913a1.63613,1.63613,0,0,0-.10123-.76183Q-37.38186,11.3626-37.81437,11.34438Z" transform="translate(54.1628 4.1363)"/><path class="cls-2" d="M-30.12075,11.7011q0,1.47532-.0529,2.089a2.80916,2.80916,0,0,1-.3313,1.12159,1.96709,1.96709,0,0,1-.75235.78,2.17934,2.17934,0,0,1-1.10436.27208,2.22645,2.22645,0,0,1-1.07446-.257,1.92272,1.92272,0,0,1-.76612-.77087,2.76059,2.76059,0,0,1-.34511-1.11855q-.05521-.60454-.05522-2.11619V10.0263q0-1.47521.05292-2.089a2.8063,2.8063,0,0,1,.33129-1.12155,1.966,1.966,0,0,1,.75235-.78,2.179,2.179,0,0,1,1.10435-.27208,2.22671,2.22671,0,0,1,1.07446.25694,1.9242,1.9242,0,0,1,.76613.77092,2.76143,2.76143,0,0,1,.3451,1.11855q.05523.60466.05522,2.11619Zm-1.9372-3.21659a3.95541,3.95541,0,0,0-.05751-.87371.23345.23345,0,0,0-.237-.19043.252.252,0,0,0-.23236.15416,2.82143,2.82143,0,0,0-.08054.91v4.571a5.86875,5.86875,0,0,0,.05293,1.052.23655.23655,0,0,0,.24616.19952q.19782,0,.2531-.22976a6.33,6.33,0,0,0,.05522-1.09436Z" transform="translate(54.1628 4.1363)"/><path class="cls-2" d="M-24.99475,5.96927v6.542A14.88487,14.88487,0,0,1-25.05,14.07423a2.47584,2.47584,0,0,1-.32671.92507,1.845,1.845,0,0,1-.7155.71951,2.13449,2.13449,0,0,1-1.04685.24489,2.34261,2.34261,0,0,1-1.178-.29022,1.92357,1.92357,0,0,1-.76384-.75578,2.501,2.501,0,0,1-.2991-.98253q-.046-.517-.046-2.1736V5.96927h1.9372V13.3094a3.76856,3.76856,0,0,0,.05294.81925.21334.21334,0,0,0,.214.17838.23087.23087,0,0,0,.237-.19652,4.78278,4.78278,0,0,0,.0529-.92808V5.96927Z" transform="translate(54.1628 4.1363)"/><path class="cls-2" d="M-20.34269,5.96927v1.959H-21.493v7.82988h-1.93721V7.92825H-24.576v-1.959Z" transform="translate(54.1628 4.1363)"/><path class="cls-3" d="M-44.37835,4.72009h1.743L-42.53395,3.44h.60309l.09048,1.28013h1.723L-41.0815-2.402h-2.43685Zm2.14652-5.534q.12876,1.78143.25678,2.99135h-.58035Q-42.48953,1.23176-42.23183-.81392Z" transform="translate(54.1628 4.1363)"/><path class="cls-3" d="M-39.91913,2.16864v.46629A4.01262,4.01262,0,0,0-39.771,3.87107a1.33527,1.33527,0,0,0,.62673.717,2.24063,2.24063,0,0,0,1.15537.28154,2.292,2.292,0,0,0,1.08127-.24413,1.32054,1.32054,0,0,0,.62675-.60488,2.89846,2.89846,0,0,0,.16217-1.12176A2.98623,2.98623,0,0,0-36.411,1.3812,4.91617,4.91617,0,0,0-37.82912.17654a1.31531,1.31531,0,0,1-.47642-.43541,1.27334,1.27334,0,0,1-.0878-.53706.85642.85642,0,0,1,.07811-.41378.25013.25013,0,0,1,.23025-.1365.21436.21436,0,0,1,.20024.10118,1.12764,1.12764,0,0,1,.06007.4707v.52789h1.56584V-.528A3.39177,3.39177,0,0,0-36.409-1.73114a1.21741,1.21741,0,0,0-.61274-.58726,2.46462,2.46462,0,0,0-1.1193-.23315,2.2629,2.2629,0,0,0-1.02521.21334,1.32784,1.32784,0,0,0-.6147.59169A2.81026,2.81026,0,0,0-39.97119-.55a2.74019,2.74019,0,0,0,.13417.9326,1.57394,1.57394,0,0,0,.33838.57188,7.83684,7.83684,0,0,0,.833.66425,5.0623,5.0623,0,0,1,.78893.64666,1.442,1.442,0,0,1,.15618.82263.897.897,0,0,1-.08208.4311.2692.2692,0,0,1-.25031.14517.24745.24745,0,0,1-.23429-.11437,1.24294,1.24294,0,0,1-.06606-.51469V2.16864Z" transform="translate(54.1628 4.1363)"/><path class="cls-3" d="M-42.17685,20.06905A3.49748,3.49748,0,0,0-42.061,18.9517a3.9033,3.9033,0,0,0-.16394-1.32634.83681.83681,0,0,0-.424-.51687,3.20429,3.20429,0,0,0-.99474-.10118h-.73466v7.12207h1.03789V20.91807q.21447,0,.265.13637a2.82534,2.82534,0,0,1,.05054.70825v2.36669h.96393V22.251q0-.86215-.02588-1.05358a1.48849,1.48849,0,0,0-.1319-.4201.77188.77188,0,0,0-.41417-.36512A.55171.55171,0,0,0-42.17685,20.06905Zm-.84806-.9018a1.20476,1.20476,0,0,1-.07026.55649.30184.30184,0,0,1-.24529.08577V18.22585a.27176.27176,0,0,1,.24776.10558.94371.94371,0,0,1,.06779.4443Z" transform="translate(54.1628 4.1363)"/><polygon class="cls-3" points="14.234 22.569 14.234 21.144 12.504 21.144 12.504 28.266 14.303 28.266 14.303 26.84 13.542 26.84 13.542 25.274 14.19 25.274 14.19 23.919 13.542 23.919 13.542 22.569 14.234 22.569"/><path class="cls-3" d="M-38.28993,22.84926l.0557,1.28012h1.0607l-.59354-7.12207h-1.50012l-.52941,7.12207h1.073l.06241-1.28012Zm-.18528-4.25389q.07926,1.78143.15807,2.99136h-.35726Q-38.63384,20.64106-38.47521,18.59537Z" transform="translate(54.1628 4.1363)"/><path class="cls-3" d="M-27.36151-.88788q-.10308-.87184-.20012-1.5141h-2.18155V4.72009h1.47373l.002-4.69819.61872,4.69819h1.04522l.5867-4.80817.002,4.80817h1.47373V-2.402h-2.19356L-27.12209.9237Z" transform="translate(54.1628 4.1363)"/><polygon class="cls-3" points="33.11 3.16 33.11 1.734 30.299 1.734 30.299 8.856 33.222 8.856 33.222 7.431 31.984 7.431 31.984 5.865 33.038 5.865 33.038 4.51 31.984 4.51 31.984 3.16 33.11 3.16"/><polygon class="cls-3" points="17.166 21.144 17.166 28.266 18.835 28.266 18.835 26.84 18.203 26.84 18.203 21.144 17.166 21.144"/><polygon class="cls-3" points="18.573 1.734 18.573 8.856 20.259 8.856 20.259 5.803 20.942 8.856 22.684 8.856 21.624 4.95 22.591 1.734 21.01 1.734 20.259 4.501 20.259 1.734 18.573 1.734"/><path class="cls-3" d="M-29.88985,19.16285v-.28154a5.38844,5.38844,0,0,0-.09244-1.20316,1.101,1.101,0,0,0-.3772-.58725,1.05261,1.05261,0,0,0-.689-.23315.96618.96618,0,0,0-.63112.21333,1.1967,1.1967,0,0,0-.37841.59169,4.41164,4.41164,0,0,0-.11711,1.19654,4.34119,4.34119,0,0,0,.08259.9326,1.94229,1.94229,0,0,0,.20831.57188,6.2655,6.2655,0,0,0,.51278.66426,4.14659,4.14659,0,0,1,.48567.64666,2.21752,2.21752,0,0,1,.09614.82262,1.391,1.391,0,0,1-.05053.43111q-.05058.14517-.15409.14517a.14734.14734,0,0,1-.14422-.11438,1.9649,1.9649,0,0,1-.04067-.51469v-.86661h-.96393v.4663a6.39775,6.39775,0,0,0,.09121,1.23613,1.34561,1.34561,0,0,0,.38581.717.99238.99238,0,0,0,.71125.28154.99412.99412,0,0,0,.66563-.24414,1.19963,1.19963,0,0,0,.38582-.60488,4.57682,4.57682,0,0,0,.09984-1.12176,4.61633,4.61633,0,0,0-.18-1.51767,4.14972,4.14972,0,0,0-.873-1.20466,1.17151,1.17151,0,0,1-.29328-.43542,1.99732,1.99732,0,0,1-.05405-.53705,1.3286,1.3286,0,0,1,.04808-.41379q.04806-.1365.14175-.13649a.12925.12925,0,0,1,.12327.10117,1.78349,1.78349,0,0,1,.037.4707v.52789Z" transform="translate(54.1628 4.1363)"/><polygon class="cls-3" points="33.153 22.569 33.153 21.144 31.422 21.144 31.422 28.266 33.222 28.266 33.222 26.84 32.46 26.84 32.46 25.274 33.109 25.274 33.109 23.919 32.46 23.919 32.46 22.569 33.153 22.569"/><polygon class="cls-3" points="24.507 22.569 25.121 22.569 25.121 28.266 26.159 28.266 26.159 22.569 26.775 22.569 26.775 21.144 24.507 21.144 24.507 22.569"/><polygon class="cls-3" points="21.707 22.569 21.707 21.144 19.976 21.144 19.976 28.266 21.776 28.266 21.776 26.84 21.014 26.84 21.014 25.274 21.662 25.274 21.662 23.919 21.014 23.919 21.014 22.569 21.707 22.569"/><path class="cls-3" d="M-27.05908,17.00731l-.52941,7.12207h1.073l.06241-1.28012h.37126l.0557,1.28012h1.0607l-.59354-7.12207Zm.59279,4.57942q.04056-.94567.19919-2.99136.07926,1.78143.15807,2.99136Z" transform="translate(54.1628 4.1363)"/><rect class="cls-3" x="9.26093" y="9.86225" width="24.48454" height="10.27551"/><polygon class="cls-3" points="30.569 28.266 30.569 22.569 31.186 22.569 31.186 21.144 28.918 21.144 28.918 22.569 29.531 22.569 29.531 28.266 30.569 28.266"/><path class="cls-2" d="M-42.23183-.81392q-.25767,2.04566-.32357,2.99135h.58035Q-42.103.96741-42.23183-.81392Z" transform="translate(54.1628 4.1363)"/><path class="cls-2" d="M-38.47521,18.59537q-.15863,2.04566-.19919,2.99136h.35726Q-38.39592,20.37669-38.47521,18.59537Z" transform="translate(54.1628 4.1363)"/><path class="cls-2" d="M-43.34046,18.22585v1.58366a.30184.30184,0,0,0,.24529-.08577,1.20476,1.20476,0,0,0,.07026-.55649v-.39152a.94371.94371,0,0,0-.06779-.4443A.27176.27176,0,0,0-43.34046,18.22585Z" transform="translate(54.1628 4.1363)"/><path class="cls-2" d="M-26.46629,21.58673h.35726q-.0788-1.21-.15807-2.99136Q-26.42572,20.641-26.46629,21.58673Z" transform="translate(54.1628 4.1363)"/><path class="cls-2" d="M-45.1596-3.40784V25.13524h25V-3.40784ZM-21.12507.37382V1.72873H-22.1783V3.29479h1.23745v1.4253h-2.92343V-2.402h2.8113V-.97669H-22.1783V.37382Zm-3.416-2.7758V4.72009h-1.47373l-.002-4.80817-.5867,4.80817h-1.04522L-28.26744.0219l-.002,4.69819h-1.47373V-2.402h2.18155q.09708.64233.20012,1.5141L-27.12209.9237l.38745-3.32568Zm-8.61209,0h1.58183L-32.53846.81373l1.05925,3.90636h-1.74207l-.68279-3.05295v3.053H-35.59V-2.402h1.686V.365Zm-5.13406,5.95192a.24745.24745,0,0,0,.23429.11437.2692.2692,0,0,0,.25031-.14517.897.897,0,0,0,.08208-.4311,1.442,1.442,0,0,0-.15618-.82263,5.0623,5.0623,0,0,0-.78893-.64666,7.83684,7.83684,0,0,1-.833-.66425A1.57394,1.57394,0,0,1-39.837.38262,2.74019,2.74019,0,0,1-39.97119-.55a2.81026,2.81026,0,0,1,.19024-1.19654,1.32784,1.32784,0,0,1,.6147-.59169A2.2629,2.2629,0,0,1-38.141-2.55155a2.46462,2.46462,0,0,1,1.1193.23315,1.21741,1.21741,0,0,1,.61274.58726A3.39177,3.39177,0,0,1-36.25883-.528v.28154h-1.56584V-.77433a1.12764,1.12764,0,0,0-.06007-.4707.21436.21436,0,0,0-.20024-.10118.25013.25013,0,0,0-.23025.1365.85642.85642,0,0,0-.07811.41378,1.27334,1.27334,0,0,0,.0878.53706,1.31531,1.31531,0,0,0,.47642.43541A4.91617,4.91617,0,0,1-36.411,1.3812a2.98623,2.98623,0,0,1,.29234,1.51768,2.89846,2.89846,0,0,1-.16217,1.12176,1.32054,1.32054,0,0,1-.62675.60488,2.292,2.292,0,0,1-1.08127.24413,2.24063,2.24063,0,0,1-1.15537-.28154,1.33527,1.33527,0,0,1-.62673-.717,4.01262,4.01262,0,0,1-.14817-1.23614V2.16864h1.56584v.86661A1.24294,1.24294,0,0,0-38.28723,3.54994Zm-1.83012,1.17015h-1.723L-41.93086,3.44h-.60309l-.10137,1.28013h-1.743l.86-7.12207h2.43685ZM-42.21876,20.7773a1.48849,1.48849,0,0,1,.1319.4201q.02588.1914.02588,1.05358v1.8784h-.96393V21.76269a2.82534,2.82534,0,0,0-.05054-.70825q-.05055-.13631-.265-.13637v3.21131h-1.03789V17.00731h.73466a3.20429,3.20429,0,0,1,.99474.10118.83681.83681,0,0,1,.424.51687A3.9033,3.9033,0,0,1-42.061,18.9517a3.49748,3.49748,0,0,1-.11587,1.11735.55171.55171,0,0,1-.45608.34313A.77188.77188,0,0,1-42.21876,20.7773Zm2.24588-.99418V21.138h-.64837v1.56607h.76177v1.42529h-1.79966V17.00731h1.73064v1.4253h-.69275v1.35051Zm.17628,4.34626.52941-7.12207h1.50012l.59354,7.12207h-1.0607l-.0557-1.28012h-.37126l-.06241,1.28012Zm4.46832-1.42529v1.42529h-1.669V17.00731h1.03789v5.69678Zm2.82769-2.921V21.138H-33.149v1.56607h.76177v1.42529h-1.79966V17.00731h1.73064v1.4253H-33.149v1.35051Zm1.60984-1.61886a.12925.12925,0,0,0-.12327-.10117q-.09372,0-.14175.13649a1.3286,1.3286,0,0,0-.04808.41379,1.99732,1.99732,0,0,0,.05405.53705,1.17151,1.17151,0,0,0,.29328.43542,4.14972,4.14972,0,0,1,.873,1.20466,4.61633,4.61633,0,0,1,.18,1.51767,4.57682,4.57682,0,0,1-.09984,1.12176,1.19963,1.19963,0,0,1-.38582.60488.99412.99412,0,0,1-.66563.24414.99238.99238,0,0,1-.71125-.28154,1.34561,1.34561,0,0,1-.38581-.717,6.39775,6.39775,0,0,1-.09121-1.23613v-.4663h.96393v.86661a1.9649,1.9649,0,0,0,.04067.51469.14734.14734,0,0,0,.14422.11438q.10354,0,.15409-.14517a1.391,1.391,0,0,0,.05053-.43111,2.21752,2.21752,0,0,0-.09614-.82262,4.14659,4.14659,0,0,0-.48567-.64666,6.2655,6.2655,0,0,1-.51278-.66426,1.94229,1.94229,0,0,1-.20831-.57188,4.34119,4.34119,0,0,1-.08259-.9326,4.41164,4.41164,0,0,1,.11711-1.19654,1.1967,1.1967,0,0,1,.37841-.59169.96618.96618,0,0,1,.63112-.21333,1.05261,1.05261,0,0,1,.689.23315,1.101,1.101,0,0,1,.3772.58725,5.38844,5.38844,0,0,1,.09244,1.20316v.28154h-.96393V18.635A1.78349,1.78349,0,0,0-30.89075,18.16426Zm5.64551.26835v-1.4253h2.26806v1.4253h-.61632v5.69677h-1.03789V18.43261Zm.27982,5.69677h-1.0607l-.0557-1.28012h-.37126l-.06241,1.28012h-1.073l.52941-7.12207H-25.559Zm-2.42216-5.69677h-.61632v5.69677h-1.03789V18.43261h-.61386v-1.4253h2.26807Zm6.33333,1.35051V21.138h-.64837v1.56607h.76177v1.42529h-1.79966V17.00731h1.73063v1.4253h-.69274v1.35051Zm.63692-3.78167H-44.90187V5.726h24.48454Z" transform="translate(54.1628 4.1363)"/></svg>