<svg id="Layer_1" data-name="Layer 1" xmlns="http://www.w3.org/2000/svg" viewBox="0 0 249.09 198.21"><defs><style>.cls-1{font-size:12px;font-family:MyriadPro-Regular, Myriad Pro;}.cls-2{letter-spacing:-0.01em;}.cls-3{fill:red;}.cls-4{fill:#fff;}</style></defs><title>box &amp;amp; me</title><text class="cls-1" transform="translate(201.07 195.2)">23.261 <tspan class="cls-2" x="35.81" y="0">p</tspan><tspan x="42.47" y="0">x</tspan></text><path d="M67.28,37.7l.26,0c.58,0,1.16.09,1.75.12a.49.49,0,0,0,.33-.16s0-.2-.08-.27C68.27,35.68,67,34,65.72,32.22c-.41-.56-.47-.55-.89-.06l0,0-4.56,4.51c-.07.07-.15.22-.12.28a.63.63,0,0,0,.29.2.53.53,0,0,0,.22,0l1.78.14a6.25,6.25,0,0,1-1.34,5.36A7,7,0,0,1,56,45.1a9.71,9.71,0,0,0,3.34.52A7.91,7.91,0,0,0,67,39.54C67.15,38.94,67.2,38.33,67.28,37.7Z" transform="translate(-23.07 -16.43)"/><circle class="cls-3" cx="42.61" cy="7.39" r="7.39"/><path d="M34.52,33.48h-3.1v5.81H28.13V33.48H25V31.07h9.49Z" transform="translate(-23.07 -16.43)"/><path d="M45.76,31.07v8.22H42.47V36.38H38.71v2.91H35.42V31.07h3.29v2.8h3.76v-2.8Z" transform="translate(-23.07 -16.43)"/><path d="M56.5,37v2.28H47.22V31.07h9.15v2.28H50.44v.76h4.77v2H50.44V37Z" transform="translate(-23.07 -16.43)"/><path d="M34.17,47.37c0,1.46-1.46,2.45-3.75,2.45H23.07v-9h6.84c2.29,0,3.75,1,3.75,2.36a2.06,2.06,0,0,1-2.15,2C32.94,45.29,34.17,46,34.17,47.37Zm-7.57-3h2.71c.43,0,.8-.21.8-.64s-.37-.64-.8-.64H26.6Zm3.9,2.62c0-.44-.34-.7-.85-.7h-3v1.4h3C30.16,47.64,30.5,47.37,30.5,46.94Z" transform="translate(-23.07 -16.43)"/><path d="M34.88,45.34c0-3.08,2.45-4.78,6.09-4.78s6.08,1.7,6.08,4.78S44.6,50.12,41,50.12,34.88,48.42,34.88,45.34Zm8.54,0c0-1.28-.92-2-2.45-2s-2.46.76-2.46,2,.92,2,2.46,2S43.42,46.62,43.42,45.34Z" transform="translate(-23.07 -16.43)"/><path d="M54.49,45.2l4,4.62H54.25l-1.88-2.29-1.88,2.29h-4l4-4.57-3.83-4.39h4.22L52.61,43l1.75-2.14h4Z" transform="translate(-23.07 -16.43)"/><path class="cls-4" d="M66.56,23.54v2h-1v-2a.75.75,0,0,0-.84-.85,1.2,1.2,0,0,0-1.11.73v2.09h-1v-2a.75.75,0,0,0-.83-.85,1.21,1.21,0,0,0-1.11.71v2.11h-1V22.09h1v.62A1.58,1.58,0,0,1,62.16,22a1.32,1.32,0,0,1,1.38.93A1.61,1.61,0,0,1,65.07,22,1.42,1.42,0,0,1,66.56,23.54Z" transform="translate(-23.07 -16.43)"/><path class="cls-4" d="M69.6,25a2,2,0,0,0,1.34-.44l.52.57a2.73,2.73,0,0,1-1.91.62c-1.43,0-2.25-.72-2.25-1.87S68.12,22,69.48,22s2.11.64,2.11,1.87a.67.67,0,0,1,0,.23H68.24C68.33,24.67,68.8,25,69.6,25Zm-1.32-1.53h2.38a1.06,1.06,0,0,0-1.17-.72A1.11,1.11,0,0,0,68.28,23.42Z" transform="translate(-23.07 -16.43)"/></svg>