<svg id="Layer_1" data-name="Layer 1" xmlns="http://www.w3.org/2000/svg" viewBox="0 0 102.92 72"><defs><style>.cls-1{fill:#fff;}.cls-2{fill:red;}</style></defs><title>box and me</title><rect class="cls-1" width="102.92" height="72"/><path d="M83.89,49.39l.46.14c1.05.31,2.09.65,3.14.93a.91.91,0,0,0,.67-.16c.08,0,0-.37,0-.53-1.62-3.71-3.28-7.4-4.89-11.11-.52-1.22-.63-1.22-1.6-.48l0,0c-3.39,2.15-6.78,4.29-10.16,6.45-.16.1-.37.35-.34.47s.27.35.45.49a1.34,1.34,0,0,0,.4.13l3.2,1a11.88,11.88,0,0,1-4.64,9.34c-3,2.37-6.5,2.85-10.3,2.36a18.27,18.27,0,0,0,5.9,2.31,14.75,14.75,0,0,0,16.55-8.07C83.14,51.63,83.47,50.51,83.89,49.39Z" transform="translate(0)"/><path d="M2.23,3.32V68.68H67.58v-5.8H8V9.16H61.88V55.25h5.7V3.32Z" transform="translate(0)"/><path d="M25.59,22.9H20.82v8.81H17.48V22.9H12.74V20.23H25.59Z" transform="translate(0)"/><path d="M40.77,20.23V31.71H37.42V27.26H30.53v4.45H27.19V20.23h3.34v4.28h6.89V20.23Z" transform="translate(0)"/><path d="M55.71,29.15v2.56H43.46V20.23H55.53v2.56H46.76v1.88H54v2.45H46.76v2Z" transform="translate(0)"/><path d="M26.69,48.25c0,2-1.79,3.14-4.61,3.14H13.2V39.91h8.22c2.82,0,4.61,1.13,4.61,3a2.53,2.53,0,0,1-2.63,2.53C25.21,45.52,26.69,46.47,26.69,48.25ZM16.52,44.49h4.34c1.12,0,1.86-.25,1.86-1.13s-.74-1.12-1.86-1.12H16.52Zm6.74,3.36c0-.93-.71-1.2-1.89-1.2H16.52v2.42h4.85C22.55,49.07,23.26,48.79,23.26,47.85Z" transform="translate(0)"/><path d="M28,45.65c0-3.88,2.93-6.11,7.48-6.11S43,41.77,43,45.65,40,51.77,35.48,51.77,28,49.54,28,45.65Zm11.56,0c0-2.16-1.56-3.39-4.08-3.39s-4.09,1.23-4.09,3.39,1.56,3.4,4.09,3.4S39.56,47.82,39.56,45.65Z" transform="translate(0)"/><path d="M51.86,45.52l5.22,5.87h-4l-3.23-3.65L46.6,51.39H42.79L48,45.57l-5.08-5.66h4L50,43.42l3.1-3.51H57Z" transform="translate(0)"/><circle class="cls-2" cx="85.51" cy="20.31" r="15.17"/><path class="cls-1" d="M87.26,19.76v4H85.35V19.86a1.48,1.48,0,0,0-1.64-1.68,2.37,2.37,0,0,0-2.18,1.43v2.76l0,1.35H79.63V19.86A1.48,1.48,0,0,0,78,18.18a2.34,2.34,0,0,0-2.17,1.4v4.14H73.91V16.91h1.91v1.21a3.1,3.1,0,0,1,2.8-1.46,2.62,2.62,0,0,1,2.72,1.82,3.15,3.15,0,0,1,3-1.82A2.77,2.77,0,0,1,87.26,19.76Z" transform="translate(0)"/><path class="cls-1" d="M93.23,22.53a3.82,3.82,0,0,0,2.62-.88l1,1.13A5.37,5.37,0,0,1,93.13,24c-2.81,0-4.43-1.41-4.43-3.67s1.61-3.69,4.29-3.69c2.47,0,4.13,1.26,4.13,3.67a1.25,1.25,0,0,1-.05.45H90.54C90.72,22,91.64,22.53,93.23,22.53Zm-2.6-3,4.66,0A2.07,2.07,0,0,0,93,18.09C91.76,18.09,90.9,18.56,90.63,19.53Z" transform="translate(0)"/></svg>