<svg id="Layer_1" data-name="Layer 1" xmlns="http://www.w3.org/2000/svg" viewBox="0 0 260.75 205.62"><defs><style>.cls-1{font-size:12px;font-family:MyriadPro-Regular, Myriad Pro;}.cls-2{letter-spacing:-0.01em;}.cls-3{fill:red;}.cls-4{fill:#fff;}</style></defs><title>box an me</title><text class="cls-1" transform="translate(212.73 202.62)">23.261 <tspan class="cls-2" x="35.81" y="0">p</tspan><tspan x="42.47" y="0">x</tspan></text><path d="M75.08,39.65l.37,0c.84.06,1.67.14,2.51.18a.73.73,0,0,0,.48-.23s0-.29-.11-.4c-1.84-2.49-3.69-5-5.5-7.46-.6-.82-.68-.8-1.29-.09l0,0Q68.22,34.94,65,38.19c-.11.1-.22.32-.18.41s.27.21.42.28a.91.91,0,0,0,.33,0l2.56.2a9.07,9.07,0,0,1-1.94,7.73,10.2,10.2,0,0,1-7.35,3.47,14.17,14.17,0,0,0,4.82.74,11.37,11.37,0,0,0,11.08-8.76C74.89,41.44,75,40.55,75.08,39.65Z" transform="translate(-11.4 -9.02)"/><circle class="cls-3" cx="61.35" cy="10.65" r="10.65"/><path d="M27.9,33.57H23.44v8.37H18.7V33.57H14.24V30.1H27.9Z" transform="translate(-11.4 -9.02)"/><path d="M44.08,30.1V41.94H39.34V37.75H33.93v4.19H29.2V30.1h4.73v4h5.41v-4Z" transform="translate(-11.4 -9.02)"/><path d="M59.55,38.66v3.28H46.19V30.1H59.36v3.28H50.82v1.1h6.87v3H50.82v1.23Z" transform="translate(-11.4 -9.02)"/><path d="M27.39,53.58c0,2.1-2.1,3.52-5.4,3.52H11.4V44.2h9.86c3.29,0,5.39,1.38,5.39,3.39a3,3,0,0,1-3.09,2.84C25.62,50.58,27.39,51.66,27.39,53.58Zm-10.9-4.4h3.9c.63,0,1.16-.3,1.16-.92s-.53-.93-1.16-.93h-3.9ZM22.1,53c0-.62-.47-1-1.21-1h-4.4v2h4.4C21.63,54,22.1,53.58,22.1,53Z" transform="translate(-11.4 -9.02)"/><path d="M28.41,50.65c0-4.44,3.54-6.89,8.77-6.89s8.76,2.45,8.76,6.89-3.53,6.89-8.76,6.89S28.41,55.09,28.41,50.65Zm12.3,0c0-1.84-1.32-2.95-3.53-2.95s-3.54,1.11-3.54,2.95,1.33,3,3.54,3S40.71,52.49,40.71,50.65Z" transform="translate(-11.4 -9.02)"/><path d="M56.65,50.45l5.73,6.65H56.3l-2.7-3.3-2.71,3.3H45.16l5.71-6.58L45.35,44.2h6.07L54,47.28l2.52-3.08H62.2Z" transform="translate(-11.4 -9.02)"/><path class="cls-4" d="M74,19.26v2.9H72.64V19.33a1.09,1.09,0,0,0-1.21-1.23,1.74,1.74,0,0,0-1.6,1v3h-1.4V19.33a1.09,1.09,0,0,0-1.21-1.23,1.74,1.74,0,0,0-1.59,1v3h-1.4v-5h1.4v.89a2.29,2.29,0,0,1,2-1.07,1.93,1.93,0,0,1,2,1.34A2.31,2.31,0,0,1,71.89,17,2,2,0,0,1,74,19.26Z" transform="translate(-11.4 -9.02)"/><path class="cls-4" d="M78.42,21.29a2.83,2.83,0,0,0,1.92-.64l.75.82a3.9,3.9,0,0,1-2.74.89c-2.06,0-3.25-1-3.25-2.69S76.28,17,78.25,17c1.81,0,3,.92,3,2.69a.9.9,0,0,1,0,.32H76.45C76.58,20.88,77.26,21.29,78.42,21.29Zm-1.91-2.2,3.42,0c-.21-.72-.79-1-1.68-1S76.71,18.38,76.51,19.09Z" transform="translate(-11.4 -9.02)"/></svg>