<svg id="Layer_1" data-name="Layer 1" xmlns="http://www.w3.org/2000/svg" viewBox="0 0 591.57 265.74"><defs><style>.cls-1{fill:#fff;}.cls-2{fill:#1a1a1a;}</style></defs><title>box &amp;amp; me 2.0</title><rect class="cls-1" width="591.57" height="265.74"/><path class="cls-2" d="M418.55,47.27h186v2q0,85.22,0,170.43a2.74,2.74,0,0,0,.25,1.54c2.4,3.17,4.86,6.29,7.34,9.46a52.74,52.74,0,0,1,4.64-3.24c7.38-4.13,16.18-2.87,23.1,3.23a24,24,0,0,1,8,14.62c.16,1.07-.42,2.27-.69,3.4-.08.34-.38.66-.37,1,.12,5.18-2.71,9-5.81,12.7-.54.65-1.12,1.26-1.68,1.9-.07.08-.07.22-.14.43.28.38.62.81.92,1.25a3.18,3.18,0,0,1-.34,4.27c-1.17,1.06-3.26,1.23-4.23-.08-1.33-1.81-2.61-1.55-4.45-1-8.8,2.78-19-.3-24.12-7.21-3.9-5.25-4.35-11.17-2.8-17.27a33,33,0,0,1,3-7.15c.7-1.35.75-2.27-.29-3.34-.7-.73-1.29-1.58-2.22-2.72.28,2.78-1.28,2.64-3,2.64q-90.22,0-180.45.05h-2.63ZM426,110.63h54.71V55.89H426Zm57.75,115.14h54.78V171.13H483.76Zm-3-57.53V113.55H426v54.69Zm60.87-54.72c-.05.38-.1.56-.1.73,0,13,0,26,0,39a3,3,0,0,0,.84,1.85c3.88,4.06,7.83,8,11.71,12.1a3.86,3.86,0,0,0,3,1.19c12.49,0,25,0,37.47,0,.58,0,1.16-.06,1.8-.1V113.52Zm54.76-2.89V55.85H541.61v54.78ZM538.57,55.86H483.78v54.78h54.79ZM480.75,171.1H426v54.7h54.74Zm57.91-2.86a36.59,36.59,0,0,1,0-4.34,6.72,6.72,0,0,0-2.3-6.09c-1.71-1.62-3.16-3.52-4.8-5.39-.8,1.22-1.35,2.23-2.06,3.11-4.63,5.75-10.88,7.38-17.83,6.53-8.91-1.1-15.17-6-18.42-14.37-3.17-8.17-1.87-15.82,4-22.44,1.66-1.87,3.81-3.31,5.67-5a2.34,2.34,0,0,0,.86-1.64,3.25,3.25,0,0,1,1.93-3.65c1.51-.85,2.73-.17,3.63,1a1.87,1.87,0,0,0,2.15.73c4-.69,8-.69,11.23,2,2.64,2.18,5.37,4.73,6.84,7.72,2.66,5.39,4.6,11.18,4,17.44,0,.41-.09.95.13,1.22,1.48,1.84,3,3.62,4.79,5.7V113.54H483.76v54.7Zm20.74,13a3.69,3.69,0,0,0-.4-.55q-4.68-4.53-9.39-9c-.25-.25-.59-.56-.89-.56-2.38-.05-4.76,0-7.09,0v54.6h54.71c-.11-1.94.36-4-.43-5.19a109.58,109.58,0,0,0-7.06-9c-3.93,5.66-8.89,9.38-15.69,9.85s-12.4-2.27-17.24-6.94C547.51,206.28,545.66,191,559.4,181.23Zm-52.74-56.81c-1.34,1.06-2.47,1.86-3.5,2.77-5.71,5.14-7.39,12.06-4.6,18.85a17.1,17.1,0,0,0,16.91,10.62c5-.34,9.18-2.27,11.25-7.37a2.58,2.58,0,0,0-.61-3.19C519.43,139.18,511.84,133.09,506.66,124.42Zm65.95,91.38c3.86-.62,8.46-1.59,10.34-7a1.93,1.93,0,0,1,.65-.85c1.19-.88.8-1.63-.06-2.49q-9.24-9.44-18.42-18.91a1.83,1.83,0,0,0-2.76-.28c-5.86,3.77-8.71,10.64-6.89,16.87A18.34,18.34,0,0,0,572.61,215.8Zm23.24-5.71.44-.13V171.17H558.23c2.67,2.54,5,4.79,7.39,7a2.2,2.2,0,0,0,1.66.25,20.19,20.19,0,0,1,17.84,5.46c6,5.59,9.26,12.28,7.11,20.77a2,2,0,0,0,.27,1.48C593.55,207.47,594.72,208.76,595.85,210.09Zm39.27,50.18a40,40,0,0,0,2.88-3.19c1.69-2.31,3.66-4.53,3-7.81-.12-.56.43-1.22.57-1.86a6,6,0,0,0,.41-2.63,18.5,18.5,0,0,0-10.71-12.45c-5.14-2.32-9.94-1.66-14.34,2-1.09.91-1,1.51-.21,2.48,1.17,1.38,2.21,2.86,3.33,4.29Zm-5.62,3.12-17.71-22.52c-3.49,5.11-3.68,12.45-.56,16.92C614.79,262.89,622.4,265.29,629.5,263.39Zm-102.08-125,.47-.24c-1.17-3.58-2.11-7.25-3.6-10.69-.63-1.45-2.38-2.42-3.67-3.56-2.2-1.93-5.58-2.54-7.72-1.36C517,128.53,522.15,133.48,527.42,138.35Zm59.76,60.4c1.06-5.69-9.15-16.1-15.57-14.67Zm-41.52-30.48-4-4.05v4.05Z" transform="translate(-68.11 -26.29)"/><path class="cls-2" d="M450.61,76.59,462,61.82a12.55,12.55,0,0,1,1.08-1.22,2.88,2.88,0,1,1,4.3,3.83c-2,2.55-4.16,5-6.12,7.62-2.14,2.84-4.1,5.82-6.21,8.69a1.43,1.43,0,0,0,.09,2.18c2.53,2.58,5,5.26,7.55,7.79,3.59,3.51,7.1,7.08,9.58,11.5.39.71.92,1.74.68,2.33A4.43,4.43,0,0,1,470.8,107a3.22,3.22,0,0,1-2.9-1.07c-3.12-5.69-8.07-9.71-12.51-14.21-1.47-1.49-2.89-3-4.45-4.68-2.13,3.18-4.2,6.27-6.28,9.36-.84,1.25-1.7,2.49-2.59,3.7-1.33,1.82-3,2.23-4.48,1.14s-1.47-2.74-.27-4.5c3.05-4.49,6.06-9,9.16-13.46a1.84,1.84,0,0,0,0-2.53c-3.53-4.82-6.83-9.81-11.62-13.55a2.77,2.77,0,0,1-.34-4,2.74,2.74,0,0,1,4-.31c2.68,2.5,5.27,5.12,7.71,7.85C447.86,72.53,449.18,74.64,450.61,76.59Z" transform="translate(-68.11 -26.29)"/><path class="cls-2" d="M517.09,198c5.35,4.77,10.5,9.39,15.7,14a12.5,12.5,0,0,0,2.51,1.41,2.88,2.88,0,0,1,1.51,3.79c-.7,1.68-1.73,2.28-3.52,1.54a18.92,18.92,0,0,1-5-2.86c-3.89-3.33-7.62-6.86-11.39-10.32-1.07-1-2.1-2-3.3-3.14-4.6,6.18-11.22,10.66-15.14,17.55a2.85,2.85,0,1,1-5-2.73,116.88,116.88,0,0,1,7.16-9.28c2.84-3.27,6-6.3,9.05-9.54a16,16,0,0,0-1.25-1.37c-4.81-4.21-9.62-8.43-14.47-12.59-1.66-1.42-2.09-2.92-1-4.36s2.79-1.66,4.45-.29c5.35,4.41,10.62,8.91,16.33,13.71a7,7,0,0,1,.64-1.11c3.2-4,6.39-8,9.67-12a33.46,33.46,0,0,1,4.05-4.11,2.73,2.73,0,0,1,4,.44,3,3,0,0,1-.32,3.94C527,186.2,522.27,191.83,517.09,198Z" transform="translate(-68.11 -26.29)"/><path class="cls-2" d="M450.64,140.21c-4.58-4.31-8.91-8.43-13.29-12.48a20.85,20.85,0,0,0-3.07-2.19,2.92,2.92,0,0,1-1.33-3.73,2.89,2.89,0,0,1,3.62-1.59,11.13,11.13,0,0,1,3.2,2c4,3.65,8,7.39,11.93,11.1.88.82,1.77,1.62,3.15,2.88a10.52,10.52,0,0,1,1.09-1.77c4.93-5.15,9.85-10.3,14.86-15.37a4.23,4.23,0,0,1,2.75-1.37,3.86,3.86,0,0,1,2.46,1.72c.81,1.22.14,2.41-.82,3.39-3.29,3.37-6.6,6.72-9.87,10.11-2,2-3.89,4.12-6,6.36,1.18.86,2.29,1.64,3.38,2.46,4.43,3.34,8.87,6.66,13.26,10.06,1.66,1.3,1.88,2.88.85,4.27s-2.89,1.45-4.61.13c-5.49-4.22-11-8.41-17.07-13A11.3,11.3,0,0,1,454,145q-6.63,7.08-13.32,14.08c-1.57,1.64-3.33,1.8-4.6.56s-1.14-2.92.46-4.6Z" transform="translate(-68.11 -26.29)"/><path class="cls-2" d="M570.36,144.73c-1.68,1.85-3.11,3.48-4.61,5-2.3,2.39-4.68,4.7-7,7.1a28.31,28.31,0,0,0-2.73,3.35c-.94,1.36-2.19,1.9-3.52,1.29a2.52,2.52,0,0,1-1.23-3.64,41.62,41.62,0,0,1,4.5-5.58c3.58-3.84,7.26-7.57,11-11.41l-12.51-15.72c-.11-.14-.25-.26-.37-.39-1.36-1.44-1.5-3-.37-4.16s2.8-1.14,4.25.44c1.71,1.87,3.33,3.83,4.89,5.82,2.54,3.22,5,6.5,7.59,9.9.55-.51,1-.83,1.31-1.21,3.66-4,7.24-8.11,11-12a65.41,65.41,0,0,1,6.44-5.78,2.49,2.49,0,0,1,3.92.54c.89,1.32.5,2.84-.94,3.93a23.41,23.41,0,0,0-3.23,2.6c-4.86,5.29-9.64,10.64-14.57,16.1,3.56,4.33,7.18,8.74,10.84,13.13a8,8,0,0,0,1.49,1,2.58,2.58,0,0,1,1.12,3.29,2.33,2.33,0,0,1-3,1.6,8.25,8.25,0,0,1-3.31-2c-2.18-2.33-4.16-4.85-6.19-7.32C573.53,148.71,572,146.82,570.36,144.73Z" transform="translate(-68.11 -26.29)"/><path class="cls-2" d="M568.72,87.88c-4.17,4-8.27,7.7-12.16,11.65a24,24,0,0,0-3.38,5,2.86,2.86,0,0,1-3.42,1.67c-1.57-.39-2.49-1.6-2-3.1a12.87,12.87,0,0,1,2.42-5c3.18-3.53,6.68-6.78,10-10.15l4.63-4.65c-5-5-9.9-10-14.82-14.94-.26-.25-.55-.48-.8-.74-1.4-1.44-1.49-3.22-.24-4.5a3,3,0,0,1,4.37,0c2.64,2.48,5.22,5,7.77,7.59s4.92,5.14,7.38,7.71c.13,0,.28,0,.34-.07q8.43-8.72,16.84-17.44a2.89,2.89,0,0,1,4.18-.43,2.8,2.8,0,0,1,.17,4.19c-3.5,3.67-7.15,7.19-10.68,10.82-2.3,2.37-4.5,4.83-6.9,7.41l16.25,17.12c.29.3.61.59.9.9,1.46,1.57,1.54,3.36.19,4.64s-3,1.2-4.49-.3c-3.64-3.7-7.23-7.45-10.8-11.21C572.56,92.13,570.72,90.06,568.72,87.88Z" transform="translate(-68.11 -26.29)"/><path class="cls-2" d="M531.58,84.32a22,22,0,0,1-2.75,11.29c-4.25,7.44-13,10.55-22,7.88-13.9-4.12-19.55-17.84-12.89-31.27A21.78,21.78,0,0,1,503.56,62a9.45,9.45,0,0,1,3.24-.42c.39,0,.84.14,1.19,0a12.26,12.26,0,0,1,8.15.47C526.2,65.62,531.43,73.17,531.58,84.32Zm-5.71.31c-.1-1.13-.15-2.16-.28-3.17-.88-7.42-5.4-12.59-12.65-14.25-1.13-.26-2.42.19-3.64.3-.7.06-1.56.37-2.08.08-1.11-.61-1.83-.1-2.61.48a18.91,18.91,0,0,0-6.87,10.36C495,87.84,499.56,95.67,509,98.11c8.17,2.11,14.77-1.88,16.44-10C525.71,87,525.75,85.73,525.87,84.63Z" transform="translate(-68.11 -26.29)"/><path class="cls-2" d="M432.12,196.86c0-4.17.54-8.27,2.65-11.89,1.25-2.13,2.79-4.58,4.84-5.68,5.31-2.84,11.09-5,17.28-3.77a23.17,23.17,0,0,1,14.22,36.4c-5.62,7.93-15.41,10.43-25,6.22C436.88,214.1,432.15,207,432.12,196.86Zm5.56-.73c0,9.24,5.14,15.78,13.61,17.87,6.45,1.59,11.94-.39,15.48-5.72a18.14,18.14,0,0,0,2.71-14c-1.12-5.71-4.47-9.48-9.73-12-4.68-2.2-8.89-2.06-13.07,1a2.53,2.53,0,0,1-2,.45c-1.54-.6-2.37.26-3.21,1.21C438.45,188.34,437.89,192.5,437.68,196.13Z" transform="translate(-68.11 -26.29)"/><path class="cls-2" d="M117.49,49.27a.87.87,0,0,1,1,.91l-1,9.86a1.13,1.13,0,0,1-1.09.91H106.18V93.13a.94.94,0,0,1-1,.91H93.17a1,1,0,0,1-1-.91V61H80.85a1,1,0,0,1-1-.91v-9.8a1,1,0,0,1,1-1Z" transform="translate(-68.11 -26.29)"/><path class="cls-2" d="M160.55,49.27a1,1,0,0,1,1,1V93.13a1,1,0,0,1-1,.91H147.81a1,1,0,0,1-1-.91V78.6h-9.53V93.13a1,1,0,0,1-1,.91H123.56a1,1,0,0,1-1-.91V50.24a1,1,0,0,1,1-1H136.3a1,1,0,0,1,1,1V67.18h9.53V50.24a1,1,0,0,1,1-1Z" transform="translate(-68.11 -26.29)"/><path class="cls-2" d="M181.19,49.27a1,1,0,0,1,1,1V93.13a1,1,0,0,1-1,.91H169.13a1,1,0,0,1-.95-.91V50.24a1,1,0,0,1,.95-1Z" transform="translate(-68.11 -26.29)"/><path class="cls-2" d="M227.92,49.27a1,1,0,0,1,1,1V93.13a1,1,0,0,1-1,.91H216.14a1.89,1.89,0,0,1-1.44-.84L202.85,73V93.13a1,1,0,0,1-1,.91H189.77a1,1,0,0,1-1-.91V50.24a1,1,0,0,1,1-1h11.79a1.81,1.81,0,0,1,1.56.84l11.79,20.18V50.24a1,1,0,0,1,1-1Z" transform="translate(-68.11 -26.29)"/><path class="cls-2" d="M275.74,93.26c.34.46.07.78-.47.78H259.46a1.86,1.86,0,0,1-1.43-.78L249.58,77V93.13a1,1,0,0,1-1,.91H236.51a1,1,0,0,1-1-.91V50.24a1,1,0,0,1,1-1h12.05a1,1,0,0,1,1,1V64.78l8.18-14.73a1.91,1.91,0,0,1,1.57-.78h14.91c.55,0,.75.32.48.78L261.23,70.62Z" transform="translate(-68.11 -26.29)"/><path class="cls-2" d="M293.05,49.27a1,1,0,0,1,1,1V93.13a1,1,0,0,1-1,.91H281a1,1,0,0,1-.95-.91V50.24a1,1,0,0,1,.95-1Z" transform="translate(-68.11 -26.29)"/><path class="cls-2" d="M339.78,49.27a1,1,0,0,1,1,1V93.13a1,1,0,0,1-1,.91H328a1.87,1.87,0,0,1-1.43-.84L314.71,73V93.13a1,1,0,0,1-1,.91H301.63a1,1,0,0,1-.95-.91V50.24a1,1,0,0,1,.95-1h11.79a1.81,1.81,0,0,1,1.56.84l11.79,20.18V50.24a1,1,0,0,1,1-1Z" transform="translate(-68.11 -26.29)"/><path class="cls-2" d="M387.53,66.59a1,1,0,0,1,1,.91V88.14a2.11,2.11,0,0,1-.81,1.55C383.65,93,377.38,95,370.84,95c-14.71,0-24.52-9.35-24.52-23.36s9.81-23.36,24.52-23.36A29.3,29.3,0,0,1,385.15,52a1,1,0,0,1,.61,1.17l-3.41,9.54a1.06,1.06,0,0,1-1.29.52A22.32,22.32,0,0,0,371.25,61c-6.27,0-10.49,4.28-10.49,10.64S365,82.36,371.25,82.36c2.52,0,4.22-.45,5-1.23V77.36H370c-.62,0-1-.26-1.09-.71l-.89-9a1,1,0,0,1,1.09-1.11Zm-10.9,13.56v0Z" transform="translate(-68.11 -26.29)"/><path class="cls-2" d="M106.86,164.69c-16.18,0-27-10.42-27-26s10.79-26.12,27-26.12,27,10.42,27,26.12S123,164.69,106.86,164.69Zm0-37.49c-6.23,0-10.41,4.63-10.41,11.51s4.18,11.5,10.41,11.5,10.41-4.63,10.41-11.5S113.09,127.2,106.86,127.2Z" transform="translate(-68.11 -26.29)"/><path class="cls-2" d="M180.7,113.74A1.25,1.25,0,0,1,182,115v30.17c0,12.81-7.22,19.54-21,19.54s-20.82-6.73-21-19.54V115a1.3,1.3,0,0,1,1.29-1.24h13.07a1.25,1.25,0,0,1,1.29,1.24v31.47c0,3.33,2,5.28,5.32,5.28s5.31-1.95,5.31-5.21V115a1.3,1.3,0,0,1,1.29-1.24Z" transform="translate(-68.11 -26.29)"/><path class="cls-2" d="M228.11,113.74a1,1,0,0,1,1.06,1l-1.14,11a1.27,1.27,0,0,1-1.22,1H215.49v35.89a1.05,1.05,0,0,1-1.06,1H201a1.13,1.13,0,0,1-1.14-1V126.77H187.24a1.06,1.06,0,0,1-1.07-1V114.83a1.13,1.13,0,0,1,1.07-1.09Z" transform="translate(-68.11 -26.29)"/><path class="cls-2" d="M238,148.48c.23-.73.76-.94,1.37-.58a29.6,29.6,0,0,0,10.56,3.47c2.43,0,4-1.08,4-2.75,0-4.27-21.35-4.05-21.35-19.82,0-9.7,7.67-16.14,19.22-16.14a34.12,34.12,0,0,1,17,5.21c.6.36.83.94.6,1.3l-4.78,10.2c-.23.73-.76.95-1.37.58-3.72-2-8-3.54-10.71-3.76-2.36,0-3.88,1-3.88,2.61,0,4.26,21.5,4,21.5,19.89,0,9.63-7.82,16.07-19.52,16.07-6.38,0-13.07-1.88-16.86-4.78-.61-.43-.84-.94-.61-1.3Z" transform="translate(-68.11 -26.29)"/><path class="cls-2" d="M290.86,113.74a1.1,1.1,0,0,1,1.14,1.09v47.83a1.08,1.08,0,0,1-1.14,1H277.41a1.11,1.11,0,0,1-1.06-1V114.83a1.13,1.13,0,0,1,1.06-1.09Z" transform="translate(-68.11 -26.29)"/><path class="cls-2" d="M318.05,113.74c16.11,0,26.82,9.92,26.82,25s-10.71,25-26.82,25H300.43a1.12,1.12,0,0,1-1.06-1.08V114.83a1.13,1.13,0,0,1,1.06-1.09Zm.92,36.91c5.85,0,9.8-4.78,9.8-11.94s-3.95-11.94-9.8-11.94h-4v23.88Z" transform="translate(-68.11 -26.29)"/><path class="cls-2" d="M387.41,150.65a1.07,1.07,0,0,1,1.14.94v11.07a1.13,1.13,0,0,1-1.14,1H352.09a1.52,1.52,0,0,1-1.21-1.08V114.76a.94.94,0,0,1,1.06-1H386.5a1.16,1.16,0,0,1,1.22,1v10.92a1.11,1.11,0,0,1-1.22,1.09H366.68v5.72h16.1a.89.89,0,0,1,1,.94l-1.07,10.13a1.31,1.31,0,0,1-1.29.94H366.68v6.15Z" transform="translate(-68.11 -26.29)"/><path class="cls-2" d="M122.33,183.57a1,1,0,0,1,1.07,1l-1.15,11.14a1.29,1.29,0,0,1-1.23,1H109.57v36.32a1.08,1.08,0,0,1-1.08,1H94.88a1.15,1.15,0,0,1-1.15-1V196.75H81a1.08,1.08,0,0,1-1.08-1V184.67a1.14,1.14,0,0,1,1.08-1.1Z" transform="translate(-68.11 -26.29)"/><path class="cls-2" d="M170.92,183.57a1.1,1.1,0,0,1,1.15,1.1v48.4a1.09,1.09,0,0,1-1.15,1H156.54a1.08,1.08,0,0,1-1.08-1v-16.4H144.7v16.4a1.09,1.09,0,0,1-1.15,1H129.17a1.12,1.12,0,0,1-1.07-1v-48.4a1.13,1.13,0,0,1,1.07-1.1h14.38a1.1,1.1,0,0,1,1.15,1.1v19.11h10.76V184.67a1.09,1.09,0,0,1,1.08-1.1Z" transform="translate(-68.11 -26.29)"/><path class="cls-2" d="M216.36,220.92a1.09,1.09,0,0,1,1.15,1v11.2a1.15,1.15,0,0,1-1.15,1H180.61a1.54,1.54,0,0,1-1.23-1.1V184.59a1,1,0,0,1,1.07-1h35a1.17,1.17,0,0,1,1.23,1v11.06a1.13,1.13,0,0,1-1.23,1.1H195.37v5.79h16.3a.9.9,0,0,1,1,1l-1.08,10.25a1.34,1.34,0,0,1-1.31.95H195.37v6.23Z" transform="translate(-68.11 -26.29)"/><path class="cls-2" d="M259.87,183.57c10.07,0,16.76,5.71,16.76,14.28,0,5.27-2.69,9.15-6.84,10.32,4.84,1.18,8,5.57,8,11.65,0,8.57-6.69,14.28-16.68,14.28H236.73a1.08,1.08,0,0,1-1.08-1v-48.4a1.15,1.15,0,0,1,1.08-1.1Zm-3.54,19.85c2.31,0,3.85-1.32,3.85-3.37s-1.54-3.37-3.85-3.37h-4.84v6.74ZM257.72,221a3.52,3.52,0,1,0,0-7h-6.23v7Z" transform="translate(-68.11 -26.29)"/><path class="cls-2" d="M310.61,235.12c-16.37,0-27.29-10.54-27.29-26.29s10.92-26.43,27.29-26.43,27.29,10.54,27.29,26.43S327,235.12,310.61,235.12Zm0-37.93c-6.3,0-10.53,4.69-10.53,11.64s4.23,11.65,10.53,11.65,10.53-4.69,10.53-11.65S316.92,197.19,310.61,197.19Z" transform="translate(-68.11 -26.29)"/><path class="cls-2" d="M388.42,232.93c.38.66-.08,1.17-.85,1.17H371.5a2.29,2.29,0,0,1-1.77-1.17l-6.3-12.23-6.3,12.23a2.29,2.29,0,0,1-1.77,1.17H339.29c-.77,0-1.23-.51-.84-1.17l13.76-24.1-13.76-24.09c-.39-.66.07-1.17.84-1.17h16a2.29,2.29,0,0,1,1.77,1.17l6.38,13,6.38-13a2.29,2.29,0,0,1,1.77-1.17h16c.77,0,1.23.51.85,1.17l-13.77,24.09Z" transform="translate(-68.11 -26.29)"/></svg>