<svg id="Layer_1" data-name="Layer 1" xmlns="http://www.w3.org/2000/svg" viewBox="0 0 53.48 26.75"><title>box &amp;amp; me 2.0</title><path d="M56.39,36.51a.52.52,0,0,1-.28-.15c-.27-.16-.53-.48-.8-.67l-.05-.08,0,0,.07-.11C55.64,35.83,56,36.17,56.39,36.51Z" transform="translate(-2.92 -9.76)"/><path d="M52.09,32.4l0,.1,0,0-.11-.13a2.39,2.39,0,0,1,.62-.53,2.27,2.27,0,0,1,1.31-.31.46.46,0,0,0,.23.05h.09a2,2,0,0,1,.45.15v0h.08a2,2,0,0,1,.89.89c0,.08.11.22.16.32a3.9,3.9,0,0,1,.13,1l0,0-.05-.14a3.15,3.15,0,0,0-.14-.57l0,0c-.09-.16-.19-.42-.29-.62h0l-.09-.1h0l-.07-.07v0h0l-.2-.16h0a3,3,0,0,0-.43-.24v0h-.1l-.12,0H54.3l0,0H54.2l-.07,0h0l-.08,0v0a4.7,4.7,0,0,0-.65,0h0l-.1,0,0,0-.08,0v0l-.13.06v0l-.11.05h0l-.07.05v0l-.17.11h0l-.16.1h-.07l0,.08-.15.11v0h0l-.07.06-.07.14Z" transform="translate(-2.92 -9.76)"/><path d="M55.81,34v0Z" transform="translate(-2.92 -9.76)"/><path d="M55.8,34h0Z" transform="translate(-2.92 -9.76)"/><polygon points="52.89 24.3 52.86 24.32 52.85 24.32 52.89 24.3"/><polygon points="52.49 25.32 52.5 25.27 52.52 25.27 52.56 25.24 52.6 25.08 52.68 24.87 52.73 24.84 52.72 24.82 52.73 24.82 52.75 24.7 52.77 24.72 52.77 24.68 52.78 24.69 52.8 24.58 52.78 24.59 52.81 24.42 52.83 24.42 52.82 24.39 52.84 24.36 52.87 24.44 52.84 24.43 52.83 24.51 52.83 24.47 52.85 24.52 52.86 24.49 52.86 24.58 52.84 24.58 52.84 24.67 52.81 24.82 52.79 24.73 52.76 24.8 52.78 24.89 52.77 24.89 52.76 24.99 52.65 25.24 52.63 25.23 52.57 25.41 52.42 25.62 52.37 25.71 52.31 25.66 52.32 25.63 52.29 25.62 52.36 25.48 52.37 25.5 52.49 25.32"/><polygon points="52.51 25.21 52.51 25.22 52.51 25.23 52.51 25.21"/><polygon points="52.47 25.25 52.49 25.27 52.43 25.29 52.45 25.29 52.47 25.25"/><path d="M55.32,35.13v0Z" transform="translate(-2.92 -9.76)"/><polygon points="52.31 25.66 52.37 25.71 52.29 25.81 52.15 25.71 52.15 25.71 52.17 25.69 52.24 25.66 52.23 25.68 52.31 25.67 52.31 25.66"/><polygon points="52.33 25.48 52.33 25.49 52.26 25.6 52.24 25.59 52.29 25.5 52.33 25.48"/><polygon points="52.31 25.66 52.31 25.67 52.23 25.68 52.24 25.66 52.27 25.62 52.31 25.66"/><polygon points="52.26 25.6 52.27 25.62 52.26 25.61 52.26 25.6 52.26 25.6"/><polygon points="52.26 25.61 52.27 25.62 52.24 25.66 52.24 25.64 52.23 25.61 52.24 25.59 52.26 25.6 52.26 25.6 52.26 25.61"/><path d="M55.09,35.44l0,0h0l0,0h0v0c-.23-.19-.47-.45-.68-.66h0l-.19-.14v0l-.15-.1,0-.07H54c-.13,0-.22-.21-.37-.3h0c-.23-.16-.48-.4-.71-.6v0l-.16-.11-.18-.15h0l-.14-.1,0,0L52.32,33h0l-.1-.1h0l-.11-.09,0,0-.21-.17v0l.08-.07v0l.17.15h0l.14.09c.2.2.4.37.61.57v0l.06,0h.05c.58.5,1.1,1,1.66,1.54.12.12.3.27.44.39v.07Zm0,0,0,0Zm0-.06h0Z" transform="translate(-2.92 -9.76)"/><path d="M51.52,33.53v0Zm-.06,1h0l0,.11,0,0v.08l0,0c0,.09.09.2.07.27l0,0v0h0l0,0,.09.11v0l0,0,0,.06.05,0v0h0l0,0v0l0,0,0,.06,0,0,0,0,0,0h0l0,0h0l.06,0,0,.05h0l.06,0,0,0,0,.07h.06l.15.12h0l.23.13v0h0l0,0,.16,0h0l.06,0v0l0,0h.17l0,0,0,0,.11,0a1.58,1.58,0,0,1,.38,0h0l0,0v0l.08,0h0l0,0v0l0,0,0,.09h0l0,0h0l0-.06,0,0h0l.08,0v0l0,0v0l.06,0,0,.06,0,0h0l.07,0v0h0l.07,0,0,0h0l0,0h0l0,0h.08l0,0,0,0v-.06h0l0,0,.07,0v0h0l0,0,.09,0,0,0,0,0,0,0,0,0,0-.09.11-.06,0,0,0,0,0,0,0,0H55l0-.05h0l.05-.07H55l0,0v0l0-.06,0,0v0l0,0,.14.1-.17.18v0l0,0,0,.07-.17.18v0l-.19.13h0l-.11.1-.16.06a2.47,2.47,0,0,1-.52.18l0,0a1.75,1.75,0,0,1-.55,0l0,0-.1,0-.15,0h-.1l-.19-.06v0h-.09l-.28-.16h0l-.2-.15v0h0a1.31,1.31,0,0,1-.27-.31,2,2,0,0,1-.36-.6h0l-.09-.22v-.06l0-.23a2.11,2.11,0,0,1,0-.26v-.08h0a3.63,3.63,0,0,1,.05-.65c.06-.15.06,0,.06-.12h0l.05-.09v0l.08-.18v0c0-.1.06-.19.07-.27a2.25,2.25,0,0,1,.24-.36l.11.09,0,.06,0,0h0l0,.08v0l-.06.17v0l-.1.2h0l0,0,0,0-.07.26v.07h0v0h0v0h0v.07h0v.13l0,.06h0l0,.06h0V34l0,.15,0,.12,0,0v.06l0,.09,0,0v.15Z" transform="translate(-2.92 -9.76)"/><path d="M55.14,35.38l0,0Z" transform="translate(-2.92 -9.76)"/><path d="M55.13,35.34h0Z" transform="translate(-2.92 -9.76)"/><polygon points="52.16 25.66 52.14 25.7 52.12 25.69 52.12 25.68 52.12 25.67 52.16 25.66"/><polygon points="51.68 26.09 51.69 26.1 51.67 26.11 51.68 26.09"/><path d="M54.36,36h0Z" transform="translate(-2.92 -9.76)"/><path d="M54.15,36.08h0Z" transform="translate(-2.92 -9.76)"/><path d="M54,31.76h0Z" transform="translate(-2.92 -9.76)"/><path d="M54,36.18l0,0Z" transform="translate(-2.92 -9.76)"/><path d="M53.77,36.2h0Z" transform="translate(-2.92 -9.76)"/><path d="M52.06,32.79h0Z" transform="translate(-2.92 -9.76)"/><polygon points="49.11 22.77 49.11 22.77 49.1 22.8 49.02 22.86 49.01 22.84 49 22.86 48.89 22.77 49 22.63 49.11 22.77"/><polygon points="48.99 25.76 49 25.79 48.98 25.76 48.99 25.76"/><path d="M48.64,29.64l.08-.11c.5.43,1,.84,1.46,1.27s1.16,1,1.74,1.59l-.11.14-.6-.54-.05-.08L51,31.8l0-.05-.14-.09h0l-.19-.14h0l-.18-.16h0c-.08-.1,0,0-.12-.08h0l-.28-.22h0l-.26-.23-.06-.09-.13-.05-.23-.22h0l0-.06,0,0-.16-.12a1,1,0,0,1-.23-.14l0,0-.16-.07L49,30h0l-.13-.14h0l-.12-.1h0l-.08,0h0l-.09-.05h0v0h0Z" transform="translate(-2.92 -9.76)"/><path d="M51.85,32.83h0Z" transform="translate(-2.92 -9.76)"/><path d="M51.52,33.51v0Z" transform="translate(-2.92 -9.76)"/><polygon points="48.6 23.8 48.59 23.82 48.6 23.78 48.6 23.8"/><polygon points="48.59 23.82 48.59 23.85 48.59 23.84 48.59 23.82"/><polygon points="48.58 24.87 48.59 24.89 48.58 24.89 48.58 24.87"/><path d="M45.71,17.66l.13,0,.74-.07v0l0,0h0l0,0c.64-.08,1.28-.07,1.92-.12l.53-.05a9.58,9.58,0,0,0,1.41-.07.48.48,0,0,1-.26.11c-.27.08-.61,0-.89.1l-.07,0a4.38,4.38,0,0,1-1,.06h0l-.21,0v0l-.15,0-.06,0,0,0c-.1.06-.26,0-.4.05h0c-.23.05-.52.06-.79.09v0l-.17,0-.2,0h0l-.13,0h-.43v0c-.35.05-.7.07-1,.11l-.08,0-.15,0h0l-.13,0v0l-.2,0,0,0-.2,0h0c-.11,0,0,0-.13,0l0,0-.31.05h0c-.1,0-.2,0-.3,0s0,0-.09,0L43,18l-.27,0,0,0h0l0,0-.15,0h0v-.11l.74-.07c.66,0,1.32-.11,2-.14A.83.83,0,0,0,45.71,17.66Z" transform="translate(-2.92 -9.76)"/><path d="M45.53,24.33l.14,0,.73-.06v0l0,0h0l0,0c.65-.07,1.29-.06,1.92-.12l.53,0c.49,0,.92,0,1.41-.07a.44.44,0,0,1-.26.1c-.26.07-.61,0-.89.1l-.06,0a4,4,0,0,1-1.05.06h0l-.21,0v0l-.15,0-.06,0,0,0c-.11.06-.26,0-.41,0h0c-.23.05-.53.06-.79.1v0l-.17,0-.2,0h0l-.14,0h-.43v0c-.34.05-.69.07-1,.09h-.07l-.16,0h0l-.13,0,0,0-.21,0,0,0-.21,0,0,0c-.09,0,0,0-.11,0v0l-.31.05h0l-.05,0-.15-.1v0h.06c.67-.05,1.32-.11,2-.14A.79.79,0,0,0,45.53,24.33Z" transform="translate(-2.92 -9.76)"/><polygon points="46.96 21.01 46.96 21.03 46.94 21.03 46.96 21.01"/><path d="M47.61,26.14h-.07l-.06,0v0h-.12l-.06,0v0l-.06,0h-.09L47,26h-.16l-.08,0,0,0H46.6l0,0H46.5l0,0h-.08l-.06,0c-.09,0-.21,0-.28,0l0,0h0v0l0,0-.13.08h0l0,0,0,0-.07,0h0l0,0v0l-.05,0h.05l0,0-.06,0,0,0h0l0,0,0,0,0,0v0l0,0h0l-.06.07-.06,0h0l-.17-.14a3.19,3.19,0,0,1,.32-.2,2.61,2.61,0,0,1,.68-.27h0l.24-.05h.06l.25,0h0l.25,0h0l.1,0v0a3.66,3.66,0,0,1,.62.14c.12.07,0,.05.1.08h0l.08.07,0,0,.14.11h0l.24.09a2.33,2.33,0,0,1,.82,2.59.56.56,0,0,0-.1.24h0v.11a3,3,0,0,1-.2.34l-.12-.12,0,0,0-.08,0,0,0-.08h0l0-.08h0l0-.1,0,0a6.28,6.28,0,0,0,.15-.7l0-.06v-.1l0,0,0-.09,0,0L49,28h0l0-.14v0l0-.08h0l-.07-.2h0l-.07-.18v-.06l-.07-.05-.07-.16h0v0l0,0-.07-.1-.11-.09,0,0-.1,0v0h0l0-.1h0l-.07-.06h-.05l-.07-.06h0l-.15-.08h0L48,26.33v0l0-.05,0,0h0l-.21-.11h-.08v0h0Z" transform="translate(-2.92 -9.76)"/><polygon points="45.93 17.57 45.91 17.58 45.91 17.57 45.93 17.57"/><polygon points="45.72 19.88 45.7 19.88 45.69 19.92 45.69 19.92 45.62 19.86 45.65 19.86 45.59 19.83 45.63 19.74 45.68 19.66 45.81 19.77 45.73 19.88 45.72 19.88"/><path d="M47.48,28.68h0Zm-2.19-2-.15-.09v0l0-.05h.07l.05-.05,0,0,.27.25h0c.12.06.21.23.31.26L46,27c.08,0,.19.19.3.27s.22.18.32.3l0,0,.13.12h0c.25.25.54.48.82.72s0,.06.14.18h0l.12.14h0c.11.11.11.15.22.22h0a3.9,3.9,0,0,0,.36.25l.21.19-.05.08,0,.09-.2-.14h0c-.1-.11-.22-.18-.3-.27h0L48,29.1,47.88,29a4.35,4.35,0,0,1-.35-.31l-.11-.06h0l0,0h0l0,0h0l0,0h0v0h0l-.1-.09,0,0-.09-.06,0,0-.05,0-.08-.1h0l-.1,0v0l-.13-.08-.19-.21-.17-.13,0,0-.09-.07-.09-.13h-.07L46,27.39h0l-.17-.16v0l-.1-.1-.09-.06c-.11-.13-.32-.26-.36-.37l-.06,0,.05.05h0Z" transform="translate(-2.92 -9.76)"/><path d="M48.54,29.62l.06.06v0a2.48,2.48,0,0,1-1.13.8l-.35.11a3.94,3.94,0,0,1-1,0h0a.24.24,0,0,1,.17-.05c.18-.05.4,0,.59-.06l0,0c.18-.07.45-.13.68-.2h0l.11-.08h0l.08-.07h0v0l.22-.18h0a3.64,3.64,0,0,0,.36-.41l0,0v0l.06,0Zm0,0v0Z" transform="translate(-2.92 -9.76)"/><path d="M48.5,29.62v0Z" transform="translate(-2.92 -9.76)"/><path d="M48.35,19.07v0Z" transform="translate(-2.92 -9.76)"/><path d="M48.34,26.61h0Z" transform="translate(-2.92 -9.76)"/><path d="M47,15l0,0h0l-.08,0h0l-.07-.05v0h0l-.05-.05,0,0v0h0l0,0h-.08l0,0-.07,0v0h0v0h0l0,0h-.07l0,0h0l-.07-.06h0v0h0l-.07-.06h0l0,0h0l0,0,0,0H46.2v0h-.06l0,0,0,0h0l.05,0h0l.05-.07h0v0h0l.18.15,0,.06h0l0,0h0l0,.06h0l.1,0c.14.12.28.21.4.33a4.21,4.21,0,0,1,.37.36l.06.08h0l.14.12v0h0c.13.1.22.25.34.36l.1.09a.78.78,0,0,0,.24.27l-.1,0L48,15.92v0l-.18-.2h0l-.05,0h0v0h0l-.09,0h0l-.17-.12h0l0,0h0l0,0h0l0,0h0l0,0,0,0,0,0-.21-.17v0l0,0v0h0L47,15Z" transform="translate(-2.92 -9.76)"/><polygon points="44.54 9.96 44.52 9.96 44.54 9.93 44.54 9.94 44.55 9.92 44.56 9.92 44.56 9.9 44.59 9.91 44.59 9.93 44.61 9.92 44.59 9.87 44.6 9.87 44.61 9.88 44.64 9.88 44.63 9.85 44.65 9.86 44.64 9.83 44.7 9.83 44.7 9.87 44.71 9.87 44.73 9.88 44.75 9.87 44.7 9.79 44.76 9.77 44.74 9.75 44.75 9.73 44.78 9.76 44.77 9.78 44.8 9.79 44.8 9.75 44.78 9.74 44.8 9.72 44.77 9.7 44.78 9.69 44.78 9.69 44.8 9.66 44.82 9.67 44.82 9.71 44.84 9.68 44.84 9.69 44.87 9.68 44.86 9.66 44.89 9.61 44.92 9.62 44.88 9.67 44.87 9.71 44.92 9.73 44.93 9.71 44.91 9.69 44.94 9.63 44.95 9.65 45.02 9.59 45.02 9.55 45.04 9.58 45.06 9.57 45.1 9.51 45.16 9.44 45.2 9.47 45.2 9.44 45.2 9.45 45.24 9.41 45.24 9.42 45.24 9.41 45.26 9.43 45.29 9.4 45.27 9.39 45.33 9.33 45.33 9.35 45.34 9.33 45.36 9.33 45.36 9.38 45.34 9.35 45.33 9.36 45.34 9.41 45.33 9.43 45.31 9.41 45.3 9.46 45.26 9.51 45.26 9.45 45.23 9.47 45.24 9.52 45.22 9.51 45.21 9.56 45.13 9.63 45.12 9.62 45.08 9.69 45 9.74 44.87 9.89 44.87 9.88 44.85 9.88 44.85 9.92 44.8 10 44.78 9.99 44.72 10.05 44.69 10.05 44.68 10.12 44.61 10.16 44.47 10.34 44.46 10.33 44.31 10.5 44.3 10.48 44.28 10.53 44.23 10.56 44.21 10.6 44.15 10.66 44.14 10.65 44.12 10.7 44.02 10.79 44.02 10.81 43.95 10.87 43.93 10.86 43.93 10.89 43.8 11 43.61 11.2 43.6 11.19 43.55 11.24 43.53 11.22 43.48 11.16 43.48 11.14 43.43 11.08 43.43 11.07 43.51 11.03 43.52 11.02 43.53 11.03 43.55 10.96 43.57 10.96 43.57 10.93 43.6 10.95 43.62 10.92 43.64 10.93 43.64 10.91 43.66 10.89 43.63 10.9 43.64 10.87 43.67 10.86 43.67 10.85 43.68 10.85 43.7 10.84 43.7 10.84 43.72 10.83 43.71 10.82 43.73 10.78 43.76 10.77 43.78 10.74 43.79 10.71 43.83 10.73 43.82 10.69 43.9 10.63 43.89 10.61 43.99 10.53 44.01 10.55 44.01 10.53 43.98 10.52 44.05 10.47 44.07 10.45 44.07 10.44 44.08 10.44 44.09 10.41 44.1 10.43 44.12 10.37 44.15 10.38 44.14 10.36 44.2 10.35 44.3 10.2 44.3 10.2 44.3 10.19 44.33 10.21 44.34 10.16 44.34 10.16 44.35 10.14 44.37 10.16 44.37 10.14 44.41 10.21 44.41 10.21 44.44 10.23 44.41 10.18 44.41 10.14 44.44 10.11 44.42 10.08 44.44 10.09 44.42 10.06 44.44 10.04 44.47 10.07 44.46 10.03 44.47 10.04 44.5 10.02 44.49 10 44.52 10.01 44.54 9.98 44.54 9.96"/><path d="M48.14,26.47h0Z" transform="translate(-2.92 -9.76)"/><path d="M47.39,22.43l0,0v0l0,0h0v0l0,0h0l-.17-.18v0h0v0l0,0h0l0,0h0l0,0h0l-.07,0h0l0-.05v0h0l0-.05,0,0v0h0l0,0h-.08l0,0h-.08v0h0l0,0h0l0,0h0l-.06,0h0l-.05-.06h0v0h0l-.06-.07h0l0,0h0l0,0h0l0,0h0v0h0l0,0v-.06l0,0h0v0h0l0,0h0l.06-.07h0v0l0,.05h0l0,0h0l.14.15v.06h0v0h0l0,.06h0l.1,0,.32.35c.08.12.19.23.27.37l0,.08h0l.11.13,0,0h0c.1.1.16.26.26.37l.07.09a.78.78,0,0,0,.17.28H48L47.85,23v0l-.14-.21h0l0,0v0h0v0h0l-.08-.06h0l-.14-.12v0h0Z" transform="translate(-2.92 -9.76)"/><polygon points="45.03 9.54 45.03 9.54 45.02 9.54 45.03 9.54"/><polygon points="45.01 9.54 45.01 9.55 44.99 9.54 45.01 9.54"/><polygon points="44.99 9.54 44.99 9.55 44.98 9.54 44.99 9.54"/><polygon points="44.98 16.52 44.96 16.52 44.96 16.52 44.98 16.52"/><path d="M47.78,19.43h0Z" transform="translate(-2.92 -9.76)"/><polygon points="44.69 16.39 44.67 16.39 44.66 16.38 44.66 16.37 44.69 16.39"/><polygon points="44.68 2.4 44.67 2.41 44.67 2.41 44.68 2.4"/><polygon points="44.66 16.37 44.66 16.38 44.64 16.37 44.65 16.37 44.66 16.37"/><path d="M47.58,12.19h0Z" transform="translate(-2.92 -9.76)"/><path d="M47.55,26.12h0Z" transform="translate(-2.92 -9.76)"/><polygon points="44.18 3.08 44.13 3.14 44.11 3.15 44.11 3.21 44.05 3.25 43.95 3.44 43.93 3.42 43.83 3.6 43.81 3.58 43.81 3.63 43.76 3.66 43.75 3.7 43.7 3.77 43.69 3.75 43.69 3.8 43.6 3.89 43.61 3.9 43.55 3.98 43.53 3.98 43.54 3.99 43.43 4.1 43.29 4.3 43.29 4.3 43.28 4.3 43.27 4.3 43.29 4.29 43.22 4.22 43.16 4.17 43.17 4.15 43.17 4.16 43.19 4.09 43.2 4.09 43.2 4.06 43.24 4.08 43.24 4.05 43.27 4.06 43.27 4.04 43.28 4.03 43.25 4.03 43.26 4.01 43.28 3.99 43.27 3.97 43.29 3.98 43.29 3.98 43.31 3.98 43.31 3.97 43.33 3.96 43.31 3.95 43.32 3.91 43.34 3.9 43.36 3.87 43.37 3.84 43.41 3.85 43.4 3.82 43.45 3.75 43.45 3.74 43.53 3.66 43.55 3.68 43.55 3.66 43.52 3.65 43.57 3.59 43.57 3.59 43.59 3.58 43.58 3.56 43.6 3.56 43.6 3.54 43.61 3.54 43.62 3.5 43.65 3.5 43.64 3.48 43.69 3.47 43.76 3.31 43.76 3.33 43.76 3.31 43.76 3.3 43.79 3.33 43.79 3.28 43.79 3.28 43.8 3.26 43.81 3.28 43.81 3.26 43.87 3.32 43.89 3.33 43.86 3.29 43.84 3.23 43.85 3.26 43.87 3.23 43.84 3.2 43.87 3.21 43.85 3.18 43.86 3.15 43.9 3.19 43.88 3.15 43.9 3.15 43.91 3.12 43.91 3.12 43.93 3.12 43.95 3.1 43.95 3.07 43.93 3.08 43.93 3.05 43.95 3.05 43.95 3.04 43.95 3.04 43.95 3.03 43.95 3.02 43.98 3.03 43.98 3.04 44 3.04 43.98 2.99 43.98 2.98 43.99 3 44.03 3 44.01 2.97 44.03 2.97 44.02 2.95 44.07 2.95 44.08 2.97 44.09 2.97 44.12 2.99 44.12 2.97 44.07 2.9 44.12 2.88 44.1 2.87 44.1 2.84 44.14 2.88 44.12 2.88 44.16 2.9 44.16 2.86 44.14 2.86 44.15 2.83 44.12 2.82 44.12 2.8 44.13 2.81 44.14 2.77 44.16 2.78 44.16 2.82 44.17 2.79 44.17 2.8 44.21 2.8 44.22 2.81 44.27 2.83 44.27 2.81 44.24 2.79 44.26 2.73 44.28 2.74 44.33 2.69 44.33 2.67 44.35 2.68 44.37 2.67 44.39 2.61 44.44 2.54 44.48 2.56 44.48 2.54 44.5 2.51 44.49 2.5 44.51 2.51 44.51 2.5 44.53 2.52 44.56 2.48 44.54 2.48 44.58 2.42 44.59 2.44 44.59 2.42 44.61 2.42 44.62 2.47 44.59 2.44 44.58 2.46 44.58 2.47 44.58 2.46 44.6 2.49 44.59 2.51 44.58 2.5 44.58 2.55 44.54 2.59 44.53 2.54 44.51 2.55 44.52 2.61 44.51 2.6 44.51 2.64 44.44 2.71 44.43 2.71 44.41 2.77 44.35 2.84 44.25 2.98 44.24 2.96 44.23 2.97 44.24 3.01 44.2 3.09 44.18 3.08"/><path d="M47.5,28.69h0Z" transform="translate(-2.92 -9.76)"/><polygon points="44.53 18.89 44.51 18.88 44.5 18.88 44.49 18.86 44.49 18.86 44.53 18.89"/><polygon points="44.49 18.86 44.49 18.86 44.49 18.86 44.49 18.86"/><polygon points="44.49 18.86 44.49 18.86 44.46 18.84 44.48 18.85 44.49 18.86"/><path d="M47.37,19.77v0Z" transform="translate(-2.92 -9.76)"/><polygon points="44.45 18.83 44.45 18.84 44.44 18.82 44.45 18.83"/><path d="M47.32,19.87v0Z" transform="translate(-2.92 -9.76)"/><polygon points="44.34 10.16 44.34 10.16 44.33 10.16 44.34 10.16"/><polygon points="44.33 2.64 44.33 2.65 44.33 2.64 44.33 2.64"/><polygon points="44.31 2.64 44.32 2.65 44.3 2.65 44.31 2.64"/><path d="M47.22,19.94h0Z" transform="translate(-2.92 -9.76)"/><polygon points="44.21 2.72 44.24 2.72 44.21 2.77 44.21 2.79 44.21 2.79 44.2 2.77 44.21 2.72"/><polygon points="44.15 10.66 44.15 10.67 44.14 10.67 44.15 10.66"/><polygon points="44.01 2.98 44 2.99 44 2.98 44.01 2.98"/><rect x="43.82" y="11.86" width="0.01" height="0.01"/><path d="M46.71,13h0Z" transform="translate(-2.92 -9.76)"/><path d="M46.61,20.57v0Z" transform="translate(-2.92 -9.76)"/><polygon points="43.69 10.84 43.68 10.85 43.67 10.85 43.67 10.84 43.69 10.84"/><polygon points="43.66 4.86 43.66 4.86 43.65 4.86 43.66 4.86"/><polygon points="43.62 16.22 43.62 16.23 43.61 16.23 43.62 16.22"/><polygon points="43.62 11.64 43.6 11.63 43.6 11.63 43.62 11.64"/><polygon points="43.59 11.62 43.6 11.63 43.59 11.63 43.59 11.62"/><rect x="43.59" y="11.63" width="0.01" height="0.01"/><polygon points="43.59 11.62 43.59 11.63 43.59 11.62 43.59 11.62"/><polygon points="43.52 11.28 43.45 11.34 43.45 11.35 43.42 11.37 43.39 11.39 43.36 11.34 43.39 11.33 43.36 11.3 43.34 11.32 43.33 11.29 43.3 11.29 43.28 11.24 43.31 11.24 43.29 11.21 43.34 11.17 43.35 11.19 43.39 11.15 43.37 11.14 43.4 11.12 43.4 11.09 43.43 11.08 43.48 11.14 43.48 11.16 43.53 11.22 43.55 11.24 43.55 11.27 43.52 11.28"/><path d="M46.43,20.76h0Z" transform="translate(-2.92 -9.76)"/><polygon points="43.5 11.01 43.52 11.01 43.5 11.02 43.5 11.01"/><path d="M45.14,19.44l.06,0,0,.08.11.11h0v0h0l.07.05h0l0,.07v0h.06l0,.06.15.13h0l.14.14,0,0h.05l0,.05h0l0,.06v0h0l.06.1h0l.05.07h0l.07.13.16.18h0l0,0v0h0l0,.05v0l0,0,0,0h0v-.06h0v0l-.06,0h0l0,0h0v0h0v0h0v0h0v0H46v0h0l0,0h0l0,0-.05,0,0-.07h0l-.06-.09,0,0h0v0l0-.05h0v0h0v0h0l0,0V20.3l-.12-.08h0l0,0h0v0l0,0,0,0h0l.07,0h0l0,0-.05,0h0l0,0h0l0,0h0l0,0h0l0,0h0v0l0,0h0v0h0v0h0v0l-.05,0v0h0v0h0v0h0v-.06h0l0,0h0l-.07.05v-.06l0,0h0v0l0,0,0,0h0v0h0l0,0h0v0h0l0-.05h0l0,0-.05,0,0,0,0-.05h0l0,0v0l-.05,0,0-.06,0-.05h0l0,0h0l0,0v0l0-.05h0v0h0l0,0h0v0h0l0,0H45v0h.08l0,.08Zm1.13,1.47h0Z" transform="translate(-2.92 -9.76)"/><path d="M44.91,22.3l0,0v0l.19-.21h0l0,0h0v0l0-.05v0l0-.05v0l0,0h0l0-.07.05-.06h0v0l.06,0,0,0h0l0,0v-.08l0,0V21.6h0v0l.05,0h0l0,0h0v0l0,0v0l0-.08v0l.07-.07h0l0,0,.07-.09v0h0v0l0,0h0l0,0h0v0h0v0h.05v0h0l0,0,.06,0,0,0h0v0h0l0,0h0v0l0,0h0l0,0h-.05v0l-.17.19H46v0l-.06,0h0l0,.1c-.13.14-.24.28-.38.41s-.25.26-.4.38l-.07,0h0v.05l-.14.14v0h0v0c-.12.14-.28.22-.4.34l-.1.11a.86.86,0,0,0-.3.24v-.11l.15-.2h0l.22-.19v0l0-.06h0v0h0v0l.07-.08h0l.14-.17,0,0v-.05l0-.05,0,0h0l0,0h0Z" transform="translate(-2.92 -9.76)"/><polygon points="43.37 4.63 43.38 4.64 43.37 4.64 43.37 4.63"/><rect x="43.36" y="4.63" width="0.01" height="0.01"/><rect x="43.28" y="4.3" width="0.01" height="0.01"/><polygon points="43.21 4.39 43.17 4.44 43.15 4.43 43.14 4.39 43.1 4.41 43.06 4.36 43.09 4.35 43.05 4.32 43.06 4.29 43.04 4.27 43.07 4.25 43.07 4.23 43.16 4.17 43.22 4.22 43.29 4.29 43.27 4.3 43.28 4.3 43.28 4.31 43.24 4.38 43.21 4.39"/><polygon points="43.25 11.19 43.24 11.2 43.25 11.19 43.25 11.19"/><polygon points="43.25 20.79 43.24 20.8 43.23 20.8 43.25 20.79"/><polygon points="43.24 20.8 43.23 20.8 43.22 20.8 43.23 20.8 43.24 20.8"/><path d="M46,14h0Zm-1.21-1h0v0h0v0l0,0h0v0h0v0h0v-.05h0l0,0h0l-.07.06,0-.06v0h0l0,0h0l0,0h0v0l0,0v0h0v0h0l0,0h0v0h0l0-.06h0l0,0-.06,0,0,0-.06-.06h0v0l-.06,0-.08-.06,0,0h0l0,0,0,0h0l0,0,0,0h0l0,0h0v0h.05l0,0h0l0,0h0v0h0l0,0h0v0l.06,0v0h0l.07.07v0l.07,0,.06.07.14.1v0l0,0,.08,0v0l.06,0v0h.06L45,13l.18.11v0l.18.13,0,0h.05l0,0h.05l0,.06v0h0l.09.09h0l.07.07v0h0l.11.12.2.18.07.05h0L46,14v0l0,0h0v0h0l0,0h0l-.06-.1h-.08v0h0l0,0h0v0h0v0h0v0h0v0H45.6v0l0,0h0v-.05l0,0-.06-.06h0l-.09-.1,0,0h0v0h0l-.05-.05h0l0,0h0v0h0l0,0v0h0v-.06L45,13.28h0l0,0h0l0,0,0,0h0l.07-.05h0l0,0,0,0h0l0,0,0,0v0l0,0h0l0-.05h-.07v0l0,0h-.06Z" transform="translate(-2.92 -9.76)"/><path d="M44.59,16v-.05h0v0h0l0,0,0-.09h0l.1-.17v0l0,0h0v0h0l0,0h0l0,0h0v0l0,0,.14-.22h0v0h0l0,0h0v0l0-.05h0v0h0l0-.08h0l0-.06h0v-.05l0-.05,0,0h0v0l0,0v-.09l0,0,0-.06h0v0l0,0h0v-.05h0l0,0h0v-.06h0l0-.07h0l.06-.08v0h0v0h0v0h0v0h0v0h0v0h0v0l.06,0v0h0v0h0l0,0,0,0h0v0h0l0,0h0l0,.05,0,0v0h0l-.06.07v0l0,0h0l-.13.19-.06,0h0v0l-.06,0h0l0,.11c-.1.14-.18.28-.29.41s-.19.26-.31.38l-.06,0h0v0l-.11.15v0h0v0a3.47,3.47,0,0,1-.31.36l-.07.1a.85.85,0,0,0-.25.25l0-.1.11-.19h0ZM46,14.11h0Z" transform="translate(-2.92 -9.76)"/><rect x="43.15" y="4.45" width="0.01" height="0.01"/><polygon points="43.16 4.14 43.16 4.15 43.15 4.15 43.16 4.14"/><polygon points="43.14 20.75 43.15 20.79 43.13 20.75 43.14 20.75"/><polygon points="43.15 4.15 43.15 4.15 43.15 4.15 43.15 4.15"/><polygon points="43.13 11.03 43.12 11.04 43.12 11.03 43.13 11.03"/><path d="M44.68,27.16v0l-.06.06h0l0,0v.05h0l0,.12,0,0v0l-.07.11a3,3,0,0,1,0,.41h0v0h0l0,.1h0v.06h0l0,0-.08,0v0h0l0,0,0,.06v.1h0l0,0h0l0,.07-.06,0,.06,0h0v.08h0v0l0,.09,0,0v-.07l0,.07v0l0,0h0V29l0,0v0l.06,0v0l0,0v.07h0l0,0h0v.1l-.05,0,0,0,0,0,0,0h.09l0,.11h0l0,0h0v0l.05,0v0l.06.06v0l0,0h0l.06.05v0l-.07-.05.06.07h0l0,.08,0,0,.1.08v0h0l-.11-.09-.06,0v.08l0,0,0,0,.12.09v0l.14.13h.05v0l0,0,.14.07.2.1,0,.06h0l.12,0,0,0h0v0l.09,0h0l.16,0v0h0v0l-.08,0,0,0-.06,0h0l0,0h-.15l-.14-.05.1,0-.06,0h-.09l-.1,0-.21-.14v0l-.16-.09-.17-.17a1.73,1.73,0,0,1-.31-.35h0v0l-.07,0-.12-.2h0l-.09-.22v0l-.07-.12,0-.19a1.61,1.61,0,0,1,0-.58v0a2.21,2.21,0,0,1,.11-.6l0,0v-.12l.08-.15,0-.11.12-.2h0l0-.1c.08-.07.15-.21.24-.27v0l.11-.09.08,0,0,0,.06,0v0l-.16.14v0l-.2.23,0,0,0,0h0Z" transform="translate(-2.92 -9.76)"/><polygon points="43.05 11.46 43.05 11.47 43.05 11.46 43.05 11.46"/><polygon points="43.05 4.34 43.05 4.35 43.04 4.35 43.05 4.34"/><polygon points="43.05 11.46 43.05 11.47 43.04 11.47 43.03 11.47 43.05 11.46"/><polygon points="43.05 4.29 43.04 4.29 43.04 4.29 43.05 4.29"/><polygon points="43.05 4.33 43.03 4.34 43.02 4.32 43.01 4.31 43.03 4.3 43.04 4.33 43.05 4.33"/><polygon points="43.03 11.47 43.04 11.47 43.02 11.5 43.03 11.47"/><polygon points="43.01 17.53 43.03 17.55 43 17.54 43.01 17.53"/><polygon points="42.91 4.22 42.92 4.22 42.91 4.22 42.91 4.22"/><path d="M45.83,14Z" transform="translate(-2.92 -9.76)"/><polygon points="42.79 4.62 42.78 4.63 42.78 4.62 42.79 4.62"/><path d="M45.7,14.4v0Z" transform="translate(-2.92 -9.76)"/><path d="M45.7,17.82h0Z" transform="translate(-2.92 -9.76)"/><path d="M45.68,17.83h0Z" transform="translate(-2.92 -9.76)"/><polygon points="42.75 4.06 42.75 4.07 42.74 4.08 42.75 4.06"/><path d="M45.55,14.57h0Z" transform="translate(-2.92 -9.76)"/><rect x="42.59" y="4.9" width="0.01" height="0.01"/><path d="M45.5,24.5Z" transform="translate(-2.92 -9.76)"/><path d="M45.48,20.11h0Z" transform="translate(-2.92 -9.76)"/><path d="M45.41,20.06h0Z" transform="translate(-2.92 -9.76)"/><polygon points="42.23 16.53 42.4 16.68 42.35 16.72 42.3 16.77 42.23 16.77 42.21 16.81 42.16 16.77 42.13 16.73 42.05 16.69 42.14 16.6 42.16 16.61 42.18 16.58 42.23 16.53"/><polygon points="42.34 20.28 42.32 20.28 42.32 20.27 42.34 20.28"/><path d="M45.23,19.86h0Z" transform="translate(-2.92 -9.76)"/><polygon points="42.3 10.01 42.31 10.03 42.28 10.04 42.26 10.04 42.3 10.01"/><polygon points="42.3 20.25 42.29 20.25 42.28 20.19 42.27 20.21 42.3 20.25"/><polygon points="42.25 9.92 42.24 9.92 42.23 9.92 42.24 9.91 42.25 9.92"/><polygon points="42.19 9.88 42.23 9.92 42.22 9.94 42.18 9.91 42.19 9.88"/><path d="M44.83,26.25l0,0-.07-.07.06.08-.09-.06-.08-.09,0,0L44.51,26l-.08,0h0l-.06-.06h0l-.13-.08-.08-.1-.13-.1L44,25.55l0-.11-.09,0a2.4,2.4,0,0,1-.28-.27l0,0a3.32,3.32,0,0,1-.38-.36v0l0,0,0,.06-.12-.1.07,0a2.66,2.66,0,0,1,.28,0h0c.12.12.27.23.37.35h0a2.86,2.86,0,0,0,.32.3v0l0,0c.2.15.36.35.54.51l.47.41-.06,0v0h0l-.09.09v-.07l-.12-.09Z" transform="translate(-2.92 -9.76)"/><polygon points="42.23 9.94 42.23 9.95 42.22 9.95 42.23 9.94"/><polygon points="42.23 9.95 42.22 9.96 42.22 9.95 42.23 9.95"/><path d="M45.12,19.7h0Z" transform="translate(-2.92 -9.76)"/><polygon points="42.15 9.78 42.14 9.79 42.13 9.83 42.13 9.81 42.13 9.8 42.15 9.78"/><polygon points="42.14 9.78 42.13 9.78 42.13 9.78 42.14 9.78"/><path d="M45,29.68h0Z" transform="translate(-2.92 -9.76)"/><path d="M44.91,19.15h0Z" transform="translate(-2.92 -9.76)"/><path d="M44.9,29.68v0Z" transform="translate(-2.92 -9.76)"/><path d="M44.79,13.06v0Z" transform="translate(-2.92 -9.76)"/><path d="M44.63,12.94h0Z" transform="translate(-2.92 -9.76)"/><polygon points="41.65 16.3 41.62 16.29 41.6 16.25 41.65 16.3"/><polygon points="41.64 19.31 41.62 19.32 41.62 19.31 41.64 19.31"/><polygon points="41.6 3 41.6 3 41.58 3.02 41.52 3 41.53 2.96 41.59 3 41.59 2.99 41.6 3"/><path d="M44.5,12.78Z" transform="translate(-2.92 -9.76)"/><path d="M44.39,28.13v0Z" transform="translate(-2.92 -9.76)"/><polygon points="41.47 2.88 41.47 2.9 41.46 2.88 41.47 2.88"/><polygon points="41.46 2.86 41.46 2.87 41.45 2.86 41.46 2.86"/><path d="M44.37,28.35l0-.05Z" transform="translate(-2.92 -9.76)"/><path d="M44.15,12.23h0Z" transform="translate(-2.92 -9.76)"/><path d="M44.15,12.23Z" transform="translate(-2.92 -9.76)"/><path d="M43.29,24.61l.05,0a2.66,2.66,0,0,0-.28,0l-.07,0h0l-.12-.14h0v0l.29,0v0Z" transform="translate(-2.92 -9.76)"/><polygon points="40.23 8.25 40.24 8.26 40.23 8.26 40.23 8.25"/><rect x="40.22" y="14.72" width="0.01" height="0.01"/><path d="M43.13,24.48h0l-.29,0-.1-.09h0v0c0-.1,0-.2,0-.3l0,0,.14.1A2.94,2.94,0,0,0,43.13,24.48Z" transform="translate(-2.92 -9.76)"/><polygon points="40.05 14.91 40.07 14.93 40.05 14.93 40.05 14.91"/><polygon points="40.06 14.9 40.05 14.9 39.94 14.95 39.81 14.96 39.8 14.77 39.92 14.75 39.91 14.77 39.94 14.77 40.06 14.9"/><path d="M42.59,24.73l.14,0c0,.2,0,.4,0,.59,0,.71,0,1.39,0,2.11a1.43,1.43,0,0,0,0,.36h0l0,.15c0,.26,0,.5,0,.77h0v.05h0l0,0c0,.68,0,1.35,0,2a5.09,5.09,0,0,0,0,.55,12.35,12.35,0,0,0,0,1.49s-.07-.06-.08-.28,0-.62,0-.92l0-.07a4.49,4.49,0,0,1,0-1.1v0l0-.22h0l0-.16,0-.06,0,0c0-.11,0-.27,0-.42h0a7.26,7.26,0,0,1,0-.83h0l0-.17v-.21h0l0-.15,0,0V28h0v-.12h0v-.12h0c0-.36,0-.73,0-1.09l0-.08,0-.17,0,0,0-.14,0,0,0-.21,0,0,0-.21,0,0c0-.11,0,0,0-.12l0,0,0-.33h0c0-.09,0-.2,0-.31s0,0,0-.09l0-.11v-.29h0v.05Z" transform="translate(-2.92 -9.76)"/><polygon points="39.69 14.93 39.68 14.92 39.68 14.91 39.68 14.9 39.67 14.77 39.8 14.77 39.81 14.96 39.67 14.97 39.66 14.94 39.68 14.93 39.69 14.93 39.69 14.93"/><path d="M42.72,24.4v.12h-.13v0a.72.72,0,0,1-.05-.24h0l.06,0v0l.08.05Z" transform="translate(-2.92 -9.76)"/><path d="M42.72,24.4h0l-.08-.05v0l-.06,0v0l0-.14,0-.06,0,0V24h0l.17.16C42.71,24.2,42.71,24.3,42.72,24.4Z" transform="translate(-2.92 -9.76)"/><path d="M42.47,19l0-.07V18.9l0,.1,0-.1,0-.1v0l0-.08,0-.07,0,0v-.07h0l0-.13,0-.12v-.24L42.6,18h0v0l0,0c0,.23,0,.46,0,.66,0,.37,0,.74,0,1.09h0c0,.11,0,.27,0,.36l0,.09c0,.08,0,.23,0,.36s0,.25,0,.4v.11h0c0,.31,0,.64,0,1s-.07,0,0,.2h0l0,.16,0,0a.76.76,0,0,0,0,.29h0c0,.13,0,.28,0,.39q0,.48,0,.93l-.17-.16h0l0-.09h0v-.13h0l0-.08h0l0-.15,0,0a2.36,2.36,0,0,1,0-.28l0,0c0-.13,0-.27,0-.37h0v-.17a1.91,1.91,0,0,1,0-.43l0-.11h0v-.11h0V22h0v-.14l0-.05,0-.12,0,0,0-.1h0l0-.14,0-.24,0-.19v-.07l0-.14,0,0v-.25l0,0v-.2l0,0v-.13l0-.1c0-.15,0-.36,0-.45v-.05l0,0c0-.11,0-.11,0-.24v0l0-.07,0-.06,0-.12Z" transform="translate(-2.92 -9.76)"/><path d="M42.36,13.76v-.08l0,0v0l0-.11,0,0,0,0,0-.05,0-.15,0,.06v0h0v-.1l-.08-.06c0-.12.07-.09,0-.19h0l0-.11,0,0v.07l0-.07,0-.1,0,0c0-.1,0-.11,0-.15l0,.08V12.6h0c0-.1,0,0,0-.13l0-.05,0,.13v-.11a.19.19,0,0,0,0-.15h0c0-.11,0-.14,0-.21l0,0v.22l0,.11,0-.1v-.06l0,0a.58.58,0,0,0,0-.24h0a2,2,0,0,1,0-.35l0-.07h0v-.08l0-.25a2.28,2.28,0,0,0,0-.37l0-.07c0-.07,0,0,0-.05h0l0-.2,0,0v-.05h0V10.4c0-.1,0-.17,0-.28h0v-.06l0,0,0,.12,0,0v.07l0,.07h0v.1l0,0,0,.14c0,.05,0,.14,0,.23l-.05-.13v.12l0,.11h0l0,.15c0,.15,0,.3,0,.41h0l0,.3c0,.14,0,.31,0,.38,0,.25,0,.47,0,.73l0,0v.07l0,.1a1.14,1.14,0,0,0,0,.37h0a1.42,1.42,0,0,1,0,.36l0,.08a1,1,0,0,1,0,.21v.27c0,.28,0,.57.05.87l0,0c0,.28,0,.63,0,.88l0,0,0,.16v.24l0,.16a1.82,1.82,0,0,0,0,.33l0,0,0,.14c0,.16,0,.37,0,.52l0,.05c0,.09,0,.19,0,.28l-.2,0h0c0-.12,0-.24,0-.35v0a2.51,2.51,0,0,1,0-.48h0V17l0,.05a1.06,1.06,0,0,1,0-.31h0l0-.12h0l0,0,0-.08,0,0,0-.19,0,0,0-.05v0a.66.66,0,0,1,0-.21,2.77,2.77,0,0,1,0-.66h0v-.06h0l0-.15h0V15h0v-.05l.08.07v0s0,.12,0,0l0,0,0-.08h0v-.15l0,0,0,0,0,0h0l0-.12s.05.08.05,0l-.05-.06h0v-.14h0V14l0-.07v0l0-.05h0v-.09h0l0,0,0-.1Z" transform="translate(-2.92 -9.76)"/><polygon points="39.71 8.24 39.71 8.25 39.7 8.25 39.68 8.25 39.49 8.32 39.49 8.3 39.53 8.21 39.51 8.14 39.71 8.12 39.72 8.23 39.71 8.24"/><rect x="39.68" y="14.93" width="0.01" height="0.01"/><polygon points="39.68 14.92 39.69 14.93 39.68 14.93 39.68 14.92"/><polygon points="39.68 14.93 39.68 14.93 39.66 14.94 39.67 14.92 39.68 14.92 39.68 14.93"/><rect x="39.67" y="14.91" width="0.01" height="0.01"/><path d="M40.23,24.94H40l0,0-.08,0h0l0,0h-.12l0,0-.09,0h0l-.13,0h-.23l-.19,0h0l-.13,0,0,0h-.23l0,0h0l-.19,0,0,0h-.12l-.1,0a2,2,0,0,1-.43,0l-.06,0h0v0c-.1,0-.1.05-.23.05h0l-.07,0,0-.05-.11,0-.06,0-.05,0h-.07l.09,0-.09,0H37l-.06,0h-.06l-.07,0,0,0h-.06v0h0l-.13,0H36.4V25c.17,0,.36,0,.52,0,.34,0,.7-.06,1-.09h0c.11,0,.26,0,.34,0l.09,0c.08,0,.22,0,.34,0h0c.12,0,.23,0,.36,0l0,0h.15v0c.3,0,.61-.06.93-.09s0,.06.19,0h.16l0,0a.61.61,0,0,0,.27,0v0c.13-.05.28,0,.38-.09.49,0,1-.09,1.43-.13v.13h0l-.16,0a1,1,0,0,1-.24.07v0l-.14.06h0l0,0h-.14l-.14,0h0l-.08,0h-.12l-.26.05,0,0c-.12,0-.25,0-.35,0h-.19a3.71,3.71,0,0,1-.38,0l-.11,0v0h0Z" transform="translate(-2.92 -9.76)"/><polygon points="39.68 14.9 39.68 14.91 39.67 14.9 39.68 14.9"/><polygon points="39.68 14.91 39.67 14.91 39.67 14.9 39.68 14.91"/><rect x="39.65" y="14.91" width="0.02" height="0.01"/><polygon points="39.65 14.51 39.66 14.52 39.64 14.52 39.65 14.51"/><path d="M40.9,22.78l-.1-.1h0l0-.07-.11-.11-.08,0,0,0-.06,0h0l-.08-.05v0h0l-.07-.1.06,0-.06-.07h-.08l0,0h0l-.07-.1h0l0-.05-.05,0-.1-.14.07,0,0,0,0,0-.08-.06c0,.09-.12,0-.12,0s0-.12-.14-.17l0,0-.09-.06,0,0,0,.06,0-.08-.1-.06,0,0-.13-.1,0,.08-.06,0h0l-.12-.09,0-.06.13.08-.12-.09h0l-.07-.1h0l0-.11-.06,0v0L38.94,21h0l-.28-.27-.08,0v0l0-.07-.23-.17A2.61,2.61,0,0,0,38,20.1L38,20l0,0h0l0,0,0,0,.13.05v0l.13.09.34.32h0l.26.2c.11.12.27.22.32.3.21.18.4.33.61.54h0l0,.06.11,0a1.48,1.48,0,0,0,.31.26v0a1.43,1.43,0,0,1,.29.27l0,.07a1,1,0,0,1,.2.13l.22.22.21.17v0a.27.27,0,0,0,0,.19l.09-.17c.15.13.31.28.47.4v0c.26.18.53.47.75.64h0l.14.11V24l0,0,0,.06,0,.14v0l-.11-.1,0-.05,0,0h0L42.24,24a4.12,4.12,0,0,1-.58-.47h0l-.06-.05,0,0-.14-.11v0l-.1-.07,0,0-.05,0h.12l0,0c0-.05.11.07,0,0H41.4l-.17-.08.07,0L41.18,23h0v0l0,0h0l-.06,0L41,22.87l0-.05H40.9Z" transform="translate(-2.92 -9.76)"/><polygon points="39.65 15.33 39.63 15.35 39.63 15.33 39.65 15.33"/><path d="M42.52,23.66v0Z" transform="translate(-2.92 -9.76)"/><polygon points="39.56 12.41 39.56 12.44 39.55 12.42 39.55 12.41 39.56 12.41"/><polygon points="39.55 12.4 39.56 12.41 39.55 12.41 39.55 12.4"/><path d="M42.47,9.78v0Z" transform="translate(-2.92 -9.76)"/><path d="M42.46,9.76v0Z" transform="translate(-2.92 -9.76)"/><path d="M40.31,18.28h-.12v0l-.09,0h-.21l0,0-.09,0h0l-.13,0h-.23l-.18,0H39.2l-.13,0,0,0h-.23l0,0-.2,0,0,0h-.12l-.1,0c-.15,0-.35,0-.44,0l0,0h0v0c-.1,0-.1,0-.22,0h0l-.07,0-.05,0-.11,0,0,0,0,0h0l-.06,0H37l-.06,0,0,0h-.08v0h0l-.13,0h-.24l-.11,0-.08,0-.07,0v-.22h.1l0,0,0,0c.21,0,.43,0,.62,0l1-.09h0c.12,0,.26,0,.35,0h.08c.09,0,.23,0,.35,0h0c.12,0,.23,0,.36,0l0,0h.16c.29,0,.61-.06.92-.09s0,.06.19,0h.16l0,0a.84.84,0,0,0,.28,0h0c.12,0,.27,0,.38-.08l1.07-.09h0l0,.07,0,.09h0v0l-.13.05h-.06l0,0H42v0l-.13,0h0l-.09,0h0l-.14,0,0,0-.25.05h0c-.13,0-.26.05-.36,0H41l-.09,0h0a2.17,2.17,0,0,1-.38,0l-.12,0v0h0l.06,0h-.12Z" transform="translate(-2.92 -9.76)"/><path d="M42.43,10l0,0Z" transform="translate(-2.92 -9.76)"/><polygon points="39.52 9.88 39.53 9.93 39.52 9.9 39.52 9.88"/><polygon points="39.53 10.64 39.53 10.68 39.52 10.64 39.53 10.64"/><polygon points="39.52 8.95 39.52 9 39.5 8.98 39.52 8.95"/><polygon points="39.5 8.14 39.49 8.15 39.49 8.14 39.5 8.14"/><path d="M42.37,14.77l0,.07Z" transform="translate(-2.92 -9.76)"/><path d="M42.36,15.08v0Z" transform="translate(-2.92 -9.76)"/><polygon points="39.44 1.75 39.43 1.77 39.43 1.72 39.44 1.75"/><polygon points="39.42 1.8 39.44 1.83 39.4 1.91 39.41 1.89 39.42 1.8"/><polygon points="39.42 3.76 39.42 3.79 39.41 3.77 39.42 3.76"/><path d="M42.32,13.13v0Z" transform="translate(-2.92 -9.76)"/><polygon points="39.4 2.53 39.39 2.55 39.38 2.51 39.4 2.53"/><path d="M41.81,18.13h0Z" transform="translate(-2.92 -9.76)"/><path d="M39.68,28.89h0Zm1.12.76h0l.14.13h0c.13.1.22.25.34.35l.1.1a.79.79,0,0,0,.24.27l-.1,0-.19-.13v0l-.18-.2h0l-.06,0h0v0h0L41,30.05h0l-.17-.11,0,0h-.06l0,0h0v0l0,0h0l0,0h0l0,0,0,0-.21-.17v0l0,0v0h0l0,0-.05,0h0l0,0h0l-.08,0h0l-.06,0v0h0l0,0,0,0h0l0,0h-.08l0,0-.06,0v0h0l0,0h0l0,0h0l-.08,0h0L39.8,29h0v0h0l-.07-.06h0v0h0l0,0v0h-.05v0h0l0,0,0-.05,0,0h0l0-.05h0l0-.07h0v0l0,0,.18.15v.06h0v0h0l0,.06h0l.11,0c.13.12.27.21.4.33s.25.23.36.36Z" transform="translate(-2.92 -9.76)"/><path d="M41.63,24.8h0Z" transform="translate(-2.92 -9.76)"/><path d="M41.5,23.33h0Z" transform="translate(-2.92 -9.76)"/><path d="M40.92,20.34l-.05-.06v0l-.06-.06-.05-.05h0l0,0v0a3.61,3.61,0,0,0-.51-.36l0,0-.09,0,0,0-.08,0,0,0-.13,0h0l-.11,0v0h-.07v0h-.19l-.15,0h0l0,0h0l-.07,0H39.1l0,0h0l0,0-.1,0-.14.07v0l-.08.06h0l0,0h-.09l-.07,0h0l0,.05-.07,0v0l-.14.1,0,0-.2.11h0l0,0-.05,0,0,.05h0l-.14-.11h0l.15-.09h0l.2-.17a2.28,2.28,0,0,1,1.29-.26,2.14,2.14,0,0,1,1.16.5.51.51,0,0,0,.15.17h0l.08.05a2.92,2.92,0,0,1,.29.38h0l0,0h0a2.36,2.36,0,0,1,.3,1.25c0,.1,0,.25,0,.36a3.29,3.29,0,0,1-.29.72l-.06-.05a2.59,2.59,0,0,0,.16-.52l0,0c0-.18,0-.45.07-.68h0l0-.13h0l0-.1,0,0,0,0L41.27,21h0a2.58,2.58,0,0,0-.22-.44l0,0L41,20.43Z" transform="translate(-2.92 -9.76)"/><path d="M41.22,15v0Zm-.44-1.73,0,0h0l0,0v.05l0,0,0,0h0l0,0h0l0,0h0l-.07,0,0,0-.06,0h0l-.06,0,0-.06-.05,0-.17-.1h0l-.25-.1v0h0v0l-.15,0,0,0-.06,0v0l0,0v0h-.11l0,0h0l-.09,0a1.54,1.54,0,0,1-.37.09h0l0,0v0l-.08,0h0l-.07,0v0l0,0,0-.09,0,0v0l0,.06,0,.05h0l-.08,0v0l0,0v0l-.06,0,0-.06,0,.06h0l-.07,0v0h0l-.07,0,0,0h0l0,0h0l0,0h0v0H38v.06h0v0l-.06,0v.05h0l0,0-.08,0v0h0l0,0,0,0,0,.09c0,.06-.09,0-.1.06h0l0,.06,0,0,0,0h0l0,.06h0l0,.07h0l0,0v0l0,.07,0,0,0-.09,0,.08v0l-.07.05v0h-.07l0,0h0l-.06.13h0l-.08.16V14h0l0,0,0,.16-.06.21,0,0v0h0v.11l0,0v0h0v.1l0,0,0,.17h0v.08l0-.09h0v0l0-.05v-.06h0v-.09l0-.14,0,.08,0-.07,0-.08h0v-.1l.1-.24h0l.06-.18.12-.2a1.44,1.44,0,0,1,.28-.37v0l0,0,0-.07.16-.17h0l.17-.14h0l.1-.1.15-.07a2,2,0,0,1,.5-.21h0a1.67,1.67,0,0,1,.52-.09v0l.09,0h.25l.19,0v0l.09,0,.3.12h0l.21.11v0h0a1.34,1.34,0,0,1,.31.26,1.75,1.75,0,0,1,.42.52h0l.12.2v.06l.08.22h0c0,.08.05.15.05.24l0,0v.1h0a2.57,2.57,0,0,1,0,.62c0,.14-.05,0-.05.12h0l0,.1,0,0-.07.17h0l-.05.25a2.6,2.6,0,0,1-.9,1.06,2.49,2.49,0,0,1-1.25.4.42.42,0,0,0-.22,0h-.09A3.69,3.69,0,0,1,38.3,17v0h-.05l0,0a1.9,1.9,0,0,1-1-.72l-.2-.28a3.65,3.65,0,0,1-.23-.92.22.22,0,0,1,.1.16c.08.15.08.38.19.52v0c.11.14.23.38.35.55h0l.11.08h0l.08,0v.05h0l.22.12h0c.14.05.3.13.45.17v0h.11l.11,0h.09l0,0h.23v0c.21,0,.42,0,.63-.08h.05l.09,0h0l.08,0v0l.11-.07v0l.12-.06v0l0-.05v0l.17-.12h0l.15-.11h.06l0-.08.14-.1v0h0v0l.08-.08.06-.13h0l0-.09,0,0v0l.09-.07v0l0-.08h0v-.06l0-.08v0l0-.15v0l.09-.2h0l0,0v-.06l.06-.23V15h0v0h0v-.09h0l0-.05V14.7l0-.06h0l0-.05h0l0-.08,0-.15,0-.1v-.13h0l0-.14h0l-.05-.11,0,0v-.07l0,0c0-.09-.1-.18-.09-.25l0,0v0h0v0l-.1-.09v0l0,0v0l-.06,0Z" transform="translate(-2.92 -9.76)"/><path d="M41.4,18.2h0Z" transform="translate(-2.92 -9.76)"/><polygon points="38.31 5.16 38.31 5.17 38.3 5.17 38.31 5.16"/><polygon points="38.31 5.17 38.3 5.2 38.3 5.18 38.3 5.17 38.31 5.17"/><path d="M41.2,22.76l-.09.17a.27.27,0,0,1,0-.19v0Z" transform="translate(-2.92 -9.76)"/><polygon points="38.23 5.5 38.23 5.52 38.23 5.5 38.23 5.5"/><polygon points="38.23 4.15 38.23 4.17 38.22 4.15 38.23 4.15"/><path d="M41,15.53v0Z" transform="translate(-2.92 -9.76)"/><polygon points="38.04 13.22 38.08 13.23 38.04 13.23 38.04 13.22"/><path d="M41,26.64h0Z" transform="translate(-2.92 -9.76)"/><path d="M41,26.64Z" transform="translate(-2.92 -9.76)"/><path d="M41,26.67h0Z" transform="translate(-2.92 -9.76)"/><path d="M37.84,20l0,0Zm3,3.08,0,0v0h0l0,.06h0l-.05.07-.1.11,0-.09-.06,0,0,.09h0l-.05.08-.22.13h0l-.15.1-.22.08a1.53,1.53,0,0,1-.43.13l0,0h0l-.05.05-.22,0H39l0,0-.13,0-.15-.06a1.52,1.52,0,0,1-.5-.15v0a2,2,0,0,1-.44-.28l0,0-.09,0-.09-.11-.08-.06-.11-.16v0L37.31,23c0-.09-.13-.18-.14-.29h0l-.09-.24h0l0,0A2.07,2.07,0,0,1,37,22a2,2,0,0,1,0-.69h0l0-.24L37,21l.07-.23h0l.12-.21v0l.05-.08v0a2.86,2.86,0,0,1,.37-.51c.12-.09,0,0,.11-.06h0l0,0h0l.13.11-.07,0,0,.07v0h-.06l-.05.05h0l0,.05v0l0,0,0,0v.05h0l0,.08-.1.11,0,.1v0l0,.05-.06.06,0,.05-.07.12,0,0,0,.12h0l0,.07v.06l-.08.26v0h0l0,0,0,.14v.08l0,0,0,.07,0,0v.08l0-.05,0,.05,0,.07v0h0V22h0V22h0l0,.07v.07l0,.08,0,0,0,.07.05,0,.07.19,0,0,.12.23,0,0,0,0v0l.1.13h0l0,.06h0v0l0,0v0l.09.06v0h0l.06.09a1.45,1.45,0,0,1,.32.18h0l0,0,.09,0v0l.06,0v0h0l-.08.05h0l0,0,0,0h.06l.08,0,0,0,0,0,0,0h.07l0,.06.06,0h0l.07,0,0,0,0,0,.07,0,0,0h0l0,0H39v0l.05,0h0l0,0,0-.05h0l.05,0,0,0h0l0,0,.07.05,0,0h0v0l0,0,0-.08.1,0v0l.06,0v.06h0l0,0,0,0,0,0,.07,0,0,0h0l.07,0,0,0-.07,0,.09,0,0,0h.08v0l.11-.05h0l-.12.06-.06,0,.06,0,0,0,0,0,.12-.08v0l.19-.08,0,0v0h0l.12-.1.18-.13h.05v0h0l.08-.09v0l0,0v0l.07-.08h0l.11-.14v0l0,0,0,0,0,.11v0Z" transform="translate(-2.92 -9.76)"/><path d="M40.92,15.77h0Z" transform="translate(-2.92 -9.76)"/><polygon points="37.88 16.99 37.9 17 37.92 16.96 37.9 16.96 37.95 16.91 37.96 16.92 37.96 16.9 37.98 16.91 37.99 16.95 37.96 16.93 37.95 16.93 37.95 16.95 37.95 16.93 37.97 16.97 37.97 16.97 37.97 17 37.95 16.98 37.94 17.02 37.92 17.07 37.9 17.02 37.88 17.03 37.9 17.09 37.88 17.08 37.88 17.12 37.81 17.19 37.8 17.19 37.78 17.26 37.71 17.32 37.62 17.46 37.61 17.45 37.59 17.45 37.6 17.49 37.57 17.57 37.55 17.56 37.5 17.62 37.48 17.63 37.47 17.69 37.42 17.73 37.32 17.91 37.31 17.9 37.19 18.08 37.17 18.06 37.17 18.11 37.13 18.14 37.12 18.18 37.06 18.24 37.05 18.23 37.05 18.28 36.97 18.37 36.98 18.39 36.92 18.46 36.9 18.45 36.91 18.47 36.8 18.58 36.66 18.79 36.65 18.79 36.65 18.78 36.66 18.77 36.59 18.7 36.53 18.65 36.54 18.63 36.54 18.63 36.55 18.57 36.57 18.57 36.56 18.55 36.61 18.56 36.62 18.53 36.64 18.54 36.63 18.52 36.65 18.51 36.62 18.51 36.62 18.49 36.65 18.47 36.65 18.46 36.66 18.46 36.67 18.46 36.67 18.45 36.69 18.44 36.68 18.43 36.68 18.39 36.72 18.38 36.73 18.36 36.73 18.35 36.74 18.32 36.78 18.34 36.77 18.29 36.82 18.23 36.82 18.22 36.89 18.14 36.91 18.16 36.92 18.14 36.89 18.13 36.94 18.07 36.93 18.07 36.96 18.05 36.95 18.04 36.96 18.04 36.96 18.02 36.98 18.02 36.99 17.98 37.01 17.98 37 17.96 37.06 17.95 37.12 17.8 37.13 17.8 37.13 17.79 37.16 17.81 37.16 17.77 37.16 17.76 37.16 17.73 37.19 17.76 37.19 17.74 37.23 17.8 37.24 17.79 37.26 17.81 37.23 17.77 37.22 17.74 37.24 17.71 37.22 17.68 37.24 17.69 37.22 17.66 37.23 17.64 37.27 17.66 37.26 17.63 37.27 17.64 37.27 17.6 37.27 17.6 37.3 17.6 37.33 17.58 37.32 17.55 37.3 17.56 37.31 17.53 37.31 17.54 37.31 17.51 37.33 17.52 37.32 17.5 37.35 17.51 37.36 17.52 37.37 17.52 37.34 17.47 37.36 17.46 37.36 17.48 37.4 17.48 37.38 17.45 37.39 17.45 37.4 17.45 37.39 17.45 37.38 17.43 37.44 17.43 37.45 17.45 37.46 17.45 37.48 17.47 37.49 17.45 37.44 17.38 37.49 17.36 37.47 17.36 37.47 17.32 37.51 17.36 37.5 17.36 37.53 17.38 37.53 17.34 37.51 17.34 37.52 17.31 37.49 17.3 37.49 17.28 37.5 17.29 37.5 17.26 37.53 17.26 37.53 17.3 37.55 17.27 37.55 17.28 37.58 17.28 37.59 17.29 37.64 17.31 37.64 17.29 37.61 17.27 37.63 17.21 37.65 17.22 37.7 17.17 37.69 17.14 37.66 17.13 37.68 17.12 37.72 17.15 37.74 17.15 37.76 17.09 37.81 17.02 37.85 17.03 37.85 17.02 37.85 17.02 37.87 16.97 37.88 16.99"/><polygon points="37.73 3.38 37.71 3.38 37.71 3.36 37.73 3.38"/><polygon points="37.71 17.12 37.69 17.12 37.7 17.12 37.71 17.12"/><polygon points="37.66 17.13 37.66 17.14 37.66 17.13 37.66 17.13"/><polygon points="37.6 17.2 37.61 17.2 37.59 17.26 37.58 17.28 37.58 17.27 37.57 17.26 37.57 17.25 37.58 17.2 37.6 17.2"/><polygon points="37.45 8.51 37.51 8.51 37.45 8.52 37.45 8.51"/><polygon points="37.45 8.51 37.45 8.52 37.42 8.52 37.45 8.51"/><polygon points="37.42 6.65 37.43 6.67 37.41 6.65 37.42 6.65"/><polygon points="37.31 15.18 37.27 15.19 37.27 15.19 37.31 15.18"/><polygon points="37.31 13.76 37.3 13.78 37.29 13.78 37.31 13.76"/><polygon points="37.29 12.41 37.26 12.4 37.26 12.39 37.29 12.41"/><polygon points="37.27 15.19 37.27 15.19 37.24 15.19 37.27 15.19"/><polygon points="37.26 13.77 37.26 13.79 37.22 13.78 37.26 13.77"/><path d="M40.13,27.47h0Z" transform="translate(-2.92 -9.76)"/><path d="M40.12,23.53h0Z" transform="translate(-2.92 -9.76)"/><polygon points="37.16 17.76 37.16 17.77 37.15 17.76 37.16 17.76"/><path d="M39.8,23.63v0Z" transform="translate(-2.92 -9.76)"/><path d="M39.75,23.68h0Z" transform="translate(-2.92 -9.76)"/><path d="M39.67,28.88h0Z" transform="translate(-2.92 -9.76)"/><polygon points="36.73 19.1 36.73 19.11 36.72 19.1 36.73 19.1"/><path d="M39.58,28.19v0Z" transform="translate(-2.92 -9.76)"/><polygon points="36.65 18.45 36.66 18.46 36.66 18.46 36.65 18.46 36.65 18.45"/><polygon points="36.58 18.88 36.53 18.93 36.51 18.91 36.51 18.87 36.48 18.89 36.44 18.84 36.46 18.83 36.42 18.8 36.44 18.77 36.41 18.75 36.44 18.73 36.44 18.71 36.53 18.65 36.53 18.65 36.59 18.7 36.66 18.77 36.65 18.78 36.65 18.79 36.65 18.79 36.61 18.86 36.58 18.88"/><rect x="39.57" y="28.54" width="0.01" height="0.01" transform="translate(-11.51 26.58) rotate(-45)"/><polygon points="36.53 18.63 36.54 18.63 36.53 18.63 36.53 18.63"/><polygon points="36.53 18.62 36.53 18.63 36.53 18.63 36.53 18.62"/><path d="M39.36,28.47v0l0,0h0v0h0v0h0l-.06-.1h-.08v0h0l0,0h0v0h0v0h0v0h0v0H39v0H38.9l0-.06,0,0-.06-.06h0l-.07-.1,0,0h0l0,0L38.66,28l0,0h0v0l0,0v0h0v-.05l-.15-.08h0l0,0h0l0,0,0,0h0l.06-.05h0l0,0,0,0h0l0,0,0,0v0l0,0,0,0,0,0,0,0h0l0,0h0v0l0,0h0v0h0v0h0v0l0,0v0l0,0v0l0,0V27.4h0l0,0h0L38,27.4v-.06l0,0h0l0,0v0h0v0l0,0v0h0v0h0l0,0h0l0,0h0v0h0l0-.06h0l0,0-.06,0,0,0-.06-.06h0v-.05l-.07,0L37.65,27l0,0h0l0,0h0l0,0,0,0v0l-.05-.05h.09v0h0l.05,0h-.05v0h.1l.06.07v0l.07,0,.06.07.15.11h0v0h0l.08.05h0l.06.06v0h.07l0,.06.17.12h0l.18.13,0,0h.05l0,.05h0l.06.06h0v0h.05L39,28h0l.07.06v0h0l.11.12.2.17h0l.07.05h0Zm0,.05h0Z" transform="translate(-2.92 -9.76)"/><rect x="36.53" y="18.93" width="0.01" height="0.01"/><polygon points="36.53 18.93 36.53 18.93 36.53 18.93 36.53 18.93"/><path d="M39.24,28.64v0h0l0,0,0,0h0v0h0l0,0h0l0,0,0,0v.05h0l0,.06h0l0,0h0l-.14.19,0,0h0l0,0,0,0,0,0h0l0,.11c-.1.13-.18.28-.28.41s-.2.26-.32.38l-.06.05v0l-.12.14h0v0h0v0c-.08.14-.22.23-.31.36l-.07.1a.85.85,0,0,0-.25.25v-.1l.11-.19h0l.17-.19h0v0h0v0h0v0l.05-.1h0l.09-.17,0,0v-.05l0-.05v0h0l0,0,0,0,0,0,0,0,.14-.21h0v0h0v0l0,0v-.06h0l0,0h0v0h0l0-.08h0l0,0h0l0,0,.06-.05v0h0l0,0v-.08l0,0,0-.06h0v0l0,0h0l0,0h0v0h0v0l0-.08v0L39,29h0v0l.06-.08v0h0v0h0l0,0v0h0v0h0l0,0V28.7l0,0Z" transform="translate(-2.92 -9.76)"/><polygon points="36.53 18.63 36.52 18.63 36.52 18.63 36.53 18.63"/><polygon points="36.42 9.69 36.43 9.71 36.42 9.71 36.42 9.69"/><path d="M39.33,23.72h0Z" transform="translate(-2.92 -9.76)"/><polygon points="36.41 18.8 36.41 18.81 36.41 18.82 36.39 18.8 36.39 18.79 36.4 18.79 36.41 18.8"/><polygon points="36.41 2.89 36.41 2.9 36.41 2.89 36.41 2.89"/><path d="M39.2,21.23l0,.05Z" transform="translate(-2.92 -9.76)"/><polygon points="36.28 18.7 36.28 18.7 36.28 18.69 36.28 18.7"/><path d="M39.16,21.18l0,0,0,0c-.1-.09-.14-.1-.19-.15L39,21Z" transform="translate(-2.92 -9.76)"/><path d="M39.16,23.74h0Z" transform="translate(-2.92 -9.76)"/><path d="M39.16,21.23h0Z" transform="translate(-2.92 -9.76)"/><polygon points="36.21 13.97 36.21 13.99 36.2 13.99 36.21 13.97"/><polygon points="36.17 19.08 36.17 19.09 36.16 19.09 36.17 19.08"/><polygon points="36.17 19.09 36.16 19.1 36.16 19.09 36.17 19.09"/><polygon points="36.16 19.09 36.16 19.1 36.16 19.1 36.16 19.09"/><polygon points="36.16 19.1 36.16 19.1 36.15 19.12 36.16 19.1"/><polygon points="36.13 18.55 36.11 18.56 36.11 18.54 36.13 18.55"/><polygon points="35.97 19.38 35.97 19.4 35.97 19.4 35.97 19.38"/><path d="M38.75,20.82l.12.08Z" transform="translate(-2.92 -9.76)"/><path d="M38.85,23.71h0Z" transform="translate(-2.92 -9.76)"/><polygon points="35.8 8.65 35.76 8.66 35.76 8.65 35.8 8.65"/><polygon points="35.69 10.91 35.72 11 35.73 10.97 35.67 10.91 35.69 10.89 35.69 10.91"/><polygon points="35.69 2.98 35.68 2.98 35.68 2.98 35.69 2.98"/><path d="M38.58,12.75h0Z" transform="translate(-2.92 -9.76)"/><path d="M38.55,20.64l0,0Z" transform="translate(-2.92 -9.76)"/><polygon points="35.62 10.84 35.64 10.86 35.6 10.84 35.62 10.84"/><path d="M38.54,19.6h0Z" transform="translate(-2.92 -9.76)"/><polygon points="35.62 15.33 35.59 15.33 35.59 15.32 35.62 15.33"/><path d="M38.46,23.62h0Z" transform="translate(-2.92 -9.76)"/><polygon points="35.5 13.87 35.5 13.87 35.5 13.87 35.5 13.87"/><path d="M38.33,27.66h0Z" transform="translate(-2.92 -9.76)"/><path d="M38.21,13h0Z" transform="translate(-2.92 -9.76)"/><path d="M38.16,27.55h0Z" transform="translate(-2.92 -9.76)"/><polygon points="35.17 17.73 35.16 17.74 35.16 17.73 35.17 17.73"/><polygon points="35.16 17.71 35.15 17.72 35.16 17.71 35.16 17.71"/><path d="M38,27.42h0Z" transform="translate(-2.92 -9.76)"/><path d="M38,27.41h0Z" transform="translate(-2.92 -9.76)"/><polygon points="35.03 8.7 35.08 8.7 35.06 8.71 35.03 8.7"/><polygon points="35.08 10.16 35.05 10.2 35.04 10.2 34.95 10.1 35.08 10.16"/><polygon points="35.05 3.35 35.05 3.37 35.03 3.36 35.05 3.35"/><polygon points="34.95 10.1 35.04 10.2 35.05 10.2 35.02 10.22 34.89 10.11 34.9 10.11 34.91 10.11 34.91 10.11 34.94 10.08 34.94 10.05 34.95 10.05 35.08 10.16 34.95 10.1"/><polygon points="34.96 17.47 34.97 17.48 34.96 17.48 34.95 17.5 34.95 17.5 34.89 17.48 34.91 17.45 34.96 17.48 34.96 17.47"/><path d="M37.87,27.25v0Z" transform="translate(-2.92 -9.76)"/><path d="M37.68,19.65l.13.1,0,.05h0v0l0,0h0l0,0h0l-.16-.13,0,0c-.1-.08-.14-.14-.23-.22h0l-.06,0v0l.12.06h0l.11.1-.06-.05.07,0h0l.09.07Z" transform="translate(-2.92 -9.76)"/><polygon points="34.87 15.38 34.91 15.37 34.89 15.38 34.87 15.38"/><polygon points="34.9 10.11 34.89 10.11 34.88 10.11 34.88 10.11 34.9 10.11"/><polygon points="34.89 10.32 34.89 10.33 34.89 10.33 34.89 10.32"/><polygon points="34.89 10.33 34.88 10.33 34.89 10.33 34.89 10.33"/><polygon points="34.84 17.36 34.83 17.38 34.83 17.36 34.84 17.36"/><polygon points="34.83 17.34 34.83 17.35 34.81 17.34 34.83 17.34"/><polygon points="34.62 17.03 34.66 17.02 34.63 17.05 34.63 17.05 34.62 17.05 34.62 17.03"/><path d="M37.51,26.71h0Z" transform="translate(-2.92 -9.76)"/><path d="M37.46,13.63h0Z" transform="translate(-2.92 -9.76)"/><path d="M37.47,13.59h0Z" transform="translate(-2.92 -9.76)"/><polygon points="34.51 3.83 34.53 3.85 34.48 3.97 34.44 3.98 34.51 3.85 34.51 3.83"/><path d="M37.32,19.3v0Z" transform="translate(-2.92 -9.76)"/><path d="M37.27,13.93h0Z" transform="translate(-2.92 -9.76)"/><polygon points="34.34 11.19 34.34 11.22 34.33 11.21 34.34 11.19"/><polygon points="34.3 4.2 34.34 4.18 34.31 4.22 34.3 4.2"/><path d="M37.23,14v0Z" transform="translate(-2.92 -9.76)"/><polygon points="34.29 9.46 34.28 9.45 34.26 9.43 34.29 9.46"/><polygon points="34.28 4.24 34.28 4.25 34.27 4.24 34.28 4.24"/><path d="M37.16,22l0,0Z" transform="translate(-2.92 -9.76)"/><polygon points="34.25 12.18 34.24 12.2 34.24 12.18 34.25 12.18"/><polygon points="34.23 12.17 34.24 12.18 34.23 12.18 34.23 12.17"/><polygon points="34.2 8.77 34.18 8.78 34.15 8.77 34.2 8.77"/><path d="M36.92,14.9h0Z" transform="translate(-2.92 -9.76)"/><path d="M36.89,15h0Z" transform="translate(-2.92 -9.76)"/><path d="M36.44,29c0,.68,0,1.36,0,2a5.09,5.09,0,0,0,0,.55,12.51,12.51,0,0,0,0,1.5.44.44,0,0,1-.08-.28c-.06-.27,0-.63-.05-.93l0-.07a5,5,0,0,1,0-1.1v0l0-.22h0l0-.15,0-.07,0,0c0-.1,0-.27,0-.42h0c0-.24,0-.55-.05-.83h0l0-.17v-.22h0l0-.15,0,0v-.15h0v-.12h0V28h0a9.93,9.93,0,0,1,0-1.09l0-.07,0-.17,0-.05,0-.14,0,0,0-.22,0,0,0-.21,0,0c0-.11,0,0,0-.13l0,0,0-.33h0c0-.09,0-.19,0-.3s0,0,0-.1l0-.07.05,0,.11,0h0c0,.09,0,.18,0,.28,0,.7,0,1.39,0,2.1a1.12,1.12,0,0,0,0,.37h0l0,.14c0,.27,0,.51,0,.78h0V29h0Z" transform="translate(-2.92 -9.76)"/><polygon points="33.48 15.48 33.48 15.49 33.47 15.49 33.36 15.51 33.31 15.47 33.31 15.47 33.29 15.43 33.29 15.28 33.31 15.28 33.33 15.29 33.37 15.27 33.48 15.26 33.48 15.48"/><path d="M36.15,22.5h0Zm.09,2-.05-.13v-.1l0-.17V24h0l0-.07v-.15l0,0a2.54,2.54,0,0,1,0-.29l0,0c0-.12,0-.26,0-.36h0V23h0a1.87,1.87,0,0,1,0-.41l0-.12h0v-.11h0v-.11h0v-.14l0-.05,0-.13,0,0,0-.1h0l0-.13,0-.25,0-.19v-.07l0-.14,0,0v-.25l0,0v-.2l0,0v-.12l0-.1a2.86,2.86,0,0,1,0-.46v-.05l0,0c0-.1,0-.1,0-.24v0l0-.07,0-.06,0-.12,0,0,0-.07v-.07l0,.09,0-.09,0-.11,0-.06v0h0V19l0-.08,0-.06,0,0v-.08h0l0-.13v0h.21c0,.11,0,.22,0,.33,0,.36,0,.74,0,1.08h0c0,.12,0,.28,0,.36l0,.09c0,.08,0,.23,0,.36h0c0,.13,0,.26,0,.39v.12h0c0,.31,0,.64,0,1s-.06,0,0,.2h0l0,.16,0,0a.7.7,0,0,0,0,.28h0c0,.12,0,.28.06.39,0,.55,0,1.08,0,1.62h-.11l0,0,0,0h0V24.9h0v0l0,0v-.16a.62.62,0,0,1,0-.24Z" transform="translate(-2.92 -9.76)"/><polygon points="33.4 11.07 33.41 11.09 33.4 11.09 33.4 11.07"/><polygon points="33.4 8.62 33.39 8.83 33.39 8.84 33.38 8.84 33.38 8.85 33.17 8.86 33.18 8.77 33.17 8.64 33.17 8.64 33.17 8.63 33.4 8.62"/><path d="M36.12,10.59l0,.14V11l0-.13V11l0,.11h0l0,.15c0,.15,0,.3,0,.42h0l0,.29c0,.14,0,.31,0,.38,0,.25,0,.47,0,.73l0,0v.08l0,.09a1.46,1.46,0,0,0,0,.37h0a1.34,1.34,0,0,1,0,.35l0,.08a1.05,1.05,0,0,1,0,.21v.27c0,.29,0,.58,0,.87l0,0c0,.29,0,.64,0,.88l0,0,0,.15v.24l0,.17c0,.14,0,.2,0,.32l0,0,0,.14c0,.16,0,.37,0,.53l0,0c0,.14,0,.28,0,.39h0v0l0,0v.09h-.22v-.1l0-.09,0-.07a2,2,0,0,1,0-.35l0,0a2.62,2.62,0,0,1,0-.49h0v-.06l0,0a.7.7,0,0,1,0-.29h0v0l0-.12h0l0,0,0-.07,0,0,0-.2,0-.05,0,0a.79.79,0,0,1,0-.21,2.73,2.73,0,0,1,0-.66h0v-.06h0l0-.14h0l0-.1h0l0-.05.09.07v-.05s0,.12,0,0l0,0,0-.08h0V14.9l0,0,0-.05,0,0v-.13h0l0-.08h0v-.14h0l0-.07v-.14l0-.06v0h0l0-.08,0,0h0L36,14v0L36,13.85v0l0-.11,0-.06v0l0-.05,0-.16,0,.06v0h0v-.08L36,13.3c0-.12.07-.08,0-.19h0L36,13c0,.06,0-.07.05,0v.06l0-.07,0-.1,0,0v-.14l0,.07v-.05c0-.11,0,0,0-.14l0,0,0,.13v-.1s.05,0,0-.15h0c0-.12,0-.14,0-.22l0,0,0,.23,0,.1.05-.1v-.06l0,0a.61.61,0,0,0,0-.25l0,0a2,2,0,0,1,0-.35l0-.08h0v-.08l0-.25a2.16,2.16,0,0,0,0-.36l0-.08c0-.06,0,.05,0,0l0-.2,0,0,0,0h0v-.14a2.72,2.72,0,0,1,0-.28h0v-.07l0,0,0,.13,0,0h0v.08h0l0,.07v0l0,.13Z" transform="translate(-2.92 -9.76)"/><polygon points="33.38 8.84 33.39 8.85 33.38 8.85 33.38 8.84"/><path d="M36.31,18.59h0Z" transform="translate(-2.92 -9.76)"/><polygon points="33.32 15.55 33.3 15.57 33.3 15.55 33.32 15.55"/><path d="M35.32,25.32l0,0,0,0,0,0a1,1,0,0,1-.29,0v0h-.16l-.08,0v0l-.19,0,0,0,0,0-.2,0a2.59,2.59,0,0,1-.63.09h0v0l-.15,0h0l-.08,0v0h0l.07-.09h0s.12,0,0,0l0,.05-.08,0h-.15l0,0,0,0,0,0-.12,0v-.06l-.06.06v0h-.13l0,0-.06,0h-.13l-.07,0h.08l-.1,0h0l-.08,0v0l0,0-.1,0,0,0h-.07l0,.05h0l-.09,0-.06,0h0l-.05,0-.14,0,.06,0h0v0h-.09l-.07.1c-.11,0-.07-.08-.18,0l0,0-.12,0,0-.06h.06l-.06,0-.1,0,0,0-.13,0,.06,0h0c-.1,0,0,0-.13,0l0,0,.13,0-.15,0h-.09v0l-.21,0h-.05v0l.22,0,.1,0-.09,0h-.06l0,0a.7.7,0,0,0-.24,0v0l-.32,0h0l-.09,0,0,0H30l-.25,0a1.88,1.88,0,0,0-.34,0l-.07,0,0,0h0l-.18,0,0,0h0v0l-.18,0,0,0c-.1,0-.17,0-.26,0v0l-.06,0,0,0,.1,0v0l.12,0h-.06l.06-.05H29l.13,0,.23,0-.13.05h.11l.12-.06v0l.15,0,.39,0h0l.28-.05c.13,0,.29,0,.36,0,.24,0,.45-.06.7-.07l0,0h.07l.09,0a1.73,1.73,0,0,0,.35-.05v0a1.16,1.16,0,0,1,.34,0l.07,0,.2-.06h.26c.27-.05.54-.05.83-.09l0,0c.27-.06.6-.05.84-.09l0,0,.15,0h.22l.16,0,.31,0,0,0,.14,0a4.19,4.19,0,0,1,.5,0l0,0c.12,0,.25,0,.35,0v.19h0l-.07.05c-.11,0-.23,0-.33,0l0,0a2.46,2.46,0,0,1-.46,0Z" transform="translate(-2.92 -9.76)"/><path d="M36.19,23.88v0Z" transform="translate(-2.92 -9.76)"/><polygon points="33.24 13.21 33.24 13.22 33.24 13.2 33.24 13.21"/><polygon points="33.24 12.73 33.24 12.75 33.23 12.74 33.24 12.73"/><polygon points="33.22 12.57 33.23 12.58 33.22 12.6 33.22 12.57"/><polygon points="33.22 12.6 33.23 12.63 33.22 12.62 33.22 12.6"/><polygon points="33.23 12.63 33.23 12.67 33.22 12.64 33.22 12.63 33.23 12.63"/><polygon points="33.22 12.62 33.23 12.63 33.22 12.63 33.22 12.62"/><path d="M36.1,10.17l0,0Z" transform="translate(-2.92 -9.76)"/><path d="M36.13,10V10C36.13,10,36.12,10.08,36.13,10Z" transform="translate(-2.92 -9.76)"/><polygon points="33.19 10.11 33.2 10.15 33.19 10.13 33.19 10.11"/><polygon points="33.2 10.86 33.2 10.9 33.19 10.86 33.2 10.86"/><path d="M31.91,18.92h0v-.05l-.09,0-.07.1c-.12,0-.07-.09-.19,0l0,0-.13,0,0-.07h.06l-.07,0-.09,0,0,0-.14,0,.07,0h-.06c-.1,0,0,0-.12,0l0,0,.13,0-.14,0h0L31,19l0,0-.09,0-.06,0,0,0a.49.49,0,0,0-.23.05v0l-.31,0h0l-.09,0v0l-.07,0L30,19a2.07,2.07,0,0,0-.35,0l-.06,0,0,0h0l-.19,0,0,0-.05,0v0l-.17,0h0a1.24,1.24,0,0,1-.27,0v0h-.07l0,0,.11,0,0,0L29,19l-.06,0L29,19h0l.08,0,0,0,.13,0,.23,0-.13.05h.11L29.6,19h0l.15,0,.38,0h0l.27,0a2.77,2.77,0,0,1,.37,0,5.2,5.2,0,0,1,.69-.07l0,0h.07l.1,0a1.34,1.34,0,0,0,.35,0h0a1,1,0,0,1,.34,0l.08,0a.47.47,0,0,1,.19-.06h.26c.28-.05.55-.05.83-.09l0,0a5.35,5.35,0,0,1,.56-.07l.28,0,0,0,.14,0h.23l.15,0a1.62,1.62,0,0,0,.32,0v0l.14,0c.16,0,.35,0,.5,0l0,0h.06v0h0v.22H36l0,0a3.86,3.86,0,0,1-.46,0v0h-.06l0,0-.28,0,0,0H35l-.08,0,0,0-.18,0,0,0,0,0-.2,0a3,3,0,0,1-.63.09v0l-.06,0v0l-.15,0h0l-.12,0v0h0l.07-.09h-.05s.12,0,0,0l0,.06-.09.05h-.14l0,0,0,0,0,0-.12,0v-.06l-.07.05v0h-.14v0l-.06,0h-.13l-.07,0h.08l-.1,0h-.1v0l-.09,0,0,0h-.07l0,.06h-.06l0,0-.09,0-.05,0h0l0,0-.14,0Z" transform="translate(-2.92 -9.76)"/><path d="M36.09,10.43v0Z" transform="translate(-2.92 -9.76)"/><path d="M36.05,15v0Z" transform="translate(-2.92 -9.76)"/><polygon points="33.13 5.23 33.13 5.26 33.12 5.23 33.13 5.23"/><rect x="33.11" y="5.54" width="0.01" height="0.01"/><polygon points="33.12 5.55 33.11 5.57 33.11 5.55 33.12 5.55"/><polygon points="33.11 1.97 33.1 1.99 33.1 1.96 33.11 1.97"/><polygon points="33.09 2.04 33.11 2.05 33.07 2.13 33.08 2.11 33.09 2.04"/><polygon points="33.09 3.98 33.09 4.01 33.08 4.02 33.08 3.99 33.09 3.98"/><path d="M36,13.36v0Z" transform="translate(-2.92 -9.76)"/><polygon points="33.07 2.75 33.06 2.77 33.05 2.74 33.07 2.75"/><path d="M34.61,21.91h0v0h0l0,0a2.63,2.63,0,0,1-.35,1.32c-.06.09-.13.22-.2.32a4.16,4.16,0,0,1-.75.64l0-.05.09-.12c.11-.15.32-.25.41-.43l0,0c.09-.16.26-.39.38-.59h0l0-.14,0,0v-.11l0,0v0c0-.08,0-.17,0-.27h0a4.42,4.42,0,0,0,0-.52h0l0-.11,0-.13h0l0-.08v0l0-.09h0v-.07h0l0-.07h0a4.09,4.09,0,0,0-.3-.59v-.05L34,20.66v0L34,20.58h0l-.1-.07h0l-.08-.09h0l-.06,0h0l-.16-.1h0l-.16-.09,0-.06h-.08L33.2,20l0,0,0,0h0l-.1,0H33l0,0-.1,0,0,0,0,0-.09-.05h-.07l-.05,0h-.07l-.17,0,0,0h-.32l0,0-.23.05-.05.05v0h-.07l-.07,0v0l0,0h0l0,0h-.07v0l0,.06h0l-.06.06-.14.06-.08.07v0l-.05,0-.08,0v.05l-.12.09v0l-.08.1h0l-.05.05,0,.05-.19.2V21h0l-.05.14,0,0v0h-.05l0,.07,0,0v.05h0l0,.05,0-.05v.06l0,.06v0h0l0,0,0,.05,0,0,0,0h0v.09l0,.06v.14h0l-.05.05,0,.05,0,.21v0a1.45,1.45,0,0,1,0,.3h0v0l0,0,0,.17,0,0v.08h0v0l0,0v0l.05.1v0h0v.13a2.53,2.53,0,0,1,.21.32h0l0,0,0,0,.05,0h0l.05,0,0,0,0,0-.09,0h0l0,0h.06l.08,0h0l.06.06h0v0h0l.06,0,0,0h.06l0,0,.06.05h0v.05L31,24H31l0,0H31v0l0,0h0l0,.06h0l0,0,.05,0,0,0h0l0,.06,0,0v0h0l.05.08h0v0l.06,0,.07-.07.09.07v0h.07l0,.05h0l0,0h.06l0,0h.08l0,0h.11v0h0l.05.05h0l0,.06h0v0H32v0h.2l0,0v0h0l.15,0,.21-.05.05,0,0,0h0l.11-.06v0h0l.11,0h0l.16-.07v0l0,0h0l-.06.07v0h0l0,0h0l0,.05h0l-.05,0h0l-.07.06-.14.05.07-.07h-.07l-.07.07h0l-.09,0-.25,0h0l-.17,0-.23,0a1.11,1.11,0,0,1-.44-.08h0l0,0h-.07l-.22-.07h0L31,24.24l0,0-.13-.05L30.73,24a1.34,1.34,0,0,1-.37-.38v0a1.4,1.4,0,0,1-.27-.49h0l-.06-.08,0-.16,0-.1,0-.21v0l0-.08c0-.11,0-.25,0-.35l0,0,0-.26h0v0a1.88,1.88,0,0,1,.14-.42,2.24,2.24,0,0,1,.34-.65h0l.15-.19.05,0,.17-.16.21-.16,0,0,.09-.05v0a3.29,3.29,0,0,1,.55-.3c.15,0,0,.06.14,0h.1l0,0,.18,0v0l.25-.08a2.09,2.09,0,0,1,2.1,1.39.62.62,0,0,0,.07.23h0l0,.08a2.85,2.85,0,0,1,.08.51Z" transform="translate(-2.92 -9.76)"/><polygon points="31.44 21.14 31.44 21.15 31.43 21.14 31.44 21.14"/><path d="M34.35,30.85l0,0Z" transform="translate(-2.92 -9.76)"/><path d="M32.52,29.13h0Zm1.77,1.67h-.07l0,0,0,0v0l-.05,0h0l-.07-.07h0l-.07,0-.06-.07-.15-.11h0l-.08-.05h0l-.07-.06v0h-.06l0-.06-.18-.12h0l-.18-.13,0,0h-.05l0-.05h0l0-.06v0H33l-.09-.09h0l-.07-.07v0h0l-.11-.11-.21-.17h0l-.08,0h0v0h0l.09-.07v0h0v0h0v0h0l0,.11h0v0h.07v0h0l0,0h0v0h0v0h0v0h0l0,0h0v0h.05v0h0l0,0v0l0,0,.06.07h0l.08.09,0,0h0v0l0,.06,0,0h0l.06,0v0h0l0,.05.14.08h0l0,0h.08l0,0h0l-.07,0h0l0,0,0,0h0l0,0,0,0v0l0,0h0l0,0,0,0v0l0,0h0v0l0,0h0v0h0v0h0v0h0v0l0,0h0v0h0v0l0,0v.06l0,0h0l0,0h0l.06-.06,0,.06,0,0h0l0,0h0v0h0v0l0,0v0h0v0h0l0,0h0v0h0l0,.06h0l0,0,.06,0,0,0,.06.06h0l0,0v0l.07,0,.06.06v0h.05l0,0h0l0,0,0,0v0l0,.05h0v0h-.05l0,0h0Z" transform="translate(-2.92 -9.76)"/><path d="M34.33,30.87h0Z" transform="translate(-2.92 -9.76)"/><path d="M32.21,15.27h0l0,0h0v0l0,0H32l0-.05h0L32,15h0l.05-.07h0l.19.15,0,.06h0l0,0h0l0,.06h0l.1,0c.14.12.28.22.4.33a4.21,4.21,0,0,1,.37.36l0,.07,0,0,.13.12v0h0c.13.1.22.25.34.36l.1.09a.81.81,0,0,0,.24.28h-.1l-.19-.13v0l-.18-.2h0l-.06,0h0v0h0l-.09,0h0l-.17-.11,0,0h-.05l0,0h0l0,0h0l0,0,0,0,0,0,0,0L33,16v0l0,0v0h0l0,0h0l0,0h0l-.08,0-.06,0v0h0l-.05,0,0,0h0l0,0h-.08l0,0-.07,0v0h0v0h0l0,0h-.07l0,0-.07,0h0l-.07-.07v0h0l-.07-.06h0l0,0h0Z" transform="translate(-2.92 -9.76)"/><path d="M33,28.44h0Zm.08-.18Zm-.29.54,0,0v0h0v0h0v.07l-.05,0V29h0v0l0,0h0l0,0h0l0,0h0l0,0h0V29h0l.06-.05,0,0h0l.13-.19,0,0h0v0l0,0h0v-.11c.1-.14.19-.28.28-.42s.19-.26.31-.38l.07-.06v0l.11-.15,0,0v0h0v0c.08-.14.21-.23.3-.36l.08-.11a.82.82,0,0,0,.24-.25l0,.1-.11.2h0l-.17.2v0l0,.06h0l0,0h0l0,0-.05.09h0l-.1.18,0,0v0l0,0h0v0h0l0,0h0l0,0v0l-.14.22h0l0,0h0v0l0,.05h0l0,0h0v0h0l0,.07h0l0,.06h0v0l0,.05,0,0h0v.1l0,0,0,.06h0v0l0,0h0v0h0v0h0l0,0h0v.06h0l0,.07h0l0,0,0,.08v0h0v0Zm-.25.27h0Z" transform="translate(-2.92 -9.76)"/><polygon points="31.22 20.76 31.2 20.77 31.2 20.75 31.22 20.76"/><polygon points="31.2 20.71 31.2 20.72 31.2 20.72 31.2 20.71"/><polygon points="31.2 20.74 31.19 20.75 31.19 20.75 31.2 20.72 31.2 20.72 31.2 20.74"/><polygon points="31.14 20.63 31.12 20.66 31.08 20.63 31.05 20.63 31.07 20.63 31.09 20.61 31.14 20.63"/><polygon points="31.07 20.59 31.09 20.61 31.08 20.61 31.07 20.59"/><path d="M33.55,30h0Z" transform="translate(-2.92 -9.76)"/><polygon points="30.58 20.14 30.58 20.15 30.58 20.15 30.58 20.14"/><polygon points="30.58 3.27 30.57 3.28 30.57 3.28 30.58 3.27"/><path d="M33.44,25.5h0Z" transform="translate(-2.92 -9.76)"/><path d="M33.45,13.05h0Z" transform="translate(-2.92 -9.76)"/><polygon points="29.43 4.84 29.44 4.86 29.33 4.97 29.19 5.17 29.18 5.17 29.18 5.17 29.19 5.17 29.12 5.09 29.06 5.04 29.07 5.02 29.07 5.03 29.09 4.96 29.1 4.96 29.1 4.93 29.14 4.95 29.14 4.92 29.17 4.93 29.17 4.91 29.18 4.89 29.15 4.9 29.15 4.88 29.18 4.86 29.18 4.86 29.19 4.86 29.2 4.84 29.19 4.83 29.2 4.84 29.22 4.83 29.21 4.82 29.22 4.78 29.24 4.77 29.26 4.75 29.26 4.74 29.26 4.74 29.27 4.71 29.31 4.72 29.29 4.69 29.35 4.63 29.34 4.61 29.43 4.53 29.45 4.55 29.45 4.53 29.42 4.52 29.47 4.46 29.49 4.44 29.48 4.44 29.5 4.44 29.5 4.41 29.51 4.42 29.52 4.37 29.55 4.38 29.54 4.36 29.59 4.34 29.65 4.18 29.66 4.2 29.66 4.18 29.69 4.2 29.69 4.15 29.69 4.15 29.7 4.13 29.71 4.15 29.71 4.13 29.76 4.2 29.76 4.18 29.79 4.2 29.76 4.17 29.75 4.13 29.77 4.09 29.75 4.07 29.77 4.08 29.75 4.05 29.76 4.03 29.8 4.06 29.78 4.02 29.8 4.03 29.82 4.01 29.81 3.99 29.83 3.99 29.85 3.97 29.85 3.94 29.84 3.94 29.83 3.92 29.84 3.92 29.85 3.9 29.85 3.9 29.89 3.9 29.89 3.91 29.9 3.9 29.88 3.86 29.89 3.86 29.89 3.87 29.93 3.87 29.91 3.84 29.93 3.85 29.92 3.82 29.97 3.82 29.98 3.85 29.99 3.84 30.01 3.86 30.02 3.84 29.97 3.77 30.02 3.75 30 3.74 30 3.71 30.04 3.75 30.02 3.76 30.06 3.77 30.06 3.73 30.04 3.73 30.05 3.7 30.02 3.69 30.02 3.68 30.03 3.68 30.04 3.65 30.06 3.65 30.06 3.69 30.07 3.67 30.11 3.67 30.12 3.68 30.17 3.7 30.17 3.68 30.14 3.66 30.16 3.6 30.18 3.62 30.23 3.56 30.23 3.54 30.25 3.55 30.27 3.54 30.29 3.48 30.34 3.41 30.38 3.43 30.38 3.41 30.39 3.37 30.41 3.38 30.41 3.37 30.43 3.39 30.46 3.35 30.44 3.35 30.48 3.29 30.49 3.31 30.49 3.29 30.51 3.29 30.52 3.34 30.49 3.31 30.48 3.33 30.48 3.34 30.48 3.33 30.5 3.37 30.49 3.38 30.48 3.37 30.48 3.42 30.44 3.47 30.43 3.41 30.41 3.42 30.43 3.48 30.41 3.47 30.41 3.51 30.34 3.58 30.33 3.58 30.31 3.65 30.25 3.71 30.15 3.85 30.14 3.84 30.13 3.84 30.14 3.88 30.09 3.96 30.08 3.96 30.03 4.02 30.01 4.02 30.01 4.08 29.95 4.12 29.85 4.3 29.83 4.3 29.73 4.47 29.71 4.45 29.7 4.5 29.66 4.53 29.65 4.58 29.61 4.63 29.6 4.63 29.59 4.62 29.59 4.67 29.5 4.75 29.51 4.78 29.45 4.85 29.43 4.84"/><polygon points="30.51 10.37 30.5 10.39 30.49 10.39 30.51 10.37"/><path d="M33.32,18.83h0Z" transform="translate(-2.92 -9.76)"/><polygon points="30.39 14.44 30.38 14.45 30.37 14.45 30.37 14.44 30.39 14.44"/><path d="M33.19,24.22l0,0Z" transform="translate(-2.92 -9.76)"/><path d="M33.15,25.51l.05,0Z" transform="translate(-2.92 -9.76)"/><polygon points="30.23 3.51 30.23 3.52 30.23 3.52 30.23 3.51"/><polygon points="30.21 3.51 30.21 3.52 30.19 3.52 30.21 3.51"/><polygon points="30.11 3.59 30.14 3.6 30.11 3.65 30.11 3.67 30.11 3.66 30.09 3.65 30.09 3.64 30.11 3.59"/><polygon points="30.04 18.74 30.02 18.73 30.03 18.73 30.04 18.74"/><path d="M32.92,28.59Z" transform="translate(-2.92 -9.76)"/><polygon points="29.9 19.57 29.9 19.59 29.89 19.58 29.9 19.57"/><polygon points="29.85 19.01 29.85 19.03 29.84 19.04 29.85 19.01"/><path d="M32.76,13.7h0Z" transform="translate(-2.92 -9.76)"/><path d="M32.76,28.8h0Z" transform="translate(-2.92 -9.76)"/><path d="M32.66,13.86v0Z" transform="translate(-2.92 -9.76)"/><polygon points="29.73 19.43 29.73 19.45 29.73 19.44 29.73 19.43 29.73 19.43"/><path d="M32.64,19.9h0Z" transform="translate(-2.92 -9.76)"/><path d="M32.61,13.91h0Z" transform="translate(-2.92 -9.76)"/><polygon points="29.61 19.31 29.62 19.34 29.62 19.34 29.61 19.34 29.6 19.32 29.59 19.32 29.61 19.31"/><path d="M32.52,19.94h0Z" transform="translate(-2.92 -9.76)"/><polygon points="29.61 4.63 29.6 4.64 29.6 4.63 29.61 4.63"/><polygon points="29.6 19.36 29.6 19.37 29.59 19.36 29.6 19.36"/><polygon points="29.6 19.31 29.59 19.31 29.59 19.3 29.6 19.31"/><polygon points="29.57 19.37 29.59 19.38 29.57 19.4 29.57 19.43 29.48 19.49 29.48 19.49 29.41 19.43 29.35 19.36 29.36 19.36 29.36 19.35 29.4 19.27 29.43 19.27 29.47 19.21 29.49 19.22 29.5 19.27 29.53 19.25 29.57 19.29 29.55 19.31 29.58 19.33 29.57 19.37"/><polygon points="29.56 5.73 29.55 5.73 29.55 5.73 29.56 5.73"/><polygon points="29.49 19.5 29.49 19.51 29.48 19.52 29.48 19.51 29.49 19.5"/><polygon points="29.48 19.51 29.48 19.52 29.48 19.51 29.48 19.51"/><path d="M32.27,29.11h0v0h0L32.06,29v-.06h0l0,0,0,0,0-.06h0l-.11,0c-.13-.12-.28-.21-.4-.33s-.26-.22-.38-.35L31,28l0,0-.14-.12h0c-.14-.1-.23-.25-.35-.35l-.11-.09a.7.7,0,0,0-.24-.27l.1,0,.19.12v0l.19.2h0l0,0h0v0h0l.09.05h0l.18.12,0,0H31l0,0h0v0l0,0h0l0,0h0l0,0h0l.21.17v0h.05v0h0l0,0,.05,0h0l0,0h0l.07,0h0l.05,0v0h0l.05,0,0,0v0h0l0,0h.08l0,0,.06,0v0h0l0,.05h.08l.06,0h0l.07.06h0v0h0l.08.07h0v0h0l0,0,0,0h.06v0h0l0,0,0,.05h0l0,.05h0l0,.08Z" transform="translate(-2.92 -9.76)"/><polygon points="29.3 19.76 29.29 19.79 29.28 19.79 29.27 19.81 29.23 19.81 29.25 19.85 29.19 19.9 29.2 19.92 29.12 20 29.1 19.98 29.1 20 29.13 20.01 29.08 20.07 29.06 20.09 29.07 20.1 29.05 20.1 29.05 20.13 29.04 20.11 29.03 20.16 29 20.16 29.02 20.18 28.96 20.2 28.9 20.35 28.89 20.34 28.89 20.36 28.86 20.34 28.86 20.37 28.86 20.38 28.86 20.39 28.86 20.4 28.84 20.39 28.84 20.4 28.79 20.34 28.79 20.35 28.76 20.33 28.79 20.37 28.8 20.41 28.79 20.44 28.8 20.47 28.79 20.46 28.8 20.48 28.8 20.52 28.75 20.48 28.76 20.51 28.74 20.53 28.75 20.55 28.72 20.54 28.7 20.58 28.71 20.6 28.73 20.59 28.72 20.61 28.71 20.61 28.71 20.63 28.7 20.63 28.71 20.64 28.67 20.65 28.67 20.63 28.65 20.63 28.68 20.68 28.67 20.68 28.67 20.66 28.63 20.66 28.65 20.7 28.63 20.7 28.64 20.72 28.59 20.72 28.58 20.7 28.57 20.7 28.55 20.68 28.54 20.7 28.59 20.77 28.54 20.79 28.56 20.8 28.56 20.83 28.52 20.8 28.53 20.79 28.5 20.78 28.5 20.81 28.52 20.81 28.51 20.85 28.54 20.85 28.54 20.87 28.53 20.86 28.53 20.89 28.5 20.89 28.5 20.85 28.48 20.88 28.48 20.87 28.45 20.87 28.44 20.86 28.39 20.84 28.39 20.86 28.42 20.88 28.41 20.94 28.38 20.93 28.33 20.98 28.34 21.01 28.31 21 28.29 21 28.27 21.06 28.22 21.14 28.18 21.12 28.18 21.14 28.18 21.14 28.17 21.19 28.15 21.16 28.15 21.17 28.13 21.16 28.11 21.19 28.13 21.2 28.09 21.25 28.08 21.25 28.07 21.26 28.06 21.26 28.05 21.21 28.07 21.24 28.09 21.2 28.08 21.22 28.07 21.19 28.06 21.19 28.07 21.16 28.09 21.17 28.09 21.14 28.12 21.08 28.13 21.14 28.16 21.12 28.14 21.07 28.15 21.08 28.15 21.03 28.21 20.96 28.23 20.97 28.25 20.9 28.32 20.84 28.41 20.69 28.42 20.7 28.44 20.7 28.42 20.66 28.46 20.58 28.48 20.59 28.53 20.52 28.55 20.52 28.55 20.46 28.6 20.42 28.7 20.23 28.72 20.24 28.82 20.06 28.84 20.09 28.84 20.04 28.89 20 28.89 19.96 28.95 19.9 28.96 19.91 28.96 19.86 29.05 19.78 29.03 19.76 29.1 19.68 29.11 19.69 29.1 19.67 29.2 19.56 29.34 19.35 29.35 19.35 29.36 19.35 29.36 19.36 29.35 19.36 29.41 19.43 29.48 19.49 29.48 19.5 29.47 19.5 29.47 19.5 29.46 19.57 29.44 19.57 29.45 19.59 29.4 19.58 29.4 19.6 29.38 19.6 29.38 19.62 29.36 19.63 29.39 19.62 29.39 19.66 29.36 19.67 29.37 19.69 29.35 19.68 29.36 19.68 29.34 19.68 29.34 19.71 29.34 19.69 29.32 19.7 29.33 19.71 29.33 19.74 29.3 19.76"/><path d="M32.38,15.44h0Z" transform="translate(-2.92 -9.76)"/><polygon points="29.36 14.64 29.38 14.63 29.37 14.65 29.36 14.64"/><polygon points="29.33 14.63 29.33 14.65 29.32 14.64 29.29 14.62 29.33 14.63"/><path d="M32.2,24.36v0Z" transform="translate(-2.92 -9.76)"/><polygon points="29.29 5.52 29.27 5.51 29.27 5.5 29.29 5.52"/><rect x="29.26" y="19.02" width="0.01" height="0.01"/><rect x="29.26" y="5.5" width="0.01" height="0.01"/><polygon points="29.24 9.19 29.22 9.21 29.21 9.19 29.24 9.19"/><polygon points="29.17 4.84 29.19 4.84 29.19 4.86 29.18 4.86 29.17 4.84"/><rect x="32.1" y="14.93" width="0.01" height="0.01" transform="translate(-4.07 17.32) rotate(-45)"/><polygon points="29.11 5.26 29.07 5.32 29.04 5.31 29.04 5.26 29 5.28 28.96 5.23 28.99 5.22 28.95 5.19 28.96 5.16 28.95 5.14 28.97 5.13 28.97 5.1 29.06 5.04 29.12 5.09 29.19 5.17 29.18 5.17 29.18 5.17 29.18 5.18 29.14 5.25 29.11 5.26"/><path d="M32.1,24.38h0Z" transform="translate(-2.92 -9.76)"/><polygon points="29.08 14.61 29.07 14.62 28.93 14.61 28.89 14.62 28.91 14.61 28.93 14.6 29.05 14.58 29.08 14.61"/><polygon points="29.07 15.86 29.05 15.88 29.04 15.87 29.07 15.86"/><path d="M31.86,14.91h0Zm0-.2.07,0h0l-.09.06v0h0v0h0l0,0h0l-.07-.09h-.07v0h0l0,0h0v0h0v0h0v0h0v0H31.5v0l0,0,0,0,0-.05,0,0-.06-.07h0l-.09-.09,0,0h0v0l-.05-.05h0l0,0h0v0h0l0,0v0h0v-.06l-.15-.08h0l0,0h-.07l0,0h0l.07-.05h0l0,0-.05,0h0l0,0,0,0v0l0,0h0l0,0,0,0v0h0v0l0,0h0l0,0h-.06v0h0v0l0,0v0h0v0l0,0v0l0,0v-.06h0l0,0h0l-.07.06,0-.06v0h0l0,0h0l0,0h0v0l0,0v0h0v0h0v-.05h0l0-.06h0l0,0-.06,0,0,0-.06-.06h0l0,0v0l-.07,0-.07-.07,0,0h0l0,0h0l0,0,0,0h0l-.05,0h0v0h.05l0,0v0h0l0,0h0l0,0,0,0h-.05v0l.06,0v0h0l.07.08h0l.06,0,.06.07.14.11h0v0l0,0,.07.05v0l.06.06v0h.06l0,.06.18.12h0l.18.14,0,0h0l0,.05h.05l.05.06h0l.08.1h0l.07.07v0h0l.11.13.2.17Z" transform="translate(-2.92 -9.76)"/><polygon points="29.07 5.32 29.06 5.33 29.05 5.32 29.07 5.32"/><path d="M31.89,15.17h0l-.12.19h-.09v0l-.06,0h0l0,.11c-.1.14-.18.28-.29.41a3.68,3.68,0,0,1-.31.38l-.06.06h0v0l-.11.15,0,0v0h0v0a3.47,3.47,0,0,1-.31.36l-.08.1a1,1,0,0,0-.24.25l0-.1.11-.19h0l.17-.19h0v-.06h0v0h0l0,0,.05-.09h0l.1-.17v0l0,0h0v0h0l0,0h0l0,0h0v0l0,0,.14-.22h0v0h0l0,0v0h0l0,0h0v0h0l0-.07.05-.05h0v-.05l0,0,0,0h0l0,0v-.08l0,0,0-.06h0v0l0,0h0v-.05h0l0,0h0v0l.05-.07h0v0l.06-.08v0h0v0h0v0h0l0,0v0h0v0l.05,0,0,0h0v0h0v0l0,0,0,0h0l0,0,0,0,0,0,0,0v.05l0,0h0l-.07.06v0Zm0-.19h0Z" transform="translate(-2.92 -9.76)"/><polygon points="29.06 5.01 29.06 5.02 29.05 5.02 29.06 5.01"/><polygon points="29.05 5.02 29.05 5.02 29.05 5.02 29.05 5.02"/><polygon points="28.98 18.8 28.97 18.81 28.97 18.8 28.98 18.8"/><polygon points="28.95 5.21 28.95 5.22 28.94 5.22 28.95 5.21"/><polygon points="28.95 5.16 28.94 5.16 28.94 5.16 28.95 5.16"/><path d="M31.86,24.31v0Z" transform="translate(-2.92 -9.76)"/><polygon points="28.94 5.2 28.93 5.21 28.91 5.19 28.92 5.19 28.91 5.19 28.91 5.18 28.93 5.17 28.94 5.2"/><polygon points="28.86 9.24 28.93 9.23 28.86 9.24 28.86 9.24"/><polygon points="28.92 5.19 28.91 5.19 28.91 5.19 28.92 5.19"/><path d="M31.82,24.34h0Z" transform="translate(-2.92 -9.76)"/><polygon points="28.87 20.38 28.86 20.39 28.86 20.38 28.87 20.38"/><polygon points="28.86 10.26 28.86 10.27 28.84 10.27 28.84 10.27 28.86 10.26"/><polygon points="28.84 10.27 28.82 10.28 28.82 10.27 28.84 10.27 28.84 10.27"/><polygon points="28.81 5.08 28.82 5.09 28.81 5.1 28.81 5.08"/><path d="M31.73,30.18h0Z" transform="translate(-2.92 -9.76)"/><path d="M31.72,30.17h0Z" transform="translate(-2.92 -9.76)"/><path d="M31.6,25.67h0Z" transform="translate(-2.92 -9.76)"/><polygon points="28.65 4.93 28.65 4.94 28.64 4.95 28.65 4.93"/><path d="M31.55,14.68h0Z" transform="translate(-2.92 -9.76)"/><path d="M31.45,15.44Z" transform="translate(-2.92 -9.76)"/><polygon points="28.48 20.89 28.46 20.9 28.46 20.89 28.48 20.89"/><polygon points="28.45 20.88 28.46 20.9 28.45 20.96 28.43 20.94 28.44 20.89 28.45 20.87 28.45 20.88"/><polygon points="28.35 21.02 28.38 21.03 28.37 21.02 28.36 21.03 28.35 21.02"/><path d="M31.25,30.77h0Z" transform="translate(-2.92 -9.76)"/><polygon points="28.29 14.34 28.29 14.35 28.27 14.35 28.29 14.34"/><polygon points="28.18 21.14 28.19 21.14 28.18 21.14 28.18 21.14"/><path d="M31,19h0Z" transform="translate(-2.92 -9.76)"/><path d="M31,19h0l0,0-.2,0-.06,0h0L31,19Z" transform="translate(-2.92 -9.76)"/><path d="M31,19l0,0Z" transform="translate(-2.92 -9.76)"/><path d="M31,23.93v0Z" transform="translate(-2.92 -9.76)"/><path d="M30.94,31Z" transform="translate(-2.92 -9.76)"/><path d="M30.91,31v0Z" transform="translate(-2.92 -9.76)"/><polygon points="27.97 4.36 27.97 4.36 27.97 4.36 27.97 4.36"/><polygon points="27.96 10.82 27.95 10.84 27.94 10.83 27.96 10.82"/><path d="M30.88,25.7h0Z" transform="translate(-2.92 -9.76)"/><path d="M30.86,14.05h0Z" transform="translate(-2.92 -9.76)"/><path d="M30.85,25.69h0Z" transform="translate(-2.92 -9.76)"/><path d="M30.79,25.72l0,0Z" transform="translate(-2.92 -9.76)"/><path d="M30.65,23.68h0Z" transform="translate(-2.92 -9.76)"/><path d="M30.54,19h0Z" transform="translate(-2.92 -9.76)"/><polygon points="27.66 11.19 27.64 11.2 27.66 11.18 27.66 11.19"/><path d="M30.52,13.81h0Z" transform="translate(-2.92 -9.76)"/><polygon points="27.48 3.87 27.5 3.87 27.5 3.87 27.47 3.89 27.42 3.87 27.43 3.83 27.48 3.87"/><path d="M30.34,25.72l.07,0Z" transform="translate(-2.92 -9.76)"/><path d="M30.4,13.65h0Z" transform="translate(-2.92 -9.76)"/><polygon points="27.38 9.29 27.45 9.33 27.44 9.31 27.36 9.31 27.38 9.29"/><polygon points="27.4 11.67 27.4 11.69 27.38 11.71 27.39 11.68 27.4 11.67"/><polygon points="27.36 3.75 27.36 3.77 27.35 3.75 27.36 3.75"/><polygon points="27.36 3.73 27.36 3.74 27.35 3.73 27.36 3.73"/><polygon points="27.31 9.29 27.32 9.29 27.3 9.3 27.31 9.29"/><polygon points="27.21 15.96 27.28 16 27.26 15.98 27.19 15.98 27.21 15.96"/><polygon points="27.13 15.96 27.14 15.97 27.12 15.97 27.13 15.96"/><polygon points="27.14 3.35 27.13 3.35 27.13 3.35 27.14 3.35"/><polygon points="27.05 12.81 27.05 12.84 27.05 12.84 27.05 12.81"/><path d="M28.71,19l0,0Z" transform="translate(-2.92 -9.76)"/><path d="M28.62,19h0Z" transform="translate(-2.92 -9.76)"/><path d="M28.59,19h0Z" transform="translate(-2.92 -9.76)"/><path d="M28.54,25.7l0,0Z" transform="translate(-2.92 -9.76)"/><path d="M28.45,25.71h0Z" transform="translate(-2.92 -9.76)"/><polygon points="25.51 15.97 25.47 15.97 25.5 15.96 25.51 15.97"/><path d="M9.27,14.37v3.24H9V14.42l-1.29.16V14L9,13.81V12.46h.28v1.31l1.43-.17v.6Z" transform="translate(-2.92 -9.76)"/><path d="M13.57,17.61V14.5c0-.2-.09-.3-.36-.3a3.52,3.52,0,0,0-1.74.67v2.74h-.28v-6h.28v2.62a3.78,3.78,0,0,1,1.85-.68c.33,0,.53.13.53.48v3.55Z" transform="translate(-2.92 -9.76)"/><path d="M14.93,13.11V11.84h.29v1.27Zm0,4.5V13.72h.29v3.89Z" transform="translate(-2.92 -9.76)"/><path d="M18.71,17.61v-3c0-.25-.08-.36-.27-.36a3.18,3.18,0,0,0-1.82.67v2.74h-.28V13.72h.28v.54a3.49,3.49,0,0,1,1.89-.68A.45.45,0,0,1,19,14v3.57Z" transform="translate(-2.92 -9.76)"/><path d="M23,17.76l-2.65-1.82v1.67h-.3v-6h.3v3.47l2.48-1.51.18.21-2.52,1.55,2.61,1.77v.63Z" transform="translate(-2.92 -9.76)"/><path d="M7,23.73a2.39,2.39,0,0,1-2.39,2.46c-.6,0-1-.4-1-1.53a2.41,2.41,0,0,1,2.32-2.54c.72,0,1.12.34,1.12,1.6Zm-.29-.1c0-.65-.23-.91-.83-.91a2.13,2.13,0,0,0-2,2c0,.6.26.88.79.88a2.05,2.05,0,0,0,2.07-1.95Z" transform="translate(-2.92 -9.76)"/><path d="M8.18,22.21v3.07c0,.2.2.31.5.31a2.33,2.33,0,0,0,1.6-.71V22.21h.28V26.1h-.28v-.62a2.33,2.33,0,0,1-1.63.71c-.34,0-.75-.09-.75-.65V22.21Z" transform="translate(-2.92 -9.76)"/><path d="M12.75,22.87V26.1h-.28V22.91l-1.29.16v-.6l1.29-.16V21h.28v1.31l1.43-.17v.61Z" transform="translate(-2.92 -9.76)"/><path d="M17.29,22.82a2.78,2.78,0,0,0-.85-.1c-.88,0-1.79.51-1.79.94,0,.14.15.25.48.25a5.27,5.27,0,0,0,.81-.12c.23,0,.69-.1.82-.1.73,0,.89.44.89.92,0,.87-.74,1.58-2.14,1.58a4.47,4.47,0,0,1-1.25-.2v-.6h.11a4.22,4.22,0,0,0,1.19.2c1.19,0,1.81-.55,1.81-.95,0-.21-.11-.37-.63-.37-.2,0-.55.07-.78.1s-.66.11-.78.11c-.64,0-.81-.34-.81-.81,0-.84,1-1.55,2.22-1.55a2.92,2.92,0,0,1,.8.09v.61Z" transform="translate(-2.92 -9.76)"/><path d="M18.5,21.61V20.34h.28v1.27Zm0,4.49V22.21h.28V26.1Z" transform="translate(-2.92 -9.76)"/><path d="M22.87,22.91V26.1h-.29v-.66a2.25,2.25,0,0,1-1.61.75c-.8,0-1.31-.54-1.31-1.63a2.15,2.15,0,0,1,2.26-2.44,2.45,2.45,0,0,1,.66.09V20.13h.29v2.21l.15.07V23Zm-.29-.09a2.48,2.48,0,0,0-.71-.1A1.76,1.76,0,0,0,20,24.52a1,1,0,0,0,1,1.07,2.27,2.27,0,0,0,1.59-.75Z" transform="translate(-2.92 -9.76)"/><path d="M27.25,23.88c-.53.12-2.61.54-3.29.66,0,.76.4,1.05,1.1,1.05a3.51,3.51,0,0,0,1.73-.49h.11v.55a4,4,0,0,1-1.86.54c-.74,0-1.36-.38-1.36-1.55A2.29,2.29,0,0,1,26,22.12c.82,0,1.14.55,1.18,1.31h.07Zm-.36-.38c0-.42-.27-.78-.94-.78A2,2,0,0,0,24,24.07Z" transform="translate(-2.92 -9.76)"/><path d="M4.49,31.3v3.23H4.21V31.35l-1.29.16V30.9l1.29-.16V29.39h.28v1.3l1.42-.17v.61Z" transform="translate(-2.92 -9.76)"/><path d="M8.79,34.53V31.42c0-.19-.09-.29-.36-.29a3.5,3.5,0,0,0-1.74.66v2.74H6.41v-6h.28v2.63a3.75,3.75,0,0,1,1.85-.69c.33,0,.53.14.53.49v3.54Z" transform="translate(-2.92 -9.76)"/><path d="M13.48,32.31c-.53.13-2.61.54-3.29.67,0,.76.4,1,1.1,1A3.61,3.61,0,0,0,13,33.54h.11v.55a4,4,0,0,1-1.86.54c-.74,0-1.36-.38-1.36-1.56a2.29,2.29,0,0,1,2.32-2.52c.82,0,1.14.55,1.18,1.32h.07Zm-.36-.37c0-.42-.27-.78-.94-.78a1.94,1.94,0,0,0-1.94,1.34Z" transform="translate(-2.92 -9.76)"/><path d="M17.1,31.17a2.75,2.75,0,0,1,1.64-.62c.84,0,1.15.61,1.15,1.59,0,1.66-.91,2.48-2.12,2.48a2.49,2.49,0,0,1-1.06-.27v-.62l.11.05V28.56h.28Zm0,2.73a2.25,2.25,0,0,0,.71.11,1.72,1.72,0,0,0,1.78-1.86c0-.5-.2-1-.89-1a2.76,2.76,0,0,0-1.6.61Z" transform="translate(-2.92 -9.76)"/><path d="M24,32.16a2.38,2.38,0,0,1-2.38,2.47c-.6,0-1.06-.4-1.06-1.54a2.41,2.41,0,0,1,2.33-2.54c.72,0,1.11.34,1.11,1.6Zm-.28-.09c0-.66-.23-.91-.83-.91a2.12,2.12,0,0,0-2,2c0,.6.25.87.79.87a2.05,2.05,0,0,0,2.07-1.94Z" transform="translate(-2.92 -9.76)"/><path d="M27.81,34.6l-1.73-1.76c-.27.19-1.27,1.6-1.54,1.79l-.23-.16,1.56-1.87c-.25-.15-1.16-1.28-1.4-1.43v-.68h.1c.29.17,1.37,1.5,1.64,1.68l1.45-1.68h.11v.35l-1.34,1.55,1.49,1.53v.68Z" transform="translate(-2.92 -9.76)"/></svg>