<svg id="Layer_1" data-name="Layer 1" xmlns="http://www.w3.org/2000/svg" viewBox="0 0 523.91 251.7"><defs><style>.cls-1{fill:#fff;}</style></defs><title>box &amp;amp; me 2.0</title><rect class="cls-1" width="523.91" height="251.7"/><path d="M252.62,50.85h186V52.8q0,85.23,0,170.44a2.74,2.74,0,0,0,.25,1.54c2.4,3.17,4.86,6.29,7.34,9.46a52.1,52.1,0,0,1,4.64-3.24c7.38-4.13,16.18-2.87,23.1,3.23a24,24,0,0,1,8,14.62c.16,1.07-.42,2.27-.69,3.4-.08.34-.38.66-.37,1,.12,5.18-2.71,9-5.81,12.7-.54.65-1.12,1.26-1.67,1.9-.08.08-.08.22-.15.43.28.38.62.8.92,1.24a3.19,3.19,0,0,1-.34,4.28c-1.17,1.06-3.26,1.23-4.23-.08-1.33-1.81-2.61-1.55-4.45-1-8.8,2.78-19-.3-24.12-7.21-3.9-5.25-4.35-11.18-2.8-17.28a33.24,33.24,0,0,1,3-7.15c.7-1.34.75-2.26-.29-3.33-.7-.73-1.29-1.58-2.22-2.73.28,2.79-1.28,2.65-3,2.65q-90.22,0-180.45,0h-2.63Zm7.46,63.35h54.71V59.47H260.08Zm57.75,115.15h54.78V174.71H317.83Zm-3-57.54V117.12H260.08v54.69Zm60.87-54.71c-.05.38-.1.55-.1.73q0,19.5,0,39a3,3,0,0,0,.84,1.85c3.88,4.06,7.83,8.05,11.71,12.09a3.83,3.83,0,0,0,3,1.2c12.49,0,25,0,37.47,0,.58,0,1.16-.06,1.8-.1V117.1Zm54.76-2.89V59.43H375.68v54.78ZM372.64,59.44H317.86v54.77h54.78ZM314.82,174.68H260.08v54.7h54.74Zm57.91-2.86a36.59,36.59,0,0,1,0-4.34,6.72,6.72,0,0,0-2.3-6.09c-1.71-1.62-3.16-3.52-4.8-5.39-.8,1.22-1.35,2.23-2.06,3.11-4.63,5.75-10.88,7.38-17.83,6.53-8.9-1.1-15.17-6-18.41-14.37-3.18-8.17-1.88-15.82,4-22.44,1.66-1.87,3.81-3.31,5.67-5a2.34,2.34,0,0,0,.86-1.64,3.25,3.25,0,0,1,1.93-3.65c1.51-.85,2.73-.17,3.63,1a1.85,1.85,0,0,0,2.15.72c4-.69,8-.68,11.23,2,2.64,2.18,5.37,4.73,6.84,7.71,2.66,5.4,4.6,11.19,4,17.45a1.89,1.89,0,0,0,.12,1.22c1.48,1.84,3,3.62,4.79,5.69V117.12H317.83v54.7Zm20.74,13a3.78,3.78,0,0,0-.4-.56q-4.68-4.53-9.39-9c-.25-.24-.59-.55-.89-.55-2.38,0-4.76,0-7.09,0v54.59h54.71c-.11-1.93.36-4-.43-5.18a105.82,105.82,0,0,0-7.06-8.95c-3.93,5.66-8.89,9.38-15.69,9.84S394.83,222.67,390,218C381.58,209.86,379.74,194.53,393.47,184.81ZM340.73,128c-1.34,1.06-2.47,1.85-3.49,2.77-5.72,5.14-7.4,12.06-4.6,18.85a17.09,17.09,0,0,0,16.9,10.62c5-.35,9.18-2.28,11.25-7.37a2.58,2.58,0,0,0-.61-3.19C353.5,142.76,345.91,136.67,340.73,128Zm65.95,91.37c3.86-.61,8.46-1.58,10.34-7a1.87,1.87,0,0,1,.65-.85c1.19-.88.8-1.63-.05-2.5q-9.24-9.42-18.43-18.9a1.83,1.83,0,0,0-2.76-.28c-5.86,3.77-8.71,10.64-6.89,16.87A18.32,18.32,0,0,0,406.68,219.37Zm23.24-5.7.44-.13V174.75H392.31c2.66,2.53,5,4.79,7.38,6.95a2.25,2.25,0,0,0,1.66.26,20.16,20.16,0,0,1,17.84,5.46c6,5.58,9.26,12.28,7.11,20.77a2,2,0,0,0,.27,1.48C427.62,211.05,428.79,212.34,429.92,213.67Zm39.28,50.18a41.76,41.76,0,0,0,2.87-3.19c1.69-2.31,3.67-4.53,3-7.82-.12-.55.43-1.22.57-1.85a6,6,0,0,0,.41-2.63,18.48,18.48,0,0,0-10.71-12.45c-5.14-2.32-9.94-1.66-14.34,2-1.09.91-1,1.51-.21,2.48,1.17,1.38,2.21,2.86,3.33,4.28C459.06,251,464,257.27,469.2,263.85ZM463.57,267l-17.71-22.53c-3.49,5.11-3.68,12.46-.56,16.93C448.86,266.47,456.47,268.87,463.57,267Zm-102.08-125,.47-.24c-1.17-3.58-2.11-7.25-3.6-10.69-.63-1.45-2.38-2.43-3.67-3.56-2.2-1.93-5.57-2.54-7.72-1.36C351,132.11,356.22,137.06,361.49,141.93Zm59.76,60.4c1.07-5.69-9.14-16.1-15.57-14.67Zm-41.52-30.48-4-4v4Z" transform="translate(36.95 -33.31)"/><path d="M284.68,80.16c3.9-5,7.66-9.9,11.42-14.76a12.55,12.55,0,0,1,1.08-1.22,2.88,2.88,0,1,1,4.3,3.83c-2,2.55-4.16,5-6.12,7.62-2.14,2.84-4.1,5.81-6.21,8.69a1.44,1.44,0,0,0,.09,2.18c2.53,2.58,5,5.26,7.55,7.79,3.59,3.51,7.1,7.08,9.58,11.5.39.71.92,1.74.68,2.33a4.45,4.45,0,0,1-2.17,2.47,3.23,3.23,0,0,1-2.91-1.07c-3.12-5.69-8.07-9.72-12.51-14.21-1.47-1.49-2.89-3-4.45-4.68-2.13,3.18-4.2,6.27-6.28,9.35q-1.26,1.88-2.59,3.71c-1.33,1.82-3,2.23-4.48,1.14s-1.47-2.74-.27-4.5c3.05-4.49,6.07-9,9.16-13.46a1.84,1.84,0,0,0,0-2.53c-3.52-4.82-6.83-9.81-11.62-13.56a2.77,2.77,0,0,1-.34-4,2.73,2.73,0,0,1,4-.3c2.68,2.5,5.27,5.11,7.71,7.85C281.93,76.11,283.25,78.22,284.68,80.16Z" transform="translate(36.95 -33.31)"/><path d="M351.16,201.53c5.35,4.77,10.5,9.39,15.7,14a12.5,12.5,0,0,0,2.51,1.41,2.88,2.88,0,0,1,1.51,3.79c-.7,1.67-1.72,2.28-3.52,1.54a18.92,18.92,0,0,1-5-2.86c-3.89-3.33-7.61-6.86-11.39-10.32-1.07-1-2.1-2-3.3-3.15-4.6,6.18-11.22,10.67-15.14,17.56a2.85,2.85,0,1,1-5-2.73,116.88,116.88,0,0,1,7.16-9.28c2.84-3.27,6-6.31,9.05-9.55-.54-.6-.86-1-1.24-1.37-4.82-4.2-9.63-8.42-14.48-12.58-1.66-1.42-2.09-2.93-1-4.36s2.79-1.67,4.45-.3c5.35,4.42,10.62,8.91,16.33,13.72a7,7,0,0,1,.64-1.11c3.2-4,6.39-8,9.67-12a34.27,34.27,0,0,1,4-4.12,2.73,2.73,0,0,1,4,.45,2.93,2.93,0,0,1-.32,3.93C361.08,189.78,356.34,195.41,351.16,201.53Z" transform="translate(36.95 -33.31)"/><path d="M284.71,143.79c-4.58-4.31-8.91-8.43-13.29-12.48a21.68,21.68,0,0,0-3.07-2.2,2.9,2.9,0,0,1,2.29-5.31,11.13,11.13,0,0,1,3.2,2c4,3.65,8,7.39,11.93,11.1.88.82,1.77,1.62,3.15,2.88A11.21,11.21,0,0,1,290,138c4.93-5.15,9.85-10.3,14.86-15.37a4.23,4.23,0,0,1,2.75-1.37,3.82,3.82,0,0,1,2.46,1.72c.81,1.22.15,2.41-.81,3.39-3.3,3.36-6.61,6.72-9.88,10.11-2,2-3.89,4.12-6,6.36,1.18.86,2.29,1.64,3.38,2.45,4.43,3.35,8.88,6.67,13.26,10.07,1.66,1.3,1.88,2.88.85,4.27s-2.89,1.45-4.61.13c-5.49-4.23-11-8.41-17.07-13a11.44,11.44,0,0,1-1.12,1.83q-6.63,7.06-13.32,14.08c-1.57,1.63-3.32,1.8-4.6.56s-1.14-2.92.46-4.61Z" transform="translate(36.95 -33.31)"/><path d="M404.43,148.31c-1.68,1.84-3.11,3.48-4.61,5-2.3,2.39-4.68,4.7-7,7.1a27.25,27.25,0,0,0-2.73,3.34c-.95,1.37-2.2,1.91-3.53,1.3a2.52,2.52,0,0,1-1.23-3.65,42.18,42.18,0,0,1,4.51-5.58c3.57-3.83,7.25-7.56,10.94-11.4l-12.5-15.72c-.12-.14-.26-.26-.38-.39-1.36-1.44-1.49-3-.37-4.16s2.8-1.15,4.25.44c1.71,1.87,3.33,3.83,4.89,5.82,2.54,3.22,5,6.5,7.59,9.9.55-.51,1-.83,1.31-1.21,3.66-4,7.24-8.11,11-12a66.8,66.8,0,0,1,6.44-5.79,2.5,2.5,0,0,1,3.92.55c.89,1.32.5,2.84-.94,3.92a24.24,24.24,0,0,0-3.23,2.61c-4.86,5.29-9.64,10.64-14.57,16.1,3.56,4.33,7.18,8.74,10.84,13.12a7.6,7.6,0,0,0,1.49,1,2.58,2.58,0,0,1,1.12,3.29,2.33,2.33,0,0,1-3,1.6,8.25,8.25,0,0,1-3.31-2c-2.18-2.34-4.16-4.86-6.19-7.32C407.6,152.29,406.11,150.4,404.43,148.31Z" transform="translate(36.95 -33.31)"/><path d="M402.79,91.46c-4.17,4-8.27,7.7-12.16,11.65a23.75,23.75,0,0,0-3.38,5,2.86,2.86,0,0,1-3.42,1.67,2.44,2.44,0,0,1-2.05-3.11,13,13,0,0,1,2.42-4.95c3.19-3.52,6.68-6.77,10.05-10.14L398.88,87c-5-5-9.9-10-14.82-14.94-.26-.25-.54-.48-.8-.74-1.4-1.44-1.49-3.22-.24-4.5a3,3,0,0,1,4.37,0c2.64,2.48,5.22,5,7.77,7.58s4.92,5.15,7.38,7.71c.13,0,.28,0,.35-.07l16.83-17.44a2.88,2.88,0,0,1,4.18-.42,2.8,2.8,0,0,1,.17,4.19c-3.5,3.67-7.14,7.19-10.68,10.82-2.3,2.37-4.5,4.83-6.9,7.41l16.25,17.12c.29.3.61.59.9.89,1.46,1.58,1.54,3.37.19,4.65s-3,1.2-4.49-.3q-5.46-5.57-10.8-11.22C406.63,95.71,404.79,93.63,402.79,91.46Z" transform="translate(36.95 -33.31)"/><path d="M365.66,87.89a22.14,22.14,0,0,1-2.76,11.3c-4.25,7.44-13,10.55-22,7.88C327,103,321.33,89.23,328,75.8a21.75,21.75,0,0,1,9.65-10.2,9.36,9.36,0,0,1,3.23-.42c.39,0,.84.13,1.19,0a12.33,12.33,0,0,1,8.15.46C360.27,69.2,365.5,76.75,365.66,87.89Zm-5.72.32c-.1-1.13-.15-2.16-.28-3.18-.88-7.41-5.4-12.58-12.65-14.25-1.13-.26-2.42.2-3.64.3-.7.07-1.56.38-2.08.09-1.11-.61-1.82-.11-2.61.48A18.88,18.88,0,0,0,331.81,82c-2.7,9.41,1.82,17.24,11.29,19.68,8.17,2.11,14.77-1.88,16.44-10C359.78,90.53,359.82,89.31,359.94,88.21Z" transform="translate(36.95 -33.31)"/><path d="M266.19,200.44c0-4.17.54-8.28,2.66-11.89,1.24-2.13,2.78-4.58,4.83-5.68,5.31-2.84,11.09-5,17.28-3.78a23.17,23.17,0,0,1,14.22,36.4c-5.62,7.94-15.41,10.44-25,6.23C271,217.68,266.22,210.58,266.19,200.44Zm5.56-.73c0,9.24,5.15,15.78,13.61,17.87,6.45,1.59,11.94-.4,15.48-5.72a18.17,18.17,0,0,0,2.71-14c-1.12-5.7-4.47-9.47-9.73-11.95-4.68-2.2-8.89-2.06-13.07,1a2.54,2.54,0,0,1-2,.46c-1.54-.6-2.36.26-3.21,1.21C272.52,191.92,272,196.08,271.75,199.71Z" transform="translate(36.95 -33.31)"/><path d="M11.33,60.87H1.76V49.79H32.62V60.87H23V97.64H11.33Z" transform="translate(36.95 -33.31)"/><path d="M36.91,49.79H48.57v18H61.8v-18H73.51V97.64H61.8V79H48.57V97.64H36.91Z" transform="translate(36.95 -33.31)"/><path d="M80.88,50H92.6V97.64H80.88Z" transform="translate(36.95 -33.31)"/><path d="M99.73,49.85h11.78l15.37,27v-27h11.71V97.64H127L111.45,70.38V97.64H99.73Z" transform="translate(36.95 -33.31)"/><path d="M146,49.91h11.66V68.82l9-18.91h13.63l-11.77,21.4,15.31,26.33h-14.5L157.62,74.21V97.7H146Z" transform="translate(36.95 -33.31)"/><path d="M-10.27,168.12A24.63,24.63,0,0,1-35.1,143.29a24.61,24.61,0,0,1,24.83-24.76,24.6,24.6,0,0,1,24.76,24.76A24.61,24.61,0,0,1-10.27,168.12Zm0-37.88a12.9,12.9,0,0,0-13.11,13A13,13,0,0,0-10.27,156.4,12.93,12.93,0,0,0,2.78,143.29,12.89,12.89,0,0,0-10.27,130.24Z" transform="translate(36.95 -33.31)"/><path d="M19.37,149V119.46H31.08v30c0,4,1.4,7.25,5.92,7.25s5.92-3.25,5.92-7.25v-30H54.63V149c0,11.54-6.72,19-17.63,19S19.37,160.52,19.37,149Z" transform="translate(36.95 -33.31)"/><path d="M67.92,130.47H58.35V119.4H89.2v11.07H79.58v36.78H67.92Z" transform="translate(36.95 -33.31)"/><path d="M90.31,151.7h11.42c.12,3.14,2,5.8,5.75,5.8,3.24,0,5.27-2,5.27-4.69,0-3.19-2.66-4.47-7.77-6.27-8.29-2.9-13-6.55-13-14.38,0-8.18,6.67-13.63,15.31-13.63,9.28,0,15.37,6,15.43,15.14l-10.67-.06c-.12-2.79-1.63-5-4.76-5-2.61,0-4.29,1.62-4.29,3.71,0,3,3,3.95,6.5,5.16,8.12,2.73,15,5.17,15,15.49,0,9.46-7.37,15-17,15C97.27,168,90.37,161.39,90.31,151.7Z" transform="translate(36.95 -33.31)"/><path d="M129.4,119.57h11.72v47.68H129.4Z" transform="translate(36.95 -33.31)"/><path d="M148.25,119.4h11.2c18.27,0,26,10.79,26,23.78s-7.77,24.07-26,24.07h-11.2Zm12.65,36.07c9,0,12.87-5.56,12.87-12.29s-3.88-12.07-12.87-12.07h-1v24.36Z" transform="translate(36.95 -33.31)"/><path d="M190.94,119.57h27.27v11H202.6v8.24h14.27v8.7H202.6v8.7h15.61v11.08H190.94Z" transform="translate(36.95 -33.31)"/><path d="M-24.51,200.08h-9.57V189H-3.23v11.08h-9.62v36.77H-24.51Z" transform="translate(36.95 -33.31)"/><path d="M1.07,189H12.72v18H26V189H37.67v47.85H26V218.18H12.72v18.67H1.07Z" transform="translate(36.95 -33.31)"/><path d="M45,189.18H72.29v11H56.69v8.24H71v8.7H56.69v8.7h15.6v11.07H45Z" transform="translate(36.95 -33.31)"/><path d="M94.1,189.06h13.29c11.37,0,17,4.23,17,13.05A10.18,10.18,0,0,1,120,211c4.18,1.74,6.62,5.74,6.62,10.55,0,9.46-6,15.31-19,15.31H94.1Zm13.52,18.79c3.65,0,5.86-1.16,5.86-4.35,0-3.48-2.15-4.58-5.86-4.58h-2.55v8.93Zm-.41,18.39c5,0,7.54-1.16,7.54-4.93s-2.55-5.1-7.13-5.1h-2.55v10Z" transform="translate(36.95 -33.31)"/><path d="M154.14,237.72a24.8,24.8,0,1,1,24.77-24.82A24.63,24.63,0,0,1,154.14,237.72Zm0-37.87a13.08,13.08,0,1,0,13.05,13.05A12.9,12.9,0,0,0,154.14,199.85Z" transform="translate(36.95 -33.31)"/><path d="M190.68,210.64l-11.6-21.52h13.23l6,12.18,6-12.18h13.28l-11.66,21.52,14.33,26.21H206.58l-8.3-16.53L190,236.85H176.36Z" transform="translate(36.95 -33.31)"/></svg>