<svg id="Layer_1" data-name="Layer 1" xmlns="http://www.w3.org/2000/svg" viewBox="0 0 270.83 212.86"><defs><style>.cls-1{font-size:12px;font-family:MyriadPro-Regular, Myriad Pro;}.cls-2{letter-spacing:-0.01em;}.cls-3{fill:red;}.cls-4{fill:#fff;}</style></defs><title>box &amp;amp; me</title><text class="cls-1" transform="translate(222.81 209.86)">23.261 <tspan class="cls-2" x="35.81" y="0">p</tspan><tspan x="42.47" y="0">x</tspan></text><path d="M84,41.55l.48,0c1.09.08,2.17.18,3.26.23a.92.92,0,0,0,.62-.3c.06-.06,0-.37-.15-.51-2.37-3.23-4.78-6.45-7.14-9.69-.77-1.06-.88-1-1.67-.12l0,0-8.53,8.42c-.13.13-.28.42-.22.53s.34.28.54.37a1.16,1.16,0,0,0,.42.05l3.33.25a11.78,11.78,0,0,1-2.52,10C70,53.83,66.66,55,62.86,55.39a18.62,18.62,0,0,0,6.25,1A14.78,14.78,0,0,0,83.5,45C83.75,43.87,83.83,42.72,84,41.55Z" transform="translate(-1.33 -1.78)"/><circle class="cls-3" cx="79.66" cy="13.82" r="13.82"/><path d="M22.75,33.66H17V44.53H10.8V33.66H5V29.15H22.75Z" transform="translate(-1.33 -1.78)"/><path d="M43.75,29.15V44.53H37.6V39.08h-7v5.45H24.43V29.15h6.15v5.23h7V29.15Z" transform="translate(-1.33 -1.78)"/><path d="M63.84,40.27v4.26H46.49V29.15h17.1v4.27H52.5v1.42h8.92v3.82H52.5v1.61Z" transform="translate(-1.33 -1.78)"/><path d="M22.08,59.63c0,2.73-2.73,4.57-7,4.57H1.33V47.46H14.12c4.28,0,7,1.8,7,4.4,0,1.87-1.45,3.54-4,3.69C19.78,55.74,22.08,57.15,22.08,59.63ZM7.92,53.92H13c.82,0,1.51-.38,1.51-1.2s-.69-1.19-1.51-1.19H7.92Zm7.3,4.9c0-.81-.62-1.31-1.58-1.31H7.92v2.63h5.72C14.6,60.14,15.22,59.63,15.22,58.82Z" transform="translate(-1.33 -1.78)"/><path d="M23.41,55.83c0-5.76,4.59-8.94,11.38-8.94s11.38,3.18,11.38,8.94-4.59,9-11.38,9S23.41,61.6,23.41,55.83Zm16,0c0-2.39-1.72-3.82-4.59-3.82s-4.59,1.43-4.59,3.82,1.72,3.83,4.59,3.83S39.38,58.22,39.38,55.83Z" transform="translate(-1.33 -1.78)"/><path d="M60.08,55.57l7.43,8.63H59.62l-3.51-4.28L52.59,64.2H45.16l7.41-8.53L45.4,47.46h7.89l3.27,4,3.28-4h7.43Z" transform="translate(-1.33 -1.78)"/><path class="cls-4" d="M82.64,15.08v3.76H80.83V15.17a1.42,1.42,0,0,0-1.57-1.6,2.24,2.24,0,0,0-2.07,1.37v3.9H75.38V15.17a1.42,1.42,0,0,0-1.57-1.6,2.23,2.23,0,0,0-2.06,1.33v3.94H69.93V12.36h1.82v1.15a3,3,0,0,1,2.66-1.39A2.5,2.5,0,0,1,77,13.85a3,3,0,0,1,2.86-1.73A2.64,2.64,0,0,1,82.64,15.08Z" transform="translate(-1.33 -1.78)"/><path class="cls-4" d="M88.34,17.71a3.63,3.63,0,0,0,2.49-.83l1,1.07a5.13,5.13,0,0,1-3.57,1.15c-2.67,0-4.21-1.34-4.21-3.49s1.53-3.51,4.08-3.51c2.36,0,3.93,1.2,3.93,3.49A1.51,1.51,0,0,1,92,16H85.78C85.94,17.18,86.83,17.71,88.34,17.71Zm-2.48-2.86,4.44,0c-.28-.93-1-1.34-2.18-1.34S86.12,13.94,85.86,14.85Z" transform="translate(-1.33 -1.78)"/></svg>