<svg id="Layer_1" data-name="Layer 1" xmlns="http://www.w3.org/2000/svg" viewBox="0 0 94.81 66.55"><defs><style>.cls-1{fill:red;}.cls-2{fill:#fff;}</style></defs><title>box an me</title><path d="M82.49,41.35l.48,0c1.06.08,2.11.18,3.18.23a.92.92,0,0,0,.6-.29c.07-.07,0-.36-.14-.5-2.32-3.16-4.67-6.3-7-9.47-.76-1-.86-1-1.63-.11l0,0L69.65,39.5c-.13.13-.28.41-.22.52s.33.27.53.36a1.36,1.36,0,0,0,.41,0l3.25.24a11.52,11.52,0,0,1-2.46,9.8c-2.37,2.87-5.6,4.06-9.31,4.4a18.24,18.24,0,0,0,6.1,1A14.43,14.43,0,0,0,82,44.7C82.25,43.62,82.33,42.5,82.49,41.35Z"/><circle class="cls-1" cx="79.55" cy="16.02" r="13.5"/><path d="M22.68,33.65H17V44.26H11V33.65H5.35v-4.4H22.68Z"/><path d="M43.19,29.25v15h-6V38.94H30.32v5.32h-6v-15h6v5.11h6.87V29.25Z"/><path d="M62.8,40.1v4.16H45.86v-15H62.57v4.16H51.74v1.4h8.7v3.73h-8.7V40.1Z"/><path d="M22,59c0,2.66-2.66,4.46-6.84,4.46H1.76V47.13H14.25c4.18,0,6.84,1.75,6.84,4.3,0,1.82-1.42,3.45-3.92,3.59C19.79,55.21,22,56.59,22,59ZM8.2,53.44h5c.8,0,1.48-.38,1.48-1.17S14,51.1,13.15,51.1h-5Zm7.13,4.78c0-.79-.61-1.28-1.55-1.28H8.2v2.57h5.58C14.72,59.51,15.33,59,15.33,58.22Z"/><path d="M23.32,55.31c0-5.63,4.49-8.74,11.12-8.74s11.11,3.11,11.11,8.74S41.07,64,34.44,64,23.32,60.93,23.32,55.31Zm15.6,0c0-2.34-1.68-3.74-4.48-3.74S30,53,30,55.31,31.64,59,34.44,59,38.92,57.64,38.92,55.31Z"/><path d="M59.13,55.05l7.26,8.43h-7.7L55.26,59.3l-3.44,4.18H44.56l7.24-8.34-7-8h7.7L55.7,51l3.2-3.9h7.26Z"/><path class="cls-2" d="M81.17,15.5v3.68H79.4V15.6A1.39,1.39,0,0,0,77.87,14a2.22,2.22,0,0,0-2,1.34v2.56l0,1.25H74.07V15.6A1.38,1.38,0,0,0,72.54,14a2.19,2.19,0,0,0-2,1.3v3.85H68.75V12.85h1.78V14a2.9,2.9,0,0,1,2.6-1.35,2.43,2.43,0,0,1,2.53,1.69,2.93,2.93,0,0,1,2.79-1.69A2.57,2.57,0,0,1,81.17,15.5Z"/><path class="cls-2" d="M86.73,18.08a3.56,3.56,0,0,0,2.44-.82l1,1a5,5,0,0,1-3.48,1.13c-2.61,0-4.12-1.32-4.12-3.42s1.49-3.43,4-3.43c2.3,0,3.84,1.18,3.84,3.42a1,1,0,0,1,0,.41H84.23C84.39,17.56,85.26,18.08,86.73,18.08Zm-2.42-2.79,4.34,0A1.93,1.93,0,0,0,86.52,14,2,2,0,0,0,84.31,15.29Z"/></svg>