<svg id="Layer_1" data-name="Layer 1" xmlns="http://www.w3.org/2000/svg" viewBox="0 0 400 164.87"><defs><style>.cls-1{fill:#fff;}.cls-2{fill:#1a1a1a;}.cls-3{fill:none;stroke:#1a1a1a;stroke-miterlimit:10;stroke-width:8px;}.cls-4{fill:red;}</style></defs><title>box &amp;amp; me 2.0</title><rect class="cls-1" width="400" height="164.87"/><path class="cls-2" d="M-101.89,700.17a.6.6,0,0,1,.66.63l-.7,6.81a.8.8,0,0,1-.76.63h-7v22.23a.66.66,0,0,1-.65.63h-8.33a.71.71,0,0,1-.71-.63V708.24h-7.81a.66.66,0,0,1-.66-.63v-6.77a.7.7,0,0,1,.66-.67Z" transform="translate(140.02 -689.63)"/><path class="cls-2" d="M-72.15,700.17a.68.68,0,0,1,.71.67v29.63a.67.67,0,0,1-.71.63h-8.8a.67.67,0,0,1-.66-.63v-10h-6.58v10a.67.67,0,0,1-.71.63h-8.8a.69.69,0,0,1-.65-.63V700.84a.69.69,0,0,1,.65-.67h8.8a.68.68,0,0,1,.71.67v11.7h6.58v-11.7a.67.67,0,0,1,.66-.67Z" transform="translate(140.02 -689.63)"/><path class="cls-2" d="M-57.89,700.17a.69.69,0,0,1,.71.67v29.63a.68.68,0,0,1-.71.63h-8.33a.7.7,0,0,1-.66-.63V700.84a.7.7,0,0,1,.66-.67Z" transform="translate(140.02 -689.63)"/><path class="cls-2" d="M-25.61,700.17a.68.68,0,0,1,.7.67v29.63a.67.67,0,0,1-.7.63h-8.14a1.29,1.29,0,0,1-1-.59l-8.19-13.93v13.89a.67.67,0,0,1-.7.63H-52a.66.66,0,0,1-.66-.63V700.84a.67.67,0,0,1,.66-.67h8.14a1.28,1.28,0,0,1,1.08.58l8.14,13.94V700.84a.7.7,0,0,1,.66-.67Z" transform="translate(140.02 -689.63)"/><path class="cls-2" d="M7.42,730.56c.23.31,0,.54-.33.54H-3.83a1.28,1.28,0,0,1-1-.54l-5.84-11.21v11.12a.67.67,0,0,1-.7.63h-8.33a.7.7,0,0,1-.66-.63V700.84a.7.7,0,0,1,.66-.67h8.33a.68.68,0,0,1,.7.67v10L-5,700.71a1.35,1.35,0,0,1,1.08-.54H6.38c.38,0,.52.23.33.54L-2.6,714.92Z" transform="translate(140.02 -689.63)"/><path class="cls-2" d="M19.37,700.17a.69.69,0,0,1,.71.67v29.63a.68.68,0,0,1-.71.63H11a.7.7,0,0,1-.66-.63V700.84a.7.7,0,0,1,.66-.67Z" transform="translate(140.02 -689.63)"/><path class="cls-2" d="M51.65,700.17a.68.68,0,0,1,.7.67v29.63a.67.67,0,0,1-.7.63H43.51a1.29,1.29,0,0,1-1-.59l-8.19-13.93v13.89a.67.67,0,0,1-.7.63H25.3a.66.66,0,0,1-.66-.63V700.84a.67.67,0,0,1,.66-.67h8.14a1.28,1.28,0,0,1,1.08.58l8.14,13.94V700.84a.7.7,0,0,1,.66-.67Z" transform="translate(140.02 -689.63)"/><path class="cls-2" d="M84.63,712.14a.7.7,0,0,1,.71.63V727a1.46,1.46,0,0,1-.57,1.07c-2.82,2.29-7.15,3.63-11.67,3.63-10.16,0-16.93-6.45-16.93-16.13s6.77-16.14,16.93-16.14a20.16,20.16,0,0,1,9.88,2.6.69.69,0,0,1,.43.81l-2.35,6.59a.75.75,0,0,1-.9.36,15.39,15.39,0,0,0-6.77-1.57c-4.33,0-7.25,3-7.25,7.35S69.06,723,73.39,723c1.74,0,2.91-.31,3.43-.85v-2.6H72.49c-.42,0-.7-.18-.75-.5l-.61-6.18c0-.45.23-.76.75-.76Zm-7.53,9.37v0Z" transform="translate(140.02 -689.63)"/><path class="cls-2" d="M-109.23,774.31c-11.18,0-18.63-7.19-18.63-17.94s7.45-18,18.63-18,18.63,7.19,18.63,18S-98,774.31-109.23,774.31Zm0-25.89c-4.3,0-7.19,3.2-7.19,8s2.89,8,7.19,8,7.19-3.2,7.19-8S-104.93,748.42-109.23,748.42Z" transform="translate(140.02 -689.63)"/><path class="cls-2" d="M-58.23,739.13a.86.86,0,0,1,.89.85v20.84c0,8.84-5,13.49-14.48,13.49s-14.37-4.65-14.48-13.49V740a.9.9,0,0,1,.89-.85h9a.87.87,0,0,1,.89.85v21.74a3.35,3.35,0,0,0,3.67,3.65,3.34,3.34,0,0,0,3.68-3.6V740a.9.9,0,0,1,.89-.85Z" transform="translate(140.02 -689.63)"/><path class="cls-2" d="M-25.48,739.13a.67.67,0,0,1,.73.7l-.79,7.59a.87.87,0,0,1-.84.7h-7.81v24.79a.74.74,0,0,1-.74.7h-9.29a.78.78,0,0,1-.78-.7V748.12h-8.71a.74.74,0,0,1-.74-.7v-7.54a.78.78,0,0,1,.74-.75Z" transform="translate(140.02 -689.63)"/><path class="cls-2" d="M-18.66,763.12c.16-.5.52-.65.94-.4a20.55,20.55,0,0,0,7.3,2.4c1.67,0,2.78-.75,2.78-1.9,0-3-14.75-2.8-14.75-13.7,0-6.7,5.3-11.14,13.28-11.14A23.54,23.54,0,0,1,2.64,742c.42.25.58.64.42.89l-3.31,7a.59.59,0,0,1-.94.4,21.81,21.81,0,0,0-7.4-2.6c-1.62,0-2.67.7-2.67,1.8,0,3,14.84,2.75,14.84,13.75,0,6.64-5.4,11.09-13.48,11.09-4.41,0-9-1.3-11.65-3.3-.42-.3-.57-.65-.42-.9Z" transform="translate(140.02 -689.63)"/><path class="cls-2" d="M17.86,739.13a.76.76,0,0,1,.79.75v33a.75.75,0,0,1-.79.7H8.57a.77.77,0,0,1-.73-.7v-33a.77.77,0,0,1,.73-.75Z" transform="translate(140.02 -689.63)"/><path class="cls-2" d="M36.64,739.13c11.13,0,18.52,6.84,18.52,17.24s-7.39,17.24-18.52,17.24H24.47a.77.77,0,0,1-.73-.75v-33a.77.77,0,0,1,.73-.75Zm.63,25.49c4,0,6.77-3.3,6.77-8.25s-2.73-8.25-6.77-8.25H34.54v16.5Z" transform="translate(140.02 -689.63)"/><path class="cls-2" d="M84.55,764.62a.75.75,0,0,1,.79.65v7.64a.79.79,0,0,1-.79.7H60.15a1.05,1.05,0,0,1-.84-.75v-33a.65.65,0,0,1,.74-.7H83.92a.8.8,0,0,1,.84.7v7.54a.77.77,0,0,1-.84.75H70.23v4H81.35a.61.61,0,0,1,.68.65l-.73,7a.92.92,0,0,1-.9.65H70.23v4.25Z" transform="translate(140.02 -689.63)"/><path class="cls-2" d="M-98.55,781.77a.69.69,0,0,1,.75.71l-.8,7.69a.88.88,0,0,1-.85.71h-7.91V816a.75.75,0,0,1-.74.71h-9.4a.8.8,0,0,1-.8-.71V790.88h-8.81a.75.75,0,0,1-.75-.71v-7.64a.8.8,0,0,1,.75-.76Z" transform="translate(140.02 -689.63)"/><path class="cls-2" d="M-65,781.77a.77.77,0,0,1,.79.76V816a.76.76,0,0,1-.79.71h-9.93a.75.75,0,0,1-.75-.71V804.64h-7.43V816a.76.76,0,0,1-.8.71h-9.93a.78.78,0,0,1-.74-.71V782.53a.79.79,0,0,1,.74-.76h9.93a.77.77,0,0,1,.8.76v13.21h7.43V782.53a.76.76,0,0,1,.75-.76Z" transform="translate(140.02 -689.63)"/><path class="cls-2" d="M-33.6,807.57a.76.76,0,0,1,.8.66V816a.81.81,0,0,1-.8.71H-58.29a1.07,1.07,0,0,1-.85-.76V782.48a.66.66,0,0,1,.74-.71h24.16a.81.81,0,0,1,.85.71v7.64a.78.78,0,0,1-.85.76H-48.1v4h11.26a.62.62,0,0,1,.69.65l-.74,7.08a.93.93,0,0,1-.91.66H-48.1v4.3Z" transform="translate(140.02 -689.63)"/><path class="cls-2" d="M-3.55,781.77c7,0,11.58,4,11.58,9.87,0,3.64-1.86,6.32-4.73,7.13,3.35.81,5.53,3.84,5.53,8,0,5.92-4.62,9.87-11.53,9.87H-19.53a.75.75,0,0,1-.74-.71V782.53a.79.79,0,0,1,.74-.76ZM-6,795.48a2.36,2.36,0,0,0,2.66-2.32A2.36,2.36,0,0,0-6,790.83H-9.33v4.65Zm1,12.14a2.38,2.38,0,0,0,2.6-2.43A2.38,2.38,0,0,0-5,802.77h-4.3v4.85Z" transform="translate(140.02 -689.63)"/><path class="cls-2" d="M31.5,817.38c-11.31,0-18.85-7.28-18.85-18.15S20.19,781,31.5,781s18.85,7.28,18.85,18.26S42.81,817.38,31.5,817.38Zm0-26.2c-4.35,0-7.27,3.24-7.27,8.05s2.92,8,7.27,8,7.28-3.24,7.28-8S35.86,791.18,31.5,791.18Z" transform="translate(140.02 -689.63)"/><path class="cls-2" d="M85.24,815.87c.27.45,0,.81-.58.81H73.56a1.57,1.57,0,0,1-1.22-.81L68,807.42l-4.35,8.45a1.57,1.57,0,0,1-1.22.81H51.31c-.53,0-.85-.36-.58-.81l9.5-16.64-9.5-16.65c-.27-.45.05-.81.58-.81h11a1.6,1.6,0,0,1,1.22.81l4.4,9,4.41-9a1.57,1.57,0,0,1,1.22-.81h11c.53,0,.85.36.58.81l-9.5,16.65Z" transform="translate(140.02 -689.63)"/><rect class="cls-3" x="246.65" y="86.58" width="38.38" height="38.38"/><rect class="cls-3" x="323.41" y="86.58" width="38.38" height="38.38"/><rect class="cls-3" x="285.03" y="86.58" width="38.38" height="38.38"/><rect class="cls-3" x="246.65" y="9.82" width="38.38" height="38.38"/><rect class="cls-3" x="285.03" y="9.82" width="38.38" height="38.38"/><rect class="cls-3" x="323.41" y="9.82" width="38.38" height="38.38"/><rect class="cls-3" x="246.65" y="48.2" width="38.38" height="38.38"/><rect class="cls-3" x="285.03" y="48.2" width="38.38" height="38.38"/><rect class="cls-3" x="323.41" y="48.2" width="38.38" height="38.38"/><path class="cls-2" d="M138.08,733.35c-3.3-2.76-9.36-10.29-12.66-13.06-2.85,2.68-8.07,9.9-10.92,12.57L113,731.75l11-13-10.12-10.66,1.87-3.52h.62l10.48,10.83,9.94-11.5h.67v2.37c-2.32,2.18-6.87,8.42-9.23,10.65l10.34,10.74v5.66Z" transform="translate(140.02 -689.63)"/><path class="cls-2" d="M176.46,810.11c-3.3-2.76-9.36-10.3-12.66-13.06-2.86,2.68-8.07,9.9-10.92,12.57l-1.48-1.11,11-13L152.3,784.88l1.87-3.52h.62l10.48,10.83,9.94-11.5h.67v2.36c-2.32,2.19-6.87,8.43-9.23,10.66L177,804.45v5.66Z" transform="translate(140.02 -689.63)"/><path class="cls-2" d="M138.08,771.73c-3.3-2.76-9.36-10.29-12.66-13.06-2.85,2.68-8.07,9.9-10.92,12.57L113,770.13l11-13L113.92,746.5l1.87-3.52h.62l10.48,10.83,9.94-11.5h.67v2.37c-2.32,2.18-6.87,8.42-9.23,10.65l10.34,10.74v5.66Z" transform="translate(140.02 -689.63)"/><path class="cls-2" d="M214.83,771.73c-3.29-2.76-9.36-10.29-12.65-13.06-2.86,2.68-8.07,9.9-10.93,12.57l-1.47-1.11,11-13L190.67,746.5l1.88-3.52h.62l10.48,10.83,9.94-11.5h.66v2.37c-2.31,2.18-6.86,8.42-9.22,10.65l10.34,10.74v5.66Z" transform="translate(140.02 -689.63)"/><path class="cls-2" d="M214.83,733.35c-3.29-2.76-9.36-10.29-12.65-13.06-2.86,2.68-8.07,9.9-10.93,12.57l-1.47-1.11,11-13-10.12-10.66,1.88-3.52h.62l10.48,10.83,9.94-11.5h.66v2.37c-2.31,2.18-6.86,8.42-9.22,10.65l10.34,10.74v5.66Z" transform="translate(140.02 -689.63)"/><path class="cls-4" d="M177,754c0,11.1-8.07,17.69-17.32,17.69-5.33,0-8.27-3.65-8.27-11.45,0-9.36,6.44-18,17.63-18,6.17,0,8,4.91,8,11.68Zm-1.48-.45c0-4.15-2-6.69-6.44-6.69-10.7,0-16.18,8.43-16.18,13.42,0,4.73,2.25,6.82,7.23,6.82,8.68,0,15.39-6.86,15.39-13.5Z" transform="translate(140.02 -689.63)"/><path class="cls-4" d="M138.61,792.41c0,11.1-8.07,17.7-17.32,17.7-5.33,0-8.26-3.65-8.26-11.45,0-9.37,6.43-18,17.62-18,6.17,0,8,4.9,8,11.68Zm-1.48-.44c0-4.15-2-6.69-6.44-6.69-10.7,0-16.18,8.43-16.18,13.42,0,4.72,2.25,6.82,7.24,6.82,8.68,0,15.38-6.86,15.38-13.51Z" transform="translate(140.02 -689.63)"/><path class="cls-4" d="M177,715.66c0,11.1-8.07,17.69-17.32,17.69-5.33,0-8.27-3.65-8.27-11.45,0-9.36,6.44-18,17.63-18,6.17,0,8,4.91,8,11.68Zm-1.48-.45c0-4.14-2-6.68-6.44-6.68-10.7,0-16.18,8.42-16.18,13.41,0,4.73,2.25,6.82,7.23,6.82,8.68,0,15.39-6.86,15.39-13.5Z" transform="translate(140.02 -689.63)"/><path class="cls-4" d="M215.37,792.41c0,11.1-8.07,17.7-17.32,17.7-5.33,0-8.27-3.65-8.27-11.45,0-9.37,6.44-18,17.63-18,6.17,0,8,4.9,8,11.68Zm-1.49-.44c0-4.15-2-6.69-6.43-6.69-10.7,0-16.18,8.43-16.18,13.42,0,4.72,2.24,6.82,7.23,6.82,8.68,0,15.38-6.86,15.38-13.51Z" transform="translate(140.02 -689.63)"/><path class="cls-4" d="M247.78,827c0,11.1-8.07,17.7-17.32,17.7-5.33,0-8.26-3.66-8.26-11.46,0-9.36,6.43-18,17.63-18,6.16,0,7.95,4.9,7.95,11.68Zm-1.48-.44c0-4.15-2-6.69-6.44-6.69-10.69,0-16.18,8.42-16.18,13.42,0,4.72,2.25,6.82,7.24,6.82,8.68,0,15.38-6.87,15.38-13.51Z" transform="translate(140.02 -689.63)"/><line class="cls-4" x1="290.13" y1="52.9" x2="387.36" y2="150.13"/><polyline class="cls-4" points="289.66 53.38 386.88 150.6 387.83 149.66 290.61 52.43"/></svg>