<svg id="Layer_1" data-name="Layer 1" xmlns="http://www.w3.org/2000/svg" viewBox="0 0 512 251.7"><defs><style>.cls-1{fill:#fff;}.cls-2{fill:red;stroke:#000;stroke-miterlimit:10;stroke-width:0.25px;}</style></defs><title>box &amp;amp; me 2.0</title><rect class="cls-1" width="512" height="251.7"/><path class="cls-2" d="M19.89,74v29H17.34V74.43L5.77,75.88V70.44L17.34,69V56.83h2.55V68.57L32.66,67v5.44Z" transform="translate(42 -33.31)"/><path class="cls-2" d="M58.45,103V75.12c0-1.79-.77-2.64-3.23-2.64-4.26,0-10.72,2.55-15.57,6V103H37.09V49.43h2.56V73c4.17-2.89,11.06-6.13,16.59-6.13,3,0,4.76,1.19,4.76,4.35V103Z" transform="translate(42 -33.31)"/><path class="cls-2" d="M70.71,62.7V51.3h2.56V62.7Zm0,40.32V68.14h2.56V103Z" transform="translate(42 -33.31)"/><path class="cls-2" d="M104.58,103V75.72c0-2.3-.68-3.24-2.38-3.24-5.19,0-10.64,2-16.34,6V103H83.31V68.14h2.55V73c5.19-3.49,11.06-6.13,16.93-6.13A4.1,4.1,0,0,1,107.22,71v32Z" transform="translate(42 -33.31)"/><path class="cls-2" d="M143.39,104.38,119.57,88.05v15h-2.64V49.43h2.64V80.65L141.86,67l1.62,1.87-22.63,14,23.48,15.91v5.61Z" transform="translate(42 -33.31)"/><path class="cls-2" d="M-.29,158c0,15.31-12.25,22.12-21.43,22.12-5.36,0-9.45-3.58-9.45-13.79,0-15,11.4-22.79,20.84-22.79,6.47,0,10,3.06,10,14.37Zm-2.55-.85c0-5.88-2-8.17-7.49-8.17-10,0-18.2,9.44-18.2,17.87,0,5.36,2.3,7.82,7.06,7.82,8.76,0,18.63-6.89,18.63-17.44Z" transform="translate(42 -33.31)"/><path class="cls-2" d="M10.11,144.38v27.56c0,1.79,1.79,2.72,4.42,2.72a20.92,20.92,0,0,0,14.38-6.29v-24h2.55v34.88H28.91v-5.53a20.93,20.93,0,0,1-14.63,6.38c-3.06,0-6.72-.85-6.72-5.88V144.38Z" transform="translate(42 -33.31)"/><path class="cls-2" d="M51.13,150.25v29H48.58V150.67L37,152.12v-5.45l11.57-1.45V133.06h2.55V144.8l12.77-1.53v5.45Z" transform="translate(42 -33.31)"/><path class="cls-2" d="M91.81,149.82a25.93,25.93,0,0,0-7.57-.85c-7.91,0-16.08,4.51-16.08,8.43,0,1.27,1.36,2.2,4.34,2.2a49.37,49.37,0,0,0,7.23-1c2-.34,6.21-.94,7.4-.94,6.55,0,8,3.91,8,8.25,0,7.83-6.72,14.21-19.23,14.21a41.53,41.53,0,0,1-11.23-1.79v-5.44h.94a37.37,37.37,0,0,0,10.72,1.78c10.72,0,16.25-4.93,16.25-8.5,0-1.87-1-3.32-5.7-3.32a56.2,56.2,0,0,0-7,.93c-2,.34-5.87.94-7,.94-5.79,0-7.32-3.06-7.32-7.23,0-7.57,8.85-13.95,20-13.95a26.33,26.33,0,0,1,7.15.85v5.44Z" transform="translate(42 -33.31)"/><path class="cls-2" d="M102.72,138.93v-11.4h2.55v11.4Zm0,40.33V144.38h2.55v34.88Z" transform="translate(42 -33.31)"/><path class="cls-2" d="M141.94,150.67v28.59h-2.63v-5.87a20.19,20.19,0,0,1-14.38,6.72c-7.23,0-11.82-4.85-11.82-14.64,0-14.71,8.33-21.94,20.33-21.94a21.87,21.87,0,0,1,5.87.85V125.66h2.63v19.82l1.36.69v5.27Zm-2.63-.85A23,23,0,0,0,133,149c-10.89,0-17.27,7-17.27,16.16,0,6.13,3.4,9.53,9.36,9.53A20.17,20.17,0,0,0,139.31,168Z" transform="translate(42 -33.31)"/><path class="cls-2" d="M181.27,159.35c-4.77,1.11-23.4,4.85-29.53,6,0,6.8,3.58,9.35,9.88,9.35a32.3,32.3,0,0,0,15.56-4.34h.94v4.94a35.72,35.72,0,0,1-16.67,4.85c-6.64,0-12.25-3.4-12.25-14,0-14.38,9.1-22.63,20.84-22.63,7.4,0,10.29,4.93,10.63,11.82l.6-.08ZM178,156c0-3.74-2.38-7-8.42-7-8.76,0-14.63,4.59-17.44,12.08Z" transform="translate(42 -33.31)"/><path class="cls-2" d="M-23,226v29H-25.6V226.4l-11.57,1.44V222.4L-25.6,221V208.79H-23v11.74L-10.28,219v5.44Z" transform="translate(42 -33.31)"/><path class="cls-2" d="M15.5,255v-27.9c0-1.79-.76-2.64-3.23-2.64-4.25,0-10.72,2.55-15.57,6V255H-5.85V201.39H-3.3V225c4.17-2.89,11.06-6.13,16.59-6.13,3,0,4.77,1.2,4.77,4.35V255Z" transform="translate(42 -33.31)"/><path class="cls-2" d="M57.63,235.07c-4.76,1.11-23.39,4.85-29.52,6,0,6.8,3.58,9.36,9.87,9.36a32.37,32.37,0,0,0,15.57-4.34h.94V251a35.85,35.85,0,0,1-16.68,4.84c-6.63,0-12.25-3.4-12.25-14,0-14.38,9.1-22.63,20.84-22.63,7.4,0,10.3,4.94,10.64,11.83l.59-.09Zm-3.23-3.4c0-3.74-2.38-7-8.42-7-8.76,0-14.63,4.59-17.44,12.08Z" transform="translate(42 -33.31)"/><path class="cls-2" d="M90.16,224.78c4.77-3.57,9.79-5.53,14.72-5.53,7.57,0,10.29,5.45,10.29,14.21,0,15-8.16,22.29-19,22.29a22.2,22.2,0,0,1-9.52-2.38v-5.62l.93.51V201.39h2.55Zm0,24.5a18.6,18.6,0,0,0,6.38,1c10,0,16-7.15,16-16.68,0-4.51-1.79-8.93-8-8.93-4.25,0-8.84,1.53-14.38,5.53Z" transform="translate(42 -33.31)"/><path class="cls-2" d="M151.69,233.72c0,15.31-12.25,22.11-21.44,22.11-5.36,0-9.44-3.57-9.44-13.78,0-15,11.4-22.8,20.84-22.8,6.47,0,10,3.07,10,14.38Zm-2.55-.86c0-5.87-2-8.16-7.49-8.16-10,0-18.21,9.44-18.21,17.86,0,5.36,2.3,7.83,7.07,7.83,8.76,0,18.63-6.89,18.63-17.44Z" transform="translate(42 -33.31)"/><path class="cls-2" d="M186.33,255.58l-15.57-15.82c-2.38,1.69-11.4,14.37-13.78,16.07l-2.12-1.44,14-16.76c-2.21-1.36-10.38-11.48-12.59-12.85v-6.12h.94c2.55,1.53,12.25,13.53,14.71,15.14l13-15.14h.94v3.14l-12,13.95,13.36,13.71v6.12Z" transform="translate(42 -33.31)"/><path d="M232.05,57.05H418v2q0,85.22,0,170.43a2.82,2.82,0,0,0,.24,1.54c2.4,3.17,4.87,6.29,7.34,9.46a53.6,53.6,0,0,1,4.64-3.24c7.38-4.13,16.19-2.87,23.11,3.23a23.94,23.94,0,0,1,8,14.62c.17,1.07-.41,2.27-.68,3.4-.08.34-.38.66-.38,1,.12,5.18-2.71,9-5.8,12.7-.54.65-1.13,1.26-1.68,1.9a1.56,1.56,0,0,0-.15.43c.29.38.62.8.92,1.25a3.18,3.18,0,0,1-.33,4.27c-1.17,1.06-3.26,1.23-4.23-.08-1.34-1.81-2.62-1.55-4.45-1-8.81,2.78-19-.3-24.13-7.21-3.9-5.25-4.34-11.18-2.8-17.28a33.24,33.24,0,0,1,3-7.15c.71-1.34.75-2.26-.28-3.33-.71-.73-1.3-1.58-2.22-2.72.27,2.78-1.29,2.64-3,2.64q-90.22,0-180.45,0c-.83,0-1.67,0-2.62,0Zm7.45,63.35h54.72V65.67H239.5Zm57.75,115.15H352V180.91H297.25Zm-3-57.54V123.32H239.5V178Zm60.87-54.71a7.18,7.18,0,0,0-.09.73q0,19.5,0,39a3,3,0,0,0,.83,1.85c3.88,4.06,7.83,8,11.72,12.1a3.83,3.83,0,0,0,3,1.19c12.49,0,25,0,37.46,0,.58,0,1.17-.06,1.81-.1V123.3Zm54.77-2.89V65.63H355.1v54.78Zm-57.8-54.77H297.28v54.77h54.78ZM294.25,180.88H239.5v54.7h54.75Zm57.9-2.86a38.85,38.85,0,0,1,0-4.34,6.71,6.71,0,0,0-2.29-6.09c-1.72-1.62-3.16-3.52-4.8-5.39-.8,1.22-1.36,2.23-2.07,3.11-4.63,5.75-10.87,7.38-17.82,6.53-8.91-1.1-15.18-6-18.42-14.37-3.18-8.17-1.88-15.82,4-22.44,1.66-1.87,3.81-3.31,5.67-5a2.34,2.34,0,0,0,.86-1.64,3.24,3.24,0,0,1,1.92-3.65c1.52-.85,2.74-.17,3.63,1a1.86,1.86,0,0,0,2.15.72c4-.69,8-.68,11.24,2,2.63,2.18,5.36,4.73,6.84,7.71,2.65,5.4,4.59,11.19,4,17.45a2,2,0,0,0,.12,1.22c1.48,1.84,3,3.62,4.79,5.69V123.32H297.26V178Zm20.74,13a3.72,3.72,0,0,0-.39-.56l-9.4-9c-.25-.24-.58-.55-.88-.55-2.38-.05-4.76,0-7.09,0v54.59h54.71c-.12-1.93.35-4-.43-5.18a110,110,0,0,0-7.06-9c-3.94,5.66-8.89,9.38-15.7,9.84s-12.4-2.26-17.23-6.93C361,216.06,359.16,200.73,372.89,191ZM320.16,134.2c-1.34,1.06-2.48,1.85-3.5,2.77-5.72,5.14-7.39,12.06-4.6,18.85A17.1,17.1,0,0,0,329,166.44c5.06-.35,9.19-2.27,11.26-7.37a2.57,2.57,0,0,0-.62-3.19C332.93,149,325.34,142.87,320.16,134.2Zm65.95,91.37c3.85-.61,8.46-1.58,10.34-7a1.87,1.87,0,0,1,.65-.85c1.18-.88.79-1.63-.06-2.5q-9.24-9.42-18.42-18.9a1.83,1.83,0,0,0-2.76-.28c-5.86,3.77-8.71,10.64-6.9,16.87A18.33,18.33,0,0,0,386.11,225.57Zm23.23-5.7.45-.13V181H371.73c2.67,2.53,5,4.79,7.39,7a2.29,2.29,0,0,0,1.66.25,20.17,20.17,0,0,1,17.83,5.46c6,5.58,9.27,12.28,7.12,20.77a2,2,0,0,0,.26,1.48C407.05,217.25,408.22,218.54,409.34,219.87Zm39.28,50.18a41.76,41.76,0,0,0,2.87-3.19c1.7-2.31,3.67-4.53,3-7.81-.11-.56.43-1.22.58-1.86a6.1,6.1,0,0,0,.41-2.63,18.53,18.53,0,0,0-10.71-12.45q-7.72-3.48-14.34,2c-1.1.91-1,1.51-.21,2.48,1.16,1.38,2.21,2.86,3.32,4.29ZM443,273.17l-17.7-22.53c-3.5,5.11-3.69,12.46-.57,16.93C428.29,272.67,435.89,275.07,443,273.17Zm-102.07-125,.46-.24c-1.16-3.58-2.11-7.25-3.6-10.69-.63-1.45-2.38-2.43-3.67-3.56-2.19-1.93-5.57-2.54-7.71-1.36C330.46,138.31,335.64,143.26,340.92,148.13Zm59.76,60.4c1.06-5.69-9.15-16.1-15.57-14.67Zm-41.52-30.48L355.11,174v4.05Z" transform="translate(42 -33.31)"/><path d="M264.11,86.37c3.89-5,7.65-9.91,11.42-14.77a11.35,11.35,0,0,1,1.08-1.22,2.88,2.88,0,1,1,4.29,3.83c-2,2.55-4.15,5-6.11,7.62-2.14,2.84-4.11,5.82-6.21,8.69a1.43,1.43,0,0,0,.09,2.18c2.53,2.58,5,5.26,7.55,7.79,3.59,3.51,7.1,7.08,9.57,11.5.4.71.93,1.74.68,2.33a4.38,4.38,0,0,1-2.17,2.47,3.22,3.22,0,0,1-2.9-1.07c-3.13-5.69-8.07-9.72-12.51-14.21-1.48-1.49-2.89-3-4.45-4.68-2.14,3.18-4.2,6.27-6.28,9.35-.85,1.25-1.7,2.5-2.6,3.71-1.33,1.82-3,2.23-4.48,1.14s-1.46-2.74-.27-4.5c3.06-4.49,6.07-9,9.17-13.46a1.84,1.84,0,0,0,0-2.53c-3.53-4.82-6.83-9.81-11.62-13.56a2.76,2.76,0,0,1-.34-4,2.72,2.72,0,0,1,4-.3c2.68,2.5,5.27,5.11,7.72,7.85C261.36,82.31,262.68,84.42,264.11,86.37Z" transform="translate(42 -33.31)"/><path d="M330.58,207.73c5.35,4.77,10.5,9.39,15.7,14a13.08,13.08,0,0,0,2.51,1.41,2.88,2.88,0,0,1,1.51,3.79c-.69,1.68-1.72,2.28-3.51,1.54a18.77,18.77,0,0,1-5-2.86c-3.9-3.33-7.62-6.86-11.4-10.32-1.07-1-2.09-2-3.3-3.15-4.59,6.18-11.22,10.67-15.13,17.56a2.85,2.85,0,1,1-5-2.73,114.57,114.57,0,0,1,7.16-9.28c2.84-3.27,5.95-6.31,9-9.54a16.42,16.42,0,0,0-1.24-1.38c-4.81-4.2-9.62-8.42-14.48-12.58-1.65-1.42-2.09-2.93-1-4.36s2.78-1.67,4.44-.29c5.35,4.41,10.63,8.9,16.34,13.71a6.08,6.08,0,0,1,.63-1.11c3.21-4,6.4-8,9.68-12a33.53,33.53,0,0,1,4.05-4.12,2.73,2.73,0,0,1,4,.45,3,3,0,0,1-.32,3.94C340.5,196,335.77,201.61,330.58,207.73Z" transform="translate(42 -33.31)"/><path d="M264.13,150c-4.57-4.31-8.9-8.43-13.29-12.48a21.68,21.68,0,0,0-3.07-2.2,2.91,2.91,0,0,1-1.32-3.72,2.88,2.88,0,0,1,3.61-1.59,11,11,0,0,1,3.2,2c4,3.65,8,7.39,11.93,11.1.88.82,1.78,1.62,3.16,2.88a9.91,9.91,0,0,1,1.09-1.77c4.92-5.15,9.85-10.3,14.85-15.37a4.23,4.23,0,0,1,2.75-1.37,3.84,3.84,0,0,1,2.47,1.72c.81,1.22.14,2.41-.82,3.39-3.3,3.37-6.6,6.72-9.87,10.11-2,2-3.89,4.12-6,6.36,1.18.86,2.3,1.64,3.38,2.46,4.43,3.34,8.88,6.66,13.26,10.06,1.67,1.3,1.89,2.88.86,4.27s-2.89,1.45-4.61.13c-5.5-4.23-11-8.41-17.08-13a10.76,10.76,0,0,1-1.12,1.83q-6.63,7.06-13.32,14.08c-1.56,1.64-3.32,1.8-4.59.56s-1.15-2.92.46-4.61Z" transform="translate(42 -33.31)"/><path d="M383.86,154.51c-1.68,1.84-3.11,3.48-4.61,5-2.3,2.39-4.68,4.7-7,7.1a28.21,28.21,0,0,0-2.73,3.34c-.94,1.37-2.2,1.91-3.53,1.3a2.52,2.52,0,0,1-1.23-3.64,41.63,41.63,0,0,1,4.51-5.59c3.57-3.83,7.25-7.56,10.95-11.4l-12.51-15.72a4.64,4.64,0,0,0-.38-.39c-1.35-1.44-1.49-3-.37-4.16s2.8-1.14,4.25.44c1.71,1.87,3.33,3.83,4.9,5.82,2.53,3.22,5,6.5,7.58,9.9.56-.51,1-.83,1.32-1.21,3.65-4,7.23-8.11,11-12a65.52,65.52,0,0,1,6.43-5.79,2.51,2.51,0,0,1,3.93.55c.89,1.32.5,2.84-.95,3.92a24.14,24.14,0,0,0-3.22,2.61c-4.86,5.29-9.64,10.64-14.58,16.1,3.57,4.33,7.19,8.74,10.85,13.12a7.53,7.53,0,0,0,1.48,1,2.59,2.59,0,0,1,1.13,3.29,2.33,2.33,0,0,1-3,1.6,8.29,8.29,0,0,1-3.32-2c-2.17-2.33-4.15-4.86-6.18-7.32C387,158.49,385.54,156.6,383.86,154.51Z" transform="translate(42 -33.31)"/><path d="M382.22,97.66c-4.17,4-8.28,7.7-12.16,11.65a24,24,0,0,0-3.38,5,2.87,2.87,0,0,1-3.42,1.67c-1.58-.39-2.5-1.6-2.05-3.11a12.85,12.85,0,0,1,2.41-5c3.19-3.52,6.68-6.77,10.05-10.14,1.49-1.48,3-3,4.63-4.65L363.48,78.23c-.25-.25-.54-.48-.79-.74-1.4-1.44-1.5-3.22-.25-4.5a3,3,0,0,1,4.37,0q4,3.72,7.78,7.59c2.5,2.53,4.92,5.14,7.37,7.7.13,0,.29,0,.35-.07q8.43-8.7,16.83-17.44a2.88,2.88,0,0,1,4.18-.42,2.79,2.79,0,0,1,.17,4.19c-3.5,3.67-7.14,7.19-10.67,10.82-2.3,2.37-4.51,4.83-6.91,7.41l16.26,17.12c.29.3.61.59.89.89,1.47,1.58,1.54,3.37.2,4.65s-3,1.2-4.5-.3q-5.44-5.56-10.8-11.22C386.05,101.91,384.21,99.83,382.22,97.66Z" transform="translate(42 -33.31)"/><path d="M345.08,94.09a22.13,22.13,0,0,1-2.75,11.3c-4.25,7.44-13,10.55-22,7.88C306.4,109.15,300.75,95.43,307.42,82a21.73,21.73,0,0,1,9.64-10.2,9.43,9.43,0,0,1,3.23-.42c.4,0,.84.13,1.2,0a12.3,12.3,0,0,1,8.14.46C339.69,75.4,344.93,83,345.08,94.09Zm-5.71.32c-.1-1.13-.16-2.16-.28-3.18-.89-7.41-5.41-12.58-12.66-14.25-1.13-.25-2.42.2-3.64.31-.7.06-1.55.37-2.07.08-1.12-.61-1.83-.1-2.61.48a18.89,18.89,0,0,0-6.88,10.36c-2.69,9.41,1.83,17.24,11.29,19.68C330.7,110,337.29,106,339,97.9,339.21,96.73,339.24,95.51,339.37,94.41Z" transform="translate(42 -33.31)"/><path d="M245.62,206.64c0-4.17.54-8.27,2.65-11.89,1.25-2.13,2.78-4.58,4.83-5.68,5.32-2.84,11.1-5,17.28-3.78a23.18,23.18,0,0,1,14.23,36.4c-5.62,7.94-15.42,10.44-25,6.23C250.38,223.88,245.65,216.78,245.62,206.64Zm5.56-.73c0,9.24,5.14,15.78,13.61,17.87,6.45,1.59,11.93-.4,15.47-5.72a18.17,18.17,0,0,0,2.71-14c-1.11-5.7-4.47-9.47-9.73-12-4.68-2.2-8.89-2.06-13.06,1a2.54,2.54,0,0,1-2,.46c-1.55-.6-2.37.26-3.22,1.21C251.94,198.12,251.39,202.28,251.18,205.91Z" transform="translate(42 -33.31)"/></svg>