<?xml version="1.0" encoding="utf-8"?>
<!-- Generator: Adobe Illustrator 23.0.3, SVG Export Plug-In . SVG Version: 6.00 Build 0)  -->
<svg version="1.1" id="Layer_1" xmlns="http://www.w3.org/2000/svg" xmlns:xlink="http://www.w3.org/1999/xlink" x="0px" y="0px"
	 viewBox="0 0 94.8 66.6" style="enable-background:new 0 0 94.8 66.6;" xml:space="preserve">
<style type="text/css">
	.st0{fill:#FF0000;}
	.st1{fill:#FFFFFF;}
</style>
<text transform="matrix(1 0 0 1 224.1348 211.6336)" style="font-family:'MyriadPro-Regular'; font-size:12px;">23.261 px</text>
<g>
	<path d="M78.2,40.4c0.1,0,0.3,0,0.4,0c0.9,0.1,1.9,0.2,2.8,0.2c0.2,0,0.4-0.1,0.5-0.3c0.1-0.1,0-0.3-0.1-0.4
		c-2-2.8-4.1-5.5-6.1-8.3c-0.7-0.9-0.8-0.9-1.4-0.1c0,0,0,0,0,0c-2.4,2.4-4.9,4.8-7.3,7.2c-0.1,0.1-0.2,0.4-0.2,0.5
		c0.1,0.1,0.3,0.2,0.5,0.3c0.1,0,0.2,0,0.4,0c0.9,0.1,1.9,0.1,2.8,0.2c0.6,3.2-0.1,6.1-2.2,8.6c-2.1,2.5-4.9,3.6-8.2,3.9
		c1.8,0.6,3.6,0.9,5.3,0.8c6-0.1,11-4,12.3-9.7C77.9,42.3,78,41.4,78.2,40.4z"/>
	<circle class="st0" cx="75.6" cy="18.2" r="11.8"/>
	<g>
		<g>
			<path d="M25.7,33.6h-5v9.3h-5.3v-9.3h-5v-3.9h15.2V33.6z"/>
			<path d="M43.7,29.7v13.2h-5.3v-4.7h-6v4.7h-5.3V29.7h5.3v4.5h6v-4.5H43.7z"/>
			<path d="M60.9,39.3v3.6H46.1V29.7h14.6v3.6h-9.5v1.2h7.6v3.3h-7.6v1.4H60.9z"/>
		</g>
		<g>
			<path d="M25.2,55.8c0,2.3-2.3,3.9-6,3.9H7.4V45.4h10.9c3.7,0,6,1.5,6,3.8c0,1.6-1.2,3-3.4,3.2C23.2,52.5,25.2,53.7,25.2,55.8z
				 M13.1,50.9h4.3c0.7,0,1.3-0.3,1.3-1c0-0.7-0.6-1-1.3-1h-4.3V50.9z M19.3,55.1c0-0.7-0.5-1.1-1.4-1.1h-4.9v2.3h4.9
				C18.8,56.3,19.3,55.8,19.3,55.1z"/>
			<path d="M26.3,52.6c0-4.9,3.9-7.7,9.7-7.7c5.8,0,9.7,2.7,9.7,7.7c0,4.9-3.9,7.7-9.7,7.7C30.2,60.2,26.3,57.5,26.3,52.6z M40,52.6
				c0-2-1.5-3.3-3.9-3.3c-2.5,0-3.9,1.2-3.9,3.3c0,2,1.5,3.3,3.9,3.3C38.5,55.9,40,54.6,40,52.6z"/>
			<path d="M57.7,52.4l6.4,7.4h-6.8l-3-3.7l-3,3.7h-6.4l6.3-7.3l-6.1-7h6.8l2.8,3.4l2.8-3.4h6.4L57.7,52.4z"/>
		</g>
	</g>
	<g>
		<path class="st1" d="M77,17.7v3.2h-1.6v-3.1c0-0.9-0.4-1.4-1.3-1.4c-0.8,0-1.4,0.4-1.8,1.2v0.1v2.1l0,1.1h-1.6v-3.1
			c0-0.9-0.4-1.4-1.3-1.4c-0.8,0-1.4,0.4-1.8,1.1v3.4h-1.6v-5.6h1.6v1c0.4-0.7,1.3-1.2,2.3-1.2c1.2,0,1.9,0.6,2.2,1.5
			c0.4-0.9,1.3-1.5,2.4-1.5C76.2,15.2,77,16.3,77,17.7z"/>
		<path class="st1" d="M81.9,20c1,0,1.6-0.3,2.1-0.7l0.8,0.9c-0.8,0.7-1.8,1-3.1,1c-2.3,0-3.6-1.1-3.6-3c0-1.9,1.3-3,3.5-3
			c2,0,3.4,1,3.4,3c0,0.2,0,0.3,0,0.4h-5.3C79.8,19.5,80.6,20,81.9,20z M79.7,17.5l3.8,0c-0.2-0.8-0.9-1.1-1.9-1.1
			C80.7,16.3,80,16.7,79.7,17.5z"/>
	</g>
</g>
</svg>
