<svg id="Layer_1" data-name="Layer 1" xmlns="http://www.w3.org/2000/svg" viewBox="0 0 1344.05 554"><defs><style>.cls-1{fill:#fff;}.cls-2{fill:#1a1a1a;}.cls-3{fill:none;stroke:#1a1a1a;stroke-miterlimit:10;stroke-width:8px;}.cls-4{fill:red;}</style></defs><title>box &amp;amp; me 2.0</title><rect class="cls-1" width="1344.05" height="554"/><path class="cls-2" d="M-483.9,530.48a2,2,0,0,1,2.21,2.11l-2.37,22.89a2.64,2.64,0,0,1-2.53,2.11h-23.55v74.69a2.21,2.21,0,0,1-2.22,2.11h-28a2.36,2.36,0,0,1-2.37-2.11V557.59h-26.24a2.21,2.21,0,0,1-2.22-2.11V532.74a2.35,2.35,0,0,1,2.22-2.26Z" transform="translate(612.05 -495.07)"/><path class="cls-2" d="M-384,530.48a2.28,2.28,0,0,1,2.37,2.26v99.54a2.25,2.25,0,0,1-2.37,2.11h-29.56a2.21,2.21,0,0,1-2.22-2.11V598.55h-22.13v33.73a2.25,2.25,0,0,1-2.37,2.11h-29.56a2.33,2.33,0,0,1-2.22-2.11V532.74a2.35,2.35,0,0,1,2.22-2.26h29.56a2.28,2.28,0,0,1,2.37,2.26v39.31h22.13V532.74a2.24,2.24,0,0,1,2.22-2.26Z" transform="translate(612.05 -495.07)"/><path class="cls-2" d="M-336.07,530.48a2.28,2.28,0,0,1,2.37,2.26v99.54a2.25,2.25,0,0,1-2.37,2.11h-28a2.33,2.33,0,0,1-2.22-2.11V532.74a2.35,2.35,0,0,1,2.22-2.26Z" transform="translate(612.05 -495.07)"/><path class="cls-2" d="M-227.62,530.48a2.28,2.28,0,0,1,2.38,2.26v99.54a2.25,2.25,0,0,1-2.38,2.11H-255a4.34,4.34,0,0,1-3.32-2l-27.5-46.83v46.68a2.25,2.25,0,0,1-2.37,2.11h-28a2.21,2.21,0,0,1-2.21-2.11V532.74a2.24,2.24,0,0,1,2.21-2.26h27.35a4.22,4.22,0,0,1,3.64,2l27.35,46.83V532.74a2.35,2.35,0,0,1,2.21-2.26Z" transform="translate(612.05 -495.07)"/><path class="cls-2" d="M-116.63,632.58c.79,1.06.16,1.81-1.1,1.81h-36.68a4.32,4.32,0,0,1-3.32-1.81l-19.6-37.64v37.34a2.25,2.25,0,0,1-2.38,2.11h-28a2.32,2.32,0,0,1-2.21-2.11V532.74a2.35,2.35,0,0,1,2.21-2.26h28a2.28,2.28,0,0,1,2.38,2.26v33.73l19-34.18a4.45,4.45,0,0,1,3.63-1.81h34.62c1.27,0,1.74.75,1.11,1.81L-150.3,580Z" transform="translate(612.05 -495.07)"/><path class="cls-2" d="M-76.47,530.48a2.27,2.27,0,0,1,2.37,2.26v99.54a2.24,2.24,0,0,1-2.37,2.11h-28a2.32,2.32,0,0,1-2.21-2.11V532.74a2.35,2.35,0,0,1,2.21-2.26Z" transform="translate(612.05 -495.07)"/><path class="cls-2" d="M32,530.48a2.28,2.28,0,0,1,2.37,2.26v99.54A2.25,2.25,0,0,1,32,634.39H4.64a4.32,4.32,0,0,1-3.32-2L-26.19,585.6v46.68a2.25,2.25,0,0,1-2.37,2.11h-28a2.21,2.21,0,0,1-2.22-2.11V532.74a2.24,2.24,0,0,1,2.22-2.26h27.35a4.21,4.21,0,0,1,3.63,2L1.79,579.27V532.74A2.35,2.35,0,0,1,4,530.48Z" transform="translate(612.05 -495.07)"/><path class="cls-2" d="M142.82,570.69a2.36,2.36,0,0,1,2.37,2.11v47.89a4.88,4.88,0,0,1-1.9,3.61c-9.49,7.68-24,12.2-39.21,12.2-34.14,0-56.91-21.69-56.91-54.22s22.77-54.21,56.91-54.21c11.7,0,24,3.31,33.2,8.74a2.3,2.3,0,0,1,1.43,2.71l-7.91,22.13a2.45,2.45,0,0,1-3,1.21A52,52,0,0,0,105,557.59c-14.54,0-24.34,9.94-24.34,24.69,0,15.07,9.8,25,24.34,25,5.85,0,9.8-1.06,11.54-2.87v-8.73H102c-1.42,0-2.37-.6-2.53-1.66l-2.06-20.78a2.25,2.25,0,0,1,2.53-2.56Zm-25.3,31.47v0Z" transform="translate(612.05 -495.07)"/><path class="cls-2" d="M-508.58,779.6c-37.55,0-62.59-24.18-62.59-60.29,0-36.44,25-60.63,62.59-60.63S-446,682.87-446,719.31C-446,755.42-471,779.6-508.58,779.6Zm0-87c-14.46,0-24.15,10.75-24.15,26.7S-523,746-508.58,746s24.15-10.74,24.15-26.7S-494.12,692.61-508.58,692.61Z" transform="translate(612.05 -495.07)"/><path class="cls-2" d="M-337.21,661.37a2.91,2.91,0,0,1,3,2.86v70c0,29.72-16.75,45.34-48.66,45.34-31.56,0-48.3-15.62-48.66-45.34v-70a3,3,0,0,1,3-2.86h30.32a2.91,2.91,0,0,1,3,2.86v73c0,7.73,4.58,12.26,12.34,12.26s12.34-4.53,12.34-12.09V664.23a3,3,0,0,1,3-2.86Z" transform="translate(612.05 -495.07)"/><path class="cls-2" d="M-227.19,661.37a2.25,2.25,0,0,1,2.47,2.36l-2.64,25.52a3,3,0,0,1-2.82,2.35h-26.27v83.3a2.47,2.47,0,0,1-2.47,2.35h-31.21a2.63,2.63,0,0,1-2.64-2.35V691.6H-322a2.46,2.46,0,0,1-2.46-2.35V663.89a2.62,2.62,0,0,1,2.46-2.52Z" transform="translate(612.05 -495.07)"/><path class="cls-2" d="M-204.26,742c.53-1.68,1.76-2.18,3.17-1.34,8.11,4.37,17.81,7.56,24.51,8.06,5.64,0,9.34-2.52,9.34-6.38,0-9.91-49.54-9.41-49.54-46,0-22.5,17.81-37.45,44.61-37.45,12.51,0,28.38,4.88,39.49,12.1,1.41.84,1.94,2.18,1.41,3l-11.11,23.68c-.53,1.68-1.76,2.18-3.17,1.34-8.64-4.7-18.69-8.23-24.86-8.73-5.46,0-9,2.35-9,6,0,9.91,49.89,9.24,49.89,46.19,0,22.33-18.16,37.28-45.31,37.28-14.81,0-30.32-4.37-39.14-11.08-1.41-1-1.94-2.19-1.41-3Z" transform="translate(612.05 -495.07)"/><path class="cls-2" d="M-81.55,661.37a2.54,2.54,0,0,1,2.65,2.52v111a2.52,2.52,0,0,1-2.65,2.35h-31.2a2.59,2.59,0,0,1-2.47-2.35v-111a2.62,2.62,0,0,1,2.47-2.52Z" transform="translate(612.05 -495.07)"/><path class="cls-2" d="M-18.43,661.37c37.38,0,62.24,23,62.24,57.94,0,34.6-24.86,57.94-62.24,57.94h-40.9a2.62,2.62,0,0,1-2.47-2.52V663.89a2.62,2.62,0,0,1,2.47-2.52ZM-16.31,747c13.57,0,22.74-11.08,22.74-27.71S-2.74,691.6-16.31,691.6h-9.17V747Z" transform="translate(612.05 -495.07)"/><path class="cls-2" d="M142.54,747a2.51,2.51,0,0,1,2.65,2.18v25.7a2.64,2.64,0,0,1-2.65,2.35h-82c-1.23,0-2.46-1.34-2.82-2.52v-111a2.18,2.18,0,0,1,2.47-2.36h80.22a2.69,2.69,0,0,1,2.82,2.36v25.35a2.59,2.59,0,0,1-2.82,2.52h-46v13.27h37.38a2.05,2.05,0,0,1,2.29,2.18l-2.47,23.51a3.06,3.06,0,0,1-3,2.19H94.41V747Z" transform="translate(612.05 -495.07)"/><path class="cls-2" d="M-472.68,804.68a2.27,2.27,0,0,1,2.5,2.38l-2.68,25.83a3,3,0,0,1-2.85,2.38H-502.3v84.3a2.49,2.49,0,0,1-2.49,2.38h-31.58a2.67,2.67,0,0,1-2.68-2.38v-84.3h-29.62a2.5,2.5,0,0,1-2.5-2.38V807.23a2.65,2.65,0,0,1,2.5-2.55Z" transform="translate(612.05 -495.07)"/><path class="cls-2" d="M-359.91,804.68a2.57,2.57,0,0,1,2.68,2.55V919.57a2.54,2.54,0,0,1-2.68,2.38h-33.37a2.49,2.49,0,0,1-2.49-2.38V881.5h-25v38.07a2.54,2.54,0,0,1-2.68,2.38h-33.36a2.63,2.63,0,0,1-2.5-2.38V807.23a2.65,2.65,0,0,1,2.5-2.55h33.36a2.57,2.57,0,0,1,2.68,2.55v44.36h25V807.23a2.52,2.52,0,0,1,2.49-2.55Z" transform="translate(612.05 -495.07)"/><path class="cls-2" d="M-254.46,891.35a2.54,2.54,0,0,1,2.68,2.21v26a2.67,2.67,0,0,1-2.68,2.38h-83c-1.25,0-2.5-1.36-2.86-2.55V807.06a2.21,2.21,0,0,1,2.5-2.38h81.18a2.72,2.72,0,0,1,2.86,2.38v25.66a2.62,2.62,0,0,1-2.86,2.55h-46.56V848.7h37.82a2.08,2.08,0,0,1,2.32,2.21l-2.5,23.79a3.11,3.11,0,0,1-3,2.21h-34.61v14.44Z" transform="translate(612.05 -495.07)"/><path class="cls-2" d="M-153.47,804.68c23.38,0,38.9,13.25,38.9,33.14,0,12.23-6.25,21.24-15.88,24,11.24,2.72,18.56,12.92,18.56,27,0,19.88-15.53,33.14-38.72,33.14h-56.56a2.49,2.49,0,0,1-2.5-2.38V807.23a2.64,2.64,0,0,1,2.5-2.55Zm-8.2,46.06c5.35,0,8.92-3.06,8.92-7.82s-3.57-7.82-8.92-7.82h-11.24v15.64Zm3.21,40.79c5.17,0,8.74-3.23,8.74-8.16s-3.57-8.16-8.74-8.16h-14.45v16.32Z" transform="translate(612.05 -495.07)"/><path class="cls-2" d="M-35.7,924.33c-38,0-63.34-24.48-63.34-61C-99,826.43-73.7,802-35.7,802s63.34,24.47,63.34,61.35C27.64,899.85,2.3,924.33-35.7,924.33Zm0-88c-14.63,0-24.44,10.88-24.44,27s9.81,27,24.44,27,24.44-10.87,24.44-27S-21.07,836.29-35.7,836.29Z" transform="translate(612.05 -495.07)"/><path class="cls-2" d="M144.87,919.23c.89,1.53-.18,2.72-2,2.72H105.61a5.27,5.27,0,0,1-4.1-2.72L86.88,890.84,72.25,919.23a5.27,5.27,0,0,1-4.1,2.72H30.86c-1.79,0-2.86-1.19-2-2.72l31.94-55.92L28.89,807.4c-.89-1.53.18-2.72,2-2.72H68a5.27,5.27,0,0,1,4.1,2.72l14.81,30.08,14.81-30.08a5.27,5.27,0,0,1,4.1-2.72H142.9c1.79,0,2.86,1.19,2,2.72l-31.94,55.91Z" transform="translate(612.05 -495.07)"/><rect class="cls-3" x="828.78" y="290.91" width="128.96" height="128.96"/><rect class="cls-3" x="1086.7" y="290.91" width="128.96" height="128.96"/><rect class="cls-3" x="957.74" y="290.91" width="128.96" height="128.96"/><rect class="cls-3" x="828.78" y="33" width="128.96" height="128.96"/><rect class="cls-3" x="957.74" y="33" width="128.96" height="128.96"/><rect class="cls-3" x="1086.7" y="33" width="128.96" height="128.96"/><rect class="cls-3" x="828.78" y="161.96" width="128.96" height="128.96"/><rect class="cls-3" x="957.74" y="161.96" width="128.96" height="128.96"/><rect class="cls-3" x="1086.7" y="161.96" width="128.96" height="128.96"/><path class="cls-2" d="M322.4,642c-11.08-9.29-31.45-34.6-42.53-43.89-9.59,9-27.11,33.25-36.7,42.24l-4.94-3.75,37-43.58-34-35.8,6.29-11.83h2.1l35.2,36.4,33.4-38.65h2.25v7.94c-7.79,7.34-23.07,28.31-31,35.8L324.2,623v19Z" transform="translate(612.05 -495.07)"/><path class="cls-2" d="M451.36,899.89c-11.08-9.29-31.45-34.6-42.54-43.88-9.58,9-27.11,33.25-36.69,42.23l-4.94-3.74,37-43.59-34-35.79,6.29-11.84h2.1l35.2,36.4L447.17,801h2.24V809c-7.79,7.34-23.06,28.3-31,35.79l34.75,36.1v19Z" transform="translate(612.05 -495.07)"/><path class="cls-2" d="M322.4,770.93c-11.08-9.28-31.45-34.6-42.53-43.88-9.59,9-27.11,33.25-36.7,42.24l-4.94-3.75,37-43.58-34-35.8,6.29-11.83h2.1l35.2,36.39,33.4-38.64h2.25V680c-7.79,7.34-23.07,28.31-31,35.79l34.75,36.1v19Z" transform="translate(612.05 -495.07)"/><path class="cls-2" d="M580.32,770.93c-11.09-9.28-31.46-34.6-42.54-43.88-9.59,9-27.11,33.25-36.7,42.24l-4.94-3.75,37-43.58-34-35.8,6.29-11.83h2.1l35.19,36.39,33.4-38.64h2.25V680c-7.79,7.34-23.07,28.31-31,35.79l34.74,36.1v19Z" transform="translate(612.05 -495.07)"/><path class="cls-2" d="M580.32,642c-11.09-9.29-31.46-34.6-42.54-43.89-9.59,9-27.11,33.25-36.7,42.24l-4.94-3.75,37-43.58-34-35.8,6.29-11.83h2.1l35.19,36.4,33.4-38.65h2.25v7.94c-7.79,7.34-23.07,28.31-31,35.8L582.11,623v19Z" transform="translate(612.05 -495.07)"/><path class="cls-4" d="M453.16,711.47c0,37.3-27.13,59.46-58.21,59.46-17.91,0-27.76-12.28-27.76-38.49,0-31.45,21.62-60.36,59.23-60.36,20.72,0,26.74,16.48,26.74,39.24Zm-5-1.5c0-13.93-6.78-22.46-21.62-22.46-35.95,0-54.38,28.3-54.38,45.08,0,15.88,7.55,22.92,24.31,22.92,29.17,0,51.69-23.07,51.69-45.39Z" transform="translate(612.05 -495.07)"/><path class="cls-4" d="M324.2,840.43c0,37.29-27.12,59.46-58.21,59.46-17.91,0-27.76-12.28-27.76-38.49,0-31.46,21.62-60.36,59.23-60.36,20.73,0,26.74,16.47,26.74,39.24Zm-5-1.5c0-13.93-6.78-22.47-21.62-22.47-35.95,0-54.37,28.31-54.37,45.09,0,15.87,7.55,22.91,24.31,22.91,29.16,0,51.68-23.06,51.68-45.38Z" transform="translate(612.05 -495.07)"/><path class="cls-4" d="M453.16,582.51C453.16,619.81,426,642,395,642c-17.91,0-27.76-12.29-27.76-38.5,0-31.45,21.62-60.36,59.23-60.36,20.72,0,26.74,16.48,26.74,39.25Zm-5-1.49c0-13.93-6.78-22.47-21.62-22.47-35.95,0-54.38,28.31-54.38,45.08,0,15.88,7.55,22.92,24.31,22.92,29.17,0,51.69-23.07,51.69-45.38Z" transform="translate(612.05 -495.07)"/><path class="cls-4" d="M582.11,840.43c0,37.29-27.12,59.46-58.21,59.46-17.91,0-27.76-12.28-27.76-38.49,0-31.46,21.62-60.36,59.24-60.36,20.72,0,26.73,16.47,26.73,39.24Zm-5-1.5c0-13.93-6.78-22.47-21.62-22.47-36,0-54.37,28.31-54.37,45.09,0,15.87,7.55,22.91,24.31,22.91,29.17,0,51.68-23.06,51.68-45.38Z" transform="translate(612.05 -495.07)"/><path class="cls-4" d="M691,956.61c0,37.29-27.12,59.46-58.21,59.46-17.91,0-27.76-12.28-27.76-38.49,0-31.45,21.62-60.36,59.23-60.36,20.73,0,26.74,16.47,26.74,39.24Zm-5-1.5c0-13.93-6.78-22.46-21.62-22.46-35.95,0-54.37,28.3-54.37,45.08,0,15.87,7.55,22.91,24.3,22.91,29.17,0,51.69-23.06,51.69-45.38Z" transform="translate(612.05 -495.07)"/><line class="cls-4" x1="974.88" y1="177.77" x2="1301.57" y2="504.46"/><polyline class="cls-4" points="973.29 179.36 1299.98 506.05 1303.17 502.86 976.48 176.17"/></svg>