<svg id="Layer_1" data-name="Layer 1" xmlns="http://www.w3.org/2000/svg" viewBox="0 0 1242.89 468.77"><defs><style>.cls-1{fill:#fff;}</style></defs><title>box &amp;amp; me 2.0</title><rect width="1242.89" height="468.77"/><path class="cls-1" d="M79.4,607.13H406.81v3.44q0,150,0,300.06a4.89,4.89,0,0,0,.43,2.72c4.22,5.58,8.56,11.07,12.92,16.65a94,94,0,0,1,8.17-5.71c13-7.27,28.49-5,40.67,5.69a42.16,42.16,0,0,1,14.1,25.74c.29,1.89-.73,4-1.2,6-.14.59-.68,1.15-.67,1.72.21,9.12-4.77,15.84-10.21,22.36-1,1.14-2,2.22-3,3.34a2.82,2.82,0,0,0-.26.75c.51.68,1.09,1.43,1.62,2.2a5.59,5.59,0,0,1-.59,7.52c-2.06,1.88-5.74,2.18-7.45-.14-2.35-3.18-4.6-2.71-7.83-1.7-15.51,4.89-33.43-.53-42.47-12.7-6.87-9.24-7.65-19.67-4.93-30.41a58.65,58.65,0,0,1,5.22-12.58c1.25-2.37,1.33-4-.5-5.88-1.24-1.29-2.27-2.77-3.9-4.79.48,4.9-2.27,4.66-5.28,4.66q-158.85,0-317.69.07H79.4ZM92.53,718.67h96.33V622.3H92.53ZM194.2,921.39h96.45v-96.2H194.2Zm-5.34-101.3V723.81H92.52v96.28ZM296,723.76a12.52,12.52,0,0,0-.17,1.3q0,34.31.05,68.62a5.31,5.31,0,0,0,1.47,3.26c6.83,7.14,13.78,14.16,20.63,21.29a6.71,6.71,0,0,0,5.33,2.1c22-.08,44,0,66-.05,1,0,2.05-.11,3.18-.17V723.76Zm96.41-5.08V622.24H296v96.44ZM290.7,622.25H194.24v96.44H290.7ZM188.91,825.14H92.53v96.3h96.38Zm101.94-5a64.36,64.36,0,0,1,.06-7.65,11.81,11.81,0,0,0-4.05-10.71c-3-2.86-5.56-6.21-8.45-9.49-1.4,2.13-2.38,3.92-3.63,5.47-8.15,10.12-19.15,13-31.39,11.49-15.68-1.93-26.71-10.61-32.42-25.29-5.6-14.39-3.31-27.86,7-39.51,2.92-3.3,6.7-5.83,10-8.83.77-.71,1.65-2,1.51-2.89-.51-3.14.9-5,3.39-6.43,2.67-1.5,4.81-.3,6.39,1.74,1.12,1.45,2.16,1.56,3.79,1.27,7-1.21,14.14-1.2,19.78,3.46,4.64,3.84,9.45,8.33,12,13.59C279.57,755.82,283,766,282,777a3.45,3.45,0,0,0,.22,2.15c2.6,3.23,5.33,6.37,8.44,10V723.8H194.21v96.31ZM327.37,843a6.41,6.41,0,0,0-.7-1q-8.25-8-16.54-15.92c-.44-.42-1-1-1.56-1-4.19-.08-8.38-.05-12.48-.05v96.12h96.32c-.21-3.4.62-7-.76-9.13-3.53-5.49-8-10.34-12.43-15.76-6.93,10-15.65,16.52-27.63,17.33s-21.83-4-30.34-12.21C306.43,887.08,303.19,860.09,327.37,843ZM234.52,743c-2.36,1.86-4.36,3.26-6.15,4.88-10.07,9-13,21.23-8.1,33.18A30.07,30.07,0,0,0,250,799.71c8.89-.6,16.17-4,19.81-13a4.54,4.54,0,0,0-1.09-5.63C257,768.94,243.64,758.22,234.52,743ZM350.63,903.83c6.78-1.08,14.89-2.79,18.2-12.32A3.39,3.39,0,0,1,370,890c2.08-1.55,1.4-2.86-.1-4.39Q353.6,869,337.45,852.34c-1.64-1.7-2.89-1.76-4.86-.49-10.32,6.64-15.34,18.72-12.14,29.7C324,893.86,336.72,903.79,350.63,903.83Zm40.91-10.05.78-.23V825.27h-67c4.69,4.45,8.77,8.43,13,12.24a4,4,0,0,0,2.93.45c12.09-2.08,22.58,1.47,31.39,9.61,10.64,9.83,16.32,21.62,12.53,36.56a3.47,3.47,0,0,0,.47,2.6C387.5,889.16,389.55,891.45,391.54,893.78Zm69.15,88.35c2-2.17,3.7-3.76,5.06-5.61,3-4.08,6.45-8,5.26-13.77-.21-1,.75-2.15,1-3.26.35-1.54,1.1-3.26.72-4.64a32.61,32.61,0,0,0-18.85-21.92c-9.06-4.07-17.5-2.91-25.25,3.51-1.92,1.6-1.81,2.66-.37,4.37,2.05,2.43,3.89,5,5.86,7.54Zm-9.91,5.48C440.27,974.24,430,961.15,419.61,948c-6.15,9-6.49,21.93-1,29.8C424.89,986.75,438.28,991,450.78,987.61ZM271.07,767.48l.82-.42c-2.05-6.3-3.71-12.77-6.34-18.82-1.1-2.55-4.19-4.27-6.46-6.27-3.87-3.39-9.81-4.47-13.58-2.4C252.66,750.2,261.79,758.91,271.07,767.48ZM376.29,873.81c1.86-10-16.11-28.33-27.42-25.82Zm-73.11-53.65L296.06,813v7.14Z" transform="translate(723.51 -569.74)"/><path class="cls-1" d="M135.84,658.74c6.86-8.87,13.48-17.44,20.11-26a20.42,20.42,0,0,1,1.9-2.15,5.06,5.06,0,1,1,7.56,6.74c-3.56,4.5-7.31,8.84-10.76,13.42-3.77,5-7.23,10.24-10.93,15.29-1.08,1.46-1.14,2.53.15,3.84,4.46,4.55,8.75,9.26,13.3,13.71,6.32,6.19,12.49,12.47,16.85,20.26.7,1.24,1.63,3.06,1.2,4.09-.73,1.75-2.22,3.87-3.83,4.36-1.44.43-4.41-.61-5.11-1.89-5.5-10-14.21-17.1-22-25-2.59-2.63-5.09-5.35-7.84-8.24-3.75,5.6-7.39,11.05-11,16.47-1.49,2.21-3,4.39-4.57,6.53-2.34,3.21-5.31,3.93-7.89,2-2.41-1.81-2.58-4.81-.47-7.92,5.37-7.9,10.68-15.85,16.13-23.7a3.25,3.25,0,0,0-.07-4.46c-6.21-8.48-12-17.27-20.46-23.86a4.86,4.86,0,0,1-.59-7.11,4.81,4.81,0,0,1,7.1-.53c4.72,4.4,9.28,9,13.58,13.81C131,651.6,133.32,655.31,135.84,658.74Z" transform="translate(723.51 -569.74)"/><path class="cls-1" d="M252.88,872.42c9.41,8.39,18.48,16.53,27.64,24.56a22.09,22.09,0,0,0,4.42,2.48c2.71,1.45,3.75,4,2.65,6.68-1.22,3-3,4-6.18,2.71a32.77,32.77,0,0,1-8.77-5c-6.86-5.85-13.41-12.07-20.07-18.17-1.87-1.72-3.69-3.51-5.8-5.53C238.68,891,227,898.89,220.12,911a4.78,4.78,0,0,1-6.82,2c-2.41-1.29-3.67-4.42-2-6.82a201.81,201.81,0,0,1,12.6-16.35c5-5.76,10.49-11.1,15.93-16.8a32,32,0,0,0-2.19-2.41c-8.48-7.41-16.94-14.83-25.48-22.16-2.92-2.5-3.69-5.15-1.81-7.68s4.9-2.93,7.83-.51c9.41,7.76,18.7,15.68,28.76,24.14a11.22,11.22,0,0,1,1.11-2c5.64-7,11.26-14.13,17-21.08a58.83,58.83,0,0,1,7.14-7.24,4.8,4.8,0,0,1,7.07.78c1.68,2.1,1.33,4.72-.56,6.93C270.34,851.73,262,861.63,252.88,872.42Z" transform="translate(723.51 -569.74)"/><path class="cls-1" d="M135.89,770.75c-8.06-7.59-15.68-14.83-23.4-22a37.11,37.11,0,0,0-5.41-3.86c-2.43-1.54-3.4-4.08-2.32-6.56a5.06,5.06,0,0,1,6.36-2.79,18.94,18.94,0,0,1,5.63,3.48c7.08,6.42,14,13,21,19.54,1.54,1.44,3.12,2.85,5.55,5.07a17.34,17.34,0,0,1,1.92-3.12c8.67-9.06,17.34-18.13,26.15-27,1.24-1.26,3.26-2.51,4.84-2.42s3.41,1.61,4.34,3c1.43,2.15.25,4.25-1.44,6-5.8,5.92-11.62,11.83-17.38,17.79-3.47,3.59-6.85,7.26-10.57,11.21,2.08,1.51,4,2.88,6,4.32,7.8,5.88,15.63,11.73,23.34,17.72,2.94,2.29,3.32,5.07,1.51,7.51s-5.09,2.56-8.11.24c-9.68-7.44-19.41-14.82-30.07-22.94a19.36,19.36,0,0,1-2,3.22q-11.67,12.45-23.45,24.79c-2.75,2.87-5.85,3.16-8.09,1s-2-5.13.81-8.11Z" transform="translate(723.51 -569.74)"/><path class="cls-1" d="M346.67,778.71c-3,3.25-5.47,6.13-8.12,8.88-4,4.2-8.23,8.28-12.26,12.5a49.16,49.16,0,0,0-4.81,5.88c-1.66,2.41-3.87,3.36-6.21,2.28a4.43,4.43,0,0,1-2.16-6.41A73.05,73.05,0,0,1,321,792c6.29-6.75,12.77-13.32,19.28-20.07l-22-27.68c-.19-.24-.44-.45-.66-.68-2.39-2.54-2.63-5.28-.65-7.33s4.93-2,7.48.78c3,3.29,5.86,6.73,8.62,10.23,4.46,5.68,8.79,11.46,13.35,17.43,1-.88,1.7-1.45,2.32-2.12,6.43-7.07,12.73-14.27,19.33-21.19a114.06,114.06,0,0,1,11.33-10.19c2.58-2.07,5.29-1.45,6.91,1s.87,5-1.66,6.91a40.23,40.23,0,0,0-5.69,4.59c-8.55,9.3-17,18.72-25.65,28.34,6.27,7.62,12.64,15.39,19.09,23.1a12.6,12.6,0,0,0,2.62,1.75c2,1.45,2.93,3.35,2,5.8s-3,3.61-5.33,2.81a14.58,14.58,0,0,1-5.84-3.57c-3.83-4.11-7.31-8.55-10.89-12.89C352.25,785.72,349.62,782.39,346.67,778.71Z" transform="translate(723.51 -569.74)"/><path class="cls-1" d="M343.78,678.62c-7.34,7-14.56,13.56-21.41,20.51-2.46,2.49-4.17,5.79-5.95,8.88-1.42,2.47-3.32,3.6-6,2.94s-4.39-2.82-3.61-5.47c.91-3.08,2.16-6.4,4.25-8.71,5.62-6.21,11.77-11.94,17.7-17.86,2.61-2.61,5.22-5.24,8.15-8.19q-13.11-13.23-26.1-26.3c-.44-.45-1-.85-1.39-1.3-2.46-2.54-2.63-5.67-.44-7.93a5.25,5.25,0,0,1,7.7,0c4.65,4.36,9.2,8.83,13.68,13.36s8.67,9.05,13,13.57c.24,0,.5,0,.62-.12q14.82-15.35,29.63-30.71c2.27-2.36,5.14-2.67,7.36-.74a4.93,4.93,0,0,1,.3,7.38c-6.16,6.45-12.58,12.65-18.79,19.05-4.06,4.17-7.94,8.5-12.16,13l28.62,30.13c.51.54,1.06,1,1.57,1.58,2.58,2.77,2.71,5.93.34,8.18s-5.32,2.11-7.91-.53q-9.6-9.78-19-19.74C350.54,686.1,347.29,682.45,343.78,678.62Z" transform="translate(723.51 -569.74)"/><path class="cls-1" d="M278.4,672.35a39,39,0,0,1-4.85,19.89c-7.48,13.09-22.89,18.57-38.77,13.87-24.47-7.26-34.42-31.41-22.69-55.06,3.83-7.73,9.23-14,17-17.95,1.61-.82,3.77-.57,5.69-.75.7-.06,1.48.25,2.11,0,4.9-1.62,9.66-.82,14.33.82C268.91,639.43,278.13,652.73,278.4,672.35Zm-10.06.55c-.17-2-.27-3.79-.49-5.59-1.56-13-9.52-22.16-22.28-25.08-2-.46-4.26.33-6.4.53-1.24.11-2.74.65-3.66.15-2-1.08-3.22-.19-4.6.84-6.21,4.62-10,10.9-12.1,18.23-4.74,16.57,3.21,30.36,19.88,34.66,14.39,3.71,26-3.31,28.94-17.59C268.06,677,268.12,674.84,268.34,672.9Z" transform="translate(723.51 -569.74)"/><path class="cls-1" d="M103.29,870.49c0-7.34.95-14.57,4.67-20.93,2.2-3.76,4.9-8.07,8.51-10,9.36-5,19.53-8.84,30.42-6.65,29.39,5.91,42.41,39.57,25,64.09-9.89,14-27.13,18.37-44,11C111.67,900.84,103.35,888.34,103.29,870.49Zm9.79-1.29c0,16.28,9,27.79,24,31.47,11.36,2.8,21-.7,27.24-10.07a32,32,0,0,0,4.77-24.66c-2-10-7.87-16.69-17.12-21-8.24-3.88-15.66-3.63-23,1.73a4.48,4.48,0,0,1-3.55.8c-2.72-1.06-4.17.45-5.66,2.13C114.42,855.49,113.45,862.82,113.08,869.2Z" transform="translate(723.51 -569.74)"/><path class="cls-1" d="M-600,608.4a2,2,0,0,1,2.21,2.11l-2.37,22.89a2.64,2.64,0,0,1-2.53,2.11h-23.56V710.2a2.2,2.2,0,0,1-2.21,2.11h-28a2.35,2.35,0,0,1-2.37-2.11V635.51h-26.25a2.21,2.21,0,0,1-2.21-2.11V610.66a2.35,2.35,0,0,1,2.21-2.26Z" transform="translate(723.51 -569.74)"/><path class="cls-1" d="M-500.11,608.4a2.28,2.28,0,0,1,2.37,2.26V710.2a2.25,2.25,0,0,1-2.37,2.11h-29.57a2.21,2.21,0,0,1-2.21-2.11V676.47H-554V710.2a2.25,2.25,0,0,1-2.37,2.11H-586a2.32,2.32,0,0,1-2.21-2.11V610.66A2.35,2.35,0,0,1-586,608.4h29.57a2.28,2.28,0,0,1,2.37,2.26V650h22.13V610.66a2.24,2.24,0,0,1,2.21-2.26Z" transform="translate(723.51 -569.74)"/><path class="cls-1" d="M-452.2,608.4a2.28,2.28,0,0,1,2.37,2.26V710.2a2.25,2.25,0,0,1-2.37,2.11h-28a2.32,2.32,0,0,1-2.21-2.11V610.66a2.35,2.35,0,0,1,2.21-2.26Z" transform="translate(723.51 -569.74)"/><path class="cls-1" d="M-343.75,608.4a2.28,2.28,0,0,1,2.37,2.26V710.2a2.25,2.25,0,0,1-2.37,2.11H-371.1a4.32,4.32,0,0,1-3.32-2l-27.51-46.83V710.2a2.25,2.25,0,0,1-2.37,2.11h-28a2.21,2.21,0,0,1-2.21-2.11V610.66a2.24,2.24,0,0,1,2.21-2.26h27.35a4.21,4.21,0,0,1,3.63,2l27.36,46.83V610.66a2.35,2.35,0,0,1,2.21-2.26Z" transform="translate(723.51 -569.74)"/><path class="cls-1" d="M-232.76,710.5c.79,1.06.16,1.81-1.11,1.81h-36.67a4.32,4.32,0,0,1-3.32-1.81l-19.61-37.64V710.2a2.25,2.25,0,0,1-2.37,2.11h-28A2.32,2.32,0,0,1-326,710.2V610.66a2.35,2.35,0,0,1,2.21-2.26h28a2.28,2.28,0,0,1,2.37,2.26v33.73l19-34.18a4.49,4.49,0,0,1,3.64-1.81h34.62c1.27,0,1.74.75,1.11,1.81L-266.43,658Z" transform="translate(723.51 -569.74)"/><path class="cls-1" d="M-192.6,608.4a2.28,2.28,0,0,1,2.37,2.26V710.2a2.25,2.25,0,0,1-2.37,2.11h-28a2.33,2.33,0,0,1-2.22-2.11V610.66a2.35,2.35,0,0,1,2.22-2.26Z" transform="translate(723.51 -569.74)"/><path class="cls-1" d="M-84.15,608.4a2.28,2.28,0,0,1,2.38,2.26V710.2a2.25,2.25,0,0,1-2.38,2.11H-111.5a4.35,4.35,0,0,1-3.32-2l-27.5-46.83V710.2a2.25,2.25,0,0,1-2.37,2.11h-28a2.21,2.21,0,0,1-2.21-2.11V610.66a2.24,2.24,0,0,1,2.21-2.26h27.35a4.21,4.21,0,0,1,3.64,2l27.35,46.83V610.66a2.35,2.35,0,0,1,2.21-2.26Z" transform="translate(723.51 -569.74)"/><path class="cls-1" d="M26.68,648.61a2.35,2.35,0,0,1,2.37,2.11v47.89a4.9,4.9,0,0,1-1.89,3.61c-9.49,7.68-24,12.2-39.21,12.2C-46.2,714.42-69,692.73-69,660.21S-46.2,606-12,606c11.7,0,24,3.31,33.2,8.74a2.29,2.29,0,0,1,1.42,2.71l-7.9,22.14a2.47,2.47,0,0,1-3,1.2,52,52,0,0,0-22.76-5.27c-14.55,0-24.35,9.94-24.35,24.7,0,15.06,9.8,25,24.35,25,5.85,0,9.8-1.06,11.54-2.87v-8.73H-14.1c-1.43,0-2.38-.6-2.53-1.66l-2.06-20.78c-.16-1.51.79-2.56,2.53-2.56ZM1.39,680.08v0Z" transform="translate(723.51 -569.74)"/><path class="cls-1" d="M-624.71,857.52c-37.55,0-62.59-24.18-62.59-60.29,0-36.44,25-60.62,62.59-60.62s62.58,24.18,62.58,60.62C-562.13,833.34-587.16,857.52-624.71,857.52Zm0-87c-14.46,0-24.16,10.75-24.16,26.7s9.7,26.7,24.16,26.7,24.15-10.74,24.15-26.7S-610.26,770.53-624.71,770.53Z" transform="translate(723.51 -569.74)"/><path class="cls-1" d="M-453.34,739.29a2.91,2.91,0,0,1,3,2.86v70c0,29.72-16.75,45.34-48.66,45.34-31.56,0-48.31-15.62-48.66-45.34v-70a3,3,0,0,1,3-2.86h30.32a2.91,2.91,0,0,1,3,2.86V815.2c0,7.73,4.58,12.26,12.34,12.26s12.34-4.53,12.34-12.09V742.15a3,3,0,0,1,3-2.86Z" transform="translate(723.51 -569.74)"/><path class="cls-1" d="M-343.32,739.29a2.26,2.26,0,0,1,2.47,2.36l-2.65,25.52a2.93,2.93,0,0,1-2.82,2.35h-26.27v83.3a2.46,2.46,0,0,1-2.46,2.35h-31.21a2.63,2.63,0,0,1-2.64-2.35v-83.3h-29.27a2.46,2.46,0,0,1-2.47-2.35V741.81a2.62,2.62,0,0,1,2.47-2.52Z" transform="translate(723.51 -569.74)"/><path class="cls-1" d="M-320.39,819.9c.53-1.68,1.76-2.18,3.17-1.34,8.11,4.37,17.81,7.56,24.51,8.06,5.64,0,9.34-2.52,9.34-6.38,0-9.91-49.54-9.4-49.54-46,0-22.5,17.81-37.44,44.6-37.44,12.52,0,28.39,4.87,39.5,12.09,1.41.84,1.93,2.18,1.41,3l-11.11,23.68c-.53,1.68-1.76,2.18-3.17,1.34-8.64-4.7-18.69-8.23-24.86-8.73-5.47,0-9,2.35-9,6,0,9.91,49.89,9.24,49.89,46.19,0,22.33-18.16,37.28-45.31,37.28-14.81,0-30.32-4.37-39.14-11.08-1.41-1-1.94-2.19-1.41-3Z" transform="translate(723.51 -569.74)"/><path class="cls-1" d="M-197.68,739.29a2.53,2.53,0,0,1,2.64,2.52v111a2.51,2.51,0,0,1-2.64,2.35h-31.21a2.59,2.59,0,0,1-2.46-2.35v-111a2.62,2.62,0,0,1,2.46-2.52Z" transform="translate(723.51 -569.74)"/><path class="cls-1" d="M-134.56,739.29c37.37,0,62.23,23,62.23,57.94,0,34.6-24.86,57.94-62.23,57.94h-40.9a2.62,2.62,0,0,1-2.47-2.52V741.81a2.62,2.62,0,0,1,2.47-2.52Zm2.11,85.65c13.58,0,22.75-11.08,22.75-27.71s-9.17-27.71-22.75-27.71h-9.16v55.42Z" transform="translate(723.51 -569.74)"/><path class="cls-1" d="M26.41,824.94a2.5,2.5,0,0,1,2.64,2.18v25.7a2.63,2.63,0,0,1-2.64,2.35h-82c-1.23,0-2.47-1.34-2.82-2.52v-111a2.18,2.18,0,0,1,2.47-2.36H24.29a2.7,2.7,0,0,1,2.83,2.36V767a2.59,2.59,0,0,1-2.83,2.52h-46v13.27H15.66A2.07,2.07,0,0,1,18,785l-2.47,23.51a3.07,3.07,0,0,1-3,2.19h-34.2v14.27Z" transform="translate(723.51 -569.74)"/><path class="cls-1" d="M-588.81,882.6a2.29,2.29,0,0,1,2.5,2.38L-589,910.81a3,3,0,0,1-2.86,2.38h-26.58v84.3a2.49,2.49,0,0,1-2.5,2.38h-31.58a2.66,2.66,0,0,1-2.67-2.38v-84.3H-684.8a2.5,2.5,0,0,1-2.5-2.38V885.15a2.65,2.65,0,0,1,2.5-2.55Z" transform="translate(723.51 -569.74)"/><path class="cls-1" d="M-476,882.6a2.56,2.56,0,0,1,2.67,2.55V997.49a2.54,2.54,0,0,1-2.67,2.38h-33.37a2.49,2.49,0,0,1-2.5-2.38V959.42h-25v38.07a2.55,2.55,0,0,1-2.68,2.38h-33.37a2.62,2.62,0,0,1-2.49-2.38V885.15a2.65,2.65,0,0,1,2.49-2.55h33.37a2.57,2.57,0,0,1,2.68,2.55v44.36h25V885.15a2.52,2.52,0,0,1,2.5-2.55Z" transform="translate(723.51 -569.74)"/><path class="cls-1" d="M-370.59,969.27a2.54,2.54,0,0,1,2.68,2.21v26a2.67,2.67,0,0,1-2.68,2.38h-83c-1.25,0-2.5-1.36-2.86-2.55V885a2.21,2.21,0,0,1,2.5-2.38h81.18a2.71,2.71,0,0,1,2.85,2.38v25.66a2.62,2.62,0,0,1-2.85,2.55H-419.3v13.43h37.83a2.09,2.09,0,0,1,2.32,2.21l-2.5,23.79a3.11,3.11,0,0,1-3,2.21H-419.3v14.44Z" transform="translate(723.51 -569.74)"/><path class="cls-1" d="M-269.6,882.6c23.37,0,38.9,13.25,38.9,33.14,0,12.24-6.25,21.24-15.88,24,11.24,2.72,18.55,12.92,18.55,27,0,19.88-15.52,33.14-38.71,33.14H-323.3a2.49,2.49,0,0,1-2.5-2.38V885.15a2.64,2.64,0,0,1,2.5-2.55Zm-8.2,46.06c5.35,0,8.92-3.06,8.92-7.82s-3.57-7.82-8.92-7.82H-289v15.64Zm3.21,40.79c5.17,0,8.74-3.23,8.74-8.16s-3.57-8.16-8.74-8.16H-289v16.32Z" transform="translate(723.51 -569.74)"/><path class="cls-1" d="M-151.83,1002.25c-38,0-63.34-24.48-63.34-61,0-36.88,25.33-61.35,63.34-61.35s63.33,24.47,63.33,61.35C-88.5,977.77-113.83,1002.25-151.83,1002.25Zm0-88c-14.63,0-24.45,10.88-24.45,27s9.82,27,24.45,27,24.44-10.88,24.44-27S-137.2,914.21-151.83,914.21Z" transform="translate(723.51 -569.74)"/><path class="cls-1" d="M28.73,997.15c.9,1.53-.18,2.72-2,2.72H-10.52a5.27,5.27,0,0,1-4.1-2.72l-14.63-28.38-14.63,28.38A5.29,5.29,0,0,1-48,999.87H-85.28c-1.78,0-2.85-1.19-2-2.72l31.94-55.92-31.94-55.91c-.89-1.53.18-2.72,2-2.72h37.12a5.27,5.27,0,0,1,4.1,2.72l14.81,30.08,14.81-30.08a5.25,5.25,0,0,1,4.1-2.72H26.77c1.78,0,2.86,1.19,2,2.72L-3.2,941.23Z" transform="translate(723.51 -569.74)"/></svg>