<svg id="Layer_1" data-name="Layer 1" xmlns="http://www.w3.org/2000/svg" viewBox="0 0 7.2 5"><defs><style>.cls-1{fill:#dcdcdc;}.cls-2{fill:red;}.cls-3{fill:#fff;}</style></defs><title>box an me1</title><rect class="cls-1" width="7.2" height="5"/><path d="M5.87,3.43h0l.22.06s0,0,0,0v0l-.35-.78c0-.08,0-.08-.11,0h0L5,3.1l0,0,0,0H5l.23.06a.82.82,0,0,1-.33.65.91.91,0,0,1-.72.17,1.29,1.29,0,0,0,.41.16,1,1,0,0,0,1.16-.56A1.57,1.57,0,0,0,5.87,3.43Z"/><path d="M.16.23V4.77H4.73v-.4H.56V.64H4.33v3.2h.4V.23Z"/><path d="M1.79,1.59H1.46V2.2H1.22V1.59H.89V1.4h.9Z"/><path d="M2.85,1.4v.8H2.62V1.89H2.14V2.2H1.9V1.4h.24v.3h.48V1.4Z"/><path d="M3.9,2V2.2H3V1.4h.84v.18H3.27v.13h.51v.17H3.27V2Z"/><path d="M1.87,3.35c0,.14-.13.22-.33.22H.92v-.8H1.5c.2,0,.32.08.32.21a.17.17,0,0,1-.18.17C1.76,3.16,1.87,3.23,1.87,3.35Zm-.71-.26h.3c.08,0,.13,0,.13-.08s-.05-.08-.13-.08h-.3Zm.47.23c0-.06,0-.08-.13-.08H1.16v.17H1.5C1.58,3.41,1.63,3.39,1.63,3.32Z"/><path d="M2,3.17c0-.27.2-.42.52-.42S3,2.9,3,3.17s-.21.43-.53.43S2,3.44,2,3.17Zm.81,0c0-.15-.11-.24-.29-.24S2.2,3,2.2,3.17s.11.24.28.24S2.77,3.32,2.77,3.17Z"/><path d="M3.63,3.16,4,3.57H3.71l-.22-.25-.23.25H3l.37-.41L3,2.77h.28L3.5,3l.22-.25H4Z"/><ellipse class="cls-2" cx="5.98" cy="1.41" rx="1.06" ry="1.05"/><path class="cls-3" d="M6.1,1.37v.28H6V1.38a.11.11,0,0,0-.11-.12.19.19,0,0,0-.16.1h0v.28H5.57V1.38a.11.11,0,0,0-.11-.12.19.19,0,0,0-.16.1v.29H5.17V1.17H5.3v.09a.21.21,0,0,1,.2-.1.18.18,0,0,1,.19.12.22.22,0,0,1,.21-.12A.19.19,0,0,1,6.1,1.37Z"/><path class="cls-3" d="M6.52,1.56a.29.29,0,0,0,.19-.06l.07.08a.37.37,0,0,1-.26.09c-.2,0-.31-.1-.31-.26s.11-.25.3-.25.28.08.28.25v0H6.33C6.35,1.53,6.41,1.56,6.52,1.56Zm-.18-.2h.33a.15.15,0,0,0-.16-.09C6.42,1.26,6.36,1.29,6.34,1.36Z"/></svg>