<svg id="Layer_1" data-name="Layer 1" xmlns="http://www.w3.org/2000/svg" viewBox="0 0 1283.59 474.21"><defs><style>.cls-1{fill:#1a1a1a;}</style></defs><title>box &amp;amp; me 2.0</title><path class="cls-1" d="M99.29,604H493.37v4.14q0,180.58,0,361.17c0,1.1-.07,2.49.52,3.26,5.08,6.72,10.3,13.33,15.55,20,3.41-2.41,6.43-5,9.83-6.88,15.64-8.75,34.3-6.07,49,6.86a50.68,50.68,0,0,1,17,31c.36,2.27-.88,4.8-1.44,7.2-.17.72-.82,1.39-.8,2.07.25,11-5.75,19.08-12.3,26.92-1.15,1.37-2.38,2.67-3.56,4-.15.17-.16.47-.31.91.61.82,1.31,1.71,2,2.64,2.11,3.07,1.81,6.75-.72,9.06s-6.91,2.61-9-.17c-2.82-3.83-5.53-3.27-9.42-2-18.67,5.88-40.24-.64-51.13-15.29-8.26-11.12-9.2-23.67-5.93-36.6a70.69,70.69,0,0,1,6.29-15.15c1.5-2.85,1.6-4.8-.6-7.08-1.5-1.54-2.74-3.33-4.7-5.76.58,5.91-2.73,5.61-6.35,5.61q-191.21,0-382.4.09H99.29Zm15.8,134.25H231v-116H115.09Zm122.37,244H353.55V866.48H237.46ZM231,860.35V744.45h-116v115.9Zm129-116a14.4,14.4,0,0,0-.2,1.55c0,27.54,0,55.07.06,82.61a6.4,6.4,0,0,0,1.77,3.92c8.22,8.59,16.59,17,24.83,25.62a8,8,0,0,0,6.42,2.53c26.46-.09,52.92,0,79.39,0,1.23,0,2.46-.14,3.82-.22v-116Zm116.05-6.12V622.2h-116V738.28ZM353.61,622.21H237.52V738.29H353.61ZM231.1,866.42h-116V982.34h116Zm122.7-6a82.39,82.39,0,0,1,.06-9.21c.64-5.25-1-9.26-4.86-12.9-3.64-3.43-6.7-7.47-10.17-11.42-1.7,2.57-2.87,4.72-4.38,6.59-9.81,12.18-23,15.64-37.77,13.83-18.88-2.32-32.16-12.78-39-30.44-6.74-17.32-4-33.53,8.47-47.56,3.52-4,8.07-7,12-10.63.93-.86,2-2.43,1.82-3.48-.62-3.78,1.07-6,4.08-7.73,3.21-1.81,5.79-.37,7.69,2.09,1.34,1.74,2.59,1.88,4.56,1.53,8.42-1.46,17-1.45,23.81,4.17,5.58,4.61,11.37,10,14.49,16.35,5.63,11.42,9.74,23.71,8.52,37-.07.87-.19,2,.27,2.59,3.13,3.89,6.41,7.66,10.15,12.07V744.44H237.47V860.37Zm43.95,27.52a7.83,7.83,0,0,0-.84-1.18q-9.93-9.6-19.9-19.16c-.54-.51-1.25-1.17-1.89-1.18-5-.09-10.08,0-15,0V982H476c-.25-4.1.75-8.4-.91-11-4.26-6.6-9.7-12.45-15-19-8.34,12-18.84,19.89-33.27,20.86s-26.27-4.8-36.51-14.7C372.55,941,368.65,908.5,397.75,887.89ZM286,767.51c-2.84,2.23-5.24,3.92-7.4,5.87-12.12,10.88-15.66,25.55-9.75,39.94a36.19,36.19,0,0,0,35.82,22.49c10.71-.72,19.46-4.81,23.84-15.6,1.13-2.78.79-4.6-1.3-6.77C313.06,798.77,297,785.87,286,767.51ZM425.75,961.13c8.17-1.3,17.93-3.35,21.91-14.82A4.1,4.1,0,0,1,449,944.5c2.51-1.86,1.69-3.44-.12-5.28q-19.57-20-39-40.06c-2-2-3.48-2.12-5.85-.59-12.43,8-18.46,22.54-14.62,35.75C393.74,949.14,409,961.09,425.75,961.13ZM475,949.05l.94-.28V866.58H395.29c5.64,5.36,10.56,10.14,15.65,14.73.75.67,2.39.74,3.52.54,14.56-2.5,27.18,1.77,37.79,11.57,12.8,11.83,19.64,26,15.08,44a4.14,4.14,0,0,0,.56,3.14C470.13,943.48,472.6,946.23,475,949.05Zm83.23,106.34a90.55,90.55,0,0,0,6.09-6.76c3.59-4.91,7.77-9.62,6.33-16.57-.24-1.17.92-2.59,1.23-3.93.42-1.85,1.32-3.93.87-5.58A39.3,39.3,0,0,0,550,996.16q-16.37-7.35-30.39,4.23c-2.32,1.92-2.18,3.2-.45,5.26,2.47,2.92,4.69,6.06,7.06,9.08C536.75,1028.09,547.26,1041.44,558.22,1055.39ZM546.3,1062l-37.52-47.73c-7.41,10.83-7.81,26.39-1.2,35.86C515.13,1060.94,531.25,1066,546.3,1062ZM330,797l1-.51c-2.47-7.58-4.47-15.37-7.63-22.65-1.33-3.07-5.05-5.14-7.78-7.54-4.66-4.09-11.81-5.39-16.35-2.89C307.83,776.21,318.82,786.71,330,797ZM456.63,925c2.25-12.06-19.39-34.11-33-31.09Zm-88-64.58c-3-3-5.85-5.87-8.57-8.6v8.6Z" transform="translate(698.3 -604.02)"/><path class="cls-1" d="M167.22,666.13c8.26-10.67,16.22-21,24.2-31.28a25.57,25.57,0,0,1,2.29-2.58c2.61-2.54,6.12-2.73,8.62-.52s2.76,5.75.48,8.62c-4.28,5.42-8.8,10.64-12.95,16.16-4.54,6-8.7,12.32-13.16,18.4-1.29,1.76-1.37,3,.18,4.63,5.37,5.47,10.53,11.15,16,16.5,7.6,7.44,15,15,20.29,24.38.84,1.5,1.95,3.68,1.43,4.92-.87,2.11-2.66,4.66-4.6,5.25-1.73.52-5.3-.74-6.15-2.27-6.62-12.06-17.1-20.59-26.51-30.12-3.12-3.16-6.13-6.44-9.43-9.92-4.52,6.75-8.89,13.3-13.3,19.83-1.79,2.65-3.61,5.28-5.5,7.86-2.83,3.86-6.39,4.72-9.5,2.4-2.9-2.17-3.1-5.79-.57-9.52,6.47-9.52,12.86-19.09,19.42-28.54,1.4-2,1.35-3.39-.09-5.36-7.47-10.21-14.47-20.79-24.62-28.72a5.86,5.86,0,0,1-.72-8.56,5.8,5.8,0,0,1,8.56-.64c5.67,5.3,11.16,10.84,16.34,16.63C161.4,657.54,164.19,662,167.22,666.13Z" transform="translate(698.3 -604.02)"/><path class="cls-1" d="M308.09,923.33c11.34,10.1,22.25,19.89,33.27,29.57,1.5,1.31,3.52,2,5.32,3,3.27,1.74,4.52,4.85,3.2,8-1.48,3.56-3.65,4.84-7.45,3.27a39.58,39.58,0,0,1-10.55-6.06c-8.26-7-16.14-14.54-24.15-21.87-2.26-2.08-4.44-4.23-7-6.66-9.74,13.09-23.78,22.6-32.07,37.2a5.77,5.77,0,0,1-8.22,2.44c-2.9-1.56-4.41-5.33-2.38-8.22a243.19,243.19,0,0,1,15.17-19.67c6-6.94,12.62-13.36,19.17-20.23a38.23,38.23,0,0,0-2.63-2.9c-10.21-8.92-20.39-17.85-30.68-26.67-3.51-3-4.43-6.2-2.17-9.24s5.89-3.53,9.42-.62c11.33,9.34,22.51,18.88,34.61,29.06a13.4,13.4,0,0,1,1.35-2.35c6.79-8.49,13.55-17,20.49-25.37a72.2,72.2,0,0,1,8.59-8.72,5.79,5.79,0,0,1,8.52.94c2,2.53,1.6,5.68-.68,8.34C329.11,898.43,319.08,910.35,308.09,923.33Z" transform="translate(698.3 -604.02)"/><path class="cls-1" d="M167.28,801c-9.7-9.14-18.88-17.86-28.17-26.45a44.33,44.33,0,0,0-6.5-4.65c-2.94-1.86-4.1-4.91-2.81-7.89a6.1,6.1,0,0,1,7.66-3.36,23,23,0,0,1,6.78,4.18c8.52,7.74,16.87,15.67,25.29,23.52,1.86,1.74,3.75,3.44,6.68,6.11a21.1,21.1,0,0,1,2.31-3.75C189,777.76,199.39,766.85,210,756.1c1.49-1.51,3.92-3,5.83-2.91s4.09,1.94,5.22,3.65c1.72,2.59.3,5.11-1.73,7.19-7,7.13-14,14.24-20.93,21.41-4.17,4.32-8.24,8.74-12.72,13.49,2.5,1.81,4.86,3.47,7.16,5.2,9.39,7.08,18.82,14.12,28.1,21.33,3.53,2.75,4,6.1,1.81,9s-6.12,3.09-9.76.29c-11.65-9-23.37-17.84-36.19-27.61a23.46,23.46,0,0,1-2.37,3.87q-14.05,15-28.23,29.84c-3.31,3.46-7,3.81-9.73,1.18s-2.43-6.18,1-9.76Z" transform="translate(698.3 -604.02)"/><path class="cls-1" d="M421,810.54c-3.56,3.91-6.58,7.37-9.76,10.68-4.88,5.06-9.92,10-14.77,15a57.61,57.61,0,0,0-5.78,7.08c-2,2.9-4.66,4-7.48,2.75s-4.49-4.82-2.6-7.73a88.51,88.51,0,0,1,9.55-11.82c7.57-8.13,15.37-16,23.2-24.17l-26.51-33.3c-.24-.3-.53-.55-.8-.83-2.87-3-3.16-6.35-.78-8.82s5.93-2.43,9,.94c3.61,4,7.05,8.1,10.37,12.32,5.37,6.83,10.58,13.78,16.07,21,1.17-1.06,2.05-1.74,2.78-2.55,7.75-8.51,15.34-17.18,23.28-25.51a136.77,136.77,0,0,1,13.63-12.27c3.11-2.49,6.37-1.74,8.32,1.16s1.05,6-2,8.32a48.43,48.43,0,0,0-6.84,5.52c-10.29,11.2-20.43,22.54-30.88,34.12,7.55,9.16,15.22,18.52,23,27.81.78.93,2.12,1.37,3.16,2.1,2.45,1.74,3.53,4,2.37,7s-3.58,4.34-6.41,3.38a17.43,17.43,0,0,1-7-4.29c-4.61-4.95-8.8-10.29-13.11-15.52C427.7,819,424.54,815,421,810.54Z" transform="translate(698.3 -604.02)"/><path class="cls-1" d="M417.51,690.07c-8.84,8.4-17.53,16.32-25.77,24.68-3,3-5,7-7.16,10.69-1.72,3-4,4.33-7.25,3.53s-5.28-3.39-4.34-6.58c1.09-3.7,2.59-7.7,5.11-10.49,6.76-7.47,14.16-14.36,21.3-21.49,3.15-3.15,6.28-6.31,9.82-9.86L377.8,648.9c-.54-.54-1.14-1-1.67-1.57-3-3.05-3.17-6.82-.53-9.55s6.3-2.77,9.26,0q8.4,7.88,16.48,16.07c5.3,5.37,10.43,10.9,15.63,16.34.28-.05.6,0,.74-.15q17.85-18.46,35.66-37c2.74-2.83,6.19-3.21,8.87-.89a5.93,5.93,0,0,1,.35,8.88c-7.41,7.77-15.13,15.23-22.61,22.93-4.88,5-9.55,10.23-14.64,15.7L459.79,716c.61.65,1.28,1.25,1.89,1.9,3.11,3.34,3.26,7.14.42,9.84s-6.41,2.54-9.53-.63c-7.7-7.85-15.31-15.8-22.88-23.77C425.64,699.07,421.74,694.68,417.51,690.07Z" transform="translate(698.3 -604.02)"/><path class="cls-1" d="M338.81,682.51c0,8.47-1.61,16.55-5.83,23.94-9,15.76-27.56,22.36-46.67,16.7-29.46-8.73-41.43-37.81-27.31-66.27,4.61-9.31,11.11-16.88,20.44-21.61,1.94-1,4.54-.68,6.84-.9.84-.08,1.78.29,2.54,0,5.9-1.95,11.63-1,17.26,1C327.4,642.89,338.48,658.9,338.81,682.51Zm-12.11.67c-.2-2.4-.32-4.57-.58-6.73-1.88-15.71-11.46-26.67-26.82-30.19-2.4-.55-5.13.4-7.71.63-1.49.14-3.3.79-4.41.18-2.35-1.29-3.87-.22-5.53,1-7.48,5.57-12,13.13-14.56,21.95-5.71,20,3.86,36.54,23.92,41.72,17.33,4.47,31.3-4,34.84-21.17C326.36,688.09,326.44,685.51,326.7,683.18Z" transform="translate(698.3 -604.02)"/><path class="cls-1" d="M128,921c0-8.84,1.15-17.54,5.62-25.19,2.65-4.53,5.9-9.72,10.24-12,11.27-6,23.51-10.64,36.62-8,35.37,7.12,51,47.63,30.14,77.14-11.91,16.81-32.66,22.11-53,13.19C138.12,957.54,128.11,942.49,128,921Zm11.78-1.55c0,19.59,10.9,33.44,28.85,37.87,13.66,3.37,25.29-.84,32.78-12.11a38.53,38.53,0,0,0,5.75-29.69c-2.36-12.08-9.48-20.08-20.62-25.33-9.91-4.66-18.84-4.36-27.69,2.08-1.12.82-3.13,1.42-4.28,1-3.27-1.28-5,.54-6.81,2.56C141.44,903,140.27,911.77,139.82,919.46Z" transform="translate(698.3 -604.02)"/><path class="cls-1" d="M-611,608.4a2,2,0,0,1,2.21,2.11l-2.37,22.89a2.64,2.64,0,0,1-2.53,2.11h-23.56V710.2a2.2,2.2,0,0,1-2.21,2.11h-28a2.35,2.35,0,0,1-2.37-2.11V635.51h-26.25a2.21,2.21,0,0,1-2.21-2.11V610.66a2.35,2.35,0,0,1,2.21-2.26Z" transform="translate(698.3 -604.02)"/><path class="cls-1" d="M-511.11,608.4a2.28,2.28,0,0,1,2.37,2.26V710.2a2.25,2.25,0,0,1-2.37,2.11h-29.57a2.21,2.21,0,0,1-2.21-2.11V676.47H-565V710.2a2.25,2.25,0,0,1-2.37,2.11H-597a2.32,2.32,0,0,1-2.21-2.11V610.66A2.35,2.35,0,0,1-597,608.4h29.57a2.28,2.28,0,0,1,2.37,2.26V650h22.13V610.66a2.24,2.24,0,0,1,2.21-2.26Z" transform="translate(698.3 -604.02)"/><path class="cls-1" d="M-463.2,608.4a2.28,2.28,0,0,1,2.37,2.26V710.2a2.25,2.25,0,0,1-2.37,2.11h-28a2.32,2.32,0,0,1-2.21-2.11V610.66a2.35,2.35,0,0,1,2.21-2.26Z" transform="translate(698.3 -604.02)"/><path class="cls-1" d="M-354.75,608.4a2.28,2.28,0,0,1,2.37,2.26V710.2a2.25,2.25,0,0,1-2.37,2.11H-382.1a4.32,4.32,0,0,1-3.32-2l-27.51-46.83V710.2a2.25,2.25,0,0,1-2.37,2.11h-28a2.21,2.21,0,0,1-2.21-2.11V610.66a2.24,2.24,0,0,1,2.21-2.26h27.35a4.21,4.21,0,0,1,3.63,2l27.36,46.83V610.66a2.35,2.35,0,0,1,2.21-2.26Z" transform="translate(698.3 -604.02)"/><path class="cls-1" d="M-243.76,710.5c.79,1.06.16,1.81-1.11,1.81h-36.67a4.32,4.32,0,0,1-3.32-1.81l-19.61-37.64V710.2a2.25,2.25,0,0,1-2.37,2.11h-28A2.32,2.32,0,0,1-337,710.2V610.66a2.35,2.35,0,0,1,2.21-2.26h28a2.28,2.28,0,0,1,2.37,2.26v33.73l19-34.18a4.49,4.49,0,0,1,3.64-1.81h34.62c1.27,0,1.74.75,1.11,1.81L-277.43,658Z" transform="translate(698.3 -604.02)"/><path class="cls-1" d="M-203.6,608.4a2.28,2.28,0,0,1,2.37,2.26V710.2a2.25,2.25,0,0,1-2.37,2.11h-28a2.33,2.33,0,0,1-2.22-2.11V610.66a2.35,2.35,0,0,1,2.22-2.26Z" transform="translate(698.3 -604.02)"/><path class="cls-1" d="M-95.15,608.4a2.28,2.28,0,0,1,2.38,2.26V710.2a2.25,2.25,0,0,1-2.38,2.11H-122.5a4.35,4.35,0,0,1-3.32-2l-27.5-46.83V710.2a2.25,2.25,0,0,1-2.37,2.11h-28a2.21,2.21,0,0,1-2.21-2.11V610.66a2.24,2.24,0,0,1,2.21-2.26h27.35a4.21,4.21,0,0,1,3.64,2l27.35,46.83V610.66a2.35,2.35,0,0,1,2.21-2.26Z" transform="translate(698.3 -604.02)"/><path class="cls-1" d="M15.68,648.61a2.35,2.35,0,0,1,2.37,2.11v47.89a4.9,4.9,0,0,1-1.89,3.61c-9.49,7.68-24,12.2-39.21,12.2C-57.2,714.42-80,692.73-80,660.21S-57.2,606-23,606c11.7,0,24,3.31,33.2,8.74a2.29,2.29,0,0,1,1.42,2.71l-7.9,22.14a2.47,2.47,0,0,1-3,1.2,52,52,0,0,0-22.76-5.27c-14.55,0-24.35,9.94-24.35,24.7,0,15.06,9.8,25,24.35,25,5.85,0,9.8-1.06,11.54-2.87v-8.73H-25.1c-1.43,0-2.38-.6-2.53-1.66l-2.06-20.78c-.16-1.51.79-2.56,2.53-2.56ZM-9.61,680.08v0Z" transform="translate(698.3 -604.02)"/><path class="cls-1" d="M-635.71,857.52c-37.55,0-62.59-24.18-62.59-60.29,0-36.44,25-60.62,62.59-60.62s62.58,24.18,62.58,60.62C-573.13,833.34-598.16,857.52-635.71,857.52Zm0-87c-14.46,0-24.16,10.75-24.16,26.7s9.7,26.7,24.16,26.7,24.15-10.74,24.15-26.7S-621.26,770.53-635.71,770.53Z" transform="translate(698.3 -604.02)"/><path class="cls-1" d="M-464.34,739.29a2.91,2.91,0,0,1,3,2.86v70c0,29.72-16.75,45.34-48.66,45.34-31.56,0-48.31-15.62-48.66-45.34v-70a3,3,0,0,1,3-2.86h30.32a2.91,2.91,0,0,1,3,2.86V815.2c0,7.73,4.58,12.26,12.34,12.26s12.34-4.53,12.34-12.09V742.15a3,3,0,0,1,3-2.86Z" transform="translate(698.3 -604.02)"/><path class="cls-1" d="M-354.32,739.29a2.26,2.26,0,0,1,2.47,2.36l-2.65,25.52a2.93,2.93,0,0,1-2.82,2.35h-26.27v83.3a2.46,2.46,0,0,1-2.46,2.35h-31.21a2.63,2.63,0,0,1-2.64-2.35v-83.3h-29.27a2.46,2.46,0,0,1-2.47-2.35V741.81a2.62,2.62,0,0,1,2.47-2.52Z" transform="translate(698.3 -604.02)"/><path class="cls-1" d="M-331.39,819.9c.53-1.68,1.76-2.18,3.17-1.34,8.11,4.37,17.81,7.56,24.51,8.06,5.64,0,9.34-2.52,9.34-6.38,0-9.91-49.54-9.4-49.54-46,0-22.5,17.81-37.44,44.6-37.44,12.52,0,28.39,4.87,39.5,12.09,1.41.84,1.93,2.18,1.41,3l-11.11,23.68c-.53,1.68-1.76,2.18-3.17,1.34-8.64-4.7-18.69-8.23-24.86-8.73-5.47,0-9,2.35-9,6,0,9.91,49.89,9.24,49.89,46.19,0,22.33-18.16,37.28-45.31,37.28-14.81,0-30.32-4.37-39.14-11.08-1.41-1-1.94-2.19-1.41-3Z" transform="translate(698.3 -604.02)"/><path class="cls-1" d="M-208.68,739.29a2.53,2.53,0,0,1,2.64,2.52v111a2.51,2.51,0,0,1-2.64,2.35h-31.21a2.59,2.59,0,0,1-2.46-2.35v-111a2.62,2.62,0,0,1,2.46-2.52Z" transform="translate(698.3 -604.02)"/><path class="cls-1" d="M-145.56,739.29c37.37,0,62.23,23,62.23,57.94,0,34.6-24.86,57.94-62.23,57.94h-40.9a2.62,2.62,0,0,1-2.47-2.52V741.81a2.62,2.62,0,0,1,2.47-2.52Zm2.11,85.65c13.58,0,22.75-11.08,22.75-27.71s-9.17-27.71-22.75-27.71h-9.16v55.42Z" transform="translate(698.3 -604.02)"/><path class="cls-1" d="M15.41,824.94a2.5,2.5,0,0,1,2.64,2.18v25.7a2.63,2.63,0,0,1-2.64,2.35h-82c-1.23,0-2.47-1.34-2.82-2.52v-111a2.18,2.18,0,0,1,2.47-2.36H13.29a2.7,2.7,0,0,1,2.83,2.36V767a2.59,2.59,0,0,1-2.83,2.52h-46v13.27H4.66A2.07,2.07,0,0,1,7,785L4.48,808.48a3.07,3.07,0,0,1-3,2.19h-34.2v14.27Z" transform="translate(698.3 -604.02)"/><path class="cls-1" d="M-599.81,882.6a2.27,2.27,0,0,1,2.49,2.38L-600,910.81a3,3,0,0,1-2.86,2.38h-26.58v84.3a2.49,2.49,0,0,1-2.5,2.38h-31.58a2.66,2.66,0,0,1-2.67-2.38v-84.3H-695.8a2.5,2.5,0,0,1-2.5-2.38V885.15a2.65,2.65,0,0,1,2.5-2.55Z" transform="translate(698.3 -604.02)"/><path class="cls-1" d="M-487,882.6a2.56,2.56,0,0,1,2.67,2.55V997.49a2.54,2.54,0,0,1-2.67,2.38h-33.37a2.49,2.49,0,0,1-2.5-2.38V959.42h-25v38.07a2.55,2.55,0,0,1-2.68,2.38h-33.37a2.62,2.62,0,0,1-2.49-2.38V885.15a2.65,2.65,0,0,1,2.49-2.55h33.37a2.57,2.57,0,0,1,2.68,2.55v44.36h25V885.15a2.52,2.52,0,0,1,2.5-2.55Z" transform="translate(698.3 -604.02)"/><path class="cls-1" d="M-381.59,969.27a2.54,2.54,0,0,1,2.68,2.21v26a2.67,2.67,0,0,1-2.68,2.38h-83c-1.25,0-2.5-1.36-2.86-2.55V885a2.21,2.21,0,0,1,2.5-2.38h81.18a2.71,2.71,0,0,1,2.85,2.38v25.66a2.62,2.62,0,0,1-2.85,2.55H-430.3v13.43h37.83a2.09,2.09,0,0,1,2.32,2.21l-2.5,23.79a3.11,3.11,0,0,1-3,2.21H-430.3v14.44Z" transform="translate(698.3 -604.02)"/><path class="cls-1" d="M-280.6,882.6c23.37,0,38.9,13.25,38.9,33.14,0,12.24-6.25,21.24-15.88,24,11.24,2.72,18.55,12.92,18.55,27,0,19.88-15.52,33.14-38.71,33.14H-334.3a2.49,2.49,0,0,1-2.5-2.38V885.15a2.64,2.64,0,0,1,2.5-2.55Zm-8.21,46.06c5.36,0,8.93-3.06,8.93-7.82s-3.57-7.82-8.93-7.82H-300v15.64Zm3.22,40.79c5.17,0,8.74-3.23,8.74-8.16s-3.57-8.16-8.74-8.16H-300v16.32Z" transform="translate(698.3 -604.02)"/><path class="cls-1" d="M-162.83,1002.25c-38,0-63.34-24.48-63.34-61,0-36.88,25.33-61.35,63.34-61.35s63.33,24.47,63.33,61.35C-99.5,977.77-124.83,1002.25-162.83,1002.25Zm0-88c-14.63,0-24.45,10.88-24.45,27s9.82,27,24.45,27,24.44-10.88,24.44-27S-148.2,914.21-162.83,914.21Z" transform="translate(698.3 -604.02)"/><path class="cls-1" d="M17.73,997.15c.9,1.53-.18,2.72-2,2.72H-21.52a5.27,5.27,0,0,1-4.1-2.72l-14.63-28.38-14.63,28.38A5.29,5.29,0,0,1-59,999.87H-96.28c-1.78,0-2.85-1.19-2-2.72l31.94-55.92-31.94-55.91c-.89-1.53.18-2.72,2-2.72h37.11a5.27,5.27,0,0,1,4.11,2.72l14.81,30.08,14.81-30.08a5.25,5.25,0,0,1,4.1-2.72H15.77c1.78,0,2.86,1.19,2,2.72L-14.2,941.23Z" transform="translate(698.3 -604.02)"/></svg>