<svg id="Layer_1" data-name="Layer 1" xmlns="http://www.w3.org/2000/svg" viewBox="0 0 1000 393.97"><defs><style>.cls-1{fill:#1a1a1a;}</style></defs><title>box &amp;amp; me 2.0</title><path class="cls-1" d="M186.42,132.73H513.83v3.44q0,150,0,300.06a4.84,4.84,0,0,0,.43,2.71c4.22,5.58,8.56,11.07,12.92,16.66a94.16,94.16,0,0,1,8.17-5.72c13-7.27,28.49-5,40.67,5.7a42.11,42.11,0,0,1,14.1,25.74c.3,1.88-.73,4-1.2,6-.14.6-.68,1.16-.67,1.72.21,9.13-4.77,15.85-10.21,22.36-1,1.14-2,2.22-3,3.34a3.07,3.07,0,0,0-.26.76c.51.68,1.09,1.42,1.63,2.2a5.6,5.6,0,0,1-.6,7.52c-2.06,1.88-5.74,2.17-7.45-.14-2.35-3.18-4.6-2.72-7.83-1.7-15.5,4.89-33.43-.54-42.47-12.7-6.87-9.24-7.65-19.67-4.93-30.41a58.52,58.52,0,0,1,5.22-12.59c1.25-2.37,1.33-4-.5-5.88-1.24-1.28-2.27-2.77-3.9-4.79.48,4.91-2.27,4.66-5.28,4.66q-158.85,0-317.69.08h-4.62Zm13.13,111.53h96.33V147.9H199.55ZM301.22,447h96.45v-96.2H301.22Zm-5.34-101.3V249.4H199.54v96.29Zm107.17-96.33a12.78,12.78,0,0,0-.17,1.29q0,34.32.05,68.63a5.3,5.3,0,0,0,1.48,3.26c6.82,7.14,13.77,14.16,20.62,21.28a6.65,6.65,0,0,0,5.33,2.1c22-.07,44,0,66,0,1,0,2.05-.11,3.18-.18V249.36Zm96.41-5.09V147.83h-96.4v96.44ZM397.72,147.84H301.27v96.44h96.45ZM295.93,350.74H199.55V447h96.38Zm101.94-5a66.53,66.53,0,0,1,.06-7.65,11.84,11.84,0,0,0-4.05-10.72c-3-2.85-5.56-6.21-8.45-9.49-1.4,2.14-2.38,3.92-3.63,5.48-8.15,10.11-19.15,13-31.39,11.48-15.68-1.92-26.71-10.61-32.42-25.28-5.6-14.39-3.31-27.86,7-39.51,2.92-3.3,6.7-5.83,10-8.84.77-.71,1.65-2,1.51-2.89-.51-3.14.9-5,3.39-6.42,2.67-1.5,4.81-.31,6.39,1.73,1.12,1.45,2.16,1.56,3.79,1.28,7-1.21,14.14-1.21,19.78,3.46,4.64,3.83,9.45,8.32,12,13.58,4.68,9.49,8.09,19.7,7.08,30.71a3.43,3.43,0,0,0,.22,2.15c2.6,3.24,5.33,6.37,8.44,10V249.4H301.23v96.31Zm36.52,22.86a6.94,6.94,0,0,0-.7-1q-8.25-8-16.54-15.91a2.87,2.87,0,0,0-1.56-1c-4.19-.09-8.38-.05-12.48-.05v96.11h96.32c-.21-3.4.62-7-.76-9.12-3.53-5.49-8.05-10.34-12.43-15.76-6.93,10-15.65,16.52-27.63,17.33s-21.83-4-30.34-12.22C413.45,412.67,410.21,385.69,434.39,368.57Zm-92.85-100c-2.36,1.86-4.35,3.26-6.15,4.87-10.07,9.05-13,21.23-8.1,33.19a30.08,30.08,0,0,0,29.76,18.69c8.89-.61,16.17-4,19.81-13a4.54,4.54,0,0,0-1.08-5.62C364,294.53,350.66,283.81,341.54,268.56ZM457.65,429.42c6.78-1.08,14.89-2.79,18.2-12.31a3.39,3.39,0,0,1,1.15-1.5c2.08-1.55,1.4-2.86-.1-4.39q-16.27-16.59-32.43-33.29c-1.64-1.69-2.89-1.75-4.86-.48-10.32,6.64-15.34,18.72-12.14,29.69C431.05,419.46,443.74,429.38,457.65,429.42Zm40.91-10,.78-.23V350.86h-67c4.69,4.46,8.77,8.43,13,12.24a4,4,0,0,0,2.93.46c12.09-2.09,22.58,1.46,31.39,9.61C490.3,383,496,394.78,492.19,409.72a3.48,3.48,0,0,0,.47,2.61C494.52,414.76,496.57,417,498.56,419.38Zm69.15,88.35a75,75,0,0,0,5.06-5.62c3-4.07,6.45-8,5.26-13.76-.21-1,.75-2.15,1-3.27.36-1.53,1.1-3.26.72-4.64a32.59,32.59,0,0,0-18.85-21.91c-9.06-4.08-17.5-2.91-25.25,3.51-1.92,1.59-1.81,2.66-.37,4.36,2.05,2.43,3.89,5,5.86,7.55Zm-9.91,5.48c-10.51-13.37-20.81-26.46-31.17-39.65-6.15,9-6.49,21.92-1,29.79C531.91,512.34,545.3,516.56,557.8,513.21ZM378.09,293.08l.82-.42c-2.05-6.3-3.71-12.78-6.34-18.83-1.1-2.55-4.19-4.27-6.46-6.26-3.87-3.4-9.81-4.48-13.58-2.4C359.68,275.79,368.81,284.51,378.09,293.08ZM483.31,399.41c1.86-10-16.11-28.34-27.42-25.83ZM410.2,345.76l-7.12-7.14v7.14Z" transform="translate(409.81 -132.73)"/><path class="cls-1" d="M242.87,184.34c6.85-8.87,13.47-17.44,20.1-26a21.37,21.37,0,0,1,1.9-2.14,5.06,5.06,0,1,1,7.56,6.73c-3.56,4.5-7.31,8.85-10.76,13.42-3.77,5-7.23,10.24-10.93,15.29-1.08,1.47-1.14,2.53.15,3.85,4.46,4.54,8.75,9.26,13.3,13.71,6.32,6.18,12.49,12.46,16.85,20.25.7,1.25,1.63,3.06,1.2,4.1-.73,1.74-2.21,3.86-3.83,4.35-1.44.44-4.41-.61-5.11-1.88-5.5-10-14.21-17.11-22-25-2.59-2.63-5.09-5.35-7.84-8.25-3.75,5.61-7.39,11.05-11.05,16.48-1.49,2.2-3,4.39-4.57,6.53-2.34,3.2-5.31,3.92-7.89,2-2.41-1.8-2.58-4.81-.47-7.91,5.37-7.91,10.68-15.86,16.13-23.71,1.16-1.67,1.13-2.81-.07-4.45-6.21-8.48-12-17.27-20.46-23.86a4.86,4.86,0,0,1-.59-7.11,4.8,4.8,0,0,1,7.1-.54c4.72,4.41,9.28,9,13.58,13.82C238,177.2,240.34,180.91,242.87,184.34Z" transform="translate(409.81 -132.73)"/><path class="cls-1" d="M359.9,398c9.41,8.39,18.48,16.53,27.64,24.57a22.09,22.09,0,0,0,4.42,2.48c2.71,1.44,3.75,4,2.65,6.67-1.22,3-3,4-6.18,2.72a32.77,32.77,0,0,1-8.77-5c-6.86-5.86-13.41-12.08-20.07-18.17-1.87-1.72-3.69-3.51-5.8-5.53-8.09,10.88-19.75,18.78-26.65,30.9a4.78,4.78,0,0,1-6.82,2c-2.41-1.3-3.67-4.43-2-6.83a203.42,203.42,0,0,1,12.6-16.34c5-5.76,10.49-11.1,15.93-16.8a32.47,32.47,0,0,0-2.19-2.42c-8.48-7.4-16.94-14.83-25.48-22.15-2.92-2.5-3.69-5.15-1.81-7.68s4.9-2.93,7.83-.52c9.41,7.77,18.7,15.69,28.76,24.15a10.86,10.86,0,0,1,1.11-1.95c5.64-7.06,11.26-14.13,17-21.08a58.83,58.83,0,0,1,7.14-7.24,4.81,4.81,0,0,1,7.07.77c1.69,2.11,1.33,4.72-.56,6.94C377.36,377.32,369,387.23,359.9,398Z" transform="translate(409.81 -132.73)"/><path class="cls-1" d="M242.91,296.35c-8.06-7.59-15.68-14.84-23.4-22a37,37,0,0,0-5.41-3.85c-2.43-1.55-3.4-4.08-2.32-6.56a5.06,5.06,0,0,1,6.36-2.8,19.36,19.36,0,0,1,5.63,3.48c7.08,6.43,14,13,21,19.54,1.54,1.45,3.12,2.86,5.55,5.07a17.6,17.6,0,0,1,1.92-3.11c8.67-9.07,17.34-18.13,26.15-27.06,1.24-1.25,3.26-2.5,4.84-2.41s3.41,1.61,4.34,3c1.43,2.16.25,4.25-1.44,6-5.8,5.92-11.62,11.83-17.38,17.79-3.47,3.58-6.85,7.26-10.57,11.21,2.08,1.5,4,2.87,5.95,4.31,7.8,5.89,15.63,11.73,23.34,17.73,2.94,2.28,3.32,5.07,1.51,7.5s-5.09,2.57-8.11.24c-9.68-7.44-19.41-14.81-30.07-22.93a19.36,19.36,0,0,1-2,3.22q-11.67,12.43-23.45,24.78c-2.75,2.88-5.85,3.17-8.09,1s-2-5.13.81-8.1Z" transform="translate(409.81 -132.73)"/><path class="cls-1" d="M453.69,304.31c-3,3.25-5.47,6.12-8.12,8.87-4,4.21-8.23,8.28-12.26,12.51a48.38,48.38,0,0,0-4.81,5.88c-1.66,2.41-3.87,3.36-6.21,2.28a4.44,4.44,0,0,1-2.16-6.42,72.35,72.35,0,0,1,7.93-9.82c6.29-6.75,12.77-13.32,19.28-20.08-7.51-9.42-14.76-18.55-22-27.67a8.57,8.57,0,0,0-.66-.69c-2.39-2.53-2.63-5.27-.65-7.32s4.93-2,7.48.78c3,3.29,5.86,6.73,8.62,10.23,4.46,5.67,8.79,11.46,13.35,17.43,1-.89,1.71-1.45,2.32-2.12,6.43-7.07,12.73-14.28,19.33-21.2a116.61,116.61,0,0,1,11.33-10.19c2.58-2.07,5.29-1.44,6.91,1s.87,5-1.66,6.91a41,41,0,0,0-5.69,4.6c-8.55,9.3-17,18.72-25.65,28.34,6.27,7.61,12.64,15.39,19.09,23.1a13,13,0,0,0,2.62,1.75c2,1.45,2.93,3.34,2,5.8s-3,3.6-5.33,2.81a14.58,14.58,0,0,1-5.84-3.57c-3.83-4.11-7.31-8.55-10.89-12.9C459.27,311.31,456.64,308,453.69,304.31Z" transform="translate(409.81 -132.73)"/><path class="cls-1" d="M450.8,204.22c-7.34,7-14.56,13.56-21.41,20.51-2.46,2.49-4.17,5.79-5.95,8.88-1.42,2.47-3.32,3.6-6,2.93s-4.39-2.81-3.61-5.46c.91-3.08,2.16-6.4,4.25-8.72,5.62-6.21,11.77-11.93,17.7-17.85l8.15-8.2L417.82,170c-.45-.45-1-.85-1.4-1.31-2.46-2.53-2.63-5.66-.44-7.93a5.25,5.25,0,0,1,7.7,0q7,6.54,13.68,13.35c4.41,4.46,8.68,9.05,13,13.58.24-.05.5,0,.62-.13q14.82-15.33,29.63-30.7c2.27-2.36,5.14-2.67,7.36-.74a4.92,4.92,0,0,1,.3,7.37c-6.16,6.45-12.58,12.66-18.79,19-4.06,4.17-7.94,8.5-12.16,13.05l28.62,30.13c.51.54,1.07,1,1.57,1.58,2.58,2.77,2.71,5.93.34,8.18s-5.32,2.11-7.91-.53q-9.6-9.79-19-19.75C457.56,211.7,454.31,208.05,450.8,204.22Z" transform="translate(409.81 -132.73)"/><path class="cls-1" d="M385.42,198a38.92,38.92,0,0,1-4.85,19.88c-7.48,13.1-22.89,18.58-38.77,13.87-24.47-7.25-34.42-31.41-22.69-55,3.83-7.73,9.23-14,17-18,1.61-.81,3.78-.56,5.69-.74.7-.07,1.48.24,2.11,0,4.9-1.62,9.66-.81,14.33.83C375.93,165,385.15,178.33,385.42,198Zm-10.06.55c-.17-2-.27-3.8-.49-5.59-1.56-13.06-9.52-22.16-22.28-25.09-2-.46-4.26.34-6.4.53-1.24.11-2.74.66-3.66.15-2-1.07-3.22-.18-4.6.84-6.21,4.63-10,10.91-12.1,18.24-4.74,16.57,3.21,30.35,19.88,34.65,14.39,3.72,26-3.31,28.94-17.58C375.08,202.58,375.14,200.43,375.36,198.5Z" transform="translate(409.81 -132.73)"/><path class="cls-1" d="M210.31,396.09c0-7.34.95-14.57,4.67-20.93,2.2-3.76,4.9-8.07,8.51-10,9.36-5,19.53-8.84,30.42-6.65,29.39,5.91,42.41,39.57,25,64.08-9.89,14-27.13,18.37-44,11C218.69,426.44,210.37,413.94,210.31,396.09Zm9.79-1.29c0,16.27,9.05,27.79,24,31.46,11.36,2.81,21-.69,27.24-10.06a32,32,0,0,0,4.77-24.66c-2-10-7.87-16.69-17.12-21.05-8.24-3.87-15.66-3.62-23,1.73a4.48,4.48,0,0,1-3.55.81c-2.72-1.07-4.17.45-5.66,2.12C221.45,381.09,220.47,388.41,220.1,394.8Z" transform="translate(409.81 -132.73)"/><path class="cls-1" d="M-343.61,136.24a1.53,1.53,0,0,1,1.68,1.6l-1.8,17.36a2,2,0,0,1-1.92,1.6h-17.87v56.67a1.68,1.68,0,0,1-1.68,1.6h-21.22a1.8,1.8,0,0,1-1.8-1.6V156.8h-19.91a1.67,1.67,0,0,1-1.68-1.6V138a1.78,1.78,0,0,1,1.68-1.72Z" transform="translate(409.81 -132.73)"/><path class="cls-1" d="M-267.81,136.24A1.73,1.73,0,0,1-266,138v75.51a1.72,1.72,0,0,1-1.8,1.6h-22.43a1.68,1.68,0,0,1-1.68-1.6V187.88h-16.79v25.59a1.72,1.72,0,0,1-1.8,1.6h-22.42a1.77,1.77,0,0,1-1.68-1.6V138a1.78,1.78,0,0,1,1.68-1.72h22.42a1.73,1.73,0,0,1,1.8,1.72v29.81h16.79V138a1.7,1.7,0,0,1,1.68-1.72Z" transform="translate(409.81 -132.73)"/><path class="cls-1" d="M-231.47,136.24a1.73,1.73,0,0,1,1.8,1.72v75.51a1.72,1.72,0,0,1-1.8,1.6H-252.7a1.77,1.77,0,0,1-1.67-1.6V138a1.78,1.78,0,0,1,1.67-1.72Z" transform="translate(409.81 -132.73)"/><path class="cls-1" d="M-149.2,136.24a1.73,1.73,0,0,1,1.8,1.72v75.51a1.72,1.72,0,0,1-1.8,1.6h-20.74a3.31,3.31,0,0,1-2.52-1.49l-20.87-35.53v35.42a1.72,1.72,0,0,1-1.8,1.6h-21.23a1.68,1.68,0,0,1-1.67-1.6V138a1.7,1.7,0,0,1,1.67-1.72h20.75a3.2,3.2,0,0,1,2.76,1.49l20.75,35.52V138a1.78,1.78,0,0,1,1.68-1.72Z" transform="translate(409.81 -132.73)"/><path class="cls-1" d="M-65,213.69c.6.8.12,1.38-.84,1.38H-93.67a3.31,3.31,0,0,1-2.51-1.38L-111,185.14v28.33a1.72,1.72,0,0,1-1.8,1.6h-21.23a1.77,1.77,0,0,1-1.68-1.6V138a1.78,1.78,0,0,1,1.68-1.72h21.23A1.73,1.73,0,0,1-111,138v25.58l14.39-25.93a3.38,3.38,0,0,1,2.76-1.37h26.26c1,0,1.32.57.84,1.37l-23.75,36.22Z" transform="translate(409.81 -132.73)"/><path class="cls-1" d="M-34.54,136.24a1.73,1.73,0,0,1,1.8,1.72v75.51a1.72,1.72,0,0,1-1.8,1.6H-55.76a1.77,1.77,0,0,1-1.68-1.6V138a1.78,1.78,0,0,1,1.68-1.72Z" transform="translate(409.81 -132.73)"/><path class="cls-1" d="M47.73,136.24a1.73,1.73,0,0,1,1.8,1.72v75.51a1.72,1.72,0,0,1-1.8,1.6H27a3.31,3.31,0,0,1-2.52-1.49L3.6,178.05v35.42a1.72,1.72,0,0,1-1.8,1.6H-19.42a1.68,1.68,0,0,1-1.68-1.6V138a1.7,1.7,0,0,1,1.68-1.72H1.32a3.2,3.2,0,0,1,2.76,1.49l20.75,35.52V138a1.78,1.78,0,0,1,1.68-1.72Z" transform="translate(409.81 -132.73)"/><path class="cls-1" d="M131.81,166.74a1.79,1.79,0,0,1,1.8,1.6v36.33a3.69,3.69,0,0,1-1.44,2.74c-7.2,5.83-18.23,9.25-29.74,9.25-25.91,0-43.18-16.45-43.18-41.12s17.27-41.13,43.18-41.13A51.47,51.47,0,0,1,127.61,141a1.75,1.75,0,0,1,1.08,2.06l-6,16.79a1.86,1.86,0,0,1-2.28.91,39.4,39.4,0,0,0-17.26-4c-11,0-18.47,7.54-18.47,18.74,0,11.42,7.43,19,18.47,19,4.43,0,7.43-.8,8.75-2.17v-6.62h-11c-1.08,0-1.8-.46-1.92-1.26l-1.56-15.76a1.7,1.7,0,0,1,1.92-1.95Zm-19.19,23.88v0Z" transform="translate(409.81 -132.73)"/><path class="cls-1" d="M-362.33,339.44c-28.49,0-47.48-18.34-47.48-45.73,0-27.65,19-46,47.48-46s47.48,18.34,47.48,46C-314.85,321.1-333.85,339.44-362.33,339.44Zm0-66c-11,0-18.32,8.15-18.32,20.26S-373.3,314-362.33,314-344,305.81-344,293.71-351.37,273.45-362.33,273.45Z" transform="translate(409.81 -132.73)"/><path class="cls-1" d="M-232.33,249.75a2.2,2.2,0,0,1,2.27,2.17v53.13c0,22.54-12.7,34.39-36.91,34.39-23.94,0-36.64-11.85-36.91-34.39V251.92a2.29,2.29,0,0,1,2.27-2.17h23a2.2,2.2,0,0,1,2.27,2.17v55.42c0,5.86,3.48,9.3,9.36,9.3s9.36-3.44,9.36-9.17V251.92a2.29,2.29,0,0,1,2.28-2.17Z" transform="translate(409.81 -132.73)"/><path class="cls-1" d="M-148.87,249.75a1.71,1.71,0,0,1,1.87,1.79l-2,19.36a2.25,2.25,0,0,1-2.14,1.79h-19.93v63.19a1.86,1.86,0,0,1-1.87,1.78h-23.68a2,2,0,0,1-2-1.78V272.69h-22.2a1.87,1.87,0,0,1-1.87-1.79V251.67a2,2,0,0,1,1.87-1.92Z" transform="translate(409.81 -132.73)"/><path class="cls-1" d="M-131.48,310.9a1.5,1.5,0,0,1,2.41-1c6.15,3.31,13.51,5.73,18.59,6.11,4.28,0,7.09-1.91,7.09-4.84,0-7.52-37.58-7.13-37.58-34.91,0-17.07,13.5-28.4,33.83-28.4,9.5,0,21.53,3.69,30,9.17,1.07.63,1.47,1.65,1.07,2.29l-8.43,18c-.4,1.28-1.33,1.66-2.4,1-6.56-3.56-14.18-6.24-18.86-6.62-4.15,0-6.82,1.78-6.82,4.58,0,7.52,37.85,7,37.85,35,0,16.94-13.78,28.28-34.37,28.28-11.24,0-23-3.31-29.7-8.41-1.06-.76-1.47-1.65-1.06-2.29Z" transform="translate(409.81 -132.73)"/><path class="cls-1" d="M-38.39,249.75a1.93,1.93,0,0,1,2,1.92v84.21a1.9,1.9,0,0,1-2,1.78H-62.06a2,2,0,0,1-1.88-1.78V251.67a2,2,0,0,1,1.88-1.92Z" transform="translate(409.81 -132.73)"/><path class="cls-1" d="M9.49,249.75c28.35,0,47.21,17.46,47.21,44,0,26.24-18.86,44-47.21,44h-31a2,2,0,0,1-1.87-1.91V251.67a2,2,0,0,1,1.87-1.92Zm1.6,65c10.3,0,17.26-8.41,17.26-21s-7-21-17.26-21H4.14v42Z" transform="translate(409.81 -132.73)"/><path class="cls-1" d="M131.6,314.73a1.9,1.9,0,0,1,2,1.65v19.5a2,2,0,0,1-2,1.78H69.41a2.69,2.69,0,0,1-2.14-1.91V251.54a1.66,1.66,0,0,1,1.87-1.79H130a2,2,0,0,1,2.14,1.79v19.24a2,2,0,0,1-2.14,1.91H95.09v10.06h28.35a1.56,1.56,0,0,1,1.74,1.66l-1.87,17.83A2.33,2.33,0,0,1,121,303.9H95.09v10.83Z" transform="translate(409.81 -132.73)"/><path class="cls-1" d="M-335.1,372.69a1.73,1.73,0,0,1,1.9,1.8l-2,19.6a2.27,2.27,0,0,1-2.17,1.8h-20.17v63.95a1.89,1.89,0,0,1-1.89,1.81h-24a2,2,0,0,1-2-1.81V395.89h-22.46a1.89,1.89,0,0,1-1.9-1.8V374.62a2,2,0,0,1,1.9-1.93Z" transform="translate(409.81 -132.73)"/><path class="cls-1" d="M-249.55,372.69a2,2,0,0,1,2,1.93v85.22a1.94,1.94,0,0,1-2,1.81h-25.31a1.9,1.9,0,0,1-1.9-1.81V431h-18.95v28.88a1.93,1.93,0,0,1-2,1.81H-323a2,2,0,0,1-1.89-1.81V374.62a2,2,0,0,1,1.89-1.93h25.31a1.94,1.94,0,0,1,2,1.93v33.65h18.95V374.62a1.91,1.91,0,0,1,1.9-1.93Z" transform="translate(409.81 -132.73)"/><path class="cls-1" d="M-169.56,438.44a1.92,1.92,0,0,1,2,1.67v19.73a2,2,0,0,1-2,1.81h-62.93a2.72,2.72,0,0,1-2.17-1.94V374.49a1.67,1.67,0,0,1,1.9-1.8h61.58a2.05,2.05,0,0,1,2.16,1.8V394a2,2,0,0,1-2.16,1.93h-35.33v10.19h28.7a1.59,1.59,0,0,1,1.76,1.67l-1.9,18.05a2.34,2.34,0,0,1-2.3,1.68h-26.26v11Z" transform="translate(409.81 -132.73)"/><path class="cls-1" d="M-92.95,372.69c17.73,0,29.51,10.05,29.51,25.14,0,9.28-4.74,16.11-12,18.17,8.53,2.07,14.08,9.8,14.08,20.5,0,15.09-11.78,25.15-29.37,25.15h-42.91a1.89,1.89,0,0,1-1.89-1.81V374.62a2,2,0,0,1,1.89-1.93Zm-6.22,34.94c4.06,0,6.76-2.33,6.76-5.93s-2.7-5.94-6.76-5.94h-8.53v11.87Zm2.43,30.94c3.93,0,6.63-2.45,6.63-6.19s-2.7-6.19-6.63-6.19h-11v12.38Z" transform="translate(409.81 -132.73)"/><path class="cls-1" d="M-3.61,463.45c-28.83,0-48-18.57-48-46.28,0-28,19.22-46.55,48.05-46.55s48,18.57,48,46.55C44.43,444.88,25.21,463.45-3.61,463.45Zm0-66.78c-11.1,0-18.55,8.25-18.55,20.5s7.45,20.49,18.55,20.49,18.54-8.25,18.54-20.49S7.48,396.67-3.61,396.67Z" transform="translate(409.81 -132.73)"/><path class="cls-1" d="M133.36,459.58c.68,1.16-.13,2.07-1.49,2.07H103.59a4,4,0,0,1-3.12-2.07L89.38,438.05l-11.1,21.53a4,4,0,0,1-3.12,2.07H46.88c-1.36,0-2.17-.91-1.49-2.07l24.23-42.41L45.39,374.75c-.68-1.16.13-2.06,1.49-2.06H75a4,4,0,0,1,3.11,2.06l11.24,22.82,11.23-22.82a4,4,0,0,1,3.11-2.06h28.15c1.36,0,2.17.9,1.49,2.06l-24.22,42.42Z" transform="translate(409.81 -132.73)"/></svg>