<svg id="Layer_1" data-name="Layer 1" xmlns="http://www.w3.org/2000/svg" viewBox="0 0 7.2 5"><defs><style>.cls-1{fill:#dcdcdc;}.cls-2{fill:red;}.cls-3{fill:#fff;}</style></defs><title>box and me</title><rect class="cls-1" width="7.2" height="5"/><path d="M15.23,9.93h0l.22.06s0,0,0,0v0c-.12-.25-.23-.51-.35-.77,0-.08,0-.08-.11,0h0l-.71.45s0,0,0,0l0,0h0l.23.06a.82.82,0,0,1-.33.65.91.91,0,0,1-.72.17,1.29,1.29,0,0,0,.41.16,1,1,0,0,0,1.16-.56A2.18,2.18,0,0,0,15.23,9.93Z" transform="translate(-9.36 -6.5)"/><path d="M9.52,6.73v4.54h4.57v-.4H9.92V7.13h3.77v3.21h.4V6.73Z" transform="translate(-9.36 -6.5)"/><path d="M11.15,8.09h-.33V8.7h-.24V8.09h-.33V7.9h.9Z" transform="translate(-9.36 -6.5)"/><path d="M12.21,7.9v.8H12V8.39H11.5V8.7h-.24V7.9h.24v.3H12V7.9Z" transform="translate(-9.36 -6.5)"/><path d="M13.26,8.52V8.7H12.4V7.9h.84v.18h-.61v.13h.51v.17h-.51v.14Z" transform="translate(-9.36 -6.5)"/><path d="M11.23,9.85c0,.14-.13.22-.33.22h-.62v-.8h.58c.2,0,.32.08.32.21a.17.17,0,0,1-.18.17C11.12,9.66,11.23,9.73,11.23,9.85Zm-.71-.26h.3c.08,0,.13,0,.13-.08s0-.08-.13-.08h-.3Zm.47.23c0-.06-.05-.08-.13-.08h-.34v.17h.34C10.94,9.91,11,9.89,11,9.82Z" transform="translate(-9.36 -6.5)"/><path d="M11.32,9.67c0-.27.2-.43.52-.43s.53.16.53.43-.21.42-.53.42S11.32,9.94,11.32,9.67Zm.81,0c0-.15-.11-.24-.29-.24s-.28.09-.28.24.11.23.28.23S12.13,9.82,12.13,9.67Z" transform="translate(-9.36 -6.5)"/><path d="M13,9.66l.36.41h-.28l-.22-.26-.23.26h-.27l.37-.41-.36-.39h.28l.22.24.22-.24h.27Z" transform="translate(-9.36 -6.5)"/><ellipse class="cls-2" cx="5.98" cy="1.41" rx="1.06" ry="1.05"/><path class="cls-3" d="M15.46,7.87v.28h-.13V7.88c0-.08,0-.12-.11-.12a.19.19,0,0,0-.16.1h0v.28h-.13V7.88c0-.08,0-.12-.11-.12a.19.19,0,0,0-.16.1v.29h-.13V7.67h.13v.09a.21.21,0,0,1,.2-.1.18.18,0,0,1,.19.12.22.22,0,0,1,.21-.12A.19.19,0,0,1,15.46,7.87Z" transform="translate(-9.36 -6.5)"/><path class="cls-3" d="M15.88,8.06A.29.29,0,0,0,16.07,8l.07.08a.37.37,0,0,1-.26.08c-.2,0-.31-.09-.31-.25s.11-.26.3-.26a.25.25,0,0,1,.28.26v0h-.46C15.71,8,15.77,8.06,15.88,8.06Zm-.18-.21H16a.15.15,0,0,0-.16-.09C15.78,7.76,15.72,7.79,15.7,7.85Z" transform="translate(-9.36 -6.5)"/></svg>