<svg id="Layer_1" data-name="Layer 1" xmlns="http://www.w3.org/2000/svg" viewBox="0 0 74.73 39.36"><defs><style>.cls-1{fill:#fff;}.cls-2{stroke:#000;stroke-miterlimit:10;stroke-width:0.25px;}</style></defs><title>box &amp;amp; me 2.0</title><rect class="cls-1" width="74.73" height="39.36"/><path class="cls-2" d="M2.66,6.39v4.27H2.28V6.45l-1.7.21v-.8l1.7-.21V3.86h.38V5.59l1.88-.23v.8Z" transform="translate(7.41 -1.51)"/><path class="cls-2" d="M8.34,10.66V6.55c0-.26-.12-.39-.48-.39A4.64,4.64,0,0,0,5.57,7v3.62H5.19V2.77h.38V6.24A4.87,4.87,0,0,1,8,5.33c.44,0,.7.18.7.64v4.69Z" transform="translate(7.41 -1.51)"/><path class="cls-2" d="M10.14,4.72V3h.38V4.72Zm0,5.94V5.52h.38v5.14Z" transform="translate(7.41 -1.51)"/><path class="cls-2" d="M15.13,10.66v-4c0-.34-.1-.48-.35-.48a4.21,4.21,0,0,0-2.4.88v3.62H12V5.52h.38v.72a4.55,4.55,0,0,1,2.49-.91.61.61,0,0,1,.65.62v4.71Z" transform="translate(7.41 -1.51)"/><path class="cls-2" d="M20.85,10.86l-3.51-2.4v2.2H17V2.77h.39V7.36l3.28-2,.24.28L17.53,7.69,21,10v.83Z" transform="translate(7.41 -1.51)"/><path class="cls-2" d="M-.31,18.76A3.16,3.16,0,0,1-3.47,22c-.79,0-1.39-.53-1.39-2a3.19,3.19,0,0,1,3.07-3.36c1,0,1.48.45,1.48,2.11Zm-.38-.13c0-.86-.3-1.2-1.1-1.2a2.8,2.8,0,0,0-2.68,2.63c0,.79.33,1.15,1,1.15A2.71,2.71,0,0,0-.69,18.64Z" transform="translate(7.41 -1.51)"/><path class="cls-2" d="M1.22,16.75v4.06c0,.27.26.4.65.4A3.13,3.13,0,0,0,4,20.29V16.75h.37v5.14H4v-.81A3.1,3.1,0,0,1,1.83,22c-.45,0-1-.13-1-.87v-4.4Z" transform="translate(7.41 -1.51)"/><path class="cls-2" d="M7.26,17.62v4.27H6.88V17.68l-1.7.21v-.8l1.7-.21V15.09h.38v1.72l1.88-.22v.8Z" transform="translate(7.41 -1.51)"/><path class="cls-2" d="M13.25,17.55a4.06,4.06,0,0,0-1.11-.12c-1.17,0-2.37.66-2.37,1.24,0,.19.2.33.64.33a7.31,7.31,0,0,0,1.06-.15c.3-.05.92-.14,1.09-.14,1,0,1.18.57,1.18,1.21,0,1.16-1,2.1-2.83,2.1a6.23,6.23,0,0,1-1.66-.27V21h.14a5.44,5.44,0,0,0,1.58.26c1.58,0,2.39-.72,2.39-1.25,0-.27-.15-.49-.84-.49a8,8,0,0,0-1,.14c-.3.05-.87.14-1,.14-.85,0-1.08-.45-1.08-1.07,0-1.11,1.31-2.05,2.95-2.05a4.06,4.06,0,0,1,1.05.12v.8Z" transform="translate(7.41 -1.51)"/><path class="cls-2" d="M14.86,16V14.27h.37V16Zm0,5.94V16.75h.37v5.14Z" transform="translate(7.41 -1.51)"/><path class="cls-2" d="M20.64,17.68v4.21h-.39V21a3,3,0,0,1-2.12,1c-1.07,0-1.74-.72-1.74-2.16,0-2.17,1.23-3.23,3-3.23a3.44,3.44,0,0,1,.87.12V14h.39v2.91l.2.11v.77Zm-.39-.13a3.62,3.62,0,0,0-.93-.12,2.33,2.33,0,0,0-2.54,2.38,1.26,1.26,0,0,0,1.37,1.4,3,3,0,0,0,2.1-1Z" transform="translate(7.41 -1.51)"/><path class="cls-2" d="M26.43,19c-.7.16-3.45.71-4.35.88,0,1,.53,1.37,1.45,1.37a4.78,4.78,0,0,0,2.3-.64H26v.73a5.18,5.18,0,0,1-2.45.72c-1,0-1.81-.51-1.81-2.06a3,3,0,0,1,3.07-3.33c1.09,0,1.52.72,1.57,1.74h.09Zm-.48-.5c0-.55-.35-1-1.24-1a2.59,2.59,0,0,0-2.57,1.78Z" transform="translate(7.41 -1.51)"/><path class="cls-2" d="M-3.67,28.77V33H-4V28.83l-1.71.22v-.81L-4,28V26.24h.37V28l1.88-.23v.81Z" transform="translate(7.41 -1.51)"/><path class="cls-2" d="M2,33V28.93c0-.26-.11-.38-.47-.38a4.68,4.68,0,0,0-2.3.87V33h-.37V25.15h.37v3.47a4.89,4.89,0,0,1,2.45-.9c.43,0,.7.17.7.64V33Z" transform="translate(7.41 -1.51)"/><path class="cls-2" d="M8.22,30.11c-.7.17-3.45.72-4.35.88,0,1,.53,1.38,1.45,1.38a4.81,4.81,0,0,0,2.3-.64h.13v.73a5.27,5.27,0,0,1-2.45.71c-1,0-1.81-.5-1.81-2.06a3,3,0,0,1,3.07-3.33c1.09,0,1.52.73,1.57,1.74h.09Zm-.48-.5c0-.55-.35-1-1.24-1a2.59,2.59,0,0,0-2.57,1.78Z" transform="translate(7.41 -1.51)"/><path class="cls-2" d="M13,28.6a3.63,3.63,0,0,1,2.17-.82c1.11,0,1.51.8,1.51,2.09,0,2.21-1.2,3.29-2.79,3.29a3.33,3.33,0,0,1-1.4-.35V32l.13.07v-6.9H13Zm0,3.6a2.72,2.72,0,0,0,.94.16A2.28,2.28,0,0,0,16.3,29.9c0-.67-.26-1.32-1.17-1.32A3.59,3.59,0,0,0,13,29.4Z" transform="translate(7.41 -1.51)"/><path class="cls-2" d="M22.07,29.91a3.15,3.15,0,0,1-3.16,3.26c-.79,0-1.39-.53-1.39-2a3.19,3.19,0,0,1,3.07-3.36c1,0,1.48.45,1.48,2.12Zm-.37-.12c0-.87-.31-1.21-1.11-1.21a2.8,2.8,0,0,0-2.68,2.63c0,.79.34,1.16,1,1.16A2.72,2.72,0,0,0,21.7,29.8Z" transform="translate(7.41 -1.51)"/><path class="cls-2" d="M27.17,33.13,24.88,30.8c-.35.25-1.68,2.12-2,2.37L22.54,33l2.07-2.47c-.33-.2-1.53-1.69-1.86-1.89v-.91h.14c.37.23,1.8,2,2.17,2.23L27,27.69h.14v.47l-1.77,2.05,2,2v.9Z" transform="translate(7.41 -1.51)"/><path d="M31.41,3.84h28.3V30.07a.47.47,0,0,0,0,.24l1.12,1.44c.25-.17.46-.36.71-.5a3,3,0,0,1,3.51.5A3.6,3.6,0,0,1,66.3,34a1.41,1.41,0,0,1-.1.52s-.06.1-.06.15a2.87,2.87,0,0,1-.88,1.93l-.26.29s0,0,0,.06l.14.19a.49.49,0,0,1-.05.65.45.45,0,0,1-.65,0c-.2-.27-.39-.23-.67-.14a3.41,3.41,0,0,1-3.67-1.1,3,3,0,0,1-.43-2.63,5.44,5.44,0,0,1,.45-1.09.37.37,0,0,0,0-.51c-.11-.11-.2-.24-.34-.41,0,.42-.19.4-.46.4H31.41Zm1.13,9.64h8.33V5.15H32.54ZM41.33,31h8.34V22.69H41.33Zm-.46-8.75V13.93H32.54v8.32Zm9.26-8.33a.59.59,0,0,0,0,.11c0,2,0,4,0,5.94a.45.45,0,0,0,.13.28c.59.62,1.19,1.22,1.78,1.84a.6.6,0,0,0,.46.18h5.7l.28,0V13.92Zm8.33-.44V5.15H50.13v8.33ZM49.67,5.15H41.33v8.33h8.34Zm-8.8,17.54H32.54V31h8.33Zm8.81-.44a4.77,4.77,0,0,1,0-.66,1.05,1.05,0,0,0-.35-.93,9.87,9.87,0,0,1-.73-.82,5.7,5.7,0,0,1-.32.48,2.81,2.81,0,0,1-2.71,1,3.28,3.28,0,0,1-2.8-2.19,3.1,3.1,0,0,1,.61-3.41,10.49,10.49,0,0,1,.86-.77.34.34,0,0,0,.13-.24.5.5,0,0,1,.29-.56.41.41,0,0,1,.56.15c.09.13.18.13.32.11a2.05,2.05,0,0,1,1.71.3,3.85,3.85,0,0,1,1,1.17,5,5,0,0,1,.62,2.66.27.27,0,0,0,0,.18c.23.28.47.55.73.87V13.93H41.33v8.32Zm3.16,2-.06-.09-1.43-1.37s-.09-.09-.14-.09H50.14V31h8.32c0-.3,0-.61-.06-.79a16.59,16.59,0,0,0-1.08-1.37,3.08,3.08,0,0,1-2.39,1.5,3.35,3.35,0,0,1-2.62-1A3.2,3.2,0,0,1,52.84,24.23Zm-8-8.65c-.2.16-.37.28-.53.42a2.47,2.47,0,0,0-.7,2.87,2.62,2.62,0,0,0,2.57,1.62,1.81,1.81,0,0,0,1.72-1.12.4.4,0,0,0-.1-.49A19.1,19.1,0,0,1,44.81,15.58Zm10,13.91a1.69,1.69,0,0,0,1.57-1.07.32.32,0,0,1,.1-.13c.18-.13.12-.24,0-.38L53.71,25a.28.28,0,0,0-.42-.05,2.33,2.33,0,0,0-1,2.57A2.8,2.8,0,0,0,54.85,29.49Zm3.54-.87.06,0V22.7H52.66c.41.38.76.72,1.13,1.05a.3.3,0,0,0,.25,0,3.41,3.41,0,0,1,3.8,4,.27.27,0,0,0,0,.23C58,28.22,58.21,28.42,58.39,28.62Zm6,7.63a6,6,0,0,0,.44-.48,1.43,1.43,0,0,0,.45-1.19c0-.08.07-.19.09-.28s.1-.28.06-.4A2.8,2.8,0,0,0,63.77,32a1.94,1.94,0,0,0-2.18.31c-.16.13-.15.23,0,.37s.34.44.51.65Zm-.85.48-2.7-3.43a2.39,2.39,0,0,0-.08,2.58A2.62,2.62,0,0,0,63.51,36.73ZM48,17.7l.07,0c-.17-.55-.32-1.11-.54-1.63-.1-.22-.37-.37-.56-.54a1.1,1.1,0,0,0-1.18-.21A14.06,14.06,0,0,0,48,17.7Zm9.1,9.19c.16-.86-1.39-2.45-2.37-2.23Zm-6.32-4.63-.62-.62v.62Z" transform="translate(7.41 -1.51)"/><path d="M36.29,8.3,38,6.06a1.54,1.54,0,0,1,.17-.19.44.44,0,1,1,.65.58c-.31.39-.63.77-.93,1.16s-.62.89-.94,1.32a.22.22,0,0,0,0,.34c.38.39.75.8,1.15,1.18a8.44,8.44,0,0,1,1.46,1.75c.06.11.14.27.1.36a.64.64,0,0,1-.33.37.47.47,0,0,1-.44-.16A10.1,10.1,0,0,0,37,10.61l-.67-.72-1,1.43-.39.56c-.21.28-.46.34-.69.18s-.22-.42,0-.69l1.4-2a.28.28,0,0,0,0-.38,9.45,9.45,0,0,0-1.77-2.06.42.42,0,0,1-.05-.62.41.41,0,0,1,.61,0c.41.39.81.78,1.18,1.2S36.07,8,36.29,8.3Z" transform="translate(7.41 -1.51)"/><path d="M46.4,26.77c.81.73,1.6,1.43,2.39,2.12a1.79,1.79,0,0,0,.38.22.43.43,0,0,1,.23.58.35.35,0,0,1-.53.23,3,3,0,0,1-.76-.43c-.59-.51-1.16-1-1.74-1.58-.16-.14-.31-.3-.5-.47a28.08,28.08,0,0,0-2.3,2.67.42.42,0,0,1-.59.17.41.41,0,0,1-.17-.59c.34-.48.7-1,1.09-1.41s.9-1,1.37-1.45l-.18-.21L42.88,24.7c-.25-.21-.32-.44-.15-.66a.43.43,0,0,1,.67,0c.82.67,1.62,1.35,2.49,2.08a1.34,1.34,0,0,1,.1-.17c.48-.61,1-1.22,1.47-1.82a5.1,5.1,0,0,1,.61-.62.42.42,0,0,1,.62.06.46.46,0,0,1,0,.6C47.91,25,47.19,25.84,46.4,26.77Z" transform="translate(7.41 -1.51)"/><path d="M36.29,18l-2-1.89a3.12,3.12,0,0,0-.47-.34.44.44,0,0,1,.35-.81,1.9,1.9,0,0,1,.49.3l1.81,1.69c.13.13.27.25.48.44a1.39,1.39,0,0,1,.17-.27l2.26-2.34a.7.7,0,0,1,.42-.21.58.58,0,0,1,.37.27c.12.18,0,.36-.12.51-.51.51-1,1-1.51,1.54l-.91,1,.51.37c.68.51,1.36,1,2,1.53a.43.43,0,0,1,.13.65c-.16.22-.44.22-.7,0l-2.6-2a1.22,1.22,0,0,1-.17.28c-.67.72-1.35,1.43-2,2.14-.24.25-.51.28-.7.09s-.18-.45.07-.7C34.85,19.49,35.56,18.75,36.29,18Z" transform="translate(7.41 -1.51)"/><path d="M54.51,18.67l-.7.77c-.35.36-.72.72-1.06,1.08a4.06,4.06,0,0,0-.42.51.42.42,0,0,1-.54.2.39.39,0,0,1-.18-.56,6,6,0,0,1,.68-.85c.55-.58,1.11-1.15,1.67-1.73L52.05,15.7s0,0,0-.06a.44.44,0,0,1-.06-.64c.18-.19.43-.17.65.07s.5.58.74.88c.39.49.76,1,1.16,1.51l.2-.18c.55-.61,1.1-1.24,1.67-1.83a9.25,9.25,0,0,1,1-.89.38.38,0,0,1,.59.09.41.41,0,0,1-.14.59,3.88,3.88,0,0,0-.49.4l-2.22,2.45,1.65,2a.91.91,0,0,0,.23.15.4.4,0,0,1,.17.5.35.35,0,0,1-.46.24,1.19,1.19,0,0,1-.51-.3c-.33-.36-.63-.74-.94-1.12Z" transform="translate(7.41 -1.51)"/><path d="M54.26,10c-.64.61-1.26,1.17-1.85,1.77a3.72,3.72,0,0,0-.52.77.44.44,0,0,1-.52.26.37.37,0,0,1-.31-.48,2,2,0,0,1,.37-.75c.48-.54,1-1,1.53-1.54l.7-.71L51.41,7.07,51.29,7a.46.46,0,0,1,0-.68.45.45,0,0,1,.66,0c.41.37.8.76,1.19,1.15s.75.78,1.12,1.18l.05,0c.86-.88,1.71-1.76,2.56-2.65a.44.44,0,0,1,.64-.06.42.42,0,0,1,0,.63c-.54.56-1.09,1.1-1.63,1.65-.35.36-.68.74-1,1.13l2.47,2.6.14.14a.48.48,0,0,1,0,.71.45.45,0,0,1-.68-.05c-.56-.56-1.1-1.13-1.65-1.71C54.84,10.67,54.56,10.35,54.26,10Z" transform="translate(7.41 -1.51)"/><path d="M48.61,9.48a3.42,3.42,0,0,1-.42,1.72,2.82,2.82,0,0,1-3.35,1.2,3.21,3.21,0,0,1-2-4.76,3.28,3.28,0,0,1,1.46-1.55A1.57,1.57,0,0,1,44.83,6,1.28,1.28,0,0,0,45,6a1.83,1.83,0,0,1,1.24.07A3.33,3.33,0,0,1,48.61,9.48Zm-.87,0c0-.18,0-.33,0-.49a2.4,2.4,0,0,0-1.93-2.16,1.73,1.73,0,0,0-.55,0c-.11,0-.24.06-.32,0s-.28,0-.4.08a2.9,2.9,0,0,0-1,1.57,2.26,2.26,0,0,0,1.71,3,1.91,1.91,0,0,0,2.51-1.52C47.71,9.88,47.72,9.69,47.74,9.53Z" transform="translate(7.41 -1.51)"/><path d="M33.47,26.61a3.42,3.42,0,0,1,.41-1.81,2.24,2.24,0,0,1,.73-.87,3.93,3.93,0,0,1,2.63-.57A3.52,3.52,0,0,1,39.4,28.9a3,3,0,0,1-3.8.94A3.3,3.3,0,0,1,33.47,26.61Zm.85-.12a2.61,2.61,0,0,0,2.07,2.72,2,2,0,0,0,2.35-.87,2.76,2.76,0,0,0,.42-2.13,2.45,2.45,0,0,0-1.48-1.82,1.82,1.82,0,0,0-2,.15.4.4,0,0,1-.31.07c-.24-.09-.36,0-.49.19A2.6,2.6,0,0,0,34.32,26.49Z" transform="translate(7.41 -1.51)"/></svg>