<svg id="Layer_1" data-name="Layer 1" xmlns="http://www.w3.org/2000/svg" viewBox="0 0 1342.98 530.04"><defs><style>.cls-1{fill:#fff;}.cls-2{fill:#1a1a1a;}</style></defs><title>box &amp;amp; me 2.0</title><rect class="cls-1" width="1342.98" height="530.04"/><path class="cls-2" d="M99.29,591.42H493.37v4.14q0,180.59,0,361.17c0,1.1-.07,2.49.52,3.27,5.08,6.71,10.3,13.32,15.55,20,3.41-2.41,6.43-5,9.83-6.88,15.64-8.75,34.3-6.07,49,6.86a50.68,50.68,0,0,1,17,31c.36,2.27-.88,4.81-1.44,7.2-.17.72-.82,1.39-.8,2.08.25,11-5.75,19.07-12.3,26.91-1.15,1.37-2.38,2.67-3.56,4a3.56,3.56,0,0,0-.31.91c.61.82,1.31,1.71,2,2.65,2.11,3.07,1.81,6.74-.72,9s-6.91,2.62-9-.17c-2.82-3.82-5.53-3.27-9.42-2-18.67,5.88-40.24-.65-51.13-15.29-8.26-11.12-9.2-23.68-5.93-36.61a70.9,70.9,0,0,1,6.29-15.15c1.5-2.85,1.6-4.8-.6-7.07-1.5-1.55-2.74-3.34-4.7-5.77.58,5.91-2.73,5.61-6.35,5.61q-191.21,0-382.4.09H99.29Zm15.8,134.25H231v-116H115.09Zm122.37,244H353.55V853.89H237.46ZM231,847.75V731.86h-116V847.75Zm129-116a14.49,14.49,0,0,0-.2,1.56c0,27.53,0,55.07.06,82.6a6.4,6.4,0,0,0,1.77,3.92c8.22,8.6,16.59,17,24.83,25.63a8.06,8.06,0,0,0,6.42,2.52c26.46-.09,52.92,0,79.39,0,1.23,0,2.46-.13,3.82-.21v-116Zm116.05-6.12V609.6h-116V725.68ZM353.61,609.61H237.52V725.69H353.61ZM231.1,853.83h-116V969.74h116Zm122.7-6.06a82.39,82.39,0,0,1,.06-9.21c.64-5.24-1-9.26-4.86-12.89-3.64-3.44-6.7-7.48-10.17-11.43-1.7,2.58-2.87,4.72-4.38,6.6-9.81,12.17-23,15.63-37.77,13.82-18.88-2.32-32.16-12.77-39-30.44-6.74-17.31-4-33.53,8.47-47.55,3.52-4,8.07-7,12-10.64.93-.85,2-2.42,1.82-3.47-.62-3.78,1.07-6.06,4.08-7.74,3.21-1.8,5.79-.36,7.69,2.09,1.34,1.75,2.59,1.88,4.56,1.54,8.42-1.46,17-1.46,23.81,4.16,5.58,4.62,11.37,10,14.49,16.35,5.63,11.43,9.74,23.71,8.52,37-.07.86-.19,2,.27,2.58,3.13,3.9,6.41,7.67,10.15,12.07V731.85H237.47V847.77Zm43.95,27.52a8.37,8.37,0,0,0-.84-1.18Q387,864.51,377,855c-.54-.51-1.25-1.17-1.89-1.18-5-.1-10.08-.06-15-.06V969.41H476c-.25-4.09.75-8.4-.91-11-4.26-6.61-9.7-12.45-15-19-8.34,12-18.84,19.88-33.27,20.86s-26.27-4.81-36.51-14.71C372.55,928.38,368.65,895.9,397.75,875.29ZM286,754.91c-2.84,2.24-5.24,3.92-7.4,5.87-12.12,10.89-15.66,25.55-9.75,39.94a36.2,36.2,0,0,0,35.82,22.5c10.71-.73,19.46-4.82,23.84-15.61,1.13-2.78.79-4.6-1.3-6.76C313.06,786.18,297,773.27,286,754.91ZM425.75,948.54c8.17-1.3,17.93-3.36,21.91-14.83a4.13,4.13,0,0,1,1.38-1.8c2.51-1.87,1.69-3.44-.12-5.29q-19.57-20-39-40.06c-2-2-3.48-2.11-5.85-.58-12.43,8-18.46,22.53-14.62,35.74C393.74,936.54,409,948.49,425.75,948.54ZM475,936.45l.94-.28V854H395.29c5.64,5.36,10.56,10.15,15.65,14.73.75.68,2.39.74,3.52.55,14.56-2.51,27.18,1.76,37.79,11.56,12.8,11.84,19.64,26,15.08,44a4.12,4.12,0,0,0,.56,3.13C470.13,930.89,472.6,933.64,475,936.45Zm83.23,106.34a88.61,88.61,0,0,0,6.09-6.76c3.59-4.9,7.77-9.61,6.33-16.57-.24-1.17.92-2.58,1.23-3.93.42-1.85,1.32-3.92.87-5.58A39.28,39.28,0,0,0,550,983.57q-16.37-7.37-30.39,4.23c-2.32,1.92-2.18,3.2-.45,5.25,2.47,2.93,4.69,6.07,7.06,9.08C536.75,1015.49,547.26,1028.84,558.22,1042.79Zm-11.92,6.6-37.52-47.73c-7.41,10.83-7.81,26.39-1.2,35.86C515.13,1048.34,531.25,1053.42,546.3,1049.39ZM330,784.42l1-.5c-2.47-7.59-4.47-15.38-7.63-22.66-1.33-3.07-5.05-5.14-7.78-7.54-4.66-4.09-11.81-5.38-16.35-2.89C307.83,763.62,318.82,774.11,330,784.42Zm126.64,128c2.25-12-19.39-34.11-33-31.08Zm-88-64.58-8.57-8.59v8.59Z" transform="translate(717.43 -563.5)"/><path class="cls-2" d="M167.22,653.54c8.26-10.68,16.22-21,24.2-31.29a25.57,25.57,0,0,1,2.29-2.58c2.61-2.54,6.12-2.73,8.62-.51s2.76,5.74.48,8.62c-4.28,5.41-8.8,10.64-12.95,16.15-4.54,6-8.7,12.32-13.16,18.4-1.29,1.77-1.37,3,.18,4.63,5.37,5.47,10.53,11.15,16,16.51,7.6,7.44,15,15,20.29,24.37.84,1.5,1.95,3.69,1.43,4.93-.87,2.1-2.66,4.66-4.6,5.24-1.73.53-5.3-.73-6.15-2.26-6.62-12.07-17.1-20.6-26.51-30.12-3.12-3.16-6.13-6.44-9.43-9.93-4.52,6.75-8.89,13.31-13.3,19.84-1.79,2.65-3.61,5.28-5.5,7.85-2.83,3.86-6.39,4.73-9.5,2.41-2.9-2.17-3.1-5.8-.57-9.53,6.47-9.51,12.86-19.08,19.42-28.53,1.4-2,1.35-3.39-.09-5.36-7.47-10.22-14.47-20.79-24.62-28.72a6,6,0,1,1,7.84-9.21c5.67,5.31,11.16,10.84,16.34,16.63C161.4,645,164.19,649.41,167.22,653.54Z" transform="translate(717.43 -563.5)"/><path class="cls-2" d="M308.09,910.73c11.34,10.1,22.25,19.9,33.27,29.57,1.5,1.31,3.52,2,5.32,3,3.27,1.73,4.52,4.84,3.2,8-1.48,3.55-3.65,4.84-7.45,3.27a39.61,39.61,0,0,1-10.55-6.07c-8.26-7-16.14-14.53-24.15-21.87-2.26-2.07-4.44-4.23-7-6.66-9.74,13.1-23.78,22.61-32.07,37.2a5.76,5.76,0,0,1-8.22,2.44c-2.9-1.56-4.41-5.33-2.38-8.21a243.35,243.35,0,0,1,15.17-19.68c6-6.93,12.62-13.36,19.17-20.22a38.69,38.69,0,0,0-2.63-2.91c-10.21-8.91-20.39-17.85-30.68-26.66-3.51-3-4.43-6.21-2.17-9.25s5.89-3.53,9.42-.62c11.33,9.35,22.51,18.88,34.61,29.07a13.4,13.4,0,0,1,1.35-2.35c6.79-8.49,13.55-17,20.49-25.37a70.77,70.77,0,0,1,8.59-8.72,5.79,5.79,0,0,1,8.52.93c2,2.54,1.6,5.68-.68,8.35C329.11,885.83,319.08,897.75,308.09,910.73Z" transform="translate(717.43 -563.5)"/><path class="cls-2" d="M167.28,788.36c-9.7-9.13-18.88-17.85-28.17-26.45a44.27,44.27,0,0,0-6.5-4.64c-2.94-1.86-4.1-4.91-2.81-7.9a6.1,6.1,0,0,1,7.66-3.36,22.83,22.83,0,0,1,6.78,4.19c8.52,7.73,16.87,15.67,25.29,23.52,1.86,1.74,3.75,3.43,6.68,6.1a21.1,21.1,0,0,1,2.31-3.75C189,765.16,199.39,754.25,210,743.51c1.49-1.51,3.92-3,5.83-2.91s4.09,1.94,5.22,3.64c1.72,2.59.3,5.12-1.73,7.19-7,7.13-14,14.24-20.93,21.42-4.17,4.31-8.24,8.73-12.72,13.49,2.5,1.81,4.86,3.46,7.16,5.19,9.39,7.09,18.82,14.12,28.1,21.34,3.53,2.75,4,6.1,1.81,9-2.3,3.09-6.12,3.09-9.76.29-11.65-9-23.37-17.83-36.19-27.61a23.58,23.58,0,0,1-2.37,3.88q-14.05,15-28.23,29.83c-3.31,3.46-7,3.81-9.73,1.18s-2.43-6.18,1-9.75C147.3,809.34,157.17,799,167.28,788.36Z" transform="translate(717.43 -563.5)"/><path class="cls-2" d="M421,797.94c-3.56,3.91-6.58,7.37-9.76,10.68-4.88,5.07-9.92,10-14.77,15.06a56.87,56.87,0,0,0-5.78,7.08c-2,2.89-4.66,4-7.48,2.74s-4.49-4.82-2.6-7.72A88,88,0,0,1,390.14,814c7.57-8.12,15.37-16,23.2-24.16l-26.51-33.31c-.24-.3-.53-.55-.8-.83-2.87-3-3.16-6.35-.78-8.81,2.52-2.62,5.93-2.44,9,.93,3.61,4,7.05,8.1,10.37,12.32,5.37,6.83,10.58,13.79,16.07,21,1.17-1.07,2.05-1.75,2.78-2.56,7.75-8.51,15.34-17.18,23.28-25.51a137.92,137.92,0,0,1,13.63-12.26c3.11-2.5,6.37-1.74,8.32,1.15s1.05,6-2,8.32a47.8,47.8,0,0,0-6.84,5.53c-10.29,11.2-20.43,22.54-30.88,34.11,7.55,9.17,15.22,18.53,23,27.81.78.93,2.12,1.37,3.16,2.1,2.45,1.75,3.53,4,2.37,7s-3.58,4.35-6.41,3.38a17.43,17.43,0,0,1-7-4.29c-4.61-5-8.8-10.29-13.11-15.52C427.7,806.37,424.54,802.37,421,797.94Z" transform="translate(717.43 -563.5)"/><path class="cls-2" d="M417.51,677.47c-8.84,8.41-17.53,16.32-25.77,24.68-3,3-5,7-7.16,10.69-1.72,3-4,4.34-7.25,3.54S372.05,713,373,709.8c1.09-3.71,2.59-7.71,5.11-10.49,6.76-7.48,14.16-14.37,21.3-21.5,3.15-3.14,6.28-6.31,9.82-9.86Q393.42,652,377.8,636.31c-.54-.55-1.14-1-1.67-1.58-3-3.05-3.17-6.82-.53-9.54s6.3-2.78,9.26,0q8.4,7.88,16.48,16.08c5.3,5.36,10.43,10.89,15.63,16.34.28-.06.6,0,.74-.15q17.85-18.47,35.66-37c2.74-2.84,6.19-3.21,8.87-.89a5.93,5.93,0,0,1,.35,8.88c-7.41,7.76-15.13,15.23-22.61,22.93-4.88,5-9.55,10.23-14.64,15.7l34.45,36.26c.61.65,1.28,1.25,1.89,1.9,3.11,3.34,3.26,7.14.42,9.85s-6.41,2.54-9.53-.64Q441,702.71,429.69,690.73C425.64,686.47,421.74,682.08,417.51,677.47Z" transform="translate(717.43 -563.5)"/><path class="cls-2" d="M338.81,669.92c0,8.46-1.61,16.54-5.83,23.93-9,15.77-27.56,22.37-46.67,16.7-29.46-8.73-41.43-37.8-27.31-66.27,4.61-9.3,11.11-16.88,20.44-21.61,1.94-1,4.54-.68,6.84-.89.84-.08,1.78.29,2.54,0,5.9-2,11.63-1,17.26,1C327.4,630.3,338.48,646.3,338.81,669.92Zm-12.11.66c-.2-2.39-.32-4.57-.58-6.72-1.88-15.72-11.46-26.68-26.82-30.2-2.4-.55-5.13.41-7.71.64-1.49.13-3.3.78-4.41.18-2.35-1.29-3.87-.23-5.53,1-7.48,5.56-12,13.13-14.56,22C261.38,677.38,271,694,291,699.15c17.33,4.47,31.3-4,34.84-21.16C326.36,675.49,326.44,672.91,326.7,670.58Z" transform="translate(717.43 -563.5)"/><path class="cls-2" d="M128,908.42c0-8.84,1.15-17.54,5.62-25.2,2.65-4.53,5.9-9.71,10.24-12,11.27-6,23.51-10.64,36.62-8,35.37,7.12,51,47.63,30.14,77.13-11.91,16.81-32.66,22.12-53,13.2C138.12,945,128.11,929.9,128,908.42Zm11.78-1.56c0,19.59,10.9,33.45,28.85,37.88,13.66,3.37,25.29-.85,32.78-12.12a38.52,38.52,0,0,0,5.75-29.69c-2.36-12.08-9.48-20.08-20.62-25.32-9.91-4.67-18.84-4.37-27.69,2.08-1.12.81-3.13,1.42-4.28,1-3.27-1.29-5,.54-6.81,2.56C141.44,890.36,140.27,899.18,139.82,906.86Z" transform="translate(717.43 -563.5)"/><path class="cls-2" d="M-611,595.81a2,2,0,0,1,2.21,2.11l-2.37,22.88a2.64,2.64,0,0,1-2.53,2.11h-23.56v74.7a2.21,2.21,0,0,1-2.21,2.11h-28a2.36,2.36,0,0,1-2.37-2.11v-74.7h-26.25a2.21,2.21,0,0,1-2.21-2.11V598.07a2.35,2.35,0,0,1,2.21-2.26Z" transform="translate(717.43 -563.5)"/><path class="cls-2" d="M-511.11,595.81a2.27,2.27,0,0,1,2.37,2.26v99.54a2.26,2.26,0,0,1-2.37,2.11h-29.57a2.21,2.21,0,0,1-2.21-2.11V663.87H-565v33.74a2.26,2.26,0,0,1-2.37,2.11H-597a2.33,2.33,0,0,1-2.21-2.11V598.07a2.35,2.35,0,0,1,2.21-2.26h29.57a2.27,2.27,0,0,1,2.37,2.26v39.3h22.13v-39.3a2.23,2.23,0,0,1,2.21-2.26Z" transform="translate(717.43 -563.5)"/><path class="cls-2" d="M-463.2,595.81a2.27,2.27,0,0,1,2.37,2.26v99.54a2.26,2.26,0,0,1-2.37,2.11h-28a2.33,2.33,0,0,1-2.21-2.11V598.07a2.35,2.35,0,0,1,2.21-2.26Z" transform="translate(717.43 -563.5)"/><path class="cls-2" d="M-354.75,595.81a2.27,2.27,0,0,1,2.37,2.26v99.54a2.26,2.26,0,0,1-2.37,2.11H-382.1a4.35,4.35,0,0,1-3.32-2l-27.51-46.84v46.69a2.26,2.26,0,0,1-2.37,2.11h-28a2.21,2.21,0,0,1-2.21-2.11V598.07a2.23,2.23,0,0,1,2.21-2.26h27.35a4.22,4.22,0,0,1,3.63,2l27.36,46.84V598.07a2.34,2.34,0,0,1,2.21-2.26Z" transform="translate(717.43 -563.5)"/><path class="cls-2" d="M-243.76,697.91c.79,1.05.16,1.81-1.11,1.81h-36.67a4.35,4.35,0,0,1-3.32-1.81l-19.61-37.65v37.35a2.26,2.26,0,0,1-2.37,2.11h-28a2.32,2.32,0,0,1-2.21-2.11V598.07a2.34,2.34,0,0,1,2.21-2.26h28a2.27,2.27,0,0,1,2.37,2.26V631.8l19-34.19a4.51,4.51,0,0,1,3.64-1.8h34.62c1.27,0,1.74.75,1.11,1.8l-31.3,47.74Z" transform="translate(717.43 -563.5)"/><path class="cls-2" d="M-203.6,595.81a2.27,2.27,0,0,1,2.37,2.26v99.54a2.26,2.26,0,0,1-2.37,2.11h-28a2.33,2.33,0,0,1-2.22-2.11V598.07a2.35,2.35,0,0,1,2.22-2.26Z" transform="translate(717.43 -563.5)"/><path class="cls-2" d="M-95.15,595.81a2.27,2.27,0,0,1,2.38,2.26v99.54a2.26,2.26,0,0,1-2.38,2.11H-122.5a4.38,4.38,0,0,1-3.32-2l-27.5-46.84v46.69a2.26,2.26,0,0,1-2.37,2.11h-28a2.21,2.21,0,0,1-2.21-2.11V598.07a2.23,2.23,0,0,1,2.21-2.26h27.35a4.23,4.23,0,0,1,3.64,2l27.35,46.84V598.07a2.35,2.35,0,0,1,2.21-2.26Z" transform="translate(717.43 -563.5)"/><path class="cls-2" d="M15.68,636a2.36,2.36,0,0,1,2.37,2.11V686a4.92,4.92,0,0,1-1.89,3.62c-9.49,7.68-24,12.19-39.21,12.19C-57.2,701.82-80,680.14-80,647.61S-57.2,593.4-23,593.4c11.7,0,24,3.31,33.2,8.73a2.3,2.3,0,0,1,1.42,2.71L3.67,627a2.46,2.46,0,0,1-3,1.2,52,52,0,0,0-22.76-5.27c-14.55,0-24.35,9.94-24.35,24.7,0,15.06,9.8,25,24.35,25,5.85,0,9.8-1.06,11.54-2.86V661H-25.1c-1.43,0-2.38-.6-2.53-1.66l-2.06-20.78c-.16-1.5.79-2.56,2.53-2.56ZM-9.61,667.49v0Z" transform="translate(717.43 -563.5)"/><path class="cls-2" d="M-635.71,844.93c-37.55,0-62.59-24.19-62.59-60.29,0-36.45,25-60.63,62.59-60.63s62.58,24.18,62.58,60.63C-573.13,820.74-598.16,844.93-635.71,844.93Zm0-87c-14.46,0-24.16,10.75-24.16,26.71s9.7,26.7,24.16,26.7,24.15-10.75,24.15-26.7S-621.26,757.93-635.71,757.93Z" transform="translate(717.43 -563.5)"/><path class="cls-2" d="M-464.34,726.7a2.9,2.9,0,0,1,3,2.85v70c0,29.73-16.75,45.35-48.66,45.35-31.56,0-48.31-15.62-48.66-45.35v-70a3,3,0,0,1,3-2.85h30.32a2.9,2.9,0,0,1,3,2.85v73.06c0,7.72,4.58,12.25,12.34,12.25s12.34-4.53,12.34-12.09V729.55a3,3,0,0,1,3-2.85Z" transform="translate(717.43 -563.5)"/><path class="cls-2" d="M-354.32,726.7a2.25,2.25,0,0,1,2.47,2.35l-2.65,25.52a2.94,2.94,0,0,1-2.82,2.36h-26.27v83.29a2.46,2.46,0,0,1-2.46,2.36h-31.21a2.63,2.63,0,0,1-2.64-2.36V756.93h-29.27a2.47,2.47,0,0,1-2.47-2.36V729.22a2.62,2.62,0,0,1,2.47-2.52Z" transform="translate(717.43 -563.5)"/><path class="cls-2" d="M-331.39,807.31c.53-1.68,1.76-2.19,3.17-1.35,8.11,4.37,17.81,7.56,24.51,8.06,5.64,0,9.34-2.51,9.34-6.38,0-9.9-49.54-9.4-49.54-46,0-22.51,17.81-37.45,44.6-37.45,12.52,0,28.39,4.87,39.5,12.09,1.41.84,1.93,2.18,1.41,3L-269.51,763c-.53,1.68-1.76,2.18-3.17,1.34-8.64-4.7-18.69-8.22-24.86-8.73-5.47,0-9,2.35-9,6,0,9.91,49.89,9.24,49.89,46.18,0,22.34-18.16,37.29-45.31,37.29-14.81,0-30.32-4.37-39.14-11.09-1.41-1-1.94-2.18-1.41-3Z" transform="translate(717.43 -563.5)"/><path class="cls-2" d="M-208.68,726.7a2.53,2.53,0,0,1,2.64,2.52v111a2.51,2.51,0,0,1-2.64,2.36h-31.21a2.59,2.59,0,0,1-2.46-2.36v-111a2.61,2.61,0,0,1,2.46-2.52Z" transform="translate(717.43 -563.5)"/><path class="cls-2" d="M-145.56,726.7c37.37,0,62.23,23,62.23,57.94,0,34.59-24.86,57.94-62.23,57.94h-40.9a2.62,2.62,0,0,1-2.47-2.52V729.22a2.61,2.61,0,0,1,2.47-2.52Zm2.11,85.65c13.58,0,22.75-11.09,22.75-27.71s-9.17-27.71-22.75-27.71h-9.16v55.42Z" transform="translate(717.43 -563.5)"/><path class="cls-2" d="M15.41,812.35a2.49,2.49,0,0,1,2.64,2.18v25.69a2.63,2.63,0,0,1-2.64,2.36h-82c-1.23,0-2.47-1.35-2.82-2.52v-111a2.18,2.18,0,0,1,2.47-2.35H13.29a2.69,2.69,0,0,1,2.83,2.35v25.36a2.6,2.6,0,0,1-2.83,2.52h-46v13.26H4.66A2.07,2.07,0,0,1,7,772.38L4.48,795.89a3.07,3.07,0,0,1-3,2.18h-34.2v14.28Z" transform="translate(717.43 -563.5)"/><path class="cls-2" d="M-599.81,870a2.27,2.27,0,0,1,2.49,2.38L-600,898.22a3,3,0,0,1-2.86,2.38h-26.58v84.29a2.49,2.49,0,0,1-2.5,2.38h-31.58a2.66,2.66,0,0,1-2.67-2.38V900.6H-695.8a2.5,2.5,0,0,1-2.5-2.38V872.55a2.65,2.65,0,0,1,2.5-2.55Z" transform="translate(717.43 -563.5)"/><path class="cls-2" d="M-487,870a2.56,2.56,0,0,1,2.67,2.55V984.89a2.54,2.54,0,0,1-2.67,2.38h-33.37a2.49,2.49,0,0,1-2.5-2.38V946.82h-25v38.07a2.55,2.55,0,0,1-2.68,2.38h-33.37a2.62,2.62,0,0,1-2.49-2.38V872.55a2.65,2.65,0,0,1,2.49-2.55h33.37a2.57,2.57,0,0,1,2.68,2.55v44.36h25V872.55a2.52,2.52,0,0,1,2.5-2.55Z" transform="translate(717.43 -563.5)"/><path class="cls-2" d="M-381.59,956.68a2.53,2.53,0,0,1,2.68,2.21v26a2.67,2.67,0,0,1-2.68,2.38h-83c-1.25,0-2.5-1.36-2.86-2.55V872.38a2.21,2.21,0,0,1,2.5-2.38h81.18a2.71,2.71,0,0,1,2.85,2.38V898a2.62,2.62,0,0,1-2.85,2.56H-430.3V914h37.83a2.09,2.09,0,0,1,2.32,2.21l-2.5,23.79a3.11,3.11,0,0,1-3,2.21H-430.3v14.45Z" transform="translate(717.43 -563.5)"/><path class="cls-2" d="M-280.6,870c23.37,0,38.9,13.26,38.9,33.14,0,12.24-6.25,21.25-15.88,24,11.24,2.72,18.55,12.91,18.55,27,0,19.89-15.52,33.14-38.71,33.14H-334.3a2.49,2.49,0,0,1-2.5-2.38V872.55a2.64,2.64,0,0,1,2.5-2.55Zm-8.21,46.06c5.36,0,8.93-3.06,8.93-7.82s-3.57-7.82-8.93-7.82H-300v15.64Zm3.22,40.79c5.17,0,8.74-3.23,8.74-8.16s-3.57-8.16-8.74-8.16H-300v16.32Z" transform="translate(717.43 -563.5)"/><path class="cls-2" d="M-162.83,989.65c-38,0-63.34-24.47-63.34-61,0-36.88,25.33-61.36,63.34-61.36s63.33,24.48,63.33,61.36C-99.5,965.18-124.83,989.65-162.83,989.65Zm0-88c-14.63,0-24.45,10.88-24.45,27s9.82,27,24.45,27,24.44-10.88,24.44-27S-148.2,901.61-162.83,901.61Z" transform="translate(717.43 -563.5)"/><path class="cls-2" d="M17.73,984.55c.9,1.53-.18,2.72-2,2.72H-21.52a5.27,5.27,0,0,1-4.1-2.72l-14.63-28.38-14.63,28.38A5.29,5.29,0,0,1-59,987.27H-96.28c-1.78,0-2.85-1.19-2-2.72l31.94-55.91-31.94-55.92c-.89-1.53.18-2.72,2-2.72h37.11a5.27,5.27,0,0,1,4.11,2.72l14.81,30.08,14.81-30.08a5.25,5.25,0,0,1,4.1-2.72H15.77c1.78,0,2.86,1.19,2,2.72L-14.2,928.64Z" transform="translate(717.43 -563.5)"/></svg>