<svg id="Layer_1" data-name="Layer 1" xmlns="http://www.w3.org/2000/svg" viewBox="0 0 94.8 66.6"><defs><style>.cls-1{fill:red;}.cls-2{fill:#fff;}</style></defs><title>Artboard 1</title><path d="M81.69,41.15h.44a29.74,29.74,0,0,0,3.12.22A.6.6,0,0,0,85.8,41c.12-.11,0-.34-.11-.45-2.22-3.12-4.56-6.12-6.79-9.24-.78-1-.89-1-1.56-.11h0c-2.67,2.67-5.45,5.34-8.12,8a1.16,1.16,0,0,0-.22.55,2.8,2.8,0,0,0,.55.34H70c1,.11,2.11.11,3.11.22a11.07,11.07,0,0,1-2.44,9.57c-2.34,2.78-5.46,4-9.13,4.34a15.62,15.62,0,0,0,5.9.89A14,14,0,0,0,81.13,44.38C81.35,43.26,81.46,42.26,81.69,41.15Z"/><circle class="cls-1" cx="78.79" cy="16.44" r="13.14"/><path d="M23.24,33.58H17.68V43.93h-5.9V33.58H6.21V29.24H23.13v4.34Z"/><path d="M43.28,29.24V43.93h-5.9V38.7H30.7v5.23H24.8V29.24h5.9v5h6.68v-5Z"/><path d="M62.43,39.92v4H46V29.24H62.21v4H51.63v1.34h8.46v3.67H51.63v1.56h10.8Z"/><path d="M22.69,58.29c0,2.56-2.56,4.34-6.68,4.34H2.87V46.71H15c4.12,0,6.68,1.67,6.68,4.23,0,1.78-1.34,3.34-3.79,3.57C20.46,54.62,22.69,56,22.69,58.29ZM9.22,52.84H14c.78,0,1.45-.34,1.45-1.12s-.67-1.11-1.45-1.11H9.22Zm6.9,4.67c0-.78-.56-1.22-1.56-1.22H9.11v2.56h5.45C15.56,58.85,16.12,58.29,16.12,57.51Z"/><path d="M23.91,54.73c0-5.46,4.34-8.57,10.8-8.57s10.8,3,10.8,8.57-4.34,8.57-10.8,8.57S23.91,60.18,23.91,54.73Zm15.25,0c0-2.23-1.67-3.67-4.34-3.67s-4.34,1.33-4.34,3.67,1.67,3.67,4.34,3.67S39.16,57,39.16,54.73Z"/><path d="M58.87,54.51,66,62.74H58.42l-3.34-4.12-3.34,4.12H44.62l7-8.12-6.79-7.79h7.57l3.12,3.78,3.11-3.78h7.13Z"/><path class="cls-2" d="M80.35,15.88v3.56H78.57V16c0-1-.45-1.56-1.45-1.56a2.13,2.13,0,0,0-2,1.34v3.67H73.34V16c0-1-.45-1.56-1.45-1.56a2.21,2.21,0,0,0-2,1.23v3.78H68.11V13.21h1.78v1.11A2.94,2.94,0,0,1,72.45,13a2.37,2.37,0,0,1,2.45,1.67A2.84,2.84,0,0,1,77.57,13,2.72,2.72,0,0,1,80.35,15.88Z"/><path class="cls-2" d="M85.8,18.44a3.41,3.41,0,0,0,2.34-.78l.89,1a4.94,4.94,0,0,1-3.45,1.11c-2.56,0-4-1.22-4-3.33S83,13.1,85.47,13.1c2.23,0,3.79,1.11,3.79,3.34v.44h-5.9C83.47,17.88,84.36,18.44,85.8,18.44Zm-2.44-2.78h4.23c-.23-.89-1-1.23-2.12-1.23A1.88,1.88,0,0,0,83.36,15.66Z"/></svg>