<svg id="Layer_1" data-name="Layer 1" xmlns="http://www.w3.org/2000/svg" viewBox="0 0 58.91 32.89"><defs><style>.cls-1{fill:#fff;}.cls-2{stroke:#000;stroke-miterlimit:10;stroke-width:0.25px;}</style></defs><title>box &amp;amp; me 2.0</title><rect class="cls-1" width="58.91" height="32.89"/><path class="cls-2" d="M8.25,9.28v3.51H7.94V9.33l-1.4.18V8.85l1.4-.18V7.2h.31V8.62l1.54-.18V9.1Z" transform="translate(-0.5 -4.75)"/><path class="cls-2" d="M12.91,12.79V9.42c0-.22-.09-.32-.39-.32a3.85,3.85,0,0,0-1.88.72v3h-.31V6.3h.31V9.16a4,4,0,0,1,2-.74c.36,0,.57.14.57.52v3.85Z" transform="translate(-0.5 -4.75)"/><path class="cls-2" d="M14.4,7.91V6.53h.31V7.91Zm0,4.88V8.57h.31v4.22Z" transform="translate(-0.5 -4.75)"/><path class="cls-2" d="M18.5,12.79V9.49c0-.28-.08-.39-.29-.39a3.42,3.42,0,0,0-2,.72v3h-.31V8.57h.31v.59a3.8,3.8,0,0,1,2.05-.74.49.49,0,0,1,.53.5v3.87Z" transform="translate(-0.5 -4.75)"/><path class="cls-2" d="M23.2,13l-2.88-2v1.81H20V6.3h.32v3.79L23,8.44l.19.22-2.74,1.69,2.85,1.93V13Z" transform="translate(-0.5 -4.75)"/><path class="cls-2" d="M5.8,19.45a2.59,2.59,0,0,1-2.6,2.68c-.64,0-1.14-.43-1.14-1.67A2.63,2.63,0,0,1,4.59,17.7c.78,0,1.21.37,1.21,1.74Zm-.31-.1c0-.71-.25-1-.9-1a2.31,2.31,0,0,0-2.21,2.16c0,.65.28.95.86.95a2.22,2.22,0,0,0,2.25-2.11Z" transform="translate(-0.5 -4.75)"/><path class="cls-2" d="M7.06,17.8v3.34c0,.22.22.33.54.33a2.54,2.54,0,0,0,1.74-.76V17.8h.31V22H9.34v-.67a2.53,2.53,0,0,1-1.77.77c-.38,0-.82-.1-.82-.71V17.8Z" transform="translate(-0.5 -4.75)"/><path class="cls-2" d="M12,18.52V22h-.31V18.57l-1.4.17v-.66l1.4-.17V16.43H12v1.43l1.55-.19v.66Z" transform="translate(-0.5 -4.75)"/><path class="cls-2" d="M17,18.46a3.25,3.25,0,0,0-.92-.1c-1,0-1.95.55-1.95,1,0,.16.17.27.53.27a6.08,6.08,0,0,0,.87-.12,7.78,7.78,0,0,1,.9-.12c.79,0,1,.48,1,1,0,.95-.82,1.72-2.33,1.72a5.11,5.11,0,0,1-1.36-.21v-.66h.11a4.65,4.65,0,0,0,1.3.21c1.3,0,2-.59,2-1,0-.22-.12-.4-.69-.4a6.84,6.84,0,0,0-.85.11c-.24,0-.71.12-.84.12-.7,0-.89-.37-.89-.88,0-.92,1.07-1.69,2.42-1.69a3.32,3.32,0,0,1,.87.1v.66Z" transform="translate(-0.5 -4.75)"/><path class="cls-2" d="M18.28,17.15V15.76h.31v1.39Zm0,4.88V17.8h.31V22Z" transform="translate(-0.5 -4.75)"/><path class="cls-2" d="M23,18.57V22h-.32v-.71a2.48,2.48,0,0,1-1.74.81c-.88,0-1.43-.59-1.43-1.77A2.34,2.34,0,0,1,22,17.7a2.75,2.75,0,0,1,.71.1V15.54H23v2.4l.16.08v.64Zm-.32-.11a2.91,2.91,0,0,0-.76-.1,1.92,1.92,0,0,0-2.1,2A1,1,0,0,0,21,21.47a2.43,2.43,0,0,0,1.72-.81Z" transform="translate(-0.5 -4.75)"/><path class="cls-2" d="M27.79,19.62c-.58.13-2.83.58-3.57.72,0,.82.43,1.13,1.19,1.13A3.93,3.93,0,0,0,27.3,21h.11v.59a4.22,4.22,0,0,1-2,.59c-.8,0-1.48-.41-1.48-1.69a2.49,2.49,0,0,1,2.52-2.74c.9,0,1.25.6,1.29,1.43h.07Zm-.39-.41c0-.46-.29-.85-1-.85a2.12,2.12,0,0,0-2.11,1.46Z" transform="translate(-0.5 -4.75)"/><path class="cls-2" d="M3,27.69V31.2h-.3V27.74l-1.41.17v-.66l1.41-.17V25.61H3V27l1.55-.19v.66Z" transform="translate(-0.5 -4.75)"/><path class="cls-2" d="M7.71,31.2V27.82c0-.22-.09-.32-.39-.32a3.82,3.82,0,0,0-1.88.72v3H5.13V24.71h.31v2.85a4,4,0,0,1,2-.74c.36,0,.57.15.57.53V31.2Z" transform="translate(-0.5 -4.75)"/><path class="cls-2" d="M12.82,28.79c-.58.13-2.84.59-3.58.72,0,.83.43,1.13,1.2,1.13a3.89,3.89,0,0,0,1.88-.52h.12v.6a4.35,4.35,0,0,1-2,.58c-.81,0-1.49-.41-1.49-1.69a2.49,2.49,0,0,1,2.53-2.74c.89,0,1.24.6,1.28,1.44h.08Zm-.4-.41c0-.46-.28-.85-1-.85A2.12,2.12,0,0,0,9.29,29Z" transform="translate(-0.5 -4.75)"/><path class="cls-2" d="M16.76,27.54a3,3,0,0,1,1.78-.67c.92,0,1.25.66,1.25,1.72,0,1.82-1,2.7-2.3,2.7A2.78,2.78,0,0,1,16.33,31v-.69l.12.07V24.71h.31Zm0,3a2.26,2.26,0,0,0,.77.12,1.87,1.87,0,0,0,1.94-2c0-.54-.22-1.08-1-1.08a3,3,0,0,0-1.74.67Z" transform="translate(-0.5 -4.75)"/><path class="cls-2" d="M24.21,28.63a2.59,2.59,0,0,1-2.6,2.67c-.65,0-1.14-.43-1.14-1.67A2.62,2.62,0,0,1,23,26.87c.79,0,1.22.37,1.22,1.74Zm-.31-.11c0-.71-.25-1-.91-1a2.31,2.31,0,0,0-2.2,2.17c0,.65.28.94.85.94a2.23,2.23,0,0,0,2.26-2.11Z" transform="translate(-0.5 -4.75)"/><path class="cls-2" d="M28.4,31.27l-1.88-1.91c-.29.2-1.38,1.74-1.67,1.94l-.26-.17,1.7-2c-.27-.17-1.26-1.39-1.52-1.56V26.8h.11c.31.19,1.48,1.64,1.78,1.84l1.58-1.84h.11v.38L26.9,28.87l1.62,1.66v.74Z" transform="translate(-0.5 -4.75)"/><path d="M29.88,7.19H53.15v.24q0,10.67,0,21.33c0,.06,0,.15,0,.19l.91,1.19a6.25,6.25,0,0,1,.58-.41,2.48,2.48,0,0,1,2.9.4,3.06,3.06,0,0,1,1,1.83,1.11,1.11,0,0,1-.09.43s-.05.08-.05.12a2.33,2.33,0,0,1-.72,1.59l-.21.24s0,0,0,0l.12.16a.4.4,0,0,1,0,.53.36.36,0,0,1-.53,0c-.16-.22-.32-.19-.55-.12a2.81,2.81,0,0,1-3-.9,2.42,2.42,0,0,1-.35-2.16,4.38,4.38,0,0,1,.37-.9.3.3,0,0,0,0-.41l-.27-.35c0,.35-.16.34-.38.34H29.88Zm.94,7.93h6.84V8.27H30.82ZM38,29.52H44.9V22.69H38Zm-.38-7.2V15.48H30.82v6.84Zm7.62-6.84a.39.39,0,0,0,0,.09v4.88a.36.36,0,0,0,.11.23c.48.51,1,1,1.46,1.51a.5.5,0,0,0,.38.15h4.92V15.48Zm6.85-.36V8.26H45.28v6.86ZM44.9,8.26H38.05v6.86H44.9ZM37.67,22.68H30.82v6.85h6.85Zm7.24-.35a4.91,4.91,0,0,1,0-.55.84.84,0,0,0-.29-.76,7.73,7.73,0,0,1-.6-.67c-.1.15-.17.27-.26.39a2.32,2.32,0,0,1-2.23.81,2.68,2.68,0,0,1-2.3-1.8,2.55,2.55,0,0,1,.5-2.8,7,7,0,0,1,.7-.63.29.29,0,0,0,.11-.21.42.42,0,0,1,.24-.45.33.33,0,0,1,.46.12.24.24,0,0,0,.27.09,1.62,1.62,0,0,1,1.4.25,3.27,3.27,0,0,1,.86,1,4.12,4.12,0,0,1,.5,2.18.27.27,0,0,0,0,.16c.18.23.38.45.6.71V15.48H38v6.85ZM47.51,24l0-.07-1.18-1.13s-.07-.07-.11-.07h-.89v6.83h6.85a1.64,1.64,0,0,0-.05-.65,12.83,12.83,0,0,0-.89-1.12,2.54,2.54,0,0,1-2,1.23,2.74,2.74,0,0,1-2.16-.87A2.63,2.63,0,0,1,47.51,24Zm-6.6-7.11c-.17.13-.31.23-.44.35a2,2,0,0,0-.57,2.36A2.14,2.14,0,0,0,42,20.88,1.5,1.5,0,0,0,43.42,20a.31.31,0,0,0-.08-.4A15.41,15.41,0,0,1,40.91,16.84Zm8.25,11.44a1.39,1.39,0,0,0,1.29-.88.31.31,0,0,1,.09-.11c.14-.11.1-.2,0-.31l-2.31-2.36a.22.22,0,0,0-.34,0A1.91,1.91,0,0,0,47,26.69,2.29,2.29,0,0,0,49.16,28.28Zm2.91-.72h0V22.69H47.36c.34.32.63.6.93.87a.23.23,0,0,0,.2,0,2.56,2.56,0,0,1,2.24.69,2.52,2.52,0,0,1,.89,2.6.19.19,0,0,0,0,.18C51.78,27.23,51.93,27.4,52.07,27.56ZM57,33.84a4,4,0,0,0,.36-.4,1.23,1.23,0,0,0,.38-1c0-.07.05-.15.07-.23s.08-.23.05-.33a2.33,2.33,0,0,0-1.34-1.56,1.6,1.6,0,0,0-1.79.25c-.14.12-.13.19,0,.31l.42.54C55.71,32.23,56.34,33,57,33.84Zm-.7.39-2.22-2.82A2,2,0,0,0,54,33.53,2.15,2.15,0,0,0,56.28,34.23ZM43.51,18.59l.06,0c-.15-.45-.27-.91-.46-1.34-.07-.18-.29-.31-.45-.45a.91.91,0,0,0-1-.17A11.48,11.48,0,0,0,43.51,18.59ZM51,26.14c.14-.71-1.14-2-1.94-1.83Zm-5.19-3.81-.51-.51v.51Z" transform="translate(-0.5 -4.75)"/><path d="M33.9,10.86,35.32,9s.09-.11.14-.15a.36.36,0,0,1,.54.48c-.26.32-.52.62-.77.95s-.51.73-.77,1.09c-.08.1-.09.18,0,.27.31.32.62.66.94,1a6.61,6.61,0,0,1,1.2,1.44c0,.09.11.22.08.29a.5.5,0,0,1-.27.31.4.4,0,0,1-.36-.13,8.32,8.32,0,0,0-1.57-1.78l-.55-.58-.79,1.17-.32.46c-.17.23-.38.28-.56.14s-.19-.34,0-.56c.38-.56.76-1.13,1.15-1.68a.23.23,0,0,0,0-.32,8.11,8.11,0,0,0-1.45-1.7.35.35,0,0,1,.46-.54c.34.31.66.64,1,1S33.72,10.61,33.9,10.86Z" transform="translate(-0.5 -4.75)"/><path d="M42.21,26l2,1.75a1.92,1.92,0,0,0,.31.18.35.35,0,0,1,.19.47c-.09.21-.21.29-.44.19a2.14,2.14,0,0,1-.62-.36c-.49-.41-1-.85-1.43-1.29l-.41-.39a21,21,0,0,0-1.89,2.2.35.35,0,0,1-.49.14.33.33,0,0,1-.14-.48,14.54,14.54,0,0,1,.9-1.17c.35-.41.74-.79,1.13-1.19a1.39,1.39,0,0,0-.16-.17c-.6-.53-1.2-1.06-1.81-1.58-.21-.17-.26-.36-.13-.54a.36.36,0,0,1,.56,0c.67.55,1.33,1.12,2,1.72a1.15,1.15,0,0,1,.08-.14c.4-.5.8-1,1.21-1.5a4.91,4.91,0,0,1,.51-.51.33.33,0,0,1,.5.05.36.36,0,0,1,0,.49Z" transform="translate(-0.5 -4.75)"/><path d="M33.9,18.82l-1.66-1.56a3.48,3.48,0,0,0-.39-.28.36.36,0,0,1,.29-.66,1.37,1.37,0,0,1,.4.24L34,18c.11.11.22.21.4.36a2.14,2.14,0,0,1,.13-.22c.62-.64,1.24-1.29,1.86-1.92a.51.51,0,0,1,.35-.17.44.44,0,0,1,.3.21c.11.16,0,.3-.1.43L35.74,17.9l-.75.8.42.3,1.66,1.26a.36.36,0,0,1,.1.54.38.38,0,0,1-.57,0l-2.14-1.64a1,1,0,0,1-.14.23l-1.67,1.77a.38.38,0,0,1-.57.07c-.16-.16-.14-.37.06-.58C32.72,20.06,33.3,19.44,33.9,18.82Z" transform="translate(-0.5 -4.75)"/><path d="M48.88,19.38c-.21.23-.39.44-.58.63s-.58.59-.87.89a3.47,3.47,0,0,0-.34.42.34.34,0,0,1-.44.16.31.31,0,0,1-.16-.45,5.45,5.45,0,0,1,.57-.7c.45-.48.91-.95,1.37-1.43l-1.57-2,0-.05c-.17-.18-.19-.38,0-.52s.35-.15.53.05.42.48.61.73c.32.4.63.81,1,1.24l.17-.15c.45-.51.9-1,1.37-1.51a6.94,6.94,0,0,1,.81-.72.31.31,0,0,1,.49.06.35.35,0,0,1-.12.49,3.35,3.35,0,0,0-.4.33c-.61.66-1.21,1.33-1.83,2l1.36,1.64a.81.81,0,0,0,.18.12.33.33,0,0,1,.15.41.29.29,0,0,1-.38.2,1,1,0,0,1-.42-.25c-.27-.29-.52-.61-.77-.92Z" transform="translate(-0.5 -4.75)"/><path d="M48.67,12.27c-.52.5-1,1-1.52,1.46a3.14,3.14,0,0,0-.42.63.38.38,0,0,1-.43.21.3.3,0,0,1-.25-.39,1.5,1.5,0,0,1,.3-.62c.4-.44.83-.85,1.25-1.27l.58-.58L46.33,9.84l-.1-.09a.39.39,0,0,1,0-.57.38.38,0,0,1,.55,0c.33.31.65.63,1,1l.92,1h0l2.1-2.18a.37.37,0,0,1,.53-.06.36.36,0,0,1,0,.53c-.44.46-.9.9-1.34,1.35-.29.3-.56.61-.86.93l2,2.14.11.11a.39.39,0,1,1-.54.55l-1.35-1.41C49.15,12.8,48.92,12.54,48.67,12.27Z" transform="translate(-0.5 -4.75)"/><path d="M44,11.82a2.82,2.82,0,0,1-.35,1.42,2.29,2.29,0,0,1-2.75,1,2.64,2.64,0,0,1-1.62-3.91A2.78,2.78,0,0,1,40.52,9a1.36,1.36,0,0,1,.41,0,.38.38,0,0,0,.15,0,1.59,1.59,0,0,1,1,.06A2.75,2.75,0,0,1,44,11.82Zm-.72,0,0-.39a2,2,0,0,0-1.59-1.79,1.75,1.75,0,0,0-.45,0c-.09,0-.2,0-.26,0a.29.29,0,0,0-.33.06,2.4,2.4,0,0,0-.86,1.3,1.87,1.87,0,0,0,1.42,2.46,1.56,1.56,0,0,0,2-1.25A3.49,3.49,0,0,0,43.31,11.86Z" transform="translate(-0.5 -4.75)"/><path d="M31.58,25.91a2.91,2.91,0,0,1,.33-1.49,1.85,1.85,0,0,1,.61-.71,3.16,3.16,0,0,1,2.16-.47,2.89,2.89,0,0,1,1.78,4.55,2.47,2.47,0,0,1-3.13.78A2.73,2.73,0,0,1,31.58,25.91Zm.7-.1A2.16,2.16,0,0,0,34,28.05a1.7,1.7,0,0,0,1.94-.71,2.33,2.33,0,0,0,.34-1.76A2,2,0,0,0,35,24.09a1.48,1.48,0,0,0-1.64.12.33.33,0,0,1-.25.06c-.19-.08-.29,0-.4.15A2.11,2.11,0,0,0,32.28,25.81Z" transform="translate(-0.5 -4.75)"/></svg>