<svg id="Layer_1" data-name="Layer 1" xmlns="http://www.w3.org/2000/svg" viewBox="0 0 400 210.69"><defs><style>.cls-1{fill:#fff;}.cls-2{stroke:#000;stroke-miterlimit:10;stroke-width:0.25px;}</style></defs><title>box &amp;amp; me 2.0</title><rect class="cls-1" width="400" height="210.69"/><path class="cls-2" d="M78.87,80.21v22.87h-2V80.54l-9.13,1.14V77.39l9.13-1.14V66.66h2v9.25l10.06-1.2V79Z" transform="translate(-25 -54.11)"/><path class="cls-2" d="M109.27,103.08v-22c0-1.41-.61-2.08-2.55-2.08-3.35,0-8.45,2-12.28,4.7v19.38h-2V60.82h2V79.4c3.29-2.28,8.72-4.83,13.08-4.83,2.35,0,3.76.94,3.76,3.43v25.08Z" transform="translate(-25 -54.11)"/><path class="cls-2" d="M118.94,71.29v-9h2v9Zm0,31.79V75.58h2v27.5Z" transform="translate(-25 -54.11)"/><path class="cls-2" d="M145.64,103.08V81.55c0-1.81-.54-2.55-1.88-2.55-4.09,0-8.38,1.54-12.88,4.7v19.38h-2V75.58h2V79.4c4.1-2.75,8.72-4.83,13.35-4.83a3.23,3.23,0,0,1,3.49,3.29v25.22Z" transform="translate(-25 -54.11)"/><path class="cls-2" d="M176.25,104.16,157.46,91.28v11.8h-2.08V60.82h2.08V85.44L175,74.71l1.27,1.47-17.84,11L177,99.73v4.43Z" transform="translate(-25 -54.11)"/><path class="cls-2" d="M63,146.42a16.87,16.87,0,0,1-16.91,17.44c-4.22,0-7.44-2.81-7.44-10.87,0-11.8,9-18,16.43-18,5.1,0,7.92,2.41,7.92,11.33Zm-2-.67c0-4.63-1.61-6.44-5.9-6.44-7.91,0-14.35,7.45-14.35,14.09,0,4.23,1.81,6.17,5.56,6.17,6.91,0,14.69-5.43,14.69-13.75Z" transform="translate(-25 -54.11)"/><path class="cls-2" d="M71.16,135.69v21.73c0,1.41,1.4,2.15,3.48,2.15a16.52,16.52,0,0,0,11.34-5V135.69h2v27.5H86v-4.36a16.49,16.49,0,0,1-11.54,5c-2.41,0-5.3-.67-5.3-4.63V135.69Z" transform="translate(-25 -54.11)"/><path class="cls-2" d="M103.5,140.32v22.87h-2V140.65l-9.12,1.14V137.5l9.12-1.14v-9.59h2V136l10.06-1.21v4.29Z" transform="translate(-25 -54.11)"/><path class="cls-2" d="M135.58,140a20.69,20.69,0,0,0-6-.67c-6.24,0-12.68,3.56-12.68,6.64,0,1,1.07,1.75,3.42,1.75a38.73,38.73,0,0,0,5.7-.81c1.61-.26,4.9-.73,5.84-.73,5.16,0,6.3,3.08,6.3,6.5,0,6.17-5.3,11.2-15.16,11.2a32.25,32.25,0,0,1-8.85-1.41v-4.29h.74a29.21,29.21,0,0,0,8.45,1.41c8.45,0,12.81-3.89,12.81-6.71,0-1.47-.81-2.61-4.5-2.61a44.34,44.34,0,0,0-5.5.73c-1.61.27-4.63.74-5.5.74-4.56,0-5.76-2.41-5.76-5.7,0-6,7-11,15.76-11a20.66,20.66,0,0,1,5.63.67V140Z" transform="translate(-25 -54.11)"/><path class="cls-2" d="M144.17,131.4v-9h2v9Zm0,31.79v-27.5h2v27.5Z" transform="translate(-25 -54.11)"/><path class="cls-2" d="M175.1,140.65v22.54H173v-4.62a15.9,15.9,0,0,1-11.33,5.29c-5.7,0-9.33-3.82-9.33-11.54,0-11.6,6.58-17.3,16-17.3a17.14,17.14,0,0,1,4.62.67V120.93h2.08v15.63l1.08.54v4.16ZM173,140a18.2,18.2,0,0,0-5-.67c-8.59,0-13.62,5.5-13.62,12.75,0,4.83,2.68,7.51,7.38,7.51a15.84,15.84,0,0,0,11.2-5.3Z" transform="translate(-25 -54.11)"/><path class="cls-2" d="M206.11,147.49c-3.76.88-18.45,3.83-23.28,4.7,0,5.37,2.82,7.38,7.78,7.38a25.56,25.56,0,0,0,12.28-3.42h.74V160a28.13,28.13,0,0,1-13.15,3.82c-5.23,0-9.66-2.68-9.66-11,0-11.33,7.18-17.84,16.43-17.84,5.84,0,8.12,3.89,8.39,9.32l.47-.06Zm-2.55-2.68c0-2.95-1.88-5.5-6.64-5.5-6.91,0-11.54,3.62-13.75,9.53Z" transform="translate(-25 -54.11)"/><path class="cls-2" d="M45,200V222.9H43V200.37l-9.12,1.13v-4.29L43,196.07v-9.59h2v9.25l10.06-1.2v4.29Z" transform="translate(-25 -54.11)"/><path class="cls-2" d="M75.41,222.9v-22c0-1.41-.61-2.08-2.55-2.08-3.35,0-8.45,2-12.28,4.7V222.9h-2V180.64h2v18.58c3.29-2.28,8.72-4.83,13.09-4.83,2.34,0,3.75.94,3.75,3.42V222.9Z" transform="translate(-25 -54.11)"/><path class="cls-2" d="M108.63,207.2c-3.76.88-18.45,3.83-23.28,4.7,0,5.36,2.82,7.38,7.78,7.38a25.59,25.59,0,0,0,12.28-3.42h.73v3.89A28.18,28.18,0,0,1,93,223.57c-5.24,0-9.66-2.68-9.66-11,0-11.34,7.17-17.84,16.43-17.84,5.84,0,8.12,3.89,8.39,9.32l.47-.06Zm-2.55-2.68c0-3-1.88-5.5-6.64-5.5-6.91,0-11.54,3.62-13.76,9.53Z" transform="translate(-25 -54.11)"/><path class="cls-2" d="M134.28,199.09a19.49,19.49,0,0,1,11.6-4.36c6,0,8.12,4.29,8.12,11.2,0,11.8-6.44,17.58-15,17.58a17.43,17.43,0,0,1-7.51-1.88V217.2l.73.4v-37h2Zm0,19.32a14.79,14.79,0,0,0,5,.8c7.91,0,12.61-5.63,12.61-13.15,0-3.55-1.41-7-6.31-7-3.35,0-7,1.21-11.33,4.36Z" transform="translate(-25 -54.11)"/><path class="cls-2" d="M182.79,206.13a16.88,16.88,0,0,1-16.91,17.44c-4.22,0-7.44-2.82-7.44-10.87,0-11.8,9-18,16.43-18,5.1,0,7.92,2.41,7.92,11.33Zm-2-.67c0-4.63-1.61-6.44-5.9-6.44-7.91,0-14.35,7.45-14.35,14.09,0,4.23,1.81,6.17,5.56,6.17,6.91,0,14.69-5.43,14.69-13.75Z" transform="translate(-25 -54.11)"/><path class="cls-2" d="M210.1,223.37,197.83,210.9c-1.88,1.33-9,11.33-10.87,12.67l-1.68-1.14,11.07-13.21c-1.74-1.08-8.18-9.06-9.93-10.13v-4.83h.74c2,1.21,9.66,10.67,11.61,11.94L209,194.26h.74v2.48l-9.46,11,10.53,10.8v4.83Z" transform="translate(-25 -54.11)"/><path d="M232.76,66.58H384.24v1.6q0,69.41,0,138.82a2.23,2.23,0,0,0,.2,1.26c1.95,2.58,4,5.12,6,7.71a44.85,44.85,0,0,1,3.77-2.65c6-3.36,13.19-2.33,18.82,2.64a19.51,19.51,0,0,1,6.53,11.91,8,8,0,0,1-.56,2.76c-.06.28-.31.54-.31.8.1,4.22-2.21,7.33-4.72,10.35-.45.52-.92,1-1.37,1.54a1.06,1.06,0,0,0-.12.35c.23.32.5.66.75,1a2.59,2.59,0,0,1-.28,3.48,2.39,2.39,0,0,1-3.44-.07c-1.09-1.47-2.13-1.25-3.62-.78-7.18,2.26-15.47-.25-19.66-5.88-3.17-4.27-3.54-9.1-2.28-14.07a27.12,27.12,0,0,1,2.42-5.82,2,2,0,0,0-.23-2.72c-.58-.6-1.05-1.28-1.81-2.22.23,2.27-1.05,2.16-2.44,2.16q-73.49,0-147,0h-2.14Zm6.07,51.61H283.4V73.6H238.83Zm47,93.79h44.62V167.47H285.87Zm-2.47-46.87V120.57H238.83v44.54ZM333,120.55a5.4,5.4,0,0,0-.07.59q0,15.88,0,31.75a2.47,2.47,0,0,0,.68,1.51c3.16,3.31,6.38,6.56,9.54,9.85a3.09,3.09,0,0,0,2.47,1c10.17,0,20.35,0,30.52,0,.47,0,.95,0,1.47-.08V120.55Zm44.61-2.36V73.57H333v44.62ZM330.52,73.58H285.89V118.2h44.63Zm-47.1,93.87H238.83V212h44.59Zm47.17-2.33a31.86,31.86,0,0,1,0-3.54,5.42,5.42,0,0,0-1.87-5c-1.39-1.32-2.57-2.88-3.9-4.4-.66,1-1.11,1.82-1.69,2.54-3.77,4.68-8.85,6-14.52,5.31a17.51,17.51,0,0,1-15-11.7c-2.59-6.65-1.53-12.89,3.26-18.28a60.35,60.35,0,0,1,4.62-4.08,2,2,0,0,0,.7-1.34,2.64,2.64,0,0,1,1.56-3,2.15,2.15,0,0,1,3,.8,1.52,1.52,0,0,0,1.75.59c3.24-.56,6.54-.56,9.15,1.6A20.45,20.45,0,0,1,323.2,131c2.17,4.39,3.75,9.11,3.28,14.2a1.63,1.63,0,0,0,.1,1c1.21,1.49,2.47,2.94,3.91,4.64V120.56H285.88v44.56Zm16.89,10.58a2.44,2.44,0,0,0-.32-.45q-3.81-3.69-7.65-7.37c-.21-.19-.48-.44-.72-.45-1.94,0-3.88,0-5.78,0v44.47h44.57c-.1-1.57.29-3.23-.35-4.22a89,89,0,0,0-5.75-7.29c-3.21,4.6-7.24,7.64-12.79,8s-10.1-1.84-14-5.65C337.8,196.11,336.3,183.62,347.48,175.7Zm-43-46.27c-1.1.86-2,1.51-2.85,2.25-4.66,4.19-6,9.83-3.75,15.36a13.92,13.92,0,0,0,13.77,8.64c4.12-.27,7.48-1.85,9.17-6a2.1,2.1,0,0,0-.5-2.6C314.93,141.45,308.75,136.49,304.53,129.43Zm53.72,74.42c3.14-.49,6.89-1.28,8.42-5.69a1.53,1.53,0,0,1,.53-.7c1-.71.65-1.32-.05-2q-7.51-7.67-15-15.4a1.49,1.49,0,0,0-2.25-.22c-4.78,3.07-7.1,8.66-5.62,13.74A14.93,14.93,0,0,0,358.25,203.85Zm18.92-4.64.36-.11V167.51h-31c2.17,2.06,4.06,3.9,6,5.66a1.82,1.82,0,0,0,1.36.21,16.42,16.42,0,0,1,14.52,4.45c4.92,4.55,7.55,10,5.8,16.91a1.56,1.56,0,0,0,.22,1.21C375.31,197.07,376.26,198.13,377.17,199.21Zm32,40.87c.91-1,1.71-1.73,2.34-2.59,1.38-1.89,3-3.7,2.43-6.37-.09-.45.35-1,.47-1.51a4.91,4.91,0,0,0,.34-2.15A15.12,15.12,0,0,0,406,217.32,10.39,10.39,0,0,0,394.34,219c-.89.73-.84,1.23-.17,2,.95,1.12,1.8,2.33,2.71,3.49Zm-4.59,2.54-14.42-18.34c-2.84,4.16-3,10.14-.46,13.78C392.6,242.22,398.8,244.17,404.58,242.62ZM321.44,140.77l.38-.19c-.95-2.92-1.72-5.91-2.94-8.71-.51-1.18-1.93-2-3-2.9-1.78-1.57-4.53-2.07-6.28-1.11C312.92,132.78,317.14,136.81,321.44,140.77ZM370.12,190c.86-4.63-7.46-13.11-12.69-11.95Zm-33.83-24.82L333,161.84v3.31Z" transform="translate(-25 -54.11)"/><path d="M258.87,90.46c3.18-4.1,6.24-8.07,9.3-12a10.59,10.59,0,0,1,.89-1,2.36,2.36,0,0,1,3.31-.19,2.33,2.33,0,0,1,.18,3.31c-1.64,2.08-3.38,4.09-5,6.21-1.74,2.31-3.34,4.73-5.06,7.07a1.17,1.17,0,0,0,.08,1.78c2.06,2.1,4,4.29,6.15,6.35a42.69,42.69,0,0,1,7.8,9.36c.32.58.75,1.42.55,1.9a3.6,3.6,0,0,1-1.77,2,2.61,2.61,0,0,1-2.36-.88c-2.55-4.63-6.58-7.91-10.19-11.57-1.2-1.22-2.36-2.48-3.63-3.82-1.74,2.6-3.42,5.12-5.11,7.63-.69,1-1.39,2-2.12,3-1.08,1.48-2.45,1.81-3.65.92s-1.19-2.23-.22-3.66c2.49-3.66,5-7.34,7.47-11a1.49,1.49,0,0,0,0-2.06c-2.87-3.93-5.56-8-9.46-11a2.26,2.26,0,0,1-.28-3.29,2.23,2.23,0,0,1,3.29-.25c2.18,2,4.29,4.17,6.28,6.39C256.63,87.16,257.71,88.88,258.87,90.46Z" transform="translate(-25 -54.11)"/><path d="M313,189.32c4.36,3.89,8.55,7.65,12.79,11.37a10.65,10.65,0,0,0,2,1.15,2.33,2.33,0,0,1,1.23,3.08c-.56,1.37-1.4,1.86-2.86,1.26a15.15,15.15,0,0,1-4.06-2.33c-3.17-2.71-6.2-5.59-9.28-8.41-.87-.79-1.71-1.62-2.68-2.56-3.75,5-9.14,8.69-12.33,14.3a2.32,2.32,0,1,1-4.08-2.22,95,95,0,0,1,5.83-7.56c2.32-2.67,4.86-5.14,7.37-7.77a12.84,12.84,0,0,0-1-1.12c-3.92-3.43-7.84-6.86-11.79-10.25-1.35-1.16-1.71-2.39-.84-3.55s2.27-1.36,3.62-.24c4.36,3.59,8.66,7.25,13.31,11.17a4.69,4.69,0,0,1,.52-.9c2.61-3.27,5.2-6.54,7.87-9.76a29.09,29.09,0,0,1,3.31-3.35,2.23,2.23,0,0,1,3.27.36,2.4,2.4,0,0,1-.26,3.21C321.1,179.75,317.24,184.33,313,189.32Z" transform="translate(-25 -54.11)"/><path d="M258.89,142.29c-3.73-3.52-7.25-6.87-10.82-10.17a17.75,17.75,0,0,0-2.5-1.79,2.36,2.36,0,0,1-1.08-3,2.33,2.33,0,0,1,2.94-1.29,8.69,8.69,0,0,1,2.61,1.61c3.27,3,6.48,6,9.72,9,.71.67,1.44,1.32,2.57,2.34a8.45,8.45,0,0,1,.88-1.44c4-4.19,8-8.39,12.1-12.52a3.46,3.46,0,0,1,2.24-1.11,3.11,3.11,0,0,1,2,1.4c.66,1,.12,2-.66,2.76-2.69,2.74-5.38,5.47-8,8.23-1.6,1.66-3.17,3.36-4.89,5.19,1,.69,1.87,1.33,2.75,2,3.61,2.72,7.24,5.42,10.81,8.2,1.36,1,1.53,2.34.69,3.47s-2.35,1.19-3.75.11c-4.48-3.44-9-6.86-13.91-10.61a9.42,9.42,0,0,1-.91,1.49q-5.4,5.76-10.85,11.46c-1.28,1.34-2.71,1.47-3.74.46s-.94-2.38.37-3.75Z" transform="translate(-25 -54.11)"/><path d="M356.41,146c-1.36,1.5-2.53,2.83-3.75,4.1-1.87,2-3.81,3.84-5.68,5.79a24.16,24.16,0,0,0-2.22,2.72,2.23,2.23,0,0,1-2.87,1.06,2.05,2.05,0,0,1-1-3,33.22,33.22,0,0,1,3.67-4.55c2.91-3.12,5.91-6.16,8.92-9.29-3.48-4.36-6.83-8.58-10.19-12.8-.09-.11-.21-.21-.31-.32-1.1-1.17-1.22-2.44-.3-3.39s2.28-.93,3.46.36c1.39,1.53,2.71,3.12,4,4.74,2.06,2.62,4.06,5.3,6.18,8.06.45-.41.78-.67,1.07-1,3-3.27,5.89-6.6,8.94-9.8a53.29,53.29,0,0,1,5.24-4.72,2,2,0,0,1,3.2.44,2.27,2.27,0,0,1-.77,3.2,19.43,19.43,0,0,0-2.63,2.13c-4,4.3-7.85,8.66-11.87,13.11,2.9,3.52,5.85,7.12,8.83,10.69a6.55,6.55,0,0,0,1.21.81,2.1,2.1,0,0,1,.92,2.68,1.9,1.9,0,0,1-2.47,1.3,6.71,6.71,0,0,1-2.7-1.65c-1.77-1.9-3.38-4-5-6C359,149.21,357.78,147.67,356.41,146Z" transform="translate(-25 -54.11)"/><path d="M355.08,99.66c-3.4,3.23-6.74,6.28-9.91,9.49a19.41,19.41,0,0,0-2.75,4.11,2.36,2.36,0,0,1-2.79,1.36,2,2,0,0,1-1.66-2.53,10.39,10.39,0,0,1,2-4c2.6-2.88,5.44-5.53,8.19-8.27L351.89,96,339.82,83.84c-.21-.21-.44-.4-.65-.61a2.49,2.49,0,0,1-.2-3.67,2.43,2.43,0,0,1,3.56,0c2.15,2,4.26,4.08,6.33,6.18s4,4.18,6,6.28c.11,0,.23,0,.28-.06q6.87-7.09,13.71-14.21a2.36,2.36,0,0,1,3.41-.34,2.27,2.27,0,0,1,.14,3.41c-2.85,3-5.82,5.86-8.7,8.82-1.87,1.92-3.67,3.93-5.62,6l13.24,13.94c.24.25.49.48.73.73,1.19,1.28,1.25,2.75.16,3.79a2.44,2.44,0,0,1-3.66-.25q-4.44-4.53-8.8-9.13C358.2,103.12,356.7,101.43,355.08,99.66Z" transform="translate(-25 -54.11)"/><path d="M324.83,96.76a18.1,18.1,0,0,1-2.24,9.2c-3.46,6.06-10.6,8.59-17.94,6.42-11.32-3.36-15.93-14.53-10.5-25.48A17.72,17.72,0,0,1,302,78.6a7.69,7.69,0,0,1,2.63-.35c.32,0,.68.12,1,0a10,10,0,0,1,6.64.38C320.44,81.53,324.7,87.68,324.83,96.76Zm-4.66.25c-.07-.92-.12-1.75-.22-2.58a12.82,12.82,0,0,0-10.31-11.61,10.09,10.09,0,0,0-3,.25c-.58.05-1.27.3-1.7.07-.9-.5-1.48-.09-2.12.38a15.41,15.41,0,0,0-5.6,8.44c-2.2,7.67,1.48,14.05,9.2,16,6.65,1.71,12-1.54,13.39-8.14C320,98.9,320.07,97.91,320.17,97Z" transform="translate(-25 -54.11)"/><path d="M243.81,188.43a18.79,18.79,0,0,1,2.16-9.68c1-1.74,2.27-3.73,3.94-4.63,4.33-2.31,9-4.09,14.07-3.08a18.87,18.87,0,0,1,11.59,29.65c-4.58,6.47-12.55,8.5-20.38,5.08C247.69,202.48,243.84,196.69,243.81,188.43Zm4.53-.59c0,7.53,4.19,12.85,11.09,14.55,5.25,1.3,9.72-.32,12.6-4.65a14.8,14.8,0,0,0,2.21-11.41c-.91-4.65-3.64-7.72-7.93-9.74-3.81-1.79-7.24-1.68-10.64.8a2,2,0,0,1-1.64.37c-1.26-.49-1.93.21-2.62,1C249,181.49,248.51,184.88,248.34,187.84Z" transform="translate(-25 -54.11)"/></svg>