<svg id="Layer_1" data-name="Layer 1" xmlns="http://www.w3.org/2000/svg" viewBox="0 0 240.11 191"><defs><style>.cls-1{font-size:12px;font-family:MyriadPro-Regular, Myriad Pro;}.cls-2{letter-spacing:-0.01em;}.cls-3{fill:red;}.cls-4{fill:#fff;}</style></defs><title>box &amp;amp; me</title><text class="cls-1" transform="translate(192.09 188)">23.261 <tspan class="cls-2" x="35.81" y="0">p</tspan><tspan x="42.47" y="0">x</tspan></text><path d="M31,17.59h.16l1.11.08a.35.35,0,0,0,.21-.1s0-.13,0-.18c-.81-1.1-1.62-2.19-2.43-3.3-.26-.36-.3-.35-.57,0h0l-2.9,2.86c-.05,0-.1.15-.08.19s.12.09.19.12a.59.59,0,0,0,.14,0l1.13.08A4,4,0,0,1,27,20.77a4.47,4.47,0,0,1-3.25,1.53,6.07,6.07,0,0,0,2.13.33,5,5,0,0,0,4.9-3.87C30.88,18.38,30.9,18,31,17.59Z" transform="translate(-2.81 -4.5)"/><circle class="cls-3" cx="27.12" cy="4.26" r="4.26"/><path d="M10.1,14.9h-2v3.71H6V14.9h-2V13.37h6Z" transform="translate(-2.81 -4.5)"/><path d="M17.26,13.37v5.24h-2.1V16.75H12.77v1.86H10.68V13.37h2.09v1.78h2.39V13.37Z" transform="translate(-2.81 -4.5)"/><path d="M24.09,17.15v1.46h-5.9V13.37H24v1.45H20.24v.49h3v1.3h-3v.54Z" transform="translate(-2.81 -4.5)"/><path d="M9.88,23.75c0,.93-.93,1.55-2.39,1.55H2.81V19.61H7.17c1.45,0,2.38.61,2.38,1.49a1.31,1.31,0,0,1-1.37,1.26C9.1,22.42,9.88,22.9,9.88,23.75ZM5.06,21.8H6.78c.28,0,.52-.13.52-.4S7.06,21,6.78,21H5.06Zm2.48,1.67c0-.27-.21-.45-.54-.45H5.06v.9H7C7.33,23.92,7.54,23.75,7.54,23.47Z" transform="translate(-2.81 -4.5)"/><path d="M10.33,22.46c0-2,1.56-3.05,3.87-3.05s3.88,1.08,3.88,3.05-1.56,3-3.88,3S10.33,24.42,10.33,22.46Zm5.44,0c0-.82-.59-1.31-1.57-1.31s-1.56.49-1.56,1.31.59,1.3,1.56,1.3S15.77,23.27,15.77,22.46Z" transform="translate(-2.81 -4.5)"/><path d="M22.81,22.37l2.54,2.93H22.66l-1.2-1.45L20.27,25.3H17.73l2.53-2.9-2.44-2.79H20.5L21.62,21l1.11-1.36h2.53Z" transform="translate(-2.81 -4.5)"/><path class="cls-4" d="M30.46,8.59V9.78h-.58V8.62a.45.45,0,0,0-.49-.51.71.71,0,0,0-.66.44V9.78h-.58V8.62a.45.45,0,0,0-.49-.51.7.7,0,0,0-.65.42V9.78h-.58v-2H27v.36a.94.94,0,0,1,.84-.44.79.79,0,0,1,.82.55,1,1,0,0,1,.91-.55A.84.84,0,0,1,30.46,8.59Z" transform="translate(-2.81 -4.5)"/><path class="cls-4" d="M32.26,9.43a1.14,1.14,0,0,0,.79-.27l.31.34a1.57,1.57,0,0,1-1.13.37c-.84,0-1.33-.43-1.33-1.11s.48-1.11,1.29-1.11,1.25.38,1.25,1.1a.41.41,0,0,1,0,.14h-2C31.51,9.26,31.79,9.43,32.26,9.43Zm-.78-.91h1.41a.63.63,0,0,0-.69-.42C31.82,8.09,31.56,8.23,31.48,8.52Z" transform="translate(-2.81 -4.5)"/></svg>