<svg id="Layer_1" data-name="Layer 1" xmlns="http://www.w3.org/2000/svg" viewBox="0 0 94.81 66.55"><defs><style>.cls-1{fill:red;}.cls-2{fill:#fff;}</style></defs><title>box an me</title><path d="M82,41.24l.46,0c1.05.08,2.09.17,3.14.22a.92.92,0,0,0,.6-.29c.06-.06,0-.35-.14-.49-2.29-3.11-4.61-6.21-6.88-9.33-.74-1-.85-1-1.61-.11l0,0q-4.11,4.05-8.21,8.11c-.13.13-.27.41-.21.52s.32.26.52.35a1.07,1.07,0,0,0,.4,0l3.21.25a11.31,11.31,0,0,1-2.43,9.66c-2.33,2.83-5.52,4-9.18,4.34a18,18,0,0,0,6,.93,14.22,14.22,0,0,0,13.85-11C81.76,43.48,81.84,42.37,82,41.24Z"/><circle class="cls-1" cx="79.1" cy="16.26" r="13.31"/><path d="M23,33.64H17.45V44.11H11.53V33.64H5.94V29.31H23Z"/><path d="M43.25,29.31v14.8H37.33V38.86H30.56v5.25H24.64V29.31h5.92v5h6.77v-5Z"/><path d="M62.59,40v4.1H45.88V29.31H62.35v4.1H51.68v1.37h8.58v3.68H51.68V40Z"/><path d="M22.39,58.65c0,2.63-2.63,4.4-6.75,4.4H2.4V46.94H14.72c4.12,0,6.75,1.72,6.75,4.23,0,1.8-1.41,3.41-3.87,3.55C20.18,54.9,22.39,56.26,22.39,58.65ZM8.76,53.15h4.88c.78,0,1.45-.37,1.45-1.15s-.67-1.15-1.45-1.15H8.76Zm7,4.72c0-.78-.6-1.27-1.52-1.27H8.76v2.54h5.5C15.18,59.14,15.78,58.65,15.78,57.87Z"/><path d="M23.66,55c0-5.54,4.42-8.61,11-8.61s11,3.07,11,8.61-4.42,8.61-11,8.61S23.66,60.54,23.66,55ZM39,55c0-2.3-1.66-3.68-4.42-3.68S30.2,52.69,30.2,55s1.66,3.69,4.42,3.69S39,57.3,39,55Z"/><path d="M59,54.74l7.16,8.31h-7.6l-3.38-4.12-3.39,4.12H44.6l7.14-8.22-6.91-7.89h7.6l3.15,3.84,3.16-3.84H65.9Z"/><path class="cls-2" d="M80.69,15.75v3.63H78.94V15.85a1.36,1.36,0,0,0-1.5-1.55,2.17,2.17,0,0,0-2,1.32v3.76H73.7V15.85a1.37,1.37,0,0,0-1.51-1.55,2.17,2.17,0,0,0-2,1.29v3.79H68.45V13.14H70.2v1.11a2.86,2.86,0,0,1,2.57-1.34,2.4,2.4,0,0,1,2.49,1.67A2.89,2.89,0,0,1,78,12.91,2.54,2.54,0,0,1,80.69,15.75Z"/><path class="cls-2" d="M86.17,18.29a3.47,3.47,0,0,0,2.4-.8l1,1a5,5,0,0,1-3.44,1.11c-2.57,0-4.06-1.29-4.06-3.36S83.5,12.89,86,12.89c2.26,0,3.78,1.15,3.78,3.36a1.35,1.35,0,0,1,0,.41h-6C83.87,17.78,84.72,18.29,86.17,18.29Zm-2.38-2.75,4.27,0A1.89,1.89,0,0,0,86,14.22C84.82,14.22,84,14.66,83.79,15.54Z"/></svg>