<svg id="Layer_1" data-name="Layer 1" xmlns="http://www.w3.org/2000/svg" viewBox="0 0 94.13 65.47"><defs><style>.cls-1{fill:red;}.cls-2{fill:#fff;}</style></defs><title>box an me</title><path d="M82.8,40.17l.47,0c1.06.08,2.12.17,3.18.22a1,1,0,0,0,.61-.29c.06-.06,0-.36-.15-.5-2.32-3.16-4.66-6.3-7-9.46-.75-1-.86-1-1.63-.11l0,0c-2.78,2.74-5.56,5.47-8.33,8.22-.13.13-.27.41-.22.53a1.22,1.22,0,0,0,.53.36,1.39,1.39,0,0,0,.41,0l3.25.24a11.48,11.48,0,0,1-2.46,9.8c-2.37,2.88-5.59,4.07-9.31,4.4a18,18,0,0,0,6.11,1,14.44,14.44,0,0,0,14-11.11C82.56,42.44,82.63,41.31,82.8,40.17Z"/><circle class="cls-1" cx="79.85" cy="14.83" r="12.21"/><path d="M23,32.46H17.32V43.08h-6V32.46H5.65v-4.4H23Z"/><path d="M43.5,28.06v15h-6V37.76H30.63v5.32h-6v-15h6v5.11h6.86V28.06Z"/><path d="M63.11,38.91v4.17H46.17v-15h16.7v4.16H52v1.4h8.71v3.73H52v1.56Z"/><path d="M22.33,57.83c0,2.66-2.66,4.46-6.84,4.46H2.06V45.94h12.5c4.18,0,6.84,1.75,6.84,4.3,0,1.82-1.43,3.46-3.92,3.6C20.09,54,22.33,55.4,22.33,57.83ZM8.51,52.25h5c.79,0,1.47-.37,1.47-1.17s-.68-1.17-1.47-1.17h-5ZM15.63,57c0-.8-.61-1.29-1.54-1.29H8.51v2.57h5.58C15,58.32,15.63,57.83,15.63,57Z"/><path d="M23.63,54.12c0-5.63,4.48-8.74,11.11-8.74s11.12,3.11,11.12,8.74-4.49,8.73-11.12,8.73S23.63,59.74,23.63,54.12Zm15.6,0c0-2.34-1.68-3.74-4.49-3.74s-4.48,1.4-4.48,3.74,1.68,3.73,4.48,3.73S39.23,56.45,39.23,54.12Z"/><path d="M59.44,53.86l7.26,8.43H59l-3.43-4.18-3.43,4.18H44.87L52.11,54l-7-8h7.71L56,49.84l3.2-3.9h7.27Z"/><path class="cls-2" d="M81.36,14.35v3.43H79.71V14.44A1.29,1.29,0,0,0,78.29,13a2.06,2.06,0,0,0-1.89,1.24v2.39l0,1.17H74.76V14.44A1.29,1.29,0,0,0,73.33,13a2,2,0,0,0-1.87,1.21v3.59H69.8v-5.9h1.66v1a2.7,2.7,0,0,1,2.42-1.27,2.27,2.27,0,0,1,2.35,1.58,2.74,2.74,0,0,1,2.6-1.58A2.4,2.4,0,0,1,81.36,14.35Z"/><path class="cls-2" d="M86.54,16.75A3.32,3.32,0,0,0,88.81,16l.89,1A4.68,4.68,0,0,1,86.45,18c-2.43,0-3.83-1.22-3.83-3.18s1.39-3.19,3.71-3.19c2.14,0,3.58,1.1,3.58,3.18a1.28,1.28,0,0,1,0,.39H84.22C84.36,16.27,85.17,16.75,86.54,16.75Zm-2.25-2.6,4,0a1.8,1.8,0,0,0-2-1.22C85.26,12.91,84.53,13.31,84.29,14.15Z"/></svg>