<svg id="Layer_1" data-name="Layer 1" xmlns="http://www.w3.org/2000/svg" viewBox="0 0 1243.64 469.52"><defs><style>.cls-1{fill:#1a1a1a;stroke:red;stroke-miterlimit:10;stroke-width:0.75px;}</style></defs><title>box &amp;amp; me 3.0</title><path class="cls-1" d="M206.22,603.92H109.89v96.36h96.33Zm-13.64,85.65c-.73,1.75-2.21,3.87-3.82,4.35-1.44.44-4.41-.61-5.11-1.88-5.51-10-14.22-17.11-22-25-2.59-2.63-5.09-5.35-7.84-8.25-3.75,5.61-7.39,11.05-11.05,16.48-1.48,2.2-3,4.39-4.57,6.53-2.34,3.2-5.3,3.92-7.88,2-2.42-1.81-2.59-4.82-.48-7.92,5.37-7.91,10.68-15.85,16.13-23.71,1.17-1.67,1.13-2.81-.07-4.45-6.21-8.48-12-17.27-20.46-23.86a4.86,4.86,0,0,1-.59-7.11,4.8,4.8,0,0,1,7.1-.54c4.72,4.41,9.28,9,13.58,13.82,2.88,3.21,5.19,6.92,7.72,10.35,6.85-8.87,13.47-17.44,20.1-26a22.69,22.69,0,0,1,1.9-2.14,5.06,5.06,0,1,1,7.56,6.74c-3.55,4.49-7.31,8.84-10.76,13.42-3.77,5-7.23,10.23-10.93,15.29-1.07,1.46-1.14,2.52.15,3.84,4.46,4.55,8.75,9.26,13.3,13.71,6.32,6.18,12.49,12.46,16.85,20.25C192.08,686.72,193,688.53,192.58,689.57Z" transform="translate(706.52 -550.98)"/><path class="cls-1" d="M308.06,603.86H211.61V700.3h96.45Zm-17.15,70c-7.48,13.1-22.89,18.58-38.77,13.88-24.47-7.26-34.42-31.41-22.69-55.06,3.83-7.73,9.23-14,17-17.95,1.61-.82,3.78-.57,5.69-.75.7-.07,1.48.24,2.11,0,4.9-1.63,9.66-.82,14.34.82,17.71,6.22,26.92,19.52,27.19,39.14A38.92,38.92,0,0,1,290.91,673.85Z" transform="translate(706.52 -550.98)"/><path class="cls-1" d="M109.89,903.06h96.38v-96.3H109.89Zm15.43-71.88c2.2-3.76,4.9-8.07,8.51-10,9.36-5,19.53-8.84,30.42-6.65,29.39,5.91,42.41,39.57,25,64.08-9.89,14-27.13,18.37-44,11-16.22-7.11-24.54-19.61-24.6-37.46C120.65,844.77,121.61,837.54,125.32,831.18Z" transform="translate(706.52 -550.98)"/><path class="cls-1" d="M211.56,903H308v-96.2H211.56Zm16.17-80.57c1.89-2.54,4.9-2.93,7.83-.52,9.41,7.77,18.7,15.69,28.76,24.15a10.86,10.86,0,0,1,1.11-2c5.65-7,11.26-14.13,17-21.08a59.55,59.55,0,0,1,7.14-7.24,4.81,4.81,0,0,1,7.08.78c1.68,2.1,1.32,4.71-.57,6.93-8.41,9.84-16.74,19.74-25.87,30.52,9.42,8.39,18.48,16.53,27.64,24.57a22.37,22.37,0,0,0,4.42,2.48c2.71,1.44,3.75,4,2.65,6.67-1.22,3-3,4-6.18,2.72a32.77,32.77,0,0,1-8.77-5c-6.86-5.86-13.41-12.08-20.06-18.17-1.88-1.72-3.69-3.51-5.81-5.53-8.09,10.88-19.75,18.78-26.64,30.91a4.79,4.79,0,0,1-6.83,2c-2.41-1.3-3.67-4.43-2-6.83a203.42,203.42,0,0,1,12.6-16.34c5-5.76,10.49-11.1,15.93-16.8a30.4,30.4,0,0,0-2.19-2.42c-8.48-7.4-16.94-14.83-25.48-22.15C226.62,827.62,225.85,825,227.73,822.44Z" transform="translate(706.52 -550.98)"/><path class="cls-1" d="M154.4,882.29c11.36,2.8,21-.7,27.24-10.07a32,32,0,0,0,4.78-24.66c-2-10-7.88-16.69-17.13-21-8.24-3.87-15.66-3.62-23,1.73a4.48,4.48,0,0,1-3.55.81c-2.72-1.07-4.17.45-5.66,2.13-5.28,5.93-6.26,13.25-6.63,19.64C130.4,867.09,139.5,878.61,154.4,882.29Z" transform="translate(706.52 -550.98)"/><path class="cls-1" d="M206.22,705.43H109.88v96.28h96.34Zm-6.89,74.8c-1.91,2.57-5.09,2.57-8.11.25-9.68-7.45-19.41-14.82-30.07-22.94a19.36,19.36,0,0,1-2,3.22q-11.67,12.43-23.45,24.78c-2.75,2.88-5.85,3.17-8.09,1s-2-5.14.82-8.11c8.19-8.62,16.4-17.23,24.79-26-8.06-7.59-15.68-14.83-23.4-22a36.37,36.37,0,0,0-5.41-3.86C122,725,121,722.46,122.12,720a5,5,0,0,1,6.36-2.79,19.12,19.12,0,0,1,5.63,3.47c7.08,6.43,14,13,21,19.54,1.54,1.45,3.12,2.86,5.55,5.08a17.93,17.93,0,0,1,1.92-3.12c8.67-9.07,17.34-18.13,26.15-27.06,1.24-1.25,3.26-2.5,4.84-2.41s3.41,1.61,4.34,3c1.43,2.16.25,4.26-1.44,6-5.8,5.92-11.62,11.83-17.38,17.79-3.47,3.58-6.85,7.26-10.57,11.21,2.08,1.5,4,2.87,5.95,4.32,7.8,5.88,15.63,11.72,23.34,17.72C200.76,775,201.14,777.8,199.33,780.23Z" transform="translate(706.52 -550.98)"/><path class="cls-1" d="M262.93,623.84c-2-.45-4.26.34-6.4.53-1.24.11-2.74.66-3.66.15-2-1.07-3.22-.18-4.6.84-6.21,4.63-10,10.91-12.1,18.24-4.74,16.57,3.21,30.36,19.88,34.66,14.39,3.71,26-3.32,28.94-17.59.43-2.07.5-4.22.71-6.15-.17-2-.27-3.8-.49-5.59C283.65,635.88,275.69,626.77,262.93,623.84Z" transform="translate(706.52 -550.98)"/><path class="cls-1" d="M-607.35,752.15c-14.46,0-24.15,10.74-24.15,26.7s9.69,26.7,24.15,26.7,24.15-10.75,24.15-26.7S-592.9,752.15-607.35,752.15Z" transform="translate(706.52 -550.98)"/><path class="cls-1" d="M-92.34,778.85c0-16.63-9.17-27.71-22.74-27.71h-9.17v55.42h9.17C-101.51,806.56-92.34,795.48-92.34,778.85Z" transform="translate(706.52 -550.98)"/><path class="cls-1" d="M-251.52,902.46c0-4.76-3.57-7.82-8.92-7.82h-11.24v15.63h11.24C-255.09,910.27-251.52,907.21-251.52,902.46Z" transform="translate(706.52 -550.98)"/><path class="cls-1" d="M-257.23,934.75h-14.45v16.31h14.45c5.17,0,8.74-3.23,8.74-8.15S-252.06,934.75-257.23,934.75Z" transform="translate(706.52 -550.98)"/><path class="cls-1" d="M409.81,603.85H313.4V700.3h96.41Zm-13.54,77.92c.51.54,1.07,1,1.57,1.58,2.58,2.77,2.71,5.93.35,8.18s-5.33,2.11-7.92-.53q-9.6-9.78-19-19.75c-3.36-3.53-6.6-7.18-10.11-11-7.35,7-14.57,13.56-21.42,20.51-2.46,2.49-4.17,5.79-6,8.88-1.42,2.47-3.32,3.6-6,2.93s-4.39-2.81-3.61-5.46c.91-3.08,2.16-6.4,4.25-8.72,5.62-6.21,11.77-11.93,17.7-17.85l8.15-8.2L328.16,626c-.45-.45-1-.85-1.4-1.31-2.46-2.53-2.63-5.66-.43-7.93a5.24,5.24,0,0,1,7.69,0q7,6.54,13.69,13.35c4.4,4.46,8.67,9.06,13,13.58.24,0,.5,0,.62-.13q14.82-15.33,29.63-30.7c2.27-2.36,5.14-2.67,7.36-.74a4.93,4.93,0,0,1,.3,7.38c-6.16,6.45-12.57,12.65-18.79,19-4.05,4.17-7.94,8.51-12.16,13Z" transform="translate(706.52 -550.98)"/><path class="cls-1" d="M-134.47,895.83c-14.63,0-24.45,10.87-24.45,27s9.82,27,24.45,27S-110,939-110,922.85-119.84,895.83-134.47,895.83Z" transform="translate(706.52 -550.98)"/><path class="cls-1" d="M403,868.35c1.86,2.43,3.92,4.71,5.9,7l.78-.23V806.89h-67c4.69,4.45,8.77,8.42,13,12.23a4,4,0,0,0,2.93.46c12.09-2.09,22.58,1.46,31.39,9.61,10.64,9.83,16.32,21.61,12.53,36.56A3.47,3.47,0,0,0,403,868.35Z" transform="translate(706.52 -550.98)"/><path class="cls-1" d="M-706.15,551.35v468.77H536.74V551.35Zm548.62,40.93a2.24,2.24,0,0,1,2.22-2.26H-128a4.21,4.21,0,0,1,3.64,2L-97,638.81V592.28A2.35,2.35,0,0,1-94.77,590h28a2.27,2.27,0,0,1,2.37,2.26v99.54a2.26,2.26,0,0,1-2.37,2.11H-94.13a4.35,4.35,0,0,1-3.32-2L-125,645.14v46.68a2.26,2.26,0,0,1-2.37,2.11h-28a2.21,2.21,0,0,1-2.22-2.11Zm-3,131.15a2.62,2.62,0,0,1,2.47-2.52h40.9c37.38,0,62.23,23,62.23,57.94,0,34.6-24.85,57.94-62.23,57.94h-40.9a2.62,2.62,0,0,1-2.47-2.52Zm-44.86-131.15a2.34,2.34,0,0,1,2.21-2.26h28a2.27,2.27,0,0,1,2.37,2.26v99.54a2.26,2.26,0,0,1-2.37,2.11h-28a2.32,2.32,0,0,1-2.21-2.11ZM-214,723.43a2.62,2.62,0,0,1,2.47-2.52h31.2a2.54,2.54,0,0,1,2.65,2.52v111a2.52,2.52,0,0,1-2.65,2.35h-31.2a2.59,2.59,0,0,1-2.47-2.35Zm-94.68-131.15a2.34,2.34,0,0,1,2.21-2.26h28a2.27,2.27,0,0,1,2.37,2.26V626l19-34.18A4.45,4.45,0,0,1-253.5,590h34.62c1.27,0,1.74.75,1.11,1.81l-31.3,47.74,33.67,52.55c.79,1,.16,1.81-1.11,1.81h-36.67a4.35,4.35,0,0,1-3.32-1.81l-19.61-37.65v37.35a2.25,2.25,0,0,1-2.37,2.11h-28a2.32,2.32,0,0,1-2.21-2.11Zm-108.46,0a2.23,2.23,0,0,1,2.21-2.26h27.35a4.24,4.24,0,0,1,3.64,2l27.35,46.83V592.28a2.34,2.34,0,0,1,2.21-2.26h28a2.27,2.27,0,0,1,2.37,2.26v99.54a2.26,2.26,0,0,1-2.37,2.11h-27.35a4.37,4.37,0,0,1-3.32-2l-27.51-46.83v46.68a2.25,2.25,0,0,1-2.37,2.11h-28a2.21,2.21,0,0,1-2.21-2.11Zm-47.91,0a2.35,2.35,0,0,1,2.22-2.26h28a2.27,2.27,0,0,1,2.37,2.26v99.54a2.26,2.26,0,0,1-2.37,2.11h-28a2.33,2.33,0,0,1-2.22-2.11Zm-105.77,0a2.35,2.35,0,0,1,2.22-2.26H-539a2.27,2.27,0,0,1,2.37,2.26v39.3h22.13v-39.3a2.24,2.24,0,0,1,2.22-2.26h29.56a2.27,2.27,0,0,1,2.37,2.26v99.54a2.26,2.26,0,0,1-2.37,2.11h-29.56a2.21,2.21,0,0,1-2.22-2.11V658.09h-22.13v33.73a2.26,2.26,0,0,1-2.37,2.11h-29.56a2.33,2.33,0,0,1-2.22-2.11Zm-99.13,0a2.35,2.35,0,0,1,2.22-2.26h85.05a2,2,0,0,1,2.21,2.11L-582.83,615a2.65,2.65,0,0,1-2.53,2.11h-23.55v74.69a2.21,2.21,0,0,1-2.22,2.11h-28a2.37,2.37,0,0,1-2.37-2.11V617.13h-26.24a2.22,2.22,0,0,1-2.22-2.11Zm101,274.31-2.68,25.84a3,3,0,0,1-2.85,2.38h-26.59v84.3a2.5,2.5,0,0,1-2.5,2.38h-31.58a2.67,2.67,0,0,1-2.67-2.38v-84.3h-29.62a2.5,2.5,0,0,1-2.5-2.38V866.76a2.66,2.66,0,0,1,2.5-2.55h96A2.28,2.28,0,0,1-568.95,866.59Zm-38.4-27.45c-37.55,0-62.59-24.18-62.59-60.29,0-36.44,25-60.63,62.59-60.63s62.59,24.19,62.59,60.63C-544.76,815-569.8,839.14-607.35,839.14Zm151.34,140a2.55,2.55,0,0,1-2.67,2.38H-492a2.5,2.5,0,0,1-2.49-2.38V941h-25v38.07a2.55,2.55,0,0,1-2.68,2.38h-33.36a2.63,2.63,0,0,1-2.5-2.38V866.76a2.66,2.66,0,0,1,2.5-2.55h33.36a2.57,2.57,0,0,1,2.68,2.55v44.36h25V866.76a2.53,2.53,0,0,1,2.49-2.55h33.37a2.57,2.57,0,0,1,2.67,2.55Zm-25.63-140c-31.56,0-48.31-15.62-48.66-45.34v-70a3,3,0,0,1,3-2.86H-497a2.9,2.9,0,0,1,3,2.86v73.05c0,7.72,4.58,12.26,12.34,12.26s12.34-4.54,12.34-12.09V723.77a3,3,0,0,1,3-2.86H-436a2.91,2.91,0,0,1,3,2.86v70C-433,823.52-449.73,839.14-481.64,839.14Zm131.09,140a2.67,2.67,0,0,1-2.68,2.38h-83c-1.25,0-2.5-1.36-2.86-2.56V866.59a2.21,2.21,0,0,1,2.5-2.38h81.18a2.73,2.73,0,0,1,2.86,2.38v25.67a2.62,2.62,0,0,1-2.86,2.55h-46.57v13.42h37.83a2.09,2.09,0,0,1,2.32,2.21l-2.5,23.8a3.11,3.11,0,0,1-3,2.21h-34.62v14.44h48.71a2.53,2.53,0,0,1,2.68,2.21Zm27.06-255.85-2.64,25.53a3,3,0,0,1-2.82,2.35h-26.27v83.3a2.47,2.47,0,0,1-2.47,2.35H-388.9a2.63,2.63,0,0,1-2.64-2.35v-83.3h-29.27a2.47,2.47,0,0,1-2.47-2.35V723.43a2.62,2.62,0,0,1,2.47-2.52H-326A2.25,2.25,0,0,1-323.49,723.26Zm9.35,101.94L-303,801.52c.53-1.68,1.76-2.18,3.17-1.34,8.11,4.36,17.81,7.55,24.51,8.06,5.64,0,9.34-2.52,9.34-6.38,0-9.91-49.54-9.41-49.54-46,0-22.5,17.81-37.45,44.61-37.45,12.51,0,28.38,4.87,39.49,12.09,1.41.84,1.94,2.18,1.41,3l-11.11,23.68c-.53,1.68-1.76,2.19-3.17,1.35-8.64-4.7-18.69-8.23-24.86-8.73-5.47,0-9,2.35-9,6,0,9.91,49.89,9.24,49.89,46.18,0,22.34-18.16,37.29-45.31,37.29-14.81,0-30.32-4.37-39.14-11.09C-314.14,827.22-314.67,826-314.14,825.2Zm64.76,156.29h-56.56a2.5,2.5,0,0,1-2.5-2.38V866.76a2.64,2.64,0,0,1,2.5-2.55h53.7c23.38,0,38.9,13.26,38.9,33.15,0,12.23-6.25,21.24-15.88,24,11.24,2.72,18.56,12.92,18.56,27C-210.66,968.23-226.19,981.49-249.38,981.49Zm114.91,2.37c-38,0-63.34-24.47-63.34-61,0-36.88,25.34-61.35,63.34-61.35S-71.13,886-71.13,922.85C-71.13,959.39-96.47,983.86-134.47,983.86ZM46.1,978.77c.89,1.52-.18,2.72-2,2.72H6.84a5.27,5.27,0,0,1-4.1-2.72l-14.63-28.39-14.63,28.39a5.27,5.27,0,0,1-4.1,2.72H-67.91c-1.79,0-2.86-1.2-2-2.72l31.94-55.92-31.94-55.92c-.89-1.52.18-2.72,2-2.72H-30.8a5.27,5.27,0,0,1,4.1,2.72L-11.89,897,2.92,866.93A5.27,5.27,0,0,1,7,864.21H44.13c1.79,0,2.86,1.2,2,2.72L14.16,922.85Zm.32-144.33a2.64,2.64,0,0,1-2.65,2.35h-82c-1.23,0-2.47-1.35-2.82-2.52v-111a2.18,2.18,0,0,1,2.47-2.35H41.66a2.69,2.69,0,0,1,2.82,2.35v25.36a2.6,2.6,0,0,1-2.82,2.52h-46v13.27H33a2.06,2.06,0,0,1,2.29,2.18L32.84,790.1a3.07,3.07,0,0,1-3,2.19H-4.36v14.27H43.77a2.51,2.51,0,0,1,2.65,2.18Zm0-154.22a4.88,4.88,0,0,1-1.9,3.62C35,691.52,20.49,696,5.31,696c-34.14,0-56.91-21.69-56.91-54.22s22.77-54.21,56.91-54.21c11.7,0,24,3.31,33.2,8.73a2.3,2.3,0,0,1,1.42,2.72L32,621.19a2.46,2.46,0,0,1-3,1.21,51.87,51.87,0,0,0-22.77-5.27c-14.54,0-24.34,9.93-24.34,24.69,0,15.06,9.8,25,24.34,25,5.85,0,9.8-1.05,11.54-2.86v-8.73H3.26c-1.43,0-2.37-.61-2.53-1.66l-2.06-20.78a2.24,2.24,0,0,1,2.53-2.56H44.05a2.36,2.36,0,0,1,2.37,2.11Zm452.86,263.1c-.14.6-.68,1.16-.66,1.73.2,9.12-4.78,15.84-10.22,22.36-1,1.14-2,2.21-3,3.34a2.82,2.82,0,0,0-.26.75c.51.68,1.09,1.42,1.63,2.2a5.6,5.6,0,0,1-.6,7.52c-2,1.88-5.74,2.17-7.45-.14-2.34-3.18-4.6-2.72-7.83-1.7-15.5,4.89-33.43-.54-42.47-12.7-6.87-9.24-7.65-19.67-4.93-30.41a58.06,58.06,0,0,1,5.23-12.59c1.24-2.37,1.32-4-.51-5.88C427,916.52,426,915,424.35,913c.48,4.91-2.27,4.66-5.28,4.66q-158.83,0-317.69.08H96.76v-329H424.17v3.44q0,150,0,300.06a4.84,4.84,0,0,0,.43,2.71c4.22,5.58,8.56,11.07,12.92,16.66a95.71,95.71,0,0,1,8.17-5.72c13-7.27,28.49-5,40.67,5.7a42.11,42.11,0,0,1,14.1,25.74C500.78,939.23,499.75,941.33,499.28,943.32Z" transform="translate(706.52 -550.98)"/><path class="cls-1" d="M350,833.47c-10.32,6.64-15.34,18.72-12.14,29.7,3.58,12.31,16.27,22.24,30.18,22.27,6.79-1.08,14.89-2.78,18.2-12.31a3.39,3.39,0,0,1,1.15-1.5c2.08-1.55,1.4-2.86-.1-4.39Q371,850.65,354.81,834C353.17,832.26,351.92,832.2,350,833.47Z" transform="translate(706.52 -550.98)"/><path class="cls-1" d="M313.42,794.64v7.14h7.12Z" transform="translate(706.52 -550.98)"/><path class="cls-1" d="M313.22,706.67q0,34.32,0,68.63a5.35,5.35,0,0,0,1.48,3.26c6.82,7.14,13.78,14.16,20.62,21.29a6.68,6.68,0,0,0,5.33,2.09c22-.07,44,0,66,0,1,0,2-.11,3.18-.17V705.38H313.39A12.78,12.78,0,0,0,313.22,706.67Zm17.25,76.79a72.43,72.43,0,0,1,7.93-9.83c6.29-6.75,12.77-13.32,19.28-20.07l-22-27.68c-.2-.25-.45-.45-.67-.69-2.38-2.53-2.63-5.27-.65-7.32s4.93-2,7.48.78c3,3.29,5.87,6.73,8.62,10.23,4.46,5.68,8.79,11.46,13.35,17.43,1-.89,1.71-1.45,2.32-2.12,6.44-7.07,12.73-14.28,19.33-21.2a116.61,116.61,0,0,1,11.33-10.19c2.58-2.07,5.29-1.44,6.91,1s.87,5-1.66,6.91a40.34,40.34,0,0,0-5.68,4.6c-8.56,9.3-17,18.72-25.66,28.34,6.27,7.61,12.64,15.39,19.09,23.1a13,13,0,0,0,2.62,1.75c2,1.45,2.93,3.34,2,5.8s-3,3.61-5.33,2.81a14.58,14.58,0,0,1-5.84-3.57c-3.83-4.11-7.31-8.55-10.89-12.9-2.69-3.27-5.32-6.6-8.27-10.27-3,3.25-5.47,6.12-8.12,8.87-4,4.21-8.23,8.28-12.26,12.51a49.34,49.34,0,0,0-4.81,5.88c-1.66,2.41-3.87,3.36-6.21,2.28A4.43,4.43,0,0,1,330.47,783.46Z" transform="translate(706.52 -550.98)"/><path class="cls-1" d="M295.78,773.87c-1.41,2.14-2.39,3.92-3.64,5.48-8.15,10.11-19.15,13-31.38,11.49-15.68-1.93-26.72-10.62-32.43-25.29-5.59-14.39-3.3-27.86,7-39.51,2.93-3.3,6.71-5.83,10-8.84.77-.71,1.66-2,1.51-2.88-.51-3.15.9-5,3.39-6.43,2.67-1.5,4.82-.31,6.39,1.74,1.12,1.44,2.16,1.56,3.79,1.27,7-1.21,14.14-1.21,19.78,3.46,4.64,3.84,9.45,8.33,12,13.58,4.68,9.5,8.09,19.7,7.09,30.71a3.37,3.37,0,0,0,.21,2.15c2.61,3.24,5.33,6.37,8.44,10V705.42H211.57v96.31h96.64a66.53,66.53,0,0,1,.06-7.65,11.84,11.84,0,0,0-4-10.72C301.21,780.51,298.66,777.15,295.78,773.87Z" transform="translate(706.52 -550.98)"/><path class="cls-1" d="M436,959.37c6.27,9,19.66,13.21,32.16,9.86L437,929.58C430.82,938.58,430.48,951.5,436,959.37Z" transform="translate(706.52 -550.98)"/><path class="cls-1" d="M471.25,914.55c-9.06-4.08-17.5-2.91-25.25,3.51-1.92,1.59-1.81,2.66-.37,4.37,2.05,2.43,3.89,5,5.86,7.54l26.56,33.78a75,75,0,0,0,5.06-5.62c3-4.07,6.45-8,5.26-13.76-.2-1,.76-2.15,1-3.27.36-1.53,1.11-3.26.73-4.63A32.62,32.62,0,0,0,471.25,914.55Z" transform="translate(706.52 -550.98)"/><path class="cls-1" d="M366.23,829.6l27.42,25.83C395.51,845.41,377.54,827.09,366.23,829.6Z" transform="translate(706.52 -550.98)"/><path class="cls-1" d="M251.88,724.58c-2.36,1.86-4.35,3.26-6.15,4.87-10.07,9-13,21.23-8.1,33.19a30.08,30.08,0,0,0,29.76,18.69c8.89-.6,16.17-4,19.81-13a4.54,4.54,0,0,0-1.08-5.63C274.37,750.55,261,739.84,251.88,724.58Z" transform="translate(706.52 -550.98)"/><path class="cls-1" d="M289.25,748.68c-2.05-6.3-3.71-12.77-6.34-18.83-1.1-2.54-4.19-4.26-6.46-6.26-3.87-3.4-9.81-4.47-13.58-2.4,7.15,10.62,16.28,19.34,25.56,27.91Z" transform="translate(706.52 -550.98)"/><path class="cls-1" d="M409,893.66c-3.53-5.49-8.05-10.34-12.43-15.76-6.93,10-15.65,16.52-27.63,17.33s-21.83-4-30.34-12.22c-14.82-14.31-18.06-41.3,6.12-58.42a6.94,6.94,0,0,0-.7-1q-8.25-8-16.54-15.91a2.87,2.87,0,0,0-1.56-1c-4.19-.08-8.38-.05-12.48-.05v96.12h96.32C409.57,899.38,410.4,895.81,409,893.66Z" transform="translate(706.52 -550.98)"/></svg>