<?xml version="1.0" encoding="utf-8"?>
<!-- Generator: Adobe Illustrator 23.0.3, SVG Export Plug-In . SVG Version: 6.00 Build 0)  -->
<svg version="1.1" id="Layer_1" xmlns="http://www.w3.org/2000/svg" xmlns:xlink="http://www.w3.org/1999/xlink" x="0px" y="0px"
	 viewBox="0 0 94.8 66.6" style="enable-background:new 0 0 94.8 66.6;" xml:space="preserve">
<style type="text/css">
	.st0{fill:#FF0000;}
	.st1{fill:#FFFFFF;}
</style>
<text transform="matrix(1 0 0 1 224.1348 211.6336)" style="font-family:'MyriadPro-Regular'; font-size:12px;">23.261 px</text>
<g>
	<path d="M82.8,41.4c0.1,0,0.3,0,0.5,0c1.1,0.1,2.1,0.2,3.2,0.2c0.2,0,0.5-0.1,0.6-0.3c0.1-0.1,0-0.4-0.1-0.5
		c-2.3-3.2-4.7-6.3-7-9.5c-0.8-1-0.9-1-1.6-0.1c0,0,0,0,0,0c-2.8,2.8-5.6,5.5-8.4,8.3c-0.1,0.1-0.3,0.4-0.2,0.5
		c0.1,0.2,0.3,0.3,0.5,0.4c0.1,0.1,0.3,0,0.4,0c1.1,0.1,2.2,0.2,3.3,0.2c0.7,3.7-0.1,7-2.5,9.9C69,53.5,65.7,54.7,62,55
		c2.1,0.7,4.1,1,6.2,1c6.9-0.1,12.6-4.6,14.2-11.2C82.5,43.7,82.6,42.6,82.8,41.4z"/>
	<circle class="st0" cx="79.8" cy="15.9" r="13.6"/>
	<g>
		<g>
			<path d="M22.5,33.7h-5.7v10.7h-6.1V33.7H5v-4.4h17.5V33.7z"/>
			<path d="M43.2,29.2v15.1h-6.1V39h-6.9v5.4h-6.1V29.2h6.1v5.1h6.9v-5.1H43.2z"/>
			<path d="M62.9,40.2v4.2H45.8V29.2h16.8v4.2H51.8v1.4h8.8v3.8h-8.8v1.6H62.9z"/>
		</g>
		<g>
			<path d="M21.8,59.2c0,2.7-2.7,4.5-6.9,4.5H1.4V47.2H14c4.2,0,6.9,1.8,6.9,4.3c0,1.8-1.4,3.5-4,3.6C19.6,55.4,21.8,56.8,21.8,59.2
				z M7.9,53.6h5c0.8,0,1.5-0.4,1.5-1.2c0-0.8-0.7-1.2-1.5-1.2h-5V53.6z M15.1,58.4c0-0.8-0.6-1.3-1.6-1.3H7.9v2.6h5.6
				C14.5,59.7,15.1,59.2,15.1,58.4z"/>
			<path d="M23.1,55.5c0-5.7,4.5-8.8,11.2-8.8c6.7,0,11.2,3.1,11.2,8.8c0,5.7-4.5,8.8-11.2,8.8C27.7,64.3,23.1,61.1,23.1,55.5z
				 M38.9,55.5c0-2.4-1.7-3.8-4.5-3.8c-2.8,0-4.5,1.4-4.5,3.8c0,2.4,1.7,3.8,4.5,3.8C37.2,59.2,38.9,57.8,38.9,55.5z"/>
			<path d="M59.2,55.2l7.3,8.5h-7.8l-3.5-4.2l-3.5,4.2h-7.3l7.3-8.4l-7.1-8.1h7.8l3.2,3.9l3.2-3.9h7.3L59.2,55.2z"/>
		</g>
	</g>
	<g>
		<path class="st1" d="M81.4,15.4v3.7h-1.8v-3.6c0-1-0.5-1.6-1.5-1.6c-0.9,0-1.6,0.5-2,1.3v0.1v2.4l0,1.3h-1.8v-3.6
			c0-1-0.5-1.6-1.5-1.6c-0.9,0-1.6,0.5-2,1.3v3.9h-1.8v-6.4h1.8v1.1c0.5-0.9,1.4-1.4,2.6-1.4c1.4,0,2.2,0.7,2.5,1.7
			c0.4-1,1.5-1.7,2.8-1.7C80.6,12.5,81.4,13.7,81.4,15.4z"/>
		<path class="st1" d="M87,18c1.1,0,1.8-0.3,2.5-0.8l1,1.1c-0.9,0.8-2,1.1-3.5,1.1c-2.6,0-4.1-1.3-4.1-3.4c0-2.1,1.5-3.5,4-3.5
			c2.3,0,3.9,1.2,3.9,3.4c0,0.2,0,0.3,0,0.4h-6.1C84.7,17.4,85.6,18,87,18z M84.6,15.1l4.4,0c-0.3-0.9-1-1.3-2.1-1.3
			C85.7,13.8,84.9,14.2,84.6,15.1z"/>
	</g>
</g>
</svg>
