<svg id="Layer_1" data-name="Layer 1" xmlns="http://www.w3.org/2000/svg" viewBox="0 0 1107.06 468.77"><defs><style>.cls-1{fill:#1a1a1a;}</style></defs><title>box &amp;amp; me 2.0</title><path class="cls-1" d="M526.42,255.71c11.35,2.8,21-.7,27.24-10.06A32,32,0,0,0,558.43,221c-2-10-7.87-16.68-17.13-21-8.23-3.87-15.65-3.63-23,1.73a4.52,4.52,0,0,1-3.55.81c-2.72-1.07-4.17.44-5.67,2.12-5.28,5.94-6.25,13.26-6.62,19.65C502.42,240.52,511.51,252,526.42,255.71Z" transform="translate(189.64 75.22)"/><path class="cls-1" d="M578.24,78.85H481.9v96.29h96.34Zm-6.9,74.81c-1.9,2.56-5.08,2.57-8.11.24-9.67-7.44-19.41-14.82-30.06-22.94a19,19,0,0,1-2,3.22Q519.53,146.63,507.75,159c-2.75,2.88-5.85,3.16-8.09,1s-2-5.13.81-8.11l24.8-26c-8.06-7.58-15.69-14.83-23.41-22a37.23,37.23,0,0,0-5.4-3.86c-2.44-1.54-3.4-4.08-2.33-6.56a5.08,5.08,0,0,1,6.37-2.79,19.15,19.15,0,0,1,5.63,3.48c7.08,6.43,14,13,21,19.54,1.55,1.44,3.13,2.85,5.56,5.07a17.6,17.6,0,0,1,1.92-3.11c8.66-9.07,17.34-18.13,26.15-27.06C562,87.28,564,86,565.6,86.11s3.4,1.61,4.34,3c1.43,2.15.25,4.25-1.44,6-5.8,5.92-11.62,11.82-17.38,17.78-3.47,3.59-6.85,7.26-10.57,11.21,2.07,1.51,4,2.88,5.94,4.32,7.8,5.89,15.64,11.73,23.35,17.73C572.78,148.44,573.16,151.22,571.34,153.66Z" transform="translate(189.64 75.22)"/><path class="cls-1" d="M578.23-22.66H481.91V73.71h96.32ZM564.59,63c-.72,1.75-2.21,3.87-3.82,4.36-1.44.44-4.41-.61-5.11-1.88-5.5-10-14.21-17.11-22-25-2.6-2.62-5.09-5.35-7.84-8.24-3.76,5.6-7.39,11-11,16.48-1.49,2.2-3,4.38-4.57,6.52-2.35,3.21-5.31,3.93-7.89,2-2.41-1.8-2.58-4.81-.47-7.91,5.37-7.91,10.68-15.86,16.13-23.71a3.25,3.25,0,0,0-.07-4.45c-6.21-8.49-12-17.27-20.46-23.86a4.87,4.87,0,0,1-.6-7.11,4.81,4.81,0,0,1,7.11-.54c4.71,4.41,9.28,9,13.58,13.81,2.87,3.22,5.19,6.93,7.71,10.35l20.11-26a20.32,20.32,0,0,1,1.9-2.14,5.08,5.08,0,0,1,7.15-.43,5,5,0,0,1,.41,7.16C551.23-3.12,547.48,1.22,544,5.8c-3.77,5-7.23,10.24-10.94,15.29-1.07,1.47-1.13,2.53.16,3.84,4.46,4.55,8.74,9.27,13.29,13.72,6.32,6.18,12.5,12.46,16.86,20.25C564.1,60.15,565,62,564.59,63Z" transform="translate(189.64 75.22)"/><path class="cls-1" d="M583.58,276.44H680v-96.2H583.58Zm16.17-80.57c1.89-2.54,4.9-2.94,7.82-.52,9.42,7.77,18.71,15.69,28.76,24.15a11.07,11.07,0,0,1,1.12-2c5.64-7,11.25-14.13,17-21.07a58.22,58.22,0,0,1,7.14-7.25,4.8,4.8,0,0,1,7.07.78c1.68,2.11,1.33,4.72-.56,6.93-8.41,9.84-16.75,19.75-25.87,30.53,9.41,8.39,18.48,16.53,27.64,24.57a22.59,22.59,0,0,0,4.42,2.48c2.71,1.44,3.75,4,2.65,6.67-1.22,2.95-3,4-6.19,2.71a32.71,32.71,0,0,1-8.76-5c-6.86-5.85-13.41-12.07-20.07-18.17-1.88-1.72-3.69-3.51-5.8-5.53-8.09,10.88-19.76,18.78-26.65,30.91a4.79,4.79,0,0,1-6.83,2c-2.41-1.3-3.66-4.43-2-6.83a204.22,204.22,0,0,1,12.61-16.35c5-5.76,10.49-11.1,15.93-16.8-1-1.06-1.51-1.81-2.19-2.41-8.48-7.41-16.94-14.83-25.49-22.15C598.63,201,597.87,198.39,599.75,195.87Z" transform="translate(189.64 75.22)"/><path class="cls-1" d="M667.79,147.3c-1.41,2.14-2.38,3.92-3.64,5.48-8.14,10.11-19.14,13-31.38,11.48-15.68-1.93-26.71-10.61-32.42-25.29-5.6-14.38-3.31-27.85,7-39.5,2.93-3.3,6.71-5.83,10-8.84.77-.71,1.65-2,1.51-2.89-.51-3.14.89-5,3.39-6.43,2.67-1.49,4.81-.3,6.39,1.74,1.12,1.45,2.16,1.56,3.79,1.28,7-1.22,14.13-1.21,19.78,3.46,4.64,3.83,9.44,8.32,12,13.58,4.68,9.49,8.09,19.7,7.08,30.71a3.43,3.43,0,0,0,.22,2.15c2.6,3.23,5.33,6.37,8.43,10V78.84H583.59v96.31h96.64a66.66,66.66,0,0,1,0-7.65c.53-4.35-.85-7.69-4-10.71C673.22,153.93,670.67,150.58,667.79,147.3Z" transform="translate(189.64 75.22)"/><path class="cls-1" d="M680.07-22.71H583.62V73.73h96.45Zm-17.14,70c-7.48,13.09-22.9,18.58-38.77,13.87-24.47-7.25-34.42-31.41-22.69-55.06,3.83-7.73,9.23-14,17-17.95,1.61-.82,3.77-.56,5.69-.74.69-.07,1.48.24,2.1,0,4.9-1.62,9.67-.82,14.34.82,17.71,6.23,26.93,19.52,27.2,39.14A39.06,39.06,0,0,1,662.93,47.28Z" transform="translate(189.64 75.22)"/><path class="cls-1" d="M481.91,276.49h96.38V180.18H481.91Zm15.43-71.88c2.2-3.77,4.9-8.07,8.51-10,9.36-5,19.53-8.84,30.42-6.65,29.39,5.92,42.41,39.57,25,64.09-9.9,14-27.13,18.37-44,11-16.22-7.11-24.55-19.62-24.6-37.46C492.66,218.19,493.62,211,497.34,204.61Z" transform="translate(189.64 75.22)"/><path class="cls-1" d="M192.86,268.47c0-3.84-2.88-6.31-7.19-6.31h-9.08v12.62h9.08C190,274.78,192.86,272.31,192.86,268.47Z" transform="translate(189.64 75.22)"/><path class="cls-1" d="M-94.26,132.06c-11.67,0-19.49,8.67-19.49,21.55s7.82,21.54,19.49,21.54,19.49-8.67,19.49-21.54S-82.6,132.06-94.26,132.06Z" transform="translate(189.64 75.22)"/><path class="cls-1" d="M188.26,294.53H176.59v13.16h11.67c4.17,0,7.05-2.6,7.05-6.58S192.43,294.53,188.26,294.53Z" transform="translate(189.64 75.22)"/><path class="cls-1" d="M635-2.73c-2-.46-4.26.34-6.41.53-1.23.11-2.74.65-3.66.15-2-1.07-3.21-.19-4.59.84-6.21,4.62-10,10.91-12.1,18.23-4.74,16.58,3.21,30.36,19.88,34.66,14.39,3.71,26-3.31,28.94-17.58.43-2.08.49-4.22.71-6.16-.17-2-.27-3.79-.49-5.58C655.67,9.3,647.71.2,635-2.73Z" transform="translate(189.64 75.22)"/><path class="cls-1" d="M781.82-22.72h-96.4V73.72h96.4ZM768.28,55.2c.52.53,1.07,1,1.58,1.58,2.58,2.77,2.71,5.92.34,8.17s-5.32,2.11-7.91-.53q-9.6-9.78-19-19.74c-3.37-3.54-6.61-7.18-10.12-11-7.35,7-14.56,13.56-21.41,20.5-2.46,2.5-4.18,5.79-6,8.88-1.43,2.48-3.32,3.6-6,2.94s-4.39-2.82-3.61-5.47c.91-3.07,2.16-6.4,4.25-8.71C706,45.6,712.18,39.88,718.11,34c2.62-2.61,5.22-5.24,8.16-8.19-8.75-8.82-17.42-17.56-26.1-26.29-.45-.46-.95-.85-1.39-1.31-2.47-2.54-2.63-5.67-.44-7.93a5.24,5.24,0,0,1,7.7,0q7,6.54,13.68,13.35c4.41,4.46,8.67,9.05,13,13.57.23,0,.5,0,.61-.12Q748.16,1.69,763-13.67c2.28-2.35,5.14-2.66,7.37-.74a4.93,4.93,0,0,1,.3,7.38C764.46-.58,758,5.62,751.82,12c-4.05,4.17-7.93,8.5-12.15,13Z" transform="translate(189.64 75.22)"/><path class="cls-1" d="M287.31,263.12c-11.8,0-19.72,8.78-19.72,21.81s7.92,21.8,19.72,21.8S307,298,307,284.93,299.12,263.12,287.31,263.12Z" transform="translate(189.64 75.22)"/><path class="cls-1" d="M321.31,153.61c0-13.42-7.4-22.36-18.35-22.36h-7.4V176H303C313.91,176,321.31,167,321.31,153.61Z" transform="translate(189.64 75.22)"/><path class="cls-1" d="M661.27,122.1c-2-6.3-3.72-12.77-6.34-18.82-1.11-2.55-4.19-4.27-6.46-6.27-3.87-3.39-9.81-4.47-13.59-2.39,7.16,10.62,16.28,19.34,25.57,27.9Z" transform="translate(189.64 75.22)"/><path class="cls-1" d="M722,206.89c-10.33,6.64-15.34,18.73-12.15,29.7,3.59,12.32,16.27,22.24,30.19,22.28,6.78-1.08,14.89-2.79,18.2-12.32a3.45,3.45,0,0,1,1.15-1.5c2.08-1.55,1.4-2.86-.1-4.39Q743,224.07,726.83,207.38C725.19,205.69,723.94,205.62,722,206.89Z" transform="translate(189.64 75.22)"/><path class="cls-1" d="M738.25,203l27.41,25.83C767.53,218.84,749.56,200.52,738.25,203Z" transform="translate(189.64 75.22)"/><path class="cls-1" d="M-189.64-75.22V393.54H917.43V-75.22ZM268.71-12.07a1.8,1.8,0,0,1,1.78-1.82h22.07a3.4,3.4,0,0,1,2.94,1.58l22.07,37.79V-12.07a1.89,1.89,0,0,1,1.78-1.82h22.58a1.84,1.84,0,0,1,1.92,1.82V68.25a1.82,1.82,0,0,1-1.92,1.7H319.86a3.52,3.52,0,0,1-2.68-1.58L295,30.58V68.25a1.82,1.82,0,0,1-1.92,1.7H270.49a1.78,1.78,0,0,1-1.78-1.7Zm-2.46,121a2.12,2.12,0,0,1,2-2h33c30.16,0,50.22,18.57,50.22,46.76,0,27.91-20.06,46.75-50.22,46.75h-33a2.12,2.12,0,0,1-2-2Zm-36.2-121a1.9,1.9,0,0,1,1.79-1.82h22.58a1.83,1.83,0,0,1,1.91,1.82V68.25a1.81,1.81,0,0,1-1.91,1.7H231.84a1.88,1.88,0,0,1-1.79-1.7Zm-6.9,121a2.11,2.11,0,0,1,2-2h25.18a2,2,0,0,1,2.13,2v89.57a2,2,0,0,1-2.13,1.9H225.14a2.09,2.09,0,0,1-2-1.9Zm-76.4-121a1.89,1.89,0,0,1,1.78-1.82h22.58A1.84,1.84,0,0,1,173-12.07V15.15l15.3-27.58a3.6,3.6,0,0,1,2.94-1.46h27.94c1,0,1.4.6.89,1.46L194.84,26.09,222,68.49c.64.85.13,1.46-.89,1.46h-29.6a3.52,3.52,0,0,1-2.68-1.46L173,38.12V68.25a1.82,1.82,0,0,1-1.92,1.7H148.53a1.87,1.87,0,0,1-1.78-1.7Zm-87.52,0A1.81,1.81,0,0,1,61-13.89H83.08A3.4,3.4,0,0,1,86-12.31l22.07,37.79V-12.07a1.89,1.89,0,0,1,1.78-1.82h22.58a1.84,1.84,0,0,1,1.92,1.82V68.25a1.82,1.82,0,0,1-1.92,1.7H110.38a3.49,3.49,0,0,1-2.67-1.58L85.51,30.58V68.25A1.82,1.82,0,0,1,83.6,70H61a1.79,1.79,0,0,1-1.79-1.7Zm-38.65,0a1.89,1.89,0,0,1,1.78-1.82H44.94a1.83,1.83,0,0,1,1.91,1.82V68.25A1.81,1.81,0,0,1,44.94,70H22.36a1.87,1.87,0,0,1-1.78-1.7Zm-85.35,0A1.89,1.89,0,0,1-63-13.89h23.86a1.83,1.83,0,0,1,1.91,1.82V19.65h17.86V-12.07a1.81,1.81,0,0,1,1.79-1.82H6.28a1.83,1.83,0,0,1,1.91,1.82V68.25A1.81,1.81,0,0,1,6.28,70H-17.57a1.79,1.79,0,0,1-1.79-1.7V41H-37.22V68.25A1.81,1.81,0,0,1-39.13,70H-63a1.87,1.87,0,0,1-1.78-1.7Zm-80,0A1.89,1.89,0,0,1-143-13.89h68.63a1.63,1.63,0,0,1,1.79,1.7L-74.47,6.28a2.14,2.14,0,0,1-2,1.7h-19V68.25A1.79,1.79,0,0,1-97.31,70h-22.58a1.9,1.9,0,0,1-1.91-1.7V8H-143a1.78,1.78,0,0,1-1.78-1.7Zm81.48,251.6-2.16,20.85a2.4,2.4,0,0,1-2.3,1.92H-89.19v68a2,2,0,0,1-2,1.92h-25.48a2.15,2.15,0,0,1-2.16-1.92v-68h-23.9a2,2,0,0,1-2-1.92V239.67a2.14,2.14,0,0,1,2-2h77.46A1.83,1.83,0,0,1-63.28,239.53Zm-31-37.28c-30.3,0-50.5-19.51-50.5-48.64,0-29.41,20.2-48.93,50.5-48.93s50.5,19.52,50.5,48.93C-43.76,182.74-64,202.25-94.26,202.25ZM27.86,330.32a2,2,0,0,1-2.16,1.92H-1.22a2,2,0,0,1-2-1.92V299.6H-23.39v30.72a2,2,0,0,1-2.16,1.92H-52.47a2.12,2.12,0,0,1-2-1.92V239.67a2.14,2.14,0,0,1,2-2h26.92a2.07,2.07,0,0,1,2.16,2v35.8H-3.23v-35.8a2,2,0,0,1,2-2H25.7a2.07,2.07,0,0,1,2.16,2ZM7.18,202.25c-25.47,0-39-12.6-39.26-36.58V109.16a2.43,2.43,0,0,1,2.41-2.31H-5.2a2.35,2.35,0,0,1,2.42,2.31v59c0,6.23,3.7,9.89,10,9.89s10-3.66,10-9.76V109.16a2.44,2.44,0,0,1,2.42-2.31H44a2.34,2.34,0,0,1,2.42,2.31v56.51C46.44,189.65,32.93,202.25,7.18,202.25ZM113,330.32a2.15,2.15,0,0,1-2.16,1.92H43.85a2.85,2.85,0,0,1-2.3-2.06V239.53a1.77,1.77,0,0,1,2-1.91h65.51a2.19,2.19,0,0,1,2.3,1.91v20.71a2.11,2.11,0,0,1-2.3,2.06H71.49v10.83H102a1.69,1.69,0,0,1,1.88,1.79l-2,19.2a2.5,2.5,0,0,1-2.45,1.78H71.49v11.66H110.8a2,2,0,0,1,2.16,1.78Zm21.83-221.57-2.13,20.6a2.39,2.39,0,0,1-2.28,1.9H109.19v67.21a2,2,0,0,1-2,1.9H82a2.13,2.13,0,0,1-2.13-1.9V131.25H56.26a2,2,0,0,1-2-1.9V108.89a2.12,2.12,0,0,1,2-2H132.8A1.82,1.82,0,0,1,134.79,108.75ZM142.34,191l9-19.11c.43-1.36,1.42-1.76,2.56-1.09,6.54,3.53,14.37,6.1,19.77,6.51,4.56,0,7.54-2,7.54-5.15,0-8-40-7.59-40-37.13,0-18.16,14.37-30.22,36-30.22,10.1,0,22.91,3.93,31.87,9.76,1.14.68,1.56,1.76,1.14,2.44l-9,19.1c-.42,1.36-1.42,1.76-2.56,1.09-7-3.8-15.08-6.64-20.06-7.05-4.41,0-7.25,1.9-7.25,4.88,0,8,40.26,7.45,40.26,37.26,0,18-14.65,30.09-36.56,30.09-11.95,0-24.47-3.52-31.58-8.94C142.34,192.63,141.91,191.68,142.34,191Zm52.25,141.23H149a2,2,0,0,1-2-1.92V239.67a2.12,2.12,0,0,1,2-2h43.34c18.86,0,31.38,10.69,31.38,26.74,0,9.87-5,17.14-12.81,19.33,9.07,2.2,15,10.43,15,21.81C225.83,321.55,213.31,332.24,194.59,332.24Zm92.72,1.92c-30.66,0-51.11-19.75-51.11-49.23,0-29.76,20.45-49.51,51.11-49.51s51.11,19.75,51.11,49.51C338.42,314.41,318,334.16,287.31,334.16ZM433,330.05c.72,1.23-.15,2.19-1.59,2.19H401.34a4.26,4.26,0,0,1-3.31-2.19l-11.8-22.91-11.81,22.91a4.22,4.22,0,0,1-3.31,2.19H341c-1.44,0-2.3-1-1.58-2.19l25.77-45.12-25.77-45.12c-.72-1.23.14-2.19,1.58-2.19h30a4.26,4.26,0,0,1,3.31,2.19l12,24.27,11.95-24.27a4.22,4.22,0,0,1,3.31-2.19h29.94c1.44,0,2.31,1,1.59,2.19l-25.77,45.12Zm.25-131.59a2.12,2.12,0,0,1-2.13,1.9H365a2.86,2.86,0,0,1-2.28-2V108.75a1.77,1.77,0,0,1,2-1.9h64.72a2.17,2.17,0,0,1,2.28,1.9v20.46a2.1,2.1,0,0,1-2.28,2H392.3V142h30.16a1.66,1.66,0,0,1,1.85,1.76l-2,19a2.47,2.47,0,0,1-2.42,1.77H392.3V176h38.84a2,2,0,0,1,2.13,1.76Zm0-139.57a3.92,3.92,0,0,1-1.53,2.92c-7.65,6.2-19.39,9.84-31.63,9.84-27.56,0-45.93-17.5-45.93-43.74s18.37-43.75,45.93-43.75A54.66,54.66,0,0,1,426.9-8.79,1.85,1.85,0,0,1,428-6.6l-6.37,17.86a2,2,0,0,1-2.43,1A42,42,0,0,0,400.87,8c-11.73,0-19.64,8-19.64,19.93,0,12.15,7.91,20.17,19.64,20.17,4.72,0,7.91-.85,9.32-2.31V38.72H398.45c-1.15,0-1.91-.48-2-1.33l-1.66-16.77a1.81,1.81,0,0,1,2-2.07h34.57a1.9,1.9,0,0,1,1.91,1.7Zm438,257.86c-.15.59-.68,1.15-.67,1.72.21,9.12-4.77,15.85-10.22,22.36-.95,1.14-2,2.22-2.95,3.34a2.58,2.58,0,0,0-.26.76c.5.68,1.09,1.42,1.62,2.2a5.59,5.59,0,0,1-.59,7.52c-2.06,1.87-5.74,2.17-7.45-.15-2.35-3.17-4.6-2.71-7.83-1.69-15.51,4.88-33.43-.54-42.48-12.71-6.86-9.23-7.64-19.66-4.92-30.41a58.65,58.65,0,0,1,5.22-12.58c1.25-2.37,1.33-4-.5-5.88-1.24-1.28-2.27-2.77-3.91-4.79.49,4.91-2.26,4.66-5.27,4.66q-158.85,0-317.69.08h-4.62v-329H796.19v3.44q0,150,0,300.06a4.87,4.87,0,0,0,.43,2.71c4.22,5.58,8.56,11.07,12.92,16.65a97.74,97.74,0,0,1,8.16-5.71c13-7.27,28.5-5.05,40.68,5.69a42.19,42.19,0,0,1,14.1,25.74C872.79,312.65,871.76,314.76,871.3,316.75Z" transform="translate(189.64 75.22)"/><path class="cls-1" d="M808,332.8c6.28,9,19.67,13.21,32.17,9.86C829.64,329.29,819.35,316.19,809,303,802.83,312,802.5,324.93,808,332.8Z" transform="translate(189.64 75.22)"/><path class="cls-1" d="M775,241.78c1.86,2.43,3.91,4.71,5.89,7.05l.78-.24V180.31h-67c4.69,4.46,8.77,8.43,13,12.24a3.93,3.93,0,0,0,2.93.45c12.09-2.08,22.58,1.47,31.39,9.61,10.64,9.83,16.32,21.62,12.53,36.56A3.45,3.45,0,0,0,775,241.78Z" transform="translate(189.64 75.22)"/><path class="cls-1" d="M843.27,288c-9.06-4.07-17.5-2.91-25.25,3.52-1.93,1.59-1.82,2.65-.38,4.36,2.06,2.43,3.9,5,5.87,7.54,8.71,11.11,17.44,22.2,26.56,33.78,2-2.17,3.7-3.76,5-5.61,3-4.08,6.46-8,5.26-13.76-.2-1,.76-2.15,1-3.27.35-1.54,1.1-3.26.72-4.64A32.63,32.63,0,0,0,843.27,288Z" transform="translate(189.64 75.22)"/><path class="cls-1" d="M685.24,80.1q0,34.31,0,68.62a5.31,5.31,0,0,0,1.47,3.26c6.83,7.14,13.78,14.17,20.63,21.29a6.68,6.68,0,0,0,5.33,2.1c22-.07,44,0,66,0,1,0,2.05-.11,3.17-.18V78.8H685.4C685.32,79.47,685.24,79.79,685.24,80.1Zm17.24,76.78a73.19,73.19,0,0,1,7.94-9.82c6.29-6.75,12.77-13.33,19.27-20.08l-22-27.67c-.2-.25-.44-.46-.66-.69-2.39-2.54-2.63-5.27-.65-7.32s4.93-2,7.48.77c3,3.29,5.86,6.73,8.62,10.24,4.46,5.67,8.79,11.45,13.35,17.43,1-.89,1.7-1.46,2.31-2.13,6.44-7.07,12.74-14.27,19.34-21.19a114,114,0,0,1,11.32-10.19c2.58-2.07,5.3-1.45,6.92,1s.87,5-1.67,6.91a40.86,40.86,0,0,0-5.68,4.59c-8.55,9.3-17,18.73-25.66,28.34,6.28,7.62,12.65,15.39,19.09,23.11a13.56,13.56,0,0,0,2.62,1.74c2,1.45,2.94,3.35,2,5.8s-3,3.61-5.33,2.81a14.49,14.49,0,0,1-5.84-3.56c-3.83-4.12-7.31-8.55-10.89-12.9-2.7-3.27-5.32-6.6-8.27-10.28-3,3.25-5.47,6.13-8.12,8.88-4,4.21-8.24,8.28-12.26,12.51a46.73,46.73,0,0,0-4.81,5.88c-1.66,2.4-3.87,3.35-6.21,2.28A4.44,4.44,0,0,1,702.48,156.88Z" transform="translate(189.64 75.22)"/><path class="cls-1" d="M781,267.09c-3.54-5.49-8.06-10.35-12.43-15.76-6.93,10-15.65,16.51-27.64,17.33s-21.82-4-30.33-12.22c-14.82-14.32-18.06-41.3,6.11-58.42a6.36,6.36,0,0,0-.69-1q-8.26-8-16.54-15.92c-.44-.42-1-1-1.57-1-4.18-.08-8.37,0-12.47,0v96.11h96.32C781.58,272.81,782.41,269.23,781,267.09Z" transform="translate(189.64 75.22)"/><path class="cls-1" d="M623.9,98c-2.36,1.85-4.36,3.25-6.16,4.87-10.06,9-13,21.23-8.1,33.18a30.06,30.06,0,0,0,29.76,18.69c8.9-.6,16.17-4,19.81-13a4.51,4.51,0,0,0-1.08-5.62C646.38,124,633,113.26,623.9,98Z" transform="translate(189.64 75.22)"/><path class="cls-1" d="M685.44,168.06v7.15h7.12Z" transform="translate(189.64 75.22)"/></svg>