<svg id="Layer_1" data-name="Layer 1" xmlns="http://www.w3.org/2000/svg" viewBox="0 0 523.91 251.7"><defs><style>.cls-1{fill:#fff;}.cls-2{fill:red;}</style></defs><title>box &amp;amp; me 2.0</title><rect class="cls-1" width="523.91" height="251.7"/><path d="M249,57.05H435v2q0,85.22,0,170.43a2.74,2.74,0,0,0,.25,1.54c2.39,3.17,4.86,6.29,7.33,9.46a53.6,53.6,0,0,1,4.64-3.24c7.39-4.13,16.19-2.87,23.11,3.23a23.94,23.94,0,0,1,8,14.62c.17,1.07-.41,2.27-.68,3.4-.08.34-.38.66-.37,1,.11,5.18-2.72,9-5.81,12.7-.54.65-1.12,1.26-1.68,1.9a1.33,1.33,0,0,0-.14.43c.28.38.61.8.92,1.25a3.19,3.19,0,0,1-.34,4.27C469,281,467,281.21,466,279.9c-1.33-1.81-2.61-1.55-4.45-1-8.81,2.78-19-.3-24.12-7.21-3.9-5.25-4.35-11.18-2.8-17.28a33.72,33.72,0,0,1,3-7.15c.71-1.34.76-2.26-.28-3.33-.71-.73-1.29-1.58-2.22-2.72.28,2.78-1.29,2.64-3,2.64q-90.22,0-180.45,0c-.83,0-1.66,0-2.62,0Zm7.46,63.35h54.71V65.67H256.46Zm57.75,115.15H369V180.91H314.21Zm-3-57.54V123.32H256.45V178Zm60.88-54.71c-.05.38-.1.56-.1.73,0,13,0,26,0,39a3,3,0,0,0,.84,1.85c3.88,4.06,7.82,8,11.71,12.1a3.83,3.83,0,0,0,3,1.19c12.49,0,25,0,37.46,0,.59,0,1.17-.06,1.81-.1V123.3Zm54.76-2.89V65.63H372.05v54.78ZM369,65.64H314.23v54.77H369ZM311.2,180.88H256.46v54.7H311.2ZM369.11,178a36.59,36.59,0,0,1,0-4.34,6.72,6.72,0,0,0-2.3-6.09c-1.71-1.62-3.16-3.52-4.8-5.39-.8,1.22-1.35,2.23-2.06,3.11-4.63,5.75-10.88,7.38-17.83,6.53-8.91-1.1-15.17-6-18.42-14.37-3.18-8.17-1.87-15.82,4-22.44,1.66-1.87,3.81-3.31,5.67-5a2.34,2.34,0,0,0,.86-1.64,3.26,3.26,0,0,1,1.92-3.65c1.52-.85,2.74-.17,3.63,1a1.87,1.87,0,0,0,2.16.72c4-.69,8-.68,11.23,2,2.63,2.18,5.37,4.73,6.84,7.71,2.66,5.4,4.6,11.19,4,17.45,0,.41-.09.95.13,1.22,1.48,1.84,3,3.62,4.79,5.69V123.32H314.21V178Zm20.74,13a3.78,3.78,0,0,0-.4-.56q-4.69-4.53-9.39-9c-.25-.24-.59-.55-.89-.55-2.38-.05-4.76,0-7.09,0v54.59h54.71c-.12-1.93.36-4-.43-5.18a107.89,107.89,0,0,0-7.06-9c-3.94,5.66-8.89,9.38-15.7,9.84s-12.39-2.26-17.23-6.93C378,216.06,376.11,200.73,389.85,191ZM337.11,134.2c-1.34,1.06-2.47,1.85-3.5,2.77-5.71,5.14-7.39,12.06-4.6,18.85a17.11,17.11,0,0,0,16.91,10.62c5.05-.35,9.18-2.27,11.25-7.37a2.58,2.58,0,0,0-.61-3.19C349.88,149,342.29,142.87,337.11,134.2Zm65.95,91.37c3.85-.61,8.46-1.58,10.34-7a1.87,1.87,0,0,1,.65-.85c1.18-.88.8-1.63-.06-2.5q-9.24-9.42-18.42-18.9a1.83,1.83,0,0,0-2.76-.28c-5.86,3.77-8.71,10.64-6.89,16.87A18.32,18.32,0,0,0,403.06,225.57Zm23.24-5.7.44-.13V181H388.68c2.67,2.53,5,4.79,7.39,7a2.3,2.3,0,0,0,1.66.25,20.16,20.16,0,0,1,17.83,5.46c6.05,5.58,9.27,12.28,7.12,20.77a1.92,1.92,0,0,0,.27,1.48C424,217.25,425.17,218.54,426.3,219.87Zm39.27,50.18a40,40,0,0,0,2.88-3.19c1.69-2.31,3.66-4.53,3-7.81-.11-.56.44-1.22.58-1.86a6,6,0,0,0,.41-2.63,18.5,18.5,0,0,0-10.71-12.45c-5.14-2.32-9.94-1.66-14.34,2-1.09.91-1,1.51-.21,2.48,1.16,1.38,2.21,2.86,3.33,4.29ZM460,273.17l-17.71-22.53c-3.49,5.11-3.68,12.46-.56,16.93C445.24,272.67,452.84,275.07,460,273.17Zm-102.08-125,.47-.24c-1.17-3.58-2.11-7.25-3.6-10.69-.63-1.45-2.38-2.43-3.68-3.56-2.19-1.93-5.57-2.54-7.71-1.36C347.41,138.31,352.6,143.26,357.87,148.13Zm59.76,60.4c1.06-5.69-9.15-16.1-15.57-14.67Zm-41.52-30.48-4-4.05v4.05Z" transform="translate(36.95 -33.31)"/><path d="M281.06,86.37c3.9-5,7.65-9.91,11.42-14.77a11.35,11.35,0,0,1,1.08-1.22,2.88,2.88,0,1,1,4.3,3.83c-2,2.55-4.16,5-6.12,7.62-2.14,2.84-4.1,5.82-6.21,8.69a1.43,1.43,0,0,0,.09,2.18c2.53,2.58,5,5.26,7.55,7.79,3.59,3.51,7.1,7.08,9.58,11.5.39.71.92,1.74.67,2.33a4.38,4.38,0,0,1-2.17,2.47,3.22,3.22,0,0,1-2.9-1.07c-3.12-5.69-8.07-9.72-12.51-14.21-1.47-1.49-2.89-3-4.45-4.68-2.13,3.18-4.2,6.27-6.28,9.35-.84,1.25-1.7,2.5-2.59,3.71-1.34,1.82-3,2.23-4.48,1.14s-1.47-2.74-.27-4.5c3.05-4.49,6.06-9,9.16-13.46a1.84,1.84,0,0,0,0-2.53c-3.53-4.82-6.83-9.81-11.62-13.56a2.77,2.77,0,0,1-.34-4,2.73,2.73,0,0,1,4-.3c2.67,2.5,5.27,5.11,7.71,7.85C278.31,82.31,279.63,84.42,281.06,86.37Z" transform="translate(36.95 -33.31)"/><path d="M347.54,207.73c5.35,4.77,10.5,9.39,15.7,14a12.5,12.5,0,0,0,2.51,1.41,2.86,2.86,0,0,1,1.5,3.79c-.69,1.68-1.72,2.28-3.51,1.54a18.92,18.92,0,0,1-5-2.86c-3.9-3.33-7.62-6.86-11.4-10.32-1.06-1-2.09-2-3.29-3.15-4.6,6.18-11.22,10.67-15.14,17.56a2.85,2.85,0,1,1-5-2.73,116.88,116.88,0,0,1,7.16-9.28c2.84-3.27,6-6.31,9.05-9.54a18.17,18.17,0,0,0-1.25-1.38c-4.81-4.2-9.62-8.42-14.47-12.58-1.66-1.42-2.09-2.93-1-4.36s2.78-1.67,4.45-.29c5.35,4.41,10.62,8.9,16.33,13.71a7,7,0,0,1,.64-1.11c3.2-4,6.39-8,9.67-12a34.27,34.27,0,0,1,4-4.12,2.73,2.73,0,0,1,4,.45,3,3,0,0,1-.32,3.94C357.45,196,352.72,201.61,347.54,207.73Z" transform="translate(36.95 -33.31)"/><path d="M281.09,150c-4.58-4.31-8.91-8.43-13.3-12.48a20.59,20.59,0,0,0-3.07-2.2A2.9,2.9,0,0,1,267,130a11.13,11.13,0,0,1,3.2,2c4,3.65,8,7.39,11.93,11.1.88.82,1.77,1.62,3.15,2.88a10.52,10.52,0,0,1,1.09-1.77c4.93-5.15,9.85-10.3,14.86-15.37a4.23,4.23,0,0,1,2.75-1.37,3.82,3.82,0,0,1,2.46,1.72c.81,1.22.14,2.41-.82,3.39-3.29,3.37-6.6,6.72-9.87,10.11-2,2-3.89,4.12-6,6.36,1.18.86,2.29,1.64,3.37,2.46,4.43,3.34,8.88,6.66,13.26,10.06,1.67,1.3,1.89,2.88.86,4.27s-2.89,1.45-4.61.13c-5.49-4.23-11-8.41-17.08-13a10.76,10.76,0,0,1-1.11,1.83q-6.63,7.06-13.32,14.08c-1.57,1.64-3.33,1.8-4.6.56s-1.14-2.92.46-4.61Z" transform="translate(36.95 -33.31)"/><path d="M400.81,154.51c-1.68,1.84-3.11,3.48-4.61,5-2.3,2.39-4.68,4.7-7,7.1A28.21,28.21,0,0,0,386.5,170c-.94,1.37-2.2,1.91-3.52,1.3a2.52,2.52,0,0,1-1.23-3.64,40.79,40.79,0,0,1,4.5-5.59c3.58-3.83,7.26-7.56,10.95-11.4l-12.51-15.72c-.11-.14-.25-.26-.37-.39-1.36-1.44-1.5-3-.37-4.16s2.8-1.14,4.25.44c1.7,1.87,3.33,3.83,4.89,5.82,2.54,3.22,5,6.5,7.59,9.9.55-.51,1-.83,1.31-1.21,3.66-4,7.23-8.11,11-12a66.8,66.8,0,0,1,6.44-5.79,2.5,2.5,0,0,1,3.92.55c.89,1.32.5,2.84-.94,3.92a24.24,24.24,0,0,0-3.23,2.61c-4.86,5.29-9.64,10.64-14.57,16.1,3.56,4.33,7.18,8.74,10.84,13.12a7.6,7.6,0,0,0,1.49,1A2.58,2.58,0,0,1,418,168.1a2.33,2.33,0,0,1-3,1.6,8.36,8.36,0,0,1-3.32-2c-2.17-2.33-4.15-4.86-6.18-7.32C404,158.49,402.49,156.6,400.81,154.51Z" transform="translate(36.95 -33.31)"/><path d="M399.17,97.66c-4.17,4-8.27,7.7-12.16,11.65a24,24,0,0,0-3.38,5,2.87,2.87,0,0,1-3.42,1.67,2.44,2.44,0,0,1-2-3.11,13.14,13.14,0,0,1,2.41-5c3.19-3.52,6.69-6.77,10.05-10.14,1.49-1.48,3-3,4.64-4.65L380.43,78.23c-.25-.25-.54-.48-.79-.74-1.4-1.44-1.49-3.22-.25-4.5a3,3,0,0,1,4.37,0c2.65,2.48,5.23,5,7.78,7.59s4.92,5.14,7.37,7.7c.14,0,.29,0,.35-.07q8.43-8.7,16.83-17.44a2.9,2.9,0,0,1,4.19-.42,2.8,2.8,0,0,1,.17,4.19c-3.5,3.67-7.15,7.19-10.68,10.82-2.3,2.37-4.5,4.83-6.9,7.41l16.25,17.12c.29.3.61.59.9.89,1.46,1.58,1.53,3.37.19,4.65s-3,1.2-4.49-.3q-5.46-5.56-10.8-11.22C403,101.91,401.17,99.83,399.17,97.66Z" transform="translate(36.95 -33.31)"/><path d="M362,94.09a22.13,22.13,0,0,1-2.75,11.3c-4.25,7.44-13,10.55-22,7.88-13.9-4.12-19.55-17.84-12.89-31.27A21.78,21.78,0,0,1,334,71.8a9.45,9.45,0,0,1,3.24-.42c.39,0,.84.13,1.19,0a12.33,12.33,0,0,1,8.15.46C356.65,75.4,361.88,83,362,94.09Zm-5.71.32c-.1-1.13-.16-2.16-.28-3.18-.88-7.41-5.41-12.58-12.65-14.25-1.13-.25-2.42.2-3.64.31-.7.06-1.56.37-2.08.08-1.11-.61-1.83-.1-2.61.48a18.88,18.88,0,0,0-6.87,10.36c-2.7,9.41,1.82,17.24,11.29,19.68,8.17,2.11,14.77-1.88,16.44-10C356.16,96.73,356.2,95.51,356.32,94.41Z" transform="translate(36.95 -33.31)"/><path d="M262.57,206.64c0-4.17.54-8.27,2.65-11.89,1.25-2.13,2.79-4.58,4.84-5.68,5.31-2.84,11.09-5,17.28-3.78a23.17,23.17,0,0,1,14.22,36.4c-5.62,7.94-15.41,10.44-25,6.23C267.33,223.88,262.6,216.78,262.57,206.64Zm5.56-.73c0,9.24,5.14,15.78,13.61,17.87,6.45,1.59,11.94-.4,15.47-5.72a18.17,18.17,0,0,0,2.71-14c-1.11-5.7-4.47-9.47-9.72-12-4.68-2.2-8.9-2.06-13.07,1a2.54,2.54,0,0,1-2,.46c-1.54-.6-2.37.26-3.21,1.21C268.9,198.12,268.34,202.28,268.13,205.91Z" transform="translate(36.95 -33.31)"/><path class="cls-2" d="M36.38,104.37v18.82h-3.8V104.71l-13.72,1.38V96.92l13.72-1.38v-9.8h3.8v9.45l15.24-1.52v9.18Z" transform="translate(36.95 -33.31)"/><path class="cls-2" d="M79.48,123.19V105.88c0-1.93-1.73-2.34-5.24-2.34-3.31,0-9.73,1.31-16.07,4.69v15h-3.8V79.74h3.8V99a49,49,0,0,1,20.07-5.11c2.82,0,5,1,5,3.38v25.93Z" transform="translate(36.95 -33.31)"/><path class="cls-2" d="M91.2,90.5V81.26H95V90.5Zm0,32.69V94.92H95v28.27Z" transform="translate(36.95 -33.31)"/><path class="cls-2" d="M128.17,123.19v-17a2.35,2.35,0,0,0-2.69-2.62,36.18,36.18,0,0,0-18.62,5.31v14.34h-3.8V94.92h3.8v4.82c5.45-3.1,12.2-5.86,20.14-5.86,2.75,0,5,1,5,3.38v25.93Z" transform="translate(36.95 -33.31)"/><path class="cls-2" d="M175.69,124.3l-32-11.31v10.2h-3.79V79.74h3.79v25.31l29.25-11,1.79,3.31-24.07,9.1,25.79,8.9v9Z" transform="translate(36.95 -33.31)"/><path class="cls-2" d="M13.1,162.05c0,12.28-13.79,17.87-26.76,17.87-6.28,0-10.76-2.83-10.76-11.18,0-12.13,12.62-18.48,26.21-18.48,8,0,11.31,2.35,11.31,11.73Zm-2.69-.2c0-1.52-3.31-2.69-8.9-2.69-12.48,0-23.31,6.34-23.31,9.24,0,1.65,4,2.62,8.76,2.62,10,0,23.45-5.86,23.45-9.1Z" transform="translate(36.95 -33.31)"/><path class="cls-2" d="M23,151v16.69c0,1.66.76,2.62,2.69,2.62a36,36,0,0,0,18.62-5V151h3.79v28.28H44.34V174.4a39.78,39.78,0,0,1-19.93,5.31c-3,0-5.17-2.07-5.17-4.41V151Z" transform="translate(36.95 -33.31)"/><path class="cls-2" d="M70.13,160.4v18.83H66.34V160.74l-13.72,1.38V153l13.72-1.38v-9.79h3.79v9.45l15.25-1.52v9.17Z" transform="translate(36.95 -33.31)"/><path class="cls-2" d="M119.79,158.74a82.27,82.27,0,0,0-12.07-.69c-8.35,0-17.1,1.87-17.1,3.18,0,.62,2.48.76,5.79.76a78.37,78.37,0,0,0,8.21-.56c2.48-.27,7-.55,8.41-.55,8.28,0,10.35,3.1,10.35,7.24,0,7.45-8.14,12.14-23.45,12.14a84.43,84.43,0,0,1-13.66-1.45V171H87a89,89,0,0,0,15,1.24c8.49,0,17.66-2.14,17.66-3.24,0-.76-2.62-.9-6.9-.9-2.27,0-5.45.28-7.93.56s-6.34.55-7.86.55c-7.72,0-9.59-2.62-9.59-6.76,0-7.73,10.83-12.55,24.35-12.55a54.31,54.31,0,0,1,8.76.69v8.13Z" transform="translate(36.95 -33.31)"/><path class="cls-2" d="M129.24,146.54v-9.25H133v9.25Zm0,32.69V151H133v28.28Z" transform="translate(36.95 -33.31)"/><path class="cls-2" d="M174.55,160.67v18.56h-3.8v-2.76c-4.55,2-11.38,3-16.34,3-8.62,0-14.9-3.17-14.9-11.93,0-12.27,12-17.52,25.38-17.52a37.39,37.39,0,0,1,5.86.49V135.78h3.8v15.58l1.1.42v9.45Zm-3.8-.89a30.11,30.11,0,0,0-6.62-.55c-11.72,0-22,4.89-22,7.79,0,1.45,5,3.38,13.11,3.38a50.05,50.05,0,0,0,15.51-2.9Z" transform="translate(36.95 -33.31)"/><path class="cls-2" d="M219.72,163.16c-5.86,1-27.59,4-34.9,4.76.69,1.51,5,3.17,11,3.17a56.72,56.72,0,0,0,19.31-3.59h.76v8.62a60.13,60.13,0,0,1-20.28,3.93c-8.27,0-15-2.89-15-11.44,0-11.66,11-18.62,25.38-18.62,9,0,12.69,3.31,13,9.51l.76-.14Zm-5.52-2.76c0-1.45-1.31-2.14-8.55-2.14-9.59,0-17,2.55-20.21,5.86Z" transform="translate(36.95 -33.31)"/><path class="cls-2" d="M-14.83,218.93v18.82h-3.79V219.27l-13.73,1.38v-9.17l13.73-1.38v-9.8h3.79v9.45L.41,208.23v9.18Z" transform="translate(36.95 -33.31)"/><path class="cls-2" d="M28.27,237.75V220.44c0-1.93-1.72-2.34-5.24-2.34-3.31,0-9.72,1.31-16.07,4.69v15H3.17V194.3H7v19.25A49.08,49.08,0,0,1,27,208.44c2.83,0,5,1,5,3.38v25.93Z" transform="translate(36.95 -33.31)"/><path class="cls-2" d="M77.38,221.68c-5.87,1-27.59,4-34.9,4.76.69,1.52,5,3.17,11,3.17A56.72,56.72,0,0,0,72.76,226h.75v8.62a60.12,60.12,0,0,1-20.27,3.93c-8.28,0-15-2.9-15-11.45,0-11.65,11-18.62,25.38-18.62,9,0,12.69,3.31,13,9.52l.76-.14Zm-5.52-2.75c0-1.45-1.31-2.14-8.55-2.14-9.59,0-17,2.55-20.21,5.86Z" transform="translate(36.95 -33.31)"/><path class="cls-2" d="M113.79,212.37a48.66,48.66,0,0,1,18.14-3.65c8.34,0,11.58,4.55,11.58,10.62,0,13.17-12.82,18.76-28.82,18.76a42,42,0,0,1-5.8-.28v-8.89H110V194.3h3.79Zm0,16.62h.69c10.41,0,26.28-2.89,26.28-8.82,0-1.31-2-2.28-9.38-2.28a49.54,49.54,0,0,0-17.59,3.59Z" transform="translate(36.95 -33.31)"/><path class="cls-2" d="M185.65,220.58c0,12.28-13.79,17.86-26.76,17.86-6.27,0-10.76-2.82-10.76-11.17,0-12.14,12.62-18.48,26.21-18.48,8,0,11.31,2.34,11.31,11.72Zm-2.69-.21c0-1.51-3.31-2.69-8.9-2.69-12.48,0-23.31,6.35-23.31,9.24,0,1.66,4,2.63,8.76,2.63,10,0,23.45-5.87,23.45-9.11Z" transform="translate(36.95 -33.31)"/><path class="cls-2" d="M226.89,238.24l-20.34-11.38-15.87,11.51-2.34-2.89,14.55-10.76c-4.34-2.48-8.69-4.9-13-7.38v-9h.75l19.45,11,15-11h.76v4.42l-12.07,8.76,13.86,7.72v9Z" transform="translate(36.95 -33.31)"/></svg>