<svg id="Layer_1" data-name="Layer 1" xmlns="http://www.w3.org/2000/svg" viewBox="0 0 1342.98 530.04"><defs><style>.cls-1{fill:#fff;}.cls-2{fill:#1a1a1a;}</style></defs><title>box &amp;amp; me 2.0</title><rect class="cls-1" width="1342.98" height="530.04"/><path class="cls-2" d="M111.55,592.52H503.8v4.12q0,179.75,0,359.49c0,1.1-.07,2.48.52,3.26,5,6.68,10.25,13.26,15.47,20,3.4-2.4,6.41-5,9.79-6.85,15.57-8.71,34.14-6,48.73,6.82a50.52,50.52,0,0,1,16.89,30.84c.35,2.26-.88,4.78-1.44,7.17-.17.71-.81,1.38-.8,2.06.25,10.93-5.72,19-12.24,26.79-1.14,1.37-2.37,2.66-3.54,4a3.56,3.56,0,0,0-.31.91c.61.81,1.31,1.7,2,2.63,2.1,3.06,1.8,6.72-.72,9s-6.87,2.61-8.92-.17c-2.81-3.8-5.51-3.25-9.38-2-18.58,5.86-40.05-.64-50.89-15.22-8.23-11.07-9.16-23.56-5.9-36.43a70,70,0,0,1,6.26-15.08c1.49-2.84,1.59-4.78-.6-7-1.49-1.54-2.73-3.32-4.68-5.74.58,5.88-2.72,5.58-6.32,5.58q-190.3,0-380.61.09h-5.54Zm15.73,133.63h115.4V610.7H127.28ZM249.09,969H364.64V853.77H249.09Zm-6.4-121.37V732.31H127.27V847.66ZM371.08,732.25c-.1.8-.2,1.18-.2,1.55q0,41.12.06,82.22a6.38,6.38,0,0,0,1.77,3.9c8.18,8.56,16.51,17,24.71,25.51a8,8,0,0,0,6.39,2.51c26.34-.09,52.68,0,79-.05,1.22,0,2.45-.13,3.8-.21V732.25Zm115.51-6.09V610.62H371.1V726.16ZM364.69,610.63H249.14V726.17H364.69ZM242.75,853.71H127.28V969.09H242.75Zm122.13-6a79.08,79.08,0,0,1,.07-9.16c.63-5.22-1-9.22-4.85-12.84-3.61-3.42-6.66-7.44-10.12-11.37-1.69,2.56-2.85,4.7-4.36,6.56C335.86,833,322.69,836.44,308,834.63c-18.79-2.31-32-12.71-38.85-30.29-6.7-17.24-4-33.38,8.43-47.34,3.51-4,8-7,12-10.58.93-.85,2-2.42,1.81-3.46-.61-3.77,1.07-6,4.06-7.7,3.2-1.8,5.77-.37,7.66,2.08,1.34,1.73,2.58,1.87,4.54,1.53,8.38-1.46,16.93-1.45,23.7,4.14,5.55,4.6,11.31,10,14.42,16.28,5.6,11.37,9.69,23.59,8.49,36.79-.08.86-.2,2,.26,2.57,3.12,3.88,6.38,7.63,10.1,12V732.3H249.1V847.68Zm43.75,27.39a8.27,8.27,0,0,0-.84-1.17q-9.89-9.55-19.81-19.07c-.53-.5-1.24-1.16-1.87-1.17-5-.1-10,0-14.95,0V968.75H486.55c-.24-4.07.75-8.36-.9-10.93-4.24-6.57-9.65-12.39-14.9-18.88-8.3,11.94-18.75,19.79-33.1,20.76s-26.15-4.78-36.35-14.63C383.55,927.91,379.66,895.59,408.63,875.07ZM297.39,755.25c-2.83,2.23-5.21,3.91-7.37,5.84-12.06,10.84-15.59,25.44-9.7,39.76A36,36,0,0,0,316,823.24c10.66-.72,19.37-4.79,23.73-15.53,1.13-2.76.79-4.58-1.29-6.73C324.33,786.37,308.32,773.53,297.39,755.25ZM436.5,948c8.13-1.3,17.84-3.34,21.81-14.76a4,4,0,0,1,1.37-1.79c2.5-1.86,1.68-3.43-.12-5.26q-19.49-19.87-38.85-39.88c-2-2-3.46-2.1-5.83-.58-12.36,7.95-18.37,22.43-14.54,35.58C404.63,936,419.83,947.93,436.5,948Zm49-12,.93-.28V853.86H406.18c5.62,5.34,10.51,10.1,15.57,14.66.75.68,2.38.74,3.51.55,14.49-2.5,27.05,1.75,37.61,11.51,12.75,11.78,19.55,25.9,15,43.8a4.14,4.14,0,0,0,.56,3.12C480.67,930.41,483.13,933.15,485.51,936Zm82.84,105.84a88,88,0,0,0,6.06-6.73c3.58-4.88,7.74-9.56,6.31-16.49-.25-1.16.9-2.57,1.21-3.91.43-1.84,1.32-3.9.87-5.55a39.09,39.09,0,0,0-22.59-26.26q-16.29-7.33-30.25,4.21c-2.31,1.9-2.17,3.18-.45,5.22,2.46,2.92,4.67,6,7,9Zm-11.87,6.57-37.34-47.51c-7.37,10.78-7.77,26.27-1.19,35.7C525.46,1047.32,541.51,1052.38,556.48,1048.36ZM341.18,784.63l1-.5c-2.46-7.55-4.45-15.31-7.6-22.56-1.32-3.05-5-5.11-7.74-7.5-4.63-4.07-11.75-5.36-16.27-2.87C319.13,763.92,330.06,774.36,341.18,784.63ZM467.24,912c2.23-12-19.3-33.95-32.85-30.94Zm-87.59-64.28-8.53-8.55v8.55Z" transform="translate(717.43 -563.5)"/><path class="cls-2" d="M179.18,654.35c8.21-10.63,16.14-20.89,24.08-31.14a25.23,25.23,0,0,1,2.28-2.57c2.59-2.52,6.09-2.71,8.57-.51s2.75,5.72.49,8.58c-4.26,5.39-8.76,10.59-12.9,16.08-4.51,6-8.66,12.26-13.09,18.32-1.29,1.75-1.37,3,.18,4.6,5.34,5.45,10.48,11.1,15.93,16.43,7.57,7.41,15,14.93,20.19,24.26.84,1.5,2,3.67,1.44,4.91-.88,2.09-2.65,4.63-4.59,5.22-1.72.52-5.28-.73-6.12-2.26-6.59-12-17-20.49-26.38-30-3.11-3.14-6.1-6.41-9.39-9.87-4.5,6.71-8.86,13.24-13.24,19.74-1.78,2.63-3.6,5.25-5.48,7.82-2.81,3.84-6.36,4.7-9.45,2.39-2.89-2.16-3.09-5.77-.56-9.48,6.43-9.47,12.79-19,19.32-28.4,1.39-2,1.35-3.38-.09-5.34-7.43-10.16-14.4-20.69-24.5-28.58a5.83,5.83,0,0,1-.72-8.52,5.77,5.77,0,0,1,8.52-.65c5.64,5.28,11.11,10.79,16.26,16.55C173.38,645.8,176.15,650.25,179.18,654.35Z" transform="translate(717.43 -563.5)"/><path class="cls-2" d="M319.39,910.35c11.28,10,22.14,19.8,33.11,29.43,1.49,1.31,3.51,2,5.3,3,3.25,1.73,4.49,4.83,3.18,8-1.47,3.55-3.63,4.82-7.41,3.26a39.29,39.29,0,0,1-10.51-6c-8.22-7-16.07-14.47-24-21.77-2.25-2.06-4.42-4.21-6.95-6.62-9.69,13-23.67,22.49-31.92,37A5.74,5.74,0,0,1,272,959c-2.89-1.55-4.4-5.3-2.38-8.18a242.83,242.83,0,0,1,15.11-19.58c6-6.9,12.56-13.3,19.08-20.13a38.15,38.15,0,0,0-2.62-2.89c-10.16-8.87-20.3-17.77-30.54-26.54-3.49-3-4.41-6.18-2.16-9.2s5.87-3.51,9.38-.62c11.28,9.3,22.41,18.79,34.45,28.93a13.2,13.2,0,0,1,1.34-2.34c6.76-8.45,13.48-16.93,20.4-25.25a70.82,70.82,0,0,1,8.55-8.68,5.76,5.76,0,0,1,8.48.93c2,2.52,1.59,5.65-.68,8.31C340.31,885.56,330.32,897.43,319.39,910.35Z" transform="translate(717.43 -563.5)"/><path class="cls-2" d="M179.23,788.55c-9.66-9.09-18.79-17.77-28-26.33a43.87,43.87,0,0,0-6.47-4.62c-2.92-1.85-4.08-4.89-2.79-7.86a6.05,6.05,0,0,1,7.62-3.34,22.8,22.8,0,0,1,6.75,4.16c8.48,7.7,16.79,15.6,25.17,23.41,1.85,1.73,3.74,3.42,6.65,6.08a21.47,21.47,0,0,1,2.3-3.73c10.38-10.86,20.77-21.72,31.33-32.42,1.48-1.5,3.9-3,5.8-2.89s4.08,1.93,5.2,3.62c1.71,2.58.3,5.1-1.73,7.16-7,7.1-13.92,14.17-20.82,21.31-4.16,4.3-8.21,8.7-12.66,13.43,2.48,1.81,4.83,3.45,7.12,5.18,9.34,7,18.73,14,28,21.23,3.52,2.74,4,6.07,1.8,9-2.28,3.07-6.09,3.08-9.71.29-11.6-8.92-23.26-17.75-36-27.48a22.69,22.69,0,0,1-2.35,3.86q-14,14.91-28.1,29.69c-3.3,3.45-7,3.79-9.69,1.18s-2.42-6.15,1-9.71C159.34,809.43,169.17,799.11,179.23,788.55Z" transform="translate(717.43 -563.5)"/><path class="cls-2" d="M431.75,798.08c-3.54,3.9-6.55,7.34-9.72,10.64-4.85,5-9.87,9.92-14.69,15a58.09,58.09,0,0,0-5.76,7c-2,2.88-4.64,4-7.44,2.73s-4.48-4.8-2.6-7.69A87.14,87.14,0,0,1,401.05,814c7.54-8.09,15.3-16,23.09-24-9-11.3-17.68-22.23-26.38-33.16-.24-.29-.53-.54-.8-.82-2.85-3-3.15-6.32-.78-8.77,2.52-2.61,5.91-2.42,9,.93,3.6,3.94,7,8.06,10.32,12.26,5.35,6.8,10.53,13.72,16,20.88,1.17-1.06,2-1.74,2.77-2.54,7.72-8.47,15.26-17.1,23.16-25.39A137,137,0,0,1,471,741.14c3.09-2.48,6.33-1.73,8.28,1.16s1,6-2,8.27a48.57,48.57,0,0,0-6.8,5.51c-10.25,11.14-20.34,22.43-30.74,33.95,7.51,9.12,15.15,18.44,22.87,27.68.77.93,2.11,1.36,3.14,2.09,2.44,1.74,3.51,4,2.36,7s-3.56,4.32-6.38,3.37a17.3,17.3,0,0,1-7-4.28c-4.59-4.92-8.76-10.24-13-15.44C438.44,806.48,435.29,802.49,431.75,798.08Z" transform="translate(717.43 -563.5)"/><path class="cls-2" d="M428.3,678.17c-8.8,8.37-17.45,16.25-25.66,24.57-2.95,3-5,6.94-7.13,10.64-1.7,3-4,4.31-7.21,3.52s-5.26-3.38-4.32-6.55c1.09-3.69,2.58-7.67,5.09-10.44,6.73-7.44,14.09-14.3,21.2-21.39L420,668.7l-31.26-31.5c-.54-.54-1.15-1-1.68-1.57-3-3-3.15-6.78-.52-9.5s6.27-2.76,9.22,0q8.35,7.83,16.4,16c5.27,5.34,10.38,10.84,15.55,16.26.29,0,.61,0,.74-.15q17.77-18.37,35.5-36.78c2.72-2.83,6.16-3.2,8.82-.89a5.89,5.89,0,0,1,.36,8.84c-7.38,7.73-15.07,15.16-22.51,22.82-4.86,5-9.51,10.19-14.57,15.63L470.38,704c.61.64,1.28,1.24,1.88,1.89,3.09,3.32,3.25,7.1.41,9.8s-6.37,2.52-9.48-.64c-7.66-7.81-15.23-15.72-22.78-23.65C436.39,687.13,432.5,682.76,428.3,678.17Z" transform="translate(717.43 -563.5)"/><path class="cls-2" d="M350,670.66c0,8.42-1.6,16.46-5.8,23.82-9,15.69-27.43,22.26-46.45,16.62-29.32-8.69-41.24-37.63-27.19-66,4.59-9.26,11.06-16.8,20.34-21.51,1.93-1,4.53-.67,6.82-.89.84-.08,1.77.29,2.52,0,5.88-1.94,11.58-1,17.18,1C338.6,631.22,349.64,647.15,350,670.66Zm-12,.66c-.2-2.39-.32-4.55-.58-6.7-1.87-15.64-11.41-26.55-26.69-30-2.39-.55-5.11.4-7.68.63-1.48.13-3.28.79-4.38.18-2.35-1.28-3.86-.22-5.51,1-7.44,5.54-12,13.07-14.5,21.85-5.68,19.85,3.85,36.36,23.82,41.52,17.24,4.44,31.15-4,34.67-21.07C337.57,676.21,337.65,673.64,337.91,671.32Z" transform="translate(717.43 -563.5)"/><path class="cls-2" d="M140.17,908c0-8.79,1.15-17.45,5.6-25.07,2.63-4.51,5.87-9.67,10.19-12,11.22-6,23.4-10.6,36.45-8,35.21,7.08,50.81,47.4,30,76.77-11.86,16.74-32.51,22-52.77,13.13C150.21,944.4,140.24,929.43,140.17,908Zm11.73-1.54c-.05,19.49,10.85,33.29,28.71,37.69,13.6,3.36,25.17-.83,32.63-12.06A38.24,38.24,0,0,0,219,902.59c-2.35-12-9.43-20-20.52-25.21-9.87-4.64-18.75-4.35-27.56,2.07-1.11.81-3.11,1.41-4.26,1-3.25-1.28-5,.53-6.78,2.54C153.51,890.07,152.34,898.85,151.9,906.5Z" transform="translate(717.43 -563.5)"/><path class="cls-2" d="M-599.9,594.93a2,2,0,0,1,2.22,2.11l-2.38,22.89a2.63,2.63,0,0,1-2.53,2.11h-23.55v74.7a2.2,2.2,0,0,1-2.21,2.1h-28a2.36,2.36,0,0,1-2.37-2.1V622h-26.24a2.2,2.2,0,0,1-2.21-2.11V597.19a2.35,2.35,0,0,1,2.21-2.26Z" transform="translate(717.43 -563.5)"/><path class="cls-2" d="M-500,594.93a2.27,2.27,0,0,1,2.37,2.26v99.55a2.24,2.24,0,0,1-2.37,2.1h-29.56a2.2,2.2,0,0,1-2.21-2.1V663h-22.14v33.74a2.25,2.25,0,0,1-2.37,2.1h-29.56a2.32,2.32,0,0,1-2.21-2.1V597.19a2.35,2.35,0,0,1,2.21-2.26h29.56a2.28,2.28,0,0,1,2.37,2.26V636.5h22.14V597.19a2.24,2.24,0,0,1,2.21-2.26Z" transform="translate(717.43 -563.5)"/><path class="cls-2" d="M-452.07,594.93a2.27,2.27,0,0,1,2.37,2.26v99.55a2.24,2.24,0,0,1-2.37,2.1h-28a2.32,2.32,0,0,1-2.21-2.1V597.19a2.35,2.35,0,0,1,2.21-2.26Z" transform="translate(717.43 -563.5)"/><path class="cls-2" d="M-343.61,594.93a2.28,2.28,0,0,1,2.37,2.26v99.55a2.25,2.25,0,0,1-2.37,2.1H-371a4.32,4.32,0,0,1-3.32-2l-27.51-46.83v46.69a2.25,2.25,0,0,1-2.37,2.1h-28a2.21,2.21,0,0,1-2.22-2.1V597.19a2.24,2.24,0,0,1,2.22-2.26h27.34a4.23,4.23,0,0,1,3.64,2l27.35,46.84V597.19a2.35,2.35,0,0,1,2.21-2.26Z" transform="translate(717.43 -563.5)"/><path class="cls-2" d="M-232.63,697c.79,1.06.16,1.81-1.1,1.81h-36.68a4.32,4.32,0,0,1-3.32-1.81l-19.6-37.64v37.35a2.25,2.25,0,0,1-2.37,2.1h-28a2.32,2.32,0,0,1-2.21-2.1V597.19a2.35,2.35,0,0,1,2.21-2.26h28a2.28,2.28,0,0,1,2.37,2.26v33.74l19-34.19a4.48,4.48,0,0,1,3.64-1.81h34.62c1.26,0,1.74.76,1.1,1.81l-31.3,47.74Z" transform="translate(717.43 -563.5)"/><path class="cls-2" d="M-192.46,594.93a2.28,2.28,0,0,1,2.37,2.26v99.55a2.25,2.25,0,0,1-2.37,2.1h-28a2.32,2.32,0,0,1-2.21-2.1V597.19a2.35,2.35,0,0,1,2.21-2.26Z" transform="translate(717.43 -563.5)"/><path class="cls-2" d="M-84,594.93a2.28,2.28,0,0,1,2.37,2.26v99.55a2.25,2.25,0,0,1-2.37,2.1h-27.35a4.32,4.32,0,0,1-3.32-2l-27.51-46.83v46.69a2.25,2.25,0,0,1-2.37,2.1h-28a2.2,2.2,0,0,1-2.21-2.1V597.19a2.23,2.23,0,0,1,2.21-2.26h27.35a4.23,4.23,0,0,1,3.63,2l27.35,46.84V597.19a2.35,2.35,0,0,1,2.22-2.26Z" transform="translate(717.43 -563.5)"/><path class="cls-2" d="M26.82,635.14a2.37,2.37,0,0,1,2.37,2.11v47.89a4.88,4.88,0,0,1-1.9,3.61c-9.48,7.68-24,12.2-39.2,12.2-34.15,0-56.92-21.68-56.92-54.21s22.77-54.22,56.92-54.22c11.69,0,24,3.32,33.2,8.74A2.3,2.3,0,0,1,22.71,604L14.8,626.11a2.45,2.45,0,0,1-3,1.2A52,52,0,0,0-11,622c-14.55,0-24.35,9.94-24.35,24.7,0,15.06,9.8,25,24.35,25,5.84,0,9.8-1.06,11.54-2.87v-8.73H-14c-1.42,0-2.37-.6-2.53-1.66l-2.05-20.78c-.16-1.5.79-2.56,2.53-2.56ZM1.52,666.62v0Z" transform="translate(717.43 -563.5)"/><path class="cls-2" d="M-624.58,844.05c-37.55,0-62.58-24.18-62.58-60.28,0-36.45,25-60.63,62.58-60.63S-562,747.32-562,783.77C-562,819.87-587,844.05-624.58,844.05Zm0-87c-14.45,0-24.15,10.75-24.15,26.71s9.7,26.7,24.15,26.7,24.16-10.75,24.16-26.7S-610.12,757.06-624.58,757.06Z" transform="translate(717.43 -563.5)"/><path class="cls-2" d="M-453.2,725.82a2.9,2.9,0,0,1,3,2.86v70c0,29.72-16.75,45.34-48.66,45.34-31.55,0-48.3-15.62-48.65-45.34v-70a3,3,0,0,1,3-2.86h30.33a2.9,2.9,0,0,1,3,2.86v73.05c0,7.73,4.59,12.26,12.34,12.26s12.34-4.53,12.34-12.09V728.68a3,3,0,0,1,3-2.86Z" transform="translate(717.43 -563.5)"/><path class="cls-2" d="M-343.18,725.82a2.25,2.25,0,0,1,2.46,2.36l-2.64,25.52a3,3,0,0,1-2.82,2.35h-26.27v83.3a2.46,2.46,0,0,1-2.47,2.35h-31.2a2.63,2.63,0,0,1-2.65-2.35v-83.3H-438a2.46,2.46,0,0,1-2.47-2.35V728.34a2.62,2.62,0,0,1,2.47-2.52Z" transform="translate(717.43 -563.5)"/><path class="cls-2" d="M-320.26,806.44c.53-1.69,1.77-2.19,3.18-1.35,8.11,4.37,17.8,7.56,24.5,8.06,5.64,0,9.35-2.51,9.35-6.38,0-9.91-49.54-9.4-49.54-46,0-22.51,17.8-37.45,44.6-37.45,12.52,0,28.38,4.87,39.49,12.09,1.41.84,1.94,2.18,1.41,3l-11.11,23.68c-.52,1.68-1.76,2.18-3.17,1.34-8.64-4.7-18.69-8.23-24.86-8.73-5.46,0-9,2.35-9,6,0,9.9,49.89,9.23,49.89,46.18,0,22.33-18.15,37.28-45.31,37.28-14.8,0-30.32-4.36-39.13-11.08-1.41-1-1.94-2.19-1.41-3Z" transform="translate(717.43 -563.5)"/><path class="cls-2" d="M-197.54,725.82a2.54,2.54,0,0,1,2.64,2.52v111a2.51,2.51,0,0,1-2.64,2.35h-31.21a2.59,2.59,0,0,1-2.47-2.35v-111a2.62,2.62,0,0,1,2.47-2.52Z" transform="translate(717.43 -563.5)"/><path class="cls-2" d="M-134.43,725.82c37.38,0,62.24,23,62.24,57.95,0,34.59-24.86,57.93-62.24,57.93h-40.9a2.62,2.62,0,0,1-2.47-2.52V728.34a2.62,2.62,0,0,1,2.47-2.52Zm2.12,85.66c13.58,0,22.74-11.09,22.74-27.71s-9.16-27.72-22.74-27.72h-9.17v55.43Z" transform="translate(717.43 -563.5)"/><path class="cls-2" d="M26.55,811.48a2.49,2.49,0,0,1,2.64,2.18v25.69a2.62,2.62,0,0,1-2.64,2.35h-82c-1.24,0-2.47-1.34-2.82-2.52v-111a2.18,2.18,0,0,1,2.46-2.36H24.43a2.69,2.69,0,0,1,2.82,2.36v25.35a2.58,2.58,0,0,1-2.82,2.52h-46v13.27H15.79a2.06,2.06,0,0,1,2.29,2.18L15.62,795a3.09,3.09,0,0,1-3,2.18h-34.2v14.28Z" transform="translate(717.43 -563.5)"/><path class="cls-2" d="M-588.68,869.13a2.27,2.27,0,0,1,2.5,2.38l-2.68,25.83a3,3,0,0,1-2.85,2.38h-26.58V984a2.49,2.49,0,0,1-2.5,2.38h-31.58A2.67,2.67,0,0,1-655,984v-84.3h-29.62a2.49,2.49,0,0,1-2.49-2.38V871.68a2.65,2.65,0,0,1,2.49-2.55Z" transform="translate(717.43 -563.5)"/><path class="cls-2" d="M-475.91,869.13a2.57,2.57,0,0,1,2.68,2.55V984a2.54,2.54,0,0,1-2.68,2.38h-33.36a2.49,2.49,0,0,1-2.5-2.38V946h-25V984a2.54,2.54,0,0,1-2.68,2.38h-33.36a2.63,2.63,0,0,1-2.5-2.38V871.68a2.65,2.65,0,0,1,2.5-2.55h33.36a2.57,2.57,0,0,1,2.68,2.55V916h25V871.68a2.52,2.52,0,0,1,2.5-2.55Z" transform="translate(717.43 -563.5)"/><path class="cls-2" d="M-370.45,955.81a2.53,2.53,0,0,1,2.67,2.21v26a2.66,2.66,0,0,1-2.67,2.38h-83c-1.25,0-2.5-1.36-2.85-2.55V871.51a2.21,2.21,0,0,1,2.5-2.38h81.18a2.72,2.72,0,0,1,2.85,2.38v25.66a2.62,2.62,0,0,1-2.85,2.55h-46.57v13.43h37.82a2.08,2.08,0,0,1,2.32,2.21l-2.5,23.79a3.09,3.09,0,0,1-3,2.21h-34.61v14.45Z" transform="translate(717.43 -563.5)"/><path class="cls-2" d="M-269.46,869.13c23.37,0,38.89,13.26,38.89,33.14,0,12.24-6.24,21.25-15.88,24,11.24,2.72,18.56,12.92,18.56,27,0,19.88-15.52,33.14-38.72,33.14h-56.56a2.49,2.49,0,0,1-2.49-2.38V871.68a2.64,2.64,0,0,1,2.49-2.55Zm-8.21,46.06c5.35,0,8.92-3.06,8.92-7.82s-3.57-7.82-8.92-7.82h-11.24v15.64Zm3.21,40.79c5.18,0,8.74-3.23,8.74-8.16s-3.56-8.16-8.74-8.16h-14.45V956Z" transform="translate(717.43 -563.5)"/><path class="cls-2" d="M-151.7,988.78c-38,0-63.34-24.48-63.34-61,0-36.89,25.34-61.36,63.34-61.36s63.34,24.47,63.34,61.36C-88.36,964.3-113.7,988.78-151.7,988.78Zm0-88c-14.63,0-24.44,10.88-24.44,27s9.81,27,24.44,27,24.44-10.88,24.44-27S-137.07,900.74-151.7,900.74Z" transform="translate(717.43 -563.5)"/><path class="cls-2" d="M28.87,983.68c.89,1.53-.18,2.72-2,2.72H-10.38a5.29,5.29,0,0,1-4.11-2.72L-29.12,955.3l-14.63,28.38a5.25,5.25,0,0,1-4.1,2.72H-85.14c-1.78,0-2.86-1.19-2-2.72l31.93-55.91L-87.1,871.85c-.9-1.53.18-2.72,2-2.72H-48a5.25,5.25,0,0,1,4.1,2.72l14.81,30.08,14.81-30.08a5.29,5.29,0,0,1,4.11-2.72H26.91c1.78,0,2.85,1.19,2,2.72L-3.07,927.77Z" transform="translate(717.43 -563.5)"/></svg>