<svg id="Layer_1" data-name="Layer 1" xmlns="http://www.w3.org/2000/svg" viewBox="0 0 400 164.87"><defs><style>.cls-1{fill:#fff;}.cls-2{fill:#1a1a1a;}.cls-3{fill:none;stroke:#1a1a1a;stroke-miterlimit:10;stroke-width:2px;}.cls-4{fill:red;}</style></defs><title>box &amp;amp; me 2.0</title><rect class="cls-1" width="400" height="164.87"/><path class="cls-2" d="M-83.22,870.18a.59.59,0,0,1,.65.61l-.69,6.65a.77.77,0,0,1-.74.62h-6.84v21.7a.64.64,0,0,1-.64.61h-8.13a.68.68,0,0,1-.69-.61v-21.7h-7.63a.64.64,0,0,1-.64-.62v-6.6a.68.68,0,0,1,.64-.66Z" transform="translate(125 -859.66)"/><path class="cls-2" d="M-54.18,870.18a.67.67,0,0,1,.69.66v28.92a.65.65,0,0,1-.69.61h-8.59a.64.64,0,0,1-.65-.61V890h-6.43v9.8a.65.65,0,0,1-.69.61h-8.58a.67.67,0,0,1-.65-.61V870.84a.69.69,0,0,1,.65-.66h8.58a.66.66,0,0,1,.69.66v11.42h6.43V870.84a.66.66,0,0,1,.65-.66Z" transform="translate(125 -859.66)"/><path class="cls-2" d="M-40.26,870.18a.67.67,0,0,1,.69.66v28.92a.65.65,0,0,1-.69.61h-8.13a.68.68,0,0,1-.65-.61V870.84a.69.69,0,0,1,.65-.66Z" transform="translate(125 -859.66)"/><path class="cls-2" d="M-8.75,870.18a.67.67,0,0,1,.69.66v28.92a.65.65,0,0,1-.69.61H-16.7a1.26,1.26,0,0,1-1-.57l-8-13.6v13.56a.65.65,0,0,1-.69.61h-8.13a.64.64,0,0,1-.65-.61V870.84a.66.66,0,0,1,.65-.66h7.94a1.22,1.22,0,0,1,1.06.57l8,13.61V870.84a.68.68,0,0,1,.64-.66Z" transform="translate(125 -859.66)"/><path class="cls-2" d="M23.5,899.85c.23.3.05.52-.32.52H12.52a1.26,1.26,0,0,1-1-.52l-5.7-10.94v10.85a.65.65,0,0,1-.69.61H-3a.67.67,0,0,1-.64-.61V870.84a.68.68,0,0,1,.64-.66H5.17a.66.66,0,0,1,.69.66v9.8l5.51-9.93a1.32,1.32,0,0,1,1.06-.53H22.49c.37,0,.5.22.32.53l-9.09,13.87Z" transform="translate(125 -859.66)"/><path class="cls-2" d="M35.17,870.18a.67.67,0,0,1,.69.66v28.92a.65.65,0,0,1-.69.61H27a.67.67,0,0,1-.64-.61V870.84a.68.68,0,0,1,.64-.66Z" transform="translate(125 -859.66)"/><path class="cls-2" d="M66.68,870.18a.67.67,0,0,1,.69.66v28.92a.65.65,0,0,1-.69.61h-8a1.26,1.26,0,0,1-1-.57l-8-13.6v13.56a.65.65,0,0,1-.69.61H41a.64.64,0,0,1-.65-.61V870.84a.66.66,0,0,1,.65-.66H48.9a1.22,1.22,0,0,1,1.06.57l7.95,13.61V870.84a.68.68,0,0,1,.64-.66Z" transform="translate(125 -859.66)"/><path class="cls-2" d="M98.88,881.86a.69.69,0,0,1,.69.62v13.91a1.41,1.41,0,0,1-.55,1.05A18.52,18.52,0,0,1,87.63,901c-9.92,0-16.54-6.3-16.54-15.76s6.62-15.75,16.54-15.75A19.68,19.68,0,0,1,97.28,872a.67.67,0,0,1,.41.79l-2.3,6.43a.71.71,0,0,1-.87.35,15.12,15.12,0,0,0-6.61-1.53,6.75,6.75,0,0,0-7.08,7.17c0,4.38,2.85,7.27,7.08,7.27,1.7,0,2.84-.31,3.35-.83v-2.54H87c-.41,0-.69-.18-.73-.48l-.6-6c0-.44.23-.75.74-.75ZM91.53,891v0Z" transform="translate(125 -859.66)"/><path class="cls-2" d="M-90.39,942.57c-10.91,0-18.18-7-18.18-17.52s7.27-17.62,18.18-17.62,18.19,7,18.19,17.62S-79.48,942.57-90.39,942.57Zm0-25.28c-4.2,0-7,3.12-7,7.76s2.81,7.76,7,7.76,7-3.13,7-7.76S-86.19,917.29-90.39,917.29Z" transform="translate(125 -859.66)"/><path class="cls-2" d="M-40.59,908.21a.84.84,0,0,1,.87.83v20.35c0,8.64-4.87,13.18-14.14,13.18S-67.9,938-68,929.39V909a.88.88,0,0,1,.87-.83h8.81a.85.85,0,0,1,.88.83v21.23a3.27,3.27,0,0,0,3.58,3.56,3.27,3.27,0,0,0,3.59-3.51V909a.88.88,0,0,1,.87-.83Z" transform="translate(125 -859.66)"/><path class="cls-2" d="M-8.62,908.21a.65.65,0,0,1,.71.69l-.77,7.41a.86.86,0,0,1-.82.69h-7.63v24.2a.72.72,0,0,1-.72.68h-9.06a.77.77,0,0,1-.77-.68V917h-8.5a.72.72,0,0,1-.72-.69V909a.77.77,0,0,1,.72-.74Z" transform="translate(125 -859.66)"/><path class="cls-2" d="M-2,931.64c.15-.49.51-.64.92-.39a20.27,20.27,0,0,0,7.12,2.34c1.64,0,2.71-.73,2.71-1.86,0-2.88-14.39-2.73-14.39-13.37,0-6.54,5.17-10.88,13-10.88A23,23,0,0,1,18.84,911c.4.24.56.63.4.87L16,918.75c-.16.49-.51.64-.92.39a21.27,21.27,0,0,0-7.23-2.53c-1.59,0-2.61.68-2.61,1.75,0,2.88,14.5,2.69,14.5,13.42,0,6.49-5.28,10.84-13.17,10.84-4.3,0-8.81-1.27-11.37-3.23-.41-.29-.56-.63-.41-.87Z" transform="translate(125 -859.66)"/><path class="cls-2" d="M33.69,908.21a.75.75,0,0,1,.77.74V941.2a.73.73,0,0,1-.77.68H24.63a.75.75,0,0,1-.72-.68V909a.77.77,0,0,1,.72-.74Z" transform="translate(125 -859.66)"/><path class="cls-2" d="M52,908.21c10.86,0,18.09,6.69,18.09,16.84S62.89,941.88,52,941.88H40.15a.76.76,0,0,1-.72-.73V909a.77.77,0,0,1,.72-.74Zm.62,24.89c3.94,0,6.61-3.22,6.61-8.05s-2.67-8-6.61-8H50v16.1Z" transform="translate(125 -859.66)"/><path class="cls-2" d="M98.8,933.1a.73.73,0,0,1,.77.63v7.47a.77.77,0,0,1-.77.68H75a1,1,0,0,1-.82-.73V908.9a.64.64,0,0,1,.72-.69H98.19a.79.79,0,0,1,.82.69v7.36a.76.76,0,0,1-.82.74H84.82v3.85H95.68a.6.6,0,0,1,.67.64l-.72,6.83a.89.89,0,0,1-.87.63H84.82v4.15Z" transform="translate(125 -859.66)"/><path class="cls-2" d="M-79.95,949.85a.66.66,0,0,1,.72.69l-.78,7.51a.86.86,0,0,1-.83.69h-7.72v24.5a.73.73,0,0,1-.73.69h-9.17a.78.78,0,0,1-.78-.69v-24.5h-8.61a.72.72,0,0,1-.72-.69v-7.46a.77.77,0,0,1,.72-.74Z" transform="translate(125 -859.66)"/><path class="cls-2" d="M-47.19,949.85a.75.75,0,0,1,.78.74v32.65a.74.74,0,0,1-.78.69h-9.69a.73.73,0,0,1-.73-.69V972.17h-7.26v11.07a.74.74,0,0,1-.77.69h-9.7a.76.76,0,0,1-.72-.69V950.59a.77.77,0,0,1,.72-.74h9.7a.75.75,0,0,1,.77.74v12.89h7.26V950.59a.74.74,0,0,1,.73-.74Z" transform="translate(125 -859.66)"/><path class="cls-2" d="M-16.55,975a.73.73,0,0,1,.78.64v7.56a.78.78,0,0,1-.78.69h-24.1a1,1,0,0,1-.83-.74V950.54a.64.64,0,0,1,.72-.69h23.59a.79.79,0,0,1,.83.69V958a.76.76,0,0,1-.83.74H-30.7v3.9h11c.47,0,.73.35.67.64l-.72,6.92a.91.91,0,0,1-.88.64H-30.7V975Z" transform="translate(125 -859.66)"/><path class="cls-2" d="M12.8,949.85c6.79,0,11.3,3.85,11.3,9.63,0,3.56-1.82,6.17-4.62,7,3.27.79,5.4,3.76,5.4,7.86,0,5.77-4.51,9.63-11.25,9.63H-2.81a.72.72,0,0,1-.72-.69V950.59a.77.77,0,0,1,.72-.74Zm-2.39,13.39a2.29,2.29,0,1,0,0-4.55H7.15v4.55Zm.93,11.85a2.38,2.38,0,1,0,0-4.74H7.15v4.74Z" transform="translate(125 -859.66)"/><path class="cls-2" d="M47,984.62c-11,0-18.4-7.11-18.4-17.73S36,949.06,47,949.06s18.41,7.11,18.41,17.83S58.06,984.62,47,984.62ZM47,959c-4.25,0-7.1,3.16-7.1,7.85s2.85,7.85,7.1,7.85,7.11-3.16,7.11-7.85S51.26,959,47,959Z" transform="translate(125 -859.66)"/><path class="cls-2" d="M99.48,983.14c.26.44,0,.79-.57.79H88.07a1.56,1.56,0,0,1-1.19-.79l-4.25-8.25-4.25,8.25a1.56,1.56,0,0,1-1.19.79H66.35c-.52,0-.83-.35-.57-.79l9.28-16.25-9.28-16.25c-.26-.44,0-.79.57-.79H77.14a1.56,1.56,0,0,1,1.19.79l4.3,8.74,4.3-8.74a1.56,1.56,0,0,1,1.2-.79H98.91c.52,0,.83.35.57.79L90.2,966.89Z" transform="translate(125 -859.66)"/><rect class="cls-3" x="242.39" y="86.58" width="38.38" height="38.38"/><rect class="cls-3" x="319.15" y="86.58" width="38.38" height="38.38"/><rect class="cls-3" x="280.77" y="86.58" width="38.38" height="38.38"/><rect class="cls-3" x="242.39" y="9.82" width="38.38" height="38.38"/><rect class="cls-3" x="280.77" y="9.82" width="38.38" height="38.38"/><rect class="cls-3" x="319.15" y="9.82" width="38.38" height="38.38"/><rect class="cls-3" x="242.39" y="48.2" width="38.38" height="38.38"/><rect class="cls-3" x="280.77" y="48.2" width="38.38" height="38.38"/><rect class="cls-3" x="319.15" y="48.2" width="38.38" height="38.38"/><path class="cls-2" d="M148.84,903.38c-3.3-2.76-9.36-10.3-12.66-13.06-2.85,2.67-8.07,9.9-10.92,12.57l-1.47-1.11,11-13-10.12-10.65,1.87-3.52h.62l10.48,10.83,9.94-11.5h.67v2.36c-2.32,2.19-6.87,8.43-9.23,10.66l10.34,10.74v5.66Z" transform="translate(125 -859.66)"/><path class="cls-2" d="M187.22,980.14c-3.3-2.77-9.36-10.3-12.66-13.06-2.86,2.67-8.07,9.89-10.92,12.57l-1.47-1.12,11-13-10.12-10.65,1.87-3.52h.62L176,962.22l9.94-11.5h.67v2.36c-2.32,2.19-6.87,8.43-9.23,10.65l10.34,10.75v5.66Z" transform="translate(125 -859.66)"/><path class="cls-2" d="M148.84,941.76c-3.3-2.76-9.36-10.3-12.66-13.06-2.85,2.67-8.07,9.89-10.92,12.57l-1.47-1.12,11-13-10.12-10.65,1.87-3.52h.62l10.48,10.83,9.94-11.5h.67v2.36c-2.32,2.19-6.87,8.43-9.23,10.66l10.34,10.74v5.66Z" transform="translate(125 -859.66)"/><path class="cls-2" d="M225.6,941.76c-3.3-2.76-9.37-10.3-12.66-13.06-2.86,2.67-8.07,9.89-10.92,12.57l-1.48-1.12,11-13-10.11-10.65,1.87-3.52h.62l10.48,10.83,9.94-11.5H225v2.36c-2.32,2.19-6.87,8.43-9.23,10.66l10.34,10.74v5.66Z" transform="translate(125 -859.66)"/><path class="cls-2" d="M225.6,903.38c-3.3-2.76-9.37-10.3-12.66-13.06-2.86,2.67-8.07,9.9-10.92,12.57l-1.48-1.11,11-13-10.11-10.65,1.87-3.52h.62l10.48,10.83,9.94-11.5H225v2.36c-2.32,2.19-6.87,8.43-9.23,10.66l10.34,10.74v5.66Z" transform="translate(125 -859.66)"/><path class="cls-4" d="M187.75,924.06c0,11.1-8.07,17.7-17.32,17.7-5.33,0-8.26-3.66-8.26-11.46,0-9.36,6.43-18,17.62-18,6.17,0,8,4.9,8,11.68Zm-1.48-.44c0-4.15-2-6.69-6.44-6.69-10.7,0-16.18,8.43-16.18,13.42,0,4.72,2.25,6.82,7.23,6.82,8.69,0,15.39-6.87,15.39-13.51Z" transform="translate(125 -859.66)"/><path class="cls-4" d="M149.37,962.44c0,11.1-8.07,17.7-17.32,17.7-5.33,0-8.26-3.66-8.26-11.46,0-9.36,6.43-18,17.63-18,6.16,0,8,4.9,8,11.68Zm-1.48-.44c0-4.15-2-6.69-6.44-6.69-10.7,0-16.18,8.42-16.18,13.42,0,4.72,2.25,6.82,7.24,6.82,8.68,0,15.38-6.87,15.38-13.51Z" transform="translate(125 -859.66)"/><path class="cls-4" d="M187.75,885.68c0,11.1-8.07,17.7-17.32,17.7-5.33,0-8.26-3.65-8.26-11.46,0-9.36,6.43-18,17.62-18,6.17,0,8,4.9,8,11.68Zm-1.48-.44c0-4.15-2-6.69-6.44-6.69-10.7,0-16.18,8.43-16.18,13.42,0,4.72,2.25,6.82,7.23,6.82,8.69,0,15.39-6.87,15.39-13.51Z" transform="translate(125 -859.66)"/><path class="cls-4" d="M226.13,962.44c0,11.1-8.07,17.7-17.32,17.7-5.33,0-8.27-3.66-8.27-11.46,0-9.36,6.44-18,17.63-18,6.17,0,8,4.9,8,11.68Zm-1.48-.44c0-4.15-2-6.69-6.44-6.69-10.7,0-16.18,8.42-16.18,13.42,0,4.72,2.25,6.82,7.23,6.82,8.68,0,15.39-6.87,15.39-13.51Z" transform="translate(125 -859.66)"/><path class="cls-4" d="M258.54,997c0,11.1-8.07,17.69-17.32,17.69-5.33,0-8.26-3.65-8.26-11.45,0-9.36,6.43-18,17.63-18,6.16,0,8,4.91,8,11.68Zm-1.48-.45c0-4.14-2-6.68-6.44-6.68-10.69,0-16.18,8.42-16.18,13.41,0,4.73,2.25,6.82,7.24,6.82,8.68,0,15.38-6.86,15.38-13.5Z" transform="translate(125 -859.66)"/><line class="cls-4" x1="285.87" y1="52.9" x2="383.1" y2="150.13"/><polyline class="cls-4" points="285.4 53.38 382.62 150.6 383.57 149.66 286.35 52.43"/></svg>