<?xml version="1.0" encoding="utf-8"?>
<!-- Generator: Adobe Illustrator 24.2.0, SVG Export Plug-In . SVG Version: 6.00 Build 0)  -->
<svg version="1.1" id="Layer_1" xmlns="http://www.w3.org/2000/svg" xmlns:xlink="http://www.w3.org/1999/xlink" x="0px" y="0px"
	 viewBox="0 0 522 522" style="enable-background:new 0 0 522 522;" xml:space="preserve">
<style type="text/css">
	.st0{fill:#F2F2F2;}
	.st1{fill:#6D6E71;}
	.st2{fill:#8DC63F;}
	.st3{fill:#ABD371;}
	.st4{fill:none;stroke:#949294;stroke-width:0.7055;}
</style>
<g>
	<circle class="st0" cx="261" cy="261" r="252"/>
	<g>
		<path class="st1" d="M152.1,197.7c-22.5-13.3-48.9-14.2-71.3-4.9l110,65C188.1,233.7,174.6,211,152.1,197.7L152.1,197.7z"/>
		<path class="st2" d="M56.7,208.3c-5.4,5.1-10.2,10.9-14.1,17.6c-22.4,38-9.8,87,28.2,109.5c3.7,2.2,7.5,3.9,11.3,5.4l51.5-87.1
			L56.7,208.3L56.7,208.3z"/>
		<path class="st1" d="M112.4,346.4c27-0.3,53.2-14.3,67.9-39.2c4-6.7,6.7-13.7,8.6-20.9l-30.4-18L112.4,346.4L112.4,346.4z"/>
		<path class="st3" d="M254.5,346.1h2.4v-9h3l5.4,9h2.9l-5.7-9.2c1.6-0.2,2.8-0.8,3.7-1.7c0.9-0.9,1.3-2.1,1.3-3.5
			c0-1.2-0.2-2.2-0.7-2.9c-0.5-0.7-1.1-1.3-1.8-1.6c-0.8-0.4-1.6-0.6-2.6-0.7c-0.9-0.1-1.9-0.2-2.9-0.2h-5.1V346.1L254.5,346.1z
			 M256.9,328.3h3.3c0.6,0,1.2,0,1.7,0.1c0.6,0.1,1.1,0.2,1.5,0.5c0.5,0.2,0.8,0.6,1.1,1c0.3,0.4,0.4,1,0.4,1.7
			c0,0.8-0.2,1.5-0.6,1.9c-0.4,0.4-0.9,0.8-1.5,1c-0.6,0.2-1.2,0.3-1.9,0.4c-0.7,0-1.4,0.1-2,0.1h-2.1V328.3L256.9,328.3z
			 M277.4,346.1h13v-2.2h-10.7v-7.1h9.5v-2.2h-9.5v-6.3h10.2v-2.2h-12.5V346.1L277.4,346.1z M297.4,346.1h2.7l2.1-4.9h10l2,4.9h2.8
			l-8.5-19.9h-2.2L297.4,346.1L297.4,346.1z M311.2,339h-8.1l4.1-9.8h0.1L311.2,339L311.2,339z M325.2,346.1h11.5v-2.2h-9.1v-17.8
			h-2.4V346.1L325.2,346.1z M358.4,346.1h13v-2.2h-10.7v-7.1h9.5v-2.2h-9.5v-6.3h10.2v-2.2h-12.5V346.1L358.4,346.1z M392.1,328
			c-0.7-0.9-1.6-1.5-2.5-1.8c-0.9-0.3-2-0.5-3.1-0.5c-0.9,0-1.7,0.1-2.5,0.4c-0.8,0.2-1.5,0.6-2.2,1.1c-0.6,0.5-1.1,1.1-1.5,1.8
			c-0.4,0.7-0.6,1.5-0.6,2.5c0,0.8,0.1,1.5,0.4,2.1c0.3,0.6,0.6,1.1,1,1.5c0.4,0.4,1,0.8,1.6,1.1c0.6,0.3,1.3,0.5,2,0.8
			c0.9,0.3,1.7,0.6,2.3,0.8c0.7,0.2,1.2,0.5,1.6,0.8c0.4,0.3,0.8,0.6,1,1c0.2,0.4,0.3,0.9,0.3,1.5c0,0.6-0.1,1.1-0.4,1.5
			c-0.3,0.4-0.6,0.8-1,1.1c-0.4,0.3-0.9,0.5-1.4,0.7c-0.5,0.2-1,0.2-1.5,0.2c-0.9,0-1.7-0.2-2.5-0.6c-0.8-0.4-1.4-0.9-1.8-1.7
			l-2,1.7c0.3,0.5,0.7,0.9,1.2,1.3c0.5,0.3,1,0.6,1.5,0.8c0.5,0.2,1.1,0.4,1.7,0.5c0.6,0.1,1.2,0.2,1.7,0.2c0.9,0,1.8-0.1,2.6-0.4
			c0.8-0.2,1.6-0.6,2.2-1.1c0.6-0.5,1.2-1.1,1.6-1.8c0.4-0.7,0.6-1.6,0.6-2.6c0-1-0.2-1.8-0.5-2.4c-0.3-0.6-0.8-1.2-1.3-1.6
			c-0.6-0.4-1.2-0.8-1.9-1.1c-0.7-0.3-1.5-0.5-2.2-0.8c-0.8-0.2-1.5-0.5-2-0.7c-0.5-0.2-1-0.5-1.3-0.8c-0.3-0.3-0.5-0.6-0.7-0.9
			c-0.1-0.3-0.2-0.7-0.2-1.2c0-0.6,0.1-1.1,0.4-1.5c0.2-0.4,0.6-0.8,1-1c0.4-0.3,0.9-0.5,1.4-0.6c0.5-0.1,1-0.2,1.5-0.2
			c0.7,0,1.4,0.1,2.1,0.4c0.7,0.3,1.2,0.8,1.6,1.4L392.1,328L392.1,328z M415.4,326.1h-15.6v2.2h6.6v17.8h2.4v-17.8h6.6V326.1
			L415.4,326.1z M418.9,346.1h2.7l2.1-4.9h10l2,4.9h2.8l-8.5-19.9h-2.2L418.9,346.1L418.9,346.1z M432.7,339h-8.1l4.1-9.8h0.1
			L432.7,339L432.7,339z M457.5,326.1H442v2.2h6.6v17.8h2.4v-17.8h6.6V326.1L457.5,326.1z M465.9,346.1h13v-2.2h-10.7v-7.1h9.5v-2.2
			h-9.5v-6.3h10.2v-2.2h-12.5V346.1L465.9,346.1z"/>
		<path class="st1" d="M248.3,282.2h35.6c3.8,0,7.7-0.4,11.6-1.2c3.9-0.8,7.4-2.2,10.5-4c3.1-1.9,5.6-4.4,7.6-7.4
			c2-3.1,2.9-6.9,2.9-11.5c0-2.8-0.5-5.4-1.3-7.9c-0.9-2.5-2.2-4.6-3.9-6.4c-1.7-1.8-3.7-3.4-6-4.5c-2.3-1.2-4.9-2-7.8-2.4v-0.2
			c4.5-1.4,8.1-3.7,10.9-6.9c2.7-3.2,4.1-7.3,4.1-12.2c0-4.7-0.9-8.5-2.8-11.4c-1.9-2.9-4.3-5.1-7.4-6.7c-3-1.6-6.4-2.7-10.2-3.2
			c-3.8-0.5-7.6-0.8-11.4-0.8h-32.4V282.2L248.3,282.2z M267.4,211.5h13c1.5,0,3,0.1,4.5,0.4c1.6,0.3,2.9,0.8,4.2,1.4
			c1.2,0.7,2.2,1.6,3,2.8c0.8,1.2,1.2,2.7,1.2,4.5c0,1.7-0.3,3.2-1,4.4c-0.7,1.2-1.6,2.2-2.8,2.9c-1.1,0.7-2.4,1.3-3.9,1.6
			c-1.4,0.3-2.9,0.5-4.4,0.5h-13.9V211.5L267.4,211.5z M267.4,246.2h14.5c1.6,0,3.2,0.1,5,0.4c1.8,0.2,3.5,0.7,5,1.3
			c1.6,0.7,2.8,1.6,3.9,2.9c1,1.3,1.5,2.9,1.5,5c0,1.9-0.4,3.5-1.2,4.8c-0.8,1.3-1.8,2.4-3,3.2c-1.2,0.8-2.6,1.4-4.1,1.7
			c-1.5,0.3-3,0.5-4.5,0.5h-17.2V246.2L267.4,246.2z M344.6,282.2h19.1v-69.9h24.8v-16.9h-68.7v16.9h24.8V282.2L344.6,282.2z
			 M476.9,230.6h-34v17.7h15.6v14.1c-1.8,1-4.2,1.9-7.2,2.9c-3,0.9-6.6,1.4-10.8,1.4c-4.1,0-7.8-0.7-11.1-2.1
			c-3.3-1.4-6.2-3.3-8.5-5.8c-2.4-2.5-4.2-5.4-5.5-8.8c-1.3-3.4-1.9-7.1-1.9-11.2c0-4,0.6-7.7,1.9-11.2c1.3-3.4,3.1-6.4,5.5-8.9
			c2.4-2.5,5.2-4.4,8.5-5.8c3.3-1.4,7-2.1,11.1-2.1c4.9,0,9,0.7,12.3,2.1c3.3,1.4,6.2,3.4,8.8,6.1l13.5-14.7
			c-4.4-4.1-9.6-7-15.4-8.7c-5.8-1.7-12.3-2.5-19.2-2.5c-6.8,0-13.1,1.1-18.8,3.2c-5.7,2.1-10.7,5.2-14.8,9.1
			c-4.2,4-7.4,8.8-9.8,14.4c-2.3,5.6-3.5,11.9-3.5,18.9c0,7,1.2,13.3,3.5,18.9c2.3,5.6,5.6,10.5,9.8,14.4c4.2,4,9.1,7,14.8,9.1
			c5.7,2.1,12,3.2,18.8,3.2c6.4,0,12.6-0.7,18.8-2c6.1-1.3,12-3.4,17.7-6.4V230.6L476.9,230.6z"/>
		<line class="st4" x1="252" y1="298.7" x2="480.2" y2="298.7"/>
		<path class="st1" d="M482.7,184.3h1v-2.8h1.1l1.8,2.8h1.1l-1.9-2.9c1-0.1,1.7-0.6,1.7-1.8c0-1.3-0.7-1.9-2.3-1.9h-2.5V184.3
			L482.7,184.3z M483.7,178.6h1.3c0.7,0,1.5,0.1,1.5,1c0,1.1-0.9,1.1-1.8,1.1h-1V178.6L483.7,178.6z M479.3,181
			c0,3.2,2.6,5.6,5.6,5.6c3.1,0,5.6-2.4,5.6-5.6c0-3.2-2.6-5.6-5.6-5.6C481.8,175.4,479.3,177.8,479.3,181L479.3,181z M480.3,181
			c0-2.7,2-4.8,4.6-4.8c2.6,0,4.6,2.1,4.6,4.8c0,2.7-2.1,4.8-4.6,4.8C482.3,185.8,480.3,183.7,480.3,181L480.3,181z"/>
	</g>
</g>
</svg>
