<?xml version="1.0" encoding="utf-8"?>
<!-- Generator: Adobe Illustrator 24.2.0, SVG Export Plug-In . SVG Version: 6.00 Build 0)  -->
<svg version="1.1" id="Layer_1" xmlns="http://www.w3.org/2000/svg" xmlns:xlink="http://www.w3.org/1999/xlink" x="0px" y="0px"
	 viewBox="0 0 522 522" style="enable-background:new 0 0 522 522;" xml:space="preserve">
<style type="text/css">
	.st0{fill:#F2F2F2;}
	.st1{fill:#6D6E71;}
	.st2{fill:#8DC63F;}
	.st3{fill:#ABD371;}
	.st4{fill:none;stroke:#949294;stroke-width:0.7055;}
</style>
<g>
	<circle class="st0" cx="261" cy="261" r="216"/>
	<g>
		<path class="st1" d="M167.7,206.8c-19.3-11.4-41.9-12.2-61.1-4.2l94.3,55.7C198.5,237.6,187,218.2,167.7,206.8L167.7,206.8z"/>
		<path class="st2" d="M85.9,215.8c-4.6,4.3-8.7,9.4-12.1,15.1c-19.2,32.6-8.4,74.6,24.2,93.8c3.1,1.9,6.4,3.4,9.7,4.7l44.1-74.7
			L85.9,215.8L85.9,215.8z"/>
		<path class="st1" d="M133.6,334.2c23.1-0.3,45.6-12.2,58.2-33.6c3.4-5.7,5.8-11.7,7.4-17.9l-26.1-15.4L133.6,334.2L133.6,334.2z"
			/>
		<path class="st3" d="M255.5,333.9h2v-7.7h2.6l4.6,7.7h2.5l-4.9-7.9c1.3-0.2,2.4-0.7,3.1-1.5c0.8-0.8,1.1-1.8,1.1-3
			c0-1.1-0.2-1.9-0.6-2.5c-0.4-0.6-0.9-1.1-1.6-1.4c-0.6-0.3-1.4-0.5-2.2-0.6c-0.8-0.1-1.6-0.1-2.5-0.1h-4.4V333.9L255.5,333.9z
			 M257.5,318.7h2.9c0.5,0,1,0,1.5,0.1c0.5,0.1,0.9,0.2,1.3,0.4c0.4,0.2,0.7,0.5,1,0.9c0.2,0.4,0.4,0.9,0.4,1.5
			c0,0.7-0.2,1.3-0.5,1.6c-0.3,0.4-0.7,0.7-1.3,0.8c-0.5,0.2-1.1,0.3-1.7,0.3s-1.2,0-1.8,0h-1.8V318.7L257.5,318.7z M275,333.9h11.2
			V332h-9.2V326h8.1v-1.9h-8.1v-5.4h8.7v-1.9H275V333.9L275,333.9z M292.2,333.9h2.3l1.8-4.2h8.5l1.7,4.2h2.4l-7.3-17.1h-1.9
			L292.2,333.9L292.2,333.9z M304,327.8h-7l3.6-8.4h0L304,327.8L304,327.8z M316,333.9h9.9V332h-7.8v-15.2h-2V333.9L316,333.9z
			 M344.5,333.9h11.2V332h-9.2V326h8.1v-1.9h-8.1v-5.4h8.7v-1.9h-10.7V333.9L344.5,333.9z M373.4,318.4c-0.6-0.7-1.3-1.3-2.1-1.6
			c-0.8-0.3-1.7-0.4-2.6-0.4c-0.8,0-1.5,0.1-2.2,0.3c-0.7,0.2-1.3,0.5-1.9,0.9c-0.5,0.4-1,0.9-1.3,1.5c-0.3,0.6-0.5,1.3-0.5,2.1
			c0,0.7,0.1,1.3,0.3,1.8c0.2,0.5,0.5,0.9,0.9,1.3c0.4,0.4,0.8,0.7,1.3,0.9c0.5,0.2,1.1,0.5,1.7,0.7c0.8,0.3,1.4,0.5,2,0.7
			c0.6,0.2,1,0.4,1.4,0.7c0.4,0.2,0.6,0.5,0.8,0.9c0.2,0.3,0.3,0.8,0.3,1.3c0,0.5-0.1,0.9-0.3,1.3c-0.2,0.4-0.5,0.7-0.9,0.9
			c-0.4,0.2-0.8,0.4-1.2,0.6c-0.4,0.1-0.9,0.2-1.3,0.2c-0.7,0-1.4-0.2-2.1-0.5c-0.7-0.3-1.2-0.8-1.5-1.4l-1.7,1.4
			c0.3,0.4,0.6,0.8,1,1.1c0.4,0.3,0.8,0.5,1.3,0.7c0.5,0.2,0.9,0.3,1.4,0.4c0.5,0.1,1,0.1,1.5,0.1c0.8,0,1.5-0.1,2.2-0.3
			c0.7-0.2,1.4-0.5,1.9-0.9c0.6-0.4,1-0.9,1.3-1.6c0.3-0.6,0.5-1.4,0.5-2.2c0-0.8-0.1-1.5-0.4-2.1c-0.3-0.6-0.7-1-1.1-1.4
			c-0.5-0.4-1-0.7-1.6-0.9c-0.6-0.2-1.3-0.5-1.9-0.7c-0.7-0.2-1.2-0.4-1.7-0.6c-0.5-0.2-0.8-0.4-1.1-0.7c-0.3-0.2-0.5-0.5-0.6-0.8
			c-0.1-0.3-0.2-0.6-0.2-1c0-0.5,0.1-0.9,0.3-1.3c0.2-0.4,0.5-0.7,0.8-0.9c0.3-0.2,0.7-0.4,1.2-0.5c0.4-0.1,0.9-0.2,1.3-0.2
			c0.6,0,1.2,0.1,1.8,0.4c0.6,0.2,1,0.6,1.4,1.2L373.4,318.4L373.4,318.4z M393.4,316.8H380v1.9h5.7v15.2h2v-15.2h5.7V316.8
			L393.4,316.8z M396.4,333.9h2.3l1.8-4.2h8.5l1.7,4.2h2.4l-7.3-17.1h-1.9L396.4,333.9L396.4,333.9z M408.2,327.8h-7l3.6-8.4h0
			L408.2,327.8L408.2,327.8z M429.4,316.8h-13.3v1.9h5.7v15.2h2v-15.2h5.7V316.8L429.4,316.8z M436.7,333.9h11.2V332h-9.2V326h8.1
			v-1.9h-8.1v-5.4h8.7v-1.9h-10.7V333.9L436.7,333.9z"/>
		<path class="st1" d="M250.1,279.1h30.5c3.3,0,6.6-0.4,9.9-1.1c3.3-0.7,6.3-1.9,9-3.5c2.7-1.6,4.8-3.7,6.5-6.4
			c1.7-2.6,2.5-5.9,2.5-9.8c0-2.4-0.4-4.6-1.2-6.7c-0.8-2.1-1.9-3.9-3.3-5.5c-1.4-1.6-3.2-2.9-5.2-3.9c-2-1-4.2-1.7-6.7-2.1V240
			c3.9-1.2,7-3.2,9.3-5.9c2.3-2.8,3.5-6.3,3.5-10.5c0-4.1-0.8-7.3-2.4-9.8c-1.6-2.5-3.7-4.4-6.3-5.7c-2.6-1.4-5.5-2.3-8.8-2.7
			c-3.3-0.5-6.5-0.7-9.7-0.7h-27.8V279.1L250.1,279.1z M266.5,218.6h11.1c1.3,0,2.6,0.1,3.9,0.4c1.3,0.2,2.5,0.6,3.6,1.2
			c1.1,0.6,1.9,1.4,2.6,2.4c0.7,1,1,2.3,1,3.8c0,1.5-0.3,2.7-0.9,3.8c-0.6,1.1-1.4,1.9-2.4,2.5c-1,0.6-2.1,1.1-3.3,1.4
			c-1.2,0.3-2.5,0.4-3.7,0.4h-11.9V218.6L266.5,218.6z M266.5,248.3h12.4c1.3,0,2.8,0.1,4.3,0.3c1.5,0.2,3,0.6,4.3,1.2
			c1.3,0.6,2.4,1.4,3.3,2.5c0.9,1.1,1.3,2.5,1.3,4.3c0,1.6-0.3,3-1,4.1c-0.7,1.1-1.5,2-2.6,2.7c-1.1,0.7-2.2,1.2-3.5,1.5
			c-1.3,0.3-2.6,0.4-3.8,0.4h-14.7V248.3L266.5,248.3z M332.7,279.1h16.4v-60h21.2v-14.5h-58.9v14.5h21.2V279.1L332.7,279.1z
			 M446.1,235h-29.1v15.1h13.4v12.1c-1.5,0.8-3.6,1.7-6.2,2.5c-2.6,0.8-5.7,1.2-9.3,1.2c-3.5,0-6.7-0.6-9.5-1.8
			c-2.8-1.2-5.3-2.9-7.3-5c-2-2.1-3.6-4.7-4.7-7.6c-1.1-2.9-1.6-6.1-1.6-9.6c0-3.4,0.5-6.6,1.6-9.6c1.1-2.9,2.6-5.5,4.7-7.6
			c2-2.1,4.5-3.8,7.3-5c2.8-1.2,6-1.8,9.5-1.8c4.2,0,7.7,0.6,10.5,1.8c2.8,1.2,5.3,2.9,7.6,5.3l11.6-12.6c-3.8-3.5-8.2-6-13.2-7.4
			c-5-1.4-10.5-2.2-16.5-2.2c-5.8,0-11.2,0.9-16.1,2.7c-4.9,1.8-9.2,4.4-12.7,7.8c-3.6,3.4-6.4,7.5-8.4,12.4c-2,4.8-3,10.2-3,16.2
			c0,6,1,11.4,3,16.2c2,4.8,4.8,9,8.4,12.4c3.6,3.4,7.8,6,12.7,7.8c4.9,1.8,10.3,2.7,16.1,2.7c5.5,0,10.8-0.6,16.1-1.7
			c5.3-1.1,10.3-2.9,15.1-5.5V235L446.1,235z"/>
		<line class="st4" x1="253.3" y1="293.3" x2="448.9" y2="293.3"/>
		<path class="st1" d="M451.1,195.3h0.9v-2.4h0.9l1.5,2.4h0.9l-1.6-2.5c0.8-0.1,1.5-0.5,1.5-1.5c0-1.1-0.6-1.6-2-1.6h-2.1V195.3
			L451.1,195.3z M451.9,190.3h1.1c0.6,0,1.3,0.1,1.3,0.9c0,0.9-0.7,0.9-1.5,0.9h-0.9V190.3L451.9,190.3z M448.1,192.5
			c0,2.7,2.2,4.8,4.8,4.8c2.6,0,4.8-2.1,4.8-4.8c0-2.7-2.2-4.8-4.8-4.8C450.3,187.6,448.1,189.7,448.1,192.5L448.1,192.5z
			 M448.9,192.5c0-2.3,1.7-4.1,4-4.1c2.2,0,4,1.8,4,4.1c0,2.3-1.8,4.1-4,4.1C450.7,196.6,448.9,194.8,448.9,192.5L448.9,192.5z"/>
	</g>
</g>
</svg>
