<?xml version="1.0" encoding="utf-8"?>
<!-- Generator: Adobe Illustrator 24.2.0, SVG Export Plug-In . SVG Version: 6.00 Build 0)  -->
<svg version="1.1" id="Layer_1" xmlns="http://www.w3.org/2000/svg" xmlns:xlink="http://www.w3.org/1999/xlink" x="0px" y="0px"
	 viewBox="0 0 522 522" style="enable-background:new 0 0 522 522;" xml:space="preserve">
<style type="text/css">
	.st0{fill:#FFFFFF;}
	.st1{fill:#6D6E71;}
	.st2{fill:#8DC63F;}
	.st3{fill:none;stroke:#949294;stroke-width:2;}
</style>
<g>
	<rect x="45" y="45" class="st0" width="432" height="432"/>
	<g>
		<path class="st1" d="M173.2,210c-18.2-10.7-39.4-11.5-57.5-4l88.8,52.4C202.2,239,191.4,220.7,173.2,210L173.2,210z"/>
		<path class="st2" d="M96.2,218.5c-4.3,4-8.2,8.8-11.4,14.2c-18.1,30.7-7.9,70.2,22.8,88.3c2.9,1.8,6,3.2,9.1,4.4l41.5-70.3
			L96.2,218.5L96.2,218.5z"/>
		<path class="st1" d="M141.1,329.9c21.7-0.3,42.9-11.5,54.8-31.6c3.2-5.4,5.5-11,7-16.8l-24.6-14.5L141.1,329.9L141.1,329.9z"/>
		<path class="st1" d="M255.8,329.6h1.9v-7.2h2.4l4.3,7.2h2.4l-4.6-7.4c1.2-0.2,2.3-0.7,2.9-1.4c0.8-0.8,1-1.7,1-2.8
			c0-1-0.2-1.8-0.6-2.4s-0.8-1-1.5-1.3c-0.6-0.3-1.3-0.5-2.1-0.6c-0.8-0.1-1.5-0.1-2.4-0.1h-4.1v16H255.8z M257.7,315.3h2.7
			c0.5,0,0.9,0,1.4,0.1c0.5,0.1,0.8,0.2,1.2,0.4c0.4,0.2,0.7,0.5,0.9,0.8c0.2,0.4,0.4,0.8,0.4,1.4c0,0.7-0.2,1.2-0.5,1.5
			c-0.3,0.4-0.7,0.7-1.2,0.8c-0.5,0.2-1,0.3-1.6,0.3s-1.1,0-1.7,0h-1.7V315.3L257.7,315.3z M274.2,329.6h10.5v-1.8h-8.7v-5.6h7.6
			v-1.8h-7.6v-5.1h8.2v-1.8h-10.1V329.6L274.2,329.6z M290.4,329.6h2.2l1.7-4h8l1.6,4h2.3l-6.9-16.1h-1.8L290.4,329.6L290.4,329.6z
			 M301.5,323.9h-6.6l3.4-7.9l0,0L301.5,323.9L301.5,323.9z M312.8,329.6h9.3v-1.8h-7.3v-14.3h-1.9L312.8,329.6L312.8,329.6z
			 M339.6,329.6h10.5v-1.8h-8.7v-5.6h7.6v-1.8h-7.6v-5.1h8.2v-1.8h-10.1V329.6L339.6,329.6z M366.8,315c-0.6-0.7-1.2-1.2-2-1.5
			c-0.8-0.3-1.6-0.4-2.4-0.4c-0.8,0-1.4,0.1-2.1,0.3c-0.7,0.2-1.2,0.5-1.8,0.8c-0.5,0.4-0.9,0.8-1.2,1.4c-0.3,0.6-0.5,1.2-0.5,2
			c0,0.7,0.1,1.2,0.3,1.7c0.2,0.5,0.5,0.8,0.8,1.2c0.4,0.4,0.8,0.7,1.2,0.8c0.5,0.2,1,0.5,1.6,0.7c0.8,0.3,1.3,0.5,1.9,0.7
			c0.6,0.2,0.9,0.4,1.3,0.7c0.4,0.2,0.6,0.5,0.8,0.8c0.2,0.3,0.3,0.8,0.3,1.2s-0.1,0.8-0.3,1.2c-0.2,0.4-0.5,0.7-0.8,0.8
			c-0.4,0.2-0.8,0.4-1.1,0.6c-0.4,0.1-0.8,0.2-1.2,0.2c-0.7,0-1.3-0.2-2-0.5c-0.7-0.3-1.1-0.8-1.4-1.3l-1.6,1.3
			c0.3,0.4,0.6,0.8,0.9,1c0.4,0.3,0.8,0.5,1.2,0.7s0.8,0.3,1.3,0.4c0.5,0.1,0.9,0.1,1.4,0.1c0.8,0,1.4-0.1,2.1-0.3
			c0.7-0.2,1.3-0.5,1.8-0.8c0.6-0.4,0.9-0.8,1.2-1.5c0.3-0.6,0.5-1.3,0.5-2.1c0-0.8-0.1-1.4-0.4-2s-0.7-0.9-1-1.3
			c-0.5-0.4-0.9-0.7-1.5-0.8c-0.6-0.2-1.2-0.5-1.8-0.7c-0.7-0.2-1.1-0.4-1.6-0.6s-0.8-0.4-1-0.7c-0.3-0.2-0.5-0.5-0.6-0.8
			c-0.1-0.3-0.2-0.6-0.2-0.9c0-0.5,0.1-0.8,0.3-1.2c0.2-0.4,0.5-0.7,0.8-0.8c0.3-0.2,0.7-0.4,1.1-0.5c0.4-0.1,0.8-0.2,1.2-0.2
			c0.6,0,1.1,0.1,1.7,0.4c0.6,0.2,0.9,0.6,1.3,1.1L366.8,315L366.8,315z M385.6,313.5H373v1.8h5.4v14.3h1.9v-14.3h5.4V313.5
			L385.6,313.5z M388.4,329.6h2.2l1.7-4h8l1.6,4h2.3l-6.9-16.1h-1.8L388.4,329.6L388.4,329.6z M399.6,323.9H393l3.4-7.9l0,0
			L399.6,323.9L399.6,323.9z M419.5,313.5H407v1.8h5.4v14.3h1.9v-14.3h5.4L419.5,313.5L419.5,313.5z M426.4,329.6h10.5v-1.8h-8.7
			v-5.6h7.6v-1.8h-7.6v-5.1h8.2v-1.8h-10.1V329.6L426.4,329.6z"/>
		<path class="st1" d="M250.7,278h28.7c3.1,0,6.2-0.4,9.3-1c3.1-0.7,5.9-1.8,8.5-3.3s4.5-3.5,6.1-6c1.6-2.4,2.4-5.6,2.4-9.2
			c0-2.3-0.4-4.3-1.1-6.3c-0.8-2-1.8-3.7-3.1-5.2c-1.3-1.5-3-2.7-4.9-3.7s-4-1.6-6.3-2v-0.1c3.7-1.1,6.6-3,8.8-5.6
			c2.2-2.6,3.3-5.9,3.3-9.9c0-3.9-0.8-6.9-2.3-9.2s-3.5-4.1-5.9-5.4c-2.4-1.3-5.2-2.2-8.3-2.5c-3.1-0.5-6.1-0.7-9.1-0.7h-26.2v70
			H250.7z M266.2,221.1h10.4c1.2,0,2.4,0.1,3.7,0.4c1.2,0.2,2.4,0.6,3.4,1.1c1,0.6,1.8,1.3,2.4,2.3c0.7,0.9,0.9,2.2,0.9,3.6
			s-0.3,2.5-0.8,3.6c-0.6,1-1.3,1.8-2.3,2.4c-0.9,0.6-2,1-3.1,1.3s-2.4,0.4-3.5,0.4h-11.2L266.2,221.1L266.2,221.1z M266.2,249h11.7
			c1.2,0,2.6,0.1,4,0.3c1.4,0.2,2.8,0.6,4,1.1s2.3,1.3,3.1,2.4c0.8,1,1.2,2.4,1.2,4c0,1.5-0.3,2.8-0.9,3.9s-1.4,1.9-2.4,2.5
			c-1,0.7-2.1,1.1-3.3,1.4c-1.2,0.3-2.4,0.4-3.6,0.4h-13.8L266.2,249L266.2,249z M328.5,278h15.4v-56.5h20v-13.6h-55.4v13.6h20
			L328.5,278L328.5,278z M435.2,236.5h-27.4v14.2h12.6v11.4c-1.4,0.8-3.4,1.6-5.8,2.4c-2.4,0.8-5.4,1.1-8.8,1.1
			c-3.3,0-6.3-0.6-8.9-1.7c-2.6-1.1-5-2.7-6.9-4.7c-1.9-2-3.4-4.4-4.4-7.2c-1-2.7-1.5-5.7-1.5-9c0-3.2,0.5-6.2,1.5-9
			c1-2.7,2.4-5.2,4.4-7.2c1.9-2,4.2-3.6,6.9-4.7c2.6-1.1,5.6-1.7,8.9-1.7c4,0,7.2,0.6,9.9,1.7c2.6,1.1,5,2.7,7.2,5l10.9-11.9
			c-3.6-3.3-7.7-5.6-12.4-7s-9.9-2.1-15.5-2.1c-5.5,0-10.5,0.8-15.2,2.5c-4.6,1.7-8.7,4.1-12,7.3c-3.4,3.2-6,7.1-7.9,11.7
			c-1.9,4.5-2.8,9.6-2.8,15.2s0.9,10.7,2.8,15.2c1.9,4.5,4.5,8.5,7.9,11.7c3.4,3.2,7.3,5.6,12,7.3s9.7,2.5,15.2,2.5
			c5.2,0,10.2-0.6,15.2-1.6c5-1,9.7-2.7,14.2-5.2V236.5L435.2,236.5z"/>
		<line class="st3" x1="253.8" y1="291.4" x2="437.9" y2="291.4"/>
		<path class="st1" d="M439.9,199.2h0.8v-2.3h0.8l1.4,2.3h0.8l-1.5-2.4c0.8-0.1,1.4-0.5,1.4-1.4c0-1-0.6-1.5-1.9-1.5h-2L439.9,199.2
			L439.9,199.2z M440.7,194.5h1c0.6,0,1.2,0.1,1.2,0.8c0,0.8-0.7,0.8-1.4,0.8h-0.8V194.5L440.7,194.5z M437.1,196.5
			c0,2.5,2.1,4.5,4.5,4.5c2.4,0,4.5-2,4.5-4.5s-2.1-4.5-4.5-4.5C439.2,191.9,437.1,193.9,437.1,196.5L437.1,196.5z M437.9,196.5
			c0-2.2,1.6-3.9,3.8-3.9c2.1,0,3.8,1.7,3.8,3.9s-1.7,3.9-3.8,3.9C439.6,200.4,437.9,198.7,437.9,196.5L437.9,196.5z"/>
	</g>
</g>
</svg>
