<?xml version="1.0" encoding="utf-8"?>
<!-- Generator: Adobe Illustrator 24.2.0, SVG Export Plug-In . SVG Version: 6.00 Build 0)  -->
<svg version="1.1" id="Layer_1" xmlns="http://www.w3.org/2000/svg" xmlns:xlink="http://www.w3.org/1999/xlink" x="0px" y="0px"
	 viewBox="0 0 522 522" style="enable-background:new 0 0 522 522;" xml:space="preserve">
<style type="text/css">
	.st0{fill:#E6E6E6;}
	.st1{fill:#6D6E71;}
	.st2{fill:#8DC63F;}
	.st3{fill:none;stroke:#949294;stroke-width:2;}
</style>
<g>
	<rect x="9" y="9" class="st0" width="504" height="504"/>
	<g>
		<path class="st1" d="M158.5,201.5c-21.2-12.5-46-13.4-67.1-4.6L195,258C192.4,235.3,179.7,214,158.5,201.5L158.5,201.5z"/>
		<path class="st2" d="M68.7,211.4c-5.1,4.7-9.6,10.3-13.3,16.6c-21.1,35.8-9.2,81.9,26.6,103c3.4,2.1,7,3.7,10.7,5.2l48.4-82
			L68.7,211.4L68.7,211.4z"/>
		<path class="st1" d="M121.1,341.4c25.4-0.3,50.1-13.4,63.9-36.9c3.7-6.3,6.4-12.8,8.1-19.7l-28.7-16.9L121.1,341.4L121.1,341.4z"
			/>
		<path class="st1" d="M255,341.1h2.2v-8.5h2.9l5.1,8.5h2.7l-5.4-8.7c1.4-0.2,2.6-0.8,3.4-1.6c0.9-0.9,1.2-2,1.2-3.3
			c0-1.2-0.2-2.1-0.7-2.7s-1-1.2-1.8-1.5c-0.7-0.3-1.5-0.5-2.4-0.7c-0.9-0.1-1.8-0.1-2.7-0.1h-4.8v18.7H255z M257.2,324.4h3.2
			c0.5,0,1.1,0,1.6,0.1c0.5,0.1,1,0.2,1.4,0.4c0.4,0.2,0.8,0.5,1.1,1c0.2,0.4,0.4,1,0.4,1.6c0,0.8-0.2,1.4-0.5,1.8
			c-0.3,0.4-0.8,0.8-1.4,0.9c-0.5,0.2-1.2,0.3-1.9,0.3c-0.7,0-1.3,0-2,0h-2V324.4L257.2,324.4z M276.4,341.1h12.3V339h-10.1v-6.6
			h8.9v-2.1h-8.9v-5.9h9.6v-2.1h-11.7V341.1L276.4,341.1z M295.3,341.1h2.5l2-4.6h9.3l1.9,4.6h2.6l-8-18.8h-2.1L295.3,341.1
			L295.3,341.1z M308.2,334.4h-7.7l4-9.2l0,0L308.2,334.4L308.2,334.4z M321.4,341.1h10.9V339h-8.6v-16.7h-2.2v18.8H321.4z
			 M352.7,341.1H365V339h-10.1v-6.6h8.9v-2.1h-8.9v-5.9h9.6v-2.1h-11.7V341.1L352.7,341.1z M384.4,324c-0.7-0.8-1.4-1.4-2.3-1.8
			c-0.9-0.3-1.9-0.4-2.9-0.4c-0.9,0-1.6,0.1-2.4,0.3c-0.8,0.2-1.4,0.5-2.1,1c-0.5,0.4-1.1,1-1.4,1.6c-0.3,0.7-0.5,1.4-0.5,2.3
			c0,0.8,0.1,1.4,0.3,2c0.2,0.5,0.5,1,1,1.4s0.9,0.8,1.4,1c0.5,0.2,1.2,0.5,1.9,0.8c0.9,0.3,1.5,0.5,2.2,0.8s1.1,0.4,1.5,0.8
			c0.4,0.2,0.7,0.5,0.9,1c0.2,0.3,0.3,0.9,0.3,1.4c0,0.5-0.1,1-0.3,1.4c-0.2,0.4-0.5,0.8-1,1c-0.4,0.2-0.9,0.4-1.3,0.7
			c-0.4,0.1-1,0.2-1.4,0.2c-0.8,0-1.5-0.2-2.3-0.5c-0.8-0.3-1.3-0.9-1.6-1.5l-1.9,1.5c0.3,0.4,0.7,0.9,1.1,1.2
			c0.4,0.3,0.9,0.5,1.4,0.8c0.5,0.2,1,0.3,1.5,0.4c0.5,0.1,1.1,0.1,1.6,0.1c0.9,0,1.6-0.1,2.4-0.3c0.8-0.2,1.5-0.5,2.1-1
			c0.7-0.4,1.1-1,1.4-1.8c0.3-0.7,0.5-1.5,0.5-2.4c0-0.9-0.1-1.6-0.4-2.3c-0.3-0.7-0.8-1.1-1.2-1.5c-0.5-0.4-1.1-0.8-1.8-1
			c-0.7-0.2-1.4-0.5-2.1-0.8c-0.8-0.2-1.3-0.4-1.9-0.7c-0.5-0.2-0.9-0.4-1.2-0.8c-0.3-0.2-0.5-0.5-0.7-0.9c-0.1-0.3-0.2-0.7-0.2-1.1
			c0-0.5,0.1-1,0.3-1.4c0.2-0.4,0.5-0.8,0.9-1c0.3-0.2,0.8-0.4,1.3-0.5c0.4-0.1,1-0.2,1.4-0.2c0.7,0,1.3,0.1,2,0.4
			c0.7,0.2,1.1,0.7,1.5,1.3L384.4,324L384.4,324z M406.4,322.3h-14.7v2.1h6.3v16.7h2.2v-16.7h6.3L406.4,322.3L406.4,322.3z
			 M409.7,341.1h2.5l2-4.6h9.3l1.9,4.6h2.6l-8-18.8h-2.1L409.7,341.1L409.7,341.1z M422.6,334.4H415l4-9.2l0,0L422.6,334.4
			L422.6,334.4z M445.9,322.3h-14.6v2.1h6.3v16.7h2.2v-16.7h6.3v-2.1H445.9z M453.9,341.1h12.3V339h-10.1v-6.6h8.9v-2.1h-8.9v-5.9
			h9.6v-2.1h-11.7V341.1L453.9,341.1z"/>
		<path class="st1" d="M249,280.9h33.5c3.6,0,7.2-0.4,10.9-1.2c3.6-0.8,6.9-2.1,9.9-3.8c3-1.8,5.3-4.1,7.1-7
			c1.9-2.9,2.7-6.5,2.7-10.8c0-2.6-0.4-5.1-1.3-7.4c-0.9-2.3-2.1-4.3-3.6-6s-3.5-3.2-5.7-4.3c-2.2-1.1-4.6-1.9-7.4-2.3v-0.1
			c4.3-1.3,7.7-3.5,10.2-6.5c2.5-3.1,3.8-6.9,3.8-11.5c0-4.5-0.9-8-2.6-10.8s-4.1-4.8-6.9-6.3c-2.9-1.5-6-2.5-9.7-3
			c-3.6-0.5-7.1-0.8-10.7-0.8h-30.5v81.7H249z M267,214.4h12.2c1.4,0,2.9,0.1,4.3,0.4c1.4,0.2,2.7,0.7,4,1.3
			c1.2,0.7,2.1,1.5,2.9,2.6c0.8,1.1,1.1,2.5,1.1,4.2s-0.3,3-1,4.2c-0.7,1.2-1.5,2.1-2.6,2.7c-1.1,0.7-2.3,1.2-3.6,1.5
			c-1.3,0.3-2.7,0.4-4.1,0.4H267L267,214.4L267,214.4z M267,247.1h13.6c1.4,0,3.1,0.1,4.7,0.3c1.6,0.2,3.3,0.7,4.7,1.3
			c1.4,0.7,2.6,1.5,3.6,2.7c1,1.2,1.4,2.7,1.4,4.7c0,1.8-0.3,3.3-1.1,4.5c-0.8,1.2-1.6,2.2-2.9,3c-1.2,0.8-2.4,1.3-3.8,1.6
			c-1.4,0.3-2.9,0.4-4.2,0.4H267L267,247.1L267,247.1z M339.7,280.9h18V215H381v-15.9h-64.7V215h23.3v65.9H339.7z M464.3,232.5h-32
			V249H447v13.3c-1.6,0.9-4,1.9-6.8,2.7c-2.9,0.9-6.3,1.3-10.2,1.3c-3.8,0-7.4-0.7-10.4-2c-3.1-1.3-5.8-3.2-8-5.5
			c-2.2-2.3-4-5.2-5.2-8.3c-1.2-3.2-1.8-6.7-1.8-10.5c0-3.7,0.5-7.2,1.8-10.5c1.2-3.2,2.9-6,5.2-8.3c2.2-2.3,4.9-4.2,8-5.5
			c3.1-1.3,6.6-2,10.4-2c4.6,0,8.5,0.7,11.5,2c3.1,1.3,5.8,3.2,8.3,5.8l12.7-13.8c-4.2-3.8-9-6.6-14.5-8.1s-11.5-2.4-18.1-2.4
			c-6.4,0-12.3,1-17.7,3c-5.4,2-10.1,4.8-13.9,8.6c-4,3.7-7,8.2-9.2,13.6c-2.2,5.3-3.3,11.2-3.3,17.8c0,6.6,1.1,12.5,3.3,17.8
			c2.2,5.3,5.3,9.9,9.2,13.6c4,3.7,8.6,6.6,13.9,8.6c5.4,2,11.3,3,17.7,3c6,0,11.9-0.7,17.7-1.9c5.8-1.2,11.3-3.2,16.6-6V232.5
			L464.3,232.5z"/>
		<line class="st3" x1="252.5" y1="296.5" x2="467.3" y2="296.5"/>
		<path class="st1" d="M469.8,188.9h1v-2.6h1l1.6,2.6h1l-1.8-2.7c0.9-0.1,1.6-0.5,1.6-1.6c0-1.2-0.7-1.8-2.2-1.8h-2.3L469.8,188.9
			L469.8,188.9z M470.6,183.4h1.2c0.7,0,1.4,0.1,1.4,1c0,1-0.8,1-1.6,1h-1V183.4L470.6,183.4z M466.5,185.8c0,3,2.4,5.3,5.3,5.3
			c2.9,0,5.3-2.3,5.3-5.3s-2.4-5.3-5.3-5.3C468.9,180.4,466.5,182.7,466.5,185.8L466.5,185.8z M467.3,185.8c0-2.5,1.9-4.5,4.4-4.5
			c2.4,0,4.4,2,4.4,4.5s-2,4.5-4.4,4.5C469.3,190.3,467.3,188.3,467.3,185.8L467.3,185.8z"/>
	</g>
</g>
</svg>
