<svg id="Layer_1" data-name="Layer 1" xmlns="http://www.w3.org/2000/svg" viewBox="0 0 35 30"><defs><style>.cls-1{fill:#fff;}.cls-2{fill:#6d6e71;}.cls-3{fill:#8dc340;}.cls-4{fill:#6f7072;}.cls-5{fill:#8ec540;}</style></defs><rect class="cls-1" width="35" height="30"/><path class="cls-2" d="M6.69,9l9.51,5.57a6.67,6.67,0,0,0-3.27-5.11A6.93,6.93,0,0,0,6.69,9Z" transform="translate(-2 -4.17)"/><path class="cls-2" d="M9.45,22.07l3.94-6.65L16,17A6.81,6.81,0,0,1,9.45,22.07Z" transform="translate(-2 -4.17)"/><path class="cls-3" d="M6.85,21.6l4.43-7.42L4.64,10.31a7.13,7.13,0,0,0-2,6.29A6.75,6.75,0,0,0,6.85,21.6Z" transform="translate(-2 -4.17)"/><line class="cls-2" x1="16.98" y1="13.33" x2="32.97" y2="13.33"/><rect class="cls-2" x="16.98" y="13.26" width="15.99" height="0.14"/><path class="cls-2" d="M36.5,10.63a.57.57,0,0,1-1.14,0,.57.57,0,0,1,1.14,0Zm-1,0a.44.44,0,0,0,.44.44.44.44,0,0,0,0-.88A.44.44,0,0,0,35.5,10.63Zm.34.29h-.12v-.55l.21,0a.38.38,0,0,1,.19,0,.17.17,0,0,1,.06.12.15.15,0,0,1-.12.13h0a.17.17,0,0,1,.1.13.93.93,0,0,0,0,.14h-.14s0-.07,0-.14,0-.08-.12-.08h-.06Zm0-.31h.06c.07,0,.13,0,.13-.08s0-.09-.12-.09h-.07Z" transform="translate(-2 -4.17)"/><path class="cls-2" d="M19,10.42h2.26a5.39,5.39,0,0,1,.8.06,2.27,2.27,0,0,1,.71.22,1.37,1.37,0,0,1,.52.46,1.42,1.42,0,0,1,.2.79,1.29,1.29,0,0,1-.29.85,1.66,1.66,0,0,1-.76.48h0a2,2,0,0,1,.55.17,1.63,1.63,0,0,1,.42.31,1.68,1.68,0,0,1,.27.45,1.61,1.61,0,0,1,.09.54,1.39,1.39,0,0,1-.21.79,1.47,1.47,0,0,1-.53.52,2.46,2.46,0,0,1-.73.28,4.45,4.45,0,0,1-.81.08H19Zm1.34,2.41h1a1.54,1.54,0,0,0,.3,0,.81.81,0,0,0,.27-.11.64.64,0,0,0,.2-.2.74.74,0,0,0,.07-.31.62.62,0,0,0-.08-.31.76.76,0,0,0-.21-.19,1.32,1.32,0,0,0-.3-.1,1.63,1.63,0,0,0-.31,0h-.91Zm0,2.48h1.2a1.63,1.63,0,0,0,.31,0,.74.74,0,0,0,.29-.12.63.63,0,0,0,.21-.22.67.67,0,0,0,.08-.33.51.51,0,0,0-.11-.35.66.66,0,0,0-.27-.19,1.29,1.29,0,0,0-.35-.1,2.11,2.11,0,0,0-.35,0h-1Z" transform="translate(-2 -4.17)"/><path class="cls-2" d="M25.72,11.6H24V10.42h4.81V11.6H27.06v4.83H25.72Z" transform="translate(-2 -4.17)"/><path class="cls-2" d="M35,16a5,5,0,0,1-1.24.44,6.26,6.26,0,0,1-1.31.14,3.72,3.72,0,0,1-1.31-.23,2.82,2.82,0,0,1-1-.63,2.78,2.78,0,0,1-.68-1,3.56,3.56,0,0,1,0-2.62,2.91,2.91,0,0,1,.68-1,3.12,3.12,0,0,1,1-.63,4,4,0,0,1,1.31-.22,4.67,4.67,0,0,1,1.34.18,2.6,2.6,0,0,1,1.08.59l-.94,1a2,2,0,0,0-.62-.42,2.17,2.17,0,0,0-.86-.15,2,2,0,0,0-.78.15,1.62,1.62,0,0,0-.59.4,1.58,1.58,0,0,0-.38.62,2.11,2.11,0,0,0-.14.77,2.21,2.21,0,0,0,.14.78,1.69,1.69,0,0,0,.38.61,1.76,1.76,0,0,0,.59.4,2,2,0,0,0,.78.14,2.88,2.88,0,0,0,.76-.09,4,4,0,0,0,.5-.2v-1H32.59V12.87H35Z" transform="translate(-2 -4.17)"/><path class="cls-3" d="M35,21.48H34.1l-1.64-.6a.07.07,0,0,1,0-.07.09.09,0,0,1,0-.06s0-.06,0-.06h0s0,0,0,0h0c-.06,0-.08-.06-.08-.08a.72.72,0,0,1,0-.18h0a.14.14,0,0,1,.08-.09l0,0a.25.25,0,0,0,0-.08.17.17,0,0,1,0-.12.17.17,0,0,1,.12-.09h0l0,0a1.6,1.6,0,0,1-.16-.23.25.25,0,0,1,0-.15h0a.14.14,0,0,0,0-.1.1.1,0,0,0,0-.06s0,0,0-.09a.13.13,0,0,1,0-.05.15.15,0,0,1,0-.08.23.23,0,0,1,0-.14h0a.15.15,0,0,1,.2,0l0,0h0v-.46H35Zm-.85-.11h.74V18.64h-2V19l0,.07s-.09,0-.18,0-.06,0-.06,0h0s0,0,0,.07v0a.2.2,0,0,1,0,.09v0h0l0,.09a.29.29,0,0,1,0,.19.23.23,0,0,0,0,.07l.15.21c.06.07.06.13.05.15s0,.06-.11.08a.07.07,0,0,0,0,0h0a0,0,0,0,0,0,0,.32.32,0,0,1,0,.13h0s0,.09-.09.11h0a.66.66,0,0,0,0,.13h0l.07.05h0a.09.09,0,0,1,0,.12l0,0s0,0,0,0h0l0,0Zm-1.66-.62Zm0,0Zm.17,0Zm-.08-.06Zm0,0h0Z" transform="translate(-2 -4.17)"/><path class="cls-3" d="M20.15,18.58h.26l1.14,2.67h-.28l-.3-.71H19.55l-.31.71H19Zm.12.27-.63,1.47h1.24Z" transform="translate(-2 -4.17)"/><path class="cls-3" d="M21.87,20v-.12c0-.05,0-.09,0-.14V19.6s0-.07,0-.09h.23c0,.06,0,.13,0,.19a.25.25,0,0,0,0,.11.88.88,0,0,1,.22-.25.62.62,0,0,1,.34-.1h.13l0,.22h-.08a.67.67,0,0,0-.26,0,.46.46,0,0,0-.18.13.44.44,0,0,0-.1.19.67.67,0,0,0,0,.24v.95h-.23Z" transform="translate(-2 -4.17)"/><path class="cls-3" d="M23.12,18.82a.17.17,0,0,1,.05-.12.15.15,0,0,1,.12-.05.17.17,0,0,1,.13.29.21.21,0,0,1-.13,0,.18.18,0,0,1-.12,0A.17.17,0,0,1,23.12,18.82Zm.06.69h.23v1.74h-.23Z" transform="translate(-2 -4.17)"/><path class="cls-3" d="M23.85,21.12l1.06-1.41h-1v-.2h1.32v.13l-1.06,1.41h1.1v.2H23.85Z" transform="translate(-2 -4.17)"/><path class="cls-3" d="M25.58,20.38a.9.9,0,0,1,.07-.37.81.81,0,0,1,.19-.29,1,1,0,0,1,.29-.19,1,1,0,0,1,.75,0,1,1,0,0,1,.29.19.81.81,0,0,1,.19.29,1,1,0,0,1,0,.74.81.81,0,0,1-.19.29,1,1,0,0,1-.29.19,1,1,0,0,1-.75,0,1,1,0,0,1-.29-.19.81.81,0,0,1-.19-.29A.9.9,0,0,1,25.58,20.38Zm.23,0a.66.66,0,0,0,.05.28.61.61,0,0,0,.13.22.73.73,0,0,0,.23.16.84.84,0,0,0,.29.05.82.82,0,0,0,.28-.05.73.73,0,0,0,.23-.16.61.61,0,0,0,.13-.22.81.81,0,0,0,0-.56.61.61,0,0,0-.13-.22.73.73,0,0,0-.23-.16.82.82,0,0,0-.28,0,.84.84,0,0,0-.29,0,.73.73,0,0,0-.23.16.61.61,0,0,0-.13.22A.66.66,0,0,0,25.81,20.38Z" transform="translate(-2 -4.17)"/><path class="cls-3" d="M27.94,20v-.12c0-.05,0-.09,0-.14V19.6a.34.34,0,0,1,0-.09h.23c0,.06,0,.13,0,.19a.25.25,0,0,0,0,.11h0a.58.58,0,0,1,.23-.24.65.65,0,0,1,.37-.11.62.62,0,0,1,.33.07.51.51,0,0,1,.21.17.54.54,0,0,1,.1.23,1.41,1.41,0,0,1,0,.28v1h-.23v-1a.71.71,0,0,0,0-.21.48.48,0,0,0-.06-.18.58.58,0,0,0-.14-.13.46.46,0,0,0-.22,0,.67.67,0,0,0-.24,0,.5.5,0,0,0-.19.13.61.61,0,0,0-.13.22,1,1,0,0,0,0,.32v.87h-.23Z" transform="translate(-2 -4.17)"/><path class="cls-3" d="M31.43,20.52v.23a1.15,1.15,0,0,0,0,.19v.16s0,.1,0,.15h-.21a1.23,1.23,0,0,1,0-.28h0a.75.75,0,0,1-.25.25.81.81,0,0,1-.37.08.78.78,0,0,1-.22,0,.61.61,0,0,1-.2-.09A.43.43,0,0,1,30,21a.54.54,0,0,1,0-.56.78.78,0,0,1,.26-.17,1.07,1.07,0,0,1,.32-.08h.56v-.11a.39.39,0,0,0-.14-.33.63.63,0,0,0-.35-.09.79.79,0,0,0-.54.19l-.13-.15a.73.73,0,0,1,.31-.18.92.92,0,0,1,.36-.07.81.81,0,0,1,.51.15.59.59,0,0,1,.19.48ZM31,20.38a1.27,1.27,0,0,0-.28,0,.84.84,0,0,0-.24.06.47.47,0,0,0-.18.12.29.29,0,0,0-.06.19.25.25,0,0,0,.13.24.31.31,0,0,0,.13.06.32.32,0,0,0,.14,0,.67.67,0,0,0,.3-.05.45.45,0,0,0,.19-.14.57.57,0,0,0,.1-.19,1.5,1.5,0,0,0,0-.22v-.11Z" transform="translate(-2 -4.17)"/><path class="cls-4" d="M6.72,27a.36.36,0,0,0-.11-.25.41.41,0,0,0-.26-.11.35.35,0,0,0-.14,0l-.11.08a.28.28,0,0,0-.08.11A.32.32,0,0,0,6,27v1a.1.1,0,0,1,0,.07.11.11,0,0,1-.08,0,.13.13,0,0,1-.08,0,.11.11,0,0,1,0-.08V27a.57.57,0,0,1,0-.22.52.52,0,0,1,.13-.17.36.36,0,0,1,.18-.12.64.64,0,0,1,.23-.05.53.53,0,0,1,.28.07.55.55,0,0,1,.2.17.55.55,0,0,1,.2-.17.53.53,0,0,1,.28-.07.59.59,0,0,1,.23.05.57.57,0,0,1,.18.12.46.46,0,0,1,.13.18.54.54,0,0,1,0,.22v1a.11.11,0,1,1-.22,0V27a.35.35,0,0,0,0-.14.28.28,0,0,0-.08-.11.26.26,0,0,0-.11-.07.35.35,0,0,0-.14,0,.4.4,0,0,0-.15,0,.26.26,0,0,0-.11.07.44.44,0,0,0-.08.11.35.35,0,0,0,0,.14v1a.09.09,0,0,1,0,.07s0,0-.08,0a.11.11,0,0,1-.08,0,.09.09,0,0,1,0-.07Z" transform="translate(-2 -4.17)"/><path class="cls-4" d="M9.77,28.66a.12.12,0,0,1,0,.08.1.1,0,0,1-.08,0,.12.12,0,0,1-.11-.11v-.79a1,1,0,0,1-.29.2.86.86,0,0,1-.36.07,1,1,0,0,1-.34-.06,1.27,1.27,0,0,1-.27-.18,1,1,0,0,1-.19-.27A.87.87,0,0,1,8,27.31v-.74a.11.11,0,0,1,.19-.08.13.13,0,0,1,0,.08v.74a.69.69,0,0,0,.05.24.66.66,0,0,0,.14.2.65.65,0,0,0,.7.13.82.82,0,0,0,.2-.12.85.85,0,0,0,.14-.19.86.86,0,0,0,.06-.23v-.76a.11.11,0,1,1,.22,0v2.08Z" transform="translate(-2 -4.17)"/><path class="cls-4" d="M19.72,27.34a.81.81,0,0,1,.06-.31,1.2,1.2,0,0,1,.18-.26,1,1,0,0,1,.27-.17.88.88,0,0,1,.32-.07.12.12,0,0,1,.09,0,.09.09,0,0,1,0,.08.08.08,0,0,1,0,.07.12.12,0,0,1-.09,0,.69.69,0,0,0-.24.05.91.91,0,0,0-.19.13.85.85,0,0,0-.14.19.62.62,0,0,0,0,.23v.73a.11.11,0,0,1,0,.07.1.1,0,0,1-.08,0,.09.09,0,0,1-.07,0,.11.11,0,0,1,0-.08Z" transform="translate(-2 -4.17)"/><path class="cls-4" d="M21.42,26.54a.88.88,0,0,1,.32.07.8.8,0,0,1,.27.18.83.83,0,0,1,.25.57.71.71,0,0,1-.07.32.72.72,0,0,1-.18.25.8.8,0,0,1-.27.18.94.94,0,0,1-.66,0,1,1,0,0,1-.27-.17.83.83,0,0,1-.25-.58.71.71,0,0,1,.07-.32.72.72,0,0,1,.18-.25,1.06,1.06,0,0,1,.27-.18,1.21,1.21,0,0,1,.34-.07m-.64.82a.59.59,0,0,0,0,.23.69.69,0,0,0,.13.2.86.86,0,0,0,.2.13.7.7,0,0,0,.25,0,.64.64,0,0,0,.24,0,.74.74,0,0,0,.21-.13A.8.8,0,0,0,22,27.6a.47.47,0,0,0,.05-.24.46.46,0,0,0-.05-.23.53.53,0,0,0-.13-.2.86.86,0,0,0-.2-.13.69.69,0,0,0-.25,0,.47.47,0,0,0-.24,0,.58.58,0,0,0-.2.13.62.62,0,0,0-.14.19.69.69,0,0,0,0,.24" transform="translate(-2 -4.17)"/><path class="cls-4" d="M22.43,26.64a.13.13,0,0,1,0-.07.09.09,0,0,1,.07,0,.11.11,0,0,1,.08,0,.11.11,0,0,1,0,.07v.73a.59.59,0,0,0,.05.23.64.64,0,0,0,.13.19.63.63,0,0,0,.2.13.53.53,0,0,0,.25,0,.64.64,0,0,0,.24,0,.77.77,0,0,0,.2-.13.56.56,0,0,0,.14-.2.59.59,0,0,0,.05-.23v-.72a.1.1,0,0,1,.11-.11.12.12,0,0,1,.11.11v.72a.88.88,0,0,1-.07.32.94.94,0,0,1-.18.25.8.8,0,0,1-.27.18,1,1,0,0,1-.33.06.88.88,0,0,1-.33-.06.91.91,0,0,1-.27-.18.83.83,0,0,1-.25-.57Z" transform="translate(-2 -4.17)"/><path class="cls-4" d="M25.18,28.19a.8.8,0,0,1-.36-.1,1.21,1.21,0,0,1-.28-.21v.81a.09.09,0,0,1,0,.07.13.13,0,0,1-.08,0,.11.11,0,0,1-.08,0,.09.09,0,0,1,0-.07V27.36a.88.88,0,0,1,.07-.32.79.79,0,0,1,.19-.25.65.65,0,0,1,.26-.17,1,1,0,0,1,.33-.06,1,1,0,0,1,.34.06,1.27,1.27,0,0,1,.27.18,1,1,0,0,1,.18.26.81.81,0,0,1,.06.31.71.71,0,0,1-.07.32.93.93,0,0,1-.18.26,1,1,0,0,1-.27.17.71.71,0,0,1-.32.07m-.64-.82a.53.53,0,0,0,.06.24.64.64,0,0,0,.13.19.63.63,0,0,0,.2.13.61.61,0,0,0,.24,0,.69.69,0,0,0,.25,0,.86.86,0,0,0,.2-.13.59.59,0,0,0,.13-.19.52.52,0,0,0,.05-.24.59.59,0,0,0,0-.23.72.72,0,0,0-.14-.2.66.66,0,0,0-.45-.18.64.64,0,0,0-.24,0,.53.53,0,0,0-.2.13.52.52,0,0,0-.14.19.6.6,0,0,0-.05.24" transform="translate(-2 -4.17)"/><path class="cls-4" d="M19.51,28.44a.54.54,0,0,0,0-.22.49.49,0,0,0,0-.21.57.57,0,0,0-.12-.18.78.78,0,0,0,.12-.22.75.75,0,0,0,0-.26.78.78,0,0,0-.07-.31,1,1,0,0,0-.18-.26A.8.8,0,0,0,19,26.6a.71.71,0,0,0-.32-.07.93.93,0,0,0-.62.25.94.94,0,0,0-.18.25.83.83,0,0,0-.06.32.87.87,0,0,0,.06.32.83.83,0,0,0,.19.26.78.78,0,0,0,.26.17,1,1,0,0,0,.33.06.88.88,0,0,0,.29-.05.85.85,0,0,0,.25-.13.26.26,0,0,1,.07.11.31.31,0,0,1,0,.13.35.35,0,0,1,0,.14.28.28,0,0,1-.08.11.82.82,0,0,0-.2-.12.71.71,0,0,0-.32-.07.94.94,0,0,0-.34.07,1,1,0,0,0-.27.18.64.64,0,0,0-.18.25.83.83,0,0,0-.07.32.71.71,0,0,0,.07.32.76.76,0,0,0,.18.26,1,1,0,0,0,.27.17.94.94,0,0,0,.66,0,1,1,0,0,0,.27-.18.68.68,0,0,0,.18-.26.83.83,0,0,0-.1-.8h0a.52.52,0,0,0,.13-.17m-.8-.47a.63.63,0,0,1-.63-.62.63.63,0,0,1,1.26,0,.63.63,0,0,1-.63.62m0,1.76a.62.62,0,1,1,0-1.24.62.62,0,1,1,0,1.24" transform="translate(-2 -4.17)"/><path class="cls-5" d="M9.9,26a.1.1,0,0,1,0-.07.11.11,0,0,1,.08,0,.13.13,0,0,1,.08,0,.11.11,0,0,1,0,.08v.72a.84.84,0,0,1,.29-.2.86.86,0,0,1,.36-.07,1,1,0,0,1,.34.06,1.27,1.27,0,0,1,.27.18.88.88,0,0,1,.19.27.83.83,0,0,1,.06.32v.74a.09.09,0,0,1,0,.07.12.12,0,0,1-.16,0,.09.09,0,0,1,0-.07v-.74a.6.6,0,0,0-.05-.24.56.56,0,0,0-.14-.2.66.66,0,0,0-.45-.18.53.53,0,0,0-.25,0,.82.82,0,0,0-.2.12.67.67,0,0,0-.14.19.86.86,0,0,0-.06.23V28a.11.11,0,1,1-.22,0V26Z" transform="translate(-2 -4.17)"/><path class="cls-5" d="M12.63,26.49a1,1,0,0,1,.33.06,1,1,0,0,1,.27.19.83.83,0,0,1,.19.26.72.72,0,0,1,.07.33.64.64,0,0,1-.07.31,1,1,0,0,1-.19.27,1.27,1.27,0,0,1-.27.18,1,1,0,0,1-.34.06.93.93,0,0,1-.34-.06.71.71,0,0,1-.27-.18.7.7,0,0,1-.19-.26.72.72,0,0,1-.07-.33.71.71,0,0,1,.07-.32.81.81,0,0,1,.18-.26.75.75,0,0,1,.28-.18.81.81,0,0,1,.35-.07m-.66.83a.6.6,0,0,0,0,.24.72.72,0,0,0,.14.2.74.74,0,0,0,.21.13.66.66,0,0,0,.25.05.56.56,0,0,0,.25-.05.57.57,0,0,0,.21-.13.69.69,0,0,0,.13-.2.46.46,0,0,0,.06-.23.7.7,0,0,0,0-.25.67.67,0,0,0-.14-.19.6.6,0,0,0-.21-.14.65.65,0,0,0-.5,0,.58.58,0,0,0-.2.13.56.56,0,0,0-.14.2.71.71,0,0,0-.06.24" transform="translate(-2 -4.17)"/><path class="cls-5" d="M14.63,27.05a.38.38,0,0,0-.11-.25.4.4,0,0,0-.26-.1.35.35,0,0,0-.14,0,.41.41,0,0,0-.11.07.32.32,0,0,0-.08.12.28.28,0,0,0,0,.13v1a.09.09,0,0,1,0,.08.1.1,0,0,1-.08,0,.12.12,0,0,1-.11-.11v-1a.54.54,0,0,1,0-.22.46.46,0,0,1,.13-.18.57.57,0,0,1,.18-.12.62.62,0,0,1,.23,0,.61.61,0,0,1,.28.06.55.55,0,0,1,.2.17.56.56,0,0,1,.48-.23.59.59,0,0,1,.23.05.57.57,0,0,1,.18.12.46.46,0,0,1,.13.18.54.54,0,0,1,.05.22v1a.09.09,0,0,1,0,.07.12.12,0,0,1-.16,0,.09.09,0,0,1,0-.07v-1a.32.32,0,0,0,0-.14.41.41,0,0,0-.07-.11l-.12-.08a.35.35,0,0,0-.14,0,.4.4,0,0,0-.15,0l-.11.08a.44.44,0,0,0-.08.11.31.31,0,0,0,0,.13v1a.11.11,0,0,1,0,.08.13.13,0,0,1-.08,0,.1.1,0,0,1-.11-.11Z" transform="translate(-2 -4.17)"/><path class="cls-5" d="M16.22,27.44a.5.5,0,0,0,.08.2.55.55,0,0,0,.14.17.57.57,0,0,0,.19.1.59.59,0,0,0,.23,0,.49.49,0,0,0,.24,0,.57.57,0,0,0,.21-.13.11.11,0,0,1,.19.08.09.09,0,0,1,0,.07.59.59,0,0,1-.27.18,1,1,0,0,1-.35.06,1.14,1.14,0,0,1-.33-.07.88.88,0,0,1-.28-.17.93.93,0,0,1-.18-.26.8.8,0,0,1-.07-.34.71.71,0,0,1,.07-.32.76.76,0,0,1,.18-.26,1.12,1.12,0,0,1,.28-.18,1,1,0,0,1,.35-.07.71.71,0,0,1,.32.07,1,1,0,0,1,.27.17.79.79,0,0,1,.19.26.89.89,0,0,1,.08.32.12.12,0,0,1,0,.09l-.08,0Zm.64-.72a.62.62,0,0,0-.23,0,.69.69,0,0,0-.19.1,1.07,1.07,0,0,0-.14.16.68.68,0,0,0-.07.2h1.26a.59.59,0,0,0-.07-.2.61.61,0,0,0-.15-.17.57.57,0,0,0-.19-.1.54.54,0,0,0-.22,0" transform="translate(-2 -4.17)"/><path class="cls-5" d="M8.56,23.82H7.8a0,0,0,0,0,0,0v.36l-.43-.33A.28.28,0,0,0,7,23.84l-.51.41L5.6,25l-.37.29-.58.47a0,0,0,0,0,0,.05l.48.59s0,0,.06,0l0,0h0v.54A3.14,3.14,0,0,1,8,25.16a3,3,0,0,1,1.75.6h0l-.59-.46L8.73,25l-.13-.11v-1A0,0,0,0,0,8.56,23.82Z" transform="translate(-2 -4.17)"/><path class="cls-5" d="M33.12,25.47A1.83,1.83,0,1,0,35,27.26,1.83,1.83,0,0,0,33.12,25.47Zm1.34,1.7L34.15,27v1.12l-2,0V28l0-.88-.29.13L31.78,27l1.36-.62,1.38.57Z" transform="translate(-2 -4.17)"/><path class="cls-5" d="M33.14,26.64l-.8.36,0,1,1.61,0,0-1Zm-.36.49h.74v.21h-.74Zm0,.6v-.21h.74v.2Z" transform="translate(-2 -4.17)"/><path class="cls-5" d="M29.44,27.28a.38.38,0,0,0,.39-.37.37.37,0,0,0-.4-.35h-.27v.73Z" transform="translate(-2 -4.17)"/><polygon class="cls-5" points="27.96 23.77 27.24 23.17 27.17 23.17 27.18 23.88 27.96 23.86 27.96 23.77"/><path class="cls-5" d="M29.13,25.47A1.83,1.83,0,1,0,31,27.27,1.84,1.84,0,0,0,29.13,25.47Zm-1,2.89,0-2.09,2,0,0,2.1Z" transform="translate(-2 -4.17)"/><rect class="cls-5" x="28.39" y="26.57" width="0.6" height="1.49" transform="translate(-2.41 -3.73) rotate(-0.87)"/><path class="cls-2" d="M13.29,24.65h.43l.11.05a.26.26,0,0,1,.09.09.26.26,0,0,1,0,.14.21.21,0,0,1,0,.12.22.22,0,0,1-.07.09.31.31,0,0,1-.1.05l-.13,0h-.23v.51h-.1Zm.1.48h.31l.08,0,.05-.06a.29.29,0,0,0,0-.09.2.2,0,0,0,0-.09s0-.05-.06-.06l-.07,0h-.31Z" transform="translate(-2 -4.17)"/><path class="cls-2" d="M14.1,25.19a.59.59,0,0,1,0-.23.45.45,0,0,1,.11-.17.44.44,0,0,1,.18-.12.56.56,0,0,1,.23-.05.54.54,0,0,1,.22.05.44.44,0,0,1,.18.12.45.45,0,0,1,.11.17.68.68,0,0,1,0,.46.42.42,0,0,1-.11.18.57.57,0,0,1-.18.12.54.54,0,0,1-.22,0,.56.56,0,0,1-.23,0,.57.57,0,0,1-.18-.12.42.42,0,0,1-.11-.18A.59.59,0,0,1,14.1,25.19Zm.1,0a.58.58,0,0,0,0,.19.38.38,0,0,0,.09.15.45.45,0,0,0,.14.1.42.42,0,0,0,.2,0,.41.41,0,0,0,.19,0,.45.45,0,0,0,.14-.1.38.38,0,0,0,.09-.15.62.62,0,0,0,0-.38.6.6,0,0,0-.09-.15.71.71,0,0,0-.14-.1.58.58,0,0,0-.19,0,.6.6,0,0,0-.2,0,.71.71,0,0,0-.14.1.6.6,0,0,0-.09.15A.58.58,0,0,0,14.2,25.19Z" transform="translate(-2 -4.17)"/><path class="cls-2" d="M15.3,24.65h.1l.27,1h0l.27-1h.13l.27,1h0l.27-1h.11l-.32,1.08h-.12l-.28-1h0l-.27,1h-.13Z" transform="translate(-2 -4.17)"/><path class="cls-2" d="M16.88,24.65h.66v.09H17v.39h.53v.09H17v.42h.59v.09h-.69Z" transform="translate(-2 -4.17)"/><path class="cls-2" d="M17.79,24.65h.42l.09,0a.18.18,0,0,1,.08,0,.16.16,0,0,1,.05.08.25.25,0,0,1,0,.24.31.31,0,0,1-.07.09.19.19,0,0,1-.09,0l-.09,0,.31.52h-.11l-.3-.51h-.19v.51h-.1Zm.1.48h.21l.13,0,.08-.05,0-.06a.35.35,0,0,1,0-.06s0,0,0-.07l0-.06-.08,0-.13,0h-.21Z" transform="translate(-2 -4.17)"/><path class="cls-2" d="M18.69,24.65h.66v.09h-.56v.39h.53v.09h-.53v.42h.59v.09h-.69Z" transform="translate(-2 -4.17)"/><path class="cls-2" d="M19.59,24.65h.33a.61.61,0,0,1,.24,0,.6.6,0,0,1,.16.08.53.53,0,0,1,.1.12.49.49,0,0,1,.06.13.44.44,0,0,1,0,.1v.14a.52.52,0,0,1,0,.11.34.34,0,0,1-.06.12.38.38,0,0,1-.1.12.42.42,0,0,1-.16.09.88.88,0,0,1-.24,0h-.33Zm.1,1h.2a.64.64,0,0,0,.2,0,.34.34,0,0,0,.17-.08.3.3,0,0,0,.1-.14.4.4,0,0,0,0-.2.42.42,0,0,0,0-.2.36.36,0,0,0-.1-.14.45.45,0,0,0-.17-.08.64.64,0,0,0-.2,0h-.2Z" transform="translate(-2 -4.17)"/><path class="cls-2" d="M21.13,24.65h.43l.12,0a.24.24,0,0,1,.08.09.33.33,0,0,1,0,.15.24.24,0,0,1-.05.14.22.22,0,0,1-.15.08h0l.1,0,.08,0a.26.26,0,0,1,.05.09.31.31,0,0,1,0,.1.33.33,0,0,1,0,.15.26.26,0,0,1-.09.09.31.31,0,0,1-.12,0h-.46Zm.1.47h.21l.12,0a.16.16,0,0,0,.08-.05.13.13,0,0,0,0-.06.43.43,0,0,1,0,0,.3.3,0,0,0,0-.1l-.05-.06-.08,0h-.31Zm0,.52h.23l.14,0a.19.19,0,0,0,.09-.05s0-.05,0-.07a.2.2,0,0,0,0-.07.16.16,0,0,0,0-.1.13.13,0,0,0-.06-.07.2.2,0,0,0-.08,0h-.34Z" transform="translate(-2 -4.17)"/><path class="cls-2" d="M22.33,25.27l-.4-.62h.12l.33.51.33-.51h.12l-.4.62v.46h-.1Z" transform="translate(-2 -4.17)"/></svg>