<svg id="Layer_1" data-name="Layer 1" xmlns="http://www.w3.org/2000/svg" viewBox="0 0 35 30"><defs><style>.cls-1{fill:#fff;}.cls-2{fill:#6d6e71;}.cls-3{fill:#8dc340;}.cls-4{fill:#6f7072;}.cls-5{fill:#8ec540;}</style></defs><rect class="cls-1" width="35" height="30"/><path class="cls-2" d="M-48,1.87l8.38,4.91a5.91,5.91,0,0,0-2.88-4.51A6.1,6.1,0,0,0-48,1.87Z" transform="translate(54.16 4.14)"/><path class="cls-2" d="M-45.53,13.42l3.47-5.87,2.32,1.36A6,6,0,0,1-45.53,13.42Z" transform="translate(54.16 4.14)"/><path class="cls-3" d="M-47.83,13l3.91-6.54L-49.78,3a6.33,6.33,0,0,0-1.78,5.55A6,6,0,0,0-47.83,13Z" transform="translate(54.16 4.14)"/><line class="cls-2" x1="17.04" y1="13.53" x2="31.15" y2="13.53"/><rect class="cls-2" x="17.04" y="13.47" width="14.11" height="0.13"/><path class="cls-2" d="M-21.66,3.32a.49.49,0,0,1-.5.49.5.5,0,0,1-.51-.49.49.49,0,0,1,.51-.48A.48.48,0,0,1-21.66,3.32Zm-.88,0a.38.38,0,0,0,.38.39.37.37,0,0,0,.37-.38.37.37,0,0,0-.37-.39A.37.37,0,0,0-22.54,3.32Zm.3.26h-.11V3.09h.18a.29.29,0,0,1,.17,0,.13.13,0,0,1,.05.11.13.13,0,0,1-.1.11h0c.05,0,.07.05.09.12a.39.39,0,0,0,0,.12H-22l0-.12a.09.09,0,0,0-.1-.08h0Zm0-.28h.06c.06,0,.11,0,.11-.07s0-.07-.11-.07h-.06Z" transform="translate(54.16 4.14)"/><path class="cls-2" d="M-37.12,3.14h2a5.62,5.62,0,0,1,.7,0,1.86,1.86,0,0,1,.63.2,1.09,1.09,0,0,1,.45.4,1.23,1.23,0,0,1,.18.7,1.12,1.12,0,0,1-.26.75,1.48,1.48,0,0,1-.67.42h0a1.69,1.69,0,0,1,.48.15,1.17,1.17,0,0,1,.38.28,1.09,1.09,0,0,1,.23.39,1.28,1.28,0,0,1,.09.48,1.28,1.28,0,0,1-.18.7,1.44,1.44,0,0,1-.47.45,2,2,0,0,1-.65.25,3.51,3.51,0,0,1-.72.07h-2.19Zm1.18,2.12h.85a1.24,1.24,0,0,0,.27,0,.64.64,0,0,0,.24-.1A.42.42,0,0,0-34.41,5a.53.53,0,0,0,.07-.26.49.49,0,0,0-.08-.28.49.49,0,0,0-.18-.17.72.72,0,0,0-.26-.08,1.33,1.33,0,0,0-.28,0h-.8Zm0,2.2h1.06a1.24,1.24,0,0,0,.27,0,.76.76,0,0,0,.26-.11.55.55,0,0,0,.18-.19.56.56,0,0,0,.08-.3.49.49,0,0,0-.1-.3.55.55,0,0,0-.24-.18,1.41,1.41,0,0,0-.31-.08l-.31,0h-.89Z" transform="translate(54.16 4.14)"/><path class="cls-2" d="M-31.18,4.18h-1.53v-1h4.24v1H-30V8.44h-1.18Z" transform="translate(54.16 4.14)"/><path class="cls-2" d="M-23,8.07a4.3,4.3,0,0,1-1.09.39,5.64,5.64,0,0,1-1.16.12,3.32,3.32,0,0,1-1.16-.2,2.75,2.75,0,0,1-.92-.55,2.55,2.55,0,0,1-.6-.88,3.07,3.07,0,0,1-.22-1.16,3,3,0,0,1,.22-1.15,2.46,2.46,0,0,1,.6-.88,2.77,2.77,0,0,1,.92-.56A3.32,3.32,0,0,1-25.26,3a4.38,4.38,0,0,1,1.18.15,2.29,2.29,0,0,1,.95.53l-.83.9a1.66,1.66,0,0,0-.54-.38,2.13,2.13,0,0,0-.76-.12,1.92,1.92,0,0,0-.69.12,1.61,1.61,0,0,0-.52.36,1.5,1.5,0,0,0-.34.54,1.91,1.91,0,0,0-.12.68,1.92,1.92,0,0,0,.12.69,1.5,1.5,0,0,0,.34.54,1.45,1.45,0,0,0,.52.35,1.73,1.73,0,0,0,.69.13,2.1,2.1,0,0,0,.66-.09,2,2,0,0,0,.45-.17V6.38h-1V5.3H-23Z" transform="translate(54.16 4.14)"/><path class="cls-3" d="M-23,12.9h-.77l-1.45-.53a.09.09,0,0,1,0-.06.07.07,0,0,1,0-.06s0-.05,0-.05h0l0,0h0a.16.16,0,0,1-.07-.08s0,0,0-.15h0a.09.09,0,0,1,.06-.08l0,0v-.07a.1.1,0,0,1,0-.1.12.12,0,0,1,.1-.08h0s0,0,0,0a1.86,1.86,0,0,1-.14-.2.36.36,0,0,1,0-.14h0a.16.16,0,0,0,0-.09.06.06,0,0,0,0-.05.15.15,0,0,1,0-.08.06.06,0,0,0,0,0,.15.15,0,0,1,0-.07.18.18,0,0,1,0-.13h0s.1-.06.18,0l0,0h0v-.4h2Zm-.75-.1h.65V10.39h-1.76v.33l0,.06s-.08,0-.16,0-.05,0-.05,0h0s0,0,0,.06v0a.15.15,0,0,1,0,.08v0h0a.12.12,0,0,1,0,.08.21.21,0,0,1,0,.16v.07l.13.18c.05.06.05.11,0,.13s0,.06-.09.08a0,0,0,0,0,0,0h0a0,0,0,0,0,0,0,.23.23,0,0,1,0,.11h0s0,.08-.08.09h0a.49.49,0,0,0,0,.11h0s0,0,.06,0h0s0,.08,0,.1,0,0,0,0a.1.1,0,0,1,0,0h0l0,0Zm-1.47-.54Zm0,0Zm.15,0Zm-.07-.06Zm0,0h0Z" transform="translate(54.16 4.14)"/><path class="cls-3" d="M-36.09,10.34h.23l1,2.36h-.25l-.26-.63h-1.26l-.27.63h-.23Zm.11.24-.56,1.29h1.1Z" transform="translate(54.16 4.14)"/><path class="cls-3" d="M-34.57,11.59v-.1c0-.05,0-.09,0-.13v-.12s0-.06,0-.08h.21v.16a.28.28,0,0,0,0,.11.74.74,0,0,1,.2-.23.55.55,0,0,1,.29-.08h.12l0,.2h-.08a.56.56,0,0,0-.23,0,.58.58,0,0,0-.15.11.4.4,0,0,0-.1.18.66.66,0,0,0,0,.21v.84h-.2Z" transform="translate(54.16 4.14)"/><path class="cls-3" d="M-33.47,10.55a.16.16,0,0,1,0-.11.13.13,0,0,1,.1,0,.14.14,0,0,1,.11,0,.16.16,0,0,1,.05.11.16.16,0,0,1-.05.11.18.18,0,0,1-.11,0,.18.18,0,0,1-.1,0A.16.16,0,0,1-33.47,10.55Zm0,.61h.21V12.7h-.21Z" transform="translate(54.16 4.14)"/><path class="cls-3" d="M-32.82,12.58l.93-1.24h-.88v-.18h1.16v.12l-.93,1.24h1v.18h-1.25Z" transform="translate(54.16 4.14)"/><path class="cls-3" d="M-31.3,11.93a.88.88,0,0,1,.06-.33.74.74,0,0,1,.17-.25.65.65,0,0,1,.26-.17.88.88,0,0,1,.33-.06.88.88,0,0,1,.33.06.62.62,0,0,1,.25.17.62.62,0,0,1,.17.25.72.72,0,0,1,.07.33.71.71,0,0,1-.07.32.65.65,0,0,1-.17.26.74.74,0,0,1-.25.17.88.88,0,0,1-.33.06.88.88,0,0,1-.33-.06.78.78,0,0,1-.26-.17.78.78,0,0,1-.17-.26A.87.87,0,0,1-31.3,11.93Zm.2,0a.64.64,0,0,0,.05.24.41.41,0,0,0,.12.2.67.67,0,0,0,.19.14.71.71,0,0,0,.26.05.66.66,0,0,0,.25-.05.6.6,0,0,0,.2-.14.67.67,0,0,0,.12-.2.64.64,0,0,0,0-.24.69.69,0,0,0,0-.25.82.82,0,0,0-.12-.2.58.58,0,0,0-.2-.13.51.51,0,0,0-.25,0,.55.55,0,0,0-.26,0,.64.64,0,0,0-.19.13.47.47,0,0,0-.12.2A.7.7,0,0,0-31.1,11.93Z" transform="translate(54.16 4.14)"/><path class="cls-3" d="M-29.21,11.59s0-.06,0-.1v-.13s0-.08,0-.12v-.08h.2a.81.81,0,0,0,0,.16v.11h0a.49.49,0,0,1,.21-.22.58.58,0,0,1,.33-.09.79.79,0,0,1,.29.05.45.45,0,0,1,.18.15.67.67,0,0,1,.09.21,1.07,1.07,0,0,1,0,.25v.92h-.2v-.91a1.1,1.1,0,0,0,0-.18.44.44,0,0,0-.06-.16.32.32,0,0,0-.12-.11.36.36,0,0,0-.19,0,.46.46,0,0,0-.21,0,.42.42,0,0,0-.18.11.75.75,0,0,0-.11.2.79.79,0,0,0,0,.28v.77h-.2Z" transform="translate(54.16 4.14)"/><path class="cls-3" d="M-26.14,12.05v.2c0,.06,0,.12,0,.17a.61.61,0,0,0,0,.14.66.66,0,0,0,0,.14h-.19a2,2,0,0,1,0-.25h0a.58.58,0,0,1-.22.22.81.81,0,0,1-.33.07.69.69,0,0,1-.2,0,.53.53,0,0,1-.17-.08.58.58,0,0,1-.13-.14.46.46,0,0,1-.05-.21.41.41,0,0,1,.09-.28.57.57,0,0,1,.23-.15.89.89,0,0,1,.28-.07l.26,0h.24v-.09a.34.34,0,0,0-.12-.29.63.63,0,0,0-.32-.08.73.73,0,0,0-.47.17l-.12-.14a.85.85,0,0,1,.28-.16,1.18,1.18,0,0,1,.31-.05.69.69,0,0,1,.45.13.49.49,0,0,1,.17.42Zm-.4-.13-.25,0A.65.65,0,0,0-27,12a.37.37,0,0,0-.16.1.25.25,0,0,0-.05.17.21.21,0,0,0,0,.12.24.24,0,0,0,.08.09.24.24,0,0,0,.11.06l.13,0a.63.63,0,0,0,.26-.05.43.43,0,0,0,.17-.12.56.56,0,0,0,.09-.17,1.23,1.23,0,0,0,0-.19v-.11Z" transform="translate(54.16 4.14)"/><path class="cls-4" d="M-47.94,17.79a.3.3,0,0,0-.1-.22.31.31,0,0,0-.22-.09.28.28,0,0,0-.13,0,.21.21,0,0,0-.1.06.36.36,0,0,0-.07.1.25.25,0,0,0,0,.12v.88a.09.09,0,0,1,0,.07.09.09,0,0,1-.07,0,.11.11,0,0,1-.07,0,.14.14,0,0,1,0-.07v-.88a.41.41,0,0,1,0-.19.38.38,0,0,1,.11-.16.57.57,0,0,1,.16-.11.78.78,0,0,1,.21,0,.48.48,0,0,1,.24.06.65.65,0,0,1,.18.15.54.54,0,0,1,.18-.15.47.47,0,0,1,.24-.05.45.45,0,0,1,.2,0,.59.59,0,0,1,.17.1.91.91,0,0,1,.11.16.65.65,0,0,1,0,.2v.88a.19.19,0,0,1,0,.07l-.07,0a.08.08,0,0,1-.07,0,.07.07,0,0,1,0-.06V17.8a.37.37,0,0,0,0-.12.26.26,0,0,0-.07-.1.41.41,0,0,0-.11-.07.27.27,0,0,0-.12,0,.28.28,0,0,0-.13,0,.33.33,0,0,0-.1.06.61.61,0,0,0-.07.1.5.5,0,0,0,0,.12v.89a.09.09,0,0,1,0,.06.08.08,0,0,1-.07,0,.07.07,0,0,1-.06,0,.09.09,0,0,1,0-.07Z" transform="translate(54.16 4.14)"/><path class="cls-4" d="M-45.25,19.23a.09.09,0,0,1,0,.07.09.09,0,0,1-.07,0,.09.09,0,0,1-.07,0,.09.09,0,0,1,0-.07v-.7a.64.64,0,0,1-.25.18.78.78,0,0,1-.31.07.73.73,0,0,1-.3-.06.6.6,0,0,1-.24-.16.76.76,0,0,1-.17-.23.72.72,0,0,1-.06-.29v-.65a.08.08,0,0,1,0-.07.11.11,0,0,1,.07,0,.09.09,0,0,1,.07,0,.09.09,0,0,1,0,.07V18a.46.46,0,0,0,0,.21.46.46,0,0,0,.13.18.42.42,0,0,0,.18.11.51.51,0,0,0,.22.05.78.78,0,0,0,.21,0,.78.78,0,0,0,.18-.11.66.66,0,0,0,.12-.17.66.66,0,0,0,.06-.2v-.68a.07.07,0,0,1,0-.06.09.09,0,0,1,.07,0,.11.11,0,0,1,.07,0,.07.07,0,0,1,0,.06v1.84Z" transform="translate(54.16 4.14)"/><path class="cls-4" d="M-36.47,18.07a.6.6,0,0,1,.06-.27.63.63,0,0,1,.16-.23.63.63,0,0,1,.23-.16.93.93,0,0,1,.29-.05l.08,0a.09.09,0,0,1,0,.07.07.07,0,0,1,0,.06.11.11,0,0,1-.08,0,.46.46,0,0,0-.21.05.42.42,0,0,0-.18.11.52.52,0,0,0-.12.17.65.65,0,0,0,0,.2v.64a.07.07,0,0,1,0,.06.09.09,0,0,1-.07,0,.07.07,0,0,1-.06,0,.09.09,0,0,1,0-.06Z" transform="translate(54.16 4.14)"/><path class="cls-4" d="M-35,17.36a.88.88,0,0,1,.28.06.78.78,0,0,1,.24.16.73.73,0,0,1,.16.23.67.67,0,0,1,.06.28.6.6,0,0,1-.06.27.63.63,0,0,1-.16.23.67.67,0,0,1-.24.16.93.93,0,0,1-.29.05.93.93,0,0,1-.29-.05,1,1,0,0,1-.24-.15.73.73,0,0,1-.16-.23.67.67,0,0,1-.06-.28.64.64,0,0,1,.06-.28.73.73,0,0,1,.16-.23,1,1,0,0,1,.24-.15.94.94,0,0,1,.3-.07m-.56.73a.45.45,0,0,0,0,.2.52.52,0,0,0,.12.17.66.66,0,0,0,.17.12.54.54,0,0,0,.22,0,.54.54,0,0,0,.22,0,.78.78,0,0,0,.18-.11.66.66,0,0,0,.12-.17.52.52,0,0,0,0-.21.52.52,0,0,0,0-.21.66.66,0,0,0-.12-.17.57.57,0,0,0-.18-.12.78.78,0,0,0-.22,0,.78.78,0,0,0-.21,0,.57.57,0,0,0-.18.12.52.52,0,0,0-.12.17.46.46,0,0,0,0,.21" transform="translate(54.16 4.14)"/><path class="cls-4" d="M-34.07,17.45a.14.14,0,0,1,0-.06.11.11,0,0,1,.07,0,.09.09,0,0,1,.07,0,.09.09,0,0,1,0,.06v.64a.52.52,0,0,0,0,.21.66.66,0,0,0,.12.17.45.45,0,0,0,.17.11.54.54,0,0,0,.22.05.54.54,0,0,0,.22-.05.45.45,0,0,0,.17-.11.52.52,0,0,0,.12-.17.46.46,0,0,0,0-.21v-.63a.09.09,0,0,1,0-.07l.07,0,.06,0a.09.09,0,0,1,0,.07v.64a.63.63,0,0,1-.06.27.63.63,0,0,1-.16.23.61.61,0,0,1-.24.15.72.72,0,0,1-.29.06.72.72,0,0,1-.29-.06,1,1,0,0,1-.24-.15.73.73,0,0,1-.16-.23.67.67,0,0,1-.06-.28Z" transform="translate(54.16 4.14)"/><path class="cls-4" d="M-31.65,18.82a.8.8,0,0,1-.32-.09,1,1,0,0,1-.25-.19v.72a.09.09,0,0,1,0,.07l-.06,0a.09.09,0,0,1-.07,0,.07.07,0,0,1,0-.06V18.09a.72.72,0,0,1,.06-.29.72.72,0,0,1,.17-.22.76.76,0,0,1,.23-.15.93.93,0,0,1,.29-.05.73.73,0,0,1,.3.06.61.61,0,0,1,.23.15.73.73,0,0,1,.16.23.67.67,0,0,1,.06.28.63.63,0,0,1-.06.27.63.63,0,0,1-.16.23.78.78,0,0,1-.24.16.71.71,0,0,1-.28.06m-.56-.73a.54.54,0,0,0,0,.22,1.09,1.09,0,0,0,.13.17.56.56,0,0,0,.17.11.65.65,0,0,0,.21,0,.78.78,0,0,0,.22,0,.71.71,0,0,0,.18-.12.52.52,0,0,0,.12-.17.65.65,0,0,0,0-.21.45.45,0,0,0,0-.2.52.52,0,0,0-.12-.17.57.57,0,0,0-.18-.12.54.54,0,0,0-.22,0,.49.49,0,0,0-.21,0,.57.57,0,0,0-.18.12.48.48,0,0,0-.12.16.52.52,0,0,0,0,.21" transform="translate(54.16 4.14)"/><path class="cls-4" d="M-36.66,19a.43.43,0,0,0,0-.19.41.41,0,0,0,0-.19.54.54,0,0,0-.1-.16,1.18,1.18,0,0,0,.11-.19.93.93,0,0,0,0-.23.67.67,0,0,0-.06-.28.94.94,0,0,0-.16-.23.78.78,0,0,0-.24-.16.71.71,0,0,0-.28-.06.94.94,0,0,0-.3.07.7.7,0,0,0-.24.15.63.63,0,0,0-.16.23.63.63,0,0,0-.06.27.68.68,0,0,0,.06.29.73.73,0,0,0,.16.23.91.91,0,0,0,.23.15.93.93,0,0,0,.29.05.71.71,0,0,0,.26,0,.94.94,0,0,0,.22-.12.21.21,0,0,1,.06.1.27.27,0,0,1,0,.12.2.2,0,0,1,0,.11.36.36,0,0,1-.07.1.52.52,0,0,0-.18-.1.67.67,0,0,0-.28-.06.73.73,0,0,0-.3.06,1,1,0,0,0-.24.15.73.73,0,0,0-.16.23.67.67,0,0,0-.06.28.64.64,0,0,0,.06.28.63.63,0,0,0,.16.23,1,1,0,0,0,.24.15.71.71,0,0,0,.29,0,.71.71,0,0,0,.29,0,.78.78,0,0,0,.24-.16.69.69,0,0,0,.16-.22.67.67,0,0,0,.06-.28.67.67,0,0,0-.06-.28.6.6,0,0,0-.09-.15h0a.39.39,0,0,0,.11-.15m-.7-.42a.56.56,0,0,1-.56-.55.55.55,0,0,1,.56-.54.54.54,0,0,1,.55.55.55.55,0,0,1-.55.54m0,1.55a.53.53,0,0,1-.55-.54.54.54,0,0,1,.55-.54.55.55,0,0,1,.56.54.55.55,0,0,1-.56.54" transform="translate(54.16 4.14)"/><path class="cls-5" d="M-45.13,16.91a.09.09,0,0,1,0-.07.09.09,0,0,1,.07,0,.09.09,0,0,1,.07,0,.09.09,0,0,1,0,.07v.64a.64.64,0,0,1,.25-.18.78.78,0,0,1,.31-.06.94.94,0,0,1,.3.05.84.84,0,0,1,.24.16.81.81,0,0,1,.17.24.64.64,0,0,1,.06.28v.65a.09.09,0,0,1,0,.07.08.08,0,0,1-.07,0,.07.07,0,0,1-.06,0,.09.09,0,0,1,0-.07V18a.78.78,0,0,0,0-.21.43.43,0,0,0-.13-.17.57.57,0,0,0-.18-.12.54.54,0,0,0-.22-.05.78.78,0,0,0-.21,0,.78.78,0,0,0-.18.11,1.09,1.09,0,0,0-.13.17.65.65,0,0,0,0,.21v.67a.07.07,0,0,1,0,.06.09.09,0,0,1-.07,0,.11.11,0,0,1-.07,0,.07.07,0,0,1,0-.06V16.91Z" transform="translate(54.16 4.14)"/><path class="cls-5" d="M-42.73,17.31a.68.68,0,0,1,.29.06.89.89,0,0,1,.25.16.78.78,0,0,1,.16.24.68.68,0,0,1,.06.29.67.67,0,0,1-.06.28.73.73,0,0,1-.16.23.72.72,0,0,1-.25.16.94.94,0,0,1-.3.05.93.93,0,0,1-.29-.05.72.72,0,0,1-.25-.16.63.63,0,0,1-.16-.23.68.68,0,0,1-.06-.29.64.64,0,0,1,.06-.28.63.63,0,0,1,.16-.23.72.72,0,0,1,.25-.16.94.94,0,0,1,.3-.07m-.57.74a.46.46,0,0,0,0,.21.57.57,0,0,0,.12.18.42.42,0,0,0,.18.11.54.54,0,0,0,.22.05.85.85,0,0,0,.23,0,.57.57,0,0,0,.18-.12.66.66,0,0,0,.12-.17.54.54,0,0,0,.05-.21.54.54,0,0,0-.05-.22.66.66,0,0,0-.12-.17.57.57,0,0,0-.18-.12.54.54,0,0,0-.22,0,.54.54,0,0,0-.22,0,.54.54,0,0,0-.18.11.46.46,0,0,0-.13.18.52.52,0,0,0,0,.21" transform="translate(54.16 4.14)"/><path class="cls-5" d="M-41,17.82a.33.33,0,0,0-.1-.23.31.31,0,0,0-.22-.09.28.28,0,0,0-.13,0,.23.23,0,0,0-.1.07.31.31,0,0,0-.07.09.25.25,0,0,0,0,.12v.89a.09.09,0,0,1,0,.06.09.09,0,0,1-.07,0,.11.11,0,0,1-.07,0,.14.14,0,0,1,0-.06v-.89a.41.41,0,0,1,0-.19.57.57,0,0,1,.11-.16.91.91,0,0,1,.16-.11.76.76,0,0,1,.21,0,.6.6,0,0,1,.24.05.65.65,0,0,1,.18.15.45.45,0,0,1,.18-.15.6.6,0,0,1,.24-.05.45.45,0,0,1,.2,0,.62.62,0,0,1,.17.11.58.58,0,0,1,.11.15.71.71,0,0,1,0,.2v.88a.14.14,0,0,1,0,.07.11.11,0,0,1-.07,0,.08.08,0,0,1-.07,0,.09.09,0,0,1,0-.07v-.88a.5.5,0,0,0,0-.12.36.36,0,0,0-.07-.1.41.41,0,0,0-.11-.07l-.12,0-.13,0-.1.07a.36.36,0,0,0-.07.1.22.22,0,0,0,0,.12v.88a.09.09,0,0,1,0,.07l-.07,0-.07,0a.19.19,0,0,1,0-.07Z" transform="translate(54.16 4.14)"/><path class="cls-5" d="M-39.56,18.15a.48.48,0,0,0,.07.18.61.61,0,0,0,.12.15.56.56,0,0,0,.17.09.48.48,0,0,0,.2,0,.51.51,0,0,0,.22,0,.54.54,0,0,0,.18-.11.11.11,0,0,1,.07,0,.09.09,0,0,1,.07,0,.09.09,0,0,1,0,.06.09.09,0,0,1,0,.07.57.57,0,0,1-.23.16,1,1,0,0,1-.31.05.72.72,0,0,1-.29-.06.87.87,0,0,1-.25-.15.87.87,0,0,1-.16-.23.73.73,0,0,1-.06-.3.67.67,0,0,1,.06-.28.63.63,0,0,1,.16-.23.72.72,0,0,1,.25-.16.73.73,0,0,1,.3-.06.68.68,0,0,1,.29.06.75.75,0,0,1,.24.15.76.76,0,0,1,.17.23.67.67,0,0,1,.06.28.08.08,0,0,1,0,.08.13.13,0,0,1-.08,0Zm.57-.63a.64.64,0,0,0-.2,0,1,1,0,0,0-.17.1.41.41,0,0,0-.12.14.36.36,0,0,0-.07.17h1.12a.56.56,0,0,0-.07-.18.86.86,0,0,0-.13-.14l-.16-.1a.69.69,0,0,0-.2,0" transform="translate(54.16 4.14)"/><path class="cls-5" d="M-46.32,15H-47s0,0,0,0v.32l-.37-.3a.25.25,0,0,0-.29,0l-.45.36-.79.64-.33.27-.51.41a0,0,0,0,0,0,0l.43.52s0,0,.05,0l0,0h0v.47a2.77,2.77,0,0,1,2.41-1.52,2.56,2.56,0,0,1,1.54.53h0l-.52-.4-.34-.27-.12-.1V15A0,0,0,0,0-46.32,15Z" transform="translate(54.16 4.14)"/><path class="cls-5" d="M-24.64,16.42a1.6,1.6,0,0,0-1.59,1.64,1.62,1.62,0,0,0,1.65,1.59A1.62,1.62,0,0,0-23,18,1.6,1.6,0,0,0-24.64,16.42Zm1.18,1.5-.28-.11,0,.77v.21l-1.77,0v-.21l0-.77-.26.11-.06-.15,1.2-.56,1.22.51Z" transform="translate(54.16 4.14)"/><path class="cls-5" d="M-24.62,17.45l-.72.32,0,.85,1.43,0,0-.85Zm-.32.44.65,0v.19h-.65Zm0,.52v-.18h.65v.18Z" transform="translate(54.16 4.14)"/><path class="cls-5" d="M-27.89,18a.34.34,0,0,0,.34-.33.34.34,0,0,0-.35-.31h-.24V18Z" transform="translate(54.16 4.14)"/><polygon class="cls-5" points="26.73 22.74 26.1 22.21 26.03 22.21 26.04 22.83 26.73 22.82 26.73 22.74"/><path class="cls-5" d="M-28.17,16.42a1.61,1.61,0,0,0-1.59,1.64,1.62,1.62,0,0,0,1.64,1.59A1.62,1.62,0,0,0-26.53,18,1.61,1.61,0,0,0-28.17,16.42ZM-29,19l0-1.85,1.78,0,0,1.85Z" transform="translate(54.16 4.14)"/><rect class="cls-5" x="-28.82" y="17.39" width="0.53" height="1.32" transform="translate(53.88 3.7) rotate(-0.87)"/><path class="cls-2" d="M-42.14,15.7h.38a.21.21,0,0,1,.1,0,.23.23,0,0,1,.07.07.28.28,0,0,1,0,.13.36.36,0,0,1,0,.11.27.27,0,0,1-.07.08.19.19,0,0,1-.09,0l-.11,0H-42v.45h-.09Zm.09.42h.27l.07,0a.1.1,0,0,0,0,0,.19.19,0,0,0,0-.08.19.19,0,0,0,0-.08l0,0a.11.11,0,0,0-.07,0H-42Z" transform="translate(54.16 4.14)"/><path class="cls-2" d="M-41.43,16.17a.45.45,0,0,1,0-.2.39.39,0,0,1,.1-.16.4.4,0,0,1,.15-.1.45.45,0,0,1,.2,0,.42.42,0,0,1,.2,0,.54.54,0,0,1,.16.1.86.86,0,0,1,.1.16.65.65,0,0,1,0,.2.59.59,0,0,1,0,.2.49.49,0,0,1-.1.16.57.57,0,0,1-.16.11.6.6,0,0,1-.2,0,.64.64,0,0,1-.2,0,.42.42,0,0,1-.15-.11.29.29,0,0,1-.1-.16A.42.42,0,0,1-41.43,16.17Zm.09,0a.47.47,0,0,0,0,.17.35.35,0,0,0,.08.13.27.27,0,0,0,.12.09.47.47,0,0,0,.17,0,.47.47,0,0,0,.17,0,.38.38,0,0,0,.13-.09.57.57,0,0,0,.08-.13.47.47,0,0,0,0-.17.41.41,0,0,0,0-.16.64.64,0,0,0-.08-.14l-.13-.09a.47.47,0,0,0-.17,0,.47.47,0,0,0-.17,0l-.12.09a.39.39,0,0,0-.08.14A.41.41,0,0,0-41.34,16.17Z" transform="translate(54.16 4.14)"/><path class="cls-2" d="M-40.37,15.7h.09l.24.84h0l.24-.84h.12l.24.84h0l.24-.84h.09l-.28.95h-.11l-.24-.85h0l-.24.85h-.11Z" transform="translate(54.16 4.14)"/><path class="cls-2" d="M-39,15.7h.58v.08h-.49v.34h.46v.08h-.46v.37h.51v.08H-39Z" transform="translate(54.16 4.14)"/><path class="cls-2" d="M-38.17,15.7h.37l.08,0,.07,0,0,.07a.36.36,0,0,1,0,.11.2.2,0,0,1,0,.11.13.13,0,0,1-.06.07.2.2,0,0,1-.08,0l-.08,0,.28.46h-.1l-.27-.45h-.16v.45h-.09Zm.09.42h.18l.12,0,.07,0,0-.06a.43.43,0,0,1,0-.05s0,0,0-.06l0-.05-.07-.05h-.3Z" transform="translate(54.16 4.14)"/><path class="cls-2" d="M-37.37,15.7h.58v.08h-.5v.34h.47v.08h-.47v.37h.52v.08h-.6Z" transform="translate(54.16 4.14)"/><path class="cls-2" d="M-36.59,15.7h.3a.66.66,0,0,1,.21,0,.46.46,0,0,1,.14.07.44.44,0,0,1,.09.11.54.54,0,0,1,.05.11.29.29,0,0,1,0,.09v.12a.44.44,0,0,1,0,.1l-.05.11a.28.28,0,0,1-.09.1.47.47,0,0,1-.14.08.66.66,0,0,1-.21,0h-.3Zm.09.87h.18l.18,0a.32.32,0,0,0,.14-.08.29.29,0,0,0,.1-.12.48.48,0,0,0,0-.18.43.43,0,0,0,0-.17.32.32,0,0,0-.1-.13.46.46,0,0,0-.14-.07.5.5,0,0,0-.18,0h-.18Z" transform="translate(54.16 4.14)"/><path class="cls-2" d="M-35.23,15.7h.39l.1,0a.19.19,0,0,1,.07.08.23.23,0,0,1,0,.13.17.17,0,0,1,0,.12.24.24,0,0,1-.13.08h0l.09,0a.18.18,0,0,1,.07,0,.16.16,0,0,1,0,.07.29.29,0,0,1,0,.09.29.29,0,0,1,0,.14l-.08.08-.11,0h-.41Zm.09.41h.19l.11,0,.07,0,0-.05a.43.43,0,0,1,0-.05.24.24,0,0,0,0-.09s0,0,0,0l-.06,0h-.28Zm0,.46h.21l.12,0,.08-.05,0-.06a.11.11,0,0,0,0-.05.2.2,0,0,0,0-.09l0-.07-.08,0h-.3Z" transform="translate(54.16 4.14)"/><path class="cls-2" d="M-34.17,16.24l-.35-.54h.11l.29.45.29-.45h.1l-.35.54v.41h-.09Z" transform="translate(54.16 4.14)"/></svg>