<svg id="Layer_1" data-name="Layer 1" xmlns="http://www.w3.org/2000/svg" viewBox="0 0 50 40"><defs><style>.cls-1{fill:#fff;}.cls-2{fill:#575757;}</style></defs><rect class="cls-1" width="50" height="40"/><circle class="cls-2" cx="25" cy="20" r="17.5"/><path class="cls-1" d="M-140.20083,290.77435h4.9623c1.12724,0,1.66636.46,1.66636,1.42188v.81548c0,.76321-.17154,1.20232-.99246,1.33823.88218.0732,1.09048.67958,1.09048,1.33824v.98277c0,.96185-.53911,1.42187-1.66635,1.42187h-5.06033Zm4.10462,2.86466c.17154,0,.22055-.04182.22055-.1882V292.489c0-.14637-.049-.18818-.22055-.18818h-1.80113V293.639Zm.098,2.92739c.17154,0,.22054-.04183.22054-.18819v-1.12914c0-.14637-.049-.18818-.22054-.18818h-1.89916v1.50551Z" transform="translate(153.66518 -281.71185)"/><path class="cls-1" d="M-132.27353,296.671v-5.8966H-129.97v5.43658q0,.18819.22055.18819h1.59282q.22056,0,.22056-.18819v-5.43658h2.30347v5.8966c0,.92-.58811,1.42187-1.66635,1.42187h-3.30818C-131.68541,298.09282-132.27353,297.591-132.27353,296.671Z" transform="translate(153.66518 -281.71185)"/><path class="cls-1" d="M-121.90991,295.82409l-2.98775-5.04974h2.49953l1.39679,3.10512,1.39679-3.10512h2.475l-2.86084,5.04974v2.26873h-1.91953Z" transform="translate(153.66518 -281.71185)"/><path class="cls-1" d="M-140.20083,311.22748v-1.00367h1.9269v.66912c0,.14636.041.18817.1845.18817h1.32217c.1435,0,.1845-.04181.1845-.18817v-.63777c0-.115-.05126-.14636-.21524-.1882l-1.9064-.53319c-1.00446-.28228-1.47594-.46-1.47594-1.50551v-1.2755c0-.96186.451-1.42189,1.39394-1.42189h2.61361c.943,0,1.39393.46,1.39393,1.42189v.93048h-1.9269v-.59592c0-.14639-.041-.1882-.18449-.1882h-1.17869c-.1435,0-.18449.04181-.18449.1882v.56457c0,.115.03075.14636.21524.19863l1.90641.52276c1.00444.27182,1.47591.46,1.47591,1.50551v1.34869c0,.96184-.451,1.42187-1.39393,1.42187h-2.75711C-139.74985,312.64935-140.20083,312.18932-140.20083,311.22748Z" transform="translate(153.66518 -281.71185)"/><path class="cls-1" d="M-133.61053,305.33087h5.04275v1.631h-3.11585v1.1396h2.47012v1.61006h-2.47012v1.30686h3.11585v1.631h-5.04275Z" transform="translate(153.66518 -281.71185)"/><path class="cls-1" d="M-127.54293,305.33087h1.92691v5.64568h2.8596v1.6728h-4.78651Z" transform="translate(153.66518 -281.71185)"/><path class="cls-1" d="M-121.916,305.33087h1.92691v5.64568h2.8596v1.6728H-121.916Z" transform="translate(153.66518 -281.71185)"/><path class="cls-1" d="M-130.29728,298.89705a1.06471,1.06471,0,0,1,1.13379,1.09809v3.43343a1.0647,1.0647,0,0,1-1.13379,1.09807h-1.92427a1.06472,1.06472,0,0,1-1.13379-1.09807v-3.43343a1.06472,1.06472,0,0,1,1.13379-1.09809Zm-.016,1.31461a.24058.24058,0,0,0-.27147-.26292h-1.34939a.24059.24059,0,0,0-.27147.26292V303.212a.2406.2406,0,0,0,.27147.26292h1.34939a.24059.24059,0,0,0,.27147-.26292Z" transform="translate(153.66518 -281.71185)"/><path class="cls-1" d="M-125.03539,304.52664l-.92625-2.0647h-.92617v2.0647h-1.14976v-5.56773h2.93029a1.06468,1.06468,0,0,1,1.13377,1.09809v1.30687a1.04015,1.04015,0,0,1-.78248,1.05168l.95815,2.11109Zm-.08788-4.25312a.24056.24056,0,0,0-.27142-.26292h-1.49312v1.41513h1.49312a.24056.24056,0,0,0,.27142-.26292Z" transform="translate(153.66518 -281.71185)"/><line class="cls-1" x1="13.66674" y1="20" x2="19.47946" y2="20"/><rect class="cls-1" x="13.66674" y="19.59789" width="5.81272" height="0.80423"/><line class="cls-1" x1="30.52054" y1="20" x2="36.33326" y2="20"/><rect class="cls-1" x="30.52055" y="19.59789" width="5.81272" height="0.80423"/></svg>