<svg id="Layer_1" data-name="Layer 1" xmlns="http://www.w3.org/2000/svg" viewBox="0 0 50 40"><defs><style>.cls-1{fill:#fff;}.cls-2{fill:#565656;}</style></defs><rect class="cls-1" width="50" height="40"/><path class="cls-2" d="M-135.87569,293.4508v-.96186c0-.14636-.049-.18817-.22052-.18817h-1.80115V293.639h1.80115C-135.9247,293.639-135.87569,293.59716-135.87569,293.4508Z" transform="translate(153.66518 -281.71185)"/><path class="cls-2" d="M-125.12325,301.16277v-.88928a.24056.24056,0,0,0-.27142-.26288h-1.49317v1.4151h1.49317A.24057.24057,0,0,0-125.12325,301.16277Z" transform="translate(153.66518 -281.71185)"/><path class="cls-2" d="M-131.9341,303.475h1.34936a.24062.24062,0,0,0,.27149-.26294v-3.00037a.2406.2406,0,0,0-.27149-.26294h-1.34936a.2406.2406,0,0,0-.27149.26294V303.212A.24062.24062,0,0,0-131.9341,303.475Z" transform="translate(153.66518 -281.71185)"/><path class="cls-2" d="M-135.99819,295.06091h-1.89917v1.50549h1.89917c.17157,0,.22052-.04181.22052-.18817v-1.12915C-135.77767,295.10271-135.82662,295.06091-135.99819,295.06091Z" transform="translate(153.66518 -281.71185)"/><path class="cls-2" d="M-128.66518,284.21185a17.5,17.5,0,0,0-17.5,17.5,17.5,17.5,0,0,0,17.5,17.5,17.5,17.5,0,0,0,17.5-17.5A17.5,17.5,0,0,0-128.66518,284.21185Zm-3.60834,6.5625H-129.97v5.43658q0,.18815.22058.18817h1.59277q.22065,0,.22058-.18817v-5.43658h2.30347v5.8966c0,.92005-.58813,1.42188-1.66632,1.42188h-3.30823c-1.07825,0-1.66632-.50183-1.66632-1.42188Zm-1.08185,9.22076a1.06475,1.06475,0,0,1,1.13379-1.09808h1.92432a1.06475,1.06475,0,0,1,1.13379,1.09808v3.43347a1.06475,1.06475,0,0,1-1.13379,1.09808h-1.92432a1.06475,1.06475,0,0,1-1.13379-1.09808Zm-1.30047,11.23236c0,.96185-.451,1.42188-1.394,1.42188h-2.75708c-.94293,0-1.39392-.46-1.39392-1.42188v-1.00366h1.92688v.66913c0,.14636.041.18817.18451.18817h1.32215c.14349,0,.18451-.04181.18451-.18817v-.63776c0-.115-.05121-.14636-.21521-.18823l-1.90644-.53321c-1.00445-.28228-1.47589-.46-1.47589-1.50549v-1.27551c0-.96185.451-1.42188,1.39392-1.42188h2.61359c.943,0,1.39392.46,1.39392,1.42188v.93048h-1.92688v-.59589c0-.14642-.041-.18823-.18451-.18823h-1.17865c-.14349,0-.18451.04181-.18451.18823v.56458c0,.115.03076.1463.21527.19861l1.90637.52276c1.00446.27179,1.476.46,1.476,1.5055Zm.47009-9.11353h-5.81268v-.80419h5.81268Zm-.95477-4.02111h-5.06031v-7.31848h4.96228c1.12726,0,1.66639.46,1.66639,1.42187v.81549c0,.76318-.17157,1.20233-.9925,1.3382.88221.07324,1.09052.67962,1.09052,1.33825v.98279C-133.47414,297.6328-134.01327,298.09283-135.14052,298.09283Zm6.57275,8.869h-3.11584v1.13958h2.47009v1.61005h-2.47009v1.30688h3.11584v1.631h-5.04279v-7.31849h5.04279Zm.53021-8.00293h2.9303a1.06463,1.06463,0,0,1,1.13373,1.09808v1.30688a1.04013,1.04013,0,0,1-.78247,1.05164l.95813,2.11114h-1.23755l-.92621-2.06475h-.92621v2.06475h-1.14972Zm5.28113,13.69043h-4.7865v-7.31849h1.92688v5.64569h2.85962Zm-.38818-11.3396h5.81268v.80419h-5.81268Zm6.01507,11.3396h-4.7865v-7.31849h1.92688v5.64569h2.85962Zm-2.86084-16.82526v2.26874h-1.91955v-2.26874l-2.98773-5.04974h2.49951l1.39679,3.1051,1.39679-3.1051h2.475Z" transform="translate(153.66518 -281.71185)"/></svg>