<svg id="original" xmlns="http://www.w3.org/2000/svg" viewBox="0 0 1024 768"><title>cre8tivelogogithub</title><path d="M0,0ZM0,0Z"/><path d="M0,0ZM0,0Z"/><path d="M0,0ZM0,0Z"/><path d="M0,0ZM0,0Z"/><path d="M0,0ZM0,0ZM0,0Z"/><path d="M0,0ZM0,0Z"/><path d="M0,0ZM0,0ZM0,0ZM0,0Z"/><path d="M0,0ZM0,0Z"/><path d="M0,0ZM0,0Z"/><path d="M0,0ZM0,0Z"/><path d="M0,0ZM0,0Z"/><path d="M0,0ZM0,0ZM0,0Z"/><path d="M0,0ZM0,0Z"/><path d="M0,0ZM0,0Z"/><path d="M0,0ZM0,0Z"/><path d="M0,0ZM0,0Z"/><path d="M0,0ZM0,0Z"/><path d="M0,0ZM0,0Z"/><path d="M0,0Z"/><path d="M0,0ZM0,0Z"/><path d="M0,0ZM0,0Z"/><path d="M0,0ZM0,0Z"/><path d="M0,0Z"/><path d="M0,0Z"/><path d="M0,0ZM0,0Z"/><path d="M0,0Z"/><path d="M0,0Z"/><path d="M0,0ZM0,0Z"/></svg>