<svg id="Layer_1" data-name="Layer 1" xmlns="http://www.w3.org/2000/svg" viewBox="0 0 387.02 387.02"><defs><style>.cls-1{fill:#0071bc;}</style></defs><title>telephone</title><path class="cls-1" d="M523.26,483.45c9.64,7.12,18.6,9.87,26.41,9.64A28.36,28.36,0,0,0,564.6,489a30.12,30.12,0,0,0,10.57-9.41c3-4.14,4.82-8.5,5.05-12.18-2.29-5.28-13.09-28.71-36.75-44.1-1.15-.46-5.51-.92-15.39,8.27a6,6,0,0,1-6.66.92c-14.24-6.67-26.18-20.67-33.53-36.52v-.23c-7.35-16.08-10.11-34-6-49.16a6.18,6.18,0,0,1,5.06-4.36c13.55-1.38,15.85-5.28,16.31-6.43,3.67-27.56-6.9-51.22-9.65-56.51-3-2.29-7.35-3.67-12.41-4.13A38.54,38.54,0,0,0,467,277a32.89,32.89,0,0,0-12.64,8.73c-5.28,6-9,14.47-9.87,26.64a196.07,196.07,0,0,0,78.78,171.12Zm111.4-204a6,6,0,0,1,11.94,0v11.26a6,6,0,0,1-11.94,0Zm0,31.47a6,6,0,0,1,11.94,0V424.42a6,6,0,0,1-11.94,0ZM391.42,223H632.59a40.8,40.8,0,0,1,40.66,40.42V504.58a40.43,40.43,0,0,1-12,28.71l-.46.23a40.52,40.52,0,0,1-28.25,11.71H391.42A40.79,40.79,0,0,1,351,504.58V263.4A40.81,40.81,0,0,1,391.42,223Zm241.17,12H391.42a28.22,28.22,0,0,0-28.48,28.47V504.58a28.63,28.63,0,0,0,28.48,28.71H632.59a28.11,28.11,0,0,0,20-8l.23-.46a27.67,27.67,0,0,0,8.5-20.21V263.4a28.61,28.61,0,0,0-28.71-28.47ZM393.48,190.6H630.75a74.29,74.29,0,0,1,52.83,21.82l.23.23a74.22,74.22,0,0,1,21.82,52.82V502.74a74.47,74.47,0,0,1-22,52.83v.23a74.69,74.69,0,0,1-52.83,21.82H393.48a75.41,75.41,0,0,1-53.05-22h0a74.64,74.64,0,0,1-21.83-52.83V265.47a75.18,75.18,0,0,1,21.83-53.05h.23a74.26,74.26,0,0,1,52.82-21.82Zm237.27,11.71H393.48a63.54,63.54,0,0,0-63.16,63.16V502.74a63.54,63.54,0,0,0,63.16,63.17H630.75a63.54,63.54,0,0,0,63.17-63.17V265.47a63.54,63.54,0,0,0-63.17-63.16ZM549.9,504.81c-10.11.23-21.59-3.22-33.76-11.94a207.82,207.82,0,0,1-65-80.16,204,204,0,0,1-18.38-101.3c1.15-14.93,6-25.72,12.63-33.53a43.92,43.92,0,0,1,17.69-11.94,45.65,45.65,0,0,1,18.83-2.54c8.28.7,15.62,3.45,20.22,7.59a4.73,4.73,0,0,1,1.38,1.83c.23.23,16.08,29.18,11.48,64.55l-.23.91s-1.61,11.49-22.28,15.17c-2.07,11.48.46,25,6,37.2l.23.23c5.52,12.41,14.24,23.2,24.58,29.18,15.16-12.41,24.57-7.81,25.72-7.12l.69.45c30.09,19.3,41.8,50.54,42,50.77a6.28,6.28,0,0,1,.23,2.06c.23,6.43-2.52,13.79-7.12,20.21a46.32,46.32,0,0,1-14.46,12.87,42.44,42.44,0,0,1-20.45,5.51Z" transform="translate(-318.6 -190.6)"/></svg>