<?xml version="1.0" encoding="utf-8"?>
<!-- Generator: Adobe Illustrator 22.1.0, SVG Export Plug-In . SVG Version: 6.00 Build 0)  -->
<svg version="1.1" id="Layer_1" xmlns="http://www.w3.org/2000/svg" xmlns:xlink="http://www.w3.org/1999/xlink" x="0px" y="0px"
	 viewBox="0 0 1024 768" style="enable-background:new 0 0 1024 768;" xml:space="preserve">
<style type="text/css">
	.st0{fill:#0071BC;}
</style>
<path class="st0" d="M512.83,390.52c0.62,0.46,1.2,0.64,1.71,0.62c0.37,0,0.7-0.1,0.96-0.27c0.28-0.15,0.52-0.37,0.68-0.61
	c0.19-0.27,0.31-0.55,0.33-0.79c-0.15-0.34-0.85-1.85-2.37-2.85c-0.07-0.03-0.36-0.06-0.99,0.53c-0.12,0.1-0.3,0.13-0.43,0.06
	c-0.92-0.43-1.69-1.34-2.17-2.36v-0.01c-0.47-1.04-0.65-2.2-0.39-3.18c0.04-0.15,0.18-0.27,0.33-0.28c0.88-0.09,1.02-0.34,1.05-0.42
	c0.24-1.78-0.45-3.31-0.62-3.65c-0.19-0.15-0.47-0.24-0.8-0.27c-0.3-0.01-0.61,0.01-0.92,0.12c-0.3,0.12-0.58,0.3-0.82,0.56
	c-0.34,0.39-0.58,0.93-0.64,1.72c-0.16,2.14,0.25,4.26,1.13,6.17C509.75,387.56,511.1,389.25,512.83,390.52L512.83,390.52z
	 M520.03,377.35c0-0.22,0.18-0.39,0.39-0.39c0.21,0,0.39,0.16,0.39,0.39v0.73c0,0.21-0.18,0.37-0.39,0.37
	c-0.21,0-0.39-0.16-0.39-0.37V377.35z M520.03,379.38c0-0.21,0.18-0.39,0.39-0.39c0.21,0,0.39,0.18,0.39,0.39v7.33
	c0,0.21-0.18,0.39-0.39,0.39c-0.21,0-0.39-0.18-0.39-0.39V379.38z M504.32,373.7h15.58c0.73,0,1.38,0.3,1.85,0.77
	c0.47,0.47,0.77,1.13,0.77,1.84v15.58c0,0.73-0.3,1.38-0.77,1.85l-0.03,0.01c-0.47,0.46-1.11,0.76-1.82,0.76h-15.58
	c-0.71,0-1.36-0.3-1.84-0.77c-0.47-0.47-0.77-1.13-0.77-1.85v-15.58c0-0.71,0.3-1.36,0.77-1.84
	C502.95,374,503.61,373.7,504.32,373.7L504.32,373.7z M519.9,374.47h-15.58c-0.5,0-0.96,0.21-1.31,0.53
	c-0.33,0.34-0.53,0.8-0.53,1.31v15.58c0,0.52,0.21,0.98,0.53,1.31c0.34,0.34,0.8,0.55,1.31,0.55h15.58c0.5,0,0.96-0.19,1.29-0.52
	l0.01-0.03c0.34-0.33,0.55-0.79,0.55-1.31v-15.58c0-0.5-0.21-0.96-0.55-1.31C520.88,374.68,520.42,374.47,519.9,374.47L519.9,374.47
	z M504.45,371.61h15.33c1.34,0,2.54,0.53,3.41,1.41l0.01,0.01c0.88,0.88,1.41,2.08,1.41,3.41v15.33c0,1.34-0.55,2.54-1.42,3.41v0.01
	c-0.88,0.88-2.09,1.41-3.41,1.41h-15.33c-1.34,0-2.54-0.55-3.43-1.42l0,0c-0.88-0.88-1.41-2.09-1.41-3.41v-15.33
	c0-1.34,0.53-2.54,1.41-3.43h0.01C501.92,372.14,503.12,371.61,504.45,371.61L504.45,371.61z M519.78,372.36h-15.33
	c-1.13,0-2.15,0.46-2.88,1.2c-0.74,0.73-1.2,1.75-1.2,2.88v15.33c0,1.13,0.46,2.14,1.2,2.88c0.73,0.74,1.75,1.2,2.88,1.2h15.33
	c1.13,0,2.14-0.46,2.88-1.2c0.74-0.74,1.2-1.75,1.2-2.88v-15.33c0-1.13-0.46-2.15-1.2-2.88
	C521.92,372.82,520.91,372.36,519.78,372.36L519.78,372.36z M514.56,391.9c-0.65,0.02-1.39-0.21-2.18-0.77
	c-1.83-1.35-3.26-3.15-4.2-5.18c-0.93-2.02-1.37-4.29-1.19-6.54c0.07-0.96,0.39-1.66,0.82-2.17c0.34-0.37,0.73-0.62,1.14-0.77
	c0.42-0.15,0.83-0.19,1.22-0.16c0.53,0.04,1.01,0.22,1.31,0.49c0.04,0.04,0.07,0.07,0.09,0.12c0.01,0.01,1.04,1.88,0.74,4.17
	l-0.01,0.06c0,0-0.1,0.74-1.44,0.98c-0.13,0.74,0.03,1.62,0.39,2.4l0.01,0.01c0.36,0.8,0.92,1.5,1.59,1.88
	c0.98-0.8,1.59-0.5,1.66-0.46l0.04,0.03c1.94,1.25,2.7,3.26,2.72,3.28c0.01,0.04,0.01,0.09,0.01,0.13c0.01,0.42-0.16,0.89-0.46,1.31
	c-0.24,0.33-0.55,0.61-0.93,0.83C515.51,391.76,515.05,391.9,514.56,391.9L514.56,391.9z"/>
</svg>
