<svg id="Layer_1" data-name="Layer 1" xmlns="http://www.w3.org/2000/svg" viewBox="0 0 77.46 56.98"><defs><style>.cls-1{fill:red;}.cls-2{fill:#fff;}.cls-3{fill:none;stroke:#000;stroke-width:0.5px;opacity:0.15;}</style></defs><title>The Box and Me</title><path d="M79.74,37.16h.46a30.32,30.32,0,0,0,3.16.23.64.64,0,0,0,.57-.34c.11-.12,0-.34-.12-.46-2.26-3.16-4.63-6.22-6.89-9.38-.79-1-.91-1-1.59-.12h0c-2.71,2.72-5.54,5.43-8.25,8.15a1.22,1.22,0,0,0-.23.56,2.25,2.25,0,0,0,.57.34h.45c1,.11,2.15.11,3.17.23a11.27,11.27,0,0,1-2.49,9.72c-2.38,2.83-5.54,4.07-9.27,4.41a16.14,16.14,0,0,0,6,.91,14.21,14.21,0,0,0,13.91-11C79.4,39.31,79.52,38.29,79.74,37.16Z" transform="translate(-8.67 -4.93)"/><circle class="cls-1" cx="67.46" cy="10" r="10"/><path class="cls-2" d="M77.39,14.56v2.69H76.05V14.64c0-.76-.34-1.18-1.1-1.18a1.61,1.61,0,0,0-1.51,1v2.78H72.09V14.64c0-.76-.34-1.18-1.1-1.18a1.68,1.68,0,0,0-1.51.93v2.86H68.13V12.53h1.35v.85a2.24,2.24,0,0,1,1.94-1,1.77,1.77,0,0,1,1.85,1.26,2.15,2.15,0,0,1,2-1.26A2,2,0,0,1,77.39,14.56Z" transform="translate(-8.67 -4.93)"/><path class="cls-2" d="M81.52,16.49a2.6,2.6,0,0,0,1.77-.59l.67.76a3.73,3.73,0,0,1-2.61.84c-1.93,0-3-.92-3-2.52s1.1-2.53,3-2.53c1.68,0,2.86.84,2.86,2.53v.33H79.67C79.75,16.07,80.43,16.49,81.52,16.49Zm-1.85-2.1h3.2c-.17-.68-.76-.93-1.6-.93A1.42,1.42,0,0,0,79.67,14.39Z" transform="translate(-8.67 -4.93)"/><path d="M13.52,22.84H8.67v-4H22.55v4H17.7v16H13.52Z" transform="translate(-8.67 -4.93)"/><path d="M39.07,30.75H29.93v8.06H25.75v-20h4.18v7.91h9.14V18.81h4.18v20H39.07Z" transform="translate(-8.67 -4.93)"/><path d="M46.45,38.81v-20H57.83v4h-7.2v3.88h6.61v4H50.63v4h7.2v4Z" transform="translate(-8.67 -4.93)"/><path d="M8.67,41.67h6.94c3.65,0,6.23,2.14,6.23,5.32a4.61,4.61,0,0,1-2.38,4.38,5,5,0,0,1,2.94,4.77c0,3.29-2.76,5.53-6.61,5.53H8.67Zm6.91,4H12.84V49.4h2.74a1.86,1.86,0,1,0,0-3.71Zm.21,7.74H12.84v4.21h2.95c1.32,0,2.32-.65,2.32-2.09A2.05,2.05,0,0,0,15.79,53.43Z" transform="translate(-8.67 -4.93)"/><path class="cls-3" d="M34,41.67a10,10,0,0,1,0,20,10,10,0,0,1,0-20Z" transform="translate(-8.67 -4.93)"/><path d="M50.55,61.67H45.6l6-10.24L45.9,41.67h4.94l3.62,6.64,3.61-6.64h5l-5.71,9.76,6,10.24H58.4l-3.94-7.09Z" transform="translate(-8.67 -4.93)"/></svg>