<?xml version="1.0" encoding="utf-8"?>
<!-- Generator: Adobe Illustrator 23.0.3, SVG Export Plug-In . SVG Version: 6.00 Build 0)  -->
<svg version="1.1" id="Layer_1" xmlns="http://www.w3.org/2000/svg" xmlns:xlink="http://www.w3.org/1999/xlink" x="0px" y="0px"
	 viewBox="0 0 35 26.2" style="enable-background:new 0 0 35 26.2;" xml:space="preserve">
<style type="text/css">
	.st0{fill:#FF0000;}
	.st1{fill:#FFFFFF;}
	.st2{opacity:8.000000e-02;fill:none;stroke:#000000;stroke-width:0.25;}
</style>
<g>
	<path d="M29.4,15.1c0,0,0.1,0,0.2,0c0.4,0,0.8,0.1,1.2,0.1c0.1,0,0.2,0,0.2-0.1c0,0,0-0.1,0-0.2c-0.8-1.2-1.7-2.3-2.5-3.5
		c-0.3-0.4-0.3-0.4-0.6,0l0,0c-1,1-2,2-3,3c0,0-0.1,0.2-0.1,0.2c0,0,0.1,0.1,0.2,0.1c0,0,0.1,0,0.2,0c0.4,0,0.8,0,1.2,0.1
		c0.3,1.3,0,2.5-0.9,3.6s-2,1.5-3.4,1.6c0.8,0.3,1.5,0.4,2.2,0.3c2.5,0,4.6-1.7,5.1-4C29.3,15.9,29.4,15.6,29.4,15.1z"/>
	<g>
		<circle class="st0" cx="28.1" cy="6.4" r="4.4"/>
		<g>
			<path class="st1" d="M28.7,6.2v1.2h-0.6V6.2c0-0.3-0.1-0.5-0.5-0.5c-0.3,0-0.5,0.1-0.7,0.4v0V7v0.4h-0.6V6.2
				c0-0.3-0.1-0.5-0.5-0.5c-0.3,0-0.5,0.1-0.7,0.4v1.3h-0.6V5.3h0.6v0.4c0.1-0.3,0.5-0.4,0.9-0.4c0.4,0,0.7,0.2,0.8,0.6
				c0.1-0.3,0.5-0.6,0.9-0.6C28.4,5.3,28.7,5.7,28.7,6.2z"/>
			<path class="st1" d="M30.5,7c0.4,0,0.6-0.1,0.8-0.3l0.3,0.3c-0.3,0.3-0.7,0.4-1.1,0.4c-0.9,0-1.3-0.4-1.3-1.1s0.5-1.1,1.3-1.1
				c0.7,0,1.3,0.4,1.3,1.1c0,0.1,0,0.1,0,0.1h-2C29.7,6.9,30,7,30.5,7z M29.7,6.1h1.4c-0.1-0.3-0.3-0.4-0.7-0.4
				C30,5.7,29.8,5.8,29.7,6.1z"/>
		</g>
	</g>
	<g>
		<path d="M4.3,9.9H2.5V8.4h5.1v1.5H5.8v5.9H4.3V9.9z"/>
		<path d="M14.2,12.8h-3.4v3H9.3V8.4h1.5v2.9h3.4V8.4h1.5v7.4h-1.5V12.8z"/>
		<path d="M17.5,15.8V8.4h4.2v1.5H19v1.4h2.4v1.5H19v1.5h2.7v1.5H17.5z"/>
	</g>
	<g>
		<path d="M3.2,16.8h2.6c1.3,0,2.3,0.8,2.3,2c0,0.8-0.3,1.3-0.9,1.6c0.7,0.3,1.1,0.9,1.1,1.8c0,1.2-1,2-2.4,2H3.2V16.8z M5.8,18.3
			h-1v1.4h1c0.4,0,0.7-0.2,0.7-0.7S6.2,18.3,5.8,18.3z M5.8,21.1H4.8v1.6h1.1c0.5,0,0.9-0.2,0.9-0.8C6.7,21.4,6.3,21.1,5.8,21.1z"/>
		<path class="st2" d="M12.6,16.8c2.1,0,3.7,1.6,3.7,3.7s-1.6,3.7-3.7,3.7c-2.1,0-3.7-1.6-3.7-3.7S10.5,16.8,12.6,16.8z"/>
		<path d="M18.7,24.2h-1.8l2.2-3.8l-2.1-3.6h1.8l1.3,2.5l1.3-2.5h1.8l-2.1,3.6l2.2,3.8h-1.8l-1.5-2.6L18.7,24.2z"/>
	</g>
</g>
</svg>
