<?xml version="1.0" encoding="utf-8"?>
<!-- Generator: Adobe Illustrator 23.0.3, SVG Export Plug-In . SVG Version: 6.00 Build 0)  -->
<svg version="1.1" id="Layer_1" xmlns="http://www.w3.org/2000/svg" xmlns:xlink="http://www.w3.org/1999/xlink" x="0px" y="0px"
	 viewBox="0 0 27.5 20.9" style="enable-background:new 0 0 27.5 20.9;" xml:space="preserve">
<style type="text/css">
	.st0{fill:#FF0000;}
	.st1{fill:#FFFFFF;}
	.st2{opacity:5.000000e-02;fill:none;stroke:#000000;stroke-width:0.25;}
</style>
<g>
	<path d="M24.5,12.3c0,0,0.1,0,0.2,0c0.3,0,0.7,0.1,1.1,0.1c0.1,0,0.2,0,0.2-0.1c0,0,0-0.1,0-0.2c-0.8-1.1-1.5-2.1-2.3-3.1
		c-0.3-0.3-0.3-0.3-0.5,0l0,0c-0.9,0.9-1.8,1.8-2.7,2.7c0,0-0.1,0.2-0.1,0.2c0,0,0.1,0.1,0.2,0.1c0,0,0.1,0,0.2,0
		c0.3,0,0.7,0,1.1,0.1c0.2,1.2,0,2.3-0.8,3.2c-0.8,0.9-1.8,1.4-3.1,1.5c0.7,0.2,1.4,0.3,2,0.3c2.3,0,4.1-1.5,4.6-3.6
		C24.4,13,24.4,12.7,24.5,12.3z"/>
	<g>
		<circle class="st0" cx="23.3" cy="4.4" r="4"/>
		<g>
			<path class="st1" d="M23.8,4.3v1.1h-0.5v-1c0-0.3-0.1-0.5-0.4-0.5c-0.3,0-0.5,0.1-0.6,0.4v0V5v0.4h-0.5v-1c0-0.3-0.1-0.5-0.4-0.5
				c-0.3,0-0.5,0.1-0.6,0.4v1.1h-0.5V3.5h0.5v0.3c0.1-0.2,0.4-0.4,0.8-0.4c0.4,0,0.6,0.2,0.7,0.5c0.1-0.3,0.4-0.5,0.8-0.5
				C23.5,3.4,23.8,3.8,23.8,4.3z"/>
			<path class="st1" d="M25.4,5c0.3,0,0.5-0.1,0.7-0.2l0.3,0.3c-0.3,0.2-0.6,0.3-1,0.3c-0.8,0-1.2-0.4-1.2-1s0.4-1,1.2-1
				c0.7,0,1.1,0.3,1.1,1c0,0.1,0,0.1,0,0.1h-1.8C24.7,4.9,25,5,25.4,5z M24.7,4.2H26c-0.1-0.3-0.3-0.4-0.6-0.4
				C25,3.8,24.8,3.9,24.7,4.2z"/>
		</g>
	</g>
	<g>
		<path d="M1.9,7.6H0.2V6.2h4.6v1.3H3.2v5.3H1.9V7.6z"/>
		<path d="M10.8,10.2h-3v2.7H6.4V6.2h1.4v2.6h3V6.2h1.4v6.6h-1.4V10.2z"/>
		<path d="M13.8,12.9V6.2h3.8v1.3h-2.4v1.3h2.2v1.3h-2.2v1.3h2.4v1.3H13.8z"/>
	</g>
	<g>
		<path d="M0.9,13.8h2.3c1.2,0,2.1,0.7,2.1,1.8c0,0.7-0.3,1.2-0.8,1.5c0.6,0.3,1,0.8,1,1.6c0,1.1-0.9,1.8-2.2,1.8H0.9V13.8z
			 M3.2,15.1H2.3v1.2h0.9c0.4,0,0.7-0.2,0.7-0.6S3.6,15.1,3.2,15.1z M3.3,17.7h-1v1.4h1c0.4,0,0.8-0.2,0.8-0.7
			C4,17.9,3.7,17.7,3.3,17.7z"/>
		<path class="st2" d="M9.3,13.8c1.9,0,3.3,1.4,3.3,3.3c0,1.9-1.4,3.3-3.3,3.3C7.4,20.4,6,19,6,17.1C6,15.2,7.4,13.8,9.3,13.8z"/>
		<path d="M14.8,20.4h-1.6l2-3.4l-1.9-3.2h1.6l1.2,2.2l1.2-2.2h1.6L17,17.1l2,3.4h-1.6l-1.3-2.4L14.8,20.4z"/>
	</g>
</g>
</svg>
