<?xml version="1.0" encoding="utf-8"?>
<!-- Generator: Adobe Illustrator 23.0.3, SVG Export Plug-In . SVG Version: 6.00 Build 0)  -->
<svg version="1.1" id="Layer_1" xmlns="http://www.w3.org/2000/svg" xmlns:xlink="http://www.w3.org/1999/xlink" x="0px" y="0px"
	 viewBox="0 0 57.2 41.6" style="enable-background:new 0 0 57.2 41.6;" xml:space="preserve">
<style type="text/css">
	.st0{fill:#FF0000;}
	.st1{fill:#FFFFFF;}
	.st2{opacity:0.1;fill:none;stroke:#000000;stroke-width:0.25;}
</style>
<g>
	<path d="M49.1,23.1c0.1,0,0.2,0,0.3,0c0.6,0.1,1.3,0.1,1.9,0.1c0.1,0,0.3-0.1,0.3-0.2c0.1-0.1,0-0.2-0.1-0.3
		c-1.4-1.9-2.9-3.8-4.2-5.8c-0.5-0.6-0.6-0.6-1-0.1l0,0c-1.7,1.7-3.4,3.3-5.1,5c-0.1,0.1-0.1,0.3-0.1,0.3c0.1,0.1,0.2,0.1,0.3,0.2
		c0.1,0,0.1,0,0.3,0c0.6,0.1,1.3,0.1,1.9,0.1c0.4,2.2-0.1,4.2-1.5,6c-1.5,1.7-3.4,2.5-5.7,2.7c1.3,0.4,2.5,0.6,3.7,0.6
		c4.2-0.1,7.6-2.8,8.6-6.7C48.9,24.5,49,23.8,49.1,23.1z"/>
	<g>
		<circle class="st0" cx="46.9" cy="8.5" r="7.3"/>
		<g>
			<path class="st1" d="M47.8,8.2v2h-1V8.3c0-0.6-0.2-0.9-0.8-0.9c-0.5,0-0.9,0.2-1.1,0.7v0.1v1.3v0.7h-1V8.3c0-0.6-0.2-0.9-0.8-0.9
				c-0.5,0-0.9,0.2-1.1,0.7v2.1h-1V6.7h1v0.6c0.2-0.4,0.8-0.7,1.4-0.7c0.7,0,1.2,0.4,1.4,0.9C45,7,45.6,6.6,46.3,6.6
				C47.3,6.7,47.8,7.3,47.8,8.2z"/>
			<path class="st1" d="M50.8,9.6c0.6,0,1-0.2,1.3-0.4l0.5,0.6c-0.5,0.4-1.1,0.6-1.9,0.6c-1.4,0-2.2-0.7-2.2-1.9s0.8-1.9,2.2-1.9
				c1.2,0,2.1,0.6,2.1,1.9c0,0.1,0,0.2,0,0.2h-3.3C49.5,9.3,50,9.6,50.8,9.6z M49.5,8.1h2.3c-0.1-0.5-0.6-0.7-1.2-0.7
				C50.1,7.3,49.7,7.6,49.5,8.1z"/>
		</g>
	</g>
	<g>
		<path d="M7.2,14.3h-3v-2.5h8.5v2.5h-3v9.8H7.2V14.3z"/>
		<path d="M23.8,19.2h-5.6v5h-2.6V11.8h2.6v4.9h5.6v-4.9h2.6v12.3h-2.6V19.2z"/>
		<path d="M29.2,24.1V11.8h7v2.5h-4.4v2.4h4.1v2.5h-4.1v2.5h4.4v2.5H29.2z"/>
	</g>
	<g>
		<path d="M5.4,25.9h4.3c2.2,0,3.8,1.3,3.8,3.3c0,1.3-0.6,2.2-1.5,2.7c1.1,0.5,1.8,1.5,1.8,2.9c0,2-1.7,3.4-4.1,3.4H5.4V25.9z
			 M9.7,28.4H8v2.3h1.7c0.7,0,1.2-0.4,1.2-1.1C10.9,28.7,10.3,28.4,9.7,28.4z M9.8,33.1H8v2.6h1.8c0.8,0,1.4-0.4,1.4-1.3
			C11.2,33.6,10.6,33.1,9.8,33.1z"/>
		<path class="st2" d="M21,25.9c3.5,0,6.1,2.7,6.1,6.1s-2.7,6.1-6.1,6.1c-3.5,0-6.1-2.7-6.1-6.1S17.5,25.9,21,25.9z"/>
		<path d="M31.2,38.2h-3l3.7-6.3l-3.5-6h3l2.2,4.1l2.2-4.1h3l-3.5,6l3.7,6.3h-3l-2.4-4.4L31.2,38.2z"/>
	</g>
</g>
</svg>
