<?xml version="1.0" encoding="utf-8"?>
<!-- Generator: Adobe Illustrator 23.0.3, SVG Export Plug-In . SVG Version: 6.00 Build 0)  -->
<svg version="1.1" id="Layer_1" xmlns="http://www.w3.org/2000/svg" xmlns:xlink="http://www.w3.org/1999/xlink" x="0px" y="0px"
	 viewBox="0 0 45 34.3" style="enable-background:new 0 0 45 34.3;" xml:space="preserve">
<style type="text/css">
	.st0{fill:#FF0000;}
	.st1{fill:#FFFFFF;}
	.st2{opacity:0.1;fill:none;stroke:#000000;stroke-width:0.25;}
</style>
<g>
	<path d="M38.6,19.9c0.1,0,0.2,0,0.2,0c0.5,0.1,1.1,0.1,1.6,0.1c0.1,0,0.2-0.1,0.3-0.2c0.1-0.1,0-0.2-0.1-0.2
		c-1.1-1.6-2.3-3.1-3.4-4.7c-0.4-0.5-0.5-0.5-0.8-0.1l0,0c-1.4,1.4-2.8,2.7-4.1,4.1c-0.1,0.1-0.1,0.2-0.1,0.3
		c0.1,0.1,0.2,0.1,0.3,0.2c0.1,0,0.1,0,0.2,0c0.5,0.1,1.1,0.1,1.6,0.1c0.3,1.8-0.1,3.4-1.2,4.8c-1.2,1.4-2.8,2-4.6,2.2
		c1,0.3,2,0.5,3,0.5c3.4-0.1,6.2-2.3,6.9-5.5C38.4,21,38.5,20.5,38.6,19.9z"/>
	<g>
		<circle class="st0" cx="36.8" cy="8.1" r="5.9"/>
		<g>
			<path class="st1" d="M37.5,7.8v1.6h-0.8V7.9c0-0.4-0.2-0.7-0.6-0.7c-0.4,0-0.7,0.2-0.9,0.6v0v1v0.5h-0.8V7.9
				c0-0.4-0.2-0.7-0.6-0.7c-0.4,0-0.7,0.2-0.9,0.5v1.7h-0.8V6.6h0.8v0.5c0.2-0.3,0.6-0.6,1.1-0.6c0.6,0,0.9,0.3,1.1,0.7
				c0.2-0.4,0.6-0.7,1.2-0.7C37.2,6.6,37.5,7.1,37.5,7.8z"/>
			<path class="st1" d="M40,9c0.5,0,0.8-0.1,1-0.3l0.4,0.4c-0.4,0.3-0.9,0.5-1.5,0.5c-1.1,0-1.8-0.5-1.8-1.5s0.6-1.5,1.7-1.5
				c1,0,1.7,0.5,1.7,1.5c0,0.1,0,0.1,0,0.2h-2.6C38.9,8.7,39.3,9,40,9z M38.9,7.7h1.9c-0.1-0.4-0.4-0.5-0.9-0.5
				C39.4,7.1,39,7.3,38.9,7.7z"/>
		</g>
	</g>
	<g>
		<path d="M4.6,12.8H2.2v-2h6.9v2H6.7v8H4.6V12.8z"/>
		<path d="M18.1,16.7h-4.6v4h-2.1v-10h2.1v3.9h4.6v-3.9h2.1v10h-2.1V16.7z"/>
		<path d="M22.5,20.7v-10h5.7v2h-3.6v1.9h3.3v2h-3.3v2h3.6v2H22.5z"/>
	</g>
	<g>
		<path d="M3.2,22.2h3.5c1.8,0,3.1,1.1,3.1,2.7c0,1.1-0.5,1.8-1.2,2.2c0.9,0.4,1.5,1.2,1.5,2.4c0,1.6-1.4,2.8-3.3,2.8H3.2V22.2z
			 M6.6,24.2H5.3V26h1.4c0.6,0,1-0.3,1-0.9S7.2,24.2,6.6,24.2z M6.7,28H5.3v2.1h1.5c0.7,0,1.2-0.3,1.2-1C7.9,28.4,7.4,28,6.7,28z"/>
		<path class="st2" d="M15.8,22.2c2.8,0,5,2.2,5,5s-2.1,5-5,5c-2.8,0-5-2.2-5-5S13,22.2,15.8,22.2z"/>
		<path d="M24.1,32.1h-2.5l3-5.1l-2.9-4.9h2.5l1.8,3.3l1.8-3.3h2.5L27.4,27l3,5.1H28l-2-3.5L24.1,32.1z"/>
	</g>
</g>
</svg>
