<?xml version="1.0" encoding="utf-8"?>
<!-- Generator: Adobe Illustrator 23.0.3, SVG Export Plug-In . SVG Version: 6.00 Build 0)  -->
<svg version="1.1" id="Layer_1" xmlns="http://www.w3.org/2000/svg" xmlns:xlink="http://www.w3.org/1999/xlink" x="0px" y="0px"
	 viewBox="0 0 27.5 20.9" style="enable-background:new 0 0 27.5 20.9;" xml:space="preserve">
<style type="text/css">
	.st0{fill:#FF0000;}
	.st1{fill:#FFFFFF;}
	.st2{opacity:8.000000e-02;fill:none;stroke:#000000;stroke-width:0.25;}
</style>
<g>
	<path d="M19.7,11.5C19.7,11.5,19.8,11.5,19.7,11.5c0.3,0,0.5,0,0.7,0c0,0,0.1,0,0.1-0.1c0,0,0-0.1,0-0.1c-0.4-0.6-0.9-1.1-1.3-1.7
		c-0.1-0.2-0.2-0.2-0.3,0l0,0c-0.5,0.5-1,1-1.5,1.5c0,0,0,0.1,0,0.1c0,0,0.1,0,0.1,0.1c0,0,0,0,0.1,0c0.2,0,0.4,0,0.6,0
		c0.1,0.7,0,1.3-0.5,1.8c-0.4,0.5-1,0.8-1.7,0.8c0.4,0.1,0.8,0.2,1.1,0.2c1.3,0,2.3-0.8,2.6-2C19.7,11.9,19.7,11.7,19.7,11.5z"/>
	<g>
		<circle class="st0" cx="19.1" cy="7.1" r="2.2"/>
		<g>
			<path class="st1" d="M19.3,7v0.6H19V7c0-0.2-0.1-0.3-0.2-0.3c-0.1,0-0.3,0.1-0.3,0.2v0v0.4v0.2h-0.3V7c0-0.2-0.1-0.3-0.2-0.3
				c-0.1,0-0.3,0.1-0.3,0.2v0.6h-0.3v-1h0.3v0.2c0.1-0.1,0.2-0.2,0.4-0.2c0.2,0,0.4,0.1,0.4,0.3c0.1-0.2,0.2-0.3,0.4-0.3
				C19.2,6.5,19.3,6.7,19.3,7z"/>
			<path class="st1" d="M20.2,7.4c0.2,0,0.3-0.1,0.4-0.1l0.1,0.2c-0.1,0.1-0.3,0.2-0.6,0.2c-0.4,0-0.7-0.2-0.7-0.6s0.2-0.6,0.6-0.6
				c0.4,0,0.6,0.2,0.6,0.6c0,0,0,0.1,0,0.1h-1C19.8,7.3,20,7.4,20.2,7.4z M19.8,7h0.7c0-0.1-0.2-0.2-0.4-0.2C20,6.7,19.9,6.8,19.8,7
				z"/>
		</g>
	</g>
	<g>
		<path d="M7.1,8.8H6.2V8.1h2.6v0.7H7.9v2.9H7.1V8.8z"/>
		<path d="M12.1,10.3h-1.7v1.5H9.7V8.1h0.8v1.5h1.7V8.1h0.8v3.7h-0.8V10.3z"/>
		<path d="M13.8,11.8V8.1h2.1v0.7h-1.3v0.7h1.2v0.7h-1.2V11h1.3v0.7H13.8z"/>
	</g>
	<g>
		<path d="M6.6,12.3h1.3c0.7,0,1.2,0.4,1.2,1c0,0.4-0.2,0.7-0.4,0.8c0.3,0.2,0.5,0.4,0.5,0.9c0,0.6-0.5,1-1.2,1H6.6V12.3z M7.9,13.1
			H7.4v0.7h0.5c0.2,0,0.4-0.1,0.4-0.3S8.1,13.1,7.9,13.1z M7.9,14.5H7.4v0.8h0.5c0.2,0,0.4-0.1,0.4-0.4C8.3,14.6,8.2,14.5,7.9,14.5z
			"/>
		<path class="st2" d="M11.3,12.3c1,0,1.8,0.8,1.8,1.8S12.3,16,11.3,16c-1,0-1.8-0.8-1.8-1.8S10.2,12.3,11.3,12.3z"/>
		<path d="M14.3,16h-0.9l1.1-1.9l-1.1-1.8h0.9l0.7,1.2l0.7-1.2h0.9l-1.1,1.8l1.1,1.9h-0.9l-0.7-1.3L14.3,16z"/>
	</g>
</g>
</svg>
