<?xml version="1.0" encoding="utf-8"?>
<!-- Generator: Adobe Illustrator 23.0.3, SVG Export Plug-In . SVG Version: 6.00 Build 0)  -->
<svg version="1.1" id="Layer_1" xmlns="http://www.w3.org/2000/svg" xmlns:xlink="http://www.w3.org/1999/xlink" x="0px" y="0px"
	 viewBox="0 0 59.9 42.4" style="enable-background:new 0 0 59.9 42.4;" xml:space="preserve">
<style type="text/css">
	.st0{fill:#FF0000;}
	.st1{fill:#FFFFFF;}
	.st2{opacity:5.000000e-02;fill:none;stroke:#000000;stroke-width:0.25;}
</style>
<g>
	<path d="M50.8,23.7c0.1,0,0.2,0,0.3,0c0.7,0.1,1.4,0.1,2,0.1c0.1,0,0.3-0.1,0.4-0.2c0.1-0.1,0-0.2-0.1-0.3c-1.5-2-3-4-4.5-6.1
		c-0.5-0.7-0.6-0.7-1-0.1l0,0c-1.8,1.8-3.6,3.5-5.3,5.3c-0.1,0.1-0.1,0.3-0.1,0.4c0.1,0.1,0.2,0.1,0.4,0.2c0.1,0,0.1,0,0.3,0
		c0.7,0.1,1.4,0.1,2,0.1c0.4,2.3-0.1,4.5-1.6,6.3c-1.5,1.8-3.6,2.6-6,2.8c1.3,0.4,2.6,0.7,3.9,0.6c4.4-0.1,8-2.9,9-7.1
		C50.6,25.1,50.7,24.4,50.8,23.7z"/>
	<g>
		<circle class="st0" cx="48.5" cy="9.3" r="6.5"/>
		<g>
			<path class="st1" d="M49.3,9.1v1.7h-0.9V9.1c0-0.5-0.2-0.8-0.7-0.8c-0.4,0-0.8,0.2-1,0.7v0.1v1.1v0.6h-0.9V9.1
				c0-0.5-0.2-0.8-0.7-0.8c-0.4,0-0.8,0.2-1,0.6v1.8h-0.9v-3h0.9v0.5c0.2-0.4,0.7-0.7,1.3-0.7c0.7,0,1,0.3,1.2,0.8
				C46.9,8,47.4,7.7,48,7.7C48.9,7.7,49.3,8.3,49.3,9.1z"/>
			<path class="st1" d="M52,10.3c0.5,0,0.9-0.2,1.1-0.4l0.4,0.5c-0.4,0.4-1,0.5-1.7,0.5c-1.3,0-2-0.6-2-1.6s0.7-1.6,1.9-1.6
				c1.1,0,1.8,0.5,1.8,1.6c0,0.1,0,0.2,0,0.2h-2.9C50.8,10.1,51.3,10.3,52,10.3z M50.8,9h2.1c-0.1-0.4-0.5-0.6-1-0.6
				C51.3,8.3,50.9,8.5,50.8,9z"/>
		</g>
	</g>
	<g>
		<g>
			<path d="M8.1,14.4H5v-2.6h9v2.6h-3.1v10.3H8.1V14.4z"/>
			<path d="M24.6,19.5h-5.9v5.2H16V11.8h2.7v5.1h5.9v-5.1h2.7v12.9h-2.7V19.5z"/>
			<path d="M29.3,24.7V11.8h7.3v2.6H32v2.5h4.3v2.6H32v2.6h4.7v2.6H29.3z"/>
		</g>
		<g>
			<path d="M5,26.6h4.5c2.4,0,4,1.4,4,3.4c0,1.4-0.6,2.3-1.5,2.8c1.1,0.6,1.9,1.6,1.9,3.1c0,2.1-1.8,3.6-4.3,3.6H5V26.6z M9.4,29.2
				H7.7v2.4h1.8c0.7,0,1.3-0.4,1.3-1.2S10.1,29.2,9.4,29.2z M9.6,34.2H7.7v2.7h1.9c0.9,0,1.5-0.4,1.5-1.3
				C11.1,34.6,10.4,34.2,9.6,34.2z"/>
			<path class="st2" d="M21.3,26.6c3.7,0,6.5,2.8,6.5,6.5s-2.8,6.5-6.5,6.5c-3.7,0-6.5-2.8-6.5-6.5S17.6,26.6,21.3,26.6z"/>
			<path d="M32,39.5h-3.2l3.9-6.6L29,26.6h3.2l2.3,4.3l2.3-4.3H40l-3.7,6.3l3.9,6.6h-3.2l-2.5-4.6L32,39.5z"/>
		</g>
	</g>
</g>
</svg>
