<svg id="Layer_1" data-name="Layer 1" xmlns="http://www.w3.org/2000/svg" viewBox="0 0 60 44.19"><defs><style>.cls-1{fill:red;}.cls-2{fill:#fff;}.cls-3{fill:none;stroke:#000;stroke-width:0.5px;opacity:0.15;}</style></defs><title>The Box and Me</title><path d="M72.45,36.29h.35a22.59,22.59,0,0,0,2.46.17.46.46,0,0,0,.43-.26c.09-.09,0-.26-.08-.35C73.85,33.4,72,31,70.26,28.58c-.61-.79-.7-.79-1.22-.09h0c-2.11,2.11-4.3,4.21-6.4,6.31a.9.9,0,0,0-.17.44,1.79,1.79,0,0,0,.43.26h.36c.78.09,1.66.09,2.45.18a8.72,8.72,0,0,1-1.93,7.53,10.06,10.06,0,0,1-7.18,3.42,12.73,12.73,0,0,0,4.64.7A11,11,0,0,0,72,38.83C72.19,38,72.28,37.17,72.45,36.29Z" transform="translate(-17.4 -11.33)"/><circle class="cls-1" cx="52.25" cy="7.75" r="7.75"/><path class="cls-2" d="M70.63,18.78v2.09h-1v-2c0-.59-.26-.92-.85-.92a1.24,1.24,0,0,0-1.17.79v2.15h-1v-2c0-.59-.26-.92-.84-.92a1.29,1.29,0,0,0-1.18.72v2.22h-1V17.22h1v.65a1.73,1.73,0,0,1,1.5-.78,1.39,1.39,0,0,1,1.44,1,1.67,1.67,0,0,1,1.56-1A1.58,1.58,0,0,1,70.63,18.78Z" transform="translate(-17.4 -11.33)"/><path class="cls-2" d="M73.83,20.28a2,2,0,0,0,1.37-.45l.52.58a2.88,2.88,0,0,1-2,.65c-1.5,0-2.35-.71-2.35-1.95s.85-2,2.28-2,2.22.65,2.22,2v.26H72.39C72.46,20,73,20.28,73.83,20.28Zm-1.44-1.63h2.48c-.13-.52-.58-.72-1.24-.72A1.12,1.12,0,0,0,72.39,18.65Z" transform="translate(-17.4 -11.33)"/><path d="M21.16,25.2H17.4V22.08H28.15V25.2H24.39V37.57H21.16Z" transform="translate(-17.4 -11.33)"/><path d="M41,31.33H33.87v6.24H30.63V22.08h3.24v6.13H41V22.08h3.24V37.57H41Z" transform="translate(-17.4 -11.33)"/><path d="M46.66,37.57V22.08h8.82V25.2H49.9v3H55v3.12H49.9v3.12h5.58v3.12Z" transform="translate(-17.4 -11.33)"/><path d="M17.4,39.78h5.38c2.82,0,4.83,1.66,4.83,4.12a3.57,3.57,0,0,1-1.85,3.4A3.86,3.86,0,0,1,28,51c0,2.55-2.14,4.28-5.13,4.28H17.4Zm5.35,3.12H20.63v2.87h2.12a1.44,1.44,0,1,0,0-2.87Zm.16,6H20.63v3.26h2.28c1,0,1.8-.5,1.8-1.62A1.59,1.59,0,0,0,22.91,48.89Z" transform="translate(-17.4 -11.33)"/><path class="cls-3" d="M37,39.78a7.75,7.75,0,1,1-7.74,7.74A7.59,7.59,0,0,1,37,39.78Z" transform="translate(-17.4 -11.33)"/><path d="M49.84,55.27H46l4.67-7.93-4.44-7.56h3.82l2.81,5.15,2.8-5.15H59.5l-4.42,7.56,4.64,7.93h-3.8l-3.05-5.49Z" transform="translate(-17.4 -11.33)"/></svg>