<?xml version="1.0" encoding="utf-8"?>
<!-- Generator: Adobe Illustrator 23.0.3, SVG Export Plug-In . SVG Version: 6.00 Build 0)  -->
<svg version="1.1" id="Layer_1" xmlns="http://www.w3.org/2000/svg" xmlns:xlink="http://www.w3.org/1999/xlink" x="0px" y="0px"
	 viewBox="0 0 27.5 20.9" style="enable-background:new 0 0 27.5 20.9;" xml:space="preserve">
<style type="text/css">
	.st0{fill:#FF0000;}
	.st1{opacity:5.000000e-02;fill:none;stroke:#000000;stroke-width:0.25;enable-background:new    ;}
</style>
<g>
	<path d="M23.7,12.2h0.1c0.3,0,0.7,0.1,1,0.1c0.1,0,0.1,0,0.2-0.1v-0.1c-0.7-1-1.4-1.9-2.1-2.9c-0.2-0.3-0.3-0.3-0.5,0l0,0
		c-0.8,0.8-1.7,1.7-2.5,2.5c0,0-0.1,0.1-0.1,0.2c0,0,0.1,0.1,0.2,0.1h0.1c0.3,0,0.7,0,1,0.1c0.2,1.1,0,2.1-0.8,3
		c-0.7,0.9-1.7,1.3-2.9,1.4c0.6,0.2,1.3,0.3,1.8,0.3c2.1,0,3.8-1.4,4.3-3.4C23.6,12.8,23.6,12.5,23.7,12.2z"/>
	<g>
		<circle class="st0" cx="22.6" cy="4.9" r="3.7"/>
	</g>
	<g>
		<path d="M2.7,7.8H1.2V6.5h4.3v1.2H4v4.9H2.7V7.8z"/>
		<path d="M11,10.2H8.2v2.5H6.9V6.5h1.3V9H11V6.5h1.3v6.1H11V10.2z"/>
		<path d="M13.8,12.7V6.5h3.5v1.2H15V9h2v1.2h-2v1.2h2.2v1.2h-3.4V12.7z"/>
	</g>
	<g>
		<path d="M1.8,13.6H4c1.1,0,1.9,0.7,1.9,1.6c0,0.7-0.3,1.1-0.7,1.3c0.5,0.3,0.9,0.7,0.9,1.5c0,1-0.9,1.7-2,1.7H1.8V13.6z M4,14.8
			H3.1v1.1H4c0.3,0,0.6-0.2,0.6-0.6S4.3,14.8,4,14.8z M4,17.2H3.1v1.3H4c0.4,0,0.7-0.2,0.7-0.6C4.7,17.4,4.4,17.2,4,17.2z"/>
		<path class="st1" d="M9.6,13.6c1.7,0,3.1,1.3,3.1,3.1c0,1.7-1.3,3.1-3.1,3.1c-1.7,0-3.1-1.3-3.1-3.1C6.6,14.9,7.9,13.6,9.6,13.6z"
			/>
		<path d="M14.7,19.7h-1.5l1.9-3.1l-1.8-3h1.5l1.1,2l1.1-2h1.5l-1.8,3l1.8,3.1H17l-1.2-2.2L14.7,19.7z"/>
	</g>
</g>
</svg>
