<?xml version="1.0" encoding="utf-8"?>
<!-- Generator: Adobe Illustrator 23.0.3, SVG Export Plug-In . SVG Version: 6.00 Build 0)  -->
<svg version="1.1" id="Layer_1" xmlns="http://www.w3.org/2000/svg" xmlns:xlink="http://www.w3.org/1999/xlink" x="0px" y="0px"
	 viewBox="0 0 59.9 42.4" style="enable-background:new 0 0 59.9 42.4;" xml:space="preserve">
<style type="text/css">
	.st0{fill:#FF0000;}
	.st1{fill:#FFFFFF;}
	.st2{opacity:5.000000e-02;fill:none;stroke:#000000;stroke-width:0.25;}
</style>
<g>
	<path d="M51.5,23.7c0.1,0,0.2,0,0.3,0c0.7,0.1,1.4,0.1,2,0.1c0.1,0,0.3-0.1,0.4-0.2c0.1-0.1,0-0.2-0.1-0.3c-1.5-2-3-4-4.5-6.1
		c-0.5-0.7-0.6-0.7-1-0.1l0,0c-1.8,1.8-3.6,3.5-5.3,5.3c-0.1,0.1-0.1,0.3-0.1,0.4c0.1,0.1,0.2,0.1,0.4,0.2c0.1,0,0.1,0,0.3,0
		c0.7,0.1,1.4,0.1,2,0.1c0.4,2.3-0.1,4.5-1.6,6.3c-1.5,1.8-3.6,2.6-6,2.8c1.3,0.4,2.6,0.7,3.9,0.6c4.4-0.1,8-2.9,9-7.1
		C51.2,25.1,51.3,24.4,51.5,23.7z"/>
	<g>
		<circle class="st0" cx="49.1" cy="9.3" r="6.5"/>
		<g>
			<path class="st1" d="M49.9,9.1v1.7h-0.9V9.1c0-0.5-0.2-0.8-0.7-0.8c-0.4,0-0.8,0.2-1,0.7v0.1v1.1v0.6h-0.9V9.1
				c0-0.5-0.2-0.8-0.7-0.8c-0.4,0-0.8,0.2-1,0.6v1.8H44v-3h0.9v0.5c0.2-0.4,0.7-0.7,1.3-0.7c0.7,0,1,0.3,1.2,0.8
				C47.5,8,48,7.7,48.6,7.7C49.5,7.7,49.9,8.3,49.9,9.1z"/>
			<path class="st1" d="M52.6,10.3c0.5,0,0.9-0.2,1.1-0.4l0.4,0.5c-0.4,0.4-1,0.5-1.7,0.5c-1.3,0-2-0.6-2-1.6s0.7-1.6,1.9-1.6
				c1.1,0,1.8,0.5,1.8,1.6c0,0.1,0,0.2,0,0.2h-2.9C51.5,10.1,51.9,10.3,52.6,10.3z M51.4,9h2.1c-0.1-0.4-0.5-0.6-1-0.6
				C52,8.3,51.6,8.5,51.4,9z"/>
		</g>
	</g>
	<g>
		<path d="M7.5,14.4H4.3v-2.6h9v2.6h-3.1v10.3H7.5V14.4z"/>
		<path d="M24.9,19.5H19v5.2h-2.7V11.8H19v5.1h5.9v-5.1h2.7v12.9h-2.7V19.5z"/>
		<path d="M30.6,24.7V11.8h7.3v2.6h-4.7v2.5h4.3v2.6h-4.3v2.6h4.7v2.6H30.6z"/>
	</g>
	<g>
		<path d="M5.6,26.6h4.5c2.4,0,4,1.4,4,3.4c0,1.4-0.6,2.3-1.5,2.8c1.1,0.6,1.9,1.6,1.9,3.1c0,2.1-1.8,3.6-4.3,3.6H5.6V26.6z
			 M10,29.2H8.3v2.4H10c0.7,0,1.3-0.4,1.3-1.2S10.8,29.2,10,29.2z M10.2,34.2H8.3v2.7h1.9c0.9,0,1.5-0.4,1.5-1.3
			C11.7,34.6,11,34.2,10.2,34.2z"/>
		<path class="st2" d="M21.9,26.6c3.7,0,6.5,2.8,6.5,6.5s-2.8,6.5-6.5,6.5c-3.7,0-6.5-2.8-6.5-6.5S18.3,26.6,21.9,26.6z"/>
		<path d="M32.6,39.5h-3.2l3.9-6.6l-3.7-6.3h3.2l2.3,4.3l2.3-4.3h3.2L37,32.9l3.9,6.6h-3.2l-2.5-4.6L32.6,39.5z"/>
	</g>
</g>
</svg>
