<?xml version="1.0" encoding="utf-8"?>
<!-- Generator: Adobe Illustrator 23.0.3, SVG Export Plug-In . SVG Version: 6.00 Build 0)  -->
<svg version="1.1" id="Layer_1" xmlns="http://www.w3.org/2000/svg" xmlns:xlink="http://www.w3.org/1999/xlink" x="0px" y="0px"
	 viewBox="0 0 59.9 42.4" style="enable-background:new 0 0 59.9 42.4;" xml:space="preserve">
<style type="text/css">
	.st0{fill:#FF0000;}
	.st1{fill:#FFFFFF;}
	.st2{opacity:0.15;fill:none;stroke:#000000;stroke-width:0.5;}
</style>
<g>
	<path d="M47.1,23.2c0.1,0,0.2,0,0.2,0c0.5,0.1,1.1,0.1,1.7,0.1c0.1,0,0.2-0.1,0.3-0.2c0.1-0.1,0-0.2-0.1-0.2
		c-1.2-1.7-2.5-3.3-3.6-5c-0.4-0.5-0.5-0.5-0.8-0.1l0,0c-1.4,1.4-2.9,2.9-4.4,4.3c-0.1,0.1-0.1,0.2-0.1,0.3c0.1,0.1,0.2,0.1,0.3,0.2
		c0.1,0,0.1,0,0.2,0c0.5,0.1,1.1,0.1,1.7,0.1c0.4,1.9-0.1,3.6-1.3,5.1c-1.3,1.5-2.9,2.2-4.9,2.3c1.1,0.4,2.2,0.5,3.2,0.5
		c3.6-0.1,6.6-2.4,7.4-5.8C46.9,24.4,46.9,23.8,47.1,23.2z"/>
	<g>
		<circle class="st0" cx="45.2" cy="11.5" r="5.3"/>
		<g>
			<path class="st1" d="M45.8,11.3v1.4h-0.7v-1.4c0-0.4-0.2-0.6-0.6-0.6c-0.4,0-0.6,0.2-0.8,0.5v0v0.9v0.5H43v-1.4
				c0-0.4-0.2-0.6-0.6-0.6c-0.4,0-0.6,0.2-0.8,0.5v1.5h-0.7v-2.5h0.7v0.4c0.2-0.3,0.6-0.5,1-0.5c0.5,0,0.8,0.3,1,0.7
				c0.2-0.4,0.6-0.7,1.1-0.7C45.5,10.2,45.8,10.7,45.8,11.3z"/>
			<path class="st1" d="M48,12.3c0.4,0,0.7-0.1,0.9-0.3l0.4,0.4c-0.4,0.3-0.8,0.4-1.4,0.4c-1,0-1.6-0.5-1.6-1.3
				c0-0.8,0.6-1.3,1.6-1.3c0.9,0,1.5,0.4,1.5,1.3c0,0.1,0,0.1,0,0.2H47C47.1,12.1,47.4,12.3,48,12.3z M47,11.2h1.7
				c-0.1-0.4-0.4-0.5-0.8-0.5C47.5,10.7,47.2,10.8,47,11.2z"/>
		</g>
	</g>
	<g>
		<g>
			<path d="M12,15.7H9.5v-2.1h7.3v2.1h-2.6v8.4H12V15.7z"/>
			<path d="M25.6,19.8h-4.8v4.3h-2.2V13.5h2.2v4.2h4.8v-4.2h2.2v10.6h-2.2V19.8z"/>
			<path d="M29.5,24.1V13.5h6v2.1h-3.8v2.1h3.5v2.1h-3.5V22h3.8v2.1H29.5z"/>
		</g>
		<g>
			<path d="M9.5,25.6h3.7c1.9,0,3.3,1.1,3.3,2.8c0,1.2-0.5,1.9-1.3,2.3c0.9,0.5,1.6,1.3,1.6,2.5c0,1.7-1.5,2.9-3.5,2.9H9.5V25.6z
				 M13.1,27.7h-1.4v2h1.4c0.6,0,1-0.3,1-1C14.2,28.1,13.7,27.7,13.1,27.7z M13.2,31.8h-1.6v2.2h1.6c0.7,0,1.2-0.3,1.2-1.1
				C14.5,32.2,13.9,31.8,13.2,31.8z"/>
			<path class="st2" d="M22.9,25.6c3,0,5.3,2.3,5.3,5.3s-2.3,5.3-5.3,5.3c-3,0-5.3-2.3-5.3-5.3S19.9,25.6,22.9,25.6z"/>
			<path d="M31.6,36.2H29l3.2-5.4l-3-5.2h2.6l1.9,3.5l1.9-3.5h2.6l-3,5.2l3.2,5.4h-2.6l-2.1-3.7L31.6,36.2z"/>
		</g>
	</g>
</g>
</svg>
