<?xml version="1.0" encoding="utf-8"?>
<!-- Generator: Adobe Illustrator 23.0.3, SVG Export Plug-In . SVG Version: 6.00 Build 0)  -->
<svg version="1.1" id="Layer_1" xmlns="http://www.w3.org/2000/svg" xmlns:xlink="http://www.w3.org/1999/xlink" x="0px" y="0px"
	 viewBox="0 0 59.9 42.4" style="enable-background:new 0 0 59.9 42.4;" xml:space="preserve">
<style type="text/css">
	.st0{fill:#FF0000;}
	.st1{fill:#FFFFFF;}
	.st2{opacity:0.15;fill:none;stroke:#000000;stroke-width:0.5;}
</style>
<g>
	<path d="M42.5,22.7c0,0,0.1,0,0.2,0c0.4,0,0.8,0.1,1.2,0.1c0.1,0,0.2,0,0.2-0.1c0,0,0-0.1,0-0.2c-0.9-1.2-1.8-2.4-2.7-3.6
		c-0.3-0.4-0.4-0.4-0.6,0l0,0c-1.1,1.1-2.1,2.1-3.2,3.2c0,0-0.1,0.2-0.1,0.2c0,0,0.1,0.1,0.2,0.1c0,0,0.1,0,0.2,0
		c0.4,0,0.8,0,1.2,0.1c0.3,1.4,0,2.7-1,3.8c-0.9,1.1-2.1,1.6-3.6,1.7c0.8,0.3,1.6,0.4,2.3,0.4c2.6,0,4.8-1.8,5.4-4.2
		C42.4,23.5,42.4,23.1,42.5,22.7z"/>
	<g>
		<circle class="st0" cx="41.1" cy="14.1" r="3.9"/>
		<g>
			<path class="st1" d="M41.6,13.9v1h-0.5v-1c0-0.3-0.1-0.5-0.4-0.5c-0.3,0-0.5,0.1-0.6,0.4v0v0.7V15h-0.5v-1c0-0.3-0.1-0.5-0.4-0.5
				c-0.3,0-0.5,0.1-0.6,0.4V15H38v-1.8h0.5v0.3c0.1-0.2,0.4-0.4,0.8-0.4c0.4,0,0.6,0.2,0.7,0.5c0.1-0.3,0.4-0.5,0.8-0.5
				C41.3,13.1,41.6,13.5,41.6,13.9z"/>
			<path class="st1" d="M43.2,14.7c0.3,0,0.5-0.1,0.7-0.2l0.3,0.3c-0.3,0.2-0.6,0.3-1,0.3c-0.8,0-1.2-0.4-1.2-1s0.4-1,1.1-1
				c0.7,0,1.1,0.3,1.1,1c0,0.1,0,0.1,0,0.1h-1.7C42.5,14.5,42.7,14.7,43.2,14.7z M42.5,13.9h1.2c-0.1-0.3-0.3-0.4-0.6-0.4
				C42.8,13.5,42.6,13.6,42.5,13.9z"/>
		</g>
	</g>
	<g>
		<g>
			<path d="M16.8,17.1H15v-1.6h5.4v1.6h-1.9v6.2h-1.6V17.1z"/>
			<path d="M26.7,20.2h-3.5v3.1h-1.6v-7.7h1.6v3.1h3.5v-3.1h1.6v7.7h-1.6V20.2z"/>
			<path d="M29.6,23.3v-7.7H34v1.6h-2.8v1.5h2.6v1.6h-2.6v1.6H34v1.6H29.6z"/>
		</g>
		<g>
			<path d="M15,24.4h2.7c1.4,0,2.4,0.8,2.4,2.1c0,0.8-0.4,1.4-0.9,1.7c0.7,0.3,1.1,0.9,1.1,1.8c0,1.3-1.1,2.1-2.6,2.1H15V24.4z
				 M17.6,26h-1.1v1.4h1.1c0.4,0,0.8-0.2,0.8-0.7C18.4,26.2,18.1,26,17.6,26z M17.7,29h-1.1v1.6h1.1c0.5,0,0.9-0.3,0.9-0.8
				C18.6,29.2,18.2,29,17.7,29z"/>
			<path class="st2" d="M24.8,24.4c2.2,0,3.9,1.7,3.9,3.9s-1.7,3.9-3.9,3.9c-2.2,0-3.9-1.7-3.9-3.9S22.6,24.4,24.8,24.4z"/>
			<path d="M31.2,32.2h-1.9l2.3-4l-2.2-3.8h1.9l1.4,2.6l1.4-2.6H36l-2.2,3.8l2.3,4h-1.9l-1.5-2.7L31.2,32.2z"/>
		</g>
	</g>
</g>
</svg>
