<?xml version="1.0" encoding="utf-8"?>
<!-- Generator: Adobe Illustrator 23.0.3, SVG Export Plug-In . SVG Version: 6.00 Build 0)  -->
<svg version="1.1" id="Layer_1" xmlns="http://www.w3.org/2000/svg" xmlns:xlink="http://www.w3.org/1999/xlink" x="0px" y="0px"
	 viewBox="0 0 27.5 20.9" style="enable-background:new 0 0 27.5 20.9;" xml:space="preserve">
<style type="text/css">
	.st0{fill:#FF0000;}
	.st1{fill:#FFFFFF;}
	.st2{opacity:8.000000e-02;fill:none;stroke:#000000;stroke-width:0.25;}
</style>
<g>
	<path d="M21.7,11.8c0,0,0.1,0,0.1,0c0.3,0,0.5,0.1,0.8,0.1c0.1,0,0.1,0,0.1-0.1c0,0,0-0.1,0-0.1c-0.6-0.8-1.1-1.5-1.7-2.3
		c-0.2-0.3-0.2-0.3-0.4,0l0,0c-0.7,0.7-1.4,1.3-2,2c0,0-0.1,0.1-0.1,0.1c0,0,0.1,0.1,0.1,0.1c0,0,0.1,0,0.1,0c0.3,0,0.5,0,0.8,0.1
		c0.2,0.9,0,1.7-0.6,2.4c-0.6,0.7-1.4,1-2.3,1.1c0.5,0.2,1,0.3,1.5,0.2c1.7,0,3.1-1.1,3.4-2.7C21.6,12.4,21.7,12.1,21.7,11.8z"/>
	<g>
		<circle class="st0" cx="20.8" cy="6" r="2.9"/>
		<g>
			<path class="st1" d="M21.2,5.9v0.8h-0.4V5.9c0-0.2-0.1-0.3-0.3-0.3c-0.2,0-0.3,0.1-0.4,0.3v0v0.5v0.3h-0.4V5.9
				c0-0.2-0.1-0.3-0.3-0.3c-0.2,0-0.3,0.1-0.4,0.3v0.8h-0.4V5.3h0.4v0.2c0.1-0.2,0.3-0.3,0.6-0.3c0.3,0,0.5,0.1,0.5,0.4
				c0.1-0.2,0.3-0.4,0.6-0.4C21,5.2,21.2,5.5,21.2,5.9z"/>
			<path class="st1" d="M22.4,6.4c0.2,0,0.4-0.1,0.5-0.2l0.2,0.2c-0.2,0.2-0.4,0.2-0.8,0.2c-0.6,0-0.9-0.3-0.9-0.7
				c0-0.5,0.3-0.7,0.9-0.7c0.5,0,0.8,0.2,0.8,0.7c0,0,0,0.1,0,0.1h-1.3C21.9,6.3,22.1,6.4,22.4,6.4z M21.9,5.8h0.9
				c0-0.2-0.2-0.3-0.5-0.3C22.1,5.5,21.9,5.6,21.9,5.8z"/>
		</g>
	</g>
	<g>
		<path d="M4.9,8.3H3.7v-1h3.4v1H6v3.9h-1V8.3z"/>
		<path d="M11.6,10.3H9.3v2h-1V7.3h1v1.9h2.2V7.3h1v4.9h-1V10.3z"/>
		<path d="M13.8,12.2V7.3h2.8v1h-1.8v1h1.6v1h-1.6v1h1.8v1H13.8z"/>
	</g>
	<g>
		<path d="M4.2,12.9h1.7c0.9,0,1.5,0.5,1.5,1.3c0,0.5-0.2,0.9-0.6,1.1c0.4,0.2,0.7,0.6,0.7,1.2c0,0.8-0.7,1.4-1.6,1.4H4.2V12.9z
			 M5.9,13.9H5.3v0.9h0.7c0.3,0,0.5-0.1,0.5-0.5S6.2,13.9,5.9,13.9z M6,15.8H5.3v1H6c0.3,0,0.6-0.2,0.6-0.5C6.5,16,6.3,15.8,6,15.8z
			"/>
		<path class="st2" d="M10.5,12.9c1.4,0,2.5,1.1,2.5,2.5s-1.1,2.5-2.5,2.5c-1.4,0-2.5-1.1-2.5-2.5S9.1,12.9,10.5,12.9z"/>
		<path d="M14.5,17.9h-1.2l1.5-2.5l-1.4-2.4h1.2l0.9,1.6l0.9-1.6h1.2l-1.4,2.4l1.5,2.5h-1.2l-1-1.7L14.5,17.9z"/>
	</g>
</g>
</svg>
