<?xml version="1.0" encoding="utf-8"?>
<!-- Generator: Adobe Illustrator 23.0.3, SVG Export Plug-In . SVG Version: 6.00 Build 0)  -->
<svg version="1.1" id="Layer_1" xmlns="http://www.w3.org/2000/svg" xmlns:xlink="http://www.w3.org/1999/xlink" x="0px" y="0px"
	 viewBox="0 0 52 39.3" style="enable-background:new 0 0 52 39.3;" xml:space="preserve">
<style type="text/css">
	.st0{fill:#FF0000;}
	.st1{fill:#FFFFFF;}
	.st2{opacity:0.1;fill:none;stroke:#000000;stroke-width:0.25;}
</style>
<g>
	<path d="M45.1,22.9c0.1,0,0.2,0,0.3,0c0.6,0.1,1.3,0.1,1.9,0.1c0.1,0,0.3-0.1,0.3-0.2c0.1-0.1,0-0.2-0.1-0.3
		c-1.3-1.9-2.7-3.7-4.1-5.5c-0.5-0.6-0.5-0.6-0.9-0.1l0,0c-1.6,1.6-3.3,3.2-4.9,4.8c-0.1,0.1-0.1,0.3-0.1,0.3
		c0.1,0.1,0.2,0.1,0.3,0.2c0.1,0,0.1,0,0.3,0c0.6,0.1,1.3,0.1,1.9,0.1c0.4,2.1-0.1,4.1-1.5,5.7c-1.4,1.7-3.3,2.4-5.5,2.6
		c1.2,0.4,2.4,0.6,3.5,0.5c4-0.1,7.3-2.7,8.2-6.5C44.9,24.2,45,23.6,45.1,22.9z"/>
	<g>
		<circle class="st0" cx="43" cy="8.9" r="7"/>
		<g>
			<path class="st1" d="M43.9,8.6v1.9h-0.9V8.7c0-0.5-0.2-0.8-0.8-0.8c-0.5,0-0.8,0.2-1.1,0.7v0.1v1.2v0.7h-0.9V8.7
				c0-0.5-0.2-0.8-0.8-0.8c-0.5,0-0.8,0.2-1.1,0.7v2h-0.9V7.2h0.9v0.6c0.2-0.4,0.8-0.7,1.4-0.7c0.7,0,1.1,0.4,1.3,0.9
				c0.2-0.5,0.8-0.9,1.4-0.9C43.4,7.1,43.9,7.8,43.9,8.6z"/>
			<path class="st1" d="M46.8,10c0.6,0,0.9-0.2,1.2-0.4l0.5,0.5c-0.5,0.4-1.1,0.6-1.8,0.6c-1.4,0-2.1-0.7-2.1-1.8s0.8-1.8,2.1-1.8
				c1.2,0,2,0.6,2,1.8c0,0.1,0,0.2,0,0.2h-3.1C45.5,9.7,46,10,46.8,10z M45.5,8.5h2.2c-0.1-0.5-0.5-0.7-1.1-0.7
				C46.1,7.8,45.6,8,45.5,8.5z"/>
		</g>
	</g>
	<g>
		<path d="M4.9,14.5H2v-2.4h8.2v2.4H7.3v9.4H4.9V14.5z"/>
		<path d="M20.8,19.2h-5.4v4.8h-2.5V12.1h2.5v4.7h5.4v-4.7h2.5v11.8h-2.5V19.2z"/>
		<path d="M26,23.9V12.1h6.7v2.4h-4.3v2.3h3.9v2.4h-3.9v2.4h4.3v2.4H26z"/>
	</g>
	<g>
		<path d="M3.2,25.6h4.1c2.2,0,3.7,1.3,3.7,3.1c0,1.3-0.6,2.1-1.4,2.6c1,0.5,1.7,1.4,1.7,2.8c0,1.9-1.6,3.3-3.9,3.3H3.2V25.6z
			 M7.2,28H5.6v2.2h1.6c0.7,0,1.2-0.3,1.2-1.1C8.4,28.3,7.9,28,7.2,28z M7.4,32.5H5.6V35h1.7c0.8,0,1.4-0.4,1.4-1.2
			C8.7,32.9,8.1,32.5,7.4,32.5z"/>
		<path class="st2" d="M18.1,25.6c3.4,0,5.9,2.6,5.9,5.9s-2.5,5.9-5.9,5.9c-3.4,0-5.9-2.6-5.9-5.9S14.8,25.6,18.1,25.6z"/>
		<path d="M27.9,37.4H25l3.6-6l-3.4-5.8H28l2.1,3.9l2.1-3.9h2.9l-3.4,5.8l3.5,6h-2.9l-2.3-4.2L27.9,37.4z"/>
	</g>
</g>
</svg>
