<?xml version="1.0" encoding="utf-8"?>
<!-- Generator: Adobe Illustrator 23.0.3, SVG Export Plug-In . SVG Version: 6.00 Build 0)  -->
<svg version="1.1" id="Layer_1" xmlns="http://www.w3.org/2000/svg" xmlns:xlink="http://www.w3.org/1999/xlink" x="0px" y="0px"
	 viewBox="0 0 48.8 37.5" style="enable-background:new 0 0 48.8 37.5;" xml:space="preserve">
<style type="text/css">
	.st0{fill:#FF0000;}
	.st1{fill:#FFFFFF;}
	.st2{opacity:0.1;fill:none;stroke:#000000;stroke-width:0.25;}
</style>
<g>
	<path d="M42.3,21.8c0.1,0,0.2,0,0.3,0c0.6,0.1,1.2,0.1,1.8,0.1c0.1,0,0.3-0.1,0.3-0.2c0.1-0.1,0-0.2-0.1-0.3
		c-1.3-1.8-2.6-3.4-3.8-5.2c-0.4-0.6-0.5-0.6-0.9-0.1l0,0c-1.5,1.5-3.1,3-4.6,4.5c-0.1,0.1-0.1,0.3-0.1,0.3c0.1,0.1,0.2,0.1,0.3,0.2
		c0.1,0,0.1,0,0.3,0c0.6,0.1,1.2,0.1,1.8,0.1c0.4,2-0.1,3.8-1.4,5.4c-1.3,1.6-3.1,2.3-5.1,2.4c1.1,0.4,2.3,0.6,3.3,0.5
		c3.8-0.1,6.9-2.5,7.7-6.1C42.1,23,42.2,22.5,42.3,21.8z"/>
	<g>
		<circle class="st0" cx="40.3" cy="8.7" r="6.6"/>
		<g>
			<path class="st1" d="M41.2,8.4v1.8h-0.9V8.5c0-0.5-0.2-0.8-0.7-0.8c-0.4,0-0.8,0.2-1,0.7v0.1v1.2v0.6h-0.9V8.5
				c0-0.5-0.2-0.8-0.7-0.8c-0.4,0-0.8,0.2-1,0.6v1.9H35V7.1h0.9v0.6C36.2,7.3,36.7,7,37.2,7c0.7,0,1.1,0.3,1.2,0.8
				C38.7,7.3,39.2,7,39.8,7C40.7,7,41.2,7.6,41.2,8.4z"/>
			<path class="st1" d="M43.9,9.7c0.6,0,0.9-0.2,1.2-0.4l0.4,0.5c-0.4,0.4-1,0.6-1.7,0.6c-1.3,0-2-0.6-2-1.7S42.5,7,43.7,7
				c1.1,0,1.9,0.6,1.9,1.7c0,0.1,0,0.2,0,0.2h-2.9C42.7,9.4,43.1,9.7,43.9,9.7z M42.6,8.3h2.1c-0.1-0.4-0.5-0.6-1.1-0.6
				C43.2,7.6,42.8,7.9,42.6,8.3z"/>
		</g>
	</g>
	<g>
		<path d="M4.6,13.9H1.9v-2.2h7.7v2.2H6.9v8.8H4.6V13.9z"/>
		<path d="M19.5,18.3h-5.1v4.5h-2.3V11.7h2.3v4.4h5.1v-4.4h2.3v11.1h-2.3V18.3z"/>
		<path d="M24.4,22.8V11.7h6.3v2.2h-4v2.1h3.7v2.2h-3.7v2.2h4v2.2H24.4z"/>
	</g>
	<g>
		<path d="M3,24.3h3.8c2,0,3.5,1.2,3.5,2.9c0,1.2-0.5,2-1.3,2.4c1,0.5,1.6,1.3,1.6,2.6c0,1.8-1.5,3.1-3.7,3.1H3V24.3z M6.8,26.6H5.3
			v2.1h1.5c0.6,0,1.1-0.3,1.1-1S7.4,26.6,6.8,26.6z M6.9,30.8H5.3v2.3h1.6c0.7,0,1.3-0.4,1.3-1.2C8.2,31.2,7.7,30.8,6.9,30.8z"/>
		<path class="st2" d="M17,24.3c3.1,0,5.5,2.4,5.5,5.5s-2.4,5.5-5.5,5.5c-3.1,0-5.5-2.4-5.5-5.5S13.9,24.3,17,24.3z"/>
		<path d="M26.2,35.4h-2.7l3.3-5.7l-3.2-5.4h2.7l2,3.7l2-3.7h2.7l-3.2,5.4l3.3,5.7h-2.7l-2.2-3.9L26.2,35.4z"/>
	</g>
</g>
</svg>
