<svg id="Layer_1" data-name="Layer 1" xmlns="http://www.w3.org/2000/svg" viewBox="0 0 50 36.87"><defs><style>.cls-1{fill:red;}.cls-2{fill:none;stroke:#000;stroke-width:0.5px;opacity:0.03;}</style></defs><title>The Box and Me</title><path d="M50.83,23.68h.3a17.34,17.34,0,0,0,2,.15.41.41,0,0,0,.37-.22c.07-.07,0-.22-.08-.29-1.46-2.05-3-4-4.45-6.06-.51-.66-.58-.66-1-.07h0c-1.75,1.75-3.58,3.5-5.33,5.25a.79.79,0,0,0-.15.37,2.25,2.25,0,0,0,.37.22h.29c.66.07,1.39.07,2,.14a7.26,7.26,0,0,1-1.6,6.28,8.39,8.39,0,0,1-6,2.85,10.66,10.66,0,0,0,3.87.58,9.17,9.17,0,0,0,9-7.08C50.62,25.07,50.69,24.41,50.83,23.68Z" transform="translate(-4.96 -2.88)"/><circle class="cls-1" cx="43.55" cy="6.45" r="6.45"/><path d="M8.09,14.44H5v-2.6h9v2.6H10.79V24.75H8.09Z" transform="translate(-4.96 -2.88)"/><path d="M24.58,19.55h-5.9v5.2H16V11.84h2.7V17h5.9V11.84h2.7V24.75h-2.7Z" transform="translate(-4.96 -2.88)"/><path d="M29.34,24.75V11.84h7.35v2.6H32V17h4.27v2.6H32v2.6h4.65v2.6Z" transform="translate(-4.96 -2.88)"/><path d="M5,26.59H9.44c2.35,0,4,1.39,4,3.44a3,3,0,0,1-1.54,2.83,3.21,3.21,0,0,1,1.9,3.07c0,2.13-1.78,3.57-4.27,3.57H5Zm4.46,2.6H7.65v2.39H9.42a1.2,1.2,0,1,0,0-2.39Zm.13,5H7.65V36.9h1.9c.86,0,1.5-.42,1.5-1.35A1.32,1.32,0,0,0,9.55,34.18Z" transform="translate(-4.96 -2.88)"/><path class="cls-2" d="M21.31,26.59a6.46,6.46,0,1,1,0,12.91,6.46,6.46,0,0,1,0-12.91Z" transform="translate(-4.96 -2.88)"/><path d="M32,39.5H28.8l3.89-6.61L29,26.59h3.19l2.33,4.29,2.34-4.29H40l-3.69,6.3,3.88,6.61H37.06l-2.55-4.57Z" transform="translate(-4.96 -2.88)"/></svg>