<?xml version="1.0" encoding="utf-8"?>
<!-- Generator: Adobe Illustrator 23.0.3, SVG Export Plug-In . SVG Version: 6.00 Build 0)  -->
<svg version="1.1" id="Layer_1" xmlns="http://www.w3.org/2000/svg" xmlns:xlink="http://www.w3.org/1999/xlink" x="0px" y="0px"
	 viewBox="0 0 57.2 41.6" style="enable-background:new 0 0 57.2 41.6;" xml:space="preserve">
<style type="text/css">
	.st0{fill:#FF0000;}
	.st1{fill:#FFFFFF;}
	.st2{opacity:0.1;fill:none;stroke:#000000;stroke-width:0.25;}
</style>
<g>
	<path d="M49.6,23.2c0.1,0,0.2,0,0.3,0c0.6,0.1,1.4,0.1,2,0.1c0.1,0,0.3-0.1,0.4-0.2c0.1-0.1,0-0.2-0.1-0.3c-1.4-2-2.9-3.9-4.3-5.9
		c-0.5-0.6-0.6-0.6-1-0.1l0,0c-1.7,1.7-3.5,3.4-5.2,5.1c-0.1,0.1-0.1,0.3-0.1,0.4c0.1,0.1,0.2,0.1,0.4,0.2c0.1,0,0.1,0,0.3,0
		c0.6,0.1,1.4,0.1,2,0.1c0.4,2.3-0.1,4.3-1.6,6.1c-1.5,1.8-3.5,2.6-5.8,2.8c1.3,0.4,2.6,0.6,3.8,0.6c4.3-0.1,7.8-2.8,8.8-6.9
		C49.4,24.6,49.4,23.9,49.6,23.2z"/>
	<g>
		<circle class="st0" cx="47.3" cy="9.2" r="6.3"/>
		<g>
			<path class="st1" d="M48.1,9v1.7h-0.8V9c0-0.5-0.2-0.7-0.7-0.7c-0.4,0-0.7,0.2-1,0.6V9v1.1v0.6h-0.8V9c0-0.5-0.2-0.7-0.7-0.7
				c-0.4,0-0.7,0.2-1,0.6v1.8h-0.8v-3h0.8v0.5c0.2-0.4,0.7-0.6,1.2-0.6c0.6,0,1,0.3,1.2,0.8c0.2-0.5,0.7-0.8,1.3-0.8
				C47.7,7.7,48.1,8.2,48.1,9z"/>
			<path class="st1" d="M50.7,10.2c0.5,0,0.8-0.2,1.1-0.4l0.4,0.5c-0.4,0.4-1,0.5-1.6,0.5c-1.2,0-1.9-0.6-1.9-1.6s0.7-1.6,1.9-1.6
				c1.1,0,1.8,0.5,1.8,1.6c0,0.1,0,0.2,0,0.2h-2.8C49.6,9.9,50,10.2,50.7,10.2z M49.5,8.9h2c-0.1-0.4-0.5-0.6-1-0.6
				C50.1,8.2,49.7,8.5,49.5,8.9z"/>
		</g>
	</g>
	<g>
		<path d="M6.7,14.2H3.6v-2.5h8.7v2.5H9.3v10.1H6.7V14.2z"/>
		<path d="M23.7,19.2h-5.8v5.1h-2.6V11.7h2.6v5h5.8v-5h2.6v12.6h-2.6V19.2z"/>
		<path d="M29.2,24.3V11.7h7.2v2.5h-4.5v2.4H36v2.5h-4.2v2.5h4.5v2.5H29.2z"/>
	</g>
	<g>
		<path d="M4.8,26.1h4.4c2.3,0,3.9,1.4,3.9,3.4c0,1.4-0.6,2.3-1.5,2.8c1.1,0.5,1.9,1.5,1.9,3c0,2.1-1.7,3.5-4.2,3.5H4.8V26.1z
			 M9.2,28.6H7.5v2.3h1.7c0.7,0,1.2-0.4,1.2-1.2C10.4,29,9.9,28.6,9.2,28.6z M9.3,33.5H7.5v2.6h1.9c0.8,0,1.5-0.4,1.5-1.3
			C10.8,33.9,10.2,33.5,9.3,33.5z"/>
		<path class="st2" d="M20.8,26.1c3.6,0,6.3,2.7,6.3,6.3c0,3.6-2.7,6.3-6.3,6.3c-3.6,0-6.3-2.7-6.3-6.3
			C14.5,28.8,17.2,26.1,20.8,26.1z"/>
		<path d="M31.2,38.6h-3.1l3.8-6.4l-3.6-6.1h3.1l2.3,4.2l2.3-4.2h3.1l-3.6,6.1l3.8,6.4h-3.1l-2.5-4.5L31.2,38.6z"/>
	</g>
</g>
</svg>
