<?xml version="1.0" encoding="utf-8"?>
<!-- Generator: Adobe Illustrator 23.0.3, SVG Export Plug-In . SVG Version: 6.00 Build 0)  -->
<svg version="1.1" id="Layer_1" xmlns="http://www.w3.org/2000/svg" xmlns:xlink="http://www.w3.org/1999/xlink" x="0px" y="0px"
	 viewBox="0 0 59.9 42.4" style="enable-background:new 0 0 59.9 42.4;" xml:space="preserve">
<style type="text/css">
	.st0{fill:#FF0000;}
	.st1{fill:#FFFFFF;}
	.st2{opacity:0.15;fill:none;stroke:#000000;stroke-width:0.5;}
</style>
<g>
	<path d="M46.7,23.2c0.1,0,0.2,0,0.2,0c0.5,0.1,1.1,0.1,1.6,0.1c0.1,0,0.2-0.1,0.3-0.2c0.1-0.1,0-0.2-0.1-0.2
		c-1.2-1.6-2.4-3.2-3.6-4.8c-0.4-0.5-0.5-0.5-0.8-0.1l0,0c-1.4,1.4-2.9,2.8-4.3,4.2c-0.1,0.1-0.1,0.2-0.1,0.3
		c0.1,0.1,0.2,0.1,0.3,0.2c0.1,0,0.1,0,0.2,0c0.5,0.1,1.1,0.1,1.6,0.1c0.4,1.9-0.1,3.6-1.3,5c-1.2,1.5-2.9,2.1-4.8,2.3
		c1.1,0.4,2.1,0.5,3.1,0.5c3.5-0.1,6.4-2.3,7.2-5.7C46.5,24.3,46.5,23.8,46.7,23.2z"/>
	<g>
		<circle class="st0" cx="44.8" cy="11.7" r="5.2"/>
		<g>
			<path class="st1" d="M45.4,11.5v1.4h-0.7v-1.3c0-0.4-0.2-0.6-0.6-0.6c-0.3,0-0.6,0.2-0.8,0.5v0v0.9v0.5h-0.7v-1.3
				c0-0.4-0.2-0.6-0.6-0.6c-0.3,0-0.6,0.2-0.8,0.5v1.5h-0.7v-2.4h0.7v0.4c0.2-0.3,0.6-0.5,1-0.5c0.5,0,0.8,0.3,1,0.7
				c0.2-0.4,0.6-0.7,1-0.7C45.1,10.4,45.4,10.9,45.4,11.5z"/>
			<path class="st1" d="M47.6,12.5c0.4,0,0.7-0.1,0.9-0.3l0.3,0.4c-0.3,0.3-0.8,0.4-1.3,0.4c-1,0-1.6-0.5-1.6-1.3s0.6-1.3,1.5-1.3
				c0.9,0,1.5,0.4,1.5,1.3c0,0.1,0,0.1,0,0.2h-2.3C46.7,12.3,47,12.5,47.6,12.5z M46.6,11.4h1.7c-0.1-0.3-0.4-0.5-0.8-0.5
				C47.1,10.9,46.8,11.1,46.6,11.4z"/>
		</g>
	</g>
	<g>
		<g>
			<path d="M12.5,15.8H10v-2.1h7.2v2.1h-2.5V24h-2.2V15.8z"/>
			<path d="M25.7,19.9h-4.7V24h-2.2V13.7h2.2v4.1h4.7v-4.1h2.2V24h-2.2V19.9z"/>
			<path d="M29.5,24V13.7h5.9v2.1h-3.7v2H35v2.1h-3.4V22h3.7V24H29.5z"/>
		</g>
		<g>
			<path d="M10,25.5h3.6c1.9,0,3.2,1.1,3.2,2.7c0,1.1-0.5,1.9-1.2,2.3C16.4,31,17,31.8,17,33c0,1.7-1.4,2.9-3.4,2.9H10V25.5z
				 M13.5,27.6h-1.4v1.9h1.4c0.6,0,1-0.3,1-1S14.1,27.6,13.5,27.6z M13.6,31.6h-1.5v2.2h1.5c0.7,0,1.2-0.3,1.2-1.1
				C14.8,31.9,14.3,31.6,13.6,31.6z"/>
			<path class="st2" d="M23,25.5c2.9,0,5.2,2.2,5.2,5.2S26,35.8,23,35.8c-2.9,0-5.2-2.2-5.2-5.2S20.1,25.5,23,25.5z"/>
			<path d="M31.6,35.8H29l3.1-5.3l-3-5h2.6l1.9,3.4l1.9-3.4H38l-2.9,5l3.1,5.3h-2.5l-2-3.7L31.6,35.8z"/>
		</g>
	</g>
</g>
</svg>
