<svg id="Layer_1" data-name="Layer 1" xmlns="http://www.w3.org/2000/svg" viewBox="0 0 50 40"><defs><style>.cls-1{fill:#1a1a1a;}.cls-2{fill:#fff;}</style></defs><title>Think Outisde the Box</title><path class="cls-1" d="M40.89,26.65h0v0Z" transform="translate(-7.41 -6.64)"/><rect class="cls-2" width="50" height="40"/><path d="M28.3,21.85c.23,0,.28-.12.12-.25-.42-.12-.22-.86.11-1.25a3,3,0,0,1,1.82-1,7.92,7.92,0,0,1,.86-.13c.38,0,.82-.07,1.32-.08h.09c-.42.62-1,1.79-1.41,2.43l0,.06c-.16.3-.48.92-.82,1.6a19.87,19.87,0,0,0-1.2,2.7c-.06.34.51.65,1,.62,0-.12.1-.32.2-.59.2-.49.51-1.19.86-1.93s.78-1.58,1.13-2.26a13.94,13.94,0,0,1,1.4-2.37.4.4,0,0,0-.15-.26c1.52,0,2.43-.06,2.75-.32.1-.07.26-.44-.15-.31a13.78,13.78,0,0,1-3.47.12c-.45,0-1,0-1.51,0-.29,0-.57,0-.86.06a4.13,4.13,0,0,0-2.55,1A1.2,1.2,0,0,0,28.3,21.85Z" transform="translate(-7.41 -6.64)"/><path d="M33.81,25.2c.06-.11.49-.87,1.29-2.49a15,15,0,0,0,1.15-2.28c0-.29-.74-.68-1-.51A26.79,26.79,0,0,1,34,22.56a41.49,41.49,0,0,0-1.84,3.87c-.1.37.71.78,1.12.4.11-.34,2.7-3.75,3.14-3.53.13.07-1.13,1.87-1,2.95a1.14,1.14,0,0,0,1.71.62A6,6,0,0,0,38,26a.87.87,0,0,0,.18.62,1.22,1.22,0,0,0,1.5.32,3.73,3.73,0,0,0,.78-.67.87.87,0,0,0-.07.17c-.11.32.8.71,1.09.45.13-.35,2.65-3.52,3.14-3.48.23,0-1.1,1.65-1.15,2.76,0,.68,1,1.17,1.64.74a5.09,5.09,0,0,0,.86-.8,3.39,3.39,0,0,0-.23.71c0,.39.73.55,1,.32a17.38,17.38,0,0,1,.9-2.23h0a2.4,2.4,0,0,0,.32,1.2,1.56,1.56,0,0,0,.53.55,1.32,1.32,0,0,0,1,.11c.64-.16,1.47-1.22,1.92-1.9.14-.28-.11-.51-.33-.19-.41.53-1.25,1.55-1.7,1.54s-.79-1.52-.84-2h0a6.61,6.61,0,0,1,1.94-1.06c.17-.07.09-.53-.18-.52a5,5,0,0,0-1.81,1L48,24c.15-.33.31-.65.45-.93l.17-.34a23.86,23.86,0,0,1,1.68-3c0-.29-.83-.54-1.15-.15a10.14,10.14,0,0,0-.7,1.26l-.83,1.59,0,.07c-.3.59-.63,1.27-.92,1.91l-.11.24a6.56,6.56,0,0,1-2,1.94c-.55.06.72-2,1.07-3,.2-.56-.58-1-1.07-.84C43.68,23,42,25.31,42,25.31a13.14,13.14,0,0,0,1-2.08c0-.27-.61-.61-.88-.42a13.62,13.62,0,0,1-.68,1.55c-.5.7-1.74,2.13-2.21,2.21s-.23-.71.44-1.95c.39-.74.64-1,.67-1.22s-.8-.69-1-.5a13.85,13.85,0,0,1-.91,1.7,2.14,2.14,0,0,0-.1.22c-.68.85-1.61,1.82-1.8,1.76s.68-2.08,1-3c.15-.41-.52-1.13-1.1-1S34,25,33.81,25.2Z" transform="translate(-7.41 -6.64)"/><path d="M40.4,22.07a1.2,1.2,0,0,0,.74-.08c.25-.09.55-.48.32-.68a1,1,0,0,0-1.1,0C40,21.58,40.05,22,40.4,22.07Z" transform="translate(-7.41 -6.64)"/><path d="M44,28.59c-.3.2-.26.55,0,.61a.94.94,0,0,0,.61-.07c.21-.08.47-.4.27-.57A.83.83,0,0,0,44,28.59Z" transform="translate(-7.41 -6.64)"/><path d="M31.21,27.29a2.91,2.91,0,0,0-.86-.23l-.15,0a4.16,4.16,0,0,0-4.26,3,1.58,1.58,0,0,0,.52,1.55,2.36,2.36,0,0,0,0,1.75,2.36,2.36,0,0,0,2.21,1,4.44,4.44,0,0,0,1.64-1,6.15,6.15,0,0,0,.87-1,8.07,8.07,0,0,0,1-1.76C32.77,29.18,32.49,27.83,31.21,27.29Zm0,3.17,0,.07A7.73,7.73,0,0,1,30.35,32,4.15,4.15,0,0,1,28,33.94c-.71,0-.91-.85-.63-1.85a2.54,2.54,0,0,0,.82.13,1.28,1.28,0,0,0,1-.34c.33-.36.17-.85,0-.83a1.49,1.49,0,0,1-1.66.67,9.48,9.48,0,0,1,.8-1.52,5.88,5.88,0,0,1,1.23-1.5c.13-.27-.74-.41-1-.2a7.19,7.19,0,0,0-1,1.17,5.07,5.07,0,0,0-.69,1.23,2.61,2.61,0,0,1,.33-1.67,3.52,3.52,0,0,1,3.22-1.82h.08a1.15,1.15,0,0,1,.86.36C31.73,28.36,31.59,29.5,31.22,30.46Z" transform="translate(-7.41 -6.64)"/><path d="M52.59,30.92c-.44.54-1.66,2.2-2.55,2.13-.32,0-.38-.33-.37-.6a1.38,1.38,0,0,1,.09-.43c.8-.33,2.16-1,2.27-1.53s-.79-1.25-1.53-.93a3.58,3.58,0,0,0-1.58,1.94l-.46.54a9.58,9.58,0,0,1-.86.89l-.09.06c-.2.08-.12-.43.09-1.09a13.77,13.77,0,0,1,.62-1.54c.09-.17.17-.32.24-.47a25.36,25.36,0,0,1,1.32-2.45c-.12-.27-.78-.27-1,0a4,4,0,0,0-.32.53L47.6,29.6l-.13.25,0,.07a1.43,1.43,0,0,0-1.31-.24,3.75,3.75,0,0,0-1.39,1.57c-.47.62-1.39,1.67-1.77,1.73s-.18-.59.37-1.64c.33-.62.54-.8.57-1s-.68-.57-.8-.41a11,11,0,0,1-.76,1.42l-.08.16a6.19,6.19,0,0,1-1.08,1.09c.07-.53-.32-1.11-.32-1.67a.85.85,0,0,1,.86-.87c.15-.09,0-.68-.48-.68a1.32,1.32,0,0,0-1,.62,1.34,1.34,0,0,0-.25.49c-.41.5-1,1.28-1.4,1.74-.42.09-.52.28-.46.47a1.29,1.29,0,0,1-.38.3c-.48.19.08-1.39.62-2.58,0-.12.11-.24.18-.37a4.11,4.11,0,0,1,.82.05.18.18,0,0,0,.14-.31,2.3,2.3,0,0,0-.79-.07,11.76,11.76,0,0,0,.72-1.34c0-.21-.4-.56-.72-.45-.06.24-.36.66-1,1.8a2.82,2.82,0,0,1-.56,0c-.21.08-.24.35,0,.35h.43a12.76,12.76,0,0,0-.58,1.25c-.52.66-1.55,1.78-1.76,1.72s.79-2.26,1-2.58-.58-.57-.73-.42-2.38,3-2.7,3,1.33-2.58,1.4-2.86-.65-.59-.79-.4S32.15,31.62,32,32.58c-.08.55.68,1,1.1.74a5.38,5.38,0,0,0,1.46-1.5,1.58,1.58,0,0,0-.13.91,1.08,1.08,0,0,0,1.17.62c.29-.07.74-.57,1.13-1.08a1.58,1.58,0,0,0,0,.43c.08.53,1,.8,1.33.64a1.64,1.64,0,0,0,.41-.32,2.56,2.56,0,0,0,2.88-.08,4.7,4.7,0,0,0,.66-.6.87.87,0,0,0,.14.65,1,1,0,0,0,1.26.27,4.1,4.1,0,0,0,.91-.85.74.74,0,0,0,0,.37,1,1,0,0,0,1,.57,3.74,3.74,0,0,0,1.15-1.21,1.75,1.75,0,0,0,0,.55.93.93,0,0,0,1.1.68l.19,0a3,3,0,0,0,.67-.63l.35-.44a1.21,1.21,0,0,0,.07.34,1.51,1.51,0,0,0,1.94.75A6.26,6.26,0,0,0,52.89,31C53,30.81,52.7,30.81,52.59,30.92ZM51,30.2c.37-.32.59-.17.31.18A5.9,5.9,0,0,1,50,31.52,5.31,5.31,0,0,1,51,30.2Zm-11,2.69a.65.65,0,0,1-.2.15c-.51,0-.91-.07-1-.22a1.38,1.38,0,0,1,.93-.57.11.11,0,0,0,0-.18,1.29,1.29,0,0,0-.5,0h-.07c.22-.27.44-.57.65-.84L40,31.1a1.34,1.34,0,0,0,.07.27C40.17,31.74,40.43,32.52,40.05,32.89Zm6.83-1.82a6.83,6.83,0,0,1-1.74,1.87c-.22,0,1-2.62,1.66-2.86a.57.57,0,0,1,.5.1C47.13,30.52,47,30.81,46.88,31.07Z" transform="translate(-7.41 -6.64)"/><path d="M46,9.48H32.82a2.36,2.36,0,0,0-2.36,2.36v6.64l.84-.08V13.89a.33.33,0,0,1,.32-.34H47.17a.33.33,0,0,1,.32.34V22l.86-1.35V11.84A2.36,2.36,0,0,0,46,9.48Zm-9.05,2.66a.49.49,0,0,1,0-1,.49.49,0,0,1,0,1Zm3.44-.27h-2a.22.22,0,1,1,0-.44h2a.22.22,0,1,1,0,.44Z" transform="translate(-7.41 -6.64)"/><circle cx="32" cy="35.05" r="1"/><path d="M47.51,39.45a.32.32,0,0,1-.32.33H31.65a.33.33,0,0,1-.33-.33V33.18l-.86.75v7.51a2.36,2.36,0,0,0,2.36,2.35H46a2.36,2.36,0,0,0,2.36-2.35V33.26l-.84.6ZM39.41,43a1.3,1.3,0,1,1,1.3-1.3A1.3,1.3,0,0,1,39.41,43Z" transform="translate(-7.41 -6.64)"/><path d="M34.08,36.6h-.87v1.63H33V36.6h-.86v-.2h1.95Z" transform="translate(-7.41 -6.64)"/><path d="M36.38,36.4v1.83h-.22v-.82h-1.5v.82h-.22V36.4h.22v.8h1.5v-.8Z" transform="translate(-7.41 -6.64)"/><path d="M38.76,38v.2H37V36.4h1.74v.2H37.21v.6H38.5v.2H37.21V38Z" transform="translate(-7.41 -6.64)"/><path d="M42,37.73c0,.33-.26.5-.68.5H40.05V36.4h1.21c.37,0,.64.16.64.47a.4.4,0,0,1-.39.42C41.79,37.31,42,37.42,42,37.73Zm-1.74-.54h1c.26,0,.45-.06.45-.29s-.19-.3-.45-.3h-1Zm1.52.52c0-.23-.19-.32-.5-.32h-1V38h1C41.59,38,41.78,37.94,41.78,37.71Z" transform="translate(-7.41 -6.64)"/><path d="M42.33,37.31c0-.59.42-1,1.11-1s1.12.37,1.12,1-.42,1-1.12,1S42.33,37.91,42.33,37.31Zm2,0c0-.49-.35-.76-.89-.76s-.89.27-.89.76.35.77.89.77S44.33,37.81,44.33,37.31Z" transform="translate(-7.41 -6.64)"/><path d="M45.82,37.31l.86.92h-.29l-.72-.77-.72.77h-.28l.86-.92-.85-.91H45l.72.76.72-.76h.28Z" transform="translate(-7.41 -6.64)"/></svg>