<svg id="Layer_1" data-name="Layer 1" xmlns="http://www.w3.org/2000/svg" viewBox="0 0 50 40"><defs><style>.cls-1{fill:#fff;}</style></defs><title>Thinking Outside The Box</title><rect class="cls-1" width="50" height="40"/><path d="M-114.43,308.83v6.24a.31.31,0,0,1-.31.32h-14.81a.31.31,0,0,1-.31-.32v-7.73a8,8,0,0,1-.82,1.13V317a2.25,2.25,0,0,0,2.24,2.24h12.56a2.25,2.25,0,0,0,2.25-2.24v-8.45a1.4,1.4,0,0,1-.31.25A.81.81,0,0,1-114.43,308.83Zm-7.72,9.6a1.24,1.24,0,0,1-1.24-1.24,1.24,1.24,0,0,1,1.24-1.24,1.24,1.24,0,0,1,1.23,1.24A1.24,1.24,0,0,1-122.15,318.43Z" transform="translate(153.67 -281.71)"/><path d="M-122.16,316.13a1.06,1.06,0,0,0-1.06,1.06,1.07,1.07,0,0,0,1.06,1.06,1.07,1.07,0,0,0,1.07-1.06A1.06,1.06,0,0,0-122.16,316.13Z" transform="translate(153.67 -281.71)"/><path d="M-130.34,293.89c.09-.07.28,0,.45.07v-5.55a.31.31,0,0,1,.3-.32h14.82a.32.32,0,0,1,.31.32v8.36a3.17,3.17,0,0,1,.82-.64v-9.67a2.25,2.25,0,0,0-2.25-2.25h-12.56a2.25,2.25,0,0,0-2.24,2.25v7.63l.28,0A1.87,1.87,0,0,0-130.34,293.89Zm7.23-7.85h1.87c.14,0,.26.07.26.17s-.12.17-.26.17h-1.87c-.14,0-.26-.08-.26-.17S-123.25,286-123.11,286Zm-1.4-.23a.46.46,0,0,1,.46.47.46.46,0,0,1-.46.47.47.47,0,0,1-.47-.47A.47.47,0,0,1-124.51,285.81Z" transform="translate(153.67 -281.71)"/><path d="M-126.43,295.83a.87.87,0,0,0,.56-.06c.19-.08.42-.39.24-.55a.76.76,0,0,0-.84,0C-126.74,295.44-126.7,295.78-126.43,295.83Z" transform="translate(153.67 -281.71)"/><path d="M-116.76,295.83a.87.87,0,0,0,.56-.06c.19-.08.42-.39.24-.55a.74.74,0,0,0-.83,0C-117.07,295.44-117,295.78-116.76,295.83Z" transform="translate(153.67 -281.71)"/><path d="M-108,297.47a7.27,7.27,0,0,1-1.28,1.54,3.22,3.22,0,0,1-.6.42,2,2,0,0,1,.09-.22c.52-1.33.56-1.34.66-1.42s-.15-.21-.33-.29c.25-.05.68-.32.7-.63a1.28,1.28,0,0,0-1.9-.66,3.79,3.79,0,0,0-1.2,1.31c-.1.17-.19.34-.27.5-.53.73-1.21,1.44-1.43,1.46a.08.08,0,0,1-.07,0s0-.15,0-.3c.14-.53.7-1.56.88-2.1s-.44-.8-.81-.68l-.07,0a3.17,3.17,0,0,0-.82.67,16.56,16.56,0,0,0-1.12,1.37,11,11,0,0,0,.73-1.68c0-.22-.47-.49-.67-.34a10.42,10.42,0,0,1-.52,1.25c-.38.57-1.32,1.73-1.68,1.79s-.17-.57.33-1.58c.3-.59.49-.77.51-1s-.61-.55-.72-.4a10.18,10.18,0,0,1-.69,1.38,1.89,1.89,0,0,0-.09.21c-.33.44-.9,1.15-1.22,1.14s-.6-1.22-.64-1.6h0a5.17,5.17,0,0,1,1.48-.86c.13,0,.07-.43-.13-.42a4.92,4.92,0,0,0-1.73,1.11c.17-.39.34-.74.47-1a22.56,22.56,0,0,1,1.28-2.42c0-.23-.63-.43-.87-.12s-.46.88-1.16,2.31c-.24.48-.5,1.05-.73,1.59a5.63,5.63,0,0,1-1.59,1.69c-.42,0,.55-1.66.81-2.42.15-.45-.44-.8-.81-.68-.69.23-2,2.07-2,2.07a12.13,12.13,0,0,0,.73-1.68c0-.22-.47-.49-.68-.34a9.86,9.86,0,0,1-.51,1.25c-.38.57-1.32,1.73-1.69,1.79s-.17-.57.34-1.58a6.11,6.11,0,0,0,.51-1c0-.3-.61-.55-.72-.4a11.64,11.64,0,0,1-.69,1.38l-.08.17c-.51.69-1.23,1.48-1.38,1.43s.53-1.68.78-2.41c.12-.33-.4-.91-.84-.79a1.34,1.34,0,0,0-.41.28,9.84,9.84,0,0,0-.8.86c-.38.44-.7.86-.76.94,0-.07.29-.55.76-1.54l.22-.47c.26-.55.45-.91.58-1.17a1.82,1.82,0,0,0,.29-.67.25.25,0,0,0-.09-.2c0-.09,0-.19-.18-.13h0c-.17-.1-.36-.15-.45-.07l-.07.19h-.28c-.54,0-1.23,0-1.84,0-1.15,0-3,0-3.75.86a1,1,0,0,0,.38,1.7c.18,0,.22-.09.09-.2-.31-.1-.16-.7.09-1s.92-.91,3.05-.94h.06c-.32.52-.83,1.51-1.1,2a31.89,31.89,0,0,0-1.54,3.47c0,.28.39.53.77.5a29.44,29.44,0,0,1,1.67-3.86,12.07,12.07,0,0,1,1.06-1.92.33.33,0,0,0-.12-.21c.47,0,.86,0,1.18,0h.13c0,.09-.08.2-.13.3-.17.38-.38.83-.6,1.29-.78,1.65-1.29,2.73-1.4,3.13s.54.63.85.33a13.24,13.24,0,0,1,1.15-1.66,9.14,9.14,0,0,1,.81-.93c.2-.2.36-.31.44-.27a6.46,6.46,0,0,1-.44,1,3.22,3.22,0,0,0-.36,1.37.73.73,0,0,0,.36.5.78.78,0,0,0,.94,0,3.9,3.9,0,0,0,.66-.74.8.8,0,0,0,.14.51.9.9,0,0,0,1.14.26,3.13,3.13,0,0,0,.6-.54l-.06.13c-.08.26.61.58.83.37s2-2.85,2.4-2.81c.17,0-.84,1.33-.88,2.23a.81.81,0,0,0,1.25.59,3.93,3.93,0,0,0,.71-.71,4.34,4.34,0,0,0-.23.72c0,.32.56.45.74.26a14.86,14.86,0,0,1,.68-1.8h0a2,2,0,0,0,.24,1,1,1,0,0,0,1.18.54,2.23,2.23,0,0,0,.92-.77.78.78,0,0,0,.13.57.9.9,0,0,0,1.14.26,2.86,2.86,0,0,0,.6-.54l-.06.13c-.08.26.62.58.83.37a15.66,15.66,0,0,1,1.51-2,3.59,3.59,0,0,1,.81-.78.12.12,0,0,1,.08,0s0,.1-.08.27a5.53,5.53,0,0,0-.8,2,.78.78,0,0,0,.8.72.66.66,0,0,0,.45-.13,4.38,4.38,0,0,0,.78-.78.71.71,0,0,0,0,.26c.1.32.58.77.9.59a3.29,3.29,0,0,0,1-.9c-.14.35-.27.69-.46,1.06-.45.18-.9.33-1.27.5-.54.24-1.22.57-1.26.94s.38.75,1.11.74c.88,0,1.68-1,2.25-2.14a5.63,5.63,0,0,0,1-.58,6.4,6.4,0,0,0,1.43-1.79C-107.68,297.41-107.83,297.28-108,297.47Zm-3.57,3.43a1.84,1.84,0,0,1-1.2.83c-.17,0-1-.14.65-.91l.84-.35Zm1.39-2.88a4.86,4.86,0,0,1-1.49,1.41c-.16,0,.1-.74.63-1.61.36-.6,1.39-1.67,1.73-1.33.18.19-.23.81-.28,1a.36.36,0,0,0-.4.18Z" transform="translate(153.67 -281.71)"/><path d="M-117.62,304.26a.92.92,0,0,0,.6-.07c.2-.08.46-.41.26-.59a.8.8,0,0,0-.9,0C-118,303.84-117.92,304.2-117.62,304.26Z" transform="translate(153.67 -281.71)"/><path d="M-129.87,302.45a2.47,2.47,0,0,0-.81-.34,3.71,3.71,0,0,0-.5-.09,4.1,4.1,0,0,0-4.17,3.12,1.72,1.72,0,0,0,.5,1.62,2.64,2.64,0,0,0,0,1.81,2.27,2.27,0,0,0,2.18,1.09,4.72,4.72,0,0,0,1.95-1.42,8,8,0,0,0,.82-1.17,10.84,10.84,0,0,0,.62-1.32C-128.72,304.38-128.9,303.1-129.87,302.45Zm-.34,3.2a7.58,7.58,0,0,1-.47,1c-.77,1.38-1.91,2.5-2.7,2.55s-.88-.89-.61-1.93a2.21,2.21,0,0,0,.8.14,1.24,1.24,0,0,0,1-.35c.33-.38.17-.89,0-.87a1.43,1.43,0,0,1-1.63.7,10.22,10.22,0,0,1,.78-1.59,5.86,5.86,0,0,1,1.21-1.55c.12-.28-.73-.43-1-.21a7.11,7.11,0,0,0-1,1.22,5.32,5.32,0,0,0-.68,1.28,2.78,2.78,0,0,1,.33-1.75,3.4,3.4,0,0,1,3.15-1.88,1.44,1.44,0,0,1,.43.06,1.2,1.2,0,0,1,.81,1.17,2.71,2.71,0,0,1,0,.57A5.21,5.21,0,0,1-130.21,305.65Z" transform="translate(153.67 -281.71)"/><path d="M-109.23,306.06c-.43.56-1.63,2.29-2.5,2.21-.32,0-.38-.34-.37-.63a1.5,1.5,0,0,1,.09-.44c.79-.34,2.12-1.08,2.23-1.59s-.78-1.31-1.5-1a3.72,3.72,0,0,0-1.55,2c-.24.31-.54.67-.8,1a2.93,2.93,0,0,1-.58.58c-.31.13.06-1.28.58-2.47l.12-.27a29.2,29.2,0,0,1,1.52-3c-.12-.29-.76-.29-1,0a10.7,10.7,0,0,0-.66,1.24l-.62,1.26,0,.08-.15-.1a1.24,1.24,0,0,0-1.14-.15,3.75,3.75,0,0,0-1.35,1.62c-.45.64-1.37,1.75-1.74,1.81s-.18-.62.36-1.71c.33-.64.53-.83.56-1.07s-.66-.59-.78-.43a12.36,12.36,0,0,1-.75,1.48c0,.06,0,.1-.07.15a6.93,6.93,0,0,1-1.06,1.16c.07-.56-.32-1.16-.32-1.74a.86.86,0,0,1,.84-.91c.15-.09,0-.7-.46-.7a1.29,1.29,0,0,0-.94.64,1.33,1.33,0,0,0-.24.51c-.4.52-1,1.33-1.38,1.81-.41.09-.5.29-.44.49a1.59,1.59,0,0,1-.38.31c-.47.2.08-1.44.61-2.68.05-.13.11-.26.17-.39a4.05,4.05,0,0,1,.81.05.19.19,0,0,0,.14-.32,2.27,2.27,0,0,0-.78-.07,15.51,15.51,0,0,0,.71-1.39c0-.23-.4-.59-.71-.48-.06.25-.35.69-1,1.88a2.75,2.75,0,0,1-.55,0c-.21.08-.24.36,0,.36h.43c-.25.5-.43.93-.58,1.29-.5.69-1.52,1.87-1.72,1.8s.78-2.35,1-2.68-.56-.6-.72-.44-2.33,3.14-2.64,3.09,1.31-2.68,1.37-3-.64-.61-.78-.41-1.3,2-1.45,3a.8.8,0,0,0,1.08.76A5.4,5.4,0,0,0-126.9,307a1.71,1.71,0,0,0-.13.95,1,1,0,0,0,1.14.64c.29-.07.73-.58,1.12-1.12a1.42,1.42,0,0,0,0,.45c.08.55,1,.83,1.31.66a1.49,1.49,0,0,0,.4-.33,2.39,2.39,0,0,0,2.82-.08,4.84,4.84,0,0,0,.65-.63.94.94,0,0,0,.13.68,1,1,0,0,0,1.24.28,4.13,4.13,0,0,0,.89-.89,1,1,0,0,0,0,.39,1,1,0,0,0,1,.59,3.75,3.75,0,0,0,1.13-1.26,2,2,0,0,0,0,.58.87.87,0,0,0,.77.71.81.81,0,0,0,.49-.06,1.4,1.4,0,0,0,.31-.25,7.59,7.59,0,0,0,.69-.86,1.35,1.35,0,0,0,.07.36,1.44,1.44,0,0,0,1.9.77,6.21,6.21,0,0,0,2-2.41C-108.85,305.94-109.12,305.94-109.23,306.06Zm-1.53-.76c.36-.33.57-.17.3.19a5.77,5.77,0,0,1-1.34,1.2A5.84,5.84,0,0,1-110.76,305.3Zm-10.76,2.81a.65.65,0,0,1-.2.15c-.49,0-.89-.07-1-.22a1.35,1.35,0,0,1,.91-.6.12.12,0,0,0,0-.19,1.23,1.23,0,0,0-.49,0,8.93,8.93,0,0,0,.57-.86l.11-.15a1.43,1.43,0,0,0,.07.28C-121.41,306.91-121.15,307.73-121.52,308.11Zm7.08-2.78c-.15.33-.28.62-.39.88a6.81,6.81,0,0,1-1.7,2c-.22,0,1-2.73,1.63-3a.52.52,0,0,1,.46.09h0Z" transform="translate(153.67 -281.71)"/><path d="M-127,312.61h-.79v1.48h-.2v-1.48h-.79v-.18H-127Z" transform="translate(153.67 -281.71)"/><path d="M-124.91,312.43v1.66h-.2v-.75h-1.37v.75h-.2v-1.66h.2v.72h1.37v-.72Z" transform="translate(153.67 -281.71)"/><path d="M-122.75,313.91v.18h-1.61v-1.66h1.59v.18h-1.39v.54H-123v.19h-1.18v.57Z" transform="translate(153.67 -281.71)"/><path d="M-119.79,313.64c0,.3-.24.45-.62.45h-1.16v-1.66h1.11c.34,0,.58.14.58.42a.37.37,0,0,1-.36.39C-120,313.25-119.79,313.36-119.79,313.64Zm-1.58-.49h.88c.24,0,.41-.06.41-.27s-.17-.27-.41-.27h-.88Zm1.38.47c0-.21-.17-.29-.46-.29h-.92v.58h.92C-120.16,313.91-120,313.83-120,313.62Z" transform="translate(153.67 -281.71)"/><path d="M-119.49,313.26c0-.54.38-.88,1-.88s1,.34,1,.88-.38.88-1,.88S-119.49,313.8-119.49,313.26Zm1.83,0c0-.45-.32-.7-.81-.7s-.81.25-.81.7.31.7.81.7S-117.66,313.71-117.66,313.26Z" transform="translate(153.67 -281.71)"/><path d="M-116.31,313.25l.79.84h-.26l-.66-.7-.66.7h-.25l.78-.84-.78-.82h.26l.65.69.66-.69h.25Z" transform="translate(153.67 -281.71)"/></svg>