<svg id="Layer_1" data-name="Layer 1" xmlns="http://www.w3.org/2000/svg" viewBox="0 0 152.11 200"><defs><style>.cls-1{fill:#fff;}.cls-2{fill:red;}</style></defs><title>Think Outisde the Box</title><rect class="cls-1" width="152.11" height="200"/><path d="M68.12,118c4-7.84,6-10.75,7.66-13a2,2,0,0,0-.85-1.39c8.37-.13,13.37-.32,15.12-1.77.52-.38,1.43-2.41-.84-1.71-3,1.33-11.87.76-19,.7-2.45,0-5.33-.07-8.31.07-1.55.07-3.13.18-4.69.36-5.61.64-11,2.11-14,5.39-5.32,5.82-.32,11.38,2.73,11.51,1.29.19,1.55-.63.65-1.33-2.27-.69-1.17-4.74.64-6.89,1.44-1.7,3.92-3.87,10-5.18a46.5,46.5,0,0,1,4.69-.74c2.11-.23,4.51-.38,7.27-.41h.46c-2.26,3.36-5.73,9.8-7.72,13.31-.06.12-.14.24-.2.35-.87,1.63-2.63,5-4.5,8.77-3,6-6.27,12.9-6.59,14.77s2.79,3.61,5.51,3.42a21.49,21.49,0,0,1,1.08-3.23c1.07-2.69,2.79-6.51,4.72-10.57C63.92,126.12,66.16,121.65,68.12,118Z" transform="translate(-30.79 -43.05)"/><path d="M90.85,142.73c-1.75-.57,3.76-11.38,5.58-16.32.84-2.28-2.85-6.2-6-5.38-3.44,1-13.24,12.91-14.21,14.11.32-.57,2.66-4.74,7.07-13.6,4.54-9.11,6.1-10.69,6.29-12.53.2-1.58-4.08-3.73-5.38-2.78-.13,1.07-3.44,7.72-6.81,14.49-5.65,11.13-9.28,18.47-10.06,21.19-.58,2,3.89,4.3,6.1,2.22.65-1.9,14.86-20.57,17.26-19.36.71.38-6.23,10.25-5.71,16.13.26,3,5.64,6.2,9.34,3.42a30.05,30.05,0,0,0,4.73-5,17,17,0,0,1,1.69-6.22C97,137.73,91.9,143.07,90.85,142.73Z" transform="translate(-30.79 -43.05)"/><path d="M105.38,142.67c-1.94.32-1.23-3.86,2.4-10.69,2.14-4,3.51-5.25,3.7-6.71.26-2.09-4.41-3.73-5.19-2.72-.19,1.71-2.46,4.18-5,9.3-.22.43-.41.84-.59,1.24A17,17,0,0,0,99,139.31a5,5,0,0,0,1,3.42c1.42,1.71,5,3.67,8.24,1.77a21,21,0,0,0,4.27-3.68c.89-1.95,3-6.23,5-10.27C114.74,134.4,108,142.27,105.38,142.67Z" transform="translate(-30.79 -43.05)"/><path d="M112.32,118a6.53,6.53,0,0,0,4-.45c1.36-.5,3-2.59,1.75-3.73a5.65,5.65,0,0,0-6,.19C110.12,115.34,110.38,117.62,112.32,118Z" transform="translate(-30.79 -43.05)"/><path d="M135.29,142.73c-3,.32,4-11.26,5.84-16.38,1.1-3.1-3.18-5.44-5.84-4.62-5,1.52-14.47,14-14.47,14s5-9.23,5.26-11.38c.19-1.52-3.38-3.36-4.87-2.34a65.65,65.65,0,0,1-3.69,8.5c-2,4-4.12,8.32-5,10.27-.19.41-.32.72-.38.9-.59,1.77,4.41,3.92,6,2.47.71-1.9,14.53-19.3,17.25-19,1.24.12-6,9-6.35,15.12-.2,3.73,5.57,6.39,9,4a30.81,30.81,0,0,0,5.12-4.77c.93-2.3,2.18-5.19,3.56-8.23C142.72,136.76,137,142.56,135.29,142.73Z" transform="translate(-30.79 -43.05)"/><path d="M151.73,120.9c-1.66,3.21-3.44,6.92-5,10.42-1.38,3-2.63,5.93-3.56,8.23a26.63,26.63,0,0,0-1.68,4.83c-.06,2.15,4,3,5.32,1.77,0-.76,2.27-6.26,4.93-12.21l.05,0a.1.1,0,0,1,.08,0,13.35,13.35,0,0,0,1.75,6.58,8.55,8.55,0,0,0,2.91,3,7.13,7.13,0,0,0,5.59.6c3.5-.88,8-6.7,10.51-10.44.78-1.52-.58-2.78-1.82-1-2.2,2.91-6.81,8.48-9.27,8.42-2.73-.07-4.35-8.29-4.61-10.82h-.13c4.41-3.1,9.34-5.89,10.64-5.82.91-.38.52-2.91-1-2.85-2,.1-6.13,2.71-9.94,5.57-.84.63-1.67,1.27-2.45,1.89.82-1.82,1.67-3.55,2.45-5.1.32-.65.63-1.28.92-1.85,4.8-9.37,8.43-15.69,9.21-16.39.13-1.58-4.54-2.91-6.29-.82a60,60,0,0,0-3.84,6.91c-1.2,2.3-2.69,5.19-4.53,8.71C151.89,120.61,151.81,120.75,151.73,120.9Z" transform="translate(-30.79 -43.05)"/><path d="M132,153.74c-1.63,1.11-1.42,3,.22,3.34a5.39,5.39,0,0,0,3.38-.37c1.15-.42,2.56-2.18,1.47-3.13A4.71,4.71,0,0,0,132,153.74Z" transform="translate(-30.79 -43.05)"/><path d="M62,174.53a47.22,47.22,0,0,0,5.24-9.63c3.24-7.93,1.7-15.3-5.27-18.3a17.49,17.49,0,0,0-4.73-1.22l-.85-.1c-11.45-1-21.64,8-23.33,16.43a8.73,8.73,0,0,0,2.83,8.51c-1.31,4.46-.82,7.07.22,9.57,1.42,3.51,8.72,6.86,12.16,5.74a24.6,24.6,0,0,0,9-5.54A36.19,36.19,0,0,0,62,174.53Zm-17.88,8.56c-3.87.21-5-4.68-3.43-10.16a12.78,12.78,0,0,0,4.47.74c2.07,0,4.09-.42,5.4-1.86,1.8-2,.92-4.68-.11-4.57-1.69,3-5.95,4.84-9.11,3.67a53,53,0,0,1,4.36-8.35c3.17-5,5.89-7.55,6.76-8.19.71-1.49-4-2.28-5.67-1.11a39.2,39.2,0,0,0-5.67,6.43,30.26,30.26,0,0,0-3.81,6.75c-.71-3.08.54-6.86,1.85-9.2a19.23,19.23,0,0,1,17.61-9.94l.47,0a6.43,6.43,0,0,1,4.74,2c2.81,3.15,2.06,9.42,0,14.66l-.15.39a41.21,41.21,0,0,1-4.6,8.29C53.06,178.5,47.84,182.86,44.08,183.09Z" transform="translate(-30.79 -43.05)"/><path d="M84.27,177.93c-1.86-.59,4.36-12.39,5.56-14.15,1-1.91-3.17-3.13-4-2.28-.27.85-13,16.53-14.77,16.27-2-.32,7.3-14.15,7.68-15.69s-3.59-3.24-4.36-2.18c-.11,1.49-7.3,10.48-8.12,15.74-.44,3,3.76,5.27,6,4,3.82-2,7.42-7.44,8-8.24a8.78,8.78,0,0,0-.71,5c.43,1.81,3.49,4,6.38,3.4,1.62-.36,4.08-3.09,6.24-5.91a25.86,25.86,0,0,1,1.7-5.44C91.06,172.11,85.41,178.29,84.27,177.93Z" transform="translate(-30.79 -43.05)"/><path d="M100.15,176.14a8.87,8.87,0,0,1-2.09,1.63c-2.67,1.06.44-7.61,3.38-14.15.27-.63.6-1.32,1-2a23.54,23.54,0,0,1,4.53.27,1,1,0,0,0,.76-1.7c-.27-.27-2.13-.37-4.36-.37,1.8-3.3,3.71-6.22,4-7.34s-2.24-3.09-4-2.5c-.33,1.33-2,3.62-5.29,9.89a17.5,17.5,0,0,1-3.11,0c-1.14.42-1.31,1.91-.22,1.91.28,0,1.2,0,2.4-.05-1.37,2.64-2.43,4.89-3.23,6.83a25.86,25.86,0,0,0-1.7,5.44,7.35,7.35,0,0,0-.08,2.35c.43,2.92,5.34,4.41,7.3,3.51a9.6,9.6,0,0,0,2.26-1.75l-.08-.06A3.92,3.92,0,0,1,100.15,176.14Z" transform="translate(-30.79 -43.05)"/><path d="M116.6,175.59c.38-2.93-1.8-6.12-1.8-9.15a4.71,4.71,0,0,1,4.74-4.78c.82-.48-.05-3.72-2.62-3.72-2,0-3.81,1.54-5.23,3.4a7.31,7.31,0,0,0-1.36,2.66c-2.24,2.76-5.4,7-7.69,9.57-2.31.45-2.82,1.52-2.49,2.57A3.92,3.92,0,0,0,101.6,178l.08.06c4.91,3.49,11.83,2.53,15.79-.43a27.23,27.23,0,0,0,3.59-3.27,15.83,15.83,0,0,1,1.46-4.76A36.64,36.64,0,0,1,116.6,175.59Zm-6.22,1.75a3.45,3.45,0,0,1-1.09.8c-2.78.11-5-.37-5.4-1.17.28-1.17,3.6-3.14,5.13-3.14a.63.63,0,0,0-.06-1,8.08,8.08,0,0,0-2.75,0l-.41.06c1.21-1.5,2.45-3.1,3.6-4.59.2-.26.4-.53.6-.78a7.59,7.59,0,0,0,.38,1.49C111,171,112.45,175.32,110.38,177.34Z" transform="translate(-30.79 -43.05)"/><path d="M126.36,177.82c-1.64.27-1-3.24,2-9,1.8-3.41,2.95-4.42,3.11-5.64.22-1.76-3.71-3.14-4.36-2.29-.16,1.44-2.07,3.51-4.2,7.82-.14.29-.28.57-.4.85a15.83,15.83,0,0,0-1.46,4.76,4.58,4.58,0,0,0,.77,3.53c1.2,1.44,4.2,3.09,6.93,1.49a22,22,0,0,0,5-4.65,20.45,20.45,0,0,1,2.33-6.4C133.49,171.72,128.39,177.51,126.36,177.82Z" transform="translate(-30.79 -43.05)"/><path d="M159,169.7c-.78.93-1.65,2-2.53,3a50.16,50.16,0,0,1-4.7,4.88,2.12,2.12,0,0,1-.52.33c-1.08.44-.66-2.32.52-6a61.67,61.67,0,0,1,3.41-8.42c.45-.92.88-1.78,1.29-2.59,5-10.1,6.51-12.29,7.21-13.42-.65-1.49-4.25-1.49-5.45,0a22.46,22.46,0,0,0-1.76,2.89c-1.11,2-2.65,5-4.72,8.92l-.72,1.38-.21.42c-1.75-1.22-4.64-2.44-7.2-1.33s-5.6,4.85-7.59,8.57a20.45,20.45,0,0,0-2.33,6.4,4.36,4.36,0,0,0,.11,2c.76,2.19,4.14,3.83,5.72,3.14,2-1,4.36-3.77,6.33-6.64a9.69,9.69,0,0,0-.11,3c.37,2.86,3.66,4.15,6,3.75a4,4,0,0,0,1-.3,15.09,15.09,0,0,0,3.69-3.46c.63-.75,1.28-1.55,1.91-2.37A11,11,0,0,1,159,169.7Zm-11.18-2.35c-2.78,4.25-8.56,10.42-9.54,10.26-1.2-.16,5.34-14.36,9.1-15.69a3.15,3.15,0,0,1,2.73.54C149.2,164.32,148.44,165.91,147.84,167.35Z" transform="translate(-30.79 -43.05)"/><path d="M179.13,166.55c-2.4,2.92-9.1,12.07-13.95,11.64-1.8-.16-2.13-1.8-2.08-3.29a7.58,7.58,0,0,1,.5-2.34c4.41-1.81,11.88-5.69,12.48-8.4.65-2.93-4.36-6.86-8.4-5.11-3.15,1.38-7.12,6.07-8.66,10.65a11,11,0,0,0-.62,4.15,6.23,6.23,0,0,0,.4,1.84c1.41,3.67,6.81,6,10.63,4.1,4.69-2.34,9.59-9.31,11.34-12.71C181.26,165.91,179.73,165.91,179.13,166.55Zm-8.56-4c2-1.75,3.22-.9,1.69,1a32,32,0,0,1-7.47,6.28A29.4,29.4,0,0,1,170.57,162.56Z" transform="translate(-30.79 -43.05)"/><path class="cls-2" d="M77.6,195.8H73.52v7.52H70.66V195.8h-4v-2.29h11Z" transform="translate(-30.79 -43.05)"/><path class="cls-2" d="M90.56,193.51v9.81H87.7v-3.8H81.82v3.8H79v-9.81h2.86v3.66H87.7v-3.66Z" transform="translate(-30.79 -43.05)"/><path class="cls-2" d="M103.33,201.14v2.18H92.86v-9.81h10.32v2.19h-7.5v1.61h6.18v2.09H95.68v1.74Z" transform="translate(-30.79 -43.05)"/><path class="cls-2" d="M120.23,200.63c0,1.7-1.52,2.69-3.93,2.69h-7.59v-9.81h7c2.42,0,3.94,1,3.94,2.54a2.16,2.16,0,0,1-2.24,2.16C119,198.3,120.23,199.12,120.23,200.63Zm-8.69-3.21h3.72c.95,0,1.58-.21,1.58-1s-.63-.95-1.58-.95h-3.72Zm5.76,2.87c0-.79-.6-1-1.61-1h-4.15v2.06h4.15C116.7,201.33,117.3,201.09,117.3,200.29Z" transform="translate(-30.79 -43.05)"/><path class="cls-2" d="M121.36,198.42c0-3.32,2.5-5.23,6.39-5.23s6.4,1.91,6.4,5.23-2.52,5.22-6.4,5.22S121.36,201.74,121.36,198.42Zm9.88,0c0-1.85-1.34-2.9-3.49-2.9s-3.49,1-3.49,2.9,1.33,2.9,3.49,2.9S131.24,200.27,131.24,198.42Z" transform="translate(-30.79 -43.05)"/><path class="cls-2" d="M141.75,198.3l4.45,5h-3.43L140,200.2l-2.76,3.12H134l4.44-5-4.34-4.84h3.43l2.66,3,2.65-3h3.27Z" transform="translate(-30.79 -43.05)"/><path d="M142.53,49H70.28A12.94,12.94,0,0,0,57.35,61.91V98.34L62,97.89l0-24.74a1.81,1.81,0,0,1,1.76-1.84H149a1.81,1.81,0,0,1,1.76,1.84l0,44.53,4.7-7.38V61.91A12.94,12.94,0,0,0,142.53,49ZM92.9,63.56a2.69,2.69,0,1,1,2.69-2.68A2.67,2.67,0,0,1,92.9,63.56Zm18.84-1.46H101a1.25,1.25,0,1,1,0-2.45h10.77a1.24,1.24,0,1,1,0,2.45Z" transform="translate(-30.79 -43.05)"/><path d="M150.86,213.29a1.81,1.81,0,0,1-1.76,1.84H63.86a1.81,1.81,0,0,1-1.76-1.84l0-34.36-4.71,4.12v41.14a12.94,12.94,0,0,0,12.93,12.92h72.25a12.94,12.94,0,0,0,12.93-12.92V179.34l-4.63,3.31ZM106.41,232.6a7.13,7.13,0,1,1,7.13-7.13A7.13,7.13,0,0,1,106.41,232.6Z" transform="translate(-30.79 -43.05)"/><path d="M61.92,176.24h.14v-.19A1.33,1.33,0,0,0,61.92,176.24Z" transform="translate(-30.79 -43.05)"/></svg>