<svg id="Layer_1" data-name="Layer 1" xmlns="http://www.w3.org/2000/svg" viewBox="0 0 338 429.53"><title>Think Outisde the Box</title><path d="M85.45,167.71c9-17.91,13.63-24.56,17.48-29.76a4.7,4.7,0,0,0-1.92-3.18c19.1-.28,30.51-.72,34.51-4,1.18-.87,3.25-5.49-1.93-3.9-7,3-27.1,1.73-43.4,1.59-5.59-.09-12.17-.14-19,.16-3.53.16-7.13.42-10.69.83-12.81,1.45-25.08,4.81-31.94,12.3-12.15,13.29-.74,26,6.22,26.29,3,.43,3.55-1.45,1.48-3-5.18-1.59-2.67-10.83,1.48-15.74,3.27-3.86,8.93-8.82,22.76-11.81a103.15,103.15,0,0,1,10.7-1.7c4.81-.52,10.3-.86,16.6-.94h1c-5.16,7.69-13.08,22.38-17.61,30.39l-.46.82c-2,3.71-6,11.46-10.27,20-6.85,13.72-14.33,29.46-15.06,33.73s6.37,8.23,12.59,7.8a49.41,49.41,0,0,1,2.47-7.37C63,214,66.87,205.27,71.28,196,75.87,186.36,81,176.16,85.45,167.71Z" transform="translate(-4.86 -10.24)"/><path d="M137.34,224.28c-4-1.3,8.59-26,12.74-37.26,1.93-5.2-6.52-14.16-13.77-12.28-7.85,2.17-30.22,29.47-32.44,32.21.74-1.3,6.07-10.83,16.14-31.06,10.37-20.8,13.93-24.41,14.37-28.6.45-3.61-9.33-8.52-12.29-6.35-.3,2.45-7.85,17.62-15.55,33.08-12.89,25.42-21.18,42.18-23,48.39-1.34,4.62,8.88,9.82,13.92,5.05,1.48-4.33,33.92-46.94,39.4-44.2,1.63.87-14.22,23.4-13,36.84.59,6.78,12.88,14.15,21.32,7.8,3.08-2.32,6.93-6.52,10.82-11.43.09-3.62,1.21-8.28,3.85-14.19C151.39,212.87,139.74,225.06,137.34,224.28Z" transform="translate(-4.86 -10.24)"/><path d="M170.52,224.14c-4.44.72-2.81-8.81,5.48-24.41,4.89-9.25,8-12,8.45-15.31.59-4.77-10.08-8.53-11.85-6.21-.45,3.9-5.63,9.53-11.41,21.23-.48,1-.92,1.92-1.33,2.84-2.64,5.91-3.76,10.57-3.85,14.19s.79,6.09,2.22,7.81c3.26,3.9,11.4,8.38,18.81,4.05a47.41,47.41,0,0,0,9.75-8.42c2-4.44,7-14.22,11.44-23.45C191.89,205.27,176.44,223.22,170.52,224.14Z" transform="translate(-4.86 -10.24)"/><path d="M186.37,167.81c4.15.72,5.93.14,9.18-1s7-5.92,4-8.52c-3.55-2.6-9.77-2.31-13.77.44C181.33,161.74,181.93,166.94,186.37,167.81Z" transform="translate(-4.86 -10.24)"/><path d="M238.8,224.28c-7,.73,9-25.71,13.33-37.41,2.52-7.08-7.25-12.42-13.33-10.54-11.4,3.46-33,32.07-33,32.07s11.41-21.09,12-26c.45-3.46-7.7-7.65-11.11-5.34-.64,2.93-4.33,10.93-8.43,19.41-4.47,9.23-9.41,19-11.44,23.45-.43,1-.73,1.66-.86,2.06-1.34,4.05,10.07,9,13.62,5.64,1.63-4.34,33.18-44.06,39.4-43.48,2.82.29-13.77,20.65-14.51,34.52-.45,8.52,12.73,14.59,20.58,9.25A69.76,69.76,0,0,0,256.7,217c2.13-5.25,5-11.85,8.14-18.79C255.76,210.65,242.65,223.9,238.8,224.28Z" transform="translate(-4.86 -10.24)"/><path d="M276.35,174.43c-3.81,7.34-7.86,15.79-11.51,23.8-3.16,6.94-6,13.54-8.14,18.79-2.32,5.71-3.78,9.83-3.82,11-.15,4.91,9.18,6.93,12.14,4,0-1.73,5.19-14.29,11.26-27.87.05,0,.07,0,.1-.05a.26.26,0,0,1,.19-.1,30.34,30.34,0,0,0,4,15,19.49,19.49,0,0,0,6.64,6.87A16.45,16.45,0,0,0,300,227.32c8-2,18.36-15.31,24-23.84,1.78-3.46-1.33-6.35-4.15-2.31-5,6.65-15.55,19.36-21.18,19.21-6.22-.14-9.92-18.92-10.51-24.7h-.3c10.07-7.07,21.33-13.43,24.29-13.29,2.08-.86,1.19-6.64-2.22-6.5-4.61.24-14,6.2-22.69,12.72-1.92,1.43-3.81,2.89-5.6,4.33,1.88-4.17,3.83-8.12,5.6-11.67.73-1.48,1.45-2.9,2.1-4.22,11-21.38,19.26-35.82,21-37.41C310.64,136,300,133,296,137.76c-1.32,1.56-4,6.63-8.77,15.79-2.73,5.25-6.13,11.84-10.34,19.89C276.7,173.77,276.53,174.1,276.35,174.43Z" transform="translate(-4.86 -10.24)"/><path d="M231.23,249.4c-3.73,2.55-3.23,6.92.5,7.65,3.49.61,5,.12,7.72-.85s5.85-5,3.36-7.16C239.82,246.85,234.59,247.1,231.23,249.4Z" transform="translate(-4.86 -10.24)"/><path d="M71.39,296.88a107.49,107.49,0,0,0,12-22c7.41-18.11,3.9-34.93-12-41.78a39.64,39.64,0,0,0-10.8-2.8c-.64-.08-1.28-.16-2-.22-26.14-2.31-49.42,18.21-53.28,37.51A19.94,19.94,0,0,0,11.77,287c-3,10.2-1.87,16.14.5,21.85C15.5,316.9,32.18,324.55,40,322a56.38,56.38,0,0,0,20.5-12.65A82.44,82.44,0,0,0,71.39,296.88ZM30.56,316.42c-8.83.48-11.32-10.69-7.84-23.19a29.63,29.63,0,0,0,10.21,1.7c4.73-.12,9.34-1,12.32-4.25,4.11-4.61,2.12-10.68-.25-10.44-3.85,6.8-13.56,11.05-20.78,8.38a120.55,120.55,0,0,1,10-19.06c7.22-11.42,13.45-17.24,15.44-18.7,1.62-3.4-9.21-5.22-13-2.55A89.66,89.66,0,0,0,23.72,263,68.35,68.35,0,0,0,15,278.42c-1.61-7,1.25-15.66,4.24-21,6.84-12,20.16-23.19,40.2-22.71.38,0,.73,0,1.08,0,4.9.22,8.42,1.89,10.81,4.57,6.42,7.19,4.7,21.51,0,33.49-.11.29-.22.58-.34.87a95.26,95.26,0,0,1-10.5,18.94C51.07,306,39.13,315.91,30.56,316.42Z" transform="translate(-4.86 -10.24)"/><path d="M122.31,304.64c-4.23-1.34,10-28.29,12.7-32.29,2.36-4.37-7.22-7.16-9.22-5.22-.62,1.94-29.75,37.75-33.73,37.15-4.48-.73,16.68-32.3,17.55-35.82s-8.21-7.4-10-5c-.25,3.4-16.68,23.91-18.54,35.93-1,6.92,8.58,12,13.81,9.23,8.72-4.62,16.93-17,18.3-18.82-.75,2.18-2.74,6.68-1.62,11.41,1,4.13,8,9.23,14.57,7.77,3.7-.82,9.32-7.05,14.25-13.5a60,60,0,0,1,3.89-12.42C137.82,291.35,124.92,305.46,122.31,304.64Z" transform="translate(-4.86 -10.24)"/><path d="M158.57,300.56a20.16,20.16,0,0,1-4.77,3.72c-6.09,2.42,1-17.36,7.72-32.3.63-1.45,1.37-3,2.24-4.61,5,0,9.46.24,10.34.61a2.3,2.3,0,0,0,1.74-3.89c-.62-.6-4.86-.85-10-.85,4.11-7.52,8.46-14.2,9.09-16.75s-5.11-7-9.09-5.71c-.75,3-4.48,8.26-12.08,22.58a36.16,36.16,0,0,1-7.09-.12c-2.62,1-3,4.37-.5,4.37.62,0,2.74,0,5.48-.12-3.14,6-5.56,11.18-7.38,15.6a60,60,0,0,0-3.89,12.42,17.2,17.2,0,0,0-.18,5.37c1,6.67,12.2,10.07,16.68,8a22.21,22.21,0,0,0,5.16-4l-.18-.13A8.89,8.89,0,0,1,158.57,300.56Z" transform="translate(-4.86 -10.24)"/><path d="M196.13,299.3c.87-6.68-4.11-14-4.11-20.88,0-8.38,7.47-11.05,10.83-10.93,1.87-1.09-.12-8.5-6-8.5-4.61,0-8.72,3.52-11.95,7.77a16.8,16.8,0,0,0-3.12,6.07c-5.1,6.32-12.32,16-17.55,21.86-5.27,1-6.44,3.47-5.69,5.87a8.89,8.89,0,0,0,3.33,4.2l.18.13c11.19,8,27,5.78,36-1a61.14,61.14,0,0,0,8.2-7.46,36,36,0,0,1,3.33-10.88C205.82,290.24,200.8,295.92,196.13,299.3Zm-14.19,4a8.1,8.1,0,0,1-2.49,1.83c-6.35.24-11.45-.85-12.33-2.67.63-2.68,8.22-7.17,11.71-7.17a1.45,1.45,0,0,0-.13-2.3c-.68-.33-3.3-.36-6.28,0l-.94.12c2.75-3.41,5.58-7.06,8.21-10.48l1.38-1.78a16.5,16.5,0,0,0,.87,3.4C183.43,288.86,186.67,298.69,181.94,303.3Z" transform="translate(-4.86 -10.24)"/><path d="M218.41,304.4c-3.73.61-2.36-7.41,4.61-20.52,4.1-7.77,6.72-10.08,7.09-12.87.5-4-8.46-7.16-10-5.22-.37,3.28-4.73,8-9.58,17.85-.33.66-.63,1.3-.92,1.93a36,36,0,0,0-3.33,10.88c-.41,3.77.37,6.39,1.76,8.07,2.74,3.28,9.58,7,15.81,3.4,3.47-2,7.53-6.08,11.34-10.64.52-4,2.5-9.33,5.32-14.59C234.69,290.46,223.06,303.68,218.41,304.4Z" transform="translate(-4.86 -10.24)"/><path d="M293,285.85c-1.79,2.14-3.79,4.48-5.79,6.76-4.21,4.8-8.43,9.33-10.73,11.14a5.68,5.68,0,0,1-1.18.77c-2.47,1-1.51-5.31,1.17-13.67a144.94,144.94,0,0,1,7.79-19.23c1-2.1,2-4.06,2.95-5.91,11.53-23.06,14.86-28,16.47-30.63-1.49-3.4-9.71-3.4-12.45,0a51.73,51.73,0,0,0-4,6.6c-2.53,4.59-6,11.35-10.77,20.37l-1.64,3.14-.5,1c-4-2.8-10.58-5.59-16.43-3-6.1,2.69-12.78,11.07-17.32,19.57-2.82,5.26-4.8,10.56-5.32,14.59a10,10,0,0,0,.24,4.57c1.74,5,9.46,8.74,13.07,7.16,4.6-2.18,10-8.62,14.44-15.17a22.24,22.24,0,0,0-.25,6.92c.86,6.52,8.37,9.48,13.76,8.57a9.11,9.11,0,0,0,2.29-.68c2.05-1,5.15-4.06,8.43-7.92,1.44-1.69,2.92-3.54,4.36-5.41A24.59,24.59,0,0,1,293,285.85Zm-25.54-5.37c-6.35,9.71-19.55,23.8-21.79,23.43-2.74-.36,12.2-32.78,20.79-35.81a7.24,7.24,0,0,1,6.23,1.21C270.57,273.56,268.83,277.2,267.46,280.48Z" transform="translate(-4.86 -10.24)"/><path d="M338.91,278.66c-5.48,6.68-20.79,27.56-31.87,26.59-4.1-.37-4.85-4.13-4.73-7.53a17.86,17.86,0,0,1,1.12-5.34c10.09-4.13,27.14-13,28.51-19.18,1.49-6.68-10-15.66-19.17-11.66-7.21,3.15-16.27,13.85-19.77,24.31a24.59,24.59,0,0,0-1.43,9.47,14.7,14.7,0,0,0,.91,4.22c3.24,8.38,15.56,13.72,24.27,9.35,10.71-5.34,21.91-21.25,25.9-29C343.77,277.2,340.28,277.2,338.91,278.66Zm-19.54-9.1c4.6-4,7.34-2.07,3.86,2.3-3.24,4.13-10.34,10.2-17.06,14.33A66.44,66.44,0,0,1,319.37,269.56Z" transform="translate(-4.86 -10.24)"/><path d="M107.09,345.44H97.78v17.18H91.25V345.44H82v-5.22h25.09Z" transform="translate(-4.86 -10.24)"/><path d="M136.69,340.22v22.4h-6.53V354H116.72v8.67h-6.53v-22.4h6.53v8.35h13.44v-8.35Z" transform="translate(-4.86 -10.24)"/><path d="M165.84,357.63v5h-23.9v-22.4h23.55v5H148.37v3.68h14.11v4.77H148.37v4Z" transform="translate(-4.86 -10.24)"/><path d="M204.43,356.48c0,3.87-3.49,6.14-9,6.14H178.13v-22.4h16c5.5,0,9,2.21,9,5.79,0,2.53-1.76,4.74-5.12,4.93C201.55,351.16,204.43,353,204.43,356.48Zm-19.84-7.33h8.48c2.18,0,3.62-.48,3.62-2.21s-1.44-2.18-3.62-2.18h-8.48Zm13.15,6.56c0-1.83-1.37-2.34-3.68-2.34h-9.47v4.71h9.47C196.37,358.08,197.74,357.53,197.74,355.71Z" transform="translate(-4.86 -10.24)"/><path d="M207,351.42c0-7.58,5.73-11.94,14.59-11.94s14.63,4.36,14.63,11.94-5.76,11.94-14.63,11.94S207,359,207,351.42Zm22.56,0c0-4.22-3-6.62-8-6.62s-8,2.4-8,6.62,3,6.62,8,6.62S229.55,355.64,229.55,351.42Z" transform="translate(-4.86 -10.24)"/><path d="M253.55,351.16l10.18,11.46h-7.84l-6.31-7.14-6.3,7.14h-7.42L246,351.26l-9.92-11h7.84l6.08,6.85,6.05-6.85h7.45Z" transform="translate(-4.86 -10.24)"/><path d="M255.34,10.24h-165a29.54,29.54,0,0,0-29.51,29.5v83.18l10.55-1,0-56.47a4.13,4.13,0,0,1,4-4.22H270a4.13,4.13,0,0,1,4,4.22l.1,101.66,10.73-16.85V39.74A29.55,29.55,0,0,0,255.34,10.24ZM142,43.52a6.14,6.14,0,1,1,6.15-6.12A6.11,6.11,0,0,1,142,43.52Zm43-3.34H160.45a3.14,3.14,0,0,1-3.37-2.79,3.13,3.13,0,0,1,3.37-2.8H185a3.12,3.12,0,0,1,3.35,2.8A3.14,3.14,0,0,1,185,40.18Z" transform="translate(-4.86 -10.24)"/><path d="M274.35,385.38a4.13,4.13,0,0,1-4,4.21H75.72a4.13,4.13,0,0,1-4-4.21l-.08-78.44-10.76,9.39v93.93a29.54,29.54,0,0,0,29.51,29.5h165a29.55,29.55,0,0,0,29.52-29.5V307.87l-10.57,7.55Zm-101.48,44.1a16.29,16.29,0,1,1,16.27-16.29A16.3,16.3,0,0,1,172.87,429.48Z" transform="translate(-4.86 -10.24)"/><path d="M71.29,300.78h.31v-.44Z" transform="translate(-4.86 -10.24)"/></svg>