<svg id="Layer_1" data-name="Layer 1" xmlns="http://www.w3.org/2000/svg" viewBox="0 0 190.14 250"><defs><style>.cls-1{fill:#fff;}.cls-2{fill:red;}</style></defs><title>Think Outisde the Box</title><rect class="cls-1" width="190.14" height="250"/><path d="M58.44,111.68c5-9.81,7.46-13.44,9.57-16.29A2.54,2.54,0,0,0,67,93.65c10.46-.16,16.7-.4,18.89-2.21.65-.48,1.79-3-1-2.14C81,91,70,90.25,61,90.17c-3.07,0-6.67-.08-10.39.09-1.94.09-3.91.23-5.86.45-7,.8-13.73,2.63-17.49,6.74-6.65,7.27-.4,14.23,3.41,14.39,1.62.24,1.95-.79.81-1.66-2.84-.87-1.46-5.93.81-8.62,1.79-2.12,4.89-4.83,12.46-6.47a57,57,0,0,1,5.86-.93c2.63-.28,5.64-.47,9.09-.51h.57c-2.83,4.21-7.16,12.25-9.64,16.64-.09.15-.18.3-.25.44-1.09,2-3.29,6.28-5.63,11C41,129.19,37,137.81,36.55,140.15s3.49,4.51,6.89,4.27a27.15,27.15,0,0,1,1.35-4c1.33-3.37,3.48-8.15,5.89-13.22C53.19,121.89,56,116.31,58.44,111.68Z" transform="translate(-11.78 -18.05)"/><path d="M86.85,142.65c-2.19-.71,4.71-14.23,7-20.4,1-2.85-3.57-7.75-7.55-6.72-4.29,1.19-16.54,16.13-17.75,17.64.4-.72,3.32-5.94,8.83-17C83,104.77,85,102.8,85.23,100.5c.24-2-5.11-4.66-6.73-3.48-.16,1.35-4.3,9.65-8.51,18.11-7.06,13.92-11.6,23.1-12.57,26.5-.73,2.53,4.86,5.37,7.62,2.76.81-2.37,18.57-25.7,21.57-24.19.89.47-7.79,12.81-7.14,20.16.33,3.72,7.06,7.75,11.68,4.27a37.62,37.62,0,0,0,5.92-6.25,20.81,20.81,0,0,1,2.11-7.77C94.54,136.4,88.17,143.08,86.85,142.65Z" transform="translate(-11.78 -18.05)"/><path d="M105,142.58c-2.44.39-1.54-4.83,3-13.37,2.67-5.06,4.38-6.56,4.62-8.38.32-2.61-5.52-4.67-6.49-3.4-.24,2.13-3.08,5.22-6.24,11.62-.27.54-.51,1-.73,1.56a20.81,20.81,0,0,0-2.11,7.77,6.24,6.24,0,0,0,1.22,4.27c1.78,2.14,6.24,4.59,10.29,2.22a25.84,25.84,0,0,0,5.34-4.61c1.11-2.43,3.82-7.79,6.26-12.84C116.71,132.24,108.26,142.07,105,142.58Z" transform="translate(-11.78 -18.05)"/><path d="M113.69,111.73a8.1,8.1,0,0,0,5-.55c1.7-.63,3.81-3.24,2.19-4.67-2-1.42-5.35-1.26-7.54.24C110.94,108.41,111.26,111.26,113.69,111.73Z" transform="translate(-11.78 -18.05)"/><path d="M142.4,142.65c-3.81.4,4.95-14.07,7.3-20.48,1.38-3.87-4-6.8-7.3-5.77-6.24,1.9-18.08,17.56-18.08,17.56s6.24-11.55,6.56-14.24c.25-1.9-4.21-4.19-6.08-2.92-.35,1.6-2.37,6-4.62,10.62-2.44,5-5.15,10.41-6.26,12.84-.23.52-.4.91-.47,1.13-.73,2.21,5.51,4.9,7.46,3.08.89-2.37,18.16-24.12,21.57-23.8,1.54.16-7.54,11.31-7.95,18.9-.24,4.67,7,8,11.27,5.06a38.17,38.17,0,0,0,6.4-5.95c1.16-2.88,2.72-6.49,4.46-10.29C151.68,135.19,144.51,142.44,142.4,142.65Z" transform="translate(-11.78 -18.05)"/><path d="M163,115.36c-2.09,4-4.31,8.65-6.3,13-1.74,3.8-3.3,7.41-4.46,10.29a34,34,0,0,0-2.1,6c-.08,2.69,5,3.8,6.65,2.22,0-1,2.84-7.83,6.17-15.27a.05.05,0,0,0,.05,0,.19.19,0,0,1,.11,0,16.57,16.57,0,0,0,2.19,8.23,10.68,10.68,0,0,0,3.63,3.76,9.06,9.06,0,0,0,7,.75c4.38-1.11,10.06-8.39,13.14-13,1-1.9-.73-3.48-2.27-1.27-2.76,3.64-8.52,10.6-11.6,10.52-3.41-.08-5.43-10.36-5.76-13.52h-.16c5.51-3.88,11.68-7.36,13.3-7.28,1.13-.47.65-3.64-1.22-3.56-2.52.13-7.66,3.39-12.42,7-1.05.79-2.08,1.59-3.07,2.37,1-2.28,2.1-4.44,3.07-6.38l1.15-2.31c6-11.71,10.54-19.62,11.52-20.49.16-2-5.68-3.64-7.87-1-.72.86-2.2,3.63-4.8,8.65-1.49,2.87-3.36,6.48-5.66,10.89Z" transform="translate(-11.78 -18.05)"/><path d="M138.25,156.41c-2,1.39-1.77,3.79.28,4.18a6.76,6.76,0,0,0,4.22-.46c1.43-.53,3.21-2.73,1.84-3.92A5.9,5.9,0,0,0,138.25,156.41Z" transform="translate(-11.78 -18.05)"/><path d="M50.74,182.4a59.27,59.27,0,0,0,6.55-12c4.05-9.91,2.13-19.12-6.58-22.87A22,22,0,0,0,44.79,146c-.35-.05-.7-.09-1.06-.12-14.32-1.26-27.06,10-29.17,20.54A10.9,10.9,0,0,0,18.1,177c-1.63,5.58-1,8.84.27,12,1.78,4.39,10.91,8.58,15.2,7.18a30.83,30.83,0,0,0,11.22-6.92A44.78,44.78,0,0,0,50.74,182.4ZM28.39,193.1c-4.84.26-6.2-5.85-4.29-12.7a15.91,15.91,0,0,0,5.59.93c2.59-.07,5.11-.53,6.74-2.32,2.25-2.53,1.16-5.85-.13-5.72-2.12,3.72-7.43,6.05-11.38,4.59a65.42,65.42,0,0,1,5.45-10.44c3.95-6.25,7.36-9.44,8.45-10.24.89-1.86-5-2.85-7.09-1.39a49.52,49.52,0,0,0-7.09,8,38.12,38.12,0,0,0-4.77,8.44c-.88-3.85.68-8.57,2.32-11.5a24,24,0,0,1,22-12.42l.59,0a8,8,0,0,1,5.92,2.49c3.52,3.94,2.58,11.78,0,18.34-.06.16-.12.32-.19.48a52.05,52.05,0,0,1-5.75,10.37C39.62,187.36,33.08,192.82,28.39,193.1Z" transform="translate(-11.78 -18.05)"/><path d="M78.62,186.65c-2.32-.73,5.45-15.49,6.95-17.68,1.3-2.39-3.95-3.92-5-2.86-.34,1.06-16.29,20.67-18.47,20.34-2.45-.4,9.13-17.68,9.61-19.61s-4.5-4.05-5.45-2.72c-.14,1.86-9.14,13.09-10.16,19.67-.54,3.79,4.7,6.58,7.57,5.05,4.77-2.52,9.27-9.3,10-10.3-.41,1.2-1.5,3.66-.89,6.25.54,2.26,4.36,5.05,8,4.25,2-.45,5.11-3.86,7.81-7.39a32.25,32.25,0,0,1,2.13-6.8C87.12,179.37,80.05,187.1,78.62,186.65Z" transform="translate(-11.78 -18.05)"/><path d="M98.47,184.41a11.08,11.08,0,0,1-2.61,2c-3.34,1.33.55-9.51,4.23-17.68a27.67,27.67,0,0,1,1.23-2.53,29.18,29.18,0,0,1,5.65.34,1.26,1.26,0,0,0,1-2.13c-.34-.33-2.66-.47-5.46-.47,2.25-4.12,4.64-7.77,5-9.17s-2.79-3.85-5-3.12c-.4,1.66-2.45,4.52-6.61,12.36A19.5,19.5,0,0,1,92,164c-1.43.54-1.64,2.4-.27,2.4.34,0,1.5,0,3-.07-1.72,3.3-3,6.12-4,8.54a32.25,32.25,0,0,0-2.13,6.8,9.06,9.06,0,0,0-.1,2.94c.54,3.65,6.67,5.51,9.13,4.38a11.74,11.74,0,0,0,2.82-2.19l-.1-.07A4.88,4.88,0,0,1,98.47,184.41Z" transform="translate(-11.78 -18.05)"/><path d="M119,183.72c.47-3.65-2.25-7.64-2.25-11.43a5.9,5.9,0,0,1,5.93-6c1-.6-.07-4.65-3.28-4.65-2.52,0-4.77,1.93-6.54,4.25a9.12,9.12,0,0,0-1.7,3.32c-2.8,3.46-6.75,8.78-9.61,12-2.89.56-3.53,1.9-3.12,3.21a4.88,4.88,0,0,0,1.82,2.3l.1.07c6.13,4.37,14.79,3.17,19.74-.53a34.07,34.07,0,0,0,4.48-4.08,19.7,19.7,0,0,1,1.83-6A45.79,45.79,0,0,1,119,183.72Zm-7.77,2.2a4.54,4.54,0,0,1-1.37,1c-3.47.14-6.27-.46-6.74-1.46.34-1.46,4.49-3.92,6.4-3.92a.79.79,0,0,0-.07-1.26,9.67,9.67,0,0,0-3.44,0l-.51.06c1.51-1.86,3.06-3.86,4.5-5.73l.75-1a9.1,9.1,0,0,0,.48,1.86C112.08,178,113.86,183.39,111.27,185.92Z" transform="translate(-11.78 -18.05)"/><path d="M131.23,186.52c-2,.33-1.29-4.06,2.53-11.24,2.25-4.25,3.68-5.51,3.88-7,.27-2.2-4.63-3.92-5.45-2.86-.21,1.79-2.59,4.39-5.25,9.77-.18.36-.35.71-.5,1.06a19.7,19.7,0,0,0-1.83,6,5.76,5.76,0,0,0,1,4.41c1.5,1.8,5.25,3.86,8.65,1.86a27.68,27.68,0,0,0,6.21-5.82,25.46,25.46,0,0,1,2.91-8C140.15,178.89,133.78,186.12,131.23,186.52Z" transform="translate(-11.78 -18.05)"/><path d="M172.07,176.36c-1,1.17-2.07,2.45-3.17,3.7a62.21,62.21,0,0,1-5.87,6.1,2.94,2.94,0,0,1-.65.42c-1.35.54-.83-2.91.64-7.48a79.4,79.4,0,0,1,4.27-10.53l1.61-3.24c6.31-12.62,8.14-15.35,9-16.77-.82-1.86-5.32-1.86-6.82,0a29.39,29.39,0,0,0-2.2,3.62c-1.39,2.51-3.31,6.21-5.89,11.15-.3.56-.59,1.13-.9,1.72l-.28.53c-2.18-1.53-5.79-3.06-9-1.66s-7,6.06-9.49,10.71a25.46,25.46,0,0,0-2.91,8,5.55,5.55,0,0,0,.13,2.5c1,2.72,5.18,4.79,7.16,3.92,2.52-1.2,5.45-4.72,7.9-8.31a12.18,12.18,0,0,0-.13,3.79c.47,3.58,4.58,5.2,7.53,4.7a5,5,0,0,0,1.26-.38c1.12-.52,2.81-2.22,4.61-4.33.79-.93,1.6-1.94,2.39-3A13.45,13.45,0,0,1,172.07,176.36Zm-14-2.94c-3.48,5.32-10.7,13-11.93,12.83-1.5-.2,6.68-17.95,11.38-19.61a3.94,3.94,0,0,1,3.41.67C159.79,169.63,158.84,171.63,158.09,173.42Z" transform="translate(-11.78 -18.05)"/><path d="M197.21,172.43c-3,3.65-11.39,15.08-17.45,14.55-2.25-.2-2.66-2.26-2.59-4.12a9.72,9.72,0,0,1,.61-2.92c5.52-2.26,14.86-7.12,15.61-10.51.82-3.65-5.45-8.57-10.5-6.38-3.94,1.73-8.9,7.58-10.82,13.31a13.45,13.45,0,0,0-.78,5.19,7.75,7.75,0,0,0,.5,2.31c1.77,4.58,8.51,7.51,13.28,5.11,5.87-2.92,12-11.63,14.18-15.88C199.86,171.63,198,171.63,197.21,172.43Zm-10.7-5c2.52-2.19,4-1.13,2.11,1.26a40.28,40.28,0,0,1-9.34,7.85A36.6,36.6,0,0,1,186.51,167.44Z" transform="translate(-11.78 -18.05)"/><path class="cls-2" d="M70.29,209h-5.1v9.41H61.62V209H56.55v-2.85H70.29Z" transform="translate(-11.78 -18.05)"/><path class="cls-2" d="M86.49,206.13v12.26H82.92v-4.75H75.56v4.75H72V206.13h3.57v4.57h7.36v-4.57Z" transform="translate(-11.78 -18.05)"/><path class="cls-2" d="M102.45,215.66v2.73H89.37V206.13h12.89v2.73H92.89v2h7.72v2.61H92.89v2.17Z" transform="translate(-11.78 -18.05)"/><path class="cls-2" d="M123.58,215c0,2.12-1.91,3.36-4.92,3.36h-9.48V206.13H118c3,0,4.92,1.21,4.92,3.17a2.7,2.7,0,0,1-2.8,2.7C122,212.12,123.58,213.13,123.58,215Zm-10.86-4h4.64c1.19,0,2-.27,2-1.21s-.79-1.19-2-1.19h-4.64Zm7.2,3.59c0-1-.75-1.28-2-1.28h-5.18v2.57h5.18C119.17,215.9,119.92,215.6,119.92,214.61Z" transform="translate(-11.78 -18.05)"/><path class="cls-2" d="M125,212.26c0-4.15,3.14-6.54,8-6.54s8,2.39,8,6.54-3.16,6.53-8,6.53S125,216.41,125,212.26Zm12.35,0c0-2.31-1.66-3.63-4.36-3.63s-4.36,1.32-4.36,3.63,1.66,3.63,4.36,3.63S137.33,214.57,137.33,212.26Z" transform="translate(-11.78 -18.05)"/><path class="cls-2" d="M150.47,212.12l5.57,6.27h-4.29l-3.45-3.91-3.45,3.91h-4.06l5.55-6.22-5.43-6h4.29l3.33,3.75,3.31-3.75h4.08Z" transform="translate(-11.78 -18.05)"/><path d="M151.45,25.47H61.13A16.17,16.17,0,0,0,45,41.62V87.16l5.78-.56,0-30.92a2.26,2.26,0,0,1,2.2-2.31H159.48a2.27,2.27,0,0,1,2.21,2.31l.05,55.65,5.88-9.22V41.62A16.18,16.18,0,0,0,151.45,25.47Zm-62,18.22a3.36,3.36,0,1,1,3.37-3.35A3.34,3.34,0,0,1,89.41,43.69ZM113,41.86H99.5a1.56,1.56,0,1,1,0-3.06H113a1.55,1.55,0,1,1,0,3.06Z" transform="translate(-11.78 -18.05)"/><path d="M161.86,230.85a2.26,2.26,0,0,1-2.2,2.31H53.11a2.26,2.26,0,0,1-2.2-2.31l0-42.94L45,193.05v51.42a16.17,16.17,0,0,0,16.15,16.15h90.32a16.17,16.17,0,0,0,16.17-16.15V188.42l-5.79,4.13ZM106.3,255a8.92,8.92,0,1,1,8.91-8.91A8.92,8.92,0,0,1,106.3,255Z" transform="translate(-11.78 -18.05)"/><path d="M50.69,184.53h.17v-.24Z" transform="translate(-11.78 -18.05)"/></svg>