<svg id="Layer_1" data-name="Layer 1" xmlns="http://www.w3.org/2000/svg" viewBox="0 0 275.42 350"><title>Think Outisde the Box</title><path d="M101.82,178.32c7.36-14.6,11.11-20,14.24-24.25a3.79,3.79,0,0,0-1.57-2.59c15.57-.24,24.87-.59,28.13-3.3,1-.7,2.65-4.47-1.57-3.17-5.68,2.47-22.09,1.41-35.37,1.29-4.55-.07-9.91-.12-15.46.13-2.88.13-5.81.34-8.71.67-10.44,1.19-20.44,3.93-26,10-9.9,10.83-.61,21.19,5.07,21.42,2.41.35,2.89-1.18,1.2-2.47-4.22-1.3-2.17-8.83,1.21-12.83,2.66-3.15,7.28-7.19,18.55-9.63a85.18,85.18,0,0,1,8.71-1.38c3.92-.42,8.4-.7,13.53-.76h.85c-4.2,6.26-10.66,18.23-14.35,24.76l-.38.66c-1.62,3-4.89,9.35-8.36,16.3-5.58,11.18-11.68,24-12.27,27.49s5.19,6.71,10.25,6.36a40.1,40.1,0,0,1,2-6c2-5,5.17-12.12,8.76-19.67C94,193.52,98.17,185.2,101.82,178.32Z" transform="translate(-36.15 -50)"/><path d="M144.11,224.42c-3.26-1.06,7-21.19,10.37-30.37,1.57-4.24-5.31-11.54-11.22-10-6.4,1.77-24.62,24-26.43,26.25.6-1.06,5-8.82,13.15-25.3,8.45-17,11.35-19.9,11.71-23.31.36-2.94-7.6-6.94-10-5.18-.24,2-6.39,14.36-12.67,27-10.5,20.71-17.26,34.37-18.71,39.43-1.08,3.76,7.25,8,11.35,4.12,1.21-3.53,27.64-38.26,32.1-36,1.33.71-11.58,19.07-10.62,30,.49,5.54,10.5,11.54,17.38,6.36a55,55,0,0,0,8.81-9.31c.08-3,1-6.75,3.14-11.57C155.55,215.11,146.06,225.05,144.11,224.42Z" transform="translate(-36.15 -50)"/><path d="M171.14,224.3c-3.62.59-2.29-7.18,4.47-19.89,4-7.54,6.51-9.77,6.88-12.48.48-3.88-8.21-6.94-9.66-5.06-.36,3.18-4.59,7.77-9.29,17.3-.4.8-.75,1.57-1.09,2.31-2.15,4.82-3.06,8.62-3.14,11.57a9.37,9.37,0,0,0,1.81,6.37c2.66,3.17,9.3,6.82,15.33,3.29a38.43,38.43,0,0,0,8-6.86c1.65-3.61,5.68-11.59,9.31-19.11C188.55,208.92,176,223.55,171.14,224.3Z" transform="translate(-36.15 -50)"/><path d="M184.06,178.39c3.37.59,4.82.12,7.48-.82s5.67-4.82,3.26-6.94c-2.9-2.12-8-1.89-11.23.35C180,173.45,180.43,177.69,184.06,178.39Z" transform="translate(-36.15 -50)"/><path d="M226.78,224.42c-5.67.59,7.36-20.95,10.86-30.49,2.05-5.77-5.91-10.12-10.86-8.59-9.29,2.82-26.91,26.13-26.91,26.13s9.29-17.19,9.77-21.19c.36-2.82-6.27-6.24-9-4.35-.52,2.38-3.53,8.9-6.88,15.81-3.63,7.52-7.66,15.5-9.31,19.11-.35.77-.6,1.36-.71,1.68-1.08,3.3,8.21,7.3,11.11,4.59,1.32-3.53,27-35.9,32.1-35.42,2.29.23-11.22,16.83-11.83,28.13-.36,6.94,10.38,11.88,16.78,7.53a57.24,57.24,0,0,0,9.51-8.86c1.74-4.28,4.06-9.66,6.64-15.31C240.6,213.3,229.91,224.1,226.78,224.42Z" transform="translate(-36.15 -50)"/><path d="M257.38,183.8c-3.11,6-6.41,12.86-9.38,19.39-2.58,5.65-4.9,11-6.64,15.31-1.88,4.65-3.07,8-3.11,9-.12,4,7.48,5.65,9.89,3.29,0-1.41,4.23-11.65,9.18-22.71,0,0,.06,0,.08,0a.21.21,0,0,1,.16-.08,24.69,24.69,0,0,0,3.26,12.24,16,16,0,0,0,5.4,5.6,13.39,13.39,0,0,0,10.41,1.11c6.51-1.65,15-12.48,19.55-19.42,1.45-2.83-1.09-5.18-3.38-1.89-4.1,5.42-12.67,15.78-17.26,15.66-5.07-.12-8.09-15.42-8.57-20.13h-.24c8.21-5.77,17.38-10.94,19.79-10.83,1.69-.7,1-5.41-1.81-5.29-3.75.19-11.4,5-18.49,10.35-1.56,1.17-3.1,2.37-4.56,3.54,1.53-3.41,3.12-6.62,4.56-9.51.6-1.21,1.18-2.36,1.72-3.44,8.93-17.42,15.69-29.19,17.14-30.49.24-2.94-8.45-5.41-11.71-1.53-1.08,1.27-3.27,5.41-7.15,12.87-2.22,4.28-5,9.64-8.42,16.21Z" transform="translate(-36.15 -50)"/><path d="M220.61,244.89c-3,2.07-2.64,5.63.41,6.23a10.2,10.2,0,0,0,6.29-.69c2.13-.8,4.76-4.06,2.73-5.84C227.61,242.81,223.35,243,220.61,244.89Z" transform="translate(-36.15 -50)"/><path d="M90.36,283.57a87.57,87.57,0,0,0,9.74-17.91c6-14.76,3.18-28.46-9.79-34a32.71,32.71,0,0,0-8.8-2.29c-.53-.06-1.05-.13-1.59-.17C58.62,227.28,39.65,244,36.5,259.72a16.24,16.24,0,0,0,5.28,15.83c-2.44,8.31-1.52,13.16.4,17.81,2.64,6.53,16.23,12.76,22.62,10.68a46,46,0,0,0,16.71-10.31A66.84,66.84,0,0,0,90.36,283.57ZM57.1,299.49c-7.21.4-9.23-8.7-6.39-18.89A24,24,0,0,0,59,282c3.86-.1,7.61-.79,10-3.46,3.35-3.76,1.73-8.71-.2-8.51-3.14,5.54-11,9-16.94,6.83A98,98,0,0,1,60,261.31C65.92,252,71,247.26,72.62,246.07c1.31-2.77-7.51-4.25-10.55-2.08a73.26,73.26,0,0,0-10.55,12,55.3,55.3,0,0,0-7.1,12.57c-1.32-5.74,1-12.76,3.45-17.12a35.75,35.75,0,0,1,32.76-18.49c.3,0,.59,0,.88,0,4,.17,6.86,1.54,8.8,3.72,5.24,5.86,3.84,17.52,0,27.28-.09.24-.18.48-.28.72a77.81,77.81,0,0,1-8.55,15.43C73.81,291,64.08,299.08,57.1,299.49Z" transform="translate(-36.15 -50)"/><path d="M131.85,289.9c-3.44-1.09,8.12-23,10.35-26.32,1.93-3.56-5.88-5.83-7.51-4.25-.5,1.58-24.24,30.76-27.48,30.27-3.66-.59,13.59-26.32,14.3-29.18s-6.7-6-8.12-4.06c-.2,2.77-13.59,19.49-15.11,29.28-.81,5.64,7,9.8,11.26,7.52,7.1-3.76,13.79-13.85,14.91-15.33-.61,1.78-2.23,5.44-1.32,9.3.81,3.36,6.49,7.51,11.87,6.33,3-.67,7.6-5.75,11.61-11a48.81,48.81,0,0,1,3.18-10.12C144.5,279.07,134,290.56,131.85,289.9Z" transform="translate(-36.15 -50)"/><path d="M161.4,286.57a16.7,16.7,0,0,1-3.88,3c-5,2,.81-14.15,6.29-26.32a39.85,39.85,0,0,1,1.82-3.75c4.06,0,7.71.19,8.42.49a1.87,1.87,0,0,0,1.42-3.16c-.5-.5-3.95-.7-8.11-.7,3.34-6.13,6.9-11.57,7.4-13.65s-4.16-5.74-7.4-4.65c-.61,2.47-3.65,6.73-9.84,18.4a30.24,30.24,0,0,1-5.78-.1c-2.13.79-2.44,3.56-.41,3.56.51,0,2.23,0,4.46-.1-2.55,4.92-4.53,9.12-6,12.71a48.81,48.81,0,0,0-3.18,10.12,14.14,14.14,0,0,0-.15,4.38c.81,5.44,9.94,8.21,13.59,6.53a18.24,18.24,0,0,0,4.21-3.26l-.15-.11A7.25,7.25,0,0,1,161.4,286.57Z" transform="translate(-36.15 -50)"/><path d="M192,285.54c.71-5.44-3.35-11.37-3.35-17,0-6.83,6.08-9,8.82-8.91,1.53-.89-.1-6.92-4.87-6.92-3.75,0-7.1,2.87-9.73,6.33a13.65,13.65,0,0,0-2.54,5c-4.16,5.14-10,13.06-14.3,17.8-4.3.84-5.25,2.84-4.64,4.79a7.25,7.25,0,0,0,2.71,3.42l.15.11c9.12,6.5,22,4.71,29.37-.8a50.08,50.08,0,0,0,6.68-6.08,29.43,29.43,0,0,1,2.71-8.86C199.9,278.16,195.81,282.79,192,285.54Zm-11.57,3.27a6.7,6.7,0,0,1-2,1.48c-5.17.2-9.33-.69-10-2.18.51-2.17,6.7-5.83,9.54-5.83a1.19,1.19,0,0,0-.1-1.88,14.6,14.6,0,0,0-5.13,0l-.76.1c2.25-2.78,4.55-5.76,6.69-8.54l1.12-1.45a14.1,14.1,0,0,0,.71,2.77C181.66,277,184.3,285.05,180.44,288.81Z" transform="translate(-36.15 -50)"/><path d="M210.16,289.7c-3,.49-1.92-6,3.76-16.72,3.34-6.33,5.47-8.21,5.78-10.49.4-3.26-6.9-5.83-8.12-4.25-.3,2.67-3.85,6.53-7.81,14.54l-.75,1.58a29.43,29.43,0,0,0-2.71,8.86c-.33,3.08.3,5.21,1.43,6.58,2.24,2.67,7.81,5.73,12.89,2.77,2.82-1.67,6.13-5,9.23-8.67A38,38,0,0,1,228.2,272C223.43,278.34,214,289.11,210.16,289.7Z" transform="translate(-36.15 -50)"/><path d="M270.94,274.58c-1.46,1.74-3.09,3.65-4.72,5.52a92.56,92.56,0,0,1-8.74,9.07,4.61,4.61,0,0,1-1,.63c-2,.8-1.23-4.33,1-11.14A118.93,118.93,0,0,1,263.82,263c.85-1.71,1.64-3.31,2.4-4.82,9.4-18.79,12.11-22.85,13.43-25-1.22-2.77-7.92-2.77-10.15,0a44.09,44.09,0,0,0-3.28,5.38c-2.06,3.74-4.93,9.25-8.77,16.6l-1.34,2.56-.4.79c-3.25-2.28-8.62-4.55-13.39-2.48-5,2.19-10.42,9-14.12,15.95a38,38,0,0,0-4.34,11.89,8.33,8.33,0,0,0,.2,3.72c1.42,4.06,7.71,7.12,10.65,5.84,3.75-1.78,8.12-7,11.77-12.37a18.21,18.21,0,0,0-.21,5.64c.71,5.32,6.83,7.73,11.22,7a7.4,7.4,0,0,0,1.87-.56c1.67-.78,4.19-3.31,6.86-6.45,1.18-1.38,2.39-2.88,3.56-4.41A20.22,20.22,0,0,1,270.94,274.58Zm-20.81-4.37c-5.17,7.91-15.93,19.39-17.75,19.09-2.23-.29,9.94-26.71,16.94-29.18a5.89,5.89,0,0,1,5.07,1C252.66,264.57,251.24,267.54,250.13,270.21Z" transform="translate(-36.15 -50)"/><path d="M308.35,268.73c-4.46,5.44-16.94,22.45-26,21.66-3.35-.3-4-3.36-3.86-6.13a14.79,14.79,0,0,1,.91-4.36c8.22-3.36,22.12-10.58,23.23-15.63,1.22-5.44-8.11-12.76-15.62-9.49-5.88,2.56-13.26,11.28-16.11,19.8a20.22,20.22,0,0,0-1.16,7.72,11.86,11.86,0,0,0,.74,3.44c2.63,6.83,12.68,11.18,19.78,7.62,8.72-4.35,17.85-17.31,21.1-23.64C312.31,267.54,309.47,267.54,308.35,268.73Zm-15.92-7.42c3.75-3.27,6-1.69,3.14,1.88-2.64,3.36-8.42,8.31-13.89,11.67A54.2,54.2,0,0,1,292.43,261.31Z" transform="translate(-36.15 -50)"/><path d="M119.45,323.14h-7.59v14h-5.32v-14H99v-4.25h20.44Z" transform="translate(-36.15 -50)"/><path d="M143.57,318.89v18.25h-5.32v-7.07h-11v7.07H122V318.89h5.32v6.8h11v-6.8Z" transform="translate(-36.15 -50)"/><path d="M167.32,333.07v4.07H147.85V318.89H167V323H153.09v3h11.5v3.89h-11.5v3.23Z" transform="translate(-36.15 -50)"/><path d="M198.77,332.13c0,3.16-2.84,5-7.33,5h-14.1V318.89H190.4c4.49,0,7.33,1.8,7.33,4.72,0,2.06-1.44,3.86-4.17,4C196.42,327.81,198.77,329.32,198.77,332.13Zm-16.16-6h6.9c1.78,0,3-.39,3-1.8s-1.17-1.77-3-1.77h-6.9Zm10.71,5.35c0-1.49-1.12-1.91-3-1.91h-7.71v3.84h7.71C192.2,333.44,193.32,333,193.32,331.51Z" transform="translate(-36.15 -50)"/><path d="M200.86,328c0-6.18,4.67-9.72,11.89-9.72s11.91,3.54,11.91,9.72-4.69,9.73-11.91,9.73S200.86,334.19,200.86,328Zm18.38,0c0-3.44-2.48-5.39-6.49-5.39s-6.5,1.95-6.5,5.39,2.48,5.4,6.5,5.4S219.24,331.46,219.24,328Z" transform="translate(-36.15 -50)"/><path d="M238.8,327.81l8.29,9.33H240.7l-5.14-5.82-5.13,5.82h-6.05l8.26-9.26-8.08-9H231l5,5.58,4.93-5.58h6.08Z" transform="translate(-36.15 -50)"/><path d="M240.25,50H105.83a24.07,24.07,0,0,0-24,24v67.78l8.59-.84,0-46a3.37,3.37,0,0,1,3.28-3.43H252.21A3.37,3.37,0,0,1,255.49,95l.07,82.84,8.75-13.72V74A24.08,24.08,0,0,0,240.25,50ZM147.92,77.12a5,5,0,1,1,5-5A5,5,0,0,1,147.92,77.12Zm35-2.72h-20a2.32,2.32,0,1,1,0-4.56h20a2.32,2.32,0,1,1,0,4.56Z" transform="translate(-36.15 -50)"/><path d="M255.75,355.68a3.38,3.38,0,0,1-3.28,3.44H93.89a3.37,3.37,0,0,1-3.28-3.44l-.06-63.91-8.76,7.65V376a24.07,24.07,0,0,0,24,24H240.25a24.08,24.08,0,0,0,24.06-24V292.53l-8.62,6.15Zm-82.69,35.94a13.27,13.27,0,1,1,13.25-13.27A13.28,13.28,0,0,1,173.06,391.62Z" transform="translate(-36.15 -50)"/><path d="M90.28,286.75h.25v-.36Z" transform="translate(-36.15 -50)"/></svg>