<svg id="Layer_1" data-name="Layer 1" xmlns="http://www.w3.org/2000/svg" viewBox="0 0 50 40"><defs><style>.cls-1{fill:#fff;}.cls-2{fill:#1a1a1a;}.cls-3{fill:none;}</style></defs><title>Thinking Outside The Box</title><rect class="cls-1" width="50" height="40"/><path class="cls-2" d="M-124.93,295.57a.94.94,0,0,0,.56-.07c.19-.07.42-.38.24-.55a.74.74,0,0,0-.84,0C-125.24,295.17-125.2,295.51-124.93,295.57Z" transform="translate(153.67 -281.71)"/><path class="cls-2" d="M-115.26,295.57a.94.94,0,0,0,.56-.07c.19-.07.42-.38.24-.55a.72.72,0,0,0-.83,0C-115.57,295.17-115.53,295.51-115.26,295.57Z" transform="translate(153.67 -281.71)"/><path class="cls-2" d="M-106.51,297.21a7.81,7.81,0,0,1-1.28,1.54,3.22,3.22,0,0,1-.6.42,2.18,2.18,0,0,1,.09-.23c.52-1.33.56-1.34.66-1.41s-.15-.22-.33-.29c.25-.06.68-.32.7-.64a1.27,1.27,0,0,0-1.9-.65,3.65,3.65,0,0,0-1.2,1.3c-.1.17-.19.34-.27.5-.53.73-1.21,1.44-1.43,1.46a.08.08,0,0,1-.07,0c0-.05,0-.15,0-.31.14-.52.7-1.55.88-2.09s-.44-.81-.81-.68l-.07,0a3.4,3.4,0,0,0-.82.67,15.88,15.88,0,0,0-1.12,1.38,11,11,0,0,0,.73-1.68c0-.23-.47-.5-.67-.35a9.77,9.77,0,0,1-.52,1.25c-.38.57-1.32,1.74-1.68,1.8s-.17-.57.33-1.58c.3-.6.49-.78.51-1s-.61-.55-.72-.4a11,11,0,0,1-.69,1.37,1.89,1.89,0,0,0-.09.21c-.33.45-.9,1.15-1.22,1.14s-.6-1.22-.64-1.59h0a4.93,4.93,0,0,1,1.48-.86c.13-.06.07-.43-.13-.42a4.9,4.9,0,0,0-1.72,1.1c.16-.38.33-.74.46-1a21.84,21.84,0,0,1,1.28-2.41c0-.24-.63-.43-.87-.13s-.46.88-1.16,2.31c-.24.49-.5,1.06-.73,1.6a5.68,5.68,0,0,1-1.59,1.68c-.42.05.55-1.66.81-2.41.15-.46-.44-.81-.81-.68-.69.22-2,2.07-2,2.07a12.13,12.13,0,0,0,.73-1.68c0-.23-.47-.5-.68-.35a9.29,9.29,0,0,1-.51,1.25c-.38.57-1.32,1.74-1.69,1.8s-.17-.57.34-1.58a7.11,7.11,0,0,0,.51-1c0-.31-.61-.55-.72-.4a12.73,12.73,0,0,1-.69,1.37c0,.06-.05.12-.08.17-.51.69-1.23,1.49-1.38,1.43s.53-1.68.78-2.4c.12-.34-.4-.92-.84-.8a1.56,1.56,0,0,0-.41.28,11.52,11.52,0,0,0-.8.86c-.38.44-.7.86-.76.94s.29-.55.76-1.53l.22-.47c.26-.55.45-.92.58-1.18a1.76,1.76,0,0,0,.29-.67.28.28,0,0,0-.09-.2c0-.09,0-.18-.18-.13h0c-.17-.09-.36-.14-.45-.07a1.73,1.73,0,0,1-.07.19l-.28,0c-.54,0-1.23,0-1.84,0-1.15,0-3,0-3.75.85a1,1,0,0,0,.38,1.7c.18,0,.22-.09.09-.19-.31-.11-.16-.7.09-1s.92-.91,3.05-.93h.06c-.32.51-.83,1.51-1.1,2a33.69,33.69,0,0,0-1.54,3.47c0,.28.39.54.77.51a29.42,29.42,0,0,1,1.67-3.87,13.17,13.17,0,0,1,1.06-1.92.31.31,0,0,0-.12-.2l1.18,0h.13l-.13.3c-.17.37-.38.83-.6,1.29a34.06,34.06,0,0,0-1.4,3.12c-.08.3.54.64.85.33a13.43,13.43,0,0,1,1.15-1.65,8.16,8.16,0,0,1,.81-.93c.2-.2.36-.32.44-.28a6,6,0,0,1-.44,1,3.29,3.29,0,0,0-.36,1.37.75.75,0,0,0,.36.51.78.78,0,0,0,.94,0,4,4,0,0,0,.66-.75.8.8,0,0,0,.14.51.89.89,0,0,0,1.14.27,3.61,3.61,0,0,0,.6-.55l-.06.14c-.08.26.61.57.83.36s2-2.85,2.4-2.81c.17,0-.84,1.33-.88,2.23a.82.82,0,0,0,1.25.6,4.72,4.72,0,0,0,.71-.71,3.81,3.81,0,0,0-.23.72c0,.31.56.45.74.26a14.22,14.22,0,0,1,.68-1.8h0a2.05,2.05,0,0,0,.24,1,1,1,0,0,0,1.18.53,2.23,2.23,0,0,0,.92-.77.77.77,0,0,0,.13.57.89.89,0,0,0,1.14.27,3.26,3.26,0,0,0,.6-.55l-.06.14c-.08.26.62.57.83.36a15.1,15.1,0,0,1,1.51-2,3.59,3.59,0,0,1,.81-.78l.08,0s0,.11-.08.27a5.61,5.61,0,0,0-.8,2,.79.79,0,0,0,.8.73.79.79,0,0,0,.45-.13,4.49,4.49,0,0,0,.78-.79.78.78,0,0,0,0,.27c.1.31.58.76.9.58a3.25,3.25,0,0,0,1-.89c-.14.34-.27.69-.46,1.05-.45.19-.9.34-1.27.51-.54.24-1.22.57-1.26.93s.38.76,1.11.75c.88,0,1.68-1,2.25-2.15a5.07,5.07,0,0,0,1-.58,6.41,6.41,0,0,0,1.43-1.78C-106.18,297.14-106.33,297-106.51,297.21Zm-3.57,3.42a1.84,1.84,0,0,1-1.2.83c-.17,0-1-.14.65-.9.22-.1.51-.23.84-.36Zm1.39-2.87a5,5,0,0,1-1.49,1.41c-.16,0,.1-.75.63-1.62.36-.59,1.39-1.67,1.73-1.32.18.18-.23.8-.28,1a.34.34,0,0,0-.4.18Z" transform="translate(153.67 -281.71)"/><path class="cls-2" d="M-116.12,304.53a.92.92,0,0,0,.6-.07c.2-.08.46-.41.26-.6a.8.8,0,0,0-.9,0C-116.46,304.11-116.42,304.47-116.12,304.53Z" transform="translate(153.67 -281.71)"/><path class="cls-2" d="M-128.37,302.72a2.48,2.48,0,0,0-.81-.35,3.73,3.73,0,0,0-.5-.08,4.09,4.09,0,0,0-4.17,3.12,1.7,1.7,0,0,0,.5,1.61,2.67,2.67,0,0,0,0,1.82,2.28,2.28,0,0,0,2.18,1.09,4.67,4.67,0,0,0,1.95-1.43,8,8,0,0,0,.82-1.17,10.17,10.17,0,0,0,.62-1.32C-127.22,304.64-127.4,303.37-128.37,302.72Zm-.34,3.19a7.7,7.7,0,0,1-.47,1c-.77,1.38-1.91,2.5-2.7,2.54s-.88-.88-.61-1.92a2.21,2.21,0,0,0,.8.14,1.24,1.24,0,0,0,1-.35c.33-.39.17-.89,0-.87a1.42,1.42,0,0,1-1.63.69,10.1,10.1,0,0,1,.78-1.58,5.86,5.86,0,0,1,1.21-1.55c.12-.29-.73-.44-1-.22a8.21,8.21,0,0,0-1,1.22,5.66,5.66,0,0,0-.68,1.29,2.77,2.77,0,0,1,.33-1.75,3.41,3.41,0,0,1,3.15-1.89,1.44,1.44,0,0,1,.43.06,1.22,1.22,0,0,1,.81,1.18,2.71,2.71,0,0,1,0,.57A5.22,5.22,0,0,1-128.71,305.91Z" transform="translate(153.67 -281.71)"/><path class="cls-2" d="M-107.73,306.33c-.43.55-1.63,2.29-2.5,2.21-.32,0-.38-.35-.37-.63a1.5,1.5,0,0,1,.09-.44c.79-.35,2.12-1.08,2.23-1.6s-.78-1.3-1.5-1a3.72,3.72,0,0,0-1.55,2c-.24.31-.54.68-.8,1a3.27,3.27,0,0,1-.58.58c-.31.13.06-1.29.58-2.48l.12-.26a32,32,0,0,1,1.52-3c-.12-.28-.76-.28-1,0s-.32.56-.66,1.24l-.62,1.27,0,.08-.15-.1a1.24,1.24,0,0,0-1.14-.16,3.88,3.88,0,0,0-1.35,1.62c-.45.65-1.37,1.76-1.74,1.82s-.18-.62.36-1.71c.33-.65.53-.84.56-1.07s-.66-.6-.78-.43a13.2,13.2,0,0,1-.75,1.48c0,.05,0,.1-.07.15a6.49,6.49,0,0,1-1.06,1.15c.07-.55-.32-1.16-.32-1.73a.86.86,0,0,1,.84-.91c.15-.09,0-.71-.46-.71a1.27,1.27,0,0,0-.94.65,1.36,1.36,0,0,0-.24.5c-.4.53-1,1.33-1.38,1.82-.41.08-.5.29-.44.49a1.89,1.89,0,0,1-.38.31c-.47.2.08-1.45.61-2.69l.17-.38a4.05,4.05,0,0,1,.81.05.19.19,0,0,0,.14-.32,1.94,1.94,0,0,0-.78-.08,14.24,14.24,0,0,0,.71-1.39c0-.22-.4-.58-.71-.47-.06.25-.35.68-1,1.87a2.75,2.75,0,0,1-.55,0c-.21.09-.24.37,0,.37h.43c-.25.5-.43.92-.58,1.29-.5.68-1.52,1.86-1.72,1.8s.78-2.36,1-2.69-.56-.59-.72-.43-2.33,3.14-2.64,3.09,1.31-2.69,1.37-3-.64-.62-.78-.42-1.3,2-1.45,3a.8.8,0,0,0,1.08.77,5.28,5.28,0,0,0,1.44-1.57,1.74,1.74,0,0,0-.13.95,1,1,0,0,0,1.14.65c.29-.07.73-.59,1.12-1.13a1.42,1.42,0,0,0,0,.45c.08.56,1,.84,1.31.67a2,2,0,0,0,.4-.33,2.39,2.39,0,0,0,2.82-.08,5.54,5.54,0,0,0,.65-.63,1,1,0,0,0,.13.68,1,1,0,0,0,1.24.28,4.13,4.13,0,0,0,.89-.89.91.91,0,0,0,0,.38,1,1,0,0,0,1,.6,3.85,3.85,0,0,0,1.13-1.26,1.89,1.89,0,0,0,0,.57.87.87,0,0,0,.77.72.89.89,0,0,0,.49-.06,1.24,1.24,0,0,0,.31-.26,7.4,7.4,0,0,0,.69-.85,1.36,1.36,0,0,0,.07.35,1.45,1.45,0,0,0,1.9.78,6.36,6.36,0,0,0,2-2.41C-107.35,306.2-107.62,306.2-107.73,306.33Zm-1.53-.76c.36-.33.57-.17.3.19A5.75,5.75,0,0,1-110.3,307,5.76,5.76,0,0,1-109.26,305.57Zm-10.76,2.8a.56.56,0,0,1-.2.16c-.49,0-.89-.07-1-.23a1.34,1.34,0,0,1,.91-.59.12.12,0,0,0,0-.19,1.23,1.23,0,0,0-.49,0,8.93,8.93,0,0,0,.57-.86l.11-.15a1.43,1.43,0,0,0,.07.28C-119.91,307.17-119.65,308-120,308.37Zm7.08-2.78-.39.89a7,7,0,0,1-1.7,1.95c-.22,0,1-2.73,1.63-3a.49.49,0,0,1,.46.09h0Z" transform="translate(153.67 -281.71)"/><path class="cls-2" d="M-112.94,309.09v6.25a.32.32,0,0,1-.31.32h-14.81a.32.32,0,0,1-.31-.32V307.6a7.5,7.5,0,0,1-.82,1.13v8.5a2.25,2.25,0,0,0,2.24,2.25h12.56a2.25,2.25,0,0,0,2.25-2.25v-8.44a1.4,1.4,0,0,1-.31.25A.89.89,0,0,1-112.94,309.09Zm-7.72,9.6a1.23,1.23,0,0,1-1.24-1.24,1.24,1.24,0,0,1,1.24-1.24,1.24,1.24,0,0,1,1.23,1.24A1.23,1.23,0,0,1-120.66,318.69Z" transform="translate(153.67 -281.71)"/><path class="cls-2" d="M-120.67,316.39a1.07,1.07,0,0,0-1.06,1.06,1.07,1.07,0,0,0,1.06,1.07,1.07,1.07,0,0,0,1.07-1.07A1.07,1.07,0,0,0-120.67,316.39Z" transform="translate(153.67 -281.71)"/><path class="cls-2" d="M-125.79,313.3h-.83v1.57h-.22V313.3h-.83v-.19h1.88Z" transform="translate(153.67 -281.71)"/><path class="cls-2" d="M-123.57,313.11v1.76h-.22v-.79h-1.44v.79h-.21v-1.76h.21v.77h1.44v-.77Z" transform="translate(153.67 -281.71)"/><path class="cls-2" d="M-121.29,314.68v.19H-123v-1.76h1.68v.2h-1.47v.57h1.24v.2h-1.24v.6Z" transform="translate(153.67 -281.71)"/><path class="cls-2" d="M-118.17,314.39c0,.32-.25.48-.66.48H-120v-1.76h1.17c.36,0,.61.15.61.45a.38.38,0,0,1-.37.41C-118.37,314-118.17,314.1-118.17,314.39Zm-1.67-.51h.93c.25,0,.43-.07.43-.29s-.18-.29-.43-.29h-.93Zm1.46.5c0-.22-.18-.31-.48-.31h-1v.61h1C-118.56,314.68-118.38,314.59-118.38,314.38Z" transform="translate(153.67 -281.71)"/><path class="cls-2" d="M-117.85,314c0-.57.4-.93,1.07-.93s1.07.36,1.07.93-.4.94-1.07.94S-117.85,314.57-117.85,314Zm1.92,0c0-.47-.33-.73-.85-.73s-.86.26-.86.73.34.74.86.74S-115.93,314.47-115.93,314Z" transform="translate(153.67 -281.71)"/><path class="cls-2" d="M-114.49,314l.82.88h-.27l-.7-.74-.69.74h-.27l.83-.88-.82-.88h.27l.69.74.69-.74h.27Z" transform="translate(153.67 -281.71)"/><path class="cls-3" d="M-119.74,285.77h-1.87c-.14,0-.26.08-.26.17s.12.17.26.17h1.87c.14,0,.26-.07.26-.17S-119.6,285.77-119.74,285.77Z" transform="translate(153.67 -281.71)"/><path class="cls-3" d="M-123,285.55a.47.47,0,0,0-.47.46.47.47,0,0,0,.47.47.46.46,0,0,0,.46-.47A.46.46,0,0,0-123,285.55Z" transform="translate(153.67 -281.71)"/><path class="cls-2" d="M-114.39,284h-12.56a2.24,2.24,0,0,0-2.24,2.24v4.37h0v3.16l.28,0a1.2,1.2,0,0,0,.07-.18c.09-.07.28,0,.45.07v-3h0v-2.41a.31.31,0,0,1,.3-.32h14.82a.31.31,0,0,1,.31.32v8.36a3,3,0,0,1,.82-.65v-9.67A2.24,2.24,0,0,0-114.39,284Zm-8.62,2.53a.47.47,0,0,1-.47-.47.47.47,0,0,1,.47-.46.46.46,0,0,1,.46.46A.46.46,0,0,1-123,286.48Zm3.27-.37h-1.87c-.14,0-.26-.07-.26-.17s.12-.17.26-.17h1.87c.14,0,.26.08.26.17S-119.6,286.11-119.74,286.11Z" transform="translate(153.67 -281.71)"/></svg>