<svg id="Layer_1" data-name="Layer 1" xmlns="http://www.w3.org/2000/svg" viewBox="0 0 50 40"><defs><style>.cls-1{fill:#fff;}</style></defs><title>Thinking Outside The Box</title><rect class="cls-1" width="50" height="40"/><path d="M-112.86,309.35v6.71a.34.34,0,0,1-.33.34H-129.1a.33.33,0,0,1-.32-.34v-8.31a8,8,0,0,1-.88,1.22v9.12a2.41,2.41,0,0,0,2.41,2.41h13.49a2.41,2.41,0,0,0,2.41-2.41V309a1.52,1.52,0,0,1-.33.26A.93.93,0,0,1-112.86,309.35Zm-8.29,10.31a1.33,1.33,0,0,1-1.33-1.33,1.33,1.33,0,0,1,1.33-1.33,1.34,1.34,0,0,1,1.33,1.33A1.34,1.34,0,0,1-121.15,319.66Z" transform="translate(153.67 -281.71)"/><path d="M-121.15,317.19a1.14,1.14,0,0,0-1.14,1.14,1.14,1.14,0,0,0,1.14,1.14,1.15,1.15,0,0,0,1.14-1.14A1.15,1.15,0,0,0-121.15,317.19Z" transform="translate(153.67 -281.71)"/><path d="M-129.95,293.31c.1-.07.31,0,.49.08v-6a.33.33,0,0,1,.33-.34h15.91a.33.33,0,0,1,.32.34v9a3.3,3.3,0,0,1,.88-.7V285.33a2.41,2.41,0,0,0-2.41-2.41h-13.49a2.41,2.41,0,0,0-2.41,2.41v8.2l.31,0A.58.58,0,0,0-129.95,293.31Zm7.77-8.43h2c.15,0,.27.08.27.19s-.12.18-.27.18h-2c-.15,0-.28-.09-.28-.18S-122.33,284.88-122.18,284.88Zm-1.51-.24a.51.51,0,0,1,.51.5.5.5,0,0,1-.51.5.5.5,0,0,1-.5-.5A.51.51,0,0,1-123.69,284.64Z" transform="translate(153.67 -281.71)"/><path d="M-125.75,295.4a.92.92,0,0,0,.6-.07c.21-.08.46-.41.27-.59a.8.8,0,0,0-.9,0C-126.08,295-126,295.34-125.75,295.4Z" transform="translate(153.67 -281.71)"/><path d="M-115.36,295.4a.92.92,0,0,0,.6-.07c.2-.08.45-.41.26-.59a.8.8,0,0,0-.9,0C-115.69,295-115.65,295.34-115.36,295.4Z" transform="translate(153.67 -281.71)"/><path d="M-106,297.16a8.86,8.86,0,0,1-1.38,1.66,3.67,3.67,0,0,1-.64.45,1.17,1.17,0,0,1,.09-.24c.56-1.44.6-1.45.71-1.53s-.17-.23-.35-.31c.26-.06.73-.34.75-.68a1.37,1.37,0,0,0-2-.7,3.94,3.94,0,0,0-1.28,1.4,5.65,5.65,0,0,0-.29.53,5.45,5.45,0,0,1-1.53,1.58l-.08,0c0-.05,0-.17,0-.33.15-.56.75-1.67,1-2.25s-.48-.86-.87-.73l-.08,0a3.23,3.23,0,0,0-.88.72,17.12,17.12,0,0,0-1.2,1.47,12.84,12.84,0,0,0,.78-1.8c0-.24-.5-.53-.72-.37a13.3,13.3,0,0,1-.55,1.34c-.42.61-1.43,1.86-1.82,1.93s-.18-.62.36-1.7c.32-.64.53-.83.55-1.06s-.65-.59-.77-.43a12.54,12.54,0,0,1-.75,1.47l-.09.23c-.35.48-1,1.23-1.31,1.23s-.65-1.32-.69-1.72h0a5.33,5.33,0,0,1,1.59-.92c.14-.06.08-.46-.14-.45a5.3,5.3,0,0,0-1.85,1.18c.17-.41.36-.79.5-1.1a22,22,0,0,1,1.38-2.6c0-.25-.68-.46-.94-.13-.14.17-.5.95-1.25,2.48-.26.52-.54,1.14-.79,1.72a6.07,6.07,0,0,1-1.7,1.81c-.45.05.59-1.79.87-2.6.17-.49-.47-.86-.87-.73-.74.24-2.16,2.22-2.16,2.22a12.7,12.7,0,0,0,.79-1.8c0-.24-.51-.53-.73-.37a9.7,9.7,0,0,1-.55,1.34c-.41.61-1.42,1.86-1.81,1.93s-.19-.62.36-1.7a6.27,6.27,0,0,0,.55-1.06c0-.33-.66-.59-.78-.43a11.85,11.85,0,0,1-.74,1.47c0,.07-.06.13-.08.19-.56.74-1.32,1.59-1.48,1.54s.56-1.81.83-2.59c.13-.36-.42-1-.9-.85a1.24,1.24,0,0,0-.43.3,11.28,11.28,0,0,0-.87.92c-.4.48-.75.93-.82,1,0-.08.31-.59.82-1.65l.24-.5c.28-.59.48-1,.62-1.26a2.32,2.32,0,0,0,.32-.73.33.33,0,0,0-.11-.21c0-.1,0-.2-.19-.14h0c-.18-.1-.39-.15-.49-.08a.69.69,0,0,1-.06.21h-.31c-.58,0-1.32,0-2,0-1.24,0-3.21,0-4,.93a1.06,1.06,0,0,0,.41,1.82c.19,0,.23-.1.1-.21-.34-.11-.18-.75.09-1.09s1-1,3.28-1h.06c-.35.56-.89,1.63-1.18,2.17a32.55,32.55,0,0,0-1.65,3.73c0,.3.41.57.82.54a31.7,31.7,0,0,1,1.79-4.15,13.12,13.12,0,0,1,1.14-2.06.4.4,0,0,0-.12-.23c.5,0,.92,0,1.26,0h.15q-.08.15-.15.33c-.18.4-.41.88-.64,1.38a29.73,29.73,0,0,0-1.5,3.36c-.09.32.58.68.91.35a13.61,13.61,0,0,1,1.23-1.78,10.76,10.76,0,0,1,.87-1c.22-.21.39-.33.47-.29a5.7,5.7,0,0,1-.47,1.08,3.32,3.32,0,0,0-.38,1.48.82.82,0,0,0,.38.54.85.85,0,0,0,1,0,4.6,4.6,0,0,0,.71-.8.91.91,0,0,0,.14.55,1,1,0,0,0,1.23.28,3.37,3.37,0,0,0,.64-.59,1.51,1.51,0,0,1-.06.15c-.08.28.66.62.9.39s2.16-3.06,2.57-3c.18,0-.9,1.43-1,2.4a.88.88,0,0,0,1.35.64,5.41,5.41,0,0,0,.76-.76,4,4,0,0,0-.25.77c0,.34.6.48.79.28a16.43,16.43,0,0,1,.74-1.94h0a2.3,2.3,0,0,0,.26,1,1,1,0,0,0,1.27.57,2.46,2.46,0,0,0,1-.83.89.89,0,0,0,.14.62,1,1,0,0,0,1.23.28,3.37,3.37,0,0,0,.64-.59l-.06.15c-.09.28.66.62.89.39a17.24,17.24,0,0,1,1.61-2.17,4.24,4.24,0,0,1,.88-.83l.09,0s0,.11-.09.29a6.19,6.19,0,0,0-.86,2.11.84.84,0,0,0,.86.77.74.74,0,0,0,.48-.13,4.83,4.83,0,0,0,.84-.85.88.88,0,0,0,0,.29c.11.34.62.82,1,.63a3.52,3.52,0,0,0,1-1,10.15,10.15,0,0,1-.5,1.14c-.48.2-1,.36-1.36.54-.58.26-1.31.61-1.36,1s.41.81,1.2.8c.94,0,1.81-1.1,2.42-2.3a5.82,5.82,0,0,0,1.05-.62,6.94,6.94,0,0,0,1.53-1.92C-105.61,297.09-105.78,297-106,297.16Zm-3.84,3.68a2,2,0,0,1-1.29.89c-.18,0-1-.15.71-1,.23-.11.54-.24.9-.38Zm1.5-3.09a5.61,5.61,0,0,1-1.61,1.52c-.17,0,.11-.81.68-1.74.38-.64,1.49-1.79,1.86-1.42.19.2-.25.86-.3,1a.37.37,0,0,0-.43.19C-108.2,297.53-108.26,297.65-108.3,297.75Z" transform="translate(153.67 -281.71)"/><path d="M-116.29,304.45a1,1,0,0,0,.65-.07c.22-.09.49-.45.28-.64a.84.84,0,0,0-1,0C-116.65,304-116.6,304.39-116.29,304.45Z" transform="translate(153.67 -281.71)"/><path d="M-129.44,302.5a2.89,2.89,0,0,0-.87-.37,3.05,3.05,0,0,0-.54-.08,4.4,4.4,0,0,0-4.48,3.34,1.86,1.86,0,0,0,.55,1.74,2.8,2.8,0,0,0,0,1.95,2.42,2.42,0,0,0,2.33,1.17,5.08,5.08,0,0,0,2.1-1.53,8,8,0,0,0,.88-1.26,11.09,11.09,0,0,0,.67-1.42C-128.2,304.58-128.39,303.2-129.44,302.5Zm-.36,3.44a8.86,8.86,0,0,1-.51,1.08c-.83,1.48-2.05,2.68-2.89,2.73s-1-.95-.66-2.07a2.33,2.33,0,0,0,.86.15,1.31,1.31,0,0,0,1-.38c.35-.41.18-.95,0-.93a1.52,1.52,0,0,1-1.75.75,12.23,12.23,0,0,1,.84-1.7,6.64,6.64,0,0,1,1.3-1.67c.14-.3-.78-.47-1.09-.23a7.92,7.92,0,0,0-1.09,1.31,6,6,0,0,0-.73,1.38,3,3,0,0,1,.36-1.88,3.64,3.64,0,0,1,3.38-2,1.65,1.65,0,0,1,.46.06,1.32,1.32,0,0,1,.87,1.27,3.11,3.11,0,0,1,0,.61A5.65,5.65,0,0,1-129.8,305.94Z" transform="translate(153.67 -281.71)"/><path d="M-107.28,306.38c-.46.6-1.75,2.46-2.68,2.37-.34,0-.41-.36-.4-.67a1.72,1.72,0,0,1,.1-.47c.85-.37,2.28-1.16,2.4-1.72s-.84-1.39-1.62-1a4,4,0,0,0-1.66,2.17c-.26.34-.58.73-.86,1.05a3.3,3.3,0,0,1-.63.62c-.33.14.08-1.38.63-2.66,0-.09.08-.19.13-.28a33.34,33.34,0,0,1,1.63-3.26c-.13-.3-.82-.3-1.05,0a14,14,0,0,0-.71,1.33l-.67,1.36,0,.08-.16-.1a1.31,1.31,0,0,0-1.22-.17,4,4,0,0,0-1.45,1.74c-.49.69-1.48,1.88-1.87,1.95s-.2-.66.39-1.83c.34-.7.56-.9.59-1.15s-.71-.64-.83-.47a13.53,13.53,0,0,1-.81,1.6l-.07.16a7.08,7.08,0,0,1-1.14,1.23c.07-.59-.35-1.24-.35-1.86a.94.94,0,0,1,.91-1c.16-.09,0-.75-.5-.75a1.36,1.36,0,0,0-1,.69,1.61,1.61,0,0,0-.27.54c-.43.56-1,1.43-1.47,1.95-.44.09-.54.31-.48.52a1.87,1.87,0,0,1-.4.34c-.51.21.08-1.55.65-2.89a3,3,0,0,1,.19-.41,3.68,3.68,0,0,1,.87.06.21.21,0,0,0,.14-.35,2.48,2.48,0,0,0-.84-.08,13.74,13.74,0,0,0,.77-1.49c0-.24-.43-.63-.77-.51a21.58,21.58,0,0,1-1,2,2.36,2.36,0,0,1-.6,0c-.22.09-.25.39,0,.39h.46c-.26.54-.46,1-.62,1.39-.54.74-1.63,2-1.85,1.93s.84-2.52,1.07-2.88-.61-.64-.78-.47-2.5,3.37-2.83,3.32,1.4-2.89,1.47-3.2-.69-.66-.83-.44-1.41,2.13-1.56,3.2a.86.86,0,0,0,1.16.83,6,6,0,0,0,1.54-1.68,1.84,1.84,0,0,0-.14,1,1.12,1.12,0,0,0,1.23.69c.31-.07.78-.63,1.19-1.21a1.57,1.57,0,0,0,0,.48c.08.6,1,.9,1.4.72a1.77,1.77,0,0,0,.43-.36,2.56,2.56,0,0,0,3-.09,4.44,4.44,0,0,0,.7-.67,1,1,0,0,0,.14.73,1,1,0,0,0,1.33.3,4.25,4.25,0,0,0,1-.95,1.1,1.1,0,0,0,0,.41c.15.44.8.78,1.1.64a4.21,4.21,0,0,0,1.22-1.35,2.15,2.15,0,0,0,0,.61.92.92,0,0,0,.82.77.93.93,0,0,0,.53-.06,1.75,1.75,0,0,0,.33-.28,7.77,7.77,0,0,0,.74-.92,1.12,1.12,0,0,0,.08.38,1.55,1.55,0,0,0,2,.84,6.87,6.87,0,0,0,2.18-2.59C-106.87,306.25-107.16,306.25-107.28,306.38Zm-1.64-.81c.39-.36.62-.19.32.2a6.34,6.34,0,0,1-1.43,1.28A5.7,5.7,0,0,1-108.92,305.57Zm-11.56,3a.56.56,0,0,1-.2.16c-.54,0-1-.07-1-.24a1.46,1.46,0,0,1,1-.63.13.13,0,0,0,0-.21,1.45,1.45,0,0,0-.53,0,9.54,9.54,0,0,0,.61-.92l.12-.16a1.84,1.84,0,0,0,.07.3C-120.35,307.29-120.08,308.17-120.48,308.58Zm7.61-3c-.17.36-.31.67-.42,1a7.11,7.11,0,0,1-1.83,2.09c-.23,0,1-2.92,1.75-3.19a.56.56,0,0,1,.5.09l0,0Z" transform="translate(153.67 -281.71)"/><path d="M-126.37,313.41h-.85V315h-.21v-1.6h-.85v-.19h1.91Z" transform="translate(153.67 -281.71)"/><path d="M-124.11,313.22V315h-.22v-.81h-1.47V315H-126v-1.79h.22V314h1.47v-.78Z" transform="translate(153.67 -281.71)"/><path d="M-121.79,314.81v.2h-1.73v-1.79h1.71v.2h-1.5V314H-122v.2h-1.27v.61Z" transform="translate(153.67 -281.71)"/><path d="M-118.61,314.52c0,.32-.26.49-.67.49h-1.25v-1.79h1.19c.37,0,.63.15.63.45a.4.4,0,0,1-.39.42C-118.82,314.1-118.61,314.22-118.61,314.52Zm-1.71-.53h.95c.26,0,.44-.06.44-.29s-.18-.29-.44-.29h-.95Zm1.49.51c0-.22-.19-.31-.49-.31h-1v.62h1C-119,314.81-118.83,314.72-118.83,314.5Z" transform="translate(153.67 -281.71)"/><path d="M-118.29,314.11c0-.58.41-.95,1.09-.95s1.09.37,1.09.95-.41.95-1.09.95S-118.29,314.69-118.29,314.11Zm2,0c0-.48-.35-.75-.87-.75s-.87.27-.87.75.34.75.87.75S-116.33,314.59-116.33,314.11Z" transform="translate(153.67 -281.71)"/><path d="M-114.87,314.1l.84.91h-.28l-.71-.76-.71.76H-116l.84-.9-.83-.89h.28l.7.74.7-.74h.27Z" transform="translate(153.67 -281.71)"/></svg>