<svg id="Layer_1" data-name="Layer 1" xmlns="http://www.w3.org/2000/svg" viewBox="0 0 50 40"><defs><style>.cls-1{fill:#1a1a1a;}.cls-2{fill:#fff;}</style></defs><title>Think Outisde the Box</title><path class="cls-1" d="M40.89,26.65h0v0Z" transform="translate(-7.32 -6.76)"/><rect class="cls-2" width="50" height="40"/><path d="M36.23,18.66a13.66,13.66,0,0,1-3.47.13c-.44,0-1,0-1.51,0l-.86.07a4.13,4.13,0,0,0-2.55,1,1.2,1.2,0,0,0,.5,2.1c.24,0,.28-.11.12-.24-.42-.13-.22-.87.12-1.26a3,3,0,0,1,1.81-.94,8.15,8.15,0,0,1,.86-.14c.38,0,.82-.06,1.33-.07h.08c-.41.61-1,1.79-1.41,2.43l0,.06c-.15.3-.48.92-.82,1.6a20.71,20.71,0,0,0-1.2,2.69c-.06.35.51.66,1,.63a3.72,3.72,0,0,1,.19-.59c.2-.49.51-1.19.86-1.93s.78-1.59,1.14-2.26a14.93,14.93,0,0,1,1.39-2.38.38.38,0,0,0-.15-.25c1.52,0,2.44-.06,2.75-.32C36.48,18.91,36.65,18.54,36.23,18.66Z" transform="translate(-7.32 -6.76)"/><path d="M33.73,25.32c.06-.1.48-.86,1.29-2.48a16.26,16.26,0,0,0,1.15-2.28c0-.29-.75-.68-1-.51a24.47,24.47,0,0,1-1.24,2.64,36.74,36.74,0,0,0-1.83,3.87c-.11.37.71.78,1.11.4.12-.34,2.71-3.75,3.15-3.53.13.07-1.14,1.87-1,2.94A1.13,1.13,0,0,0,37,27a5.26,5.26,0,0,0,.86-.92,1,1,0,0,0,.18.63,1.22,1.22,0,0,0,1.5.32,3.73,3.73,0,0,0,.78-.67l-.07.16c-.1.33.81.72,1.09.45S44,23.45,44.52,23.5c.22,0-1.1,1.65-1.16,2.76,0,.68,1,1.16,1.64.74a6,6,0,0,0,.87-.8,5.13,5.13,0,0,0-.24.7c0,.4.74.56,1,.33A19.19,19.19,0,0,1,47.5,25h0s0,0,0,0a2.49,2.49,0,0,0,.31,1.2,1.65,1.65,0,0,0,.53.55,1.32,1.32,0,0,0,1,.11c.64-.16,1.47-1.23,1.92-1.91.14-.27-.11-.5-.33-.18-.4.53-1.24,1.54-1.69,1.53s-.79-1.51-.84-2h0a6.6,6.6,0,0,1,1.94-1.06c.17-.07.1-.53-.17-.52a5.08,5.08,0,0,0-1.82,1l-.44.35c.15-.33.3-.65.44-.93.06-.12.12-.23.17-.34a26.06,26.06,0,0,1,1.68-3c0-.29-.83-.53-1.14-.15A10.41,10.41,0,0,0,48.37,21c-.21.42-.48.95-.82,1.59l0,.08c-.31.59-.63,1.26-.92,1.9,0,.09-.07.17-.11.25a6.8,6.8,0,0,1-2,1.94c-.56.06.72-2.06,1.06-3,.2-.57-.58-1-1.06-.84-.91.27-2.64,2.56-2.64,2.56a14.62,14.62,0,0,0,1-2.08c0-.28-.62-.61-.89-.43a11.71,11.71,0,0,1-.67,1.55c-.51.71-1.74,2.14-2.22,2.22s-.22-.71.44-1.95c.39-.74.64-1,.68-1.23s-.81-.68-1-.49a14.83,14.83,0,0,1-.91,1.69L38.2,25c-.67.85-1.61,1.82-1.8,1.76s.69-2.08,1-3c.15-.41-.52-1.13-1.1-1S33.91,25.1,33.73,25.32Z" transform="translate(-7.32 -6.76)"/><path d="M40.32,22.2a1.25,1.25,0,0,0,.73-.08c.25-.1.56-.48.32-.69a1,1,0,0,0-1.1,0C39.92,21.71,40,22.13,40.32,22.2Z" transform="translate(-7.32 -6.76)"/><path d="M43.9,28.71c-.3.21-.26.56,0,.61a1.05,1.05,0,0,0,.62-.06c.21-.08.47-.4.27-.58A.89.89,0,0,0,43.9,28.71Z" transform="translate(-7.32 -6.76)"/><path d="M31.47,27.37a3.09,3.09,0,0,0-.86-.22l-.16,0a4.13,4.13,0,0,0-4.25,3,1.59,1.59,0,0,0,.51,1.55,2.34,2.34,0,0,0,0,1.74,2.36,2.36,0,0,0,2.22,1,4.57,4.57,0,0,0,1.64-1,6.68,6.68,0,0,0,.86-1,8.7,8.7,0,0,0,1-1.75C33,29.26,32.74,27.92,31.47,27.37Zm0,3.17a.19.19,0,0,0,0,.07,7.67,7.67,0,0,1-.84,1.51,4.12,4.12,0,0,1-2.4,1.9c-.7,0-.9-.85-.62-1.85a2.27,2.27,0,0,0,.81.14,1.35,1.35,0,0,0,1-.34c.33-.37.17-.85,0-.84a1.47,1.47,0,0,1-1.66.67,9.9,9.9,0,0,1,.79-1.52,5.9,5.9,0,0,1,1.24-1.49c.12-.27-.74-.42-1-.21a7.11,7.11,0,0,0-1,1.18A5.36,5.36,0,0,0,27,31a2.59,2.59,0,0,1,.34-1.68,3.5,3.5,0,0,1,3.21-1.81h.09a1.15,1.15,0,0,1,.86.37C32,28.44,31.85,29.58,31.47,30.54Z" transform="translate(-7.32 -6.76)"/><path d="M52.5,31.05c-.43.53-1.66,2.2-2.54,2.12-.33,0-.39-.32-.38-.6a1.38,1.38,0,0,1,.09-.42c.81-.33,2.17-1,2.28-1.54s-.8-1.25-1.53-.93a3.57,3.57,0,0,0-1.58,1.95l-.47.54a9.76,9.76,0,0,1-.85.89l-.1.06c-.19.08-.12-.43.1-1.1a10.68,10.68,0,0,1,.62-1.53l.23-.47a26.63,26.63,0,0,1,1.32-2.45c-.12-.27-.78-.27-1,0a3.76,3.76,0,0,0-.33.53c-.2.36-.48.9-.86,1.62l-.13.25,0,.08A1.42,1.42,0,0,0,46,29.81a3.58,3.58,0,0,0-1.38,1.56c-.47.62-1.4,1.68-1.77,1.74s-.19-.59.37-1.64c.33-.62.53-.81.56-1s-.67-.57-.79-.42a12.24,12.24,0,0,1-.77,1.43l-.07.15a6.63,6.63,0,0,1-1.08,1.1c.07-.53-.33-1.12-.33-1.67a.86.86,0,0,1,.87-.87c.15-.09,0-.68-.48-.68A1.58,1.58,0,0,0,40,30.59c-.41.5-1,1.28-1.41,1.74-.42.08-.51.28-.45.47a2,2,0,0,1-.38.3c-.49.19.08-1.39.61-2.58.05-.12.11-.24.18-.37a4.24,4.24,0,0,1,.83.05.18.18,0,0,0,.14-.31,2.38,2.38,0,0,0-.8-.07,13.44,13.44,0,0,0,.73-1.34c.05-.21-.41-.56-.73-.45-.06.24-.36.65-1,1.8a2.94,2.94,0,0,1-.57,0c-.21.08-.24.35,0,.35h.44c-.25.48-.45.89-.59,1.24-.52.67-1.55,1.79-1.76,1.73s.8-2.26,1-2.58-.58-.58-.74-.42-2.38,3-2.69,3,1.33-2.58,1.4-2.86-.66-.6-.8-.4-1.33,1.91-1.48,2.87c-.08.55.69,1,1.1.74a5.33,5.33,0,0,0,1.47-1.51,1.61,1.61,0,0,0-.13.91,1.07,1.07,0,0,0,1.16.63c.3-.07.75-.57,1.14-1.08a1.64,1.64,0,0,0,0,.43c.08.53,1,.8,1.34.64a2.21,2.21,0,0,0,.41-.32,2.57,2.57,0,0,0,2.88-.08,5.25,5.25,0,0,0,.65-.6.88.88,0,0,0,.14.65,1,1,0,0,0,1.27.27,4.08,4.08,0,0,0,.9-.85.82.82,0,0,0,0,.36,1,1,0,0,0,1,.58,3.9,3.9,0,0,0,1.15-1.22,1.82,1.82,0,0,0,0,.56.94.94,0,0,0,1.1.68l.18,0a2.68,2.68,0,0,0,.67-.64,5,5,0,0,0,.35-.43,1,1,0,0,0,.08.34,1.5,1.5,0,0,0,1.93.75,6.17,6.17,0,0,0,2.07-2.32C52.89,30.93,52.61,30.93,52.5,31.05Zm-1.56-.73c.37-.32.59-.16.31.19a5.82,5.82,0,0,1-1.36,1.14A5.82,5.82,0,0,1,50.94,30.32ZM40,33a.65.65,0,0,1-.2.15c-.51,0-.92-.07-1-.22a1.4,1.4,0,0,1,.94-.57c.06-.06.05-.16,0-.18a1.36,1.36,0,0,0-.51,0h-.07l.66-.84.11-.14a1.54,1.54,0,0,0,.07.27C40.08,31.87,40.34,32.65,40,33ZM46.8,31.2a6.83,6.83,0,0,1-1.74,1.87c-.22,0,1-2.62,1.66-2.86a.57.57,0,0,1,.49.09C47.05,30.64,46.91,30.93,46.8,31.2Z" transform="translate(-7.32 -6.76)"/><path d="M45.91,9.61H32.73A2.36,2.36,0,0,0,30.37,12v6.64l.85-.08V14a.33.33,0,0,1,.32-.34H47.08a.33.33,0,0,1,.32.34v8.12l.86-1.35V12A2.36,2.36,0,0,0,45.91,9.61Zm-9,2.66a.49.49,0,1,1,.49-.49A.49.49,0,0,1,36.86,12.27ZM40.29,12h-2a.23.23,0,1,1,0-.45h2a.23.23,0,1,1,0,.45Z" transform="translate(-7.32 -6.76)"/><circle cx="32" cy="35.05" r="1"/><path d="M47.43,39.58a.33.33,0,0,1-.32.33H31.56a.32.32,0,0,1-.32-.33V33.31l-.86.75v7.5a2.36,2.36,0,0,0,2.36,2.36H45.91a2.36,2.36,0,0,0,2.36-2.36V33.38l-.85.61ZM39.32,43.1a1.3,1.3,0,1,1,1.3-1.3A1.3,1.3,0,0,1,39.32,43.1Z" transform="translate(-7.32 -6.76)"/><path d="M34,36.73h-.86v1.63h-.22V36.73H32v-.2h2Z" transform="translate(-7.32 -6.76)"/><path d="M36.3,36.53v1.83h-.22v-.83H34.57v.83h-.22V36.53h.22v.79h1.51v-.79Z" transform="translate(-7.32 -6.76)"/><path d="M38.67,38.15v.21H36.9V36.53h1.75v.2H37.12v.59h1.29v.21H37.12v.62Z" transform="translate(-7.32 -6.76)"/><path d="M41.92,37.86c0,.33-.27.5-.69.5H40V36.53h1.22c.37,0,.63.15.63.46a.4.4,0,0,1-.39.43C41.71,37.43,41.92,37.55,41.92,37.86Zm-1.74-.54h1c.26,0,.44-.07.44-.3s-.18-.29-.44-.29h-1Zm1.51.52c0-.23-.18-.32-.5-.32h-1v.64h1C41.51,38.16,41.69,38.06,41.69,37.84Z" transform="translate(-7.32 -6.76)"/><path d="M42.24,37.44c0-.59.42-1,1.12-1s1.11.38,1.11,1-.42,1-1.11,1S42.24,38,42.24,37.44Zm2,0c0-.49-.35-.76-.89-.76s-.89.27-.89.76.35.77.89.77S44.25,37.93,44.25,37.44Z" transform="translate(-7.32 -6.76)"/><path d="M45.74,37.43l.86.93h-.29l-.72-.77-.72.77h-.28l.86-.92-.86-.91h.29l.72.76.71-.76h.28Z" transform="translate(-7.32 -6.76)"/></svg>