<?xml version="1.0" encoding="utf-8"?>
<!-- Generator: Adobe Illustrator 23.0.3, SVG Export Plug-In . SVG Version: 6.00 Build 0)  -->
<svg version="1.1" xmlns="http://www.w3.org/2000/svg" xmlns:xlink="http://www.w3.org/1999/xlink" x="0px" y="0px"
	 viewBox="0 0 100 100" style="enable-background:new 0 0 100 100;" xml:space="preserve">
<g id="Layer_2">
	<g id="Layer_4">
	</g>
	<g id="Layer_5">
	</g>
</g>
<g id="Layer_6">
</g>
<g id="Layer_3">
	<g>
		<path d="M93.2,43.1L93.2,43.1L49.6,4.7L7.3,42.9H7c-1.3,1.7-2,3.7-2,5.9v36c0,5.8,5.3,10.6,11.8,10.6h66.3
			c6.5,0,11.8-4.8,11.8-10.6v-36C95,46.7,94.3,44.8,93.2,43.1z M49.6,9l38.6,33.9h0c0,0,0,0,0,0L59.5,66.6L50,60.7l-9.1,5.7L10.8,44
			L49.6,9z M8.6,84.7v-36c0-1.1,0.3-2.2,0.8-3.2l29.5,22L8.8,86.4C8.7,85.9,8.6,85.3,8.6,84.7z M83.2,92.1H16.8
			c-2.8,0-5.2-1.2-6.7-3.1L50,64.1L89.9,89C88.4,90.9,86,92.1,83.2,92.1z M91.4,84.7c0,0.6-0.1,1.1-0.2,1.7L61.4,67.8l28.4-23.4
			c1,1.2,1.6,2.8,1.6,4.4V84.7z"/>
	</g>
</g>
</svg>
