<?xml version="1.0" encoding="utf-8"?>
<!-- Generator: Adobe Illustrator 24.1.1, SVG Export Plug-In . SVG Version: 6.00 Build 0)  -->
<svg version="1.1" id="Layer_1" xmlns="http://www.w3.org/2000/svg" xmlns:xlink="http://www.w3.org/1999/xlink" x="0px" y="0px"
	 viewBox="0 0 291 400" style="enable-background:new 0 0 291 400;" xml:space="preserve">
<style type="text/css">
	.st0{fill-rule:evenodd;clip-rule:evenodd;fill:#73A1B0;}
</style>
<path class="st0" d="M271.6,218.4L271.6,218.4l-91.8,159.1l-0.6,0.3c-5.6,13.6-18.9,22.4-33.6,22.3c-14.6-0.1-27.9-8.8-33.6-22.3
	l-0.6-0.3l-92-159.1C-20.6,148.9,3.3,60,72.8,19.5c69.5-40.1,158.8-16.2,198.8,53.3C298.5,119.4,296.6,174.7,271.6,218.4z M145.6,91
	C115.4,91,91,115.4,91,145.6s24.4,54.6,54.6,54.6s54.6-24.4,54.6-54.6C200.1,115.4,175.7,91,145.6,91z"/>
</svg>
