<?xml version="1.0" encoding="utf-8"?>
<!-- Generator: Adobe Illustrator 23.0.3, SVG Export Plug-In . SVG Version: 6.00 Build 0)  -->
<svg version="1.1" id="Layer_1" xmlns="http://www.w3.org/2000/svg" xmlns:xlink="http://www.w3.org/1999/xlink" x="0px" y="0px"
	 viewBox="0 0 88 71.1" style="enable-background:new 0 0 88 71.1;" xml:space="preserve">
<style type="text/css">
	.st0{fill-rule:evenodd;clip-rule:evenodd;}
</style>
<g>
	<g>
		<path class="st0" d="M62.9,15.3H25.1c-4.5,0-8.1,3.6-8.1,8.1v24.3c0,4.5,3.6,8.1,8.1,8.1h37.8c4.5,0,8.1-3.6,8.1-8.1V23.4
			C71,18.9,67.4,15.3,62.9,15.3z M62,20.7L49.6,33.6L44,39.5l-5.6-5.9L26,20.7H62z M22.4,46.4V24.8l10.3,10.8L22.4,46.4z M26.1,50.4
			l10.5-10.9l5.6,5.9c1,1.1,2.7,1.1,3.7,0l5.6-5.9l10.4,10.9H26.1z M65.6,46.4L55.2,35.6l10.4-10.8V46.4z"/>
	</g>
</g>
</svg>
