<svg id="Layer_1" data-name="Layer 1" xmlns="http://www.w3.org/2000/svg" viewBox="0 0 25 25"><title>icon-phone</title><path d="M13.22,18.92a2.77,2.77,0,0,0,1.71.62,1.77,1.77,0,0,0,1-.27,2,2,0,0,0,.68-.6,1.6,1.6,0,0,0,.33-.79A6.76,6.76,0,0,0,14.53,15c-.08,0-.36-.06-1,.53a.37.37,0,0,1-.43.06,4.83,4.83,0,0,1-2.17-2.36h0a4.83,4.83,0,0,1-.38-3.18.41.41,0,0,1,.33-.28c.87-.09,1-.34,1-.41a6.69,6.69,0,0,0-.62-3.65,1.59,1.59,0,0,0-.81-.27,2.51,2.51,0,0,0-.92.12,2.28,2.28,0,0,0-.81.56,2.86,2.86,0,0,0-.64,1.72A12.58,12.58,0,0,0,9.26,14a12.48,12.48,0,0,0,4,4.88Zm7.2-13.18a.37.37,0,0,1,.38-.38.38.38,0,0,1,.39.38v.73a.38.38,0,0,1-.39.37.37.37,0,0,1-.38-.37Zm0,2a.39.39,0,0,1,.38-.38.4.4,0,0,1,.39.38V15.1a.4.4,0,0,1-.39.39.39.39,0,0,1-.38-.39ZM4.7,2.09H20.28A2.63,2.63,0,0,1,22.91,4.7V20.28a2.65,2.65,0,0,1-.77,1.86h0a2.65,2.65,0,0,1-1.83.76H4.7a2.63,2.63,0,0,1-2.61-2.63V4.7A2.63,2.63,0,0,1,4.7,2.09Zm15.58.77H4.7A1.84,1.84,0,0,0,2.86,4.7V20.28A1.86,1.86,0,0,0,4.7,22.14H20.28a1.82,1.82,0,0,0,1.29-.52l0,0a1.81,1.81,0,0,0,.55-1.31V4.7a1.86,1.86,0,0,0-1.86-1.84ZM4.84,0H20.16a4.8,4.8,0,0,1,3.42,1.41h0A4.8,4.8,0,0,1,25,4.84V20.16a4.85,4.85,0,0,1-1.42,3.42h0A4.83,4.83,0,0,1,20.16,25H4.84a4.89,4.89,0,0,1-3.43-1.42h0A4.83,4.83,0,0,1,0,20.16V4.84A4.84,4.84,0,0,1,1.41,1.41h0A4.8,4.8,0,0,1,4.84,0ZM20.16.76H4.84A4.1,4.1,0,0,0,.76,4.84V20.16a4.1,4.1,0,0,0,4.08,4.08H20.16a4.1,4.1,0,0,0,4.08-4.08V4.84A4.1,4.1,0,0,0,20.16.76ZM14.94,20.3a3.68,3.68,0,0,1-2.18-.77A13.42,13.42,0,0,1,7.37,7.8a3.69,3.69,0,0,1,.82-2.16,2.78,2.78,0,0,1,1.14-.77,2.93,2.93,0,0,1,1.22-.17,2.33,2.33,0,0,1,1.3.49.29.29,0,0,1,.09.12,7.41,7.41,0,0,1,.75,4.17l0,.06s-.1.74-1.44,1a4.21,4.21,0,0,0,.39,2.4v0a4.07,4.07,0,0,0,1.59,1.88c1-.8,1.59-.5,1.66-.46l0,0a7.54,7.54,0,0,1,2.71,3.28.32.32,0,0,1,0,.13,2.32,2.32,0,0,1-.46,1.31,2.92,2.92,0,0,1-.94.83,2.71,2.71,0,0,1-1.32.36Z" transform="translate(0 0)"/></svg>