<?xml version="1.0" encoding="utf-8"?>
<!-- Generator: Adobe Illustrator 23.0.3, SVG Export Plug-In . SVG Version: 6.00 Build 0)  -->
<svg version="1.1" id="Layer_1" xmlns="http://www.w3.org/2000/svg" xmlns:xlink="http://www.w3.org/1999/xlink" x="0px" y="0px"
	 viewBox="0 0 40 71.1" style="enable-background:new 0 0 40 71.1;" xml:space="preserve">
<style type="text/css">
	.st0{fill-rule:evenodd;clip-rule:evenodd;}
</style>
<path class="st0" d="M24.3,36.2L24.3,36.2l-3.2,5.5l0,0c-0.2,0.5-0.6,0.8-1.2,0.8c-0.5,0-1-0.3-1.2-0.8l0,0l-3.2-5.5
	c-1.4-2.4-0.6-5.4,1.8-6.8c2.4-1.4,5.4-0.6,6.8,1.8C25.3,32.8,25.2,34.7,24.3,36.2z M20,31.8c-1,0-1.9,0.8-1.9,1.9
	c0,1,0.8,1.9,1.9,1.9c1,0,1.9-0.8,1.9-1.9C21.9,32.7,21,31.8,20,31.8z"/>
</svg>
