<svg id="Layer_1" data-name="Layer 1" xmlns="http://www.w3.org/2000/svg" viewBox="0 0 30 30"><defs><style>.cls-1{fill:red;}</style></defs><title>icon-phone</title><path class="cls-1" d="M15.86,22.7a3.33,3.33,0,0,0,2.05.75,2.25,2.25,0,0,0,1.16-.32,2.42,2.42,0,0,0,.82-.73,2,2,0,0,0,.39-.95A8.09,8.09,0,0,0,17.43,18c-.09,0-.43-.08-1.19.64a.47.47,0,0,1-.52.07,5.81,5.81,0,0,1-2.6-2.83v0a5.77,5.77,0,0,1-.46-3.81.47.47,0,0,1,.39-.34c1-.11,1.23-.41,1.26-.5a8,8,0,0,0-.74-4.38,1.88,1.88,0,0,0-1-.32,3.08,3.08,0,0,0-1.11.14,2.76,2.76,0,0,0-1,.68,3.37,3.37,0,0,0-.76,2.07,15.2,15.2,0,0,0,6.1,13.26ZM24.5,6.89a.46.46,0,0,1,.92,0v.87a.46.46,0,0,1-.92,0Zm0,2.44a.46.46,0,1,1,.92,0v8.79a.46.46,0,1,1-.92,0ZM5.64,2.51h18.7a3.18,3.18,0,0,1,3.15,3.13v18.7a3.13,3.13,0,0,1-.93,2.22l0,0a3.16,3.16,0,0,1-2.19.91H5.64a3.18,3.18,0,0,1-3.13-3.15V5.64A3.18,3.18,0,0,1,5.64,2.51Zm18.7.93H5.64a2.19,2.19,0,0,0-2.2,2.2v18.7a2.2,2.2,0,0,0,2.2,2.22h18.7a2.19,2.19,0,0,0,1.55-.62l0,0a2.21,2.21,0,0,0,.65-1.57V5.64a2.2,2.2,0,0,0-2.22-2.2ZM5.8,0H24.2a5.75,5.75,0,0,1,4.09,1.69l0,0A5.75,5.75,0,0,1,30,5.8V24.2a5.77,5.77,0,0,1-1.71,4.09v0A5.78,5.78,0,0,1,24.2,30H5.8a5.85,5.85,0,0,1-4.11-1.71h0A5.78,5.78,0,0,1,0,24.2V5.8A5.83,5.83,0,0,1,1.69,1.69h0A5.75,5.75,0,0,1,5.8,0ZM24.2.91H5.8A4.82,4.82,0,0,0,2.35,2.35,4.82,4.82,0,0,0,.91,5.8V24.2A4.92,4.92,0,0,0,5.8,29.09H24.2a4.92,4.92,0,0,0,4.89-4.89V5.8A4.92,4.92,0,0,0,24.2.91ZM17.93,24.36a4.41,4.41,0,0,1-2.62-.93,16.17,16.17,0,0,1-5-6.21A15.87,15.87,0,0,1,8.85,9.37a4.36,4.36,0,0,1,1-2.6,3.38,3.38,0,0,1,1.37-.93,3.61,3.61,0,0,1,1.46-.2,2.79,2.79,0,0,1,1.57.59.41.41,0,0,1,.1.14,8.86,8.86,0,0,1,.89,5l0,.07s-.12.89-1.72,1.17a5.08,5.08,0,0,0,.46,2.89l0,0a5,5,0,0,0,1.9,2.26c1.18-1,1.91-.61,2-.56l.05,0a9.16,9.16,0,0,1,3.26,3.93.47.47,0,0,1,0,.16,2.77,2.77,0,0,1-.55,1.57,3.67,3.67,0,0,1-1.13,1,3.23,3.23,0,0,1-1.58.43Z" transform="translate(0 0)"/></svg>