<?xml version="1.0" encoding="utf-8"?>
<!-- Generator: Adobe Illustrator 24.1.1, SVG Export Plug-In . SVG Version: 6.00 Build 0)  -->
<svg version="1.1" id="Layer_1" xmlns="http://www.w3.org/2000/svg" xmlns:xlink="http://www.w3.org/1999/xlink" x="0px" y="0px"
	 viewBox="0 0 250.9 420" style="enable-background:new 0 0 250.9 420;" xml:space="preserve">
<style type="text/css">
	.st0{fill:#73A1B0;}
</style>
<g>
	<path class="st0" d="M197.8,10H53c-14.3,0-25.9,11.6-25.9,25.9v348.2c0,14.3,11.6,25.9,25.9,25.9h144.9c14.3,0,25.9-11.6,25.9-25.9
		V35.9C223.7,21.6,212.1,10,197.8,10z M114.5,31.4h21.6c1.6,0,2.9,1.1,2.9,2.5c0,1.3-1.3,2.4-2.9,2.4h-21.6c-1.6,0-3-1.1-3-2.4
		C111.5,32.5,112.9,31.4,114.5,31.4z M98.3,28.5c3,0,5.4,2.4,5.4,5.4s-2.4,5.4-5.4,5.4c-2.9,0-5.4-2.4-5.4-5.4
		C93,30.9,95.4,28.5,98.3,28.5z M125.4,401c-7.9,0-14.3-6.4-14.3-14.3c0-7.9,6.4-14.3,14.3-14.3c7.9,0,14.3,6.4,14.3,14.3
		C139.7,394.5,133.3,401,125.4,401z M211,365.9H40.1c-1.9,0-3.5-1.7-3.5-3.7L36.3,58.5c0-2,1.6-3.7,3.5-3.7h170.9
		c1.9,0,3.5,1.7,3.5,3.7l0.3,303.8C214.5,364.3,212.9,365.9,211,365.9z"/>
	
		<ellipse transform="matrix(0.9732 -0.2298 0.2298 0.9732 -85.4911 39.1558)" class="st0" cx="125.4" cy="386.7" rx="9.4" ry="9.4"/>
</g>
</svg>
