<?xml version="1.0" encoding="utf-8"?>
<!-- Generator: Adobe Illustrator 23.0.3, SVG Export Plug-In . SVG Version: 6.00 Build 0)  -->
<svg version="1.1" id="Layer_1" xmlns="http://www.w3.org/2000/svg" xmlns:xlink="http://www.w3.org/1999/xlink" x="0px" y="0px"
	 viewBox="0 0 40 71.1" style="enable-background:new 0 0 40 71.1;" xml:space="preserve">
<style type="text/css">
	.st0{fill-rule:evenodd;clip-rule:evenodd;}
</style>
<path class="st0" d="M23.1,44.5h-7.1c-0.8,0-1.4-0.6-1.4-1.4V30.9v-0.7v-1.4c0-0.8,0.6-1.4,1.4-1.4h7.1c0.8,0,1.4,0.6,1.4,1.4v1.4
	v0.7V43C24.5,43.8,23.9,44.5,23.1,44.5z M19.5,43.8c0.4,0,0.7-0.3,0.7-0.7c0-0.4-0.3-0.7-0.7-0.7c-0.4,0-0.7,0.3-0.7,0.7
	C18.8,43.4,19.1,43.8,19.5,43.8z M20.6,28h-2.1c-0.2,0-0.4,0.2-0.4,0.4c0,0.2,0.2,0.4,0.4,0.4h2.1c0.2,0,0.4-0.2,0.4-0.4
	C20.9,28.2,20.8,28,20.6,28z M23.8,40.2v-5.7v-2.3v-1.2v-0.7c0-0.4-0.3-0.7-0.7-0.7h-0.7h-5.7h-0.7c-0.4,0-0.7,0.3-0.7,0.7v0.7v1.2
	v2.3v5.7v0.7c0,0.4,0.3,0.7,0.7,0.7h0.7h5.7h0.7c0.4,0,0.7-0.3,0.7-0.7V40.2z"/>
</svg>
