<?xml version="1.0" encoding="utf-8"?>
<!-- Generator: Adobe Illustrator 23.0.3, SVG Export Plug-In . SVG Version: 6.00 Build 0)  -->
<svg version="1.1" id="Layer_1" xmlns="http://www.w3.org/2000/svg" xmlns:xlink="http://www.w3.org/1999/xlink" x="0px" y="0px"
	 viewBox="0 0 104 140.1" style="enable-background:new 0 0 104 140.1;" xml:space="preserve">
<style type="text/css">
	.st0{fill-rule:evenodd;clip-rule:evenodd;}
</style>
<path class="st0" d="M91,75.7L91,75.7l-28.4,49.2l-0.2,0.1c-1.7,4.1-5.7,6.9-10.4,6.9c-4.7,0-8.7-2.9-10.4-6.9l-0.2-0.1L13,75.7
	c-12.4-21.5-5-49,16.5-61.5C51,1.8,78.6,9.2,91,30.7C99.3,45.1,98.7,62.2,91,75.7z M52,36.3c-9.3,0-16.9,7.6-16.9,16.9
	c0,9.3,7.6,16.9,16.9,16.9c9.3,0,16.9-7.6,16.9-16.9C68.9,43.9,61.3,36.3,52,36.3z"/>
</svg>
