<?xml version="1.0" encoding="utf-8"?>
<!-- Generator: Adobe Illustrator 23.0.3, SVG Export Plug-In . SVG Version: 6.00 Build 0)  -->
<svg version="1.1" id="Layer_1" xmlns="http://www.w3.org/2000/svg" xmlns:xlink="http://www.w3.org/1999/xlink" x="0px" y="0px"
	 viewBox="0 0 104 71.1" style="enable-background:new 0 0 104 71.1;" xml:space="preserve">
<style type="text/css">
	.st0{fill-rule:evenodd;clip-rule:evenodd;}
</style>
<path class="st0" d="M73.3,38.6L73.3,38.6l-15.5,27l-0.1,0.1c-0.9,2.2-3.1,3.8-5.7,3.8c-2.6,0-4.8-1.6-5.7-3.8l-0.1-0.1l-15.6-27
	c-6.8-11.8-2.8-26.9,9-33.7c11.8-6.8,26.9-2.8,33.7,9C77.9,21.9,77.6,31.3,73.3,38.6z M52,17.1c-5.1,0-9.2,4.1-9.2,9.2
	c0,5.1,4.1,9.2,9.2,9.2c5.1,0,9.2-4.1,9.2-9.2C61.2,21.2,57.1,17.1,52,17.1z"/>
</svg>
