<?xml version="1.0" encoding="utf-8"?>
<!-- Generator: Adobe Illustrator 22.1.0, SVG Export Plug-In . SVG Version: 6.00 Build 0)  -->
<svg version="1.1" id="Layer_1" xmlns="http://www.w3.org/2000/svg" xmlns:xlink="http://www.w3.org/1999/xlink" x="0px" y="0px"
	 viewBox="0 0 32 32" style="enable-background:new 0 0 32 32;" xml:space="preserve">
<path d="M16.86,23.7c0.75,0.55,1.44,0.77,2.05,0.75c0.45,0,0.84-0.12,1.16-0.32c0.34-0.18,0.62-0.45,0.82-0.73
	c0.23-0.32,0.37-0.66,0.39-0.94c-0.18-0.41-1.02-2.23-2.85-3.42C18.34,19,18,18.96,17.24,19.68c-0.14,0.12-0.36,0.16-0.52,0.07
	c-1.1-0.52-2.03-1.6-2.6-2.83V16.9c-0.57-1.25-0.78-2.64-0.46-3.81c0.05-0.18,0.21-0.32,0.39-0.34c1.05-0.11,1.23-0.41,1.26-0.5
	c0.28-2.14-0.53-3.97-0.75-4.38C14.34,7.69,14,7.59,13.61,7.55c-0.36-0.02-0.73,0.02-1.1,0.14c-0.36,0.14-0.69,0.36-0.98,0.68
	c-0.41,0.46-0.69,1.12-0.77,2.07c-0.2,2.56,0.3,5.11,1.35,7.41C13.16,20.14,14.78,22.17,16.86,23.7L16.86,23.7z M25.5,7.89
	c0-0.27,0.21-0.46,0.46-0.46s0.46,0.2,0.46,0.46v0.87c0,0.25-0.21,0.44-0.46,0.44s-0.46-0.2-0.46-0.44V7.89z M25.5,10.33
	c0-0.25,0.21-0.46,0.46-0.46s0.46,0.21,0.46,0.46v8.8c0,0.25-0.21,0.46-0.46,0.46s-0.46-0.21-0.46-0.46V10.33z M6.64,3.51h18.69
	c0.87,0,1.66,0.36,2.23,0.93c0.57,0.57,0.93,1.35,0.93,2.21v18.69c0,0.87-0.36,1.66-0.93,2.23l-0.04,0.02
	c-0.57,0.55-1.34,0.91-2.19,0.91H6.64c-0.85,0-1.64-0.36-2.21-0.93c-0.57-0.57-0.93-1.35-0.93-2.23V6.64c0-0.85,0.36-1.64,0.93-2.21
	C5.01,3.87,5.79,3.51,6.64,3.51L6.64,3.51z M25.34,4.44H6.64c-0.61,0-1.16,0.25-1.57,0.64C4.69,5.49,4.44,6.04,4.44,6.64v18.69
	c0,0.62,0.25,1.18,0.64,1.57c0.41,0.41,0.96,0.66,1.57,0.66h18.69c0.61,0,1.16-0.23,1.55-0.62l0.02-0.04
	c0.41-0.39,0.66-0.94,0.66-1.57V6.64c0-0.61-0.25-1.16-0.66-1.57C26.51,4.69,25.96,4.44,25.34,4.44L25.34,4.44z M6.8,1H25.2
	c1.6,0,3.04,0.64,4.09,1.69l0.02,0.02C30.36,3.76,31,5.2,31,6.8V25.2c0,1.6-0.66,3.04-1.71,4.09v0.02C28.24,30.36,26.78,31,25.2,31
	H6.8c-1.6,0-3.04-0.66-4.11-1.71l0,0C1.64,28.24,1,26.78,1,25.2V6.8c0-1.6,0.64-3.04,1.69-4.11h0.02C3.76,1.64,5.2,1,6.8,1L6.8,1z
	 M25.2,1.91H6.8c-1.35,0-2.58,0.55-3.45,1.44C2.46,4.22,1.91,5.45,1.91,6.8V25.2c0,1.35,0.55,2.56,1.44,3.45
	c0.87,0.89,2.1,1.44,3.45,1.44H25.2c1.35,0,2.56-0.55,3.45-1.44c0.89-0.89,1.44-2.1,1.44-3.45V6.8c0-1.35-0.55-2.58-1.44-3.45
	C27.76,2.46,26.55,1.91,25.2,1.91L25.2,1.91z M18.93,25.36c-0.78,0.02-1.67-0.25-2.62-0.93c-2.19-1.62-3.92-3.77-5.04-6.21
	c-1.12-2.42-1.64-5.15-1.42-7.85c0.09-1.16,0.46-1.99,0.98-2.6c0.41-0.45,0.87-0.75,1.37-0.93c0.5-0.18,1-0.23,1.46-0.2
	c0.64,0.05,1.21,0.27,1.57,0.59c0.05,0.05,0.09,0.09,0.11,0.14c0.02,0.02,1.25,2.26,0.89,5l-0.02,0.07c0,0-0.12,0.89-1.73,1.18
	c-0.16,0.89,0.04,1.94,0.46,2.88l0.02,0.02c0.43,0.96,1.1,1.8,1.91,2.26c1.18-0.96,1.91-0.61,1.99-0.55l0.05,0.04
	c2.33,1.5,3.24,3.92,3.26,3.93c0.02,0.05,0.02,0.11,0.02,0.16c0.02,0.5-0.2,1.07-0.55,1.57c-0.28,0.39-0.66,0.73-1.12,1
	C20.07,25.18,19.52,25.36,18.93,25.36L18.93,25.36z"/>
</svg>
