<?xml version="1.0" encoding="utf-8"?>
<!-- Generator: Adobe Illustrator 23.0.3, SVG Export Plug-In . SVG Version: 6.00 Build 0)  -->
<svg version="1.1" id="Layer_1" xmlns="http://www.w3.org/2000/svg" xmlns:xlink="http://www.w3.org/1999/xlink" x="0px" y="0px"
	 viewBox="0 0 145.4 138.3" style="enable-background:new 0 0 145.4 138.3;" xml:space="preserve">
<path d="M73.5,56.5c-5.6,0-10.9,8.6-10.9,17.8c0,4.7,2.1,7.5,5.6,7.5c2.5,0,5.2-1.8,7.3-4.8c2.3-3.2,4-8.6,4-12.7
	C79.4,59.5,77.1,56.5,73.5,56.5z M115.4,89.2c-7.8,7.7-24.3,20.1-43.4,20.1c-10.7,0-20.5-3.6-26.9-10.2c-5.9-5.9-8.9-14.1-8.9-24
	C36.1,49.3,55.3,29,80,29c17.4,0,29.3,11,29.3,27.1c0,18.2-11.3,35-23.5,35c-4.6,0-7.8-2.4-8.5-6.5c-3.7,4.4-7.6,6.5-12.1,6.5
	c-8,0-13-6.1-13-15.8c0-14.9,10-28,21.1-28c1.5,0,3,0.3,4.2,0.8c2.2,0.9,3.5,1.9,5.3,5l1.1-3.8h8.9l-3.4,15.3
	C87.5,73.1,87,75.3,86.7,78c-0.1,0.7-0.2,1.4-0.2,1.8c0,1.6,0.7,2.6,1.9,2.6c1.1,0,2.6-1,4-2.6c4.6-5.1,8-14.6,8-22.8
	c0-12.8-7.8-20.4-20.9-20.4c-18.6,0-34.4,17.5-34.4,38c0,8,2.4,14.6,7,19c4.9,4.7,12.7,7.6,20.6,7.6c38.1,0,44.9-35.5,44.9-45.2
	c0-10.1-3.9-19.4-10.8-25.7C100,24,90.5,20.6,80,20.6c-14.7,0-27.9,6.1-37.3,16c-9.4,9.9-15,23.5-15,38.5c0,11.6,3.7,22.3,11.4,30
	c8.3,8.4,20.3,12.6,32.8,12.6h0.2C99.9,117.7,115.4,89.2,115.4,89.2z"/>
</svg>
