<?xml version="1.0" encoding="utf-8"?>
<!-- Generator: Adobe Illustrator 23.0.3, SVG Export Plug-In . SVG Version: 6.00 Build 0)  -->
<svg version="1.1" id="Layer_1" xmlns="http://www.w3.org/2000/svg" xmlns:xlink="http://www.w3.org/1999/xlink" x="0px" y="0px"
	 viewBox="0 0 96 96" style="enable-background:new 0 0 96 96;" xml:space="preserve">
<g id="XMLID_1_">
	<path id="XMLID_3_" d="M47.6,40.3c4.4,0,8,3.6,8,8s-3.6,8-8,8c-4.4,0-8-3.6-8-8S43.2,40.3,47.6,40.3z"/>
	<path id="XMLID_7_" d="M57.7,28.6H37.6c-2.9,0-5.5,0.9-7.1,2.6c-1.6,1.6-2.6,4.2-2.6,7.1v20.1c0,2.9,0.9,5.5,2.7,7.3
		c1.8,1.6,4.2,2.6,7.1,2.6h19.9c2.9,0,5.5-0.9,7.1-2.6c1.8-1.6,2.7-4.2,2.7-7.1V38.5c0-2.9-0.9-5.3-2.6-7.1
		C63.2,29.5,60.8,28.6,57.7,28.6z M47.6,60.8c-7,0-12.4-5.7-12.4-12.4c0-7,5.7-12.4,12.4-12.4c6.8,0,12.6,5.5,12.6,12.4
		S54.6,60.8,47.6,60.8z M60.6,38.3c-1.6,0-2.9-1.3-2.9-2.9s1.3-2.9,2.9-2.9c1.6,0,2.9,1.3,2.9,2.9S62.3,38.3,60.6,38.3z"/>
	<path id="XMLID_10_" d="M48,3C23.1,3,3,23.1,3,48s20.1,45,45,45c24.9,0,45-20.1,45-45C93.2,23.1,72.9,3,48,3z M72,58.6
		c0,4.2-1.5,7.9-4,10.4c-2.6,2.6-6.2,3.8-10.2,3.8H37.8c-4,0-7.7-1.3-10.2-3.8c-2.7-2.6-4-6.2-4-10.4V38.5c0-8.4,5.7-14.3,14.3-14.3
		h20.1c4.2,0,7.7,1.5,10.2,4s3.8,6,3.8,10.2V58.6z"/>
</g>
</svg>
