<?xml version="1.0" encoding="utf-8"?>
<!-- Generator: Adobe Illustrator 23.0.3, SVG Export Plug-In . SVG Version: 6.00 Build 0)  -->
<svg version="1.1" id="Layer_1" xmlns="http://www.w3.org/2000/svg" xmlns:xlink="http://www.w3.org/1999/xlink" x="0px" y="0px"
	 viewBox="0 0 250.9 420" style="enable-background:new 0 0 250.9 420;" xml:space="preserve">
<style type="text/css">
	.st0{fill-rule:evenodd;clip-rule:evenodd;}
</style>
<path class="st0" d="M208.5,410H42.1c-18.4,0-33.4-15-33.4-33.4V93.5V76.9V43.4C8.7,25,23.7,10,42.1,10h166.7
	c18.4,0,33.4,15,33.4,33.4v33.4v16.6v283.3C242,395,226.9,410,208.5,410z M125.3,393.4c9.3,0,16.6-7.5,16.6-16.6
	c0-9.3-7.5-16.6-16.6-16.6c-9.3,0-16.6,7.5-16.6,16.6C108.7,385.9,116,393.4,125.3,393.4z M150.2,26.6h-49.8c-4.7,0-8.3,3.6-8.3,8.3
	s3.6,8.3,8.3,8.3h50c4.7,0,8.3-3.6,8.3-8.3C158.8,30.5,154.9,26.6,150.2,26.6z M225.4,309.9V176.7V122V93.5V76.9
	c0-9.3-6.7-16.6-15.3-16.6h-15.3H72.4H57.1c-8.6,0-15.3,7.5-15.3,16.6v16.6v28.8v54.7v133.2v16.6c0,9.1,6.7,16.6,15.3,16.6h15.3
	h122.1h15.3c8.6,0,15.3-7.5,15.3-16.6v-16.9H225.4z"/>
</svg>
