<?xml version="1.0" encoding="utf-8"?>
<!-- Generator: Adobe Illustrator 22.1.0, SVG Export Plug-In . SVG Version: 6.00 Build 0)  -->
<svg version="1.1" id="Layer_1" xmlns="http://www.w3.org/2000/svg" xmlns:xlink="http://www.w3.org/1999/xlink" x="0px" y="0px"
	 viewBox="0 0 40 40" style="enable-background:new 0 0 40 40;" xml:space="preserve">
<path style="fill:#ED1C24;" d="M8.5,12.5l4.9,3.9c1.3-1.2,2-1.2,3.3,0l4.9-3.9L15,6.2L8.5,12.5z M24.7,6.9c0-0.2,0.2-0.4,0.4-0.4
	c0.3,0,0.5,0.2,0.5,0.4v0.9c0,0.3-0.2,0.5-0.5,0.5c-0.2,0-0.4-0.2-0.4-0.5V6.9z M24.7,9.3c0-0.2,0.2-0.5,0.4-0.5
	c0.3,0,0.5,0.2,0.5,0.5v8.8c0,0.2-0.2,0.4-0.5,0.4c-0.2,0-0.4-0.2-0.4-0.4V9.3z M11.3,22.1c-0.2,0-0.5-0.2-0.5-0.5
	c0-0.2,0.2-0.5,0.5-0.5h5.4c0.2,0,0.4,0.2,0.4,0.5c0,0.2-0.2,0.5-0.4,0.5H11.3z M17.9,22.1c-0.2,0-0.4-0.2-0.4-0.5
	c0-0.2,0.2-0.5,0.4-0.5h0.6c0.2,0,0.4,0.2,0.4,0.5c0,0.2-0.2,0.5-0.4,0.5H17.9z M5.7,2.5h18.7c0.9,0,1.6,0.4,2.2,0.9
	c0.6,0.6,0.9,1.4,0.9,2.2v18.7c0,0.9-0.4,1.7-0.9,2.2l0,0c-0.6,0.6-1.4,0.9-2.2,0.9H5.7c-0.9,0-1.7-0.4-2.2-0.9
	c-0.6-0.6-0.9-1.4-0.9-2.2V5.7c0-0.9,0.4-1.7,0.9-2.2C4,2.9,4.8,2.5,5.7,2.5L5.7,2.5z M24.3,3.4H5.7c-0.6,0-1.2,0.2-1.6,0.7
	c-0.4,0.4-0.7,1-0.7,1.6v18.7c0,0.6,0.2,1.2,0.7,1.6c0.4,0.4,1,0.7,1.6,0.7h18.7c0.6,0,1.1-0.2,1.5-0.6l0,0c0.4-0.4,0.7-1,0.7-1.6
	V5.7c0-0.6-0.2-1.2-0.7-1.6C25.5,3.7,24.9,3.4,24.3,3.4L24.3,3.4z M5.8,0h18.4c1.6,0,3,0.7,4.1,1.7v0c1.1,1,1.7,2.5,1.7,4.1v18.4
	c0,1.6-0.7,3-1.7,4.1h0c-1,1-2.5,1.7-4.1,1.7H5.8c-1.6,0-3-0.7-4.1-1.7l0,0c-1-1-1.7-2.5-1.7-4.1V5.8c0-1.6,0.7-3,1.7-4.1l0,0
	C2.8,0.7,4.2,0,5.8,0L5.8,0z M24.2,0.9H5.8c-1.3,0-2.6,0.6-3.5,1.4C1.5,3.2,0.9,4.5,0.9,5.8v18.4c0,1.3,0.6,2.6,1.4,3.5
	c0.9,0.9,2.1,1.4,3.5,1.4h18.4c1.3,0,2.6-0.5,3.5-1.4c0.9-0.9,1.4-2.1,1.4-3.5V5.8c0-1.3-0.6-2.6-1.4-3.5
	C26.8,1.5,25.5,0.9,24.2,0.9L24.2,0.9z M22.4,12.1c0.2,0.1,0.3,0.3,0.5,0.4c0.1,0.2,0.2,0.4,0.2,0.7v9.2c0,0.4-0.2,0.7-0.4,0.9
	c-0.2,0.2-0.6,0.4-0.9,0.4H8.3c-0.3,0-0.7-0.1-0.9-0.4l0,0c-0.2-0.2-0.4-0.6-0.4-0.9v-9.2c0-0.2,0.1-0.5,0.2-0.7
	c0.1-0.2,0.3-0.3,0.5-0.4C17,3,13,3,22.4,12.1L22.4,12.1z M7.9,13.1C7.9,13.2,7.8,13.2,7.9,13.1l0,8.9c2.3-2.2,3.8-3.9,4.8-5
	L7.9,13.1z M17.3,17c1.1,1.1,2.5,2.8,4.8,5v-8.8c0,0,0,0,0-0.1L17.3,17z M8.4,22.8h13.2L15,16.4L8.4,22.8z"/>
</svg>
