<?xml version="1.0" encoding="utf-8"?>
<!-- Generator: Adobe Illustrator 23.0.3, SVG Export Plug-In . SVG Version: 6.00 Build 0)  -->
<svg version="1.1" id="Layer_1" xmlns="http://www.w3.org/2000/svg" xmlns:xlink="http://www.w3.org/1999/xlink" x="0px" y="0px"
	 viewBox="0 0 88 71.1" style="enable-background:new 0 0 88 71.1;" xml:space="preserve">
<style type="text/css">
	.st0{fill-rule:evenodd;clip-rule:evenodd;}
</style>
<g>
	<g>
		<path class="st0" d="M69.2,8.5H18.8C12.8,8.5,8,13.4,8,19.3v32.4c0,6,4.8,10.8,10.8,10.8h50.4c6,0,10.8-4.8,10.8-10.8V19.3
			C80,13.4,75.2,8.5,69.2,8.5z M68,15.7L51.5,33L44,40.8L36.5,33L20,15.7H68z M15.2,50V21.2L29,35.6L15.2,50z M20.1,55.3L34,40.8
			l7.5,7.8c1.4,1.4,3.6,1.4,5,0l7.5-7.8l13.9,14.5H20.1z M72.8,50L59,35.6l13.8-14.4V50z"/>
	</g>
</g>
</svg>
