<svg id="Layer_1" data-name="Layer 1" xmlns="http://www.w3.org/2000/svg" viewBox="0 0 30 30"><defs><style>.cls-1{fill:#ed1c24;}</style></defs><title>icon-website</title><path class="cls-1" d="M5.8,0H24.18a5.81,5.81,0,0,1,4.11,1.71h0A5.8,5.8,0,0,1,30,5.8V24.2a5.77,5.77,0,0,1-1.71,4.09l0,0A5.75,5.75,0,0,1,24.18,30H5.8a5.75,5.75,0,0,1-4.09-1.69l0,0A5.83,5.83,0,0,1,0,24.2V5.8A5.77,5.77,0,0,1,1.71,1.71v0A5.78,5.78,0,0,1,5.8,0ZM21.35,20.58l-.05.06L21,21a8.5,8.5,0,0,1-6,2.5H15A8.56,8.56,0,0,1,9,21l0,0a3.18,3.18,0,0,1-.3-.33l0-.06A8.39,8.39,0,0,1,6.55,15v0h0v0A8.34,8.34,0,0,1,9,9L9,9A8.53,8.53,0,0,1,15,6.53h.1A8.49,8.49,0,0,1,23.45,15v0h0v0a8.39,8.39,0,0,1-2.1,5.55Zm-1.14-.12a9.36,9.36,0,0,0-1.81-.61,7.13,7.13,0,0,1-.36.87,6.37,6.37,0,0,1-1,1.54,7.56,7.56,0,0,0,3.15-1.8Zm-2.72-.79a14.53,14.53,0,0,0-2-.17v2.81a3.5,3.5,0,0,0,1.78-2,4.53,4.53,0,0,0,.27-.66Zm-2.95-.17a14.78,14.78,0,0,0-2,.17,4.51,4.51,0,0,0,.29.66,3.54,3.54,0,0,0,1.76,2Zm-3,.35a10.11,10.11,0,0,0-1.81.61,7.69,7.69,0,0,0,3.17,1.8,5.85,5.85,0,0,1-1-1.54,7.13,7.13,0,0,1-.36-.87Zm-2.45-.11A11.68,11.68,0,0,1,11.32,19a14.58,14.58,0,0,1-.5-3.53H7.47a7.48,7.48,0,0,0,1.66,4.29Zm3.08-.94a20.9,20.9,0,0,1,2.33-.23V15.45H11.73a14.15,14.15,0,0,0,.48,3.35Zm3.23-.23a20.84,20.84,0,0,1,2.34.23,14.15,14.15,0,0,0,.48-3.35H15.44Zm3.24.41a12.2,12.2,0,0,1,2.19.76,7.76,7.76,0,0,0,1.66-4.29H19.18a14.58,14.58,0,0,1-.5,3.53Zm2.46-8.35a10,10,0,0,1-2.31.87,15.2,15.2,0,0,1,.35,3.05h3.35a7.51,7.51,0,0,0-1.39-3.92Zm-3.2,1.07a16.41,16.41,0,0,1-2.5.25v2.6h2.83a15.59,15.59,0,0,0-.33-2.85Zm-3.4.25a16.27,16.27,0,0,1-2.49-.25,14.78,14.78,0,0,0-.32,2.85h2.81Zm-3.38-.45a10.3,10.3,0,0,1-2.32-.87,7.67,7.67,0,0,0-1.37,3.92h3.35a16,16,0,0,1,.34-3.05ZM9.43,9.92a10.64,10.64,0,0,0,2,.69,11.12,11.12,0,0,1,.55-1.48,6.55,6.55,0,0,1,.82-1.33A7.3,7.3,0,0,0,9.68,9.65l0,0a2.84,2.84,0,0,0-.23.25Zm2.85.89a19.62,19.62,0,0,0,2.26.23V7.53a3.54,3.54,0,0,0-1.76,2,7.64,7.64,0,0,0-.5,1.3Zm3.16.23a18.74,18.74,0,0,0,2.26-.23,7.63,7.63,0,0,0-.48-1.3,3.5,3.5,0,0,0-1.78-2Zm3.17-.43a11.19,11.19,0,0,0,2-.69,3,3,0,0,0-.25-.25,7.19,7.19,0,0,0-3.1-1.87A5.77,5.77,0,0,1,18,9.13a9.9,9.9,0,0,1,.57,1.48Zm6.28-3.72a.47.47,0,0,1,.47-.46.45.45,0,0,1,.44.46v.87a.46.46,0,0,1-.44.47.48.48,0,0,1-.47-.47Zm0,2.44a.47.47,0,0,1,.47-.45.45.45,0,0,1,.44.45v8.79a.46.46,0,0,1-.44.47.48.48,0,0,1-.47-.47ZM5.66,2.51H24.34a3.16,3.16,0,0,1,3.13,3.15v18.7a3.11,3.11,0,0,1-.92,2.2l0,0a3.16,3.16,0,0,1-2.19.89H5.66a3.15,3.15,0,0,1-2.23-.93,3.09,3.09,0,0,1-.9-2.2V5.66a3.1,3.1,0,0,1,.9-2.22,3.15,3.15,0,0,1,2.23-.93Zm18.68.93H5.66A2.22,2.22,0,0,0,3.43,5.66v18.7a2.22,2.22,0,0,0,2.23,2.2H24.34a2.25,2.25,0,0,0,1.55-.62l0,0a2.2,2.2,0,0,0,.66-1.56V5.66a2.21,2.21,0,0,0-.66-1.58,2.28,2.28,0,0,0-1.57-.64ZM24.18.91H5.8A4.92,4.92,0,0,0,.91,5.8V24.2a4.82,4.82,0,0,0,1.44,3.45A4.89,4.89,0,0,0,5.8,29.09H24.18a4.88,4.88,0,0,0,4.89-4.89V5.8A4.88,4.88,0,0,0,24.18.91Z"/></svg>