<?xml version="1.0" encoding="utf-8"?>
<!-- Generator: Adobe Illustrator 23.0.3, SVG Export Plug-In . SVG Version: 6.00 Build 0)  -->
<svg version="1.1" xmlns="http://www.w3.org/2000/svg" xmlns:xlink="http://www.w3.org/1999/xlink" x="0px" y="0px"
	 viewBox="0 0 100 100" style="enable-background:new 0 0 100 100;" xml:space="preserve">
<g id="Layer_4">
</g>
<g id="Layer_3">
</g>
<g id="Layer_5">
	<g>
		<path d="M65.6,47.5l29.3,29.3c0.1-0.2,0.1-0.5,0.1-0.8V23.9c0-0.5-0.2-1-0.5-1.4L65.6,47.5z"/>
		<g>
			<path d="M37.2,47l0.9,0.7L50,58l42.4-36.6c0,0-0.1,0-0.1,0H7.7c0,0-0.1,0-0.1,0L37.2,47L37.2,47z M40.8,27.7
				c2.8-2.6,6.3-3.9,10.5-3.9c3.6,0,6.6,1.1,8.9,3.2c2.3,2.2,3.5,4.9,3.5,8.3c0,2.8-1,5-3.1,6.7c-1.8,1.5-4,2.2-6.4,2.2l-0.3-1.9
				c-1.7,1.5-3.6,2.2-5.7,2.2c-1.5,0-2.8-0.4-3.9-1.3c-1.1-0.9-1.6-1.9-1.6-3.2c0-3.8,3.5-5.8,10.6-6c0-2.7-1.3-4-3.8-4
				c-1.4,0-2.7,0.4-3.8,1.1l-0.9-1.8c1.7-1,3.6-1.5,5.6-1.5c1.9,0,3.3,0.6,4.3,1.8c1,1.2,1.5,2.9,1.5,5v5.5c0,0.8,0,1.4,0.1,1.7h0.6
				c1.2-0.3,2.3-1.1,3.1-2.4c0.9-1.2,1.3-2.6,1.3-4c0-2.7-0.9-4.9-2.8-6.8c-1.8-1.8-4.3-2.7-7.4-2.7c-3.5,0-6.3,1.1-8.5,3.3
				c-2.2,2.2-3.3,4.9-3.3,8.2c0,2.9,1,5.3,2.9,7.1c1.9,1.9,4.3,2.8,7.2,2.8c2.2,0,4.3-0.6,6.5-1.7l1,2.1c-2.5,1.2-5,1.7-7.7,1.7
				c-3.5,0-6.4-1.1-8.8-3.4c-2.5-2.3-3.8-5.2-3.8-8.6C36.6,33.6,38,30.4,40.8,27.7z"/>
			<path d="M45.3,39.8c0,1.6,1,2.5,2.9,2.5c1.3,0,2.5-0.3,3.5-0.8c1.1-0.6,1.7-1.4,1.7-2.4V36C48,36.2,45.3,37.5,45.3,39.8z"/>
			<path d="M5.5,22.5C5.2,22.9,5,23.4,5,23.9v52.1c0,0.5,0.2,1,0.4,1.3l30.1-28.9L5.5,22.5z"/>
			<path d="M50,60.9L37.3,50L7.5,78.5c0.1,0,0.2,0,0.2,0h84.5c0.3,0,0.7-0.1,1-0.2L63.9,49L50,60.9z"/>
		</g>
	</g>
</g>
</svg>
