<svg id="Layer_1" data-name="Layer 1" xmlns="http://www.w3.org/2000/svg" viewBox="0 0 89.95 67.47"><defs><style>.cls-1{fill-rule:evenodd;}</style></defs><title>icon-gmail</title><path class="cls-1" d="M83.49,1.77h-63A13.49,13.49,0,0,0,7,15.26V55.75a13.49,13.49,0,0,0,13.5,13.49h63A13.49,13.49,0,0,0,97,55.75V15.26A13.49,13.49,0,0,0,83.49,1.77Zm-1.45,9L61.37,32.32,52,42.09l-9.36-9.77L22,10.77ZM16,53.56v-36l17.25,18Zm6.08,6.68L39.51,42.09l9.37,9.75a4.26,4.26,0,0,0,6.24,0l9.37-9.75L81.91,60.24ZM88,53.56l-17.25-18L88,17.59Z" transform="translate(-7.02 -1.77)"/></svg>