<?xml version="1.0" encoding="utf-8"?>
<!-- Generator: Adobe Illustrator 24.1.1, SVG Export Plug-In . SVG Version: 6.00 Build 0)  -->
<svg version="1.1" id="Layer_1" xmlns="http://www.w3.org/2000/svg" xmlns:xlink="http://www.w3.org/1999/xlink" x="0px" y="0px"
	 viewBox="0 0 399.9 400" style="enable-background:new 0 0 399.9 400;" xml:space="preserve">
<style type="text/css">
	.st0{fill:#565656;}
</style>
<g>
	<path class="st0" d="M398.6,117.4c-0.9-21.4-4.4-36-9.3-48.4c-5.1-13.4-13-25.5-23.1-35.6c-11.1-11.2-22.2-17.8-35.6-23.1
		c-12.9-4.9-27.1-8.4-48.4-9.3c-20.9-0.5-28-1-82.2-1s-61.3,0.4-82.7,1.3c-21.4,0.9-36,4.4-48.4,9.3c-13.4,5.1-25.5,13-35.6,23.1
		C22.1,44.8,15.6,56.1,10.2,69.4c-4.9,12.9-8.4,27.1-9.3,48.4C0.5,138.7,0,145.8,0,200c0,54.2,0.4,61.3,1.3,82.7
		c0.9,21.4,4.4,36,9.3,48.4c5.1,13.4,13,25.5,23.1,35.6c11.1,11.2,22.2,17.8,35.6,23.1c12.9,4.9,27.1,8.4,48.4,9.3
		c20.9,0.4,28,0.9,82.2,0.9c54.2,0,61.3-0.4,82.7-1.3c21.4-0.9,36-4.4,48.4-9.3c13.4-5.1,25.5-13,35.6-23.1
		c11.2-11.1,17.8-22.2,23.1-35.6c4.9-12.9,8.4-27.1,9.3-48.4c0.4-20.9,0.9-28,0.9-82.2S399.5,138.8,398.6,117.4z M363.1,281.4
		c-0.9,19.6-4,30.2-6.7,37.3c-3.2,8.7-8.4,16.6-15.1,23.1c-7.1,7.1-13.8,11.1-23.1,15.1c-7.1,2.7-17.8,5.8-37.3,6.7
		c-20.9,0.9-27.6,1.3-80.9,1.3s-59.6,0-80.9-1.3c-19.6-0.9-30.2-4-37.3-6.7c-8.7-3.2-16.6-8.4-23.1-15.1
		c-7.1-7.1-11.1-13.8-15.1-23.1c-2.7-7.1-5.8-17.8-6.7-37.3c-0.9-20.9-1.3-27.6-1.3-80.9s0-59.6,1.3-80.9c0.9-19.6,4-30.2,6.7-37.3
		c3.2-8.7,8.4-16.6,15.1-23.1c7.1-7.1,13.8-11.1,23.1-15.1c7.1-2.7,17.8-5.8,37.3-6.7c21.3-0.9,27.6-1.3,80.9-1.3s59.6,0,80.9,1.3
		c19.6,0.9,30.2,4,37.3,6.7c8.7,3.2,16.6,8.4,23.1,15.1c7.1,7.1,11.1,13.8,15.1,23.1c2.7,7.1,5.8,17.8,6.7,37.3
		c0.9,20.9,1.3,27.6,1.3,80.9S364.4,260.1,363.1,281.4z"/>
	<path class="st0" d="M200.2,77.9c-0.1,0-0.1,0-0.2,0c-67.5,0-122.2,54.7-122.2,122.2S132.5,322.3,200,322.3s122.2-54.7,122.2-122.2
		C322.2,132.7,267.6,77.9,200.2,77.9z M200.1,279.7c0,0-0.1,0-0.1,0c-44,0-79.6-35.6-79.6-79.6c0-44,35.6-79.6,79.6-79.6
		s79.6,35.6,79.6,79.6C279.6,244,244,279.7,200.1,279.7z"/>
	<circle class="st0" cx="306.7" cy="84.5" r="22.2"/>
</g>
</svg>
