<?xml version="1.0" encoding="utf-8"?>
<!-- Generator: Adobe Illustrator 23.0.3, SVG Export Plug-In . SVG Version: 6.00 Build 0)  -->
<svg version="1.1" id="Layer_1" xmlns="http://www.w3.org/2000/svg" xmlns:xlink="http://www.w3.org/1999/xlink" x="0px" y="0px"
	 viewBox="0 0 40 71.1" style="enable-background:new 0 0 40 71.1;" xml:space="preserve">
<style type="text/css">
	.st0{fill-rule:evenodd;clip-rule:evenodd;}
</style>
<g>
	<g>
		<path class="st0" d="M34,20.6H6c-3.3,0-6,2.7-6,6v18c0,3.3,2.7,6,6,6h28c3.3,0,6-2.7,6-6v-18C40,23.2,37.3,20.6,34,20.6z
			 M33.4,24.5l-9.2,9.6L20,38.5l-4.2-4.3l-9.2-9.6H33.4z M4,43.6v-16l7.7,8L4,43.6z M6.7,46.5l7.7-8.1l4.2,4.3c0.8,0.8,2,0.8,2.8,0
			l4.2-4.3l7.7,8.1H6.7z M36,43.6l-7.7-8l7.7-8V43.6z"/>
	</g>
</g>
</svg>
