<svg id="Layer_1" data-name="Layer 1" xmlns="http://www.w3.org/2000/svg" viewBox="0 0 39.54 67.79"><defs><style>.cls-1{fill-rule:evenodd;}</style></defs><title>icon-cell phone</title><path class="cls-1" d="M66.12,69.47H37.88a5.65,5.65,0,0,1-5.65-5.65V7.33a5.65,5.65,0,0,1,5.65-5.65H66.12a5.65,5.65,0,0,1,5.65,5.65V63.82A5.65,5.65,0,0,1,66.12,69.47ZM52,66.64a2.82,2.82,0,1,0-2.82-2.82A2.82,2.82,0,0,0,52,66.64ZM56.24,4.5H47.76a1.42,1.42,0,0,0,0,2.83h8.48a1.42,1.42,0,0,0,0-2.83ZM69,52.52V13a2.83,2.83,0,0,0-2.83-2.83H37.88A2.83,2.83,0,0,0,35.05,13V55.35a2.83,2.83,0,0,0,2.83,2.82H66.12A2.83,2.83,0,0,0,69,55.35Z" transform="translate(-32.23 -1.68)"/></svg>