<svg id="Layer_1" data-name="Layer 1" xmlns="http://www.w3.org/2000/svg" viewBox="0 0 291.05096 400.0525"><defs><style>.cls-1{fill:#565656;fill-rule:evenodd;}</style></defs><path class="cls-1" d="M271.6,218.4h0L179.8,377.5l-.6.3a36.04343,36.04343,0,0,1-33.6,22.3A36.71456,36.71456,0,0,1,112,377.8l-.6-.3-92-159.1C-20.6,148.9,3.3,60,72.8,19.5,142.3-20.6,231.6,3.3,271.6,72.8,298.5,119.4,296.6,174.7,271.6,218.4ZM145.6,91a54.6,54.6,0,1,0,54.6,54.6A54.54217,54.54217,0,0,0,145.6,91Z" transform="translate(-0.01806 -0.04832)"/></svg>