<?xml version="1.0" encoding="utf-8"?>
<!-- Generator: Adobe Illustrator 23.0.3, SVG Export Plug-In . SVG Version: 6.00 Build 0)  -->
<svg version="1.1" id="Layer_1" xmlns="http://www.w3.org/2000/svg" xmlns:xlink="http://www.w3.org/1999/xlink" x="0px" y="0px"
	 viewBox="0 0 104 71.1" style="enable-background:new 0 0 104 71.1;" xml:space="preserve">
<style type="text/css">
	.st0{fill-rule:evenodd;clip-rule:evenodd;}
</style>
<g>
	<g>
		<path class="st0" d="M83.5,1.8h-63C13.1,1.8,7,7.8,7,15.3v40.5c0,7.4,6,13.5,13.5,13.5h63c7.5,0,13.5-6,13.5-13.5V15.3
			C97,7.8,90.9,1.8,83.5,1.8z M82,10.8L61.4,32.3L52,42.1l-9.4-9.8L22,10.8H82z M16,53.6v-36l17.2,18L16,53.6z M22.1,60.2l17.4-18.2
			l9.4,9.8c1.7,1.8,4.5,1.8,6.2,0l9.4-9.8l17.4,18.2H22.1z M88,53.6l-17.3-18l17.3-18V53.6z"/>
	</g>
</g>
</svg>
