<?xml version="1.0" encoding="utf-8"?>
<!-- Generator: Adobe Illustrator 23.0.3, SVG Export Plug-In . SVG Version: 6.00 Build 0)  -->
<svg version="1.1" id="Layer_1" xmlns="http://www.w3.org/2000/svg" xmlns:xlink="http://www.w3.org/1999/xlink" x="0px" y="0px"
	 viewBox="0 0 96 96" style="enable-background:new 0 0 96 96;" xml:space="preserve">
<g>
	<path d="M48,11.1c12,0,13.4,0,18.2,0.3c4.4,0.2,6.8,0.9,8.4,1.5c2.1,0.8,3.6,1.8,5.2,3.4c1.6,1.6,2.5,3.1,3.4,5.2
		c0.6,1.6,1.3,4,1.5,8.4c0.2,4.7,0.3,6.2,0.3,18.2s0,13.4-0.3,18.2c-0.2,4.4-0.9,6.8-1.5,8.4c-0.8,2.1-1.8,3.6-3.4,5.2
		c-1.6,1.6-3.1,2.5-5.2,3.4c-1.6,0.6-4,1.3-8.4,1.5c-4.7,0.2-6.2,0.3-18.2,0.3c-12,0-13.4,0-18.2-0.3c-4.4-0.2-6.8-0.9-8.4-1.5
		c-2.1-0.8-3.6-1.8-5.2-3.4c-1.6-1.6-2.5-3.1-3.4-5.2c-0.6-1.6-1.3-4-1.5-8.4c-0.2-4.7-0.3-6.2-0.3-18.2s0-13.4,0.3-18.2
		c0.2-4.4,0.9-6.8,1.5-8.4c0.8-2.1,1.8-3.6,3.4-5.2c1.6-1.6,3.1-2.5,5.2-3.4c1.6-0.6,4-1.3,8.4-1.5C34.6,11.2,36,11.1,48,11.1 M48,3
		C35.8,3,34.2,3.1,29.4,3.3c-4.8,0.2-8.1,1-10.9,2.1c-3,1.2-5.5,2.7-8,5.2s-4,5-5.2,8c-1.1,2.9-1.9,6.1-2.1,10.9
		C3.1,34.2,3,35.8,3,48s0.1,13.8,0.3,18.6c0.2,4.8,1,8.1,2.1,10.9c1.2,3,2.7,5.5,5.2,8c2.5,2.5,5,4,8,5.2c2.9,1.1,6.1,1.9,10.9,2.1
		C34.2,92.9,35.8,93,48,93c12.2,0,13.8-0.1,18.6-0.3c4.8-0.2,8.1-1,10.9-2.1c3-1.2,5.5-2.7,8-5.2c2.5-2.5,4-5,5.2-8
		c1.1-2.9,1.9-6.1,2.1-10.9C92.9,61.8,93,60.2,93,48s-0.1-13.8-0.3-18.6c-0.2-4.8-1-8.1-2.1-10.9c-1.2-3-2.7-5.5-5.2-8s-5-4-8-5.2
		c-2.9-1.1-6.1-1.9-10.9-2.1C61.8,3.1,60.2,3,48,3L48,3z"/>
	<path d="M48,20.5c-15.2,0-27.5,12.3-27.5,27.5S32.8,75.5,48,75.5c15.2,0,27.5-12.3,27.5-27.5S63.2,20.5,48,20.5z M48,65.9
		c-9.9,0-17.9-8-17.9-17.9s8-17.9,17.9-17.9c9.9,0,17.9,8,17.9,17.9S57.9,65.9,48,65.9z"/>
	<circle cx="72" cy="22" r="5"/>
</g>
</svg>
