<?xml version="1.0" encoding="utf-8"?>
<!-- Generator: Adobe Illustrator 23.0.3, SVG Export Plug-In . SVG Version: 6.00 Build 0)  -->
<svg version="1.1" id="Layer_1" xmlns="http://www.w3.org/2000/svg" xmlns:xlink="http://www.w3.org/1999/xlink" x="0px" y="0px"
	 viewBox="0 0 308.3 415" style="enable-background:new 0 0 308.3 415;" xml:space="preserve">
<style type="text/css">
	.st0{fill-rule:evenodd;clip-rule:evenodd;}
</style>
<path class="st0" d="M280.3,225.8L280.3,225.8l-91.8,159.1l-0.6,0.3c-5.5,13.3-18.4,22.3-33.6,22.3s-28.1-9.4-33.6-22.3l-0.6-0.3
	L28.1,225.8C-12,156.3,11.9,67.4,81.4,26.9c69.5-40.1,158.8-16.2,198.8,53.3C307.1,126.8,305.2,182.1,280.3,225.8z M154.2,98.4
	c-30.1,0-54.6,24.6-54.6,54.6s24.6,54.6,54.6,54.6s54.6-24.6,54.6-54.6S184.2,98.4,154.2,98.4z"/>
</svg>
