<?xml version="1.0" encoding="utf-8"?>
<!-- Generator: Adobe Illustrator 22.1.0, SVG Export Plug-In . SVG Version: 6.00 Build 0)  -->
<svg version="1.1" id="Layer_1" xmlns="http://www.w3.org/2000/svg" xmlns:xlink="http://www.w3.org/1999/xlink" x="0px" y="0px"
	 viewBox="0 0 30 30" style="enable-background:new 0 0 30 30;" xml:space="preserve">
<path style="fill:#ED1C24;" d="M5.8,0h18.4c1.6,0,3.1,0.7,4.1,1.7l0,0c1.1,1,1.7,2.5,1.7,4.1v18.4c0,1.6-0.7,3-1.7,4.1l0,0
	c-1.1,1-2.5,1.7-4.1,1.7H5.8c-1.6,0-3-0.6-4.1-1.7l0,0c-1-1-1.7-2.5-1.7-4.1V5.8c0-1.6,0.7-3,1.7-4.1v0C2.8,0.6,4.2,0,5.8,0L5.8,0z
	 M21.4,20.6C21.3,20.6,21.3,20.6,21.4,20.6c-0.2,0.2-0.3,0.3-0.4,0.4c-1.5,1.5-3.6,2.5-6,2.5h0l0,0h0h0c-2.3,0-4.4-1-5.9-2.5l0,0
	c-0.1-0.1-0.2-0.2-0.3-0.3c0,0,0,0-0.1-0.1c-1.3-1.5-2.1-3.4-2.1-5.6v0l0,0v0v0c0-2.3,0.9-4.4,2.5-5.9l0,0c1.5-1.5,3.6-2.4,5.9-2.5
	h0h0h0l0,0h0h0c2.3,0,4.4,1,5.9,2.5c1.5,1.5,2.5,3.6,2.5,5.9v0v0l0,0v0C23.5,17.2,22.7,19.1,21.4,20.6L21.4,20.6z M20.2,20.5
	c-0.5-0.2-1.1-0.4-1.8-0.6c-0.1,0.3-0.2,0.6-0.4,0.9c-0.3,0.6-0.6,1.1-1,1.5C18.3,21.9,19.3,21.3,20.2,20.5L20.2,20.5z M17.5,19.7
	c-0.6-0.1-1.3-0.2-2-0.2v2.8c0.7-0.2,1.3-0.9,1.8-2C17.3,20.1,17.4,19.9,17.5,19.7L17.5,19.7z M14.5,19.5c-0.7,0-1.4,0.1-2,0.2
	c0.1,0.2,0.2,0.5,0.3,0.7c0.5,1,1.1,1.8,1.8,2V19.5z M11.6,19.8c-0.7,0.2-1.3,0.4-1.8,0.6c0.9,0.8,2,1.5,3.2,1.8
	c-0.4-0.4-0.7-0.9-1-1.5C11.8,20.5,11.7,20.2,11.6,19.8L11.6,19.8z M9.1,19.7c0.6-0.3,1.4-0.6,2.2-0.8c-0.3-1-0.5-2.2-0.5-3.5H7.5
	C7.6,17.1,8.2,18.5,9.1,19.7L9.1,19.7z M12.2,18.8c0.7-0.1,1.5-0.2,2.3-0.2v-3.1h-2.8C11.8,16.7,11.9,17.8,12.2,18.8L12.2,18.8z
	 M15.4,18.6c0.8,0,1.6,0.1,2.3,0.2c0.3-1,0.4-2.1,0.5-3.3h-2.8V18.6z M18.7,19c0.8,0.2,1.5,0.5,2.2,0.8c0.9-1.2,1.5-2.7,1.7-4.3
	h-3.3C19.1,16.7,19,17.9,18.7,19L18.7,19z M21.1,10.6c-0.6,0.4-1.4,0.6-2.3,0.9c0.2,0.9,0.3,2,0.4,3h3.3
	C22.4,13.1,21.9,11.8,21.1,10.6L21.1,10.6z M17.9,11.7c-0.8,0.1-1.6,0.2-2.5,0.2v2.6h2.8C18.2,13.5,18.1,12.6,17.9,11.7L17.9,11.7z
	 M14.5,11.9c-0.9,0-1.7-0.1-2.5-0.2c-0.2,0.9-0.3,1.8-0.3,2.8h2.8V11.9z M11.2,11.5c-0.9-0.2-1.7-0.5-2.3-0.9
	c-0.8,1.1-1.3,2.5-1.4,3.9h3.3C10.8,13.5,11,12.4,11.2,11.5L11.2,11.5z M9.4,9.9c0.6,0.3,1.2,0.5,2,0.7c0.2-0.5,0.3-1,0.6-1.5
	c0.2-0.5,0.5-1,0.8-1.3c-1.2,0.4-2.2,1-3.1,1.9l0,0C9.6,9.7,9.5,9.8,9.4,9.9L9.4,9.9z M12.3,10.8c0.7,0.1,1.5,0.2,2.3,0.2V7.5
	c-0.7,0.2-1.3,0.9-1.8,2C12.6,9.9,12.4,10.3,12.3,10.8L12.3,10.8z M15.4,11c0.8,0,1.6-0.1,2.3-0.2c-0.1-0.5-0.3-0.9-0.5-1.3
	c-0.5-1-1.1-1.7-1.8-2V11z M18.6,10.6c0.7-0.2,1.4-0.4,2-0.7c-0.1-0.1-0.2-0.2-0.2-0.2c-0.9-0.9-1.9-1.5-3.1-1.9
	c0.3,0.4,0.6,0.8,0.8,1.3C18.3,9.6,18.5,10.1,18.6,10.6L18.6,10.6z M24.9,6.9c0-0.2,0.2-0.5,0.5-0.5c0.2,0,0.4,0.2,0.4,0.5v0.9
	c0,0.2-0.2,0.5-0.4,0.5c-0.2,0-0.5-0.2-0.5-0.5V6.9z M24.9,9.3c0-0.2,0.2-0.4,0.5-0.4c0.2,0,0.4,0.2,0.4,0.4v8.8
	c0,0.2-0.2,0.5-0.4,0.5c-0.2,0-0.5-0.2-0.5-0.5V9.3z M5.7,2.5h18.7c0.9,0,1.6,0.4,2.2,0.9c0.6,0.6,0.9,1.4,0.9,2.2v18.7
	c0,0.9-0.4,1.6-0.9,2.2l0,0c-0.6,0.6-1.4,0.9-2.2,0.9H5.7c-0.9,0-1.7-0.4-2.2-0.9c-0.6-0.6-0.9-1.4-0.9-2.2V5.7
	c0-0.9,0.3-1.7,0.9-2.2C4,2.9,4.8,2.5,5.7,2.5L5.7,2.5z M24.3,3.4H5.7C5,3.4,4.5,3.7,4.1,4.1C3.7,4.5,3.4,5,3.4,5.7v18.7
	c0,0.6,0.2,1.2,0.7,1.6c0.4,0.4,0.9,0.6,1.6,0.6h18.7c0.6,0,1.1-0.2,1.5-0.6l0,0c0.4-0.4,0.7-1,0.7-1.6V5.7c0-0.6-0.2-1.2-0.7-1.6
	C25.5,3.7,24.9,3.4,24.3,3.4L24.3,3.4z M24.2,0.9H5.8c-1.3,0-2.6,0.6-3.5,1.4C1.5,3.2,0.9,4.5,0.9,5.8v18.4c0,1.4,0.6,2.6,1.4,3.5
	c0.9,0.9,2.1,1.4,3.5,1.4h18.4c1.4,0,2.6-0.6,3.5-1.4c0.9-0.9,1.4-2.1,1.4-3.5V5.8c0-1.4-0.6-2.6-1.4-3.5
	C26.8,1.5,25.5,0.9,24.2,0.9L24.2,0.9z"/>
</svg>
