<?xml version="1.0" encoding="utf-8"?>
<!-- Generator: Adobe Illustrator 22.1.0, SVG Export Plug-In . SVG Version: 6.00 Build 0)  -->
<svg version="1.1" id="Layer_1" xmlns="http://www.w3.org/2000/svg" xmlns:xlink="http://www.w3.org/1999/xlink" x="0px" y="0px"
	 viewBox="0 0 1024 768" style="enable-background:new 0 0 1024 768;" xml:space="preserve">
<path d="M512.98,391.81c0.75,0.55,1.44,0.77,2.05,0.75c0.45,0,0.84-0.12,1.16-0.32c0.34-0.18,0.62-0.45,0.82-0.73
	c0.23-0.32,0.37-0.66,0.39-0.94c-0.18-0.41-1.02-2.23-2.85-3.42c-0.09-0.04-0.43-0.07-1.19,0.64c-0.14,0.12-0.36,0.16-0.52,0.07
	c-1.1-0.52-2.03-1.6-2.6-2.83v-0.02c-0.57-1.25-0.78-2.64-0.46-3.81c0.05-0.18,0.21-0.32,0.39-0.34c1.05-0.11,1.23-0.41,1.26-0.5
	c0.28-2.14-0.53-3.97-0.75-4.38c-0.23-0.18-0.57-0.28-0.96-0.32c-0.36-0.02-0.73,0.02-1.1,0.14c-0.36,0.14-0.69,0.36-0.98,0.68
	c-0.41,0.46-0.69,1.12-0.77,2.07c-0.2,2.56,0.3,5.11,1.35,7.41C509.28,388.25,510.9,390.28,512.98,391.81L512.98,391.81z
	 M521.61,376c0-0.27,0.21-0.46,0.46-0.46s0.46,0.2,0.46,0.46v0.87c0,0.25-0.21,0.44-0.46,0.44s-0.46-0.2-0.46-0.44V376z
	 M521.61,378.44c0-0.25,0.21-0.46,0.46-0.46s0.46,0.21,0.46,0.46v8.8c0,0.25-0.21,0.46-0.46,0.46s-0.46-0.21-0.46-0.46V378.44z
	 M502.76,371.62h18.69c0.87,0,1.66,0.36,2.23,0.93c0.57,0.57,0.93,1.35,0.93,2.21v18.69c0,0.87-0.36,1.66-0.93,2.23l-0.04,0.02
	c-0.57,0.55-1.34,0.91-2.19,0.91h-18.69c-0.85,0-1.64-0.36-2.21-0.93c-0.57-0.57-0.93-1.35-0.93-2.23v-18.69
	c0-0.85,0.36-1.64,0.93-2.21C501.12,371.97,501.91,371.62,502.76,371.62L502.76,371.62z M521.45,372.54h-18.69
	c-0.61,0-1.16,0.25-1.57,0.64c-0.39,0.41-0.64,0.96-0.64,1.57v18.69c0,0.62,0.25,1.18,0.64,1.57c0.41,0.41,0.96,0.66,1.57,0.66
	h18.69c0.61,0,1.16-0.23,1.55-0.62l0.02-0.04c0.41-0.39,0.66-0.94,0.66-1.57v-18.69c0-0.61-0.25-1.16-0.66-1.57
	C522.63,372.79,522.08,372.54,521.45,372.54L521.45,372.54z M502.92,369.11h18.39c1.6,0,3.04,0.64,4.09,1.69l0.02,0.02
	c1.05,1.05,1.69,2.49,1.69,4.09v18.39c0,1.6-0.66,3.04-1.71,4.09v0.02c-1.05,1.05-2.51,1.69-4.09,1.69h-18.39
	c-1.6,0-3.04-0.66-4.11-1.71l0,0c-1.05-1.05-1.69-2.51-1.69-4.09v-18.39c0-1.6,0.64-3.04,1.69-4.11h0.02
	C499.88,369.75,501.32,369.11,502.92,369.11L502.92,369.11z M521.31,370.02h-18.39c-1.35,0-2.58,0.55-3.45,1.44
	c-0.89,0.87-1.44,2.1-1.44,3.45v18.39c0,1.35,0.55,2.56,1.44,3.45c0.87,0.89,2.1,1.44,3.45,1.44h18.39c1.35,0,2.56-0.55,3.45-1.44
	c0.89-0.89,1.44-2.1,1.44-3.45v-18.39c0-1.35-0.55-2.58-1.44-3.45C523.88,370.57,522.66,370.02,521.31,370.02L521.31,370.02z
	 M515.04,393.46c-0.78,0.02-1.67-0.25-2.62-0.93c-2.19-1.62-3.92-3.77-5.04-6.21c-1.12-2.42-1.64-5.15-1.42-7.85
	c0.09-1.16,0.46-1.99,0.98-2.6c0.41-0.45,0.87-0.75,1.37-0.93c0.5-0.18,1-0.23,1.46-0.2c0.64,0.05,1.21,0.27,1.57,0.59
	c0.05,0.05,0.09,0.09,0.11,0.14c0.02,0.02,1.25,2.26,0.89,5l-0.02,0.07c0,0-0.12,0.89-1.73,1.18c-0.16,0.89,0.04,1.94,0.46,2.88
	l0.02,0.02c0.43,0.96,1.1,1.8,1.91,2.26c1.18-0.96,1.91-0.61,1.99-0.55l0.05,0.04c2.33,1.5,3.24,3.92,3.26,3.93
	c0.02,0.05,0.02,0.11,0.02,0.16c0.02,0.5-0.2,1.07-0.55,1.57c-0.28,0.39-0.66,0.73-1.12,1
	C516.18,393.29,515.63,393.46,515.04,393.46L515.04,393.46z"/>
</svg>
