<?xml version="1.0" encoding="utf-8"?>
<!-- Generator: Adobe Illustrator 22.1.0, SVG Export Plug-In . SVG Version: 6.00 Build 0)  -->
<svg version="1.1" id="Layer_1" xmlns="http://www.w3.org/2000/svg" xmlns:xlink="http://www.w3.org/1999/xlink" x="0px" y="0px"
	 viewBox="0 0 30 30" style="enable-background:new 0 0 30 30;" xml:space="preserve">
<g>
	<g>
		<path style="fill:#ED1C24;" d="M15,15.5c-2,0-3.6-1.6-3.6-3.6c0-2,1.6-3.6,3.6-3.6c2,0,3.6,1.6,3.6,3.6C18.6,13.9,17,15.5,15,15.5
			z M15,8.9c-1.7,0-3.1,1.4-3.1,3.1c0,1.7,1.4,3.1,3.1,3.1c1.7,0,3.1-1.4,3.1-3.1C18.1,10.2,16.7,8.9,15,8.9z"/>
		<path style="fill:#ED1C24;" d="M15,24.3C15,24.3,15,24.3,15,24.3c-1,0-3.5-4.6-3.6-4.8c-0.8-1.5-2.7-5.2-2.7-7.5
			c0-3.4,2.8-6.2,6.2-6.3c3.4,0,6.3,2.8,6.3,6.3c0,2.3-1.9,6-2.7,7.5C18.5,19.7,16,24.3,15,24.3z M15,6.2c-3.2,0-5.8,2.6-5.8,5.8
			c0,3.7,4.9,11.6,5.8,11.9c0.8-0.2,5.8-8.2,5.8-11.9C20.8,8.8,18.2,6.2,15,6.2z"/>
	</g>
	<path style="fill-rule:evenodd;clip-rule:evenodd;fill:#ED1C24;" d="M24.8,6.9c0-0.2,0.2-0.5,0.5-0.5c0.2,0,0.5,0.2,0.5,0.5v0.9
		c0,0.2-0.2,0.5-0.5,0.5c-0.2,0-0.5-0.2-0.5-0.5V6.9z M24.8,9.3c0-0.2,0.2-0.4,0.5-0.4c0.2,0,0.5,0.2,0.5,0.4v8.8
		c0,0.3-0.2,0.5-0.5,0.5c-0.2,0-0.5-0.2-0.5-0.5V9.3z M5.7,2.5h18.7c0.9,0,1.6,0.3,2.2,0.9c0.6,0.6,0.9,1.4,0.9,2.2v18.7
		c0,0.9-0.4,1.6-0.9,2.2l0,0c-0.6,0.6-1.3,0.9-2.2,0.9H5.7c-0.9,0-1.7-0.4-2.2-0.9c-0.6-0.6-0.9-1.4-0.9-2.2V5.7
		c0-0.9,0.4-1.7,0.9-2.2C4,2.9,4.8,2.5,5.7,2.5L5.7,2.5z M24.3,3.4H5.7c-0.6,0-1.2,0.2-1.6,0.7C3.7,4.5,3.4,5,3.4,5.7v18.7
		c0,0.6,0.2,1.2,0.7,1.6c0.4,0.4,1,0.7,1.6,0.7h18.7c0.6,0,1.1-0.2,1.5-0.6l0,0c0.4-0.4,0.7-1,0.7-1.6V5.7c0-0.6-0.2-1.2-0.7-1.6
		C25.5,3.7,24.9,3.4,24.3,3.4L24.3,3.4z M5.8,0h18.4c1.6,0,3,0.7,4.1,1.7l0,0C29.3,2.8,30,4.2,30,5.8v18.4c0,1.6-0.7,3.1-1.7,4.1h0
		c-1.1,1.1-2.5,1.7-4.1,1.7H5.8c-1.6,0-3-0.6-4.1-1.7l0,0c-1-1.1-1.7-2.5-1.7-4.1V5.8c0-1.6,0.7-3,1.7-4.1v0C2.8,0.7,4.2,0,5.8,0
		L5.8,0z M24.2,0.9H5.8c-1.3,0-2.6,0.6-3.5,1.4C1.5,3.2,0.9,4.5,0.9,5.8v18.4c0,1.4,0.5,2.6,1.4,3.5c0.9,0.9,2.1,1.4,3.5,1.4h18.4
		c1.3,0,2.6-0.6,3.5-1.4c0.9-0.9,1.4-2.1,1.4-3.5V5.8c0-1.3-0.6-2.6-1.4-3.5C26.8,1.5,25.5,0.9,24.2,0.9L24.2,0.9z"/>
</g>
</svg>
