<?xml version="1.0" encoding="utf-8"?>
<!-- Generator: Adobe Illustrator 22.1.0, SVG Export Plug-In . SVG Version: 6.00 Build 0)  -->
<svg version="1.1" id="Layer_1" xmlns="http://www.w3.org/2000/svg" xmlns:xlink="http://www.w3.org/1999/xlink" x="0px" y="0px"
	 viewBox="0 0 25 25" style="enable-background:new 0 0 25 25;" xml:space="preserve">
<path d="M13.2,18.9c0.6,0.5,1.2,0.6,1.7,0.6c0.4,0,0.7-0.1,1-0.3c0.3-0.1,0.5-0.4,0.7-0.6c0.2-0.3,0.3-0.5,0.3-0.8
	c-0.1-0.3-0.8-1.9-2.4-2.8c-0.1,0-0.4-0.1-1,0.5c-0.1,0.1-0.3,0.1-0.4,0.1c-0.9-0.4-1.7-1.3-2.2-2.4v0c-0.5-1-0.7-2.2-0.4-3.2
	c0-0.1,0.2-0.3,0.3-0.3c0.9-0.1,1-0.3,1.1-0.4c0.2-1.8-0.4-3.3-0.6-3.7c-0.2-0.1-0.5-0.2-0.8-0.3c-0.3,0-0.6,0-0.9,0.1
	C9.3,5.7,9,5.9,8.8,6.1C8.4,6.5,8.2,7.1,8.1,7.9C8,10,8.4,12.1,9.3,14C10.1,15.9,11.5,17.6,13.2,18.9L13.2,18.9z M20.4,5.7
	c0-0.2,0.2-0.4,0.4-0.4s0.4,0.2,0.4,0.4v0.7c0,0.2-0.2,0.4-0.4,0.4s-0.4-0.2-0.4-0.4V5.7z M20.4,7.8c0-0.2,0.2-0.4,0.4-0.4
	s0.4,0.2,0.4,0.4v7.3c0,0.2-0.2,0.4-0.4,0.4s-0.4-0.2-0.4-0.4V7.8z M4.7,2.1h15.6c0.7,0,1.4,0.3,1.9,0.8c0.5,0.5,0.8,1.1,0.8,1.8
	v15.6c0,0.7-0.3,1.4-0.8,1.9l0,0c-0.5,0.5-1.1,0.8-1.8,0.8H4.7c-0.7,0-1.4-0.3-1.8-0.8c-0.5-0.5-0.8-1.1-0.8-1.9V4.7
	c0-0.7,0.3-1.4,0.8-1.8C3.3,2.4,4,2.1,4.7,2.1L4.7,2.1z M20.3,2.9H4.7c-0.5,0-1,0.2-1.3,0.5C3.1,3.7,2.9,4.2,2.9,4.7v15.6
	c0,0.5,0.2,1,0.5,1.3c0.3,0.3,0.8,0.5,1.3,0.5h15.6c0.5,0,1-0.2,1.3-0.5l0,0c0.3-0.3,0.5-0.8,0.5-1.3V4.7c0-0.5-0.2-1-0.5-1.3
	C21.3,3.1,20.8,2.9,20.3,2.9L20.3,2.9z M4.8,0h15.3c1.3,0,2.5,0.5,3.4,1.4l0,0C24.5,2.3,25,3.5,25,4.8v15.3c0,1.3-0.5,2.5-1.4,3.4v0
	c-0.9,0.9-2.1,1.4-3.4,1.4H4.8c-1.3,0-2.5-0.5-3.4-1.4l0,0C0.5,22.7,0,21.5,0,20.2V4.8c0-1.3,0.5-2.5,1.4-3.4h0C2.3,0.5,3.5,0,4.8,0
	L4.8,0z M20.2,0.8H4.8C3.7,0.8,2.7,1.2,2,2C1.2,2.7,0.8,3.7,0.8,4.8v15.3c0,1.1,0.5,2.1,1.2,2.9c0.7,0.7,1.8,1.2,2.9,1.2h15.3
	c1.1,0,2.1-0.5,2.9-1.2c0.7-0.7,1.2-1.8,1.2-2.9V4.8c0-1.1-0.5-2.2-1.2-2.9C22.3,1.2,21.3,0.8,20.2,0.8L20.2,0.8z M14.9,20.3
	c-0.7,0-1.4-0.2-2.2-0.8c-1.8-1.4-3.3-3.1-4.2-5.2c-0.9-2-1.4-4.3-1.2-6.5c0.1-1,0.4-1.7,0.8-2.2C8.5,5.3,8.9,5,9.3,4.9
	c0.4-0.1,0.8-0.2,1.2-0.2c0.5,0,1,0.2,1.3,0.5c0,0,0.1,0.1,0.1,0.1c0,0,1,1.9,0.7,4.2l0,0.1c0,0-0.1,0.7-1.4,1
	c-0.1,0.7,0,1.6,0.4,2.4l0,0c0.4,0.8,0.9,1.5,1.6,1.9c1-0.8,1.6-0.5,1.7-0.5l0,0c1.9,1.2,2.7,3.3,2.7,3.3c0,0,0,0.1,0,0.1
	c0,0.4-0.2,0.9-0.5,1.3c-0.2,0.3-0.5,0.6-0.9,0.8C15.9,20.1,15.4,20.3,14.9,20.3L14.9,20.3z"/>
</svg>
