<?xml version="1.0" encoding="utf-8"?>
<!-- Generator: Adobe Illustrator 23.0.3, SVG Export Plug-In . SVG Version: 6.00 Build 0)  -->
<svg version="1.1" id="Layer_1" xmlns="http://www.w3.org/2000/svg" xmlns:xlink="http://www.w3.org/1999/xlink" x="0px" y="0px"
	 viewBox="0 0 104 174.1" style="enable-background:new 0 0 104 174.1;" xml:space="preserve">
<style type="text/css">
	.st0{fill-rule:evenodd;clip-rule:evenodd;}
</style>
<path class="st0" d="M84.1,164.2H19.9c-7.1,0-12.9-5.8-12.9-12.9V42.1v-6.4V22.8c0-7.1,5.8-12.9,12.9-12.9h64.3
	c7.1,0,12.9,5.8,12.9,12.9v12.9v6.4v109.3C97,158.5,91.2,164.2,84.1,164.2z M52,157.8c3.6,0,6.4-2.9,6.4-6.4c0-3.6-2.9-6.4-6.4-6.4
	c-3.6,0-6.4,2.9-6.4,6.4C45.6,154.9,48.4,157.8,52,157.8z M61.6,16.4H42.4c-1.8,0-3.2,1.4-3.2,3.2c0,1.8,1.4,3.2,3.2,3.2h19.3
	c1.8,0,3.2-1.4,3.2-3.2C64.9,17.8,63.4,16.4,61.6,16.4z M90.6,125.6V74.2V53.1V42.1v-6.4c0-3.6-2.9-6.4-6.4-6.4h-6.4H26.3h-6.4
	c-3.6,0-6.4,2.9-6.4,6.4v6.4v11.1v21.1v51.4v6.4c0,3.5,2.9,6.4,6.4,6.4h6.4h51.4h6.4c3.6,0,6.4-2.9,6.4-6.4V125.6z"/>
</svg>
