<?xml version="1.0" encoding="utf-8"?>
<!-- Generator: Adobe Illustrator 23.0.3, SVG Export Plug-In . SVG Version: 6.00 Build 0)  -->
<svg version="1.1" id="Layer_1" xmlns="http://www.w3.org/2000/svg" xmlns:xlink="http://www.w3.org/1999/xlink" x="0px" y="0px"
	 viewBox="0 0 415 415" style="enable-background:new 0 0 415 415;" xml:space="preserve">
<g>
	<path d="M207.5,43.5c53.3,0,59.6,0,80.9,1.3c19.6,0.9,30.2,4,37.3,6.7c9.3,3.6,16,8,23.1,15.1s11.1,13.8,15.1,23.1
		c2.7,7.1,5.8,17.8,6.7,37.3c0.9,20.9,1.3,27.6,1.3,80.9s0,59.6-1.3,80.9c-0.9,19.6-4,30.2-6.7,37.3c-3.6,9.3-8,16-15.1,23.1
		c-7.1,7.1-13.8,11.1-23.1,15.1c-7.1,2.7-17.8,5.8-37.3,6.7c-20.9,0.9-27.6,1.3-80.9,1.3s-59.6,0-80.9-1.3
		c-19.6-0.9-30.2-4-37.3-6.7c-9.3-3.6-16-8-23.1-15.1c-7.1-7.1-11.1-13.8-15.1-23.1c-2.7-7.1-5.8-17.8-6.7-37.3
		c-0.9-20.9-1.3-27.6-1.3-80.9s0-59.6,1.3-80.9c0.9-19.6,4-30.2,6.7-37.3c3.6-9.3,8-16,15.1-23.1s13.8-11.1,23.1-15.1
		c7.1-2.7,17.8-5.8,37.3-6.7C147.9,43.9,154.2,43.5,207.5,43.5 M207.5,7.5c-54.2,0-61.3,0.4-82.7,1.3s-36,4.4-48.4,9.3
		c-13.3,5.3-24.4,12-35.6,23.1S23.1,63.5,17.7,76.8c-4.9,12.9-8.4,27.1-9.3,48.4c-0.4,20.9-0.9,28-0.9,82.2s0.4,61.3,1.3,82.7
		c0.9,21.3,4.4,36,9.3,48.4c5.3,13.3,12,24.4,23.1,35.6s22.2,17.8,35.6,23.1c12.9,4.9,27.1,8.4,48.4,9.3c20.9,0.4,28,0.9,82.2,0.9
		s61.3-0.4,82.7-1.3c21.3-0.9,36-4.4,48.4-9.3c13.3-5.3,24.4-12,35.6-23.1s17.8-22.2,23.1-35.6c4.9-12.9,8.4-27.1,9.3-48.4
		c0.4-20.9,0.9-28,0.9-82.2s-0.4-61.3-1.3-82.7c-0.9-21.3-4.4-36-9.3-48.4c-5.3-13.3-12-24.4-23.1-35.6s-22.2-17.8-35.6-23.1
		c-12.9-4.9-27.1-8.4-48.4-9.3C268.8,7.9,261.7,7.5,207.5,7.5L207.5,7.5z"/>
	<path d="M207.5,85.3c-67.6,0-122.2,54.7-122.2,122.2s54.7,122.2,122.2,122.2s122.2-54.7,122.2-122.2S275.1,85.3,207.5,85.3z
		 M207.5,287.1c-44,0-79.6-35.6-79.6-79.6s35.6-79.6,79.6-79.6s79.6,35.6,79.6,79.6S251.5,287.1,207.5,287.1z"/>
	<circle cx="314.2" cy="91.9" r="22.2"/>
</g>
</svg>
