<?xml version="1.0" encoding="utf-8"?>
<!-- Generator: Adobe Illustrator 23.0.3, SVG Export Plug-In . SVG Version: 6.00 Build 0)  -->
<svg version="1.1" id="Layer_1" xmlns="http://www.w3.org/2000/svg" xmlns:xlink="http://www.w3.org/1999/xlink" x="0px" y="0px"
	 viewBox="0 0 104 71.1" style="enable-background:new 0 0 104 71.1;" xml:space="preserve">
<style type="text/css">
	.st0{fill-rule:evenodd;clip-rule:evenodd;}
</style>
<path class="st0" d="M52,18.7c-2.9,0-5.8,0.7-8.5,2.2c-3.8,2.2-6.3,5.6-7.6,9.5l-9.7-16.8c0.1-0.1,0.2-0.3,0.3-0.4
	c0.5-0.5,1-1,1.5-1.5c0.3-0.3,0.6-0.6,0.9-0.9c0.5-0.4,0.9-0.8,1.4-1.2c0.4-0.3,0.8-0.6,1.2-0.9c0.4-0.3,0.9-0.7,1.4-1
	c0.5-0.3,0.9-0.6,1.4-0.9c0.3-0.2,0.5-0.4,0.8-0.5c0.2-0.1,0.4-0.2,0.5-0.3c0.5-0.3,1-0.5,1.5-0.8c0.5-0.3,1-0.5,1.5-0.7
	C39,4.3,39.4,4.1,39.8,4c0.6-0.2,1.2-0.5,1.9-0.7c0.2-0.1,0.3-0.1,0.5-0.1c2.5-0.8,5-1.2,7.6-1.4c0.4,0,0.8-0.1,1.1-0.1
	c0.5,0,1,0,1.5,0c0.6,0,1.2,0,1.8,0c0.4,0,0.8,0.1,1.1,0.1C56,1.9,56.7,2,57.4,2.1c0.3,0.1,0.7,0.1,1,0.2c0.7,0.1,1.4,0.3,2.1,0.5
	c0.4,0.1,0.7,0.2,1.1,0.3c0.6,0.2,1.3,0.4,1.9,0.6c0.5,0.2,0.9,0.4,1.3,0.5c0.5,0.2,1.1,0.4,1.6,0.7c0.5,0.3,1.1,0.5,1.6,0.8
	C68.4,5.9,68.7,6,69,6.2c0.1,0,0.2,0.1,0.2,0.2c1.2,0.7,2.4,1.5,3.5,2.3c0.1,0.1,0.1,0.1,0.2,0.2c1,0.8,2,1.6,2.9,2.6
	c0.2,0.2,0.4,0.4,0.6,0.6c0.8,0.9,1.6,1.8,2.4,2.8c0.1,0.1,0.2,0.2,0.3,0.3c0.8,1.1,1.6,2.3,2.4,3.5L52,18.7L52,18.7z M37.3,44.1
	c3.8,6.5,11.2,9.5,18.2,8l-9.7,16.8c-2.4-0.5-4.8-1.1-7.1-2.1c-0.3-0.1-0.6-0.2-0.9-0.4c-0.1,0-0.1-0.1-0.2-0.1
	c-0.6-0.3-1.2-0.6-1.8-0.9c-0.3-0.1-0.6-0.3-0.8-0.4c-0.1-0.1-0.2-0.1-0.3-0.2c-0.6-0.4-1.2-0.8-1.9-1.2c-0.3-0.2-0.7-0.4-1-0.7
	c-0.5-0.4-1.1-0.8-1.6-1.3c-0.4-0.3-0.7-0.6-1.1-0.9c-0.4-0.4-0.8-0.8-1.2-1.2c-0.4-0.4-0.8-0.8-1.2-1.2c-0.3-0.3-0.6-0.7-0.9-1.1
	c-0.4-0.5-0.9-1-1.3-1.6c-0.2-0.3-0.4-0.7-0.7-1c-0.4-0.6-0.8-1.2-1.2-1.9c-0.1-0.1-0.1-0.2-0.2-0.3c-0.2-0.3-0.3-0.6-0.4-0.8
	c-0.3-0.6-0.6-1.2-0.9-1.8c-0.2-0.5-0.4-1-0.6-1.5c-0.2-0.5-0.4-1-0.6-1.5c-0.2-0.6-0.4-1.2-0.6-1.7c-0.1-0.4-0.3-0.9-0.4-1.4
	c-0.2-0.6-0.3-1.3-0.4-1.9c-0.1-0.4-0.2-0.9-0.2-1.3c-0.1-0.6-0.2-1.2-0.2-1.9c0-0.5-0.1-1-0.1-1.5c0-0.6,0-1.1,0-1.7
	c0-0.6,0-1.1,0-1.7c0-0.5,0.1-1,0.1-1.5c0.1-0.6,0.1-1.2,0.2-1.9c0.1-0.4,0.1-0.9,0.2-1.3c0.1-0.6,0.3-1.3,0.4-1.9
	c0.1-0.5,0.2-0.9,0.4-1.4c0.2-0.6,0.4-1.2,0.6-1.8c0.2-0.5,0.4-1,0.6-1.5c0.2-0.5,0.4-1,0.6-1.5c0.3-0.6,0.6-1.2,0.9-1.8
	c0.1-0.3,0.3-0.6,0.4-0.8l0,0l0,0L37.3,44.1z M57.7,45.4c-5.4,3.1-12.3,1.3-15.5-4.1c-3.1-5.4-1.3-12.3,4.1-15.5
	c5.4-3.1,12.3-1.3,15.5,4.1C64.9,35.3,63.1,42.3,57.7,45.4z M66.6,44c2.9-5.1,3.2-11.5,0.1-16.9c-0.6-1-1.3-2-2-2.8h19.3
	c1,2.8,1.6,5.6,1.8,8.4c0,0.2,0,0.4,0,0.6c0.1,1.1,0.1,2.1,0.1,3.2c0,0.3,0,0.6,0,0.8c-0.1,1-0.2,2.1-0.3,3.1c0,0.2,0,0.5-0.1,0.7
	c-0.2,1.2-0.5,2.4-0.8,3.6c-0.1,0.4-0.2,0.7-0.4,1.1c-0.3,0.8-0.6,1.7-0.9,2.5c-0.2,0.4-0.3,0.8-0.5,1.2c-0.4,0.9-0.8,1.7-1.3,2.6
	c-0.1,0.2-0.2,0.4-0.3,0.6c-0.1,0.1-0.1,0.2-0.2,0.2c-1.4,2.4-3.2,4.7-5.3,6.8c-0.2,0.2-0.3,0.3-0.5,0.5c-0.1,0-0.1,0.1-0.2,0.1
	c-0.9,0.9-1.9,1.7-2.9,2.5c0,0,0,0-0.1,0c-1.1,0.8-2.2,1.6-3.4,2.3c-1.3,0.8-2.7,1.4-4.1,2c-0.1,0-0.1,0.1-0.2,0.1c0,0-0.1,0-0.1,0
	c-4.1,1.6-8.3,2.4-12.5,2.4L66.6,44L66.6,44z"/>
</svg>
