<svg id="Layer_1" data-name="Layer 1" xmlns="http://www.w3.org/2000/svg" viewBox="0 0 399.9 400"><defs><style>.cls-1{fill:#1a1a1a;}</style></defs><title>icon-instagram</title><path class="cls-1" d="M207.5,43.5c53.3,0,59.6,0,80.9,1.3,19.6.9,30.2,4,37.3,6.7a62.2,62.2,0,0,1,23.1,15.1c7.1,7.1,11.1,13.8,15.1,23.1,2.7,7.1,5.8,17.8,6.7,37.3.9,20.9,1.3,27.6,1.3,80.9s0,59.6-1.3,80.9c-.9,19.6-4,30.2-6.7,37.3a62.2,62.2,0,0,1-15.1,23.1c-7.1,7.1-13.8,11.1-23.1,15.1-7.1,2.7-17.8,5.8-37.3,6.7-20.9.9-27.6,1.3-80.9,1.3s-59.6,0-80.9-1.3c-19.6-.9-30.2-4-37.3-6.7a62.2,62.2,0,0,1-23.1-15.1c-7.1-7.1-11.1-13.8-15.1-23.1-2.7-7.1-5.8-17.8-6.7-37.3-.9-20.9-1.3-27.6-1.3-80.9s0-59.6,1.3-80.9c.9-19.6,4-30.2,6.7-37.3A62.2,62.2,0,0,1,66.2,66.6C73.3,59.5,80,55.5,89.3,51.5c7.1-2.7,17.8-5.8,37.3-6.7,21.3-.9,27.6-1.3,80.9-1.3m0-36.1c-54.2,0-61.3.4-82.7,1.3s-36,4.4-48.4,9.3A101,101,0,0,0,40.8,41.1C29.6,52.2,23.1,63.5,17.7,76.8c-4.9,12.9-8.4,27.1-9.3,48.4-.4,20.9-.9,28-.9,82.2s.4,61.3,1.3,82.7,4.4,36,9.3,48.4a101,101,0,0,0,23.1,35.6c11.1,11.2,22.2,17.8,35.6,23.1,12.9,4.9,27.1,8.4,48.4,9.3,20.9.4,28,.9,82.2.9s61.3-.4,82.7-1.3,36-4.4,48.4-9.3a101,101,0,0,0,35.6-23.1c11.2-11.1,17.8-22.2,23.1-35.6,4.9-12.9,8.4-27.1,9.3-48.4.4-20.9.9-28,.9-82.2s-.4-61.3-1.3-82.7-4.4-36-9.3-48.4a101,101,0,0,0-23.1-35.6C362.6,29.6,351.5,23,338.1,17.7c-12.9-4.9-27.1-8.4-48.4-9.3-20.9-.5-28-1-82.2-1Z" transform="translate(-7.5 -7.4)"/><path class="cls-1" d="M207.5,85.3A122.2,122.2,0,1,0,329.7,207.5,122.12,122.12,0,0,0,207.5,85.3Zm0,201.8a79.6,79.6,0,1,1,79.6-79.6A79.55,79.55,0,0,1,207.5,287.1Z" transform="translate(-7.5 -7.4)"/><circle class="cls-1" cx="306.7" cy="84.5" r="22.2"/></svg>