<?xml version="1.0" encoding="utf-8"?>
<!-- Generator: Adobe Illustrator 23.0.3, SVG Export Plug-In . SVG Version: 6.00 Build 0)  -->
<svg version="1.1" id="Layer_1" xmlns="http://www.w3.org/2000/svg" xmlns:xlink="http://www.w3.org/1999/xlink" x="0px" y="0px"
	 viewBox="0 0 40 71.1" style="enable-background:new 0 0 40 71.1;" xml:space="preserve">
<style type="text/css">
	.st0{fill-rule:evenodd;clip-rule:evenodd;}
</style>
<g>
	<g>
		<path class="st0" d="M23.5,31.8h-7c-0.8,0-1.5,0.7-1.5,1.5v4.5c0,0.8,0.7,1.5,1.5,1.5h7c0.8,0,1.5-0.7,1.5-1.5v-4.5
			C25,32.5,24.3,31.8,23.5,31.8z M23.3,32.8L21,35.2l-1,1.1l-1-1.1l-2.3-2.4H23.3z M16,37.6v-4l1.9,2L16,37.6z M16.7,38.3l1.9-2
			l1,1.1c0.2,0.2,0.5,0.2,0.7,0l1-1.1l1.9,2H16.7z M24,37.6l-1.9-2l1.9-2V37.6z"/>
	</g>
</g>
</svg>
