<svg id="Layer_1" data-name="Layer 1" xmlns="http://www.w3.org/2000/svg" viewBox="0 0 196.69999 400"><defs><style>.cls-1{fill:#565656;}</style></defs><path class="cls-1" d="M197.8,10H53A25.90535,25.90535,0,0,0,27.1,35.9V384.1A25.90535,25.90535,0,0,0,53,410H197.9a25.90535,25.90535,0,0,0,25.9-25.9V35.9A26.05541,26.05541,0,0,0,197.8,10ZM114.5,31.4h21.6a2.71047,2.71047,0,0,1,2.9,2.5,2.70458,2.70458,0,0,1-2.9,2.4H114.5c-1.6,0-3-1.1-3-2.4A2.80744,2.80744,0,0,1,114.5,31.4ZM98.3,28.5a5.4,5.4,0,1,1,0,10.8,5.44179,5.44179,0,0,1-5.4-5.4A5.50837,5.50837,0,0,1,98.3,28.5ZM125.4,401a14.3,14.3,0,1,1,14.3-14.3A14.297,14.297,0,0,1,125.4,401ZM211,365.9H40.1a3.65434,3.65434,0,0,1-3.5-3.7L36.3,58.5a3.65434,3.65434,0,0,1,3.5-3.7H210.7a3.65434,3.65434,0,0,1,3.5,3.7l.3,303.8A3.56487,3.56487,0,0,1,211,365.9Z" transform="translate(-27.1 -10)"/><circle class="cls-1" cx="98.31185" cy="376.67534" r="9.39966"/></svg>