<?xml version="1.0" encoding="utf-8"?>
<!-- Generator: Adobe Illustrator 23.0.3, SVG Export Plug-In . SVG Version: 6.00 Build 0)  -->
<svg version="1.1" id="Layer_1" xmlns="http://www.w3.org/2000/svg" xmlns:xlink="http://www.w3.org/1999/xlink" x="0px" y="0px"
	 viewBox="0 0 250.9 420" style="enable-background:new 0 0 250.9 420;" xml:space="preserve">
<g id="XMLID_1_">
	<path id="XMLID_16_" d="M198.4,10H53.6c-14.3,0-25.9,11.6-25.9,25.9v348.2c0,14.3,11.6,25.9,25.9,25.9h144.9
		c14.3,0,25.9-11.6,25.9-25.9V35.9C224.3,21.6,212.7,10,198.4,10z M115.1,31.4h21.6c1.6,0,2.9,1.1,2.9,2.5c0,1.3-1.3,2.4-2.9,2.4
		h-21.6c-1.6,0-3-1.1-3-2.4C112.1,32.5,113.5,31.4,115.1,31.4z M98.9,28.5c3,0,5.4,2.4,5.4,5.4c0,3-2.4,5.4-5.4,5.4
		c-2.9,0-5.4-2.4-5.4-5.4C93.6,30.9,96,28.5,98.9,28.5z M126,401c-7.9,0-14.3-6.4-14.3-14.3c0-7.9,6.4-14.3,14.3-14.3
		c7.9,0,14.3,6.4,14.3,14.3C140.3,394.5,133.9,401,126,401z M211.6,365.9H40.7c-1.9,0-3.5-1.7-3.5-3.7L36.9,58.5
		c0-2,1.6-3.7,3.5-3.7h170.9c1.9,0,3.5,1.7,3.5,3.7l0.3,303.8C215.1,364.3,213.5,365.9,211.6,365.9z"/>
	<path id="XMLID_17_" d="M126,396.1c-5.2,0-9.4-4.2-9.4-9.4c0-5.2,4.2-9.4,9.4-9.4c5.2,0,9.4,4.2,9.4,9.4
		C135.4,391.9,131.2,396.1,126,396.1z"/>
</g>
</svg>
