<svg id="Layer_1" data-name="Layer 1" xmlns="http://www.w3.org/2000/svg" viewBox="0 0 30 30"><defs><style>.cls-1{fill:#0071bc;}</style></defs><title>telephone icon</title><path class="cls-1" d="M513,391.81a3.37,3.37,0,0,0,2,.75,2.24,2.24,0,0,0,1.15-.32,2.33,2.33,0,0,0,.82-.73,1.85,1.85,0,0,0,.39-.95,8,8,0,0,0-2.84-3.42c-.09,0-.43-.07-1.2.64a.46.46,0,0,1-.51.08,5.79,5.79,0,0,1-2.6-2.84h0a5.78,5.78,0,0,1-.47-3.81.5.5,0,0,1,.4-.34c1.05-.11,1.22-.41,1.26-.5a7.93,7.93,0,0,0-.75-4.38,1.88,1.88,0,0,0-1-.32,3,3,0,0,0-1.1.14,2.49,2.49,0,0,0-1,.68,3.36,3.36,0,0,0-.77,2.06A15.25,15.25,0,0,0,513,391.81ZM521.61,376a.47.47,0,0,1,.47-.47.46.46,0,0,1,.46.47v.87a.46.46,0,0,1-.46.45.47.47,0,0,1-.47-.45Zm0,2.44a.48.48,0,0,1,.47-.47.47.47,0,0,1,.46.47v8.79a.47.47,0,0,1-.46.47.48.48,0,0,1-.47-.47Zm-18.85-6.82h18.69a3.16,3.16,0,0,1,3.16,3.13v18.7a3.13,3.13,0,0,1-.93,2.22l0,0a3.14,3.14,0,0,1-2.19.91H502.76a3.16,3.16,0,0,1-3.13-3.15v-18.7a3.14,3.14,0,0,1,3.13-3.13Zm18.69.92H502.76a2.2,2.2,0,0,0-2.21,2.21v18.7a2.22,2.22,0,0,0,2.21,2.22h18.69a2.17,2.17,0,0,0,1.55-.62l0,0a2.13,2.13,0,0,0,.66-1.56v-18.7a2.24,2.24,0,0,0-2.23-2.21Zm-18.53-3.43h18.39a5.77,5.77,0,0,1,4.1,1.69v0a5.76,5.76,0,0,1,1.7,4.09V393.3a5.77,5.77,0,0,1-1.71,4.1v0a5.79,5.79,0,0,1-4.1,1.69H502.92a5.85,5.85,0,0,1-4.11-1.71h0a5.79,5.79,0,0,1-1.69-4.1V374.91a5.83,5.83,0,0,1,1.69-4.11h0a5.79,5.79,0,0,1,4.1-1.69Zm18.39.91H502.92a4.93,4.93,0,0,0-4.9,4.89V393.3a4.87,4.87,0,0,0,1.45,3.46,4.82,4.82,0,0,0,3.45,1.44h18.39a4.92,4.92,0,0,0,4.9-4.9V374.91a4.82,4.82,0,0,0-1.44-3.45,4.88,4.88,0,0,0-3.46-1.44ZM515,393.46a4.34,4.34,0,0,1-2.61-.92,16.11,16.11,0,0,1-5-6.22,15.85,15.85,0,0,1-1.43-7.85,4.48,4.48,0,0,1,1-2.6,3.53,3.53,0,0,1,1.37-.92,3.61,3.61,0,0,1,1.46-.2,2.76,2.76,0,0,1,1.57.59.45.45,0,0,1,.11.14,8.91,8.91,0,0,1,.89,5l0,.08s-.12.89-1.73,1.17a5.09,5.09,0,0,0,.47,2.89h0a4.93,4.93,0,0,0,1.91,2.26c1.17-1,1.9-.6,2-.55l.06,0a8.9,8.9,0,0,1,3.25,3.93.47.47,0,0,1,0,.16,2.63,2.63,0,0,1-.55,1.57,3.63,3.63,0,0,1-1.12,1,3.3,3.3,0,0,1-1.59.42Z" transform="translate(-497.12 -369.11)"/></svg>